<?xml version="1.0" encoding="UTF-8" standalone="no"?>
<svg width="41px" height="32px" viewBox="0 0 41 32" version="1.1" xmlns="http://www.w3.org/2000/svg" xmlns:xlink="http://www.w3.org/1999/xlink">
    <!-- Generator: Sketch 39.1 (31720) - http://www.bohemiancoding.com/sketch -->
    <title>Fill 16 Copy</title>
    <desc>Created with Sketch.</desc>
    <defs></defs>
    <g id="Autoatencion-de-recargas" stroke="none" stroke-width="1" fill="none" fill-rule="evenodd">
        <g id="Compra-tu-bolsa-" transform="translate(-51.000000, -522.000000)" fill="#720184">
            <g id="elige-tu-bolsa" transform="translate(21.000000, 451.000000)">
                <path d="M61.4285714,100.333333 L40.0571429,100.333333 C40.0571429,100.333333 32.4665143,99.5066667 32.5142857,92.3333333 C32.5406857,88.28 35.8934857,84.5733333 40.0571429,84.3333333 C40.0571429,78.8133333 43.3885714,73.6666667 48.8571429,73.6666667 C53.1729143,73.6666667 56.0517714,76.4666667 57.0763429,80.3466667 C63.3054857,80.0666667 67.5181714,85.2933333 67.7142857,89.6666667 C67.884,93.44 64.7977143,98.3066667 61.4285714,100.333333 L61.4285714,100.333333 Z M58.9985143,77.7066667 C57.1530286,73.7333333 53.3112,71 48.8571429,71 C42.8869714,71 38.008,75.9066667 37.5843429,82.12 C33.1956571,83.4533333 30,87.52 30,92.3333333 C30,98.0133333 34.4502857,102.64 40.0571429,102.973333 L61.4285714,103 C65.7493714,101.013333 70.2285714,95.4666667 70.2285714,90.3333333 C70.2285714,83.5866667 65.2616,78.0933333 58.9985143,77.7066667 L58.9985143,77.7066667 Z M56.7708571,87.52 L51.3714286,93.2133333 L51.3714286,80.3466667 C51.3714286,79.6133333 50.8094857,79.0133333 50.1142857,79.0133333 C49.4203429,79.0133333 48.8571429,79.6133333 48.8571429,80.3466667 L48.8571429,93.1733333 L43.4966857,87.52 C43.0038857,87 42.2030857,87 41.7077714,87.52 C41.2149714,88.04 41.2149714,88.88 41.7077714,89.4133333 L49.1764571,97.2933333 C49.4404571,97.5733333 49.7886857,97.6933333 50.1344,97.6666667 C50.4788571,97.6933333 50.8283429,97.5733333 51.0910857,97.2933333 L58.5597714,89.4133333 C59.0525714,88.88 59.0525714,88.04 58.5597714,87.52 C58.0657143,87 57.2649143,87 56.7708571,87.52 L56.7708571,87.52 Z" id="Fill-16-Copy"></path>
            </g>
        </g>
    </g>
</svg>