<?xml version="1.0" encoding="UTF-8" standalone="no"?>
<svg width="32px" height="32px" viewBox="0 0 32 32" version="1.1" xmlns="http://www.w3.org/2000/svg" xmlns:xlink="http://www.w3.org/1999/xlink">
    <!-- Generator: Sketch 39.1 (31720) - http://www.bohemiancoding.com/sketch -->
    <title>Fill 135</title>
    <desc>Created with Sketch.</desc>
    <defs></defs>
    <g id="Autoatencion-de-recargas" stroke="none" stroke-width="1" fill="none" fill-rule="evenodd">
        <g id="Compra-tu-bolsa-" transform="translate(-171.000000, -641.000000)" fill="#720184">
            <g id="elige-tu-bolsa" transform="translate(21.000000, 451.000000)">
                <path d="M180,214 C180,215.104 179.104,216 178,216 L177.056,216 C177.649,214.338 178,212.481 178,210.5 C178,208.907 177.766,207.398 177.372,206 L178,206 C179.104,206 180,206.896 180,208 L180,214 L180,214 Z M174.873,216 L174,216 C172.896,216 172,215.104 172,214 L172,208 C172,206.896 172.896,206 174,206 L175.258,206 C175.723,207.386 176,208.897 176,210.5 C176,212.5 175.578,214.363 174.873,216 L174.873,216 Z M154.629,206 C154.234,207.398 154,208.907 154,210.5 C154,212.481 154.352,214.338 154.944,216 L154,216 C152.896,216 152,215.104 152,214 L152,208 C152,206.896 152.896,206 154,206 L154.629,206 L154.629,206 Z M156.742,206 L158,206 C159.104,206 160,206.896 160,208 L160,214 C160,215.104 159.104,216 158,216 L157.127,216 C156.422,214.363 156,212.5 156,210.5 C156,208.897 156.277,207.386 156.742,206 L156.742,206 Z M179.938,204.521 C179.966,204.183 180,203.846 180,203.5 C180,196.044 173.732,190 166,190 C158.268,190 152,196.044 152,203.5 C152,203.846 152.034,204.183 152.063,204.521 C150.838,205.205 150,206.498 150,208 L150,214 C150,216.209 151.791,218 154,218 C154,218 158.004,218.006 158,218 C160.125,217.905 162,216.148 162,214 L162,208 C162,205.791 160.209,204 158,204 L154,204 C154,197.337 159.373,192 166,192 C172.628,192 178,196.867 178,204 L174,204 C171.791,204 170,205.791 170,208 L170,214 C170,216.148 171.875,217.905 174,218 C173.996,218.006 176,218 176,218 L176,221 C176,221.553 176.447,222 177,222 C177.553,222 178,221.553 178,221 L178,218 C180.209,218 182,216.209 182,214 L182,208 C182,206.498 181.162,205.205 179.938,204.521 L179.938,204.521 Z" id="Fill-135"></path>
            </g>
        </g>
    </g>
</svg>