<?xml version="1.0" encoding="UTF-8" standalone="no"?>
<svg width="18px" height="18px" viewBox="0 0 18 18" version="1.1" xmlns="http://www.w3.org/2000/svg" xmlns:xlink="http://www.w3.org/1999/xlink">
    <!-- Generator: Sketch 39.1 (31720) - http://www.bohemiancoding.com/sketch -->
    <title>ico money</title>
    <desc>Created with Sketch.</desc>
    <defs></defs>
    <g id="Symbols" stroke="none" stroke-width="1" fill="none" fill-rule="evenodd">
        <g id="Recarga-ahora" transform="translate(-15.000000, -17.000000)" fill="#FFFFFF">
            <g id="ico-money" transform="translate(15.000000, 17.000000)">
                <path d="M8.98415023,15.907823 C5.1691276,15.907823 2.06534932,12.8110916 2.06534932,9.00464018 C2.06534932,5.19814808 5.1691276,2.10133544 8.98415023,2.10133544 C12.7992543,2.10133544 15.9030733,5.19814808 15.9030733,9.00464018 C15.9030733,12.8110916 12.7992543,15.907823 8.98415023,15.907823 M15.3370507,2.66612099 C13.6401638,0.97306456 11.3839738,0.0406401806 8.98415023,0.0406401806 C6.58440814,0.0406401806 4.32829955,0.97306456 2.63141267,2.66612099 C0.934525792,4.35917743 -8.14479654e-06,6.61027449 -8.14479654e-06,9.00464018 C-8.14479654e-06,11.3989652 0.934525792,13.6500217 2.63141267,15.3430781 C4.32829955,17.0361345 6.58440814,17.9685183 8.98415023,17.9685183 C11.383933,17.9685183 13.6401231,17.0361345 15.3370507,15.3430781 C17.0339376,13.6500217 17.9684308,11.3989652 17.9684308,9.00464018 C17.9684308,6.61023386 17.0339376,4.35917743 15.3370507,2.66612099" id="Fill-1"></path>
                <path d="M9.78520317,10.0005725 C11.3871624,10.0412045 11.5645968,11.6361752 9.78267828,11.8912226 L9.78520317,10.0005725 Z M7.93735249,6.05800361 L7.93735249,7.72517743 C6.64281855,7.7048614 6.61765113,6.2893219 7.93735249,6.05800361 L7.93735249,6.05800361 Z M7.92717149,2.85948894 L7.92717149,4.1800307 C7.39161041,4.1800307 4.98229819,4.86078014 4.98229819,7.04333093 C4.98229819,8.98493363 6.72092715,9.5134754 7.92590905,9.68693363 L7.92717149,11.8810646 C7.04732986,11.6304867 6.88744751,10.95506 6.76527557,10.396735 L4.83341131,10.396735 C4.95297692,12.5803422 6.87518959,13.5958998 7.92717149,13.7501391 L7.92717149,15.0935567 L9.76357873,15.0935567 L9.76357873,13.7704551 C11.2172213,13.6933354 12.9387869,12.440893 12.9387869,10.7243106 C12.9387869,8.75828804 11.2239407,8.2002474 9.76357873,8.05023386 L9.76357873,6.03894718 C10.3381941,6.07957923 10.7865652,6.64842799 10.8351081,7.22743476 L12.7478729,7.22743476 C12.7478729,5.27709616 10.9694158,4.25113679 9.74447919,4.1800307 L9.74447919,2.85948894 L7.92717149,2.85948894 Z" id="Fill-4"></path>
            </g>
        </g>
    </g>
</svg>