<?xml version="1.0" standalone="no"?>
<!DOCTYPE svg PUBLIC "-//W3C//DTD SVG 1.1//EN" "http://www.w3.org/Graphics/SVG/1.1/DTD/svg11.dtd" >
<svg xmlns="http://www.w3.org/2000/svg">
<metadata></metadata>
<defs>
<font id="cera_stencilbold" horiz-adv-x="1146" >
<font-face units-per-em="2048" ascent="1655" descent="-393" />
<missing-glyph horiz-adv-x="573" />
<glyph horiz-adv-x="0" />
<glyph horiz-adv-x="682" />
<glyph unicode=" "  horiz-adv-x="573" />
<glyph unicode="&#x09;" horiz-adv-x="573" />
<glyph unicode="&#xa0;" horiz-adv-x="573" />
<glyph unicode="!" horiz-adv-x="710" d="M518 1352l-51 -856h-225l-54 856h330zM358 356q79 0 134 -55t55 -135q0 -81 -54.5 -136t-134.5 -55q-84 0 -138 54.5t-54 136.5q0 81 54 135.5t138 54.5z" />
<glyph unicode="&#x22;" horiz-adv-x="1101" d="M496 1352l-115 -570h-211l10 570h316zM981 1352l-115 -570h-211l11 570h315z" />
<glyph unicode="#" horiz-adv-x="1292" d="M1069 1012h168v-232h-1139v232h215l47 340h226l-45 -340h303l45 340h225zM55 340v231h1139v-231h-215l-45 -340h-225l45 340h-303l-45 -340h-226l45 340h-170z" />
<glyph unicode="$" horiz-adv-x="1101" d="M442 596q-139 48 -222 139.5t-83 218.5q0 124 79.5 212.5t211.5 119.5v248h242v-244q203 -43 305 -233l-184 -142q-98 142 -234 142q-62 0 -105.5 -26t-43.5 -79q0 -39 31.5 -69.5t105.5 -59.5l30 -12l-96 -227zM1010 408q0 -144 -93.5 -238t-246.5 -121v-248h-242v252 q-240 51 -362 277l186 141q117 -188 309 -188q78 0 128 30.5t50 89.5q0 49 -39 80t-116 62l-23 8l98 229l39 -12q312 -115 312 -362z" />
<glyph unicode="%" horiz-adv-x="1703" d="M100 954q-14 41 -14 86q0 141 101.5 238.5t246.5 97.5q102 0 186 -52.5t121 -137.5h-288q-75 0 -114.5 -40.5t-39.5 -107.5q0 -44 16 -84h-215zM352 0l776 1352h224l-779 -1352h-221zM434 702q-104 0 -188 52.5t-119 140.5h291q75 0 114 38.5t39 106.5q0 42 -20 84h217 q16 -43 16 -88q0 -140 -103 -237t-247 -97zM936 231q-14 38 -14 86q0 141 101.5 237.5t246.5 96.5q103 0 186.5 -52t120.5 -138h-289q-75 0 -114 -40.5t-39 -107.5q0 -45 16 -82h-215zM1270 -23q-104 0 -188 53t-119 140h290q74 0 113 39t39 106q0 48 -19 84h218 q16 -43 16 -88q0 -140 -103 -237t-247 -97z" />
<glyph unicode="&#x26;" horiz-adv-x="1378" d="M987 0l-596 725q-72 87 -107.5 165t-35.5 163q0 145 93 234t245 89q151 0 244.5 -87t93.5 -222q0 -161 -150 -279l-141 175q43 49 43 90q0 40 -22.5 64t-65.5 24q-41 0 -66.5 -24.5t-25.5 -65.5q0 -12 2.5 -23.5t5 -20.5t9 -21.5t10 -19t13.5 -19.5t13.5 -18t15.5 -19.5 t15 -18.5l731 -891h-324zM1159 434q-64 0 -108.5 44.5t-44.5 109.5q0 64 44 108.5t109 44.5q62 0 108 -44.5t46 -108.5t-46 -109t-108 -45zM547 -25q-203 0 -328 104t-125 273q0 104 52 185.5t151 160.5l149 -180q-75 -66 -75 -141q0 -70 50.5 -114t133.5 -44q57 0 111 33 l159 -195q-118 -82 -278 -82z" />
<glyph unicode="'" horiz-adv-x="616" d="M496 1352l-115 -570h-211l10 570h316z" />
<glyph unicode="(" horiz-adv-x="747" d="M586 1513l108 -165q-67 -44 -119 -101.5t-98 -143t-71 -208t-25 -274.5q0 -517 313 -725l-108 -166q-93 42 -170.5 113.5t-141 178.5t-99.5 260.5t-36 338.5q0 187 36 341t100 260.5t141 177.5t170 113z" />
<glyph unicode=")" horiz-adv-x="747" d="M164 1513q92 -42 168.5 -113t140 -177.5t99.5 -260.5t36 -341q0 -185 -36 -339t-99.5 -260.5t-140.5 -178t-168 -113.5l-111 166q316 210 316 725q0 152 -25.5 274.5t-72 208t-99 142.5t-119.5 102z" />
<glyph unicode="*" horiz-adv-x="956" d="M877 1260l-189 -140l189 -137l-80 -137l-213 92l-27 -229h-158l-26 229l-213 -92l-80 137l186 137l-186 140l80 137l213 -92l26 229h158l27 -229l213 92z" />
<glyph unicode="+" d="M444 174v365h-352v233h352v361h265v-361h348v-233h-348v-365h-265z" />
<glyph unicode="," horiz-adv-x="552" d="M455 252l-107 -617h-219l10 617h316z" />
<glyph unicode="-" horiz-adv-x="700" d="M608 772v-231h-516v231h516z" />
<glyph unicode="." horiz-adv-x="552" d="M279 356q81 0 134.5 -55t53.5 -135q0 -82 -53.5 -136.5t-134.5 -54.5q-83 0 -138 54.5t-55 136.5q0 80 55 135t138 55z" />
<glyph unicode="/" horiz-adv-x="1376" d="M1370 1597l-1071 -1845h-293l1071 1845h293z" />
<glyph unicode="0" horiz-adv-x="1349" d="M143 315q-57 105 -57 236q0 158 78 290t213 207.5t297 75.5q152 0 279 -68.5t198 -185.5h-449q-155 0 -244 -88.5t-89 -232.5q0 -125 71 -234h-297zM674 -25q-152 0 -278 68.5t-197 185.5h448q155 0 244.5 89t89.5 233q0 122 -72 233h297q58 -107 58 -237 q0 -158 -78 -289.5t-213.5 -207t-298.5 -75.5z" />
<glyph unicode="1" horiz-adv-x="1056" d="M709 1100v-778h-275v530h-270v248h545zM977 233v-233h-834v233h834z" />
<glyph unicode="2" horiz-adv-x="1189" d="M588 1124q200 0 328 -113.5t128 -291.5q0 -109 -52 -197t-156 -176l-33 -24h-373l76 55q132 101 171 141q85 85 85 174q0 75 -49.5 126.5t-134.5 51.5t-134 -51.5t-49 -128.5q0 -16 8 -86h-270q-16 62 -16 113q0 77 33 150t92 130.5t149.5 92t196.5 34.5zM1083 233v-233 h-1001v59l233 174h768z" />
<glyph unicode="3" horiz-adv-x="1099" d="M981 1100v-74l-461 -637h-239v72l280 391h-452v248h872zM766 580q106 -51 174 -151.5t68 -235.5t-69 -242t-185 -165t-256 -58q-169 0 -296.5 84t-195.5 221l191 137q61 -93 129.5 -140.5t162.5 -47.5q103 0 169.5 56.5t66.5 154.5q0 114 -109 172z" />
<glyph unicode="4" horiz-adv-x="1179" d="M725 1100l-348 -867h241v-233h-583v74l405 1026h285zM981 614v-381h174v-233h-174v-248h-274v862h274z" />
<glyph unicode="5" horiz-adv-x="1132" d="M948 1100v-248h-518v-463h-266v711h784zM580 633q88 0 169.5 -29t147 -83t104.5 -138t39 -186q0 -207 -148.5 -338t-369.5 -131q-172 0 -301 83.5t-198 221.5l192 137q60 -93 131 -140.5t168 -47.5q107 0 175.5 56.5t68.5 154.5q0 87 -56 141.5t-155 54.5h-31v244h64z " />
<glyph unicode="6" horiz-adv-x="1150" d="M928 1352l-488 -684q-88 -120 -88 -213q0 -94 65 -160t158 -66q95 0 159.5 66t64.5 168q0 98 -64 156.5t-168 74.5l146 209q69 -14 132.5 -50.5t115 -91.5t82 -133.5t30.5 -168.5q0 -138 -69.5 -250t-183 -173t-245.5 -61q-98 0 -188.5 36.5t-158 99.5t-108 154.5 t-40.5 195.5q0 111 42.5 199t141.5 225l338 467h326z" />
<glyph unicode="7" horiz-adv-x="1075" d="M1028 1100v-74l-84 -174h-866v248h950zM903 764l-493 -1012h-301l505 1012h289z" />
<glyph unicode="8" horiz-adv-x="1204" d="M600 1376q128 0 228.5 -40.5t160.5 -122.5t60 -193q0 -141 -109 -242l-215 96q22 24 33 39t22 40.5t11 52.5q0 68 -54 107.5t-135 39.5t-134.5 -39.5t-53.5 -105.5q0 -59 44.5 -95t151.5 -84l199 -90q149 -67 224 -153t75 -215q0 -185 -139.5 -290.5t-364.5 -105.5 t-367.5 104t-142.5 277q0 167 160 277l215 -101q-49 -40 -73.5 -75t-24.5 -84q0 -77 59 -124.5t170 -47.5q113 0 173.5 47t60.5 121q0 46 -29 81t-62 53.5t-113 55.5q-22 11 -34 16l-176 80q-264 118 -264 357q0 174 124.5 269t319.5 95z" />
<glyph unicode="9" horiz-adv-x="1150" d="M227 -246l486 678q86 122 86 213q0 95 -65 160t-159 65q-95 0 -159 -65.5t-64 -167.5q0 -98 64 -156.5t170 -74.5l-148 -209q-68 14 -131 50.5t-114.5 91.5t-82 133.5t-30.5 168.5q0 138 68.5 249.5t181.5 172.5t245 61q133 0 246.5 -61t182.5 -173t69 -251 q0 -111 -43 -199.5t-143 -224.5l-334 -461h-326z" />
<glyph unicode=":" horiz-adv-x="552" d="M279 1032q82 0 135 -54t53 -136t-53 -135.5t-135 -53.5q-83 0 -138 53.5t-55 135.5t55 136t138 54zM279 356q81 0 134.5 -55t53.5 -135q0 -82 -53.5 -136.5t-134.5 -54.5q-83 0 -138 54.5t-55 136.5q0 80 55 135t138 55z" />
<glyph unicode=";" horiz-adv-x="552" d="M279 1032q82 0 135 -54t53 -136t-53 -135.5t-135 -53.5q-83 0 -138 53.5t-55 135.5t55 136t138 54zM455 252l-107 -617h-219l10 617h316z" />
<glyph unicode="&#x3c;" d="M688 725l-270 121l608 268v-242zM1026 199l-950 419v76l184 82l766 -336v-241z" />
<glyph unicode="=" d="M1036 993v-233h-923v233h923zM1036 553v-234h-923v234h923z" />
<glyph unicode="&#x3e;" d="M121 1114l950 -420v-76l-184 -81l-766 337v240zM459 588l270 -121l-608 -268v241z" />
<glyph unicode="?" horiz-adv-x="925" d="M274 967l-225 98q41 151 148 231t245 80q24 0 45 -8v-254q-28 8 -45 8q-108 0 -168 -155zM313 496q-22 50 -22 98q0 28 11 56.5t22 47t40 47t41 39t48 41.5q74 64 97 99.5t23 101.5v324q128 -27 205.5 -116t77.5 -216q0 -65 -23 -119t-55.5 -91t-91.5 -89 q-13 -11 -36.5 -32t-32.5 -29t-25 -23.5t-22 -24.5t-14 -22t-10.5 -25t-2.5 -26q0 -13 4 -41h-234zM438 -25q-82 0 -137 54.5t-55 136.5q0 80 54.5 135t137.5 55q82 0 136.5 -55t54.5 -135q0 -82 -54.5 -136.5t-136.5 -54.5z" />
<glyph unicode="@" horiz-adv-x="1951" d="M952 -377q-158 0 -297.5 47t-243.5 129.5t-180 191.5t-114.5 236t-38.5 260q0 151 47 287.5t132 243t199.5 185t255 120t292.5 41.5q186 0 347.5 -62.5t276 -171t179.5 -260t65 -325.5q0 -132 -38 -258t-103 -226h-226q146 239 146 482q0 282 -173 446t-466 164 q-154 0 -286 -48.5t-225.5 -134.5t-146.5 -209.5t-53 -268.5q0 -147 54 -271.5t146.5 -208.5t217 -131t264.5 -47q123 0 244 31l43 -191q-137 -51 -318 -51zM924 41q-180 0 -300 125t-120 319q0 195 119.5 320t298.5 125q108 0 182 -47v-211q-62 30 -125 30q-97 0 -158 -58 t-61 -159q0 -102 61 -160.5t158 -58.5q57 0 125 33v-211q-70 -47 -180 -47zM1180 61v850h233v-850h-233z" />
<glyph unicode="A" horiz-adv-x="1353" d="M1030 0l-498 1155l99 221h92l602 -1376h-295zM27 0l456 1044l146 -333l-131 -308h264l98 -227h-463l-73 -176h-297z" />
<glyph unicode="B" horiz-adv-x="1271" d="M1065 688q137 -107 137 -291q0 -175 -124 -286t-320 -111h-441h-161v1352h266h213q187 0 307.5 -106t120.5 -273q0 -169 -120.5 -282t-307.5 -113h-125v227h106q81 0 126.5 43.5t45.5 112.5q0 70 -45 111.5t-127 41.5h-194v-876h317q89 0 140 45.5t51 122.5q0 72 -51 126 z" />
<glyph unicode="C" horiz-adv-x="1474" d="M1186 893q-143 227 -391 227q-103 0 -193.5 -37.5t-152.5 -97.5v297q153 94 348 94q193 0 350.5 -89.5t247.5 -246.5zM799 -25q-117 0 -227 34.5t-199 98.5t-155.5 150t-103 194t-36.5 226q0 171 76.5 312.5t207.5 230.5v-531q0 -206 123.5 -332.5t313.5 -126.5 q244 0 387 228l209 -148q-89 -159 -246 -247.5t-350 -88.5z" />
<glyph unicode="D" horiz-adv-x="1413" d="M432 1352v-1352h-276v1352h276zM598 1352q215 0 382.5 -83t261 -235.5t93.5 -351.5t-93 -354.5t-261 -241.5t-383 -86h-80v250h80q204 0 329.5 117.5t125.5 314.5q0 194 -125 307t-330 113h-80v250h80z" />
<glyph unicode="E" horiz-adv-x="1173" d="M156 0v1352h909v-250h-633v-852h658v-250h-934zM518 594v233h381v-233h-381z" />
<glyph unicode="F" horiz-adv-x="1095" d="M156 0v1352h888v-250h-612v-1102h-276zM518 514v250h416v-250h-416z" />
<glyph unicode="G" horiz-adv-x="1529" d="M1174 922q-143 198 -377 198q-104 0 -195 -37.5t-153 -97.5v297q156 94 352 94q179 0 325 -76.5t244 -216.5zM809 -25q-153 0 -288.5 54t-232.5 147t-153.5 223t-56.5 277q0 170 77 313.5t207 231.5v-531q0 -211 125.5 -339t323.5 -128q111 0 204 41t154 107v43h277v-95 q-90 -159 -262 -251.5t-375 -92.5zM797 502v239h649v-239h-649z" />
<glyph unicode="H" horiz-adv-x="1460" d="M432 1352v-1352h-276v1352h276zM1307 1352v-1352h-277v584h-512v250h512v518h277z" />
<glyph unicode="I" horiz-adv-x="585" d="M156 0v1352h276v-1352h-276z" />
<glyph unicode="J" horiz-adv-x="796" d="M641 1352v-992q0 -193 -107 -289t-305 -96q-92 0 -194 25v236q124 -9 135 -9q101 0 148 37t47 125v963h276z" />
<glyph unicode="K" horiz-adv-x="1374" d="M156 0v1352h276v-1352h-276zM813 719l535 -719h-324l-532 715l469 637h317z" />
<glyph unicode="L" horiz-adv-x="1073" d="M432 1352v-1016h-276v1016h276zM1024 250v-250h-868v250h868z" />
<glyph unicode="M" horiz-adv-x="1634" d="M1479 1376v-319l-617 -762h-90l-616 762v319h90l571 -735l572 735h90zM156 918l276 -334v-584h-276v918zM1479 918v-918h-277v584z" />
<glyph unicode="N" horiz-adv-x="1460" d="M1214 -25l-1058 1121v280h90l1061 -1118v-283h-93zM1307 389l-277 285v678h277v-963zM156 0v965l276 -283v-682h-276z" />
<glyph unicode="O" horiz-adv-x="1593" d="M795 1376q196 0 361.5 -91.5t262.5 -253t97 -357.5q0 -170 -77 -312t-208 -231v531q0 204 -123.5 331t-312.5 127q-103 0 -193.5 -37.5t-152.5 -97.5v297q153 94 346 94zM362 1221v-531q0 -204 124 -331.5t313 -127.5q102 0 193 38t153 98v-297q-155 -95 -346 -95 q-117 0 -227 34.5t-199 98.5t-155.5 150t-103 194t-36.5 226q0 171 76.5 312.5t207.5 230.5z" />
<glyph unicode="P" horiz-adv-x="1216" d="M664 1352q215 0 351 -120t136 -317q0 -194 -136.5 -316t-350.5 -122h-146v242h146q97 0 150.5 53.5t53.5 142.5q0 87 -54 141t-150 54h-232v-1110h-276v1352h508z" />
<glyph unicode="Q" horiz-adv-x="1593" d="M1231 676q0 194 -124.5 319t-313.5 125q-101 0 -191.5 -37.5t-152.5 -97.5v297q153 94 346 94q196 0 361.5 -91.5t262.5 -252.5t97 -356q0 -143 -53 -268t-146 -218l-191 189q105 120 105 297zM1974 -217q43 0 191 8v-217q-106 -27 -246 -27q-276 0 -498 108t-415 351 q-117 -31 -211 -31q-117 0 -226.5 34.5t-198 98.5t-154.5 150t-102 194t-36 226q0 171 76.5 312.5t207.5 230.5v-545q0 -196 121.5 -320.5t311.5 -124.5q155 0 268 86q80 -90 136 -148.5t121 -120.5t117.5 -99.5t115.5 -72.5t125.5 -53.5t136 -29t159.5 -10.5z" />
<glyph unicode="R" horiz-adv-x="1310" d="M156 0v1352h508q215 0 351 -120t136 -317q0 -194 -136.5 -316t-350.5 -122h-146v244h146q95 0 149.5 53t54.5 141q0 86 -54.5 139.5t-149.5 53.5h-232v-1108h-276zM985 0l-287 389l275 57l323 -446h-311z" />
<glyph unicode="S" horiz-adv-x="1144" d="M838 975q-104 155 -263 155q-31 0 -75 -12v248q48 10 78 10q158 0 271.5 -70.5t176.5 -185.5zM776 14v324q0 36 -9 63.5t-20 45t-37.5 36t-46 28t-59.5 28.5l-145 65q-159 72 -243.5 164t-84.5 225q0 128 77 220t204 128v-309q0 -40 9.5 -69t33.5 -50.5t47 -35t67 -33.5 l154 -68q112 -49 182.5 -101.5t111 -126t40.5 -167.5q0 -136 -76.5 -232t-204.5 -135zM594 -25q-181 0 -318.5 80t-214.5 219l191 144q66 -91 143.5 -144t188.5 -53q42 0 104 15v-248q-54 -13 -94 -13z" />
<glyph unicode="T" horiz-adv-x="1198" d="M29 1102v250h1142v-250h-1142zM461 0v1016h276v-1016h-276z" />
<glyph unicode="U" horiz-adv-x="1433" d="M721 -25q-257 0 -417.5 159.5t-160.5 424.5v793h277v-813q0 -145 82 -226.5t223 -81.5q108 0 203 45v-260q-90 -41 -207 -41zM1014 59v1293h276v-793q0 -177 -73 -304.5t-203 -195.5z" />
<glyph unicode="V" horiz-adv-x="1353" d="M340 1352l491 -1129l-108 -248h-92l-604 1377h313zM1325 1352l-444 -1018l-156 350l289 668h311z" />
<glyph unicode="W" horiz-adv-x="2119" d="M1106 1376l514 -1169l-90 -232h-92l-377 850l-215 -491l-135 342l303 700h92zM358 1352l439 -1131l-115 -246h-90l-541 1377h307zM2068 1352l-403 -1030l-160 354l256 676h307z" />
<glyph unicode="X" horiz-adv-x="1257" d="M369 1352l860 -1352h-314l-862 1352h316zM1200 1352l-362 -578l-154 246l203 332h313zM424 610l154 -241l-236 -369h-315z" />
<glyph unicode="Y" horiz-adv-x="1277" d="M342 1352l436 -764v-588h-276v535l-467 817h307zM1243 1352l-414 -684l-145 260l254 424h305z" />
<glyph unicode="Z" horiz-adv-x="1204" d="M41 0v74l842 1278h262v-74l-840 -1278h-264zM129 1102v250h649l-160 -250h-489zM408 0l161 250h578v-250h-739z" />
<glyph unicode="[" horiz-adv-x="731" d="M184 1272v223h469v-223h-469zM184 -266v1452h236v-1229h233v-223h-469z" />
<glyph unicode="\" horiz-adv-x="1376" d="M6 1597h293l1071 -1845h-293z" />
<glyph unicode="]" horiz-adv-x="731" d="M311 41v1231h-233v223h471v-1454h-238zM78 -266v221h471v-221h-471z" />
<glyph unicode="^" horiz-adv-x="1097" d="M594 1372l401 -807h-264l-315 635l88 172h90zM367 1100l133 -264l-135 -271h-265z" />
<glyph unicode="_" horiz-adv-x="1028" d="M956 -133v-217h-884v217h884z" />
<glyph unicode="`" horiz-adv-x="604" d="M342 1169l-281 379v49h332l150 -428h-201z" />
<glyph unicode="a" horiz-adv-x="1116" d="M553 1036q199 0 316.5 -111.5t117.5 -322.5v-602h-276v618q0 85 -48.5 132t-140.5 47q-77 0 -138.5 -34.5t-129.5 -105.5l-143 170q176 209 442 209zM623 573v-182h-129q-142 0 -142 -102q0 -53 41.5 -82t110.5 -29q56 0 119 29v-182q-92 -50 -207 -50 q-153 0 -247.5 86.5t-94.5 217.5q0 137 103.5 215.5t281.5 78.5h164z" />
<glyph unicode="b" horiz-adv-x="1288" d="M137 0v1536h277v-1536h-277zM719 -25q-114 0 -217 54v237q83 -39 157 -39q119 0 194 78t75 203q0 124 -74.5 201t-194.5 77q-76 0 -157 -38v237q100 51 217 51q214 0 351.5 -149t137.5 -379t-138 -381.5t-351 -151.5z" />
<glyph unicode="c" horiz-adv-x="1130" d="M870 637q-102 147 -247 147q-100 0 -174 -49v266q75 35 174 35q149 0 262 -66.5t178 -183.5zM625 -25q-149 0 -274 70t-198 192.5t-73 270.5q0 151 76.5 270t203.5 180v-444q0 -128 74.5 -206.5t192.5 -78.5q79 0 136.5 38t106.5 108l193 -148q-67 -119 -181 -185.5 t-257 -66.5z" />
<glyph unicode="d" horiz-adv-x="1288" d="M874 0v1536h277v-1536h-277zM569 -25q-213 0 -351 151.5t-138 381.5t137.5 379t351.5 149q120 0 217 -51v-237q-81 38 -157 38q-120 0 -194.5 -77t-74.5 -201q0 -125 75 -203t194 -78q74 0 157 39v-237q-103 -54 -217 -54z" />
<glyph unicode="e" horiz-adv-x="1165" d="M440 414v194h379q-1 94 -64.5 149.5t-154.5 55.5q-110 0 -182 -83.5t-72 -219.5q0 -141 80 -219t217 -78q150 0 283 102l114 -188q-182 -152 -405 -152q-158 0 -285.5 70t-198.5 191.5t-71 269.5q0 224 153 377t377 153q210 0 343.5 -135.5t133.5 -335.5q0 -72 -18 -151 h-629z" />
<glyph unicode="f" horiz-adv-x="700" d="M575 1561q77 0 152 -23v-231q-49 6 -84 6q-93 0 -137.5 -37t-44.5 -121v-141h223v-234h-643v234h143v166q0 190 104 285.5t287 95.5zM461 692v-692h-277v692h277z" />
<glyph unicode="g" horiz-adv-x="1290" d="M571 31q-213 0 -350 142.5t-137 361.5q0 218 136.5 359.5t348.5 141.5q125 0 222 -51v-217q-83 39 -158 39q-120 0 -194 -77t-74 -198t74 -195.5t194 -74.5q75 0 158 39v-219q-97 -51 -220 -51zM631 -393q-288 0 -500 188l145 193q82 -64 160.5 -97.5t169.5 -33.5 q123 0 198 60.5t75 178.5v918h274v-901q0 -248 -142 -377t-380 -129z" />
<glyph unicode="h" horiz-adv-x="1198" d="M137 0v1536h277v-1536h-277zM795 0v592q0 89 -51.5 141.5t-139.5 52.5q-56 0 -102 -16v225q80 41 190 41q174 0 275.5 -111.5t101.5 -295.5v-629h-274z" />
<glyph unicode="i" horiz-adv-x="550" d="M276 1212q-74 0 -126 49t-52 121q0 73 52 122.5t126 49.5q73 0 125 -49.5t52 -122.5q0 -71 -52 -120.5t-125 -49.5zM414 1014v-1014h-277v1014h277z" />
<glyph unicode="j" horiz-adv-x="550" d="M276 1212q-74 0 -126 49t-52 121q0 73 52 122.5t126 49.5q73 0 125 -49.5t52 -122.5q0 -71 -52 -120.5t-125 -49.5zM414 1014v-1026q0 -189 -104 -285t-285 -96q-83 0 -154 22v232q49 -6 84 -6q93 0 137.5 36.5t44.5 120.5v1002h277z" />
<glyph unicode="k" d="M137 0v1536h277v-1536h-277zM776 551l361 -551h-312l-352 549l320 465h313z" />
<glyph unicode="l" horiz-adv-x="550" d="M414 1536v-1536h-277v1536h277z" />
<glyph unicode="m" horiz-adv-x="1826" d="M780 0v592q0 89 -48 141.5t-136 52.5q-54 0 -94 -16v225q80 41 188 41q168 0 267.5 -112t99.5 -295v-629h-277zM1423 0v592q0 90 -49 142t-135 52q-56 0 -104 -28l-66 203q112 75 256 75q176 0 275.5 -110.5t99.5 -296.5v-629h-277zM137 0v1014h277v-1014h-277z" />
<glyph unicode="n" horiz-adv-x="1198" d="M692 1036q174 0 275.5 -111.5t101.5 -295.5v-629h-274v592q0 89 -51.5 141.5t-139.5 52.5q-56 0 -102 -16v225q80 41 190 41zM414 1014v-1014h-277v1014h277z" />
<glyph unicode="o" horiz-adv-x="1245" d="M623 1036q149 0 273.5 -69t197.5 -191t73 -270q0 -150 -77 -270t-205 -181v445q0 127 -74.5 205.5t-192.5 78.5q-98 0 -169 -49v266q75 35 174 35zM360 958v-444q0 -128 75.5 -206.5t193.5 -78.5q95 0 168 47v-264q-79 -37 -172 -37q-149 0 -274 70t-198 192.5t-73 270.5 q0 151 76.5 270t203.5 180z" />
<glyph unicode="p" horiz-adv-x="1288" d="M719 1036q214 0 351.5 -149t137.5 -379t-138 -381.5t-351 -151.5q-114 0 -217 54v237q83 -39 157 -39q119 0 194 78t75 203q0 124 -74.5 201t-194.5 77q-76 0 -157 -38v237q100 51 217 51zM414 1014v-1383h-277v1383h277z" />
<glyph unicode="q" horiz-adv-x="1288" d="M569 -25q-213 0 -351 151.5t-138 381.5t137.5 379t351.5 149q120 0 217 -51v-237q-81 38 -157 38q-120 0 -194.5 -77t-74.5 -201q0 -125 75 -203t194 -78q74 0 157 39v-237q-103 -54 -217 -54zM874 -369v1383h277v-1383h-277z" />
<glyph unicode="r" horiz-adv-x="794" d="M641 1036q64 0 110 -44.5t46 -108.5t-46 -109t-110 -45t-108 44.5t-44 109.5t44 109t108 44zM414 1014v-1014h-277v1014h277z" />
<glyph unicode="s" horiz-adv-x="931" d="M707 715q-103 96 -215 96q-23 0 -35 -2v223q14 4 45 4q211 0 344 -151zM598 -4v258q0 51 -24.5 76.5t-79.5 48.5l-109 45q-140 57 -208 128.5t-68 180.5q0 114 70 189.5t190 97.5v-240q0 -55 23.5 -80t84.5 -51l98 -41q147 -58 216 -129.5t69 -183.5q0 -117 -70 -193 t-192 -106zM463 -25q-129 0 -238.5 52.5t-179.5 144.5l139 168q134 -137 285 -137q11 0 43 4v-225q-28 -7 -49 -7z" />
<glyph unicode="t" horiz-adv-x="851" d="M469 1270v-256h287v-234h-723v234h160v256h276zM469 692v-311q0 -86 44.5 -122t143.5 -36q25 0 131 8v-231q-98 -25 -190 -25q-193 0 -299 95t-106 286v336h276z" />
<glyph unicode="u" horiz-adv-x="1187" d="M596 -25q-204 0 -336.5 129.5t-132.5 341.5v568h276v-590q0 -88 55 -140.5t142 -52.5q52 0 98 19v-256q-46 -19 -102 -19zM784 23v991h277v-568q0 -156 -75.5 -267.5t-201.5 -155.5z" />
<glyph unicode="v" horiz-adv-x="1144" d="M315 1014l404 -834l-101 -205h-92l-501 1039h290zM1120 1014l-354 -733l-145 294l206 439h293z" />
<glyph unicode="w" horiz-adv-x="1755" d="M1169 -25l-290 594l-140 -290l-131 282l223 475h93l430 -856l-94 -205h-91zM496 -25l-471 1039h290l373 -838l-102 -201h-90zM1401 283l-152 290l191 441h291z" />
<glyph unicode="x" horiz-adv-x="1087" d="M762 0l-721 1014h309l721 -1014h-309zM750 598l-150 213l137 203h310zM16 0l320 449l149 -213l-159 -236h-310z" />
<glyph unicode="y" horiz-adv-x="1144" d="M367 176l-342 838h292l203 -492zM231 -393q-84 0 -178 24v232q94 -8 121 -8q72 0 120.5 28.5t84.5 108.5l450 1022h291l-483 -1102q-69 -158 -166.5 -231.5t-239.5 -73.5z" />
<glyph unicode="z" horiz-adv-x="958" d="M922 1014v-74l-643 -940h-244v74l641 940h246zM569 1014l-159 -234h-328v234h487zM926 233v-233h-541l160 233h381z" />
<glyph unicode="{" horiz-adv-x="845" d="M92 496v235h129q58 0 84.5 26t26.5 81q0 37 -22.5 168.5t-22.5 199.5q0 289 315 289h166v-223h-119q-127 0 -127 -133q0 -42 22.5 -170t22.5 -183q0 -134 -91 -212t-257 -78h-127zM602 -266q-315 0 -315 286q0 70 22.5 198t22.5 161q0 24 -6 45l221 78q20 -33 20 -88 q0 -46 -22.5 -165t-22.5 -161q0 -66 33 -99.5t94 -33.5h119v-221h-166z" />
<glyph unicode="|" horiz-adv-x="679" d="M455 1597v-1845h-230v1845h230z" />
<glyph unicode="}" horiz-adv-x="845" d="M297 727q-18 34 -18 88q0 45 22.5 164t22.5 162q0 66 -34 99.5t-95 33.5h-117v221h166q315 0 315 -287q0 -70 -22.5 -197.5t-22.5 -160.5q0 -24 6 -45zM78 -266v223h117q129 0 129 133q0 42 -22.5 169.5t-22.5 182.5q0 134 90.5 212.5t255.5 78.5h127v-235h-127 q-58 0 -84.5 -26t-26.5 -81q0 -37 22.5 -168.5t22.5 -199.5q0 -289 -315 -289h-166z" />
<glyph unicode="~" d="M322 885q84 0 174 -54l180 -110q78 -45 112 -45q33 0 51.5 22t18.5 56v32h209q6 -27 6 -67q0 -128 -71.5 -210.5t-176.5 -82.5q-82 0 -174 53l-180 109q-73 47 -113 47q-33 0 -50 -21.5t-17 -58.5v-31h-211q-4 36 -4 68q0 127 71 210t175 83z" />
<glyph unicode="&#xa1;" horiz-adv-x="710" d="M358 1036q80 0 134.5 -53.5t54.5 -134.5t-54.5 -136t-134.5 -55q-84 0 -138 54.5t-54 136.5t54 135t138 53zM469 516l51 -885h-330l54 885h225z" />
<glyph unicode="&#xa2;" horiz-adv-x="1138" d="M612 944q-103 0 -174.5 -62t-85.5 -161h-284q17 164 121 287.5t260 167.5v358h241v-342q119 -17 211.5 -81.5t149.5 -164.5l-193 -147q-102 145 -246 145zM612 391q146 0 246 146l191 -148q-55 -100 -147.5 -164.5t-211.5 -81.5v-342h-241v359q-156 46 -260 168.5 t-121 285.5h284q14 -98 85.5 -160.5t174.5 -62.5z" />
<glyph unicode="&#xa3;" horiz-adv-x="1165" d="M881 698v-233h-775v233h162q-29 55 -43.5 87t-29.5 87t-15 109q0 178 126 286.5t319 108.5q173 0 296.5 -94t174.5 -276l-232 -84q-63 198 -221 198q-84 0 -133 -51.5t-49 -130.5q0 -21 4.5 -44t9 -39t16 -42t17 -37t21.5 -40.5t20 -37.5h332zM623 379q-13 -83 -58 -146 h510v-233h-989v59q110 80 175.5 156.5t84.5 163.5h277z" />
<glyph unicode="&#xa4;" horiz-adv-x="1345" d="M170 723q9 113 76 211l-211 215l166 166l217 -223q111 63 248 63q136 0 256 -65l223 225l166 -166l-219 -215q61 -90 73 -211h-282q-10 79 -71.5 128.5t-145.5 49.5q-86 0 -145 -50t-70 -128h-281zM1165 635q-9 -122 -75 -219l221 -226l-164 -163l-229 233 q-114 -63 -254 -63q-131 0 -246 59l-217 -229l-166 163l211 224q-67 98 -76 221h281q9 -83 69.5 -133.5t145.5 -50.5q87 0 146.5 51t70.5 133h282z" />
<glyph unicode="&#xa5;" horiz-adv-x="1226" d="M1219 1352l-408 -590h311v-217h-1016v217h312l-408 590h307l297 -437l297 437h308zM106 195v223h1016v-223h-368v-195h-277v195h-371z" />
<glyph unicode="&#xa6;" horiz-adv-x="679" d="M455 1597v-614h-230v614h230zM455 367v-615h-230v615h230z" />
<glyph unicode="&#xa7;" horiz-adv-x="1232" d="M1059 190l-174 146q28 28 28 74q0 37 -31 73.5t-120 91.5l-189 119q-96 60 -153.5 110t-92 114.5t-34.5 142.5q0 147 104.5 238.5t278.5 91.5q133 0 237 -57.5t166 -162.5l-174 -141q-95 129 -231 129q-123 0 -123 -98q0 -45 34 -80.5t126 -93.5l188 -119 q148 -88 211.5 -166.5t63.5 -181.5q0 -150 -115 -230zM557 -272q-133 0 -238 57t-167 162l174 141q95 -129 231 -129q123 0 123 98q0 45 -33.5 80t-124.5 94l-188 119q-148 88 -211.5 166.5t-63.5 181.5q0 150 115 230l172 -146q-29 -33 -29 -73q0 -37 31.5 -74t120.5 -92 l188 -119q97 -60 155 -110t93 -114.5t35 -142.5q0 -147 -105 -238t-278 -91z" />
<glyph unicode="&#xa8;" horiz-adv-x="940" d="M227 1225q-64 0 -115 47.5t-51 109.5q0 67 50.5 114.5t115.5 47.5q68 0 117 -47t49 -115q0 -63 -49.5 -110t-116.5 -47zM715 1225q-64 0 -115 47.5t-51 109.5q0 67 50.5 114.5t115.5 47.5q68 0 117 -47t49 -115q0 -63 -49.5 -110t-116.5 -47z" />
<glyph unicode="&#xa9;" horiz-adv-x="1593" d="M795 -25q-143 0 -275 54t-229 146t-155 222.5t-58 276.5q0 147 58 278.5t156 223.5t230 146t275 54t275 -54t230 -146.5t156 -223t58 -276.5t-58.5 -276.5t-156 -223.5t-230 -147t-276.5 -54zM981 770l143 125q-122 162 -311 162q-52 0 -111 -19v-202q54 28 111 28 q95 0 168 -94zM811 297q190 0 313 160l-143 125q-73 -93 -164 -93q-78 0 -128 53t-50 138v332q-96 -44 -153.5 -133.5t-57.5 -202.5q0 -162 110.5 -270.5t272.5 -108.5z" />
<glyph unicode="&#xaa;" horiz-adv-x="759" d="M453 500v395q0 86 -103 86q-72 0 -170 -68l-86 138q118 106 281 106q135 0 213 -71.5t78 -208.5v-377h-213zM289 483q-106 0 -164.5 57.5t-58.5 143.5q0 90 66 139t183 49h80v-120h-43q-34 0 -52.5 -16.5t-18.5 -43.5q0 -26 19 -41.5t52 -15.5q25 0 43 6v-137 q-54 -21 -106 -21z" />
<glyph unicode="&#xab;" horiz-adv-x="1222" d="M459 1024l176 -154l-277 -311l277 -313l-176 -154l-400 428v74zM983 1024l176 -154l-274 -311l274 -313l-176 -154l-399 428v74z" />
<glyph unicode="&#xac;" d="M991 774v-563h-258v328h-645v235h903z" />
<glyph unicode="&#xad;" horiz-adv-x="700" d="M608 772v-231h-516v231h516z" />
<glyph unicode="&#xae;" horiz-adv-x="1175" d="M590 367q-141 0 -261.5 70.5t-190.5 191.5t-70 264q0 106 41.5 203.5t111.5 167.5t166.5 111.5t202.5 41.5q105 0 201 -41.5t165.5 -111.5t110.5 -167.5t41 -203.5q0 -143 -69.5 -264t-189 -191.5t-259.5 -70.5zM385 635h141v389h70q26 0 42.5 -15.5t16.5 -41.5 q0 -25 -16.5 -40.5t-42.5 -15.5h-12v-123h10q91 0 150 49.5t59 131.5q0 83 -58.5 131.5t-148.5 48.5h-213zM700 635h158l-102 141l-133 -39z" />
<glyph unicode="&#xaf;" horiz-adv-x="741" d="M61 1274v217h619v-217h-619z" />
<glyph unicode="&#xb0;" horiz-adv-x="739" d="M508 776v262q0 79 -38 119.5t-99 40.5q-20 0 -52 -8v180q32 4 52 4q133 0 226 -91t93 -222q0 -92 -50 -169t-132 -116zM371 745q-134 0 -228 93t-94 223q0 90 50 167t132 115v-264q0 -76 39 -116.5t101 -40.5q17 0 49 8v-180q-40 -5 -49 -5z" />
<glyph unicode="&#xb1;" d="M707 1143v-275h329v-223h-329v-289h-265v289h-329v223h329v275h265zM1036 221v-221h-923v221h923z" />
<glyph unicode="&#xb2;" horiz-adv-x="786" d="M256 991l117 127q106 117 106 199q0 49 -27 78.5t-71 29.5t-72 -29.5t-28 -82.5q0 -10 4 -60h-203q-8 36 -8 72q0 114 85.5 201.5t223.5 87.5q131 0 219 -79t88 -200q0 -78 -37.5 -145.5t-111.5 -149.5l-43 -49h-242zM68 743v43l131 144h508v-185z" />
<glyph unicode="&#xb3;" horiz-adv-x="737" d="M201 1126v52l161 235h-272v184h563v-55l-282 -416h-170zM340 729q-110 0 -192 55t-125 146l141 100q38 -58 77 -85t93 -27t88.5 28t34.5 78q0 46 -37 68l110 168q61 -34 99.5 -93.5t38.5 -140.5q0 -130 -94.5 -213.5t-233.5 -83.5z" />
<glyph unicode="&#xb4;" horiz-adv-x="604" d="M61 1169l148 428h334v-49l-281 -379h-201z" />
<glyph unicode="&#xb5;" horiz-adv-x="1249" d="M137 -369v1383h277v-1383h-277zM1163 227q27 0 56 2v-229q-65 -20 -148 -20q-155 0 -219 108q-82 -113 -229 -113q-65 0 -121 27v244q61 -21 98 -21q87 0 141 56t54 149v584h274v-662q0 -125 94 -125z" />
<glyph unicode="&#xb6;" horiz-adv-x="1255" d="M692 1352v-908h-119q-219 0 -363 126.5t-144 330.5t142.5 327.5t364.5 123.5h119zM1102 1352v-1358q0 -195 -106 -291t-302 -96q-96 0 -190 24v236q110 -8 133 -8q98 0 143 37t45 127v1329h277z" />
<glyph unicode="&#xb7;" horiz-adv-x="552" d="M279 846q81 0 134.5 -55.5t53.5 -135.5q0 -82 -53 -136t-135 -54q-83 0 -138 54t-55 136q0 80 55 135.5t138 55.5z" />
<glyph unicode="&#xb8;" horiz-adv-x="591" d="M213 -393q-80 0 -152 20v183q64 -5 123 -5q50 0 85.5 20.5t35.5 59.5q0 11 -2 19h223q4 -14 4 -37q0 -111 -85.5 -185.5t-231.5 -74.5z" />
<glyph unicode="&#xb9;" horiz-adv-x="757" d="M504 1597v-606h-207v422h-193v184h400zM680 930v-185h-594v185h594z" />
<glyph unicode="&#xba;" horiz-adv-x="819" d="M547 516v293q0 76 -37 117t-102 41q-36 0 -74 -15v195q34 10 76 10q146 0 248 -96.5t102 -239.5q0 -104 -59 -186.5t-154 -118.5zM410 483q-144 0 -246.5 97.5t-102.5 238.5q0 106 58 188.5t153 118.5v-295q0 -75 37.5 -115t102.5 -40q38 0 73 14v-194q-44 -13 -75 -13z " />
<glyph unicode="&#xbb;" horiz-adv-x="1222" d="M240 1024l397 -430v-74l-397 -428l-177 154l275 313l-275 311zM764 1024l399 -430v-74l-399 -428l-176 154l274 313l-274 311z" />
<glyph unicode="&#xbc;" horiz-adv-x="1916" d="M297 745v422h-193v185h400v-607h-207zM1292 1352h224l-779 -1352h-223zM1638 852l-213 -553h121v-168h-372v53l253 668h211zM680 684v-184h-594v184h594zM1896 299v-168h-102v-131h-186v522h186v-223h102z" />
<glyph unicode="&#xbd;" horiz-adv-x="1988" d="M504 1352v-607h-207v422h-193v185h400zM1516 1352l-779 -1352h-223l778 1352h224zM1456 246l117 127q106 117 106 198q0 49 -27 79t-71 30t-72 -30t-28 -83q0 -9 4 -59h-203q-8 36 -8 72q0 114 85.5 201t223.5 87q131 0 219 -78.5t88 -199.5q0 -78 -37.5 -145.5 t-111.5 -149.5l-43 -49h-242zM680 684v-184h-594v184h594zM1268 -2v43l131 143h508v-184z" />
<glyph unicode="&#xbe;" horiz-adv-x="1824" d="M201 932l161 235h-272v185h563v-56l-282 -415h-170v51zM1200 1352h223l-778 -1352h-223zM668 780q0 -130 -94.5 -213.5t-233.5 -83.5q-110 0 -192 55t-125 146l141 100q38 -58 77 -85t93 -27t88.5 28t34.5 78q0 46 -37 68l110 168q61 -34 99.5 -93.5t38.5 -140.5z M1546 852l-213 -553h121v-168h-373v53l254 668h211zM1804 299v-168h-102v-131h-186v522h186v-223h102z" />
<glyph unicode="&#xbf;" horiz-adv-x="925" d="M487 657q-83 0 -136.5 54.5t-53.5 136.5t54 135t136 53t136.5 -53.5t54.5 -134.5q0 -82 -54.5 -136.5t-136.5 -54.5zM352 -367q-127 27 -204.5 118t-77.5 224q0 54 13 99.5t40 84t52 65t65 61.5q50 45 64 58.5t39.5 42t32.5 47.5t7 42q0 17 -4 41h233q23 -52 23 -96 q0 -28 -10.5 -56.5t-22 -48.5t-37 -48t-38.5 -40t-43 -39q-7 -7 -11 -10q-70 -61 -95.5 -103.5t-25.5 -101.5v-340zM483 -393q-26 0 -45 8v254q28 -8 43 -8q111 0 168 155l228 -98q-43 -151 -149.5 -231t-244.5 -80z" />
<glyph unicode="&#xc0;" horiz-adv-x="1353" d="M575 1483l-280 332v49h334l147 -381h-201zM1030 0l-498 1155l99 221h92l602 -1376h-295zM27 0l456 1044l146 -333l-131 -308h264l98 -227h-463l-73 -176h-297z" />
<glyph unicode="&#xc1;" horiz-adv-x="1353" d="M569 1483l148 381h334v-49l-281 -332h-201zM1030 0l-498 1155l99 221h92l602 -1376h-295zM27 0l456 1044l146 -333l-131 -308h264l98 -227h-463l-73 -176h-297z" />
<glyph unicode="&#xc2;" horiz-adv-x="1353" d="M676 1647l-184 -164h-209l303 381h182l303 -381h-211zM723 1376l602 -1376h-295l-498 1155l99 221h92zM498 403h264l98 -227h-463l-73 -176h-297l456 1044l146 -333z" />
<glyph unicode="&#xc3;" horiz-adv-x="1353" d="M848 1485q-72 0 -154 45l-61 33q-59 34 -92 34q-27 0 -41.5 -19t-14.5 -48v-25h-211q-6 35 -6 70q0 124 69 199t169 75q75 0 151 -43l64 -37q4 -2 17.5 -9.5t19 -10t16.5 -7t19.5 -6t17.5 -1.5q28 0 42.5 19t14.5 50v25h211q4 -23 4 -68q0 -125 -67.5 -200.5 t-167.5 -75.5zM1030 0l-498 1155l99 221h92l602 -1376h-295zM27 0l456 1044l146 -333l-131 -308h264l98 -227h-463l-73 -176h-297z" />
<glyph unicode="&#xc4;" horiz-adv-x="1353" d="M414 1509q-64 0 -115 48t-51 110q0 67 50.5 113.5t115.5 46.5q68 0 117 -46t49 -114q0 -63 -49.5 -110.5t-116.5 -47.5zM942 1507q-64 0 -115 48t-51 110q0 67 50.5 114.5t115.5 47.5q68 0 117 -47t49 -115q0 -63 -49.5 -110.5t-116.5 -47.5zM1030 0l-498 1155l99 221h92 l602 -1376h-295zM27 0l456 1044l146 -333l-131 -308h264l98 -227h-463l-73 -176h-297z" />
<glyph unicode="&#xc5;" horiz-adv-x="1353" d="M635 1384q-96 13 -156.5 83t-60.5 165q0 105 73.5 177.5t184.5 72.5q113 0 186.5 -72t73.5 -178q0 -94 -60 -163.5t-155 -84.5v177q41 21 41 71q0 37 -24.5 61.5t-59.5 24.5q-37 0 -60.5 -24.5t-23.5 -61.5q0 -49 41 -73v-175zM1030 0l-498 1155l99 221h92l602 -1376 h-295zM27 0l456 1044l146 -333l-131 -308h264l98 -227h-463l-73 -176h-297z" />
<glyph unicode="&#xc6;" horiz-adv-x="1744" d="M1163 250h500v-250h-727l-223 1352h925v-250h-616zM778 403l41 -227h-422l-90 -176h-297l631 1233l74 -436l-201 -394h264zM1473 592h-277l-39 235h316v-235z" />
<glyph unicode="&#xc7;" horiz-adv-x="1474" d="M1186 893q-143 227 -391 227q-103 0 -193.5 -37.5t-152.5 -97.5v297q153 94 348 94q193 0 350.5 -89.5t247.5 -246.5zM799 -25q-117 0 -227 34.5t-199 98.5t-155.5 150t-103 194t-36.5 226q0 171 76.5 312.5t207.5 230.5v-531q0 -206 123.5 -332.5t313.5 -126.5 q244 0 387 228l209 -148q-89 -159 -246 -247.5t-350 -88.5zM649 -393q-79 0 -151 20v183q64 -5 123 -5q50 0 85 20.5t35 59.5q0 11 -2 19h224q4 -14 4 -37q0 -111 -86 -185.5t-232 -74.5z" />
<glyph unicode="&#xc8;" horiz-adv-x="1173" d="M498 1483l-281 332v49h334l147 -381h-200zM156 0v1352h909v-250h-633v-852h658v-250h-934zM518 594v233h381v-233h-381z" />
<glyph unicode="&#xc9;" horiz-adv-x="1173" d="M492 1483l147 381h334v-49l-281 -332h-200zM156 0v1352h909v-250h-633v-852h658v-250h-934zM518 594v233h381v-233h-381z" />
<glyph unicode="&#xca;" horiz-adv-x="1173" d="M596 1647l-184 -164h-209l303 381h182l303 -381h-211zM432 250h658v-250h-934v1352h909v-250h-633v-852zM899 594h-381v233h381v-233z" />
<glyph unicode="&#xcb;" horiz-adv-x="1173" d="M334 1509q-64 0 -115 48t-51 110q0 67 50.5 113.5t115.5 46.5q68 0 117 -46t49 -114q0 -63 -49.5 -110.5t-116.5 -47.5zM862 1507q-64 0 -115 48t-51 110q0 67 50.5 114.5t115.5 47.5q68 0 117 -47t49 -115q0 -63 -49.5 -110.5t-116.5 -47.5zM156 0v1352h909v-250h-633 v-852h658v-250h-934zM518 594v233h381v-233h-381z" />
<glyph unicode="&#xcc;" horiz-adv-x="585" d="M193 1483l-281 332v49h334l147 -381h-200zM156 0v1352h276v-1352h-276z" />
<glyph unicode="&#xcd;" horiz-adv-x="585" d="M184 1483l148 381h334v-49l-281 -332h-201zM156 0v1352h276v-1352h-276z" />
<glyph unicode="&#xce;" horiz-adv-x="585" d="M383 1864l303 -381h-211l-184 164l-185 -164h-208l303 381h182zM156 0v1352h276v-1352h-276z" />
<glyph unicode="&#xcf;" horiz-adv-x="585" d="M29 1509q-64 0 -115 48t-51 110q0 67 50.5 113.5t115.5 46.5q68 0 117 -46t49 -114q0 -63 -49.5 -110.5t-116.5 -47.5zM557 1507q-64 0 -115 48t-51 110q0 67 50.5 114.5t115.5 47.5q68 0 117 -47t49 -115q0 -63 -49.5 -110.5t-116.5 -47.5zM156 0v1352h276v-1352h-276z " />
<glyph unicode="&#xd0;" horiz-adv-x="1413" d="M598 1352q216 0 383 -82.5t260.5 -236t93.5 -353.5q0 -197 -93 -352t-261.5 -241.5t-382.5 -86.5h-442v438h276v-188h164q205 0 330 118t125 312q0 197 -124 308.5t-331 111.5h-164v-254h-276v506h442zM653 758v-232h-669v232h669z" />
<glyph unicode="&#xd1;" horiz-adv-x="1460" d="M903 1485q-71 0 -153 45l-62 33q-59 34 -92 34q-27 0 -41 -19t-14 -48v-25h-211q-6 35 -6 70q0 124 68.5 199t168.5 75q76 0 152 -43l63 -37q4 -2 17.5 -9.5t19 -10t16.5 -7t19.5 -6t17.5 -1.5q28 0 43 19t15 50v25h211q4 -23 4 -68q0 -125 -68 -200.5t-168 -75.5z M1214 -25l-1058 1121v280h90l1061 -1118v-283h-93zM1307 389l-277 285v678h277v-963zM156 0v965l276 -283v-682h-276z" />
<glyph unicode="&#xd2;" horiz-adv-x="1593" d="M696 1483l-280 332v49h334l147 -381h-201zM795 1376q196 0 361.5 -91.5t262.5 -253t97 -357.5q0 -170 -77 -312t-208 -231v531q0 204 -123.5 331t-312.5 127q-103 0 -193.5 -37.5t-152.5 -97.5v297q153 94 346 94zM362 1221v-531q0 -204 124 -331.5t313 -127.5 q102 0 193 38t153 98v-297q-155 -95 -346 -95q-117 0 -227 34.5t-199 98.5t-155.5 150t-103 194t-36.5 226q0 171 76.5 312.5t207.5 230.5z" />
<glyph unicode="&#xd3;" horiz-adv-x="1593" d="M688 1483l148 381h333v-49l-280 -332h-201zM795 1376q196 0 361.5 -91.5t262.5 -253t97 -357.5q0 -170 -77 -312t-208 -231v531q0 204 -123.5 331t-312.5 127q-103 0 -193.5 -37.5t-152.5 -97.5v297q153 94 346 94zM362 1221v-531q0 -204 124 -331.5t313 -127.5 q102 0 193 38t153 98v-297q-155 -95 -346 -95q-117 0 -227 34.5t-199 98.5t-155.5 150t-103 194t-36.5 226q0 171 76.5 312.5t207.5 230.5z" />
<glyph unicode="&#xd4;" horiz-adv-x="1593" d="M795 1647l-185 -164h-209l304 381h182l303 -381h-211zM795 1376q196 0 361.5 -91.5t262.5 -253t97 -357.5q0 -170 -77 -312t-208 -231v531q0 204 -123.5 331t-312.5 127q-103 0 -193.5 -37.5t-152.5 -97.5v297q153 94 346 94zM362 690q0 -204 124 -331.5t313 -127.5 q102 0 193 38t153 98v-297q-155 -95 -346 -95q-117 0 -227 34.5t-199 98.5t-155.5 150t-103 194t-36.5 226q0 171 76.5 312.5t207.5 230.5v-531z" />
<glyph unicode="&#xd5;" horiz-adv-x="1593" d="M969 1485q-72 0 -154 45l-61 33q-59 34 -92 34q-27 0 -41.5 -19t-14.5 -48v-25h-211q-6 35 -6 70q0 124 69 199t169 75q75 0 151 -43l64 -37q4 -2 17.5 -9.5t19 -10t16.5 -7t19.5 -6t17.5 -1.5q28 0 42.5 19t14.5 50v25h211q4 -23 4 -68q0 -125 -67.5 -200.5 t-167.5 -75.5zM795 1376q196 0 361.5 -91.5t262.5 -253t97 -357.5q0 -170 -77 -312t-208 -231v531q0 204 -123.5 331t-312.5 127q-103 0 -193.5 -37.5t-152.5 -97.5v297q153 94 346 94zM362 1221v-531q0 -204 124 -331.5t313 -127.5q102 0 193 38t153 98v-297 q-155 -95 -346 -95q-117 0 -227 34.5t-199 98.5t-155.5 150t-103 194t-36.5 226q0 171 76.5 312.5t207.5 230.5z" />
<glyph unicode="&#xd6;" horiz-adv-x="1593" d="M532 1509q-64 0 -114.5 48t-50.5 110q0 67 50 113.5t115 46.5q68 0 117 -46t49 -114q0 -63 -49.5 -110.5t-116.5 -47.5zM1061 1507q-64 0 -115 48t-51 110q0 67 50.5 114.5t115.5 47.5q68 0 117 -47t49 -115q0 -63 -49.5 -110.5t-116.5 -47.5zM795 1376 q196 0 361.5 -91.5t262.5 -253t97 -357.5q0 -170 -77 -312t-208 -231v531q0 204 -123.5 331t-312.5 127q-103 0 -193.5 -37.5t-152.5 -97.5v297q153 94 346 94zM362 1221v-531q0 -204 124 -331.5t313 -127.5q102 0 193 38t153 98v-297q-155 -95 -346 -95q-117 0 -227 34.5 t-199 98.5t-155.5 150t-103 194t-36.5 226q0 171 76.5 312.5t207.5 230.5z" />
<glyph unicode="&#xd7;" d="M874 1126l164 -163l-301 -301l301 -302l-164 -165l-303 303l-301 -303l-164 165l302 302l-302 301l164 163l303 -301z" />
<glyph unicode="&#xd8;" horiz-adv-x="1593" d="M1530 1245l-154 -153q140 -187 140 -416q0 -146 -57 -276.5t-154 -223.5t-230 -147t-280 -54q-179 0 -330 80l190 191q76 -27 142 -27q192 0 319 128.5t127 328.5q0 123 -55 227l-959 -962l-166 165l154 154q-139 186 -139 416q0 195 97 356t262.5 252.5t361.5 91.5 q178 0 329 -80l-190 -190q-73 27 -141 27q-191 0 -319 -129t-128 -328q0 -121 56 -227l958 962z" />
<glyph unicode="&#xd9;" horiz-adv-x="1433" d="M616 1483l-280 332v49h334l147 -381h-201zM721 -25q-257 0 -417.5 159.5t-160.5 424.5v793h277v-813q0 -145 82 -226.5t223 -81.5q108 0 203 45v-260q-90 -41 -207 -41zM1014 59v1293h276v-793q0 -177 -73 -304.5t-203 -195.5z" />
<glyph unicode="&#xda;" horiz-adv-x="1433" d="M608 1483l148 381h334v-49l-281 -332h-201zM721 -25q-257 0 -417.5 159.5t-160.5 424.5v793h277v-813q0 -145 82 -226.5t223 -81.5q108 0 203 45v-260q-90 -41 -207 -41zM1014 59v1293h276v-793q0 -177 -73 -304.5t-203 -195.5z" />
<glyph unicode="&#xdb;" horiz-adv-x="1433" d="M715 1647l-185 -164h-208l303 381h182l303 -381h-211zM420 539q0 -145 82 -226.5t223 -81.5q108 0 203 45v-260q-90 -41 -207 -41q-257 0 -417.5 159.5t-160.5 424.5v793h277v-813zM1014 1352h276v-793q0 -177 -73 -304.5t-203 -195.5v1293z" />
<glyph unicode="&#xdc;" horiz-adv-x="1433" d="M453 1509q-64 0 -115 48t-51 110q0 67 50.5 113.5t115.5 46.5q68 0 116.5 -46t48.5 -114q0 -63 -49 -110.5t-116 -47.5zM981 1507q-64 0 -115 48t-51 110q0 67 50.5 114.5t115.5 47.5q68 0 117 -47t49 -115q0 -63 -49.5 -110.5t-116.5 -47.5zM721 -25 q-257 0 -417.5 159.5t-160.5 424.5v793h277v-813q0 -145 82 -226.5t223 -81.5q108 0 203 45v-260q-90 -41 -207 -41zM1014 59v1293h276v-793q0 -177 -73 -304.5t-203 -195.5z" />
<glyph unicode="&#xdd;" horiz-adv-x="1277" d="M530 1483l148 381h334v-49l-281 -332h-201zM342 1352l436 -764v-588h-276v535l-467 817h307zM1243 1352l-414 -684l-145 260l254 424h305z" />
<glyph unicode="&#xde;" horiz-adv-x="1216" d="M432 1352v-1352h-276v1352h276zM664 1145q215 0 351 -121t136 -319q0 -197 -136 -320t-351 -123h-146v242h146q96 0 150 54t54 144t-54 144.5t-150 54.5h-146v244h146z" />
<glyph unicode="&#xdf;" horiz-adv-x="1331" d="M137 0v1069q0 231 131.5 361.5t356.5 130.5q199 0 316.5 -99t117.5 -252q0 -76 -49 -196l-88 -238l-224 105l54 143q28 82 28 129q0 71 -42.5 114.5t-119.5 43.5q-91 0 -149.5 -62t-58.5 -192v-1057h-273zM895 -25q-213 0 -360 125l104 195q137 -86 254 -86q55 0 87 24.5 t32 69.5q0 42 -31.5 70t-116.5 71l-282 142l86 215l350 -172q132 -64 197 -140t65 -190q0 -149 -105 -236.5t-280 -87.5z" />
<glyph unicode="&#xe0;" horiz-adv-x="1116" d="M446 1169l-280 379v49h332l149 -428h-201zM553 1036q199 0 316.5 -111.5t117.5 -322.5v-602h-276v618q0 85 -48.5 132t-140.5 47q-77 0 -138.5 -34.5t-129.5 -105.5l-143 170q176 209 442 209zM623 573v-182h-129q-142 0 -142 -102q0 -53 41.5 -82t110.5 -29q56 0 119 29 v-182q-92 -50 -207 -50q-153 0 -247.5 86.5t-94.5 217.5q0 137 103.5 215.5t281.5 78.5h164z" />
<glyph unicode="&#xe1;" horiz-adv-x="1116" d="M440 1169l148 428h334v-49l-281 -379h-201zM553 1036q199 0 316.5 -111.5t117.5 -322.5v-602h-276v618q0 85 -48.5 132t-140.5 47q-77 0 -138.5 -34.5t-129.5 -105.5l-143 170q176 209 442 209zM623 573v-182h-129q-142 0 -142 -102q0 -53 41.5 -82t110.5 -29 q56 0 119 29v-182q-92 -50 -207 -50q-153 0 -247.5 86.5t-94.5 217.5q0 137 103.5 215.5t281.5 78.5h164z" />
<glyph unicode="&#xe2;" horiz-adv-x="1116" d="M543 1358l-164 -189h-203l277 428h180l274 -428h-200zM553 1036q199 0 316.5 -111.5t117.5 -322.5v-602h-276v618q0 85 -48.5 132t-140.5 47q-77 0 -138.5 -34.5t-129.5 -105.5l-143 170q176 209 442 209zM74 279q0 137 103.5 215.5t281.5 78.5h164v-182h-129 q-142 0 -142 -102q0 -53 41.5 -82t110.5 -29q56 0 119 29v-182q-92 -50 -207 -50q-153 0 -247.5 86.5t-94.5 217.5z" />
<glyph unicode="&#xe3;" horiz-adv-x="1116" d="M705 1186q-78 0 -146 45l-57 35q-5 3 -20.5 13.5t-21.5 14t-17.5 7.5t-22.5 4q-58 0 -58 -72v-25h-210q-5 58 -5 68q0 126 67 202t167 76q80 0 145 -45l58 -36q3 -2 12.5 -8t12.5 -8t10.5 -6.5t12 -6.5t11 -4t12 -3t11.5 -1q57 0 57 71v25h211q4 -50 4 -70 q0 -125 -66 -200.5t-167 -75.5zM553 1036q199 0 316.5 -111.5t117.5 -322.5v-602h-276v618q0 85 -48.5 132t-140.5 47q-77 0 -138.5 -34.5t-129.5 -105.5l-143 170q176 209 442 209zM623 573v-182h-129q-142 0 -142 -102q0 -53 41.5 -82t110.5 -29q56 0 119 29v-182 q-92 -50 -207 -50q-153 0 -247.5 86.5t-94.5 217.5q0 137 103.5 215.5t281.5 78.5h164z" />
<glyph unicode="&#xe4;" horiz-adv-x="1116" d="M299 1225q-64 0 -115 47.5t-51 109.5q0 67 50.5 114.5t115.5 47.5q68 0 117 -47t49 -115q0 -63 -49.5 -110t-116.5 -47zM786 1225q-64 0 -114.5 47.5t-50.5 109.5q0 67 50 114.5t115 47.5q68 0 117 -47t49 -115q0 -63 -49.5 -110t-116.5 -47zM553 1036 q199 0 316.5 -111.5t117.5 -322.5v-602h-276v618q0 85 -48.5 132t-140.5 47q-77 0 -138.5 -34.5t-129.5 -105.5l-143 170q176 209 442 209zM623 573v-182h-129q-142 0 -142 -102q0 -53 41.5 -82t110.5 -29q56 0 119 29v-182q-92 -50 -207 -50q-153 0 -247.5 86.5 t-94.5 217.5q0 137 103.5 215.5t281.5 78.5h164z" />
<glyph unicode="&#xe5;" horiz-adv-x="1116" d="M500 1126q-96 13 -156.5 82.5t-60.5 165.5q0 105 73.5 177.5t184.5 72.5q113 0 186.5 -72t73.5 -178q0 -96 -60 -165.5t-155 -82.5v177q41 21 41 69q0 38 -24 62t-60 24q-37 0 -60.5 -24t-23.5 -62q0 -48 41 -72v-174zM553 1036q199 0 316.5 -111.5t117.5 -322.5v-602 h-276v618q0 85 -48.5 132t-140.5 47q-77 0 -138.5 -34.5t-129.5 -105.5l-143 170q176 209 442 209zM623 573v-182h-129q-142 0 -142 -102q0 -53 41.5 -82t110.5 -29q56 0 119 29v-182q-92 -50 -207 -50q-153 0 -247.5 86.5t-94.5 217.5q0 137 103.5 215.5t281.5 78.5h164z " />
<glyph unicode="&#xe6;" horiz-adv-x="1798" d="M1276 213q150 0 280 102l115 -188q-175 -152 -401 -152q-117 0 -220 40t-176 109t-115 164.5t-42 203.5v126q0 83 -49.5 131t-143.5 48q-78 0 -140 -34.5t-130 -105.5l-143 170q176 209 440 209q200 0 314 -111t114 -307v-108q0 -140 80.5 -218.5t216.5 -78.5zM1245 1036 q209 0 342 -135.5t133 -335.5q0 -88 -20 -162h-629v183h383q1 105 -61 166t-158 61t-174 -68l-107 197q123 94 291 94zM502 180q94 0 176 72l106 -150q-124 -127 -338 -127q-178 0 -275 86.5t-97 221.5q0 140 104.5 221.5t282.5 81.5h166v-183h-131q-144 0 -144 -108 q0 -57 42 -86t108 -29z" />
<glyph unicode="&#xe7;" horiz-adv-x="1130" d="M870 637q-102 147 -247 147q-100 0 -174 -49v266q75 35 174 35q149 0 262 -66.5t178 -183.5zM625 -25q-149 0 -274 70t-198 192.5t-73 270.5q0 151 76.5 270t203.5 180v-444q0 -128 74.5 -206.5t192.5 -78.5q79 0 136.5 38t106.5 108l193 -148q-67 -119 -181 -185.5 t-257 -66.5zM471 -393q-80 0 -152 20v183q64 -5 123 -5q50 0 85.5 20.5t35.5 59.5q0 11 -2 19h223q4 -14 4 -37q0 -111 -85.5 -185.5t-231.5 -74.5z" />
<glyph unicode="&#xe8;" horiz-adv-x="1165" d="M717 1169h-201l-280 379v49h331zM440 414v194h379q-1 94 -64.5 149.5t-154.5 55.5q-110 0 -182 -83.5t-72 -219.5q0 -141 80 -219t217 -78q150 0 283 102l114 -188q-182 -152 -405 -152q-158 0 -285.5 70t-198.5 191.5t-71 269.5q0 224 153 377t377 153 q210 0 343.5 -135.5t133.5 -335.5q0 -72 -18 -151h-629z" />
<glyph unicode="&#xe9;" horiz-adv-x="1165" d="M991 1548l-280 -379h-201l147 428h334v-49zM440 414v194h379q-1 94 -64.5 149.5t-154.5 55.5q-110 0 -182 -83.5t-72 -219.5q0 -141 80 -219t217 -78q150 0 283 102l114 -188q-182 -152 -405 -152q-158 0 -285.5 70t-198.5 191.5t-71 269.5q0 224 153 377t377 153 q210 0 343.5 -135.5t133.5 -335.5q0 -72 -18 -151h-629z" />
<glyph unicode="&#xea;" horiz-adv-x="1165" d="M612 1358l-163 -189h-203l276 428h180l275 -428h-201zM440 414v194h379q-1 94 -64.5 149.5t-154.5 55.5q-110 0 -182 -83.5t-72 -219.5q0 -141 80 -219t217 -78q150 0 283 102l114 -188q-182 -152 -405 -152q-158 0 -285.5 70t-198.5 191.5t-71 269.5q0 224 153 377 t377 153q210 0 343.5 -135.5t133.5 -335.5q0 -72 -18 -151h-629z" />
<glyph unicode="&#xeb;" horiz-adv-x="1165" d="M369 1225q-64 0 -115 47.5t-51 109.5q0 67 50.5 114.5t115.5 47.5q68 0 117 -47t49 -115q0 -63 -49.5 -110t-116.5 -47zM856 1225q-64 0 -115 47.5t-51 109.5q0 67 50.5 114.5t115.5 47.5q68 0 117 -47t49 -115q0 -63 -49.5 -110t-116.5 -47zM440 414v194h379 q-1 94 -64.5 149.5t-154.5 55.5q-110 0 -182 -83.5t-72 -219.5q0 -141 80 -219t217 -78q150 0 283 102l114 -188q-182 -152 -405 -152q-158 0 -285.5 70t-198.5 191.5t-71 269.5q0 224 153 377t377 153q210 0 343.5 -135.5t133.5 -335.5q0 -72 -18 -151h-629z" />
<glyph unicode="&#xec;" horiz-adv-x="550" d="M182 1169l-219 379v49h332l88 -428h-201zM414 1014v-1014h-277v1014h277z" />
<glyph unicode="&#xed;" horiz-adv-x="550" d="M174 1169l86 428h334v-49l-219 -379h-201zM414 1014v-1014h-277v1014h277z" />
<glyph unicode="&#xee;" horiz-adv-x="550" d="M367 1597l274 -428h-201l-164 189l-163 -189h-203l276 428h181zM137 0v1014h277v-1014h-277z" />
<glyph unicode="&#xef;" horiz-adv-x="550" d="M51 1225q-65 0 -115.5 47t-50.5 110q0 68 50 115t116 47q68 0 117 -47t49 -115q0 -63 -49.5 -110t-116.5 -47zM502 1225q-64 0 -115 47.5t-51 109.5q0 67 50.5 114.5t115.5 47.5q68 0 117 -47t49 -115q0 -63 -49.5 -110t-116.5 -47zM414 1014v-1014h-277v1014h277z" />
<glyph unicode="&#xf0;" horiz-adv-x="1173" d="M872 958q73 -97 115.5 -164t74.5 -156.5t32 -176.5q0 -210 -145.5 -348t-364.5 -138q-218 0 -361 137t-143 341q0 93 33 173.5t88 136t124.5 91.5t145.5 47l145 -201q-109 -11 -183.5 -74.5t-74.5 -170.5q0 -99 63.5 -166.5t162.5 -67.5t166 65.5t67 170.5 q0 117 -102 260l-269 362l-274 -135l-96 197l239 119l-108 147l211 154l137 -183l319 158l99 -195l-283 -141z" />
<glyph unicode="&#xf1;" horiz-adv-x="1198" d="M735 1186q-77 0 -145 45l-58 35q-6 4 -20.5 14t-21 13.5t-17.5 7.5t-22 4q-58 0 -58 -72v-25h-211q-4 46 -4 68q0 126 67 202t167 76q80 0 145 -45l57 -36q3 -2 12.5 -8t12.5 -8t10.5 -6.5t12 -6.5t11 -4t12 -3t11.5 -1q58 0 58 71v25h211q4 -50 4 -70 q0 -125 -66.5 -200.5t-167.5 -75.5zM692 1036q174 0 275.5 -111.5t101.5 -295.5v-629h-274v592q0 89 -51.5 141.5t-139.5 52.5q-56 0 -102 -16v225q80 41 190 41zM414 1014v-1014h-277v1014h277z" />
<glyph unicode="&#xf2;" horiz-adv-x="1245" d="M528 1169l-280 379v49h332l149 -428h-201zM623 1036q149 0 273.5 -69t197.5 -191t73 -270q0 -150 -77 -270t-205 -181v445q0 127 -74.5 205.5t-192.5 78.5q-98 0 -169 -49v266q75 35 174 35zM360 958v-444q0 -128 75.5 -206.5t193.5 -78.5q95 0 168 47v-264 q-79 -37 -172 -37q-149 0 -274 70t-198 192.5t-73 270.5q0 151 76.5 270t203.5 180z" />
<glyph unicode="&#xf3;" horiz-adv-x="1245" d="M522 1169l148 428h334v-49l-281 -379h-201zM623 1036q149 0 273.5 -69t197.5 -191t73 -270q0 -150 -77 -270t-205 -181v445q0 127 -74.5 205.5t-192.5 78.5q-98 0 -169 -49v266q75 35 174 35zM360 958v-444q0 -128 75.5 -206.5t193.5 -78.5q95 0 168 47v-264 q-79 -37 -172 -37q-149 0 -274 70t-198 192.5t-73 270.5q0 151 76.5 270t203.5 180z" />
<glyph unicode="&#xf4;" horiz-adv-x="1245" d="M625 1358l-164 -189h-203l277 428h180l274 -428h-201zM623 1036q149 0 273.5 -69t197.5 -191t73 -270q0 -150 -77 -270t-205 -181v445q0 127 -74.5 205.5t-192.5 78.5q-98 0 -169 -49v266q75 35 174 35zM360 514q0 -128 75.5 -206.5t193.5 -78.5q95 0 168 47v-264 q-79 -37 -172 -37q-149 0 -274 70t-198 192.5t-73 270.5q0 151 76.5 270t203.5 180v-444z" />
<glyph unicode="&#xf5;" horiz-adv-x="1245" d="M786 1186q-77 0 -145 45l-57 35q-5 3 -20.5 13.5t-21.5 14t-17.5 7.5t-22.5 4q-58 0 -58 -72v-25h-211q-4 46 -4 68q0 126 67 202t167 76q80 0 145 -45l58 -36q3 -2 12.5 -8t12.5 -8t10.5 -6.5t12 -6.5t11 -4t12 -3t11.5 -1q57 0 57 71v25h211q4 -50 4 -70 q0 -125 -66.5 -200.5t-167.5 -75.5zM623 1036q149 0 273.5 -69t197.5 -191t73 -270q0 -150 -77 -270t-205 -181v445q0 127 -74.5 205.5t-192.5 78.5q-98 0 -169 -49v266q75 35 174 35zM360 958v-444q0 -128 75.5 -206.5t193.5 -78.5q95 0 168 47v-264q-79 -37 -172 -37 q-149 0 -274 70t-198 192.5t-73 270.5q0 151 76.5 270t203.5 180z" />
<glyph unicode="&#xf6;" horiz-adv-x="1245" d="M381 1225q-64 0 -115 47.5t-51 109.5q0 67 50.5 114.5t115.5 47.5q68 0 117 -47t49 -115q0 -63 -49.5 -110t-116.5 -47zM868 1225q-64 0 -115 47.5t-51 109.5q0 67 50.5 114.5t115.5 47.5q68 0 117 -47t49 -115q0 -63 -49.5 -110t-116.5 -47zM623 1036q149 0 273.5 -69 t197.5 -191t73 -270q0 -150 -77 -270t-205 -181v445q0 127 -74.5 205.5t-192.5 78.5q-98 0 -169 -49v266q75 35 174 35zM360 958v-444q0 -128 75.5 -206.5t193.5 -78.5q95 0 168 47v-264q-79 -37 -172 -37q-149 0 -274 70t-198 192.5t-73 270.5q0 151 76.5 270t203.5 180z " />
<glyph unicode="&#xf7;" d="M571 881q-70 0 -119 46t-49 113q0 66 49.5 111t118.5 45q68 0 117 -45.5t49 -110.5q0 -67 -49 -113t-117 -46zM90 539v235h965v-235h-965zM571 113q-69 0 -118.5 45.5t-49.5 111.5q0 67 49 112.5t119 45.5q68 0 117 -45.5t49 -112.5q0 -66 -49 -111.5t-117 -45.5z" />
<glyph unicode="&#xf8;" horiz-adv-x="1253" d="M1180 920l-111 -111q102 -136 102 -305q0 -109 -42.5 -207t-114 -168.5t-171.5 -112t-210 -41.5q-115 0 -223 48l186 196q30 -10 59 -10q98 0 177 77t79 197q0 77 -30 138l-666 -668l-141 141l110 111q-100 133 -100 305q0 145 71.5 266t195 190.5t270.5 69.5 q121 0 223 -45l-185 -196q-36 8 -59 8q-99 0 -178.5 -76.5t-79.5 -196.5q0 -66 31 -137l665 666z" />
<glyph unicode="&#xf9;" horiz-adv-x="1187" d="M500 1169l-281 379v49h332l149 -428h-200zM596 -25q-204 0 -336.5 129.5t-132.5 341.5v568h276v-590q0 -88 55 -140.5t142 -52.5q52 0 98 19v-256q-46 -19 -102 -19zM784 23v991h277v-568q0 -156 -75.5 -267.5t-201.5 -155.5z" />
<glyph unicode="&#xfa;" horiz-adv-x="1187" d="M494 1169l147 428h334v-49l-281 -379h-200zM596 -25q-204 0 -336.5 129.5t-132.5 341.5v568h276v-590q0 -88 55 -140.5t142 -52.5q52 0 98 19v-256q-46 -19 -102 -19zM784 23v991h277v-568q0 -156 -75.5 -267.5t-201.5 -155.5z" />
<glyph unicode="&#xfb;" horiz-adv-x="1187" d="M686 1597l275 -428h-201l-164 189l-164 -189h-203l277 428h180zM403 424q0 -88 55 -140.5t142 -52.5q52 0 98 19v-256q-46 -19 -102 -19q-204 0 -336.5 129.5t-132.5 341.5v568h276v-590zM784 1014h277v-568q0 -156 -75.5 -267.5t-201.5 -155.5v991z" />
<glyph unicode="&#xfc;" horiz-adv-x="1187" d="M352 1225q-64 0 -115 47.5t-51 109.5q0 67 50.5 114.5t115.5 47.5q68 0 117 -47t49 -115q0 -63 -49.5 -110t-116.5 -47zM840 1225q-64 0 -115 47.5t-51 109.5q0 67 50.5 114.5t115.5 47.5q68 0 117 -47t49 -115q0 -63 -49.5 -110t-116.5 -47zM596 -25 q-204 0 -336.5 129.5t-132.5 341.5v568h276v-590q0 -88 55 -140.5t142 -52.5q52 0 98 19v-256q-46 -19 -102 -19zM784 23v991h277v-568q0 -156 -75.5 -267.5t-201.5 -155.5z" />
<glyph unicode="&#xfd;" horiz-adv-x="1144" d="M471 1169l147 428h334v-49l-280 -379h-201zM367 176l-342 838h292l203 -492zM231 -393q-84 0 -178 24v232q94 -8 121 -8q72 0 120.5 28.5t84.5 108.5l450 1022h291l-483 -1102q-69 -158 -166.5 -231.5t-239.5 -73.5z" />
<glyph unicode="&#xfe;" horiz-adv-x="1288" d="M137 -369v1905h277v-1905h-277zM719 -25q-114 0 -217 54v237q83 -39 157 -39q119 0 194 78t75 203q0 124 -74.5 201t-194.5 77q-76 0 -157 -38v237q100 51 217 51q214 0 351.5 -149t137.5 -379t-138 -381.5t-351 -151.5z" />
<glyph unicode="&#xff;" horiz-adv-x="1144" d="M330 1225q-64 0 -115 47.5t-51 109.5q0 67 50.5 114.5t115.5 47.5q68 0 117 -47t49 -115q0 -63 -49.5 -110t-116.5 -47zM817 1225q-64 0 -115 47.5t-51 109.5q0 67 50.5 114.5t115.5 47.5q68 0 117 -47t49 -115q0 -63 -49.5 -110t-116.5 -47zM367 176l-342 838h292 l203 -492zM231 -393q-84 0 -178 24v232q94 -8 121 -8q72 0 120.5 28.5t84.5 108.5l450 1022h291l-483 -1102q-69 -158 -166.5 -231.5t-239.5 -73.5z" />
<glyph unicode="&#x152;" horiz-adv-x="2248" d="M793 -25q-199 0 -363 92t-258 253t-94 356q0 147 55.5 276.5t150.5 222.5t228 147t283 54q202 0 348 -102v-275q-58 54 -151 87.5t-189 33.5q-196 0 -318.5 -124.5t-122.5 -321.5q0 -195 122 -319t317 -124q97 0 190 33.5t152 85.5v-272q-144 -103 -350 -103zM1231 0 v1352h909v-250h-633v-852h658v-250h-934zM1593 594v231h381v-231h-381z" />
<glyph unicode="&#x153;" horiz-adv-x="1929" d="M1407 213q151 0 281 102l114 -188q-178 -152 -401 -152q-153 0 -276 70.5t-190 190t-67 264.5q0 130 -67 207t-178 77q-113 0 -188 -78.5t-75 -199.5q0 -119 75 -198t186 -79q99 0 178 76l125 -215q-125 -115 -308 -115q-145 0 -268 70t-195.5 193t-72.5 270t72.5 268.5 t197 190.5t273.5 69q219 0 358 -147t139 -369q0 -148 75.5 -227.5t211.5 -79.5zM1378 1036q206 0 339.5 -136t133.5 -335q0 -74 -18 -153h-621v186h371q-1 98 -62.5 156.5t-152.5 58.5q-96 0 -176 -70l-107 197q129 96 293 96z" />
<glyph unicode="&#x178;" horiz-adv-x="1277" d="M375 1509q-64 0 -115 48t-51 110q0 67 50.5 113.5t115.5 46.5q68 0 117 -46t49 -114q0 -63 -49.5 -110.5t-116.5 -47.5zM903 1507q-64 0 -115 48t-51 110q0 67 50.5 114.5t115.5 47.5q68 0 117 -47t49 -115q0 -63 -49.5 -110.5t-116.5 -47.5zM342 1352l436 -764v-588 h-276v535l-467 817h307zM1243 1352l-414 -684l-145 260l254 424h305z" />
<glyph unicode="&#x2c6;" horiz-adv-x="854" d="M793 1169h-201l-164 189l-164 -189h-203l277 428h180z" />
<glyph unicode="&#x2dc;" horiz-adv-x="913" d="M618 1186q-77 0 -145 45l-57 35q-5 3 -20.5 13.5t-21.5 14t-17.5 7.5t-22.5 4q-58 0 -58 -72v-25h-210q-5 58 -5 68q0 126 67 202t167 76q80 0 145 -45l58 -36q3 -2 12.5 -8t12.5 -8t10.5 -6.5t12 -6.5t11 -4t12 -3t11.5 -1q57 0 57 71v25h211q4 -50 4 -70 q0 -125 -66.5 -200.5t-167.5 -75.5z" />
<glyph unicode="&#x2000;" horiz-adv-x="941" />
<glyph unicode="&#x2001;" horiz-adv-x="1882" />
<glyph unicode="&#x2002;" horiz-adv-x="941" />
<glyph unicode="&#x2003;" horiz-adv-x="1882" />
<glyph unicode="&#x2004;" horiz-adv-x="627" />
<glyph unicode="&#x2005;" horiz-adv-x="470" />
<glyph unicode="&#x2006;" horiz-adv-x="313" />
<glyph unicode="&#x2007;" horiz-adv-x="313" />
<glyph unicode="&#x2008;" horiz-adv-x="235" />
<glyph unicode="&#x2009;" horiz-adv-x="376" />
<glyph unicode="&#x200a;" horiz-adv-x="104" />
<glyph unicode="&#x2010;" horiz-adv-x="700" d="M608 772v-231h-516v231h516z" />
<glyph unicode="&#x2011;" horiz-adv-x="700" d="M608 772v-231h-516v231h516z" />
<glyph unicode="&#x2012;" horiz-adv-x="700" d="M608 772v-231h-516v231h516z" />
<glyph unicode="&#x2013;" horiz-adv-x="1028" d="M956 772v-231h-884v231h884z" />
<glyph unicode="&#x2014;" horiz-adv-x="2048" d="M1946 772v-231h-1844v231h1844z" />
<glyph unicode="&#x2018;" horiz-adv-x="616" d="M446 1352l-10 -570h-315l115 570h210z" />
<glyph unicode="&#x2019;" horiz-adv-x="616" d="M496 1352l-115 -570h-211l10 570h316z" />
<glyph unicode="&#x201a;" horiz-adv-x="616" d="M496 252l-115 -569h-211l10 569h316z" />
<glyph unicode="&#x201c;" horiz-adv-x="1101" d="M446 1352l-10 -570h-315l115 570h210zM932 1352l-10 -570h-316l115 570h211z" />
<glyph unicode="&#x201d;" horiz-adv-x="1101" d="M496 1352l-115 -570h-211l10 570h316zM981 1352l-115 -570h-211l11 570h315z" />
<glyph unicode="&#x201e;" horiz-adv-x="1101" d="M496 252l-115 -569h-211l10 569h316zM981 252l-115 -569h-211l11 569h315z" />
<glyph unicode="&#x2022;" horiz-adv-x="874" d="M438 881q139 0 235.5 -93.5t96.5 -232.5q0 -137 -96.5 -230.5t-235.5 -93.5q-138 0 -236 93.5t-98 230.5q0 138 98 232t236 94z" />
<glyph unicode="&#x2026;" horiz-adv-x="1611" d="M809 356q79 0 133.5 -55t54.5 -135q0 -82 -54 -136.5t-134 -54.5q-83 0 -138 54.5t-55 136.5q0 80 55 135t138 55zM1337 356q79 0 134 -55t55 -135q0 -81 -54.5 -136t-134.5 -55q-83 0 -137.5 54.5t-54.5 136.5q0 80 54.5 135t137.5 55zM279 356q81 0 134.5 -55 t53.5 -135q0 -82 -53.5 -136.5t-134.5 -54.5q-83 0 -138 54.5t-55 136.5q0 80 55 135t138 55z" />
<glyph unicode="&#x202f;" horiz-adv-x="376" />
<glyph unicode="&#x2039;" horiz-adv-x="696" d="M459 1024l176 -154l-277 -311l277 -313l-176 -154l-400 428v74z" />
<glyph unicode="&#x203a;" horiz-adv-x="696" d="M240 1024l397 -430v-74l-397 -428l-177 154l275 313l-275 311z" />
<glyph unicode="&#x205f;" horiz-adv-x="470" />
<glyph unicode="&#x20ac;" horiz-adv-x="1384" d="M987 930l-53 -197h-928v197h197q64 203 224.5 324.5t381.5 121.5q165 0 296.5 -68.5t199.5 -185.5l-193 -149q-48 67 -124 107t-171 40q-106 0 -186.5 -49.5t-126.5 -140.5h483zM817 231q95 0 171 40t124 108l193 -150q-68 -117 -199.5 -185.5t-296.5 -68.5 q-218 0 -377 119.5t-225 319.5h-203v196h893l-53 -196h-334q46 -87 125 -135t182 -48z" />
<glyph unicode="&#x2122;" horiz-adv-x="2015" d="M1874 1368v-242l-428 -530h-74l-428 530v242h74l393 -485l389 485h74zM813 1352v-207h-790v207h790zM532 1083v-651h-229v651h229zM944 1032l232 -278v-322h-232v600zM1876 1032v-600h-231v322z" />
<glyph unicode="&#x25fc;" horiz-adv-x="1013" d="M0 1014h1014v-1014h-1014v1014z" />
<glyph unicode="&#xfb01;" horiz-adv-x="1282" d="M575 1561q77 0 152 -23v-231q-49 6 -84 6q-93 0 -137.5 -37t-44.5 -121v-141h223v-234h-643v234h143v166q0 190 104 285.5t287 95.5zM1008 1212q-74 0 -126.5 49.5t-52.5 120.5q0 73 52.5 122.5t126.5 49.5q73 0 124.5 -49.5t51.5 -122.5q0 -71 -51.5 -120.5 t-124.5 -49.5zM1145 1014v-1014h-277v1014h277zM461 692v-692h-277v692h277z" />
<glyph unicode="&#xfb02;" horiz-adv-x="1282" d="M575 1561q77 0 152 -23v-231q-49 6 -84 6q-93 0 -137.5 -37t-44.5 -121v-141h223v-234h-643v234h143v166q0 190 104 285.5t287 95.5zM1145 1536v-1536h-277v1536h277zM461 692v-692h-277v692h277z" />
</font>
</defs>
</svg>
