<?xml version="1.0" encoding="UTF-8" standalone="no"?>
<svg width="21px" height="30px" viewBox="0 0 21 30" version="1.1" xmlns="http://www.w3.org/2000/svg" xmlns:xlink="http://www.w3.org/1999/xlink">
    <!-- Generator: Sketch 39.1 (31720) - http://www.bohemiancoding.com/sketch -->
    <title>Page 1</title>
    <desc>Created with Sketch.</desc>
    <defs></defs>
    <g id="Login-Womer-rut" stroke="none" stroke-width="1" fill="none" fill-rule="evenodd">
        <g id="Login-postpago" transform="translate(-44.000000, -1439.000000)" fill="#777777">
            <g id="Page-1" transform="translate(41.000000, 1439.000000)">
                <path d="M15.2549318,17.5111427 C19.226854,17.6107794 19.6667875,21.5219167 15.2486716,22.147336 L15.2549318,17.5111427 Z M10.6733428,7.84329811 L10.6733428,11.9314898 C7.46365567,11.8816715 7.40125519,8.4105296 10.6733428,7.84329811 L10.6733428,7.84329811 Z M10.6480999,0 L10.6480999,3.2381914 C9.32022157,3.2381914 3.34653626,4.90750397 3.34653626,10.2594871 C3.34653626,15.0206248 7.65731931,16.3166984 10.6449697,16.7420473 L10.6480999,22.1224269 C8.46660716,21.5079676 8.07019243,19.8517074 7.76727745,18.4826001 L2.97738388,18.4826001 C3.27383667,23.8371738 8.03979996,26.3274924 10.6480999,26.7057132 L10.6480999,30 L15.2013159,30 L15.2013159,26.7555315 C18.8054992,26.5664211 23.0739752,23.4952208 23.0739752,19.2858709 C23.0739752,14.4648515 18.8221596,13.0964416 15.2013159,12.7285831 L15.2013159,7.79656851 C16.626026,7.89620517 17.7377239,9.29111839 17.8580822,10.7109408 L22.60062,10.7109408 C22.60062,5.92838117 18.1910867,3.41255555 15.1539602,3.2381914 L15.1539602,0 L10.6480999,0 Z" id="Fill-4"></path>
            </g>
        </g>
    </g>
</svg>