<?xml version="1.0" encoding="UTF-8" standalone="no"?>
<svg width="24px" height="24px" viewBox="0 0 24 24" version="1.1" xmlns="http://www.w3.org/2000/svg" xmlns:xlink="http://www.w3.org/1999/xlink">
    <!-- Generator: Sketch 39.1 (31720) - http://www.bohemiancoding.com/sketch -->
    <title>Page 1</title>
    <desc>Created with Sketch.</desc>
    <defs></defs>
    <g id="Login-Womer-rut" stroke="none" stroke-width="1" fill="none" fill-rule="evenodd">
        <g id="Login-postpago" transform="translate(-44.000000, -1111.000000)" fill="#777777">
            <path d="M60,1129.66667 L62.6666667,1129.66667 L62.6666667,1124.33333 L60,1124.33333 L60,1129.66667 Z M54.6666667,1129.66667 L57.3333333,1129.66667 L57.3333333,1116.33333 L54.6666667,1116.33333 L54.6666667,1129.66667 Z M49.3333333,1129.66667 L52,1129.66667 L52,1120.33333 L49.3333333,1120.33333 L49.3333333,1129.66667 Z M65.3333333,1111 L46.6666667,1111 C45.2,1111 44,1112.2 44,1113.66667 L44,1132.33333 C44,1133.8 45.2,1135 46.6666667,1135 L65.3333333,1135 C66.8,1135 68,1133.8 68,1132.33333 L68,1113.66667 C68,1112.2 66.8,1111 65.3333333,1111 L65.3333333,1111 Z" id="Page-1"></path>
        </g>
    </g>
</svg>