<?xml version="1.0" encoding="UTF-8" standalone="no"?>
<svg width="24px" height="40px" viewBox="0 0 24 40" version="1.1" xmlns="http://www.w3.org/2000/svg" xmlns:xlink="http://www.w3.org/1999/xlink">
    <!-- Generator: Sketch 39.1 (31720) - http://www.bohemiancoding.com/sketch -->
    <title>Page 1</title>
    <desc>Created with Sketch.</desc>
    <defs></defs>
    <g id="Login-Womer-rut" stroke="none" stroke-width="1" fill="none" fill-rule="evenodd">
        <g id="Login-postpago" transform="translate(-44.000000, -1557.000000)" fill="#777777">
            <path d="M47.6923077,1587.90909 L64.3076923,1587.90909 L64.3076923,1562.45455 L47.6923077,1562.45455 L47.6923077,1587.90909 Z M56,1595.18182 C54.4676923,1595.18182 53.2307692,1593.96364 53.2307692,1592.45455 C53.2307692,1590.94545 54.4676923,1589.72727 56,1589.72727 C57.5323077,1589.72727 58.7692308,1590.94545 58.7692308,1592.45455 C58.7692308,1593.96364 57.5323077,1595.18182 56,1595.18182 L56,1595.18182 Z M63.3846154,1557 L48.6153846,1557 C46.0676923,1557 44,1559.03636 44,1561.54545 L44,1592.45455 C44,1594.96364 46.0676923,1597 48.6153846,1597 L63.3846154,1597 C65.9323077,1597 68,1594.96364 68,1592.45455 L68,1561.54545 C68,1559.03636 65.9323077,1557 63.3846154,1557 L63.3846154,1557 Z" id="Page-1"></path>
        </g>
    </g>
</svg>