<?xml version="1.0" encoding="UTF-8" standalone="no"?>
<svg width="24px" height="30px" viewBox="0 0 24 30" version="1.1" xmlns="http://www.w3.org/2000/svg" xmlns:xlink="http://www.w3.org/1999/xlink">
    <!-- Generator: Sketch 39.1 (31720) - http://www.bohemiancoding.com/sketch -->
    <title>Page 1</title>
    <desc>Created with Sketch.</desc>
    <defs></defs>
    <g id="Login-Womer-rut" stroke="none" stroke-width="1" fill="none" fill-rule="evenodd">
        <g id="Login-postpago" transform="translate(-44.000000, -1292.000000)" fill="#777777">
            <path d="M57.5,1302.5 L57.5,1294.25 L65.75,1302.5 L57.5,1302.5 Z M50,1310 L62,1310 L62,1307 L50,1307 L50,1310 Z M50,1316 L62,1316 L62,1313 L50,1313 L50,1316 Z M59,1292 L47,1292 C45.35,1292 44.015,1293.35 44.015,1295 L44,1319 C44,1320.65 45.335,1322 46.985,1322 L65,1322 C66.65,1322 68,1320.65 68,1319 L68,1301 L59,1292 Z" id="Page-1"></path>
        </g>
    </g>
</svg>