<?xml version="1.0" encoding="UTF-8" standalone="no"?>
<svg width="198px" height="80px" viewBox="0 0 198 80" version="1.1" xmlns="http://www.w3.org/2000/svg" xmlns:xlink="http://www.w3.org/1999/xlink">
    <!-- Generator: Sketch 40.1 (33804) - http://www.bohemiancoding.com/sketch -->
    <title>Group 22</title>
    <desc>Created with Sketch.</desc>
    <defs></defs>
    <g id="Page-1" stroke="none" stroke-width="1" fill="none" fill-rule="evenodd">
        <g id="1-EstadoPortabilidad-Desktop" transform="translate(-702.000000, -2360.000000)">
            <g id="Group-22" transform="translate(702.000000, 2360.000000)">
                <g id="Group-20" fill="#621082">
                    <circle id="Oval-2" cx="40" cy="40" r="40"></circle>
                    <g id="Group-26-Copy" transform="translate(117.200012, 0.000000)">
                        <circle id="Oval-2" cx="40" cy="40" r="40"></circle>
                    </g>
                    <path d="M70.4886896,66 L70,66 L70,16 L71.7756617,16 C77.6431863,24.4600067 87.4246258,30 98.5,30 C109.575374,30 119.356814,24.4600067 125.224338,16 L130,16 L130,66 L126.748818,66 C121.21408,56.3807251 110.85568,50 99,50 C87.1443197,50 76.3261274,56.3807251 70.4886967,65.9999884 Z" id="Combined-Shape"></path>
                </g>
                <g id="Group-34" transform="translate(11.000000, 15.000000)">
                    <path d="M24.7503803,29.4048701 L30.4611874,29.4048701 L30.4611874,23.6925417 L24.7503803,23.6925417 L24.7503803,29.4048701 Z M24.7503803,37.0197866 L30.4611874,37.0197866 L30.4611874,30.6742764 L24.7503803,30.6742764 L24.7503803,37.0197866 Z M24.7503803,44 L30.4611874,44 L30.4611874,38.289193 L24.7503803,38.289193 L24.7503803,44 Z M23.0352213,20.3312926 C22.9092544,20.2053256 22.8474879,20.0568428 22.8474879,19.8846271 L22.8474879,14.1735158 C22.8474879,14.0013001 22.9092544,13.852513 23.0352213,13.7277631 C23.1599712,13.6017961 23.308454,13.5388126 23.480974,13.5388126 L24.7503803,13.5388126 C24.9225961,13.5388126 25.0710789,13.6017961 25.196133,13.7277631 C25.3221,13.852513 25.3850835,14.0013001 25.3850835,14.1735158 L25.3850835,19.8846271 C25.3850835,20.0568428 25.3221,20.2053256 25.196133,20.3312926 C25.0710789,20.4563468 24.9225961,20.5193302 24.7503803,20.5193302 L23.480974,20.5193302 C23.308454,20.5193302 23.1599712,20.4563468 23.0352213,20.3312926 L23.0352213,20.3312926 Z M17.1351596,29.4048701 L23.480974,29.4048701 L23.480974,23.6925417 L17.1351596,23.6925417 L17.1351596,29.4048701 Z M17.1351596,37.0197866 L23.480974,37.0197866 L23.480974,30.6742764 L17.1351596,30.6742764 L17.1351596,37.0197866 Z M17.1351596,44 L23.480974,44 L23.480974,38.289193 L17.1351596,38.289193 L17.1351596,44 Z M9.51902597,29.4048701 L15.8660575,29.4048701 L15.8660575,23.6925417 L9.51902597,23.6925417 L9.51902597,29.4048701 Z M9.51902597,37.0197866 L15.8660575,37.0197866 L15.8660575,30.6742764 L9.51902597,30.6742764 L9.51902597,37.0197866 Z M9.51902597,44 L15.8660575,44 L15.8660575,38.289193 L9.51902597,38.289193 L9.51902597,44 Z M7.80386697,20.3312926 C7.6779,20.2053256 7.61613358,20.0568428 7.61613358,19.8846271 L7.61613358,14.1735158 C7.61613358,14.0013001 7.6779,13.852513 7.80386697,13.7277631 C7.92983394,13.6017961 8.07862102,13.5388126 8.24961966,13.5388126 L9.51902597,13.5388126 C9.69154596,13.5388126 9.84002877,13.6017961 9.96599574,13.7277631 C10.0907456,13.852513 10.1537291,14.0013001 10.1537291,14.1735158 L10.1537291,19.8846271 C10.1537291,20.0568428 10.0907456,20.2053256 9.96599574,20.3312926 C9.84002877,20.4563468 9.69154596,20.5193302 9.51902597,20.5193302 L8.24961966,20.5193302 C8.07862102,20.5193302 7.92983394,20.4563468 7.80386697,20.3312926 L7.80386697,20.3312926 Z M2.53881262,29.4048701 L8.24961966,29.4048701 L8.24961966,23.6925417 L2.53881262,23.6925417 L2.53881262,29.4048701 Z M2.53881262,37.0197866 L8.24961966,37.0197866 L8.24961966,30.6742764 L2.53881262,30.6742764 L2.53881262,37.0197866 Z M2.53881262,44 L8.24961966,44 L8.24961966,38.289193 L2.53881262,38.289193 L2.53881262,44 Z M32.246328,16.8309929 C31.7448943,16.3283421 31.1494417,16.0776252 30.4624045,16.0776252 L27.9235918,16.0776252 L27.9235918,14.1735158 C27.9235918,13.3011793 27.6135427,12.5535927 26.9919231,11.931973 C26.3703034,11.3115705 25.6227168,11 24.7503803,11 L23.480974,11 C22.6086375,11 21.862268,11.3115705 21.2406484,11.931973 C20.6190287,12.5535927 20.3074583,13.3011793 20.3074583,14.1735158 L20.3074583,16.0776252 L12.6925417,16.0776252 L12.6925417,14.1735158 C12.6925417,13.3011793 12.3821883,12.5535927 11.7605687,11.931973 C11.1389491,11.3115705 10.3925795,11 9.51902597,11 L8.24961966,11 C7.37728316,11 6.63091363,11.3115705 6.00929401,11.931973 C5.38767438,12.5535927 5.07762523,13.3011793 5.07762523,14.1735158 L5.07762523,16.0776252 L2.53881262,16.0776252 C1.85055829,16.0776252 1.25632278,16.3283421 0.753671962,16.8309929 C0.250716874,17.3327309 0,17.9281835 0,18.6164379 L0,44.0012171 C0,44.6882543 0.250716874,45.2824898 0.753671962,45.7854449 C1.25632278,46.2880957 1.85055829,46.5388126 2.53881262,46.5388126 L30.4611874,46.5388126 C31.1494417,46.5388126 31.7448943,46.2880957 32.246328,45.7854449 C32.7492831,45.2824898 33,44.6882543 33,44.0012171 L33,18.6164379 C33,17.9281835 32.7492831,17.3327309 32.246328,16.8309929 L32.246328,16.8309929 Z" id="Page-1" fill="#FFFFFF"></path>
                    <g id="Group-15" transform="translate(28.000000, 0.000000)">
                        <g id="Group-31">
                            <path d="M20.87824,30.7516245 C12.424587,33.3626458 3.41194367,28.7615253 0.745990012,20.4722561 C-1.91709703,12.182987 2.77555473,3.34559736 11.2292078,0.731484003 C19.6828608,-1.87981848 28.6955042,2.7215832 31.3614578,11.0108523 C34.0242582,19.3001214 29.3318931,28.1375111 20.87824,30.7516245 Z" id="Shape" fill="#FFFFFF"></path>
                            <path d="M24.9975045,21.9263986 C24.9541645,21.942772 24.9094041,21.950759 24.8651308,21.950759 C24.718919,21.950759 24.580377,21.8635806 24.5246599,21.7216511 L21.8650511,14.9988485 C21.1618307,13.2696566 20.2928793,12.5947127 18.7649809,12.5947127 C17.7517657,12.5947127 16.9019277,13.2129487 16.8933247,13.2197377 C16.4424747,13.552637 15.7358861,13.5512393 15.2845087,13.2197377 C15.2773665,13.2129487 14.4189255,12.5947127 13.4128524,12.5947127 C11.8859279,12.5947127 11.0160432,13.2696566 10.3118489,15.0016439 L7.65418791,21.7216511 C7.58085885,21.9067105 7.36756746,21.9985614 7.18045054,21.9263986 C6.99235967,21.854715 6.8990244,21.6461736 6.97284043,21.4601956 L9.63200289,14.7378723 C10.4475908,12.7303324 11.5784085,11.8750014 13.412893,11.8750014 C14.6679683,11.8750014 15.681143,12.6122841 15.7235091,12.6429543 C15.914887,12.7851634 16.2634333,12.7851634 16.4543648,12.6429543 C16.4972179,12.6122442 17.5108795,11.8750014 18.7649809,11.8750014 C20.5999929,11.8750014 21.7302831,12.7303324 22.545384,14.7350369 L25.2059668,21.4601956 C25.2788901,21.6461736 25.1860418,21.854715 24.9975045,21.9263986 L24.9975045,21.9263986 Z M20.4771556,16.5530446 L17.5518253,16.5530446 C17.1495097,16.5530446 16.8205232,16.3911475 16.8205232,16.1931889 L16.8205232,15.1136221 C16.8205232,14.7176651 17.0952535,14.21588 17.4314228,13.998473 C17.4314228,13.998473 17.9313346,13.6742396 18.64888,13.6742396 C20.0624629,13.6742396 20.7576078,14.5473816 20.7576078,14.5473816 C21.0056767,14.8587161 21.2084983,15.4374163 21.2084983,15.8333333 C21.2084983,16.2290507 20.8794712,16.5530446 20.4771556,16.5530446 L20.4771556,16.5530446 Z M20.4771556,23.5700893 C20.1738565,23.5700893 19.9286283,23.3287612 19.9286283,23.0302859 C19.9286283,22.7318106 20.1738565,22.4904825 20.4771556,22.4904825 C20.7804546,22.4904825 21.0256423,22.7318106 21.0256423,23.0302859 C21.0256423,23.3287612 20.7804546,23.5700893 20.4771556,23.5700893 L20.4771556,23.5700893 Z M19.0145107,23.0303259 L18.283168,23.0303259 L18.283168,20.8712321 L19.0145107,21.5909433 L19.0145107,23.0303259 Z M16.4548518,23.0303259 L17.5518253,23.0303259 L17.5518253,20.1515209 L16.4548518,20.1515209 L16.4548518,23.0303259 Z M14.9922069,19.4318096 L14.9922069,18.3522827 C14.9922069,17.7558113 15.4835563,17.2727558 16.0891804,17.2727558 C16.6952916,17.2727558 17.1861539,17.7558513 17.1861539,18.3522827 L17.1861539,19.4318096 L14.9922069,19.4318096 Z M14.6265356,23.0303259 L15.7235497,23.0303259 L15.7235497,20.1515209 L14.6265356,20.1515209 L14.6265356,23.0303259 Z M13.8952334,23.0303259 L13.1639313,23.0303259 L13.1639313,21.5909433 L13.8952334,20.8712321 L13.8952334,23.0303259 Z M10.9699031,15.8333333 C10.9699031,15.4374163 11.1727247,14.858756 11.4207936,14.5473816 C11.4207936,14.5473816 12.1159385,13.6742396 13.5295621,13.6742396 C14.2465799,13.6742396 14.7470192,13.998473 14.7470192,13.998473 C15.082661,14.21588 15.3578783,14.717705 15.3578783,15.1136221 L15.3578783,16.1931889 C15.3578783,16.3911475 15.0288918,16.5530446 14.6265356,16.5530446 L11.7012458,16.5530446 C11.2989303,16.5530446 10.9699031,16.2290507 10.9699031,15.8333333 L10.9699031,15.8333333 Z M11.7012458,23.5700893 C11.3979468,23.5700893 11.1527591,23.3287612 11.1527591,23.0302859 C11.1527591,22.7318106 11.3979468,22.4904825 11.7012458,22.4904825 C12.0045449,22.4904825 12.2497732,22.7318106 12.2497732,23.0302859 C12.2497732,23.3287612 12.0045449,23.5700893 11.7012458,23.5700893 L11.7012458,23.5700893 Z M23.4024453,14.1060184 L23.4024453,11.5151458 C23.4024453,8.34844834 20.7694979,5.75757576 17.5518253,5.75757576 L14.6265356,5.75757576 C11.4084166,5.75757576 8.77591555,8.3484084 8.77591555,11.5151458 L8.77591555,14.1060184 L5.85062582,21.5909433 C5.85062582,23.0303259 10.4342804,25.9090909 16.089221,25.9090909 C21.7436746,25.9090909 26.3278162,23.0303259 26.3278162,21.5909433 L23.4024453,14.1060184 Z" id="Page-1" fill="#621082"></path>
                        </g>
                    </g>
                </g>
                <g id="Group-28" transform="translate(129.000000, 15.000000)">
                    <path d="M24.7503803,29.4048701 L30.4611874,29.4048701 L30.4611874,23.6925417 L24.7503803,23.6925417 L24.7503803,29.4048701 Z M24.7503803,37.0197866 L30.4611874,37.0197866 L30.4611874,30.6742764 L24.7503803,30.6742764 L24.7503803,37.0197866 Z M24.7503803,44 L30.4611874,44 L30.4611874,38.289193 L24.7503803,38.289193 L24.7503803,44 Z M23.0352213,20.3312926 C22.9092544,20.2053256 22.8474879,20.0568428 22.8474879,19.8846271 L22.8474879,14.1735158 C22.8474879,14.0013001 22.9092544,13.852513 23.0352213,13.7277631 C23.1599712,13.6017961 23.308454,13.5388126 23.480974,13.5388126 L24.7503803,13.5388126 C24.9225961,13.5388126 25.0710789,13.6017961 25.196133,13.7277631 C25.3221,13.852513 25.3850835,14.0013001 25.3850835,14.1735158 L25.3850835,19.8846271 C25.3850835,20.0568428 25.3221,20.2053256 25.196133,20.3312926 C25.0710789,20.4563468 24.9225961,20.5193302 24.7503803,20.5193302 L23.480974,20.5193302 C23.308454,20.5193302 23.1599712,20.4563468 23.0352213,20.3312926 L23.0352213,20.3312926 Z M17.1351596,29.4048701 L23.480974,29.4048701 L23.480974,23.6925417 L17.1351596,23.6925417 L17.1351596,29.4048701 Z M17.1351596,37.0197866 L23.480974,37.0197866 L23.480974,30.6742764 L17.1351596,30.6742764 L17.1351596,37.0197866 Z M17.1351596,44 L23.480974,44 L23.480974,38.289193 L17.1351596,38.289193 L17.1351596,44 Z M9.51902597,29.4048701 L15.8660575,29.4048701 L15.8660575,23.6925417 L9.51902597,23.6925417 L9.51902597,29.4048701 Z M9.51902597,37.0197866 L15.8660575,37.0197866 L15.8660575,30.6742764 L9.51902597,30.6742764 L9.51902597,37.0197866 Z M9.51902597,44 L15.8660575,44 L15.8660575,38.289193 L9.51902597,38.289193 L9.51902597,44 Z M7.80386697,20.3312926 C7.6779,20.2053256 7.61613358,20.0568428 7.61613358,19.8846271 L7.61613358,14.1735158 C7.61613358,14.0013001 7.6779,13.852513 7.80386697,13.7277631 C7.92983394,13.6017961 8.07862102,13.5388126 8.24961966,13.5388126 L9.51902597,13.5388126 C9.69154596,13.5388126 9.84002877,13.6017961 9.96599574,13.7277631 C10.0907456,13.852513 10.1537291,14.0013001 10.1537291,14.1735158 L10.1537291,19.8846271 C10.1537291,20.0568428 10.0907456,20.2053256 9.96599574,20.3312926 C9.84002877,20.4563468 9.69154596,20.5193302 9.51902597,20.5193302 L8.24961966,20.5193302 C8.07862102,20.5193302 7.92983394,20.4563468 7.80386697,20.3312926 L7.80386697,20.3312926 Z M2.53881262,29.4048701 L8.24961966,29.4048701 L8.24961966,23.6925417 L2.53881262,23.6925417 L2.53881262,29.4048701 Z M2.53881262,37.0197866 L8.24961966,37.0197866 L8.24961966,30.6742764 L2.53881262,30.6742764 L2.53881262,37.0197866 Z M2.53881262,44 L8.24961966,44 L8.24961966,38.289193 L2.53881262,38.289193 L2.53881262,44 Z M32.246328,16.8309929 C31.7448943,16.3283421 31.1494417,16.0776252 30.4624045,16.0776252 L27.9235918,16.0776252 L27.9235918,14.1735158 C27.9235918,13.3011793 27.6135427,12.5535927 26.9919231,11.931973 C26.3703034,11.3115705 25.6227168,11 24.7503803,11 L23.480974,11 C22.6086375,11 21.862268,11.3115705 21.2406484,11.931973 C20.6190287,12.5535927 20.3074583,13.3011793 20.3074583,14.1735158 L20.3074583,16.0776252 L12.6925417,16.0776252 L12.6925417,14.1735158 C12.6925417,13.3011793 12.3821883,12.5535927 11.7605687,11.931973 C11.1389491,11.3115705 10.3925795,11 9.51902597,11 L8.24961966,11 C7.37728316,11 6.63091363,11.3115705 6.00929401,11.931973 C5.38767438,12.5535927 5.07762523,13.3011793 5.07762523,14.1735158 L5.07762523,16.0776252 L2.53881262,16.0776252 C1.85055829,16.0776252 1.25632278,16.3283421 0.753671962,16.8309929 C0.250716874,17.3327309 0,17.9281835 0,18.6164379 L0,44.0012171 C0,44.6882543 0.250716874,45.2824898 0.753671962,45.7854449 C1.25632278,46.2880957 1.85055829,46.5388126 2.53881262,46.5388126 L30.4611874,46.5388126 C31.1494417,46.5388126 31.7448943,46.2880957 32.246328,45.7854449 C32.7492831,45.2824898 33,44.6882543 33,44.0012171 L33,18.6164379 C33,17.9281835 32.7492831,17.3327309 32.246328,16.8309929 L32.246328,16.8309929 Z" id="Page-1-Copy-2" fill="#FFFFFF"></path>
                    <g id="Group-15-Copy" transform="translate(28.000000, 0.000000)">
                        <g id="Group-2">
                            <path d="M20.8644953,31.0126739 C12.4164075,33.6458602 3.40969749,29.0056808 0.745498906,20.6460444 C-1.91583495,12.286408 2.77372751,3.37399801 11.2218153,0.737693545 C19.6699031,-1.89577619 28.6766131,2.74468662 31.3408117,11.1043231 C34.0018591,19.4639595 29.3125831,28.3763694 20.8644953,31.0126739 Z" id="Shape" fill="#720184"></path>
                            <path d="M20.8644953,31.0126739 C12.4164075,33.6458602 3.40969749,29.0056808 0.745498906,20.6460444 C-1.91583495,12.286408 2.77372751,3.37399801 11.2218153,0.737693545 C19.6699031,-1.89577619 28.6766131,2.74468662 31.3408117,11.1043231 C34.0018591,19.4639595 29.3125831,28.3763694 20.8644953,31.0126739 Z" id="Shape" fill="#FFFFFF"></path>
                            <g id="Group" transform="translate(2.923387, 8.766603)" fill="#621082">
                                <path d="M25.7224076,6.92526002 C25.8427263,7.14353469 25.7742592,7.31078411 25.5390649,7.38448725 L24.2126951,7.79552397 C24.0124505,7.86072289 23.8374155,7.80686291 23.7543384,7.62543981 L21.6573562,3.22876429 C21.6003481,3.12387906 21.5083903,3.15222642 21.5227139,3.26845059 L22.2388964,8.09628945 C22.2678301,8.2944375 22.1644134,8.4361743 21.9638823,8.49882196 L21.0041979,8.79618577 C20.8065315,8.85883344 20.6400907,8.80213872 20.5487059,8.62610161 L18.3371346,4.26344293 C18.2801264,4.15855769 18.1910334,4.18690505 18.2024923,4.30312923 L19.0329774,9.09666778 C19.0705054,9.29198109 18.9556297,9.4368361 18.7553851,9.49920029 L17.4315935,9.91335522 C17.1966857,9.98422362 17.0422768,9.88755913 17.0136295,9.64093709 L16.1341575,2.15156461 C16.1083749,1.9531331 16.2115052,1.8113963 16.4120362,1.7490321 L17.9816216,1.25862278 C18.1824392,1.19625859 18.3368481,1.25862278 18.4402648,1.43154167 L19.9153141,3.95162197 C19.9728952,4.05367246 20.0614153,4.02815984 20.0502429,3.90910093 L19.7978602,1.00916601 C19.783823,0.807899757 19.8754944,0.668997693 20.0731607,0.606633501 L21.6458973,0.116224175 C21.8461419,0.0538599838 22.009718,0.11338944 22.1042541,0.289143071 L25.7224076,6.92526002 L25.7224076,6.92526002 Z" id="Shape"></path>
                                <path d="M0.0601593229,7.24841992 C-0.0601593229,7.03014525 0.00859418899,6.86289583 0.243502021,6.78919269 L1.56987185,6.37815597 C1.77040293,6.31579178 1.94515144,6.36965176 2.0282286,6.54824013 L4.12521071,10.9477504 C4.18250531,11.0498009 4.27131193,11.0214535 4.25985301,10.9055128 L3.54367059,6.07767396 C3.51788802,5.87924244 3.61815356,5.73750564 3.81868464,5.67514145 L4.77550435,5.37749417 C4.97603542,5.31512998 5.14218974,5.3718247 5.23672582,5.55041306 L7.44543239,9.91335522 C7.50272698,10.0151222 7.5915336,9.98705836 7.58007468,9.87083418 L6.74930308,5.07729563 C6.7120616,4.88169884 6.82665078,4.73712731 7.02718186,4.67476312 L8.35355169,4.2637264 C8.5855948,4.19002326 8.7402902,4.28640429 8.76893749,4.53302632 L9.6484095,12.0252335 C9.67419207,12.2205468 9.5710618,12.3622836 9.37053072,12.4249313 L7.80065887,12.9153406 C7.60012779,12.9774214 7.44829712,12.9153406 7.34230212,12.7424217 L5.86696635,10.2223414 C5.80967175,10.1202909 5.72086513,10.1483548 5.73232405,10.264579 L5.98442026,13.1673487 C5.99874391,13.3686149 5.90707256,13.5046822 5.70654149,13.566763 L4.13666963,14.0571723 C3.93613855,14.11982 3.77284896,14.0628418 3.67831289,13.8845369 L0.0601593229,7.24841992 L0.0601593229,7.24841992 Z" id="Shape"></path>
                                <path d="M9.90337044,6.50571909 C9.81456382,5.73183617 9.73148666,3.61428838 12.3727674,2.78938021 C15.0111834,1.96730678 15.4062296,3.98847353 15.4953227,4.76235646 L15.8304961,7.68496926 C15.9195892,8.45630093 16.0023799,10.5766834 13.3613856,11.3987569 C10.7229696,12.2205468 10.3302152,10.199947 10.2414085,9.42861537 L9.90337044,6.50571909 L9.90337044,6.50571909 Z M12.0834297,8.21251363 C12.18656,9.11112494 12.3068786,9.64377183 13.1319208,9.38581086 C13.9540982,9.13096809 13.9483687,8.56402089 13.8452385,7.66229137 L13.6504368,5.97874167 C13.5473066,5.07729563 13.4269879,4.54436526 12.6048105,4.80232624 C11.7797684,5.06028721 11.7883626,5.62723441 11.8914928,6.52868045 L12.0834297,8.21251363 L12.0834297,8.21251363 Z" id="Shape"></path>
                            </g>
                        </g>
                    </g>
                </g>
            </g>
        </g>
    </g>
</svg>