<?xml version="1.0" encoding="UTF-8" standalone="no"?>
<svg width="36px" height="52px" viewBox="0 0 36 52" version="1.1" xmlns="http://www.w3.org/2000/svg" xmlns:xlink="http://www.w3.org/1999/xlink">
    <!-- Generator: Sketch 40.1 (33804) - http://www.bohemiancoding.com/sketch -->
    <title>Page 1</title>
    <desc>Created with Sketch.</desc>
    <defs></defs>
    <g id="SP2-Estado-Portabilidad" stroke="none" stroke-width="1" fill="none" fill-rule="evenodd">
        <g id="6-Estado-Portabilidad-" transform="translate(-170.000000, -366.000000)" stroke="#8743A2" stroke-width="1.5">
            <path d="M200.991273,409.823568 C200.991273,411.390896 199.719451,412.662513 198.152327,412.662513 L194.387882,412.662513 L194.387882,406.76891 L200.991273,406.76891 L200.991273,409.823568 L200.991273,409.823568 Z M184.167393,412.662717 L191.832811,412.662717 L191.832811,406.76891 L184.167393,406.76891 L184.167393,412.662717 Z M175.008727,409.823568 L175.008727,406.76891 L181.612322,406.76891 L181.612322,412.662513 L177.847673,412.662513 C176.280345,412.662513 175.008727,411.390896 175.008727,409.823568 L175.008727,409.823568 Z M175.008727,389.945031 C175.008727,388.377703 176.280345,387.105881 177.847673,387.105881 L181.498854,387.105881 L181.498854,393.482335 L175.008727,393.482335 L175.008727,389.945031 L175.008727,389.945031 Z M184.281065,393.482335 L191.719343,393.482335 L191.719343,387.105881 L184.281065,387.105881 L184.281065,393.482335 Z M175.008727,403.929761 L200.991273,403.929761 L200.991273,396.321281 L175.008727,396.321281 L175.008727,403.929761 Z M198.152327,387.105881 C199.719451,387.105881 200.991273,388.377703 200.991273,389.945031 L200.991273,393.482335 L194.501351,393.482335 L194.501351,387.105881 L198.152327,387.105881 L198.152327,387.105881 Z M205,413.667603 L205,378.628636 C205,377.498854 204.551434,376.414173 203.751035,375.619284 L196.38643,368.249169 C195.585623,367.448566 194.507065,367 193.377282,367 L173.838946,367 C172.272026,367 171,368.272026 171,369.838946 L171,413.662093 C171,415.229013 172.272026,416.501038 173.838946,416.501038 L202.16085,416.501038 C203.728179,416.506549 205,415.234931 205,413.667603 L205,413.667603 Z" id="Page-1"></path>
        </g>
    </g>
</svg>