<?xml version="1.0" encoding="UTF-8" standalone="no"?>
<svg width="58px" height="60px" viewBox="0 0 58 60" version="1.1" xmlns="http://www.w3.org/2000/svg" xmlns:xlink="http://www.w3.org/1999/xlink">
    <!-- Generator: Sketch 39.1 (31720) - http://www.bohemiancoding.com/sketch -->
    <title>Page 1</title>
    <desc>Created with Sketch.</desc>
    <defs>
        <polygon id="path-1" points="28.9673152 59.9726316 57.9346182 59.9726316 57.9346182 0 28.9673152 0 1.22604952e-05 0 1.22604952e-05 59.9726316 28.9673152 59.9726316"></polygon>
    </defs>
    <g id="SP2-Estado-Portabilidad" stroke="none" stroke-width="1" fill="none" fill-rule="evenodd">
        <g id="1-Landing-Portabildiad" transform="translate(-24.000000, -1618.000000)">
            <g id="Group-12" transform="translate(-147.000000, 760.000000)">
                <g id="Group-21" transform="translate(171.000000, 856.000000)">
                    <g id="Page-1" transform="translate(0.000000, 2.000000)">
                        <mask id="mask-2" fill="white">
                            <use xlink:href="#path-1"></use>
                        </mask>
                        <g id="Clip-2"></g>
                        <path d="M29.8542521,23.3333333 L28.0801552,23.3333333 C27.7697673,23.3333333 27.5184339,23.0814035 27.5184339,22.7715789 C27.5184339,22.4617544 27.7697673,22.2108772 28.0801552,22.2108772 L29.8542521,22.2108772 C30.1642885,22.2108772 30.4170279,22.4617544 30.4170279,22.7715789 C30.4170279,23.0814035 30.1642885,23.3333333 29.8542521,23.3333333 L29.8542521,23.3333333 Z M29.8542521,25.0550877 L28.0801552,25.0550877 C27.7697673,25.0550877 27.5184339,24.8042105 27.5184339,24.4929825 C27.5184339,24.1831579 27.7697673,23.9322807 28.0801552,23.9322807 L29.8542521,23.9322807 C30.1642885,23.9322807 30.4170279,24.1831579 30.4170279,24.4929825 C30.4170279,24.8042105 30.1642885,25.0550877 29.8542521,25.0550877 L29.8542521,25.0550877 Z M30.4005067,26.7519298 L27.5335491,26.7519298 C27.2231612,26.7519298 26.9707733,26.5010526 26.9707733,26.1912281 C26.9707733,25.8814035 27.2231612,25.6291228 27.5335491,25.6291228 L30.4005067,25.6291228 C30.7108945,25.6291228 30.9636339,25.8814035 30.9636339,26.1912281 C30.9636339,26.5010526 30.7123006,26.7519298 30.4005067,26.7519298 L30.4005067,26.7519298 Z M19.2223248,19.3340351 C14.9928945,19.3340351 13.9330764,23.045614 13.8807006,24.0392982 C13.8490642,24.6273684 13.9288582,26.5736842 16.2506158,26.9477193 C17.8489552,27.205614 20.849137,27.5494737 22.9694764,26.9614035 C24.3495248,26.5775439 25.1566036,25.6319298 25.3696218,24.1491228 C25.386143,24.0350877 25.3956339,23.9105263 25.3998521,23.7803509 C25.4381673,22.3508772 24.5952339,20.9705263 23.25104,20.2631579 C22.07944,19.6466667 20.722943,19.3340351 19.2223248,19.3340351 L19.2223248,19.3340351 Z M20.0997067,28.4101754 C18.6715006,28.4101754 17.2352097,28.2442105 16.0709915,28.0564912 C13.4880582,27.6414035 12.671137,25.6017544 12.7576097,23.9803509 C12.8563855,22.0985965 14.5672097,18.2115789 19.2223248,18.2115789 C20.9081915,18.2115789 22.4407976,18.5677193 23.7755006,19.2694737 C25.4958158,20.1754386 26.5753188,21.9575439 26.522943,23.8119298 C26.5187248,23.9845614 26.5050158,24.1515789 26.4832218,24.3080702 C26.2058764,26.2459649 25.0950885,27.537193 23.2714279,28.0442105 C22.3061673,28.3101754 21.2048703,28.4101754 20.0997067,28.4101754 L20.0997067,28.4101754 Z M38.7134885,19.3340351 C37.2097067,19.3340351 35.8546158,19.6466667 34.6833673,20.2631579 C33.3391733,20.9705263 32.4958885,22.3508772 32.5345552,23.7803509 C32.5384218,23.9105263 32.5496703,24.0350877 32.5647855,24.1491228 C32.7774521,25.6333333 33.5848824,26.5789474 34.9649309,26.9614035 C37.0863248,27.5494737 40.0851006,27.205614 41.68344,26.9477193 C44.0055491,26.5750877 44.0849915,24.6273684 44.0547612,24.0407018 C44.002737,23.045614 42.9411612,19.3340351 38.7134885,19.3340351 L38.7134885,19.3340351 Z M37.8347006,28.4101754 C36.7291855,28.4101754 35.6278885,28.3115789 34.6640339,28.042807 C32.8393188,27.537193 31.729937,26.2459649 31.4525915,24.3080702 C31.42904,24.1515789 31.4153309,23.9845614 31.4111127,23.8119298 C31.3604945,21.9575439 32.4396461,20.1740351 34.1589067,19.2694737 C35.4936097,18.5677193 37.0258642,18.2115789 38.7134885,18.2115789 C43.3668461,18.2115789 45.0776703,22.0985965 45.1778521,23.9803509 C45.2632703,25.6003509 44.4459976,27.64 41.8634158,28.0564912 C40.7002521,28.2442105 39.2625552,28.4101754 37.8347006,28.4101754 L37.8347006,28.4101754 Z M29.6275248,19.5217544 C29.7059127,19.6466667 29.8117188,19.7768421 29.9407248,19.837193 C30.0134885,19.8698246 30.1344097,19.905614 30.3551612,19.8192982 C30.7358521,19.6712281 30.9390279,19.4368421 31.0458885,19.2298246 C30.7467491,19.1778947 30.4156218,19.1491228 30.1836218,19.1982456 C29.9530279,19.2491228 29.759343,19.394386 29.6275248,19.5217544 L29.6275248,19.5217544 Z M26.8828945,19.2270175 C26.9897552,19.4340351 27.1915248,19.6740351 27.5788945,19.8245614 C27.8014036,19.9108772 27.9237309,19.8754386 27.9964945,19.8396491 C28.1269067,19.7782456 28.2337673,19.6452632 28.3107491,19.5203509 C28.1789309,19.3929825 27.98384,19.2435088 27.7504339,19.194386 C27.5061309,19.1421053 27.171137,19.1750877 26.8828945,19.2270175 L26.8828945,19.2270175 Z M13.7682158,32.3466667 L18.5231612,37.4810526 L24.2546158,30.374386 L13.7682158,32.3466667 Z M33.6808461,30.374386 L39.4123006,37.4796491 L44.1672461,32.3466667 L33.6808461,30.374386 Z M21.5715006,40.7361404 L23.7217188,40.7361404 L23.7217188,36.9901754 L21.5715006,40.7361404 Z M24.8465673,40.7361404 L26.0631612,40.7361404 L26.0631612,32.9112281 L24.8423491,35.04 C24.8451612,35.0631579 24.8465673,35.0877193 24.8465673,35.1126316 L24.8465673,40.7361404 Z M27.1876582,40.7361404 L28.4056582,40.7361404 L28.4056582,29.1421053 C28.2200582,29.262807 28.052737,29.4435088 27.9181067,29.6778947 L27.18344,30.9596491 C27.1862521,30.982807 27.1876582,31.0073684 27.1876582,31.0322807 L27.1876582,40.7361404 Z M29.5301552,40.7361404 L30.7467491,40.7361404 L30.7467491,31.0224561 L29.9748218,29.6778947 C29.85144,29.4614035 29.6988824,29.2901754 29.5301552,29.1694737 L29.5301552,40.7361404 Z M31.8712461,40.7361404 L33.0892461,40.7361404 L33.0892461,35.102807 L31.8712461,32.9824561 L31.8712461,40.7361404 Z M34.213743,40.7361404 L36.3214279,40.7361404 L34.213743,37.062807 L34.213743,40.7361404 Z M19.0905067,40.6950877 C18.5656945,40.6950877 18.1400097,41.12 18.1400097,41.6421053 C18.1400097,42.1642105 18.5656945,42.5891228 19.0905067,42.5891228 C19.6135612,42.5891228 20.0392461,42.1642105 20.0392461,41.6421053 C20.0392461,41.12 19.6135612,40.6950877 19.0905067,40.6950877 L19.0905067,40.6950877 Z M38.8453067,40.6950877 C38.3222521,40.6950877 37.8965673,41.12 37.8965673,41.6421053 C37.8965673,42.1642105 38.3222521,42.5891228 38.8453067,42.5891228 C39.3683612,42.5891228 39.7940461,42.1642105 39.7940461,41.6421053 C39.7940461,41.12 39.3683612,40.6950877 38.8453067,40.6950877 L38.8453067,40.6950877 Z M1.15901576,43.7940351 C1.1344097,43.9312281 1.07254303,44.394386 1.19065212,45.0838596 L11.4626279,20.7073684 C11.476337,20.674386 11.4928582,20.6442105 11.5121915,20.6154386 C11.6288945,20.44 14.4164097,16.3133333 19.7232339,15.782807 C24.0349188,15.3536842 25.8582279,17.2768421 26.4610764,18.1649123 C26.8663733,18.077193 27.4759006,17.9880702 27.9852461,18.0964912 C28.3972218,18.185614 28.7283491,18.3950877 28.96984,18.6021053 C29.2102764,18.3964912 29.5396461,18.1880702 29.9488097,18.1017544 C30.4581552,17.9922807 31.0666279,18.0814035 31.4729794,18.1705263 C32.0758279,17.2821053 33.8994885,15.3564912 38.2108218,15.7880702 C43.5179976,16.317193 46.3065673,20.4442105 46.4218642,20.6196491 C46.4411976,20.6498246 46.4577188,20.68 46.4714279,20.7115789 L56.740943,45.0810526 C56.8590521,44.3901754 56.7985915,43.9270175 56.7753915,43.7940351 L46.6693309,20.4975439 C46.6292582,20.4073684 46.6155491,20.3070175 46.6267976,20.2098246 C46.6334764,20.1494737 47.2718279,14.1491228 43.2241309,8.22526316 C39.8337673,3.26631579 33.6358521,2.65508772 31.7819612,2.58526316 L31.7819612,15.1357895 C33.0699127,14.2242105 35.5291127,12.8045614 38.2740945,12.9126316 C42.1970036,13.0649123 45.4305915,16.1389474 45.5666279,16.2705263 C45.790543,16.4859649 45.7958158,16.8407018 45.580337,17.062807 C45.3648582,17.2863158 45.0091248,17.2933333 44.7852097,17.0778947 C44.7549794,17.0491228 41.7178885,14.1694737 38.2315612,14.0336842 C34.7533188,13.9049123 31.6283491,16.6778947 31.5967127,16.7052632 C31.4318521,16.8533333 31.1942279,16.8901754 30.9924582,16.8010526 C30.7892824,16.7105263 30.6574642,16.5105263 30.6574642,16.2884211 L30.6574642,2.01614035 C30.6574642,1.98877193 30.6602764,1.96140351 30.664143,1.93403509 L30.664143,1.12280702 L27.2699127,1.12280702 L27.2699127,1.93263158 C27.2741309,1.96 27.276943,1.98736842 27.276943,2.01614035 L27.276943,16.2884211 C27.276943,16.5091228 27.1451248,16.7105263 26.9419491,16.8010526 C26.7398279,16.8901754 26.5025552,16.8533333 26.3362885,16.7052632 C26.3060582,16.6764912 23.182143,13.8996491 19.7028461,14.0336842 C16.2165188,14.1694737 13.1790764,17.0491228 13.1488461,17.0778947 C12.9252824,17.2933333 12.568143,17.2863158 12.3540703,17.062807 C12.13824,16.8396491 12.1438642,16.4845614 12.3677794,16.2694737 C12.5034642,16.1389474 15.7374036,13.0649123 19.6589067,12.9126316 C22.4010764,12.8017544 24.864143,14.2231579 26.15104,15.1357895 L26.15104,2.58526316 C24.2971491,2.65508772 18.1002885,3.26631579 14.7102764,8.22526316 C10.6622279,14.1477193 11.3005794,20.1494737 11.3076097,20.2098246 C11.3185067,20.3070175 11.3033915,20.4073684 11.2650764,20.4975439 L1.15901576,43.7940351 Z M19.9910885,43.5063158 C20.6132703,44.3435088 22.020737,46.0322807 24.0609309,47.2670175 C26.4624824,48.7214035 28.3930036,49.4670175 28.9670279,49.6740351 C29.5410521,49.4670175 31.4715733,48.7214035 33.8745309,47.2670175 C35.9136703,46.0322807 37.321137,44.3435088 37.9429673,43.5063158 C37.3116461,43.2003509 36.8581915,42.5852632 36.7829673,41.8585965 L21.1528461,41.8585965 C21.0758642,42.5852632 20.6227612,43.2003509 19.9910885,43.5063158 L19.9910885,43.5063158 Z M1.72179152,46.7189474 C2.14747636,47.6164912 2.86562182,48.6582456 4.06182788,49.7589474 C6.96042182,52.4301754 10.6457067,53.5238596 12.0324339,53.8610526 C12.1821794,53.1936842 12.4830764,51.9821053 12.9938279,50.3838596 C13.0968218,50.0301754 13.6624097,47.877193 13.6610036,43.1512281 C13.6581915,37.9414035 12.1533552,32.2480702 12.1217188,32.1301754 L12.1192582,32.1164912 C12.0862158,31.9835088 12.104143,31.8505263 12.1603855,31.7368421 L12.1603855,31.7354386 C12.1726885,31.7105263 12.1863976,31.6873684 12.2029188,31.6652632 C12.2714642,31.5638596 12.3744582,31.4859649 12.4995976,31.4473684 L12.5006521,31.4473684 C12.5090885,31.4449123 12.5185794,31.4421053 12.5284218,31.4392982 L12.5298279,31.4392982 C12.5421309,31.4364912 12.5544339,31.4336842 12.566737,31.4312281 L25.5439733,28.9898246 C25.7759733,28.9459649 26.0093794,29.0515789 26.1317067,29.2529825 C26.2526279,29.4547368 26.2347006,29.7108772 26.0863612,29.8933333 L18.9899733,38.6912281 C18.8883855,38.8185965 18.7347733,38.8954386 18.5713188,38.9010526 C18.4025915,38.9035088 18.2500339,38.8407018 18.1389552,38.7214035 L13.6968582,33.925614 C14.1594521,36.1101754 14.78304,39.694386 14.7855006,43.1512281 C14.7855006,44.2175439 14.7580824,45.1578947 14.712737,45.98 C15.6699127,44.062807 16.6805188,42.6536842 17.0745673,42.1315789 C17.0362521,41.9750877 17.0155127,41.8108772 17.0155127,41.6435088 C17.0155127,40.5017544 17.9466764,39.5726316 19.0905067,39.5726316 C19.6740218,39.5726316 20.2027006,39.8150877 20.5802279,40.205614 L26.9419491,29.1214035 C27.4059491,28.3157895 28.1349915,27.8522807 28.94664,27.8522807 C29.757937,27.8522807 30.4883855,28.3157895 30.9513309,29.1214035 L31.7875855,30.5785965 C31.7942642,30.5894737 31.8012945,30.6003509 31.8065673,30.6126316 L37.3292218,40.2319298 C37.7081552,39.8259649 38.2480824,39.5726316 38.8453067,39.5726316 C39.989137,39.5726316 40.918543,40.5017544 40.918543,41.6435088 C40.918543,41.8119298 40.8995612,41.9750877 40.8608945,42.1315789 C41.2756824,42.6810526 42.3713552,44.2105263 43.3696582,46.2831579 C43.3148218,45.3908772 43.2803733,44.3505263 43.2803733,43.1512281 C43.2817794,39.5957895 43.9408703,35.9073684 44.4076824,33.7431579 L39.7954521,38.7214035 C39.6843733,38.8407018 39.5247855,38.9035088 39.364143,38.9010526 C39.20104,38.8954386 39.0470764,38.8185965 38.9454885,38.6912281 L31.8491006,29.8933333 C31.7011127,29.7108772 31.6831855,29.4547368 31.8041067,29.2529825 C31.9246764,29.0515789 32.1566764,28.9459649 32.3904339,28.9898246 L45.3399006,31.425614 C45.4073915,31.4185965 45.477343,31.422807 45.5458885,31.4421053 C45.8467855,31.5214035 46.0253552,31.8298246 45.9441552,32.1287719 C45.92904,32.1863158 44.4076824,37.9182456 44.4048703,43.1512281 C44.4034642,48.3280702 45.0818885,50.4168421 45.0889188,50.437193 C45.1328582,50.5677193 45.1258279,50.7017544 45.0790764,50.8210526 C45.5075733,52.202807 45.7669915,53.2568421 45.9030279,53.8610526 C47.2911612,53.5224561 50.9820703,52.4249123 53.8739855,49.7603509 C55.0670279,48.6596491 55.7851733,47.6164912 56.2122642,46.7175439 L45.4580097,21.2007018 C45.1725794,20.7978947 42.6047612,17.3547368 38.1011491,16.9052632 C33.7824339,16.4750877 32.4603855,18.6582456 32.2775976,19.0077193 C32.2213552,19.4217544 31.9605309,20.4003509 30.7657309,20.8663158 C30.1850279,21.0926316 29.7305188,20.9814035 29.4531733,20.8484211 C29.2623006,20.7568421 29.1030642,20.6333333 28.9712461,20.4975439 C28.8380218,20.6347368 28.6773794,20.7607018 28.4836945,20.8526316 C28.0854279,21.0445614 27.6309188,21.0501754 27.171137,20.8705263 C25.9640339,20.4003509 25.71024,19.4052632 25.6564582,18.9996491 C25.4768339,18.6540351 24.1544339,16.4708772 19.8360703,16.9010526 C15.3335127,17.3494737 12.7656945,20.7894737 12.4774521,21.1954386 L1.72179152,46.7189474 Z M13.0542885,54.4585965 C13.0595612,54.494386 13.0609673,54.5312281 13.0595612,54.5684211 C13.0581552,54.5957895 13.0556945,55.4838596 14.3025188,56.0638596 C15.8607855,56.7901754 17.7624824,57.2754386 21.1802642,58.0249123 C23.9414158,58.6308772 27.62424,58.8049123 28.6882764,58.8445614 C28.876337,58.8515789 29.0591248,58.8515789 29.2457794,58.8445614 C30.3087612,58.8049123 33.99264,58.6308772 36.752737,58.0249123 C40.1715733,57.2754386 42.0732703,56.7901754 43.6318885,56.0638596 C44.8787127,55.4838596 44.8759006,54.5957895 44.8744945,54.5589474 C44.8730885,54.5259649 44.8759006,54.494386 44.8801188,54.4642105 C44.7521673,53.8515789 44.2621552,51.6750877 43.1801915,48.7157895 C42.2616824,46.2035088 40.9090521,44.1326316 40.2320339,43.18 C39.9466036,43.4361404 39.5894642,43.6157895 39.1940097,43.682807 C38.8495248,44.2066667 37.2072461,46.562807 34.45664,48.2266667 C31.4866885,50.0249123 29.2566764,50.7649123 29.1427855,50.8021053 C29.086543,50.8210526 29.0274885,50.8308772 28.9670279,50.8308772 C28.9065673,50.8308772 28.8461067,50.8210526 28.7898642,50.8021053 C28.6622642,50.7592982 26.4364703,50.0192982 23.4774158,48.2266667 C20.7271612,46.562807 19.0834764,44.2066667 18.7400461,43.682807 C18.344943,43.6157895 17.9878036,43.4361404 17.7020218,43.18 C17.0239491,44.1326316 15.6713188,46.2035088 14.7542158,48.7157895 C13.6747127,51.6652632 13.1847006,53.8378947 13.0542885,54.4585965 L13.0542885,54.4585965 Z M28.9670279,59.9726316 C28.8612218,59.9726316 28.7543612,59.9698246 28.645743,59.9673684 C27.5595612,59.9259649 23.7920218,59.7480702 20.9398279,59.1214035 C17.4383855,58.3540351 15.4804461,57.8522807 13.8272703,57.0821053 C12.5227976,56.4750877 12.1164461,55.5663158 11.9899006,55.005614 C10.6843733,54.7150877 6.57586424,53.6035088 3.29833697,50.5838596 C1.89227636,49.2887719 1.07394909,48.042807 0.602918788,46.9670175 C0.595888485,46.9533333 0.590615758,46.9382456 0.584991515,46.9245614 C-0.256535758,44.9698246 0.05104,43.582807 0.0714278788,43.4950877 C0.0798642424,43.4624561 0.0893551515,43.4322807 0.103064242,43.4021053 L10.1746764,20.1852632 C10.0867976,19.1515789 9.80664,13.4059649 13.7819248,7.59192982 C17.5223976,2.12175439 24.1379127,1.51192982 26.1454158,1.45719298 L26.1454158,0.562105263 C26.1454158,0.252280702 26.3981552,0 26.7081915,0 L31.2258642,0 C31.5362521,0 31.7889915,0.252280702 31.7889915,0.562105263 L31.7889915,1.45719298 C33.7964945,1.51192982 40.4120097,2.12035088 44.1521309,7.59192982 C48.1274158,13.4059649 47.8486642,19.1515789 47.7593794,20.1852632 L57.831343,43.4021053 C57.8450521,43.4308772 57.854543,43.4624561 57.8626279,43.4950877 C57.8833673,43.582807 58.189537,44.9589474 57.3603127,46.9010526 C57.3490642,46.9340351 57.3339491,46.9670175 57.3177794,46.9985965 C56.845343,48.0677193 56.0270158,49.3024561 54.6360703,50.5838596 C51.3581915,53.6035088 47.2500339,54.7136842 45.9441552,55.005614 C45.8193673,55.5663158 45.4116097,56.4736842 44.1081915,57.0807018 C42.4536097,57.8522807 40.4956703,58.3526316 36.9956339,59.1214035 C34.1423855,59.7466667 30.3744945,59.9259649 29.2883127,59.9659649 C29.1800461,59.9712281 29.07424,59.9726316 28.9670279,59.9726316 L28.9670279,59.9726316 Z" id="Fill-1" fill="#7F4694" mask="url(#mask-2)"></path>
                    </g>
                </g>
            </g>
        </g>
    </g>
</svg>