<?xml version="1.0" encoding="UTF-8" standalone="no"?>
<svg width="198px" height="80px" viewBox="0 0 198 80" version="1.1" xmlns="http://www.w3.org/2000/svg" xmlns:xlink="http://www.w3.org/1999/xlink">
    <!-- Generator: Sketch 40.1 (33804) - http://www.bohemiancoding.com/sketch -->
    <title>Group 19</title>
    <desc>Created with Sketch.</desc>
    <defs></defs>
    <g id="Page-1" stroke="none" stroke-width="1" fill="none" fill-rule="evenodd">
        <g id="1-EstadoPortabilidad-Desktop" transform="translate(-324.000000, -2360.000000)">
            <g id="Group-19" transform="translate(324.000000, 2360.000000)">
                <g id="Group-20-Copy" fill="#621082">
                    <circle id="Oval-2" cx="40" cy="40" r="40"></circle>
                    <g id="Group-26-Copy" transform="translate(117.200012, 0.000000)">
                        <circle id="Oval-2" cx="40" cy="40" r="40"></circle>
                    </g>
                    <path d="M70.4886896,66 L70,66 L70,16 L71.7756617,16 C77.6431863,24.4600067 87.4246258,30 98.5,30 C109.575374,30 119.356814,24.4600067 125.224338,16 L130,16 L130,66 L126.748818,66 C121.21408,56.3807251 110.85568,50 99,50 C87.1443197,50 76.3261274,56.3807251 70.4886967,65.9999884 Z" id="Combined-Shape"></path>
                </g>
                <g id="Group-33" transform="translate(13.000000, 10.000000)">
                    <path d="M56.8231346,38.3570864 C56.595285,37.3421512 55.7762296,36.703034 54.577876,36.4377685 C53.5790976,36.2174198 51.8254828,36.222108 49.1406174,37.498679 C48.9538259,37.5801944 36.5391055,42.9071296 34.2227098,43.9061852 C33.8655198,44.0596883 33.7426464,44.5678364 33.7426464,44.5678364 C30.6653984,53.0800741 21.867847,49.5508642 21.8779235,49.4344136 C26.4243879,49.6317747 29.6726359,47.125213 30.6554723,45.1656667 C32.9514142,40.5877963 27.7938918,41.1868364 24.9810396,41.1549259 C14.4450633,41.0356019 14.5995198,43.6332068 8.94975198,45.529537 L0.384862797,48.8501944 C0.165736148,48.9406327 0.0652717678,49.1396574 0.0181978892,49.3510833 C-0.0282744063,49.5626605 0.0153403694,49.7842191 0.138664908,49.961466 L0.700844327,50.7672438 C2.10208179,52.777 3.75869129,55.8720154 5.21737995,57.8970463 C5.31137731,58.027713 5.4435752,58.125713 5.59577573,58.1765278 C5.62991557,58.1877191 5.67443272,58.2013302 5.72917678,58.2131265 C5.92529288,58.2568333 6.13629815,58.260463 6.2984248,58.2226543 L12.5633113,56.6334815 C12.8923773,56.5548395 28.7508602,61.4634599 34.8418892,57.1987963 L53.5825567,42.9083395 C54.3240079,42.3192809 55.0895224,41.7096543 55.8544354,41.113034 C56.6898839,40.4607593 57.0406069,39.3283148 56.8231346,38.3570864" id="Fill-1" fill="#FFFFFF"></path>
                    <g id="Group-32" transform="translate(1.000000, 0.000000)">
                        <g id="Group-7" transform="translate(25.565217, 0.000000)" fill="#FFFFFF">
                            <path d="M13.5298924,17.2952087 C13.5298924,17.7542275 13.1568249,18.125973 12.6961738,18.125973 L11.1598475,18.125973 C10.6991964,18.125973 10.3261289,17.7542275 10.3261289,17.2952087 L10.3261289,7.96855862 L9.37557326,8.48025742 C9.14894841,8.60177272 8.87914851,8.61265993 8.64371242,8.50975825 C8.40827633,8.40685657 8.23416641,8.20175561 8.17090177,7.95345701 L7.86726675,6.76130768 C7.77298658,6.39096699 7.94445314,6.00482229 8.28245196,5.82430535 L10.9298744,4.41265585 C11.0509407,4.3482106 11.1859288,4.31396857 11.3235602,4.31396857 L12.6954689,4.31396857 C13.15612,4.31396857 13.5298924,4.68641646 13.5298924,5.14525962 L13.5298924,17.2952087 Z M11.269283,0 C6.332879,0 2.14208135,3.16642167 0.622144012,7.57135111 C5.29755937,8.93576418 8.71332115,13.2379675 8.71332115,18.3379223 C8.71332115,19.6157645 8.49568374,20.8423315 8.10129305,21.9863664 C9.10630205,22.2799698 10.1692889,22.4397659 11.269283,22.4397659 C17.4880736,22.4397659 22.5296837,17.416724 22.5296837,11.2199708 C22.5296837,5.02321752 17.4880736,0 11.269283,0 L11.269283,0 Z" id="Fill-3"></path>
                        </g>
                        <g id="Group-15" transform="translate(0.000000, 6.333333)">
                            <g id="Group-31">
                                <path d="M20.87824,30.7516245 C12.424587,33.3626458 3.41194367,28.7615253 0.745990012,20.4722561 C-1.91709703,12.182987 2.77555473,3.34559736 11.2292078,0.731484003 C19.6828608,-1.87981848 28.6955042,2.7215832 31.3614578,11.0108523 C34.0242582,19.3001214 29.3318931,28.1375111 20.87824,30.7516245 Z" id="Shape" fill="#FFFFFF"></path>
                                <path d="M24.9975045,21.9263986 C24.9541645,21.942772 24.9094041,21.950759 24.8651308,21.950759 C24.718919,21.950759 24.580377,21.8635806 24.5246599,21.7216511 L21.8650511,14.9988485 C21.1618307,13.2696566 20.2928793,12.5947127 18.7649809,12.5947127 C17.7517657,12.5947127 16.9019277,13.2129487 16.8933247,13.2197377 C16.4424747,13.552637 15.7358861,13.5512393 15.2845087,13.2197377 C15.2773665,13.2129487 14.4189255,12.5947127 13.4128524,12.5947127 C11.8859279,12.5947127 11.0160432,13.2696566 10.3118489,15.0016439 L7.65418791,21.7216511 C7.58085885,21.9067105 7.36756746,21.9985614 7.18045054,21.9263986 C6.99235967,21.854715 6.8990244,21.6461736 6.97284043,21.4601956 L9.63200289,14.7378723 C10.4475908,12.7303324 11.5784085,11.8750014 13.412893,11.8750014 C14.6679683,11.8750014 15.681143,12.6122841 15.7235091,12.6429543 C15.914887,12.7851634 16.2634333,12.7851634 16.4543648,12.6429543 C16.4972179,12.6122442 17.5108795,11.8750014 18.7649809,11.8750014 C20.5999929,11.8750014 21.7302831,12.7303324 22.545384,14.7350369 L25.2059668,21.4601956 C25.2788901,21.6461736 25.1860418,21.854715 24.9975045,21.9263986 L24.9975045,21.9263986 Z M20.4771556,16.5530446 L17.5518253,16.5530446 C17.1495097,16.5530446 16.8205232,16.3911475 16.8205232,16.1931889 L16.8205232,15.1136221 C16.8205232,14.7176651 17.0952535,14.21588 17.4314228,13.998473 C17.4314228,13.998473 17.9313346,13.6742396 18.64888,13.6742396 C20.0624629,13.6742396 20.7576078,14.5473816 20.7576078,14.5473816 C21.0056767,14.8587161 21.2084983,15.4374163 21.2084983,15.8333333 C21.2084983,16.2290507 20.8794712,16.5530446 20.4771556,16.5530446 L20.4771556,16.5530446 Z M20.4771556,23.5700893 C20.1738565,23.5700893 19.9286283,23.3287612 19.9286283,23.0302859 C19.9286283,22.7318106 20.1738565,22.4904825 20.4771556,22.4904825 C20.7804546,22.4904825 21.0256423,22.7318106 21.0256423,23.0302859 C21.0256423,23.3287612 20.7804546,23.5700893 20.4771556,23.5700893 L20.4771556,23.5700893 Z M19.0145107,23.0303259 L18.283168,23.0303259 L18.283168,20.8712321 L19.0145107,21.5909433 L19.0145107,23.0303259 Z M16.4548518,23.0303259 L17.5518253,23.0303259 L17.5518253,20.1515209 L16.4548518,20.1515209 L16.4548518,23.0303259 Z M14.9922069,19.4318096 L14.9922069,18.3522827 C14.9922069,17.7558113 15.4835563,17.2727558 16.0891804,17.2727558 C16.6952916,17.2727558 17.1861539,17.7558513 17.1861539,18.3522827 L17.1861539,19.4318096 L14.9922069,19.4318096 Z M14.6265356,23.0303259 L15.7235497,23.0303259 L15.7235497,20.1515209 L14.6265356,20.1515209 L14.6265356,23.0303259 Z M13.8952334,23.0303259 L13.1639313,23.0303259 L13.1639313,21.5909433 L13.8952334,20.8712321 L13.8952334,23.0303259 Z M10.9699031,15.8333333 C10.9699031,15.4374163 11.1727247,14.858756 11.4207936,14.5473816 C11.4207936,14.5473816 12.1159385,13.6742396 13.5295621,13.6742396 C14.2465799,13.6742396 14.7470192,13.998473 14.7470192,13.998473 C15.082661,14.21588 15.3578783,14.717705 15.3578783,15.1136221 L15.3578783,16.1931889 C15.3578783,16.3911475 15.0288918,16.5530446 14.6265356,16.5530446 L11.7012458,16.5530446 C11.2989303,16.5530446 10.9699031,16.2290507 10.9699031,15.8333333 L10.9699031,15.8333333 Z M11.7012458,23.5700893 C11.3979468,23.5700893 11.1527591,23.3287612 11.1527591,23.0302859 C11.1527591,22.7318106 11.3979468,22.4904825 11.7012458,22.4904825 C12.0045449,22.4904825 12.2497732,22.7318106 12.2497732,23.0302859 C12.2497732,23.3287612 12.0045449,23.5700893 11.7012458,23.5700893 L11.7012458,23.5700893 Z M23.4024453,14.1060184 L23.4024453,11.5151458 C23.4024453,8.34844834 20.7694979,5.75757576 17.5518253,5.75757576 L14.6265356,5.75757576 C11.4084166,5.75757576 8.77591555,8.3484084 8.77591555,11.5151458 L8.77591555,14.1060184 L5.85062582,21.5909433 C5.85062582,23.0303259 10.4342804,25.9090909 16.089221,25.9090909 C21.7436746,25.9090909 26.3278162,23.0303259 26.3278162,21.5909433 L23.4024453,14.1060184 Z" id="Page-1" fill="#621082"></path>
                            </g>
                        </g>
                    </g>
                </g>
                <g id="Group-33" transform="translate(132.000000, 9.000000)" fill="#FFFFFF">
                    <path d="M56.8231346,38.3570864 C56.595285,37.3421512 55.7762296,36.703034 54.577876,36.4377685 C53.5790976,36.2174198 51.8254828,36.222108 49.1406174,37.498679 C48.9538259,37.5801944 36.5391055,42.9071296 34.2227098,43.9061852 C33.8655198,44.0596883 33.7426464,44.5678364 33.7426464,44.5678364 C30.6653984,53.0800741 21.867847,49.5508642 21.8779235,49.4344136 C26.4243879,49.6317747 29.6726359,47.125213 30.6554723,45.1656667 C32.9514142,40.5877963 27.7938918,41.1868364 24.9810396,41.1549259 C14.4450633,41.0356019 14.5995198,43.6332068 8.94975198,45.529537 L0.384862797,48.8501944 C0.165736148,48.9406327 0.0652717678,49.1396574 0.0181978892,49.3510833 C-0.0282744063,49.5626605 0.0153403694,49.7842191 0.138664908,49.961466 L0.700844327,50.7672438 C2.10208179,52.777 3.75869129,55.8720154 5.21737995,57.8970463 C5.31137731,58.027713 5.4435752,58.125713 5.59577573,58.1765278 C5.62991557,58.1877191 5.67443272,58.2013302 5.72917678,58.2131265 C5.92529288,58.2568333 6.13629815,58.260463 6.2984248,58.2226543 L12.5633113,56.6334815 C12.8923773,56.5548395 28.7508602,61.4634599 34.8418892,57.1987963 L53.5825567,42.9083395 C54.3240079,42.3192809 55.0895224,41.7096543 55.8544354,41.113034 C56.6898839,40.4607593 57.0406069,39.3283148 56.8231346,38.3570864" id="Fill-1"></path>
                    <g id="Group-32" transform="translate(26.000000, 0.000000)">
                        <g id="Group-7" transform="translate(0.565217, 0.000000)">
                            <path d="M13.5298924,17.2952087 C13.5298924,17.7542275 13.1568249,18.125973 12.6961738,18.125973 L11.1598475,18.125973 C10.6991964,18.125973 10.3261289,17.7542275 10.3261289,17.2952087 L10.3261289,7.96855862 L9.37557326,8.48025742 C9.14894841,8.60177272 8.87914851,8.61265993 8.64371242,8.50975825 C8.40827633,8.40685657 8.23416641,8.20175561 8.17090177,7.95345701 L7.86726675,6.76130768 C7.77298658,6.39096699 7.94445314,6.00482229 8.28245196,5.82430535 L10.9298744,4.41265585 C11.0509407,4.3482106 11.1859288,4.31396857 11.3235602,4.31396857 L12.6954689,4.31396857 C13.15612,4.31396857 13.5298924,4.68641646 13.5298924,5.14525962 L13.5298924,17.2952087 Z M11.269283,0 C6.332879,0 2.14208135,3.16642167 0.622144012,7.57135111 C5.29755937,8.93576418 8.71332115,13.2379675 8.71332115,18.3379223 C8.71332115,19.6157645 8.49568374,20.8423315 8.10129305,21.9863664 C9.10630205,22.2799698 10.1692889,22.4397659 11.269283,22.4397659 C17.4880736,22.4397659 22.5296837,17.416724 22.5296837,11.2199708 C22.5296837,5.02321752 17.4880736,0 11.269283,0 L11.269283,0 Z" id="Fill-3"></path>
                        </g>
                    </g>
                </g>
            </g>
        </g>
    </g>
</svg>