<?xml version="1.0" encoding="UTF-8" standalone="no"?>
<svg width="23px" height="21px" viewBox="0 0 23 21" version="1.1" xmlns="http://www.w3.org/2000/svg" xmlns:xlink="http://www.w3.org/1999/xlink">
    <!-- Generator: Sketch 39.1 (31720) - http://www.bohemiancoding.com/sketch -->
    <title>Page 1</title>
    <desc>Created with Sketch.</desc>
    <defs>
        <polygon id="path-1" points="22.8413793 20.6809615 22.8413793 0 0 0 0 10.3404808 0 20.6809615 22.8413793 20.6809615"></polygon>
    </defs>
    <g id="SP1-Portabilidad-prepago-" stroke="none" stroke-width="1" fill="none" fill-rule="evenodd">
        <g id="12-PortabilidadPrepago-Correciones" transform="translate(-48.000000, -1762.000000)">
            <g id="Page-1" transform="translate(48.000000, 1762.000000)">
                <mask id="mask-2" fill="white">
                    <use xlink:href="#path-1"></use>
                </mask>
                <g id="Clip-2"></g>
                <path d="M20.3074138,11.1243462 L17.541069,8.30711538 C17.4974483,8.24411538 17.4546207,8.18434615 17.3991034,8.13023077 C17.1508621,7.87823077 16.8225172,7.75223077 16.4941724,7.75546154 C16.1721724,7.75223077 15.8438276,7.875 15.5955862,8.127 C15.5519655,8.17465385 15.5146897,8.22230769 15.4813793,8.27238462 L5.83644828,18.0971538 L3.17241379,18.0971538 C2.82265517,18.0971538 2.53713793,17.8071923 2.53713793,17.4501923 L2.53713793,3.23076923 C2.53713793,2.87457692 2.82265517,2.58380769 3.17241379,2.58380769 L19.672931,2.58380769 C20.0226897,2.58380769 20.3074138,2.87457692 20.3074138,3.23076923 L20.3074138,11.1243462 Z M20.3074138,17.4501923 C20.3074138,17.8071923 20.0226897,18.0939231 19.672931,18.0939231 L9.39351724,18.0939231 L16.5036897,10.8561923 L20.3074138,14.7274615 L20.3074138,17.4501923 Z M21.5747931,0 L1.27055172,0 C0.570241379,0 0,0.580730769 0,1.29392308 L0,19.3878462 C0,20.1010385 0.570241379,20.6809615 1.27055172,20.6809615 L21.5747931,20.6809615 C22.2782759,20.6809615 22.8453448,20.1010385 22.8453448,19.3878462 L22.8453448,1.29392308 C22.8453448,0.580730769 22.2782759,0 21.5747931,0 L21.5747931,0 Z M7.61537931,5.17084615 C6.21158621,5.17084615 5.07744828,6.32907692 5.07744828,7.75546154 C5.07744828,9.18426923 6.21158621,10.3425 7.61537931,10.3425 C9.0152069,10.3425 10.1525172,9.18426923 10.1525172,7.75546154 C10.1525172,6.32907692 9.01837931,5.17084615 7.61537931,5.17084615 L7.61537931,5.17084615 Z" id="Fill-1" fill="#720184" mask="url(#mask-2)"></path>
            </g>
        </g>
    </g>
</svg>