<?xml version="1.0" encoding="UTF-8" standalone="no"?>
<svg width="26px" height="34px" viewBox="0 0 26 34" version="1.1" xmlns="http://www.w3.org/2000/svg" xmlns:xlink="http://www.w3.org/1999/xlink">
    <!-- Generator: Sketch 39.1 (31720) - http://www.bohemiancoding.com/sketch -->
    <title>Fill 93</title>
    <desc>Created with Sketch.</desc>
    <defs></defs>
    <g id="Comprar-bolsa" stroke="none" stroke-width="1" fill="none" fill-rule="evenodd">
        <g id="Comprar-bolsa-de-datos" transform="translate(-87.000000, -589.000000)" fill="#720184">
            <path d="M110.833333,614.5 L89.1666667,614.5 L89.1666667,597.5 C89.1666667,596.327 90.1373333,595.375 91.3333333,595.375 L93.5,595.375 L93.5,601.75 L95.6666667,601.75 L95.6666667,595.375 L104.333333,595.375 L104.333333,601.75 L106.5,601.75 L106.5,595.375 L108.666667,595.375 C109.862667,595.375 110.833333,596.327 110.833333,597.5 L110.833333,614.5 L110.833333,614.5 Z M110.833333,618.75 C110.833333,619.923 109.862667,620.875 108.666667,620.875 L91.3333333,620.875 C90.1373333,620.875 89.1666667,619.923 89.1666667,618.75 L89.1666667,616.625 L110.833333,616.625 L110.833333,618.75 L110.833333,618.75 Z M100,591.125 C102.393083,591.125 104.333333,591.782688 104.333333,593.25 L95.6666667,593.25 C95.6666667,591.782688 97.6069167,591.125 100,591.125 L100,591.125 Z M108.666667,593.25 L106.5,593.25 C106.5,590.902937 103.589083,589 100,589 C96.4109167,589 93.5,590.902937 93.5,593.25 L91.3333333,593.25 C88.94025,593.25 87,595.152937 87,597.5 L87,618.75 C87,621.097062 88.94025,623 91.3333333,623 L108.666667,623 C111.05975,623 113,621.097062 113,618.75 L113,597.5 C113,595.152937 111.05975,593.25 108.666667,593.25 L108.666667,593.25 Z" id="Fill-93"></path>
        </g>
    </g>
</svg>