<?xml version="1.0" encoding="UTF-8" standalone="no"?>
<svg width="60px" height="60px" viewBox="0 0 60 60" version="1.1" xmlns="http://www.w3.org/2000/svg" xmlns:xlink="http://www.w3.org/1999/xlink">
    <!-- Generator: Sketch 39.1 (31720) - http://www.bohemiancoding.com/sketch -->
    <title>Group 3</title>
    <desc>Created with Sketch.</desc>
    <defs></defs>
    <g id="SP2-Centro-de-ayuda" stroke="none" stroke-width="1" fill="none" fill-rule="evenodd">
        <g id="1-Centro-de-ayuda" transform="translate(-15.000000, -813.000000)">
            <g id="Group-3" transform="translate(15.000000, 813.000000)">
                <circle id="Oval" fill="#622761" cx="30" cy="30" r="30"></circle>
                <g id="Page-1" transform="translate(11.860465, 8.372093)" fill="#FEFEFE">
                    <path d="M16.8221385,21.3655588 L19.4165987,21.3655588 C19.7522307,21.3655588 20.0246278,21.0931047 20.0246278,20.756269 C20.0246278,20.4199411 19.7522307,20.1469793 19.4165987,20.1469793 L16.8221385,20.1469793 C16.4865064,20.1469793 16.2141094,20.4199411 16.2141094,20.756269 C16.2141094,21.0931047 16.4865064,21.3655588 16.8221385,21.3655588" id="Fill-1"></path>
                    <path d="M35.022679,35.7045847 C35.022679,36.0849846 34.7134962,36.394707 34.333478,36.394707 L29.7530934,36.394707 L29.7530934,34.404665 C29.7530934,34.0682354 29.4806964,33.7953752 29.1450643,33.7953752 C28.8089256,33.7953752 28.5370352,34.0682354 28.5370352,34.404665 L28.5370352,36.394707 L18.7594206,36.394707 C19.0895804,33.1499342 21.9860283,30.3177521 24.5602209,27.8019946 C25.4275744,26.9547772 26.2798285,26.1212687 26.9966948,25.298626 C27.3035468,26.0431781 27.898098,26.6282994 28.6549929,26.9198445 L33.2326413,28.6850586 C34.3374302,29.2502764 35.022679,30.3704557 35.022679,31.6152348 L35.022679,35.7045847 Z M1.2160582,35.7045847 L1.2160582,31.6152348 C1.2160582,30.3704557 1.901307,29.2502764 3.00609588,28.6850586 L7.58333896,26.9198445 C8.34063921,26.6282994 8.93478498,26.0431781 9.24194102,25.298626 C9.95880733,26.1216749 10.8111628,26.9547772 11.6780096,27.8019946 C14.2523035,30.3181583 17.1491568,33.1499342 17.4792153,36.3951131 L7.70170196,36.3951131 L7.70170196,34.404665 C7.70170196,34.0682354 7.42930492,33.7953752 7.09367286,33.7953752 C6.7580408,33.7953752 6.48564376,34.0682354 6.48564376,34.404665 L6.48564376,36.394707 L1.90525919,36.394707 C1.525241,36.394707 1.2160582,36.0849846 1.2160582,35.7045847 L1.2160582,35.7045847 Z M8.89678316,20.4445158 C9.17941536,20.0197392 9.50562297,19.714282 9.9045914,19.4980856 C10.3456152,20.6642663 10.9492867,21.7206732 11.6804417,22.6246562 C11.6768949,22.651668 11.6740574,22.6785783 11.6740574,22.7064026 L11.6740574,24.9261468 C11.6740574,25.2370877 11.4702663,25.5052768 11.1745615,25.5897649 C10.3578771,24.7579828 9.64374691,23.9630627 9.16796414,23.2152611 C8.2519683,21.7750016 8.54169417,20.9780505 8.89678316,20.4445158 L8.89678316,20.4445158 Z M14.270443,14.8664677 C14.2696323,14.8799737 14.2685176,14.8934796 14.2685176,14.9073917 L14.2685176,15.5570977 C14.2685176,15.8935272 14.5408133,16.1663875 14.8765467,16.1663875 C15.2121788,16.1663875 15.4845758,15.8935272 15.4845758,15.5570977 L15.4845758,14.9073917 C15.4845758,14.8934796 15.4833598,14.8799737 15.482549,14.8664677 L20.7560868,14.8664677 C20.7552761,14.8799737 20.7541614,14.8934796 20.7541614,14.9073917 L20.7541614,15.5570977 C20.7541614,15.8935272 21.0264571,16.1663875 21.3621905,16.1663875 C21.6978225,16.1663875 21.9702196,15.8935272 21.9702196,15.5570977 L21.9702196,14.9073917 C21.9702196,14.8934796 21.9690035,14.8799737 21.9681928,14.8664677 L25.942575,14.8664677 L25.942575,14.9073917 C25.942575,15.3619219 25.9172405,15.8094452 25.8689022,16.2477277 L25.5210082,16.2477277 C24.7676601,16.2477277 24.0599143,16.54171 23.5254567,17.076768 C23.2226582,17.3806005 22.8201429,17.5476475 22.3917864,17.5476475 L13.8469508,17.5476475 C13.4185943,17.5476475 13.0159777,17.3801943 12.7112537,17.0751432 C12.1788229,16.54171 11.4705704,16.2477277 10.717729,16.2477277 L10.3697337,16.2477277 C10.3214967,15.8094452 10.2957568,15.3619219 10.2957568,14.9073917 L10.2957568,14.8664677 L14.270443,14.8664677 Z M8.99893205,13.6074719 L8.99893205,12.3075522 C8.99893205,12.2853131 9.01707159,12.267136 9.03926465,12.267136 L10.3768273,12.267136 L10.3768273,13.6478882 L9.03926465,13.6478882 C9.01707159,13.6478882 8.99893205,13.6301172 8.99893205,13.6074719 L8.99893205,13.6074719 Z M13.8983292,2.34911678 C13.7543277,2.53748887 13.6145823,2.73550805 13.4803092,2.94490065 C12.3157308,4.76048267 11.6740574,7.16230302 11.6740574,9.7082204 L11.6740574,11.0485564 L9.64729375,11.0485564 L9.64729375,9.7082204 C9.64729375,6.56611296 11.3598077,3.81720053 13.8983292,2.34911678 L13.8983292,2.34911678 Z M26.5909367,9.7082204 L26.5909367,11.0485564 L24.5641731,11.0485564 L24.5641731,9.7082204 C24.5641731,7.16230302 23.922905,4.76048267 22.7583266,2.94490065 C22.6241549,2.73550805 22.4844095,2.53748887 22.3403066,2.34952297 C24.8789295,3.81720053 26.5909367,6.56611296 26.5909367,9.7082204 L26.5909367,9.7082204 Z M16.5794335,1.60060428 C16.4211433,2.02700558 16.2782565,2.54104306 16.1487463,3.14677866 C15.7727816,4.90569673 15.5657477,7.23612863 15.5657477,9.7082204 L15.5657477,11.0485564 L12.8901156,11.0485564 L12.8901156,9.7082204 C12.8901156,7.39322385 13.4629804,5.22537078 14.5032168,3.603746 C15.1029362,2.66879082 15.8127088,1.98973735 16.5794335,1.60060428 L16.5794335,1.60060428 Z M16.7818059,11.0485564 L16.7818059,9.7082204 C16.7818059,7.5030991 16.9535741,5.38916818 17.2663038,3.75647464 C17.5805535,2.11504795 17.9439522,1.44980505 18.1193686,1.25980819 C18.2942783,1.44980505 18.6580824,2.11504795 18.9724334,3.75647464 C19.2847577,5.38916818 19.4569313,7.5030991 19.4569313,9.7082204 L19.4569313,11.0485564 L16.7818059,11.0485564 Z M23.3481148,11.0485564 L20.6729895,11.0485564 L20.6729895,9.7082204 C20.6729895,7.23612863 20.4659556,4.90569673 20.0894842,3.14637247 C19.9600754,2.54104306 19.8171885,2.02700558 19.6592023,1.60060428 C20.425623,1.98973735 21.1352943,2.66879082 21.7350136,3.603746 C22.7753514,5.22537078 23.3481148,7.39322385 23.3481148,9.7082204 L23.3481148,11.0485564 Z M11.5928855,13.6478882 L13.6196492,13.6478882 L13.6196492,12.267136 L11.5928855,12.267136 L11.5928855,13.6478882 Z M14.8357074,13.6478882 L17.5113395,13.6478882 L17.5113395,12.267136 L14.8357074,12.267136 L14.8357074,13.6478882 Z M18.7273977,13.6478882 L21.4025231,13.6478882 L21.4025231,12.267136 L18.7273977,12.267136 L18.7273977,13.6478882 Z M22.6185813,13.6478882 L24.6453449,13.6478882 L24.6453449,12.267136 L22.6185813,12.267136 L22.6185813,13.6478882 Z M27.2398051,13.6074719 C27.2398051,13.6301172 27.2215642,13.6478882 27.1989658,13.6478882 L25.8614031,13.6478882 L25.8614031,12.267136 L27.1989658,12.267136 C27.2215642,12.267136 27.2398051,12.2853131 27.2398051,12.3075522 L27.2398051,13.6074719 Z M18.1193686,29.1645697 C19.507195,29.1645697 20.8804287,28.9154717 22.1914408,28.4358591 C20.5313187,30.1257243 18.9510511,31.9607021 18.1193686,34.0159381 C17.2872808,31.9607021 15.7070131,30.1257243 14.047195,28.4358591 C15.3579031,28.9154717 16.7314408,29.1645697 18.1193686,29.1645697 L18.1193686,29.1645697 Z M12.3529219,26.2562264 C12.6886553,25.9102514 12.8901156,25.4394735 12.8901156,24.9261468 L12.8901156,23.8817226 C14.3670183,25.1617389 16.1725607,25.9150241 18.1193686,25.9150241 C20.0661764,25.9150241 21.8712122,25.1617389 23.3481148,23.8817226 L23.3481148,24.9261468 C23.3481148,25.4394735 23.5500819,25.9098452 23.8857139,26.2562264 C22.1170586,27.3628998 20.1326543,27.9459901 18.1193686,27.9459901 C16.1056775,27.9459901 14.1216786,27.3628998 12.3529219,26.2562264 L12.3529219,26.2562264 Z M10.5676471,17.4663073 L10.717729,17.4663073 C11.1459841,17.4663073 11.5486008,17.6333542 11.8530207,17.93871 C12.3854515,18.4722447 13.0936027,18.766227 13.8469508,18.766227 L22.3917864,18.766227 C23.1447291,18.766227 23.8528803,18.4722447 24.3872366,17.9367805 C24.6901364,17.6333542 25.0926517,17.4663073 25.5210082,17.4663073 L25.6709887,17.4663073 C24.7692815,21.6270457 21.7255892,24.6964446 18.1193686,24.6964446 C14.5127426,24.6964446 11.4690503,21.6270457 10.5676471,17.4663073 L10.5676471,17.4663073 Z M27.341954,20.4445158 C27.6966377,20.9780505 27.9867689,21.7750016 27.070773,23.2148549 C26.5949903,23.9626566 25.8808601,24.7579828 25.0641757,25.5893587 C24.7684708,25.5048706 24.5645784,25.2370877 24.5645784,24.9261468 L24.5645784,22.7064026 C24.5645784,22.6785783 24.5618423,22.651668 24.5582954,22.6246562 C25.2890451,21.7206732 25.8927166,20.6642663 26.3340444,19.4980856 C26.7331142,19.714282 27.0593218,20.0197392 27.341954,20.4445158 L27.341954,20.4445158 Z M33.7511888,27.5826503 C33.7337586,27.5739171 33.7159231,27.5659964 33.6976822,27.558888 L29.0915577,25.7826052 C28.6102014,25.5968733 28.2401143,25.2089588 28.0769599,24.7182774 L27.8925244,24.163316 C28.9237417,22.6793907 29.3211901,21.2227819 28.3537144,19.7686103 C27.9155281,19.1101711 27.376713,18.6361437 26.7125425,18.3234765 C27.0014577,17.2477753 27.1586332,16.0993656 27.1586332,14.9073917 L27.1586332,14.8664677 L27.1989658,14.8664677 C27.892119,14.8664677 28.4558633,14.3016561 28.4558633,13.6074719 L28.4558633,12.3075522 C28.4558633,11.8343371 28.1933974,11.4214417 27.8069949,11.2063624 L27.8069949,9.7082204 C27.8069949,4.35510186 23.4614109,0 18.1193686,0 C12.7773262,0 8.43123555,4.35510186 8.43123555,9.7082204 L8.43123555,11.2063624 C8.04493439,11.4214417 7.78287385,11.8343371 7.78287385,12.3075522 L7.78287385,13.6074719 C7.78287385,14.3016561 8.34651682,14.8664677 9.03926465,14.8664677 L9.08010394,14.8664677 L9.08010394,14.9073917 C9.08010394,16.0993656 9.23677277,17.2477753 9.52619462,18.3234765 C8.86151747,18.6361437 8.32280369,19.1101711 7.88502274,19.7686103 C6.9175471,21.2227819 7.3145901,22.6793907 8.34611147,24.163316 L8.16167598,24.7182774 C7.99821749,25.2089588 7.62843445,25.5968733 7.14667273,25.7826052 L2.54054827,27.558888 C2.52240873,27.5659964 2.50457321,27.5739171 2.48714304,27.5826503 C0.953186956,28.3513709 0,29.8964283 0,31.6152348 L0,35.7045847 C0,36.7569297 0.854686241,37.6132865 1.90525919,37.6132865 L34.333478,37.6132865 C35.3840509,37.6132865 36.2387372,36.7569297 36.2387372,35.7045847 L36.2387372,31.6152348 C36.2387372,29.8964283 35.2854489,28.3513709 33.7511888,27.5826503 L33.7511888,27.5826503 Z" id="Fill-3"></path>
                </g>
            </g>
        </g>
    </g>
</svg>