<?xml version="1.0" encoding="UTF-8" standalone="no"?>
<svg width="38px" height="41px" viewBox="0 0 38 41" version="1.1" xmlns="http://www.w3.org/2000/svg" xmlns:xlink="http://www.w3.org/1999/xlink">
    <!-- Generator: Sketch 39.1 (31720) - http://www.bohemiancoding.com/sketch -->
    <title>Group 5</title>
    <desc>Created with Sketch.</desc>
    <defs>
        <polygon id="path-1" points="37.8732019 40.1580332 0 40.1580332 0 0.0327927257 37.8732019 0.0327927257 37.8732019 40.1580332"></polygon>
    </defs>
    <g id="SP2-Estado-Portabilidad" stroke="none" stroke-width="1" fill="none" fill-rule="evenodd">
        <g id="7-Estado-Portabilidad-Correciones" transform="translate(-168.000000, -275.000000)">
            <g id="Page-1" transform="translate(168.000000, 275.000000)">
                <g id="Group-5" transform="translate(0.000000, 0.147306)">
                    <mask id="mask-2" fill="white">
                        <use xlink:href="#path-1"></use>
                    </mask>
                    <g id="Clip-4"></g>
                    <path d="M34.4302585,26.3217179 L32.3644566,26.3217179 L26.8555321,26.3217179 C26.4755321,26.3217179 26.1670509,26.6309167 26.1670509,27.0135886 C26.1670509,27.3960803 26.4755321,27.7052792 26.8555321,27.7052792 L32.3644566,27.7052792 C33.5033811,27.7052792 34.4302585,28.6364774 34.4302585,29.7807112 C34.4302585,30.9251251 33.5033811,31.8563232 32.3644566,31.8563232 L30.9873151,31.8563232 L30.2986547,31.8563232 L25.4783906,31.8563232 C25.0982113,31.8563232 24.7897302,32.1655221 24.7897302,32.5480139 C24.7897302,32.9306857 25.0982113,33.2398845 25.4783906,33.2398845 L30.2986547,33.2398845 C31.4375792,33.2398845 32.3644566,34.1710827 32.3644566,35.3153165 C32.3644566,36.4595503 31.4375792,37.3907485 30.2986547,37.3907485 L11.0175981,37.3907485 L11.0175981,16.6362486 L11.6849283,16.6355283 C11.7517868,16.6486742 13.3513717,16.6702839 14.9090132,15.1523823 C16.8963057,13.2181337 17.9036642,9.76040096 17.9036642,4.87552738 C17.9036642,3.58380733 18.1069283,1.41635402 19.4695509,1.41635402 L19.6342774,1.41635402 C21.1704094,1.41635402 22.8072774,3.58182644 23.0682585,5.353462 C23.2107585,6.31653447 23.6260698,9.68422675 23.0042679,12.6036978 L22.1469377,16.6362486 L33.7415981,16.6362486 C34.8805226,16.6362486 35.8074,17.5674468 35.8074,18.7116806 C35.8074,19.8560945 34.8805226,20.7871126 33.7415981,20.7871126 L32.3644566,20.7871126 L31.6757962,20.7871126 L26.8555321,20.7871126 C26.4755321,20.7871126 26.1670509,21.0964915 26.1670509,21.4789832 C26.1670509,21.8616551 26.4755321,22.1708539 26.8555321,22.1708539 L31.6757962,22.1708539 C32.2837962,22.1708539 33.6211453,22.1985864 34.3297019,22.3042939 C36.1277113,22.5720741 36.4960604,23.2742094 36.4960604,24.2462859 C36.4960604,25.3905197 35.569183,26.3217179 34.4302585,26.3217179 L34.4302585,26.3217179 Z M1.37724906,38.7744899 L9.6404566,38.7744899 L9.6404566,15.2526873 L1.37724906,15.2526873 L1.37724906,38.7744899 Z M37.8732019,24.2462859 C37.8732019,22.5202108 36.9264283,21.7129083 36.0036736,21.3178109 C36.7267491,20.683386 37.1847208,19.7502069 37.1847208,18.7116806 C37.1847208,16.8044441 35.6401642,15.2526873 33.7415981,15.2526873 L23.8492302,15.2526873 L24.351117,12.8936279 C25.0211358,9.74653473 24.5810887,6.17192954 24.4310604,5.15141127 C24.0743623,2.73490612 21.9472585,0.0327927257 19.6342774,0.0327927257 L19.4695509,0.0327927257 C18.3705981,0.0327927257 16.5265226,0.661635111 16.5265226,4.87552738 C16.5265226,10.4257998 15.1479472,12.9654802 13.9918151,14.1181778 C12.8575509,15.2485454 11.7668434,15.2361199 11.7062585,15.2526873 L11.0175981,15.2526873 L11.0175981,13.869126 L-7.16981131e-05,13.869126 L-7.16981131e-05,40.1580512 L11.0175981,40.1580512 L11.0175981,38.7743098 L30.2986547,38.7743098 C32.1970415,38.7743098 33.7415981,37.2227331 33.7415981,35.3153165 C33.7415981,34.5099949 33.4662774,33.7684219 33.005617,33.1797375 C34.5989283,32.8773818 35.8074,31.4680689 35.8074,29.7807112 C35.8074,28.9755696 35.5320792,28.2338165 35.0714189,27.6451322 C36.6647302,27.3427764 37.8732019,25.9336436 37.8732019,24.2462859 L37.8732019,24.2462859 Z" id="Fill-3" fill="#8743A2" mask="url(#mask-2)"></path>
                </g>
            </g>
        </g>
    </g>
</svg>