<?xml version="1.0" encoding="UTF-8" standalone="no"?>
<svg width="16px" height="16px" viewBox="0 0 16 16" version="1.1" xmlns="http://www.w3.org/2000/svg" xmlns:xlink="http://www.w3.org/1999/xlink">
    <!-- Generator: Sketch 39.1 (31720) - http://www.bohemiancoding.com/sketch -->
    <title>Page 1</title>
    <desc>Created with Sketch.</desc>
    <defs>
        <polygon id="path-1" points="16 0 0 0 0 7.9999942 0 15.9999884 16 15.9999884 16 7.9999942"></polygon>
    </defs>
    <g id="SP1-Portabilidad-prepago-" stroke="none" stroke-width="1" fill="none" fill-rule="evenodd">
        <g id="7-PortabilidadPrepago-Correciones" transform="translate(-321.000000, -878.000000)">
            <g id="Page-1" transform="translate(321.000000, 878.000000)">
                <mask id="mask-2" fill="white">
                    <use xlink:href="#path-1"></use>
                </mask>
                <g id="Clip-2"></g>
                <path d="M0.615362319,7.99998841 C0.615362319,3.92833623 3.92828986,0.615350725 8,0.615350725 C12.0717101,0.615350725 15.3846377,3.92833623 15.3846377,7.99998841 C15.3846377,12.0716986 12.0717101,15.3846261 8,15.3846261 C3.92828986,15.3846261 0.615362319,12.0716986 0.615362319,7.99998841 Z" id="Fill-1" fill="#D0011B" mask="url(#mask-2)"></path>
                <path d="M12.114318,3.88570179 C11.9529901,3.72437391 11.6921443,3.72437391 11.5308164,3.88570179 L8.10856624,7.30795199 L4.68631604,3.88577954 C4.52498817,3.72437391 4.26414237,3.72437391 4.10289224,3.88577954 C3.94148662,4.04710742 3.94148662,4.30795321 4.10289224,4.46920334 L7.52506469,7.89145354 L4.10289224,11.3137037 C3.94148662,11.4750316 3.94148662,11.7358774 4.10289224,11.8971275 C4.18336181,11.9775971 4.28902185,12.018104 4.39460414,12.018104 C4.50026418,12.018104 4.60584648,11.9775971 4.68631604,11.8971275 L8.10856624,8.47495509 L11.5308164,11.8971275 C11.611286,11.9775971 11.716946,12.018104 11.8225283,12.018104 C11.9281884,12.018104 12.0337707,11.9775971 12.1142402,11.8971275 C12.2756459,11.7357997 12.2756459,11.4749539 12.1142402,11.3137037 L8.69206779,7.89145354 L12.1142402,4.46920334 C12.2756459,4.30787546 12.2756459,4.04702967 12.114318,3.88570179" id="Fill-4" fill="#FFFFFF" mask="url(#mask-2)"></path>
            </g>
        </g>
    </g>
</svg>