<?xml version="1.0" encoding="UTF-8" standalone="no"?>
<svg width="142px" height="145px" viewBox="0 0 142 145" version="1.1" xmlns="http://www.w3.org/2000/svg" xmlns:xlink="http://www.w3.org/1999/xlink">
    <!-- Generator: Sketch 39.1 (31720) - http://www.bohemiancoding.com/sketch -->
    <title>Group</title>
    <desc>Created with Sketch.</desc>
    <defs>
        <linearGradient x1="50%" y1="0%" x2="50%" y2="100%" id="linearGradient-1">
            <stop stop-color="#C32AFF" offset="0%"></stop>
            <stop stop-color="#9012FE" offset="100%"></stop>
        </linearGradient>
    </defs>
    <g id="Autoatencion-de-recargas" stroke="none" stroke-width="1" fill="none" fill-rule="evenodd">
        <g id="Estas-comprando---prepago" transform="translate(-118.000000, -139.000000)">
            <g id="Group" transform="translate(118.000000, 139.000000)">
                <circle id="Oval" fill="#D8D8D8" cx="71" cy="71" r="71"></circle>
                <g id="Group-5" transform="translate(25.000000, 17.000000)">
                    <g id="Page-1" transform="translate(0.000000, 22.326923)">
                        <polygon id="Fill-1" fill="#E97D39" points="6.53807107 29.8247466 85.003797 29.8247466 85.003797 0.466419375 6.53807107 0.466419375"></polygon>
                        <g id="Group-14" transform="translate(0.000000, 0.010717)">
                            <path d="M91.542335,23.288352 L91.542335,98.3143082 C91.542335,101.903547 88.599736,104.83952 85.004264,104.83952 L6.53807107,104.83952 C2.94259898,104.83952 0,101.903547 0,98.3143082 L0,23.288352 L91.542335,23.288352 Z" id="Fill-2" fill="#FFB651"></path>
                            <path d="M75.1952893,10.2416562 L75.1952893,26.550026 L85.004264,26.550026 L85.004264,0.455236493 L75.1952893,10.2416562 Z M6.53807107,26.550026 L16.3470457,26.550026 L16.3470457,10.2416562 L6.53807107,0.455236493 L6.53807107,26.550026 Z" id="Fill-4" fill="#FFB651"></path>
                            <path d="M75.1952893,10.2416562 L75.1952893,23.288352 L91.542335,23.288352 L75.1952893,10.2416562 Z M16.3470457,23.288352 L16.3470457,10.2416562 L0,23.288352 L16.3470457,23.288352 Z" id="Fill-6" fill="#FC9200"></path>
                            <path d="M73.5607716,39.5985856 C71.5974822,39.5985856 70.291736,40.9037212 70.291736,42.8602596 C70.291736,44.8191278 71.5974822,46.1219335 73.5607716,46.1219335 C75.5217259,46.1219335 76.8298071,44.8191278 76.8298071,42.8602596 C76.8298071,40.9037212 75.5217259,39.5985856 73.5607716,39.5985856 M17.9815635,39.5985856 C16.0206091,39.5985856 14.7125279,40.9037212 14.7125279,42.8602596 C14.7125279,44.8191278 16.0206091,46.1219335 17.9815635,46.1219335 C19.9425178,46.1219335 21.250599,44.8191278 21.250599,42.8602596 C21.250599,40.9037212 19.9425178,39.5985856 17.9815635,39.5985856" id="Fill-8" fill="#E29942"></path>
                            <path d="M17.9815635,45.7962321 C19.9425178,45.7962321 20.2708223,48.0808017 20.2708223,48.0808017 C20.2708223,62.7597324 31.3860102,74.5017586 45.7721015,74.5017586 C60.1558579,74.5017586 71.2729137,62.7597324 71.2729137,48.0808017 C71.2729137,48.0808017 71.5993503,45.7962321 73.5607716,45.7962321 C75.5235939,45.7962321 75.8500305,48.0808017 75.8500305,48.0808017 C75.8500305,65.3681396 62.7720203,79.0699659 45.7721015,79.0699659 C28.7698477,79.0699659 15.6937056,65.0424382 15.6937056,48.0808017 C15.6937056,48.0808017 16.0206091,45.7962321 17.9815635,45.7962321" id="Fill-10" fill="#E29942"></path>
                            <path d="M17.9815635,42.5345581 C19.9425178,42.5345581 20.2708223,44.8191278 20.2708223,44.8191278 C20.2708223,59.4966605 31.3860102,71.2400846 45.7721015,71.2400846 C60.1558579,71.2400846 71.2729137,59.4966605 71.2729137,44.8191278 C71.2729137,44.8191278 71.5993503,42.5345581 73.5607716,42.5345581 C75.5235939,42.5345581 75.8500305,44.8191278 75.8500305,44.8191278 C75.8500305,62.1064657 62.7720203,75.8064282 45.7721015,75.8064282 C28.7698477,75.8064282 15.6937056,61.7807642 15.6937056,44.8191278 C15.6937056,44.8191278 16.0206091,42.5345581 17.9815635,42.5345581" id="Fill-12" fill="#FEFCF8"></path>
                        </g>
                    </g>
                    <rect id="Rectangle-2" fill="url(#linearGradient-1)" x="16.1621622" y="0" width="59.6756757" height="45.8942308" rx="5"></rect>
                    <path d="M34.6616216,9.18876923 L29.3504865,9.18876923 L29.3504865,11.5901538 L31.9762162,11.5901538 L31.9762162,17.5836923 L29.1515676,17.5836923 L29.1515676,19.8461538 L37.2475676,19.8461538 L37.2475676,17.5836923 L34.6616216,17.5836923 L34.6616216,9.18876923 Z M44.5677838,8.95061538 C41.3850811,8.95061538 38.8588108,11.3916923 38.8588108,14.5273846 C38.8588108,17.6630769 41.3850811,20.0843077 44.5478919,20.0843077 C47.7305946,20.0843077 50.2966486,17.6630769 50.2966486,14.5273846 C50.2966486,11.3916923 47.7305946,8.95061538 44.5677838,8.95061538 L44.5677838,8.95061538 Z M44.5677838,11.4115385 C46.2585946,11.4115385 47.5316757,12.7412308 47.5316757,14.5273846 C47.5316757,16.2936923 46.2585946,17.6233846 44.5677838,17.6233846 C42.8172973,17.6233846 41.6038919,16.2936923 41.6038919,14.5273846 C41.6038919,12.7412308 42.8172973,11.4115385 44.5677838,11.4115385 L44.5677838,11.4115385 Z M57.6765405,8.95061538 C54.4938378,8.95061538 51.9675676,11.3916923 51.9675676,14.5273846 C51.9675676,17.6630769 54.4938378,20.0843077 57.6566486,20.0843077 C60.8393514,20.0843077 63.4054054,17.6630769 63.4054054,14.5273846 C63.4054054,11.3916923 60.8393514,8.95061538 57.6765405,8.95061538 L57.6765405,8.95061538 Z M57.6765405,11.4115385 C59.3673514,11.4115385 60.6404324,12.7412308 60.6404324,14.5273846 C60.6404324,16.2936923 59.3673514,17.6233846 57.6765405,17.6233846 C55.9260541,17.6233846 54.7126486,16.2936923 54.7126486,14.5273846 C54.7126486,12.7412308 55.9260541,11.4115385 57.6765405,11.4115385 L57.6765405,11.4115385 Z" id="100" fill="#FFFFFF"></path>
                    <path d="M45.4517297,25.542 L40.5956216,31.7588077 L35.7395135,25.542 L34.9736757,25.542 L34.9736757,37.2115385 L37.3234054,37.2115385 L37.3234054,31.0815577 L40.2127027,34.7109231 L40.9785405,34.7109231 L43.8678378,31.0815577 L43.8678378,37.2115385 L46.2175676,37.2115385 L46.2175676,25.542 L45.4517297,25.542 Z M55.7209189,31.0120962 C56.2604865,30.4911346 56.5737838,29.7965192 56.5737838,28.9456154 C56.5737838,27.0527885 55.0595135,25.7503846 52.9360541,25.7503846 L51.1258919,25.7503846 L48.8631892,25.7503846 L48.8631892,37.2115385 L50.0119459,37.2115385 L53.9803784,37.2115385 C56.2082703,37.2115385 57.7573514,35.8223077 57.7573514,33.8426538 C57.7573514,32.4534231 56.9915135,31.4635962 55.7209189,31.0120962 L55.7209189,31.0120962 Z M52.7445946,27.7647692 C53.7192973,27.7647692 54.2414595,28.2683654 54.2414595,29.0671731 C54.2414595,29.8486154 53.7192973,30.3869423 52.7445946,30.3869423 L51.1258919,30.3869423 L51.1258919,27.7647692 L52.7445946,27.7647692 Z M53.8063243,35.1971538 L51.1258919,35.1971538 L51.1258919,32.3145 L53.8063243,32.3145 C54.8332432,32.3145 55.4424324,32.8701923 55.4424324,33.7558269 C55.4424324,34.6588269 54.8332432,35.1971538 53.8063243,35.1971538 L53.8063243,35.1971538 Z" id="MB" fill="#FFFFFF"></path>
                </g>
            </g>
        </g>
    </g>
</svg>