<?xml version="1.0" encoding="UTF-8" standalone="no"?>
<svg width="35px" height="44px" viewBox="0 0 35 44" version="1.1" xmlns="http://www.w3.org/2000/svg" xmlns:xlink="http://www.w3.org/1999/xlink">
    <!-- Generator: Sketch 39.1 (31720) - http://www.bohemiancoding.com/sketch -->
    <title>Page 1</title>
    <desc>Created with Sketch.</desc>
    <defs>
        <path d="M10.22,1.20781818 L0.742424242,10.2292273 C-0.247121212,11.1712841 -0.247121212,12.7027727 0.742424242,13.6427614 L7.41575758,19.9982841 C6.37530303,20.5670341 5.66045455,21.6259432 5.66045455,22.8492727 C5.66045455,23.9940114 6.27666667,25.0063864 7.21318182,25.5968523 C7.25772727,25.6568295 7.315,25.7147386 7.38606061,25.77575 L15.6640909,33.6245 L15.6640909,34.9419318 L14.1283333,34.9419318 L14.1283333,44.4659091 L34.1356061,44.4659091 L34.1356061,34.9419318 L32.5987879,34.9419318 L32.5987879,32.7207045 C34.0730303,31.5315 34.9066667,29.8262841 34.9066667,27.9793977 C34.9066667,26.7064318 34.4898485,25.4644886 33.7272727,24.4241932 L34.1663636,24.0053864 C34.6436364,23.5503864 34.9066667,22.9454432 34.9066667,22.2981023 C34.9066667,21.6548977 34.6436364,21.0499545 34.1663636,20.5918523 L33.7336364,20.1844205 C34.4675758,19.5691364 34.9066667,18.6767159 34.9066667,17.72225 C34.9066667,15.9043182 33.3507576,14.4245341 31.4427273,14.4245341 C31.3027273,14.4245341 31.1648485,14.4379773 31.0290909,14.4514205 C31.0439394,14.3231932 31.0587879,14.1908295 31.0587879,14.0584659 C31.0587879,12.2415682 29.5028788,10.7597159 27.5937879,10.7597159 C27.4537879,10.7597159 27.3159091,10.7741932 27.1801515,10.7886705 C27.195,10.6594091 27.2098485,10.5270455 27.2098485,10.3946818 C27.2098485,8.57778409 25.6539394,7.09696591 23.7459091,7.09696591 C23.6059091,7.09696591 23.4669697,7.109375 23.3312121,7.12488636 C23.3471212,6.995625 23.3619697,6.86429545 23.3619697,6.73089773 C23.3619697,4.914 21.8060606,3.43318182 19.8969697,3.43318182 C18.8904545,3.43318182 17.9571212,3.85198864 17.3112121,4.54896591 L16.6981818,3.96573864 L13.8048485,1.20781818 C13.3084848,0.737306818 12.6583333,0.501534091 12.0092424,0.501534091 C11.3601515,0.501534091 10.7121212,0.737306818 10.22,1.20781818 L10.22,1.20781818 Z M1.83166667,12.6086705 C1.44030303,12.2374318 1.44030303,11.636625 1.83166667,11.2674545 L11.305,2.24501136 C11.4036364,2.15504545 11.5160606,2.08369318 11.6327273,2.036125 C11.6889394,2.01647727 11.7493939,2.01957955 11.8066667,2.00510227 C11.9445455,1.98028409 12.080303,1.98028409 12.215,2.00510227 C12.2712121,2.01957955 12.3316667,2.01647727 12.3878788,2.036125 C12.5045455,2.08369318 12.6169697,2.15504545 12.7145455,2.24501136 L14.5228788,3.96573864 L3.63787879,14.3304318 L1.83166667,12.6086705 L1.83166667,12.6086705 Z M18.4015152,5.58202273 C18.7578788,5.15597727 19.3062121,4.89952273 19.9012121,4.89952273 C20.9607576,4.89952273 21.8251515,5.71955682 21.8251515,6.73089773 C21.8251515,7.29240909 21.5504545,7.81565909 21.1039394,8.15484091 L18.4015152,5.58202273 L18.4015152,5.58202273 Z M4.72393939,15.3645227 L15.6131818,5.00293182 L33.0760606,21.6290455 C33.4642424,21.9982159 33.4642424,22.5979886 33.0760606,22.9712955 L32.7387879,23.2887614 L23.5974242,31.9906364 C23.2113636,32.3629091 22.580303,32.3629091 22.1889394,31.9906364 L16.0522727,26.1480227 L16.8180303,26.1480227 C18.7281818,26.1480227 20.2830303,24.6661705 20.2830303,22.8492727 C20.2830303,21.0313409 18.7281818,19.553625 16.8180303,19.553625 L9.12545455,19.553625 L4.72393939,15.3645227 L4.72393939,15.3645227 Z M22.2493939,9.24580682 C22.6057576,8.82079545 23.1551515,8.56227273 23.7459091,8.56227273 C24.8086364,8.56227273 25.6740909,9.38230682 25.6740909,10.3946818 C25.6740909,10.9561932 25.3983333,11.4794432 24.9518182,11.818625 L22.2493939,9.24580682 L22.2493939,9.24580682 Z M26.0972727,12.9095909 C26.454697,12.4835455 27.0030303,12.2270909 27.5937879,12.2270909 C28.6565152,12.2270909 29.5219697,13.047125 29.5219697,14.0584659 C29.5219697,14.6189432 29.2472727,15.1421932 28.799697,15.4824091 L26.0972727,12.9095909 L26.0972727,12.9095909 Z M29.9462121,16.573375 C30.3036364,16.1473295 30.8509091,15.8898409 31.4427273,15.8898409 C32.5054545,15.8898409 33.3709091,16.709875 33.3709091,17.72225 C33.3709091,18.2837614 33.0940909,18.8070114 32.6486364,19.1461932 L29.9462121,16.573375 L29.9462121,16.573375 Z M7.19727273,22.8492727 C7.19727273,21.9765 7.84742424,21.2464318 8.70863636,21.0644318 L9.02893939,21.0282386 C9.05757576,21.0241023 9.09151515,21.0178977 9.12227273,21.0178977 L16.8180303,21.0178977 C17.8818182,21.0178977 18.7430303,21.84 18.7430303,22.8492727 C18.7430303,23.8606136 17.8818182,24.6806477 16.8180303,24.6806477 L9.12227273,24.6806477 C8.06272727,24.6806477 7.19727273,23.8606136 7.19727273,22.8492727 L7.19727273,22.8492727 Z M24.6877273,33.0278295 L32.6178788,25.4789659 C33.1068182,26.2255795 33.3709091,27.0921477 33.3709091,27.9793977 C33.3709091,29.4860682 32.6369697,30.8707159 31.3663636,31.7827841 L31.0587879,32.0040795 L31.0587879,34.9419318 L17.2062121,34.9419318 L17.2062121,32.9492386 L16.9325758,32.7310455 C16.8965152,32.7020909 16.8593939,32.6741705 16.7925758,32.6276364 L9.96015152,26.1480227 L13.8769697,26.1480227 L21.1039394,33.0278295 C21.595,33.4962727 22.2451515,33.7330795 22.8963636,33.7330795 C23.5422727,33.7330795 24.1924242,33.4962727 24.6877273,33.0278295 L24.6877273,33.0278295 Z M27.9798485,40.4918977 C27.9798485,38.8735455 27.2469697,37.4206477 26.0824242,36.4062045 L32.5987879,36.4062045 L32.5987879,42.9995682 L27.9798485,42.9995682 L27.9798485,40.4918977 L27.9798485,40.4918977 Z M15.6640909,36.4062045 L22.1518182,36.4062045 C24.5148485,36.4062045 26.4398485,38.2375795 26.4398485,40.4918977 L26.4398485,42.9995682 L15.6640909,42.9995682 L15.6640909,36.4062045 L15.6640909,36.4062045 Z" id="path-1"></path>
        <path d="M10.22,1.20781818 L0.742424242,10.2292273 C0.248181818,10.7007727 0,11.3191591 0,11.9365114 C0,12.5548977 0.248181818,13.1732841 0.742424242,13.6427614 L7.41575758,19.9982841 C6.37530303,20.5670341 5.66045455,21.6259432 5.66045455,22.8492727 C5.66045455,23.9940114 6.27666667,25.0063864 7.21318182,25.5968523 C7.25772727,25.6568295 7.315,25.7147386 7.38606061,25.77575 L15.6640909,33.6245 L15.6640909,34.9419318 L14.1283333,34.9419318 L14.1283333,44.4659091 L34.1356061,44.4659091 L34.1356061,34.9419318 L32.5987879,34.9419318 L32.5987879,32.7207045 C34.0730303,31.5315 34.9066667,29.8262841 34.9066667,27.9793977 C34.9066667,26.7064318 34.4898485,25.4644886 33.7272727,24.4241932 L34.1663636,24.0053864 C34.6436364,23.5503864 34.9066667,22.9454432 34.9066667,22.2981023 C34.9066667,21.6548977 34.6436364,21.0499545 34.1663636,20.5918523 L33.7336364,20.1844205 C34.4675758,19.5691364 34.9066667,18.6767159 34.9066667,17.72225 C34.9066667,15.9043182 33.3507576,14.4245341 31.4427273,14.4245341 C31.3027273,14.4245341 31.1648485,14.4379773 31.0290909,14.4514205 C31.0439394,14.3231932 31.0587879,14.1908295 31.0587879,14.0584659 C31.0587879,12.2415682 29.5028788,10.7597159 27.5937879,10.7597159 C27.4537879,10.7597159 27.3159091,10.7741932 27.1801515,10.7886705 C27.195,10.6594091 27.2098485,10.5270455 27.2098485,10.3946818 C27.2098485,8.57778409 25.6539394,7.09696591 23.7459091,7.09696591 C23.6059091,7.09696591 23.4669697,7.109375 23.3312121,7.12488636 C23.3471212,6.995625 23.3619697,6.86429545 23.3619697,6.73089773 C23.3619697,4.914 21.8060606,3.43318182 19.8969697,3.43318182 C18.8904545,3.43318182 17.9571212,3.85198864 17.3112121,4.54896591 L16.6981818,3.96573864 L13.8048485,1.20781818 C13.3084848,0.737306818 12.6583333,0.501534091 12.0092424,0.501534091 C11.3601515,0.501534091 10.7121212,0.737306818 10.22,1.20781818 L10.22,1.20781818 Z M1.83166667,12.6086705 C1.44030303,12.2374318 1.44030303,11.636625 1.83166667,11.2674545 L11.305,2.24501136 C11.4036364,2.15504545 11.5160606,2.08369318 11.6327273,2.036125 C11.6889394,2.01647727 11.7493939,2.01957955 11.8066667,2.00510227 C11.9445455,1.98028409 12.080303,1.98028409 12.215,2.00510227 C12.2712121,2.01957955 12.3316667,2.01647727 12.3878788,2.036125 C12.5045455,2.08369318 12.6169697,2.15504545 12.7145455,2.24501136 L14.5228788,3.96573864 L3.63787879,14.3304318 L1.83166667,12.6086705 L1.83166667,12.6086705 Z M18.4015152,5.58202273 C18.7578788,5.15597727 19.3062121,4.89952273 19.9012121,4.89952273 C20.9607576,4.89952273 21.8251515,5.71955682 21.8251515,6.73089773 C21.8251515,7.29240909 21.5504545,7.81565909 21.1039394,8.15484091 L18.4015152,5.58202273 L18.4015152,5.58202273 Z M4.72393939,15.3645227 L15.6131818,5.00293182 L33.0760606,21.6290455 C33.4642424,21.9982159 33.4642424,22.5979886 33.0760606,22.9712955 L32.7387879,23.2887614 L23.5974242,31.9906364 C23.2113636,32.3629091 22.580303,32.3629091 22.1889394,31.9906364 L16.0522727,26.1480227 L16.8180303,26.1480227 C18.7281818,26.1480227 20.2830303,24.6661705 20.2830303,22.8492727 C20.2830303,21.0313409 18.7281818,19.553625 16.8180303,19.553625 L9.12545455,19.553625 L4.72393939,15.3645227 L4.72393939,15.3645227 Z M22.2493939,9.24580682 C22.6057576,8.82079545 23.1551515,8.56227273 23.7459091,8.56227273 C24.8086364,8.56227273 25.6740909,9.38230682 25.6740909,10.3946818 C25.6740909,10.9561932 25.3983333,11.4794432 24.9518182,11.818625 L22.2493939,9.24580682 L22.2493939,9.24580682 Z M26.0972727,12.9095909 C26.454697,12.4835455 27.0030303,12.2270909 27.5937879,12.2270909 C28.6565152,12.2270909 29.5219697,13.047125 29.5219697,14.0584659 C29.5219697,14.6189432 29.2472727,15.1421932 28.799697,15.4824091 L26.0972727,12.9095909 L26.0972727,12.9095909 Z M29.9462121,16.573375 C30.3036364,16.1473295 30.8509091,15.8898409 31.4427273,15.8898409 C32.5054545,15.8898409 33.3709091,16.709875 33.3709091,17.72225 C33.3709091,18.2837614 33.0940909,18.8070114 32.6486364,19.1461932 L29.9462121,16.573375 L29.9462121,16.573375 Z M7.19727273,22.8492727 C7.19727273,21.9765 7.84742424,21.2464318 8.70863636,21.0644318 L9.02893939,21.0282386 C9.05757576,21.0241023 9.09151515,21.0178977 9.12227273,21.0178977 L16.8180303,21.0178977 C17.8818182,21.0178977 18.7430303,21.84 18.7430303,22.8492727 C18.7430303,23.8606136 17.8818182,24.6806477 16.8180303,24.6806477 L9.12227273,24.6806477 C8.06272727,24.6806477 7.19727273,23.8606136 7.19727273,22.8492727 L7.19727273,22.8492727 Z M24.6877273,33.0278295 L32.6178788,25.4789659 C33.1068182,26.2255795 33.3709091,27.0921477 33.3709091,27.9793977 C33.3709091,29.4860682 32.6369697,30.8707159 31.3663636,31.7827841 L31.0587879,32.0040795 L31.0587879,34.9419318 L17.2062121,34.9419318 L17.2062121,32.9492386 L16.9325758,32.7310455 C16.8965152,32.7020909 16.8593939,32.6741705 16.7925758,32.6276364 L9.96015152,26.1480227 L13.8769697,26.1480227 L21.1039394,33.0278295 C21.595,33.4962727 22.2451515,33.7330795 22.8963636,33.7330795 C23.5422727,33.7330795 24.1924242,33.4962727 24.6877273,33.0278295 L24.6877273,33.0278295 Z M27.9798485,40.4918977 C27.9798485,38.8735455 27.2469697,37.4206477 26.0824242,36.4062045 L32.5987879,36.4062045 L32.5987879,42.9995682 L27.9798485,42.9995682 L27.9798485,40.4918977 L27.9798485,40.4918977 Z M15.6640909,36.4062045 L22.1518182,36.4062045 C24.5148485,36.4062045 26.4398485,38.2375795 26.4398485,40.4918977 L26.4398485,42.9995682 L15.6640909,42.9995682 L15.6640909,36.4062045 L15.6640909,36.4062045 Z" id="path-3"></path>
    </defs>
    <g id="SP1-Servicio-Tecnico" stroke="none" stroke-width="1" fill="none" fill-rule="evenodd">
        <g id="1-Servicio-Técnico-propuesta-2" transform="translate(-30.000000, -873.000000)">
            <g id="Page-1" transform="translate(30.000000, 872.000000)">
                <path d="M32.6177727,26.0114193 C33.1067121,26.759067 33.3697424,27.6256352 33.3697424,28.5118511 C33.3697424,30.0185216 32.6368636,31.4031693 31.3673182,32.3152375 L31.0586818,32.537567 L31.0586818,35.4743852 L17.2061061,35.4743852 L17.2061061,33.481692 L16.9314091,33.2634989 C16.8974697,33.2355784 16.8592879,33.2055898 16.7924697,33.1600898 L9.96004545,26.6804761 L13.875803,26.6804761 L21.1038333,33.560283 C21.5948939,34.0297602 22.2450455,34.265533 22.8962576,34.265533 C23.5421667,34.265533 24.1923182,34.0297602 24.6886818,33.560283 L32.6177727,26.0114193 Z M32.5997424,43.5320216 L27.980803,43.5320216 L27.980803,41.0243511 C27.980803,39.407033 27.2468636,37.9541352 26.0823182,36.938658 L32.5997424,36.938658 L32.5997424,43.5320216 Z M15.6650455,43.5320216 L15.6650455,36.938658 L22.1517121,36.938658 C24.5147424,36.938658 26.4397424,38.770033 26.4397424,41.0243511 L26.4397424,43.5320216 L15.6650455,43.5320216 Z M8.7085303,21.5968852 L9.02777273,21.560692 C9.0585303,21.5575898 9.09140909,21.5503511 9.12110606,21.5503511 L16.8179242,21.5503511 C17.8827727,21.5503511 18.7429242,22.3724534 18.7429242,23.3817261 C18.7429242,24.3941011 17.8827727,25.2141352 16.8179242,25.2141352 L9.12110606,25.2141352 C8.06262121,25.2141352 7.19716667,24.3941011 7.19716667,23.3817261 C7.19716667,22.5089534 7.84731818,21.7788852 8.7085303,21.5968852 L8.7085303,21.5968852 Z M15.6130758,5.53538523 L33.0770152,22.1614989 C33.4630758,22.5296352 33.4630758,23.130442 33.0770152,23.5037489 L32.7376212,23.8212148 L23.5983788,32.5230898 C23.2112576,32.8953625 22.580197,32.8953625 22.1888333,32.5230898 L16.0521667,26.6804761 L16.8179242,26.6804761 C18.7280758,26.6804761 20.2839848,25.1986239 20.2839848,23.3817261 C20.2839848,21.5637943 18.7280758,20.0860784 16.8179242,20.0860784 L9.12534848,20.0860784 L4.72489394,15.8969761 L15.6130758,5.53538523 Z M1.8305,13.142158 C1.44019697,12.7698852 1.44019697,12.1690784 1.8305,11.799908 L11.3059545,2.77746477 C11.4035303,2.68749886 11.5159545,2.61614659 11.6326212,2.5696125 C11.6888333,2.54789659 11.7492879,2.55203295 11.8055,2.53755568 C11.9444394,2.5127375 12.080197,2.5127375 12.2148939,2.53755568 C12.2711061,2.55203295 12.3315606,2.54789659 12.3877727,2.5696125 C12.5044394,2.61614659 12.6168636,2.68749886 12.7155,2.77746477 L14.5227727,4.49819205 L3.63883333,14.8628852 L1.8305,13.142158 Z M19.9011061,5.43197614 C20.9595909,5.43197614 21.8250455,6.25097614 21.8250455,7.26335114 C21.8250455,7.8248625 21.5503485,8.3481125 21.1038333,8.68729432 L18.4014091,6.11447614 C18.7577727,5.68946477 19.3061061,5.43197614 19.9011061,5.43197614 L19.9011061,5.43197614 Z M25.6729242,10.9271352 C25.6729242,11.4886466 25.3982273,12.0118966 24.9517121,12.3510784 L22.2492879,9.77826023 C22.6067121,9.35221477 23.1550455,9.09576023 23.745803,9.09576023 C24.8085303,9.09576023 25.6729242,9.91476023 25.6729242,10.9271352 L25.6729242,10.9271352 Z M29.5218636,14.5909193 C29.5218636,15.1524307 29.2461061,15.6756807 28.8006515,16.0148625 L26.0971667,13.4420443 C26.4545909,13.0159989 27.0029242,12.7585102 27.5936818,12.7585102 C28.6564091,12.7585102 29.5218636,13.5785443 29.5218636,14.5909193 L29.5218636,14.5909193 Z M33.3697424,18.2547034 C33.3697424,18.8162148 33.0950455,19.3394648 32.6485303,19.6786466 L29.9461061,17.1058284 C30.3024697,16.679783 30.8518636,16.4222943 31.4426212,16.4222943 C32.5053485,16.4222943 33.3697424,17.2423284 33.3697424,18.2547034 L33.3697424,18.2547034 Z M34.9065606,22.8305557 C34.9065606,22.186317 34.6435303,21.582408 34.1662576,21.1243057 L33.7335303,20.7168739 C34.4664091,20.1005557 34.9065606,19.2102034 34.9065606,18.2547034 C34.9065606,16.4378057 33.3506515,14.9559534 31.4426212,14.9559534 C31.3026212,14.9559534 31.1636818,14.9704307 31.0279242,14.984908 C31.0438333,14.8556466 31.0586818,14.723283 31.0586818,14.5909193 C31.0586818,12.7740216 29.5027727,11.2921693 27.5936818,11.2921693 C27.4547424,11.2921693 27.315803,11.3066466 27.1800455,11.3211239 C27.1948939,11.1918625 27.2097424,11.0594989 27.2097424,10.9271352 C27.2097424,9.1102375 25.6538333,7.62941932 23.745803,7.62941932 C23.605803,7.62941932 23.4668636,7.6428625 23.3321667,7.65733977 C23.3470152,7.52807841 23.3618636,7.39674886 23.3618636,7.26335114 C23.3618636,5.44645341 21.8059545,3.96563523 19.8968636,3.96563523 C18.8892879,3.96563523 17.9570152,4.38340795 17.3111061,5.08038523 L16.6980758,4.49819205 L13.8047424,1.7392375 C12.8120152,0.799248864 11.2041364,0.799248864 10.2188333,1.7392375 L0.741257576,10.7627148 C-0.247227273,11.7037375 -0.247227273,13.2352261 0.741257576,14.1762489 L7.41565152,20.5307375 C6.37519697,21.0994875 5.66140909,22.1583966 5.66140909,23.3817261 C5.66140909,24.5264648 6.27656061,25.5388398 7.21307576,26.1293057 C7.25762121,26.190317 7.31489394,26.2482261 7.38595455,26.3082034 L15.6650455,34.1579875 L15.6650455,35.4743852 L14.1282273,35.4743852 L14.1282273,44.9983625 L34.1355,44.9983625 L34.1355,35.4743852 L32.5997424,35.4743852 L32.5997424,33.253158 C34.0729242,32.0649875 34.9065606,30.3587375 34.9065606,28.5118511 C34.9065606,27.2388852 34.4897424,25.996942 33.7271667,24.9566466 L34.1662576,24.5378398 C34.6435303,24.0828398 34.9065606,23.4778966 34.9065606,22.8305557 L34.9065606,22.8305557 Z" id="Fill-1" fill="#626261"></path>
                <g id="Group-5" transform="translate(0.000000, 0.532453)">
                    <mask id="mask-2" fill="white">
                        <use xlink:href="#path-1"></use>
                    </mask>
                    <g id="Clip-4"></g>
                    <polygon id="Fill-3" fill="#626261" mask="url(#mask-2)" points="0 44.9674432 35 44.9674432 35 0.501534091 0 0.501534091"></polygon>
                </g>
                <g id="Group-8" transform="translate(0.000000, 0.532453)">
                    <mask id="mask-4" fill="white">
                        <use xlink:href="#path-3"></use>
                    </mask>
                    <g id="Clip-7"></g>
                    <polygon id="Fill-6" fill="#4A4A4A" mask="url(#mask-4)" points="-5.3030303 49.6363636 40.209697 49.6363636 40.209697 -4.66892045 -5.3030303 -4.66892045"></polygon>
                </g>
            </g>
        </g>
    </g>
</svg>