<?xml version="1.0" encoding="UTF-8" standalone="no"?>
<svg width="48px" height="34px" viewBox="0 0 48 34" version="1.1" xmlns="http://www.w3.org/2000/svg" xmlns:xlink="http://www.w3.org/1999/xlink">
    <!-- Generator: Sketch 39.1 (31720) - http://www.bohemiancoding.com/sketch -->
    <title>Group 7</title>
    <desc>Created with Sketch.</desc>
    <defs></defs>
    <g id="Comprar-bolsa" stroke="none" stroke-width="1" fill="none" fill-rule="evenodd">
        <g id="Comprar-bolsa-de-datos" transform="translate(-254.000000, -589.000000)" fill="#720184">
            <g id="Group-7" transform="translate(254.000000, 589.000000)">
                <path d="M45.8333333,25.5 L24.1666667,25.5 L24.1666667,8.5 C24.1666667,7.327 25.1373333,6.375 26.3333333,6.375 L28.5,6.375 L28.5,12.75 L30.6666667,12.75 L30.6666667,6.375 L39.3333333,6.375 L39.3333333,12.75 L41.5,12.75 L41.5,6.375 L43.6666667,6.375 C44.8626667,6.375 45.8333333,7.327 45.8333333,8.5 L45.8333333,25.5 L45.8333333,25.5 Z M45.8333333,29.75 C45.8333333,30.923 44.8626667,31.875 43.6666667,31.875 L26.3333333,31.875 C25.1373333,31.875 24.1666667,30.923 24.1666667,29.75 L24.1666667,27.625 L45.8333333,27.625 L45.8333333,29.75 L45.8333333,29.75 Z M35,2.125 C37.3930833,2.125 39.3333333,2.7826875 39.3333333,4.25 L30.6666667,4.25 C30.6666667,2.7826875 32.6069167,2.125 35,2.125 L35,2.125 Z M43.6666667,4.25 L41.5,4.25 C41.5,1.9029375 38.5890833,0 35,0 C31.4109167,0 28.5,1.9029375 28.5,4.25 L26.3333333,4.25 C23.94025,4.25 22,6.1529375 22,8.5 L22,29.75 C22,32.0970625 23.94025,34 26.3333333,34 L43.6666667,34 C46.05975,34 48,32.0970625 48,29.75 L48,8.5 C48,6.1529375 46.05975,4.25 43.6666667,4.25 L43.6666667,4.25 Z" id="Fill-93-Copy"></path>
                <path d="M15.5833333,28.5 L1.41666667,28.5 L1.41666667,17.5 C1.41666667,16.741 2.05133333,16.125 2.83333333,16.125 L4.25,16.125 L4.25,20.25 L5.66666667,20.25 L5.66666667,16.125 L11.3333333,16.125 L11.3333333,20.25 L12.75,20.25 L12.75,16.125 L14.1666667,16.125 C14.9486667,16.125 15.5833333,16.741 15.5833333,17.5 L15.5833333,28.5 L15.5833333,28.5 Z M15.5833333,31.25 C15.5833333,32.009 14.9486667,32.625 14.1666667,32.625 L2.83333333,32.625 C2.05133333,32.625 1.41666667,32.009 1.41666667,31.25 L1.41666667,29.875 L15.5833333,29.875 L15.5833333,31.25 L15.5833333,31.25 Z M8.5,13.375 C10.0647083,13.375 11.3333333,13.8005625 11.3333333,14.75 L5.66666667,14.75 C5.66666667,13.8005625 6.93529167,13.375 8.5,13.375 L8.5,13.375 Z M14.1666667,14.75 L12.75,14.75 C12.75,13.2313125 10.8467083,12 8.5,12 C6.15329167,12 4.25,13.2313125 4.25,14.75 L2.83333333,14.75 C1.268625,14.75 0,15.9813125 0,17.5 L0,31.25 C0,32.7686875 1.268625,34 2.83333333,34 L14.1666667,34 C15.731375,34 17,32.7686875 17,31.25 L17,17.5 C17,15.9813125 15.731375,14.75 14.1666667,14.75 L14.1666667,14.75 Z" id="Fill-93-Copy-4"></path>
            </g>
        </g>
    </g>
</svg>