<?xml version="1.0" encoding="UTF-8" standalone="no"?>
<svg width="120px" height="56px" viewBox="0 0 120 56" version="1.1" xmlns="http://www.w3.org/2000/svg" xmlns:xlink="http://www.w3.org/1999/xlink">
    <!-- Generator: Sketch 39.1 (31720) - http://www.bohemiancoding.com/sketch -->
    <title>Group 5</title>
    <desc>Created with Sketch.</desc>
    <defs></defs>
    <g id="SP2-Pago-fácil" stroke="none" stroke-width="1" fill="none" fill-rule="evenodd" opacity="0.4">
        <g id="7-PagoFacil-Correcciones" transform="translate(-235.000000, -250.000000)">
            <g id="Group-5" transform="translate(294.450191, 278.000000) rotate(-4.000000) translate(-294.450191, -278.000000) translate(235.950191, 248.000000)">
                <g id="Group-26" transform="translate(58.920099, 29.921693) rotate(14.000000) translate(-58.920099, -29.921693) translate(3.420099, 12.921693)">
                    <polygon id="Stroke-1" stroke="#6C017F" stroke-width="3" points="0.261203585 33.3213187 110.99115 33.3213187 110.99115 0.252421023 0.261203585 0.252421023"></polygon>
                    <path d="M21.2139104,9.65931818 L15.926105,9.65931818 L15.926105,24.3068182 L18.2518617,24.3068182 L18.2518617,11.7232841 L21.1919693,11.7232841 C22.8375519,11.7232841 23.737137,12.7441705 23.737137,14.1645341 C23.737137,15.5627045 22.8375519,16.5835909 21.1919693,16.5835909 L19.2611524,16.5835909 L19.2611524,18.6475568 L21.2139104,18.6475568 C24.1540179,18.6475568 26.128717,16.7833295 26.128717,14.1423409 C26.128717,11.4791591 24.1540179,9.65931818 21.2139104,9.65931818 L21.2139104,9.65931818 Z M36.1696299,24.3068182 L38.6709155,24.3068182 L32.286055,9.41519318 L31.4961754,9.41519318 L30.6624135,11.3016136 L36.1696299,24.3068182 Z M25.1113149,24.3068182 L27.5906594,24.3068182 L28.6218911,21.8655682 L34.0632842,21.8655682 L33.1856402,19.8459886 L29.4775941,19.8459886 L31.3206466,15.4739318 L30.113886,12.6110114 L25.1113149,24.3068182 Z M51.1472906,13.8760227 L52.8367554,12.4778523 C51.4764071,10.5470455 49.3700614,9.41519318 46.8248937,9.41519318 C45.2231933,9.41519318 43.7531395,9.90344318 42.6341433,10.7467841 L42.6341433,13.3655795 C43.5556696,12.3890795 45.0476645,11.5679318 46.8248937,11.5679318 C48.7118284,11.5679318 50.1379999,12.4334659 51.1472906,13.8760227 L51.1472906,13.8760227 Z M46.9126581,24.5509432 C49.721119,24.5509432 52.3101689,23.1527727 53.6046939,20.866875 L53.6046939,19.64625 L51.2789372,19.64625 L51.2789372,20.4230114 C50.379352,21.59925 48.7995928,22.4425909 46.9345992,22.4425909 C43.862845,22.4425909 41.6248527,20.1788864 41.6248527,16.8721023 L41.6248527,11.6123182 C40.17674,12.7885568 39.2113316,14.7415568 39.2113316,16.9830682 C39.2113316,21.2663523 42.56832,24.5509432 46.9126581,24.5509432 L46.9126581,24.5509432 Z M46.8248937,18.6475568 L53.6046939,18.6475568 L53.6046939,16.5613977 L46.8248937,16.5613977 L46.8248937,18.6475568 Z M65.4447771,24.3068182 L67.9460626,24.3068182 L61.5612022,9.41519318 L60.7713226,9.41519318 L59.9375607,11.3016136 L65.4447771,24.3068182 Z M54.3864621,24.3068182 L56.8658065,24.3068182 L57.8970383,21.8655682 L63.3384314,21.8655682 L62.4607873,19.8459886 L58.7527412,19.8459886 L60.5957937,15.4739318 L59.3890332,12.6110114 L54.3864621,24.3068182 Z M72.0628782,9.65931818 L69.7371215,9.65931818 L69.7371215,24.3068182 L72.0628782,24.3068182 L72.0628782,9.65931818 Z M74.2789294,9.65931818 L73.0721689,9.65931818 L73.0721689,11.7676705 L74.2569883,11.7676705 C77.657859,11.7676705 79.7642047,13.8538295 79.7642047,16.9386818 C79.7642047,20.0013409 77.657859,22.1984659 74.2569883,22.1984659 L73.0721689,22.1984659 L73.0721689,24.3068182 L74.2789294,24.3068182 C79.0620895,24.3068182 82.1557847,21.2441591 82.1557847,16.9386818 C82.1557847,12.6332045 79.0620895,9.65931818 74.2789294,9.65931818 L74.2789294,9.65931818 Z M91.1215837,9.41519318 C89.5198833,9.41519318 88.0498295,9.90344318 86.9527745,10.7467841 L86.9527745,13.3655795 C87.8743007,12.3890795 89.3662956,11.5679318 91.1435248,11.5679318 C94.1055734,11.5679318 96.3655069,13.8760227 96.3655069,17.0940341 L96.3655069,22.3538182 C97.7916784,21.1775795 98.7351458,19.2689659 98.7351458,17.0274545 C98.7351458,12.6553977 95.3342751,9.41519318 91.1215837,9.41519318 L91.1215837,9.41519318 Z M85.9434838,11.6123182 C84.4953711,12.7885568 83.5299627,14.6971705 83.5299627,16.9386818 C83.5299627,21.3107386 86.9308334,24.5509432 91.1435248,24.5509432 C92.7671663,24.5509432 94.2152789,24.0626932 95.3342751,23.2193523 L95.3342751,20.6005568 C94.4127489,21.5770568 92.8988129,22.3982045 91.1435248,22.3982045 C88.1814761,22.3982045 85.9434838,20.0901136 85.9434838,16.8721023 L85.9434838,11.6123182 Z" id="PAGADO" fill="#6C017F"></path>
                    <path d="M102.236441,6.06951818 L10.8151867,6.06951818" id="Stroke-3" stroke="#6C017F" stroke-width="2"></path>
                    <path d="M102.236441,28.2627 L10.8151867,28.2627" id="Stroke-4" stroke="#6C017F" stroke-width="2"></path>
                </g>
            </g>
        </g>
    </g>
</svg>