<?xml version="1.0" encoding="UTF-8" standalone="no"?>
<svg width="29px" height="30px" viewBox="0 0 29 30" version="1.1" xmlns="http://www.w3.org/2000/svg" xmlns:xlink="http://www.w3.org/1999/xlink">
    <!-- Generator: Sketch 39.1 (31720) - http://www.bohemiancoding.com/sketch -->
    <title>Page 1</title>
    <desc>Created with Sketch.</desc>
    <defs></defs>
    <g id="Symbols" stroke="none" stroke-width="1" fill="none" fill-rule="evenodd">
        <g id="btn-wom-te-llama" transform="translate(-263.000000, -5.000000)" fill="#FEFEFE">
            <g id="Page-1" transform="translate(263.000000, 5.000000)">
                <path d="M0.923500717,26.4252273 L15.3274032,26.4252273 L15.3274032,3.50772727 L0.923500717,3.50772727 L0.923500717,26.4252273 Z M8.88608321,28.8377273 L7.36505022,28.8377273 C6.88183644,28.8377273 6.49044476,28.4522727 6.49044476,27.9734091 C6.49044476,27.4968182 6.88183644,27.1090909 7.36505022,27.1090909 L8.88608321,27.1090909 C9.3697561,27.1090909 9.76068867,27.4968182 9.76068867,27.9734091 C9.76068867,28.4522727 9.3697561,28.8377273 8.88608321,28.8377273 L8.88608321,28.8377273 Z M2.37842181,0.643181818 C2.6476901,0.643181818 2.86622669,0.858409091 2.86622669,1.125 C2.86622669,1.39159091 2.6476901,1.60659091 2.37842181,1.60659091 C2.11053085,1.60659091 1.89199426,1.39159091 1.89199426,1.125 C1.89199426,0.858409091 2.11053085,0.643181818 2.37842181,0.643181818 L2.37842181,0.643181818 Z M3.75873745,0.823863636 C3.92677188,0.823863636 4.06289813,0.958636364 4.06289813,1.125 C4.06289813,1.29136364 3.92677188,1.42613636 3.75873745,1.42613636 C3.58909613,1.42613636 3.45457676,1.29136364 3.45457676,1.125 C3.45457676,0.958636364 3.59070301,0.823863636 3.75873745,0.823863636 L3.75873745,0.823863636 Z M6.66651363,1.27681818 L9.58507891,1.27681818 C9.6897561,1.27681818 9.7753802,1.36159091 9.7753802,1.46522727 C9.7753802,1.56886364 9.6897561,1.65340909 9.58507891,1.65340909 L6.66651363,1.65340909 C6.56183644,1.65340909 6.47621234,1.56886364 6.47621234,1.46522727 C6.47621234,1.36159091 6.56183644,1.27681818 6.66651363,1.27681818 L6.66651363,1.27681818 Z M14.0710473,0 L2.18031564,0 C0.976068867,0 0,0.966363636 0,2.15886364 L0,27.7759091 C0,28.9681818 0.976068867,29.9345455 2.18031564,29.9345455 L14.0710473,29.9345455 C15.2750646,29.9345455 16.2511334,28.9681818 16.2511334,27.7759091 L16.2511334,2.15886364 C16.2511334,0.966363636 15.2750646,0 14.0710473,0 L14.0710473,0 Z" id="Fill-1"></path>
                <path d="M18.8530961,9.11104545 L20.7763099,7.88013636 C21.9787202,9.72172727 22.5287346,11.859 22.368505,14.0492273 C22.2153917,16.1355909 21.4344448,18.0805909 20.1004993,19.6805909 L18.3274146,18.2444545 C19.357429,17.0021818 19.9632253,15.4980909 20.0812166,13.8851364 C20.2060947,12.1830909 19.7857791,10.5312727 18.8530961,9.11104545" id="Fill-3"></path>
                <path d="M22.5129412,22.4422045 C24.4244476,20.1397045 25.5453659,17.3490227 25.7707891,14.3674318 C26.0008034,11.2301591 25.2099857,8.17606818 23.4874032,5.53084091 L25.4108465,4.29993182 C27.4038451,7.35129545 28.324132,10.8912955 28.0507317,14.5235682 C27.7984505,17.9719773 26.4950359,21.2108409 24.2860258,23.8790227 L22.5129412,22.4422045 Z" id="Fill-4"></path>
            </g>
        </g>
    </g>
</svg>