<?xml version="1.0" encoding="UTF-8" standalone="no"?>
<svg width="22px" height="22px" viewBox="0 0 22 22" version="1.1" xmlns="http://www.w3.org/2000/svg" xmlns:xlink="http://www.w3.org/1999/xlink">
    <!-- Generator: Sketch 39.1 (31720) - http://www.bohemiancoding.com/sketch -->
    <title>Page 1</title>
    <desc>Created with Sketch.</desc>
    <defs></defs>
    <g id="SP3-HOME-Clientes-WOM-Correcciones" stroke="none" stroke-width="1" fill="none" fill-rule="evenodd">
        <g id="1-Home-No-WOMERS" transform="translate(-245.000000, -2250.000000)" fill="#FEFEFE">
            <g id="Page-1" transform="translate(245.000000, 2250.000000)">
                <g id="Group-7" transform="translate(4.583333, 0.000000)">
                    <path d="M11.0339167,21.26575 L1.79758333,21.26575 C1.31220833,21.26575 0.916666667,20.8702083 0.916666667,20.3852917 L0.916666667,17.5990833 L11.9166667,17.5990833 L11.9166667,20.3852917 C11.9166667,20.8702083 11.521125,21.26575 11.0339167,21.26575 L11.0339167,21.26575 Z M1.79758333,0.73425 L11.0339167,0.73425 C11.521125,0.73425 11.9166667,1.12979167 11.9166667,1.61470833 L11.9166667,2.20045833 L0.916666667,2.20045833 L0.916666667,1.61470833 C0.916666667,1.12979167 1.31220833,0.73425 1.79758333,0.73425 L1.79758333,0.73425 Z M0.916666667,16.867125 L11.9166667,16.867125 L11.9166667,2.93241667 L0.916666667,2.93241667 L0.916666667,16.867125 Z M11.0339167,0 L1.79758333,0 C0.9075,0 0.182416667,0.725083333 0.182416667,1.61470833 L0.182416667,20.3852917 C0.182416667,21.2749167 0.9075,22 1.79758333,22 L11.0339167,22 C11.9258333,22 12.6490833,21.2749167 12.6490833,20.3852917 L12.6490833,1.61470833 C12.6490833,0.725083333 11.9258333,0 11.0339167,0 L11.0339167,0 Z" id="Fill-1"></path>
                    <path d="M6.41666667,20.1666667 C6.01195833,20.1666667 5.68241667,19.837125 5.68241667,19.4324167 C5.68241667,19.03 6.01195833,18.7004583 6.41666667,18.7004583 C6.821375,18.7004583 7.14908333,19.03 7.14908333,19.4324167 C7.14908333,19.837125 6.821375,20.1666667 6.41666667,20.1666667 M6.41666667,17.9662083 C5.60725,17.9662083 4.95045833,18.6252917 4.95045833,19.4324167 C4.95045833,20.2418333 5.60725,20.9009167 6.41666667,20.9009167 C7.22608333,20.9009167 7.882875,20.2418333 7.882875,19.4324167 C7.882875,18.6252917 7.22608333,17.9662083 6.41666667,17.9662083" id="Fill-3"></path>
                    <path d="M4.95045833,1.83333333 L6.41666667,1.83333333 C6.61879167,1.83333333 6.78379167,1.66879167 6.78379167,1.46620833 C6.78379167,1.26408333 6.61879167,1.09908333 6.41666667,1.09908333 L4.95045833,1.09908333 C4.74604167,1.09908333 4.58333333,1.26408333 4.58333333,1.46620833 C4.58333333,1.66879167 4.74604167,1.83333333 4.95045833,1.83333333" id="Fill-5"></path>
                </g>
                <g id="Group-16" transform="translate(0.000000, 0.916667)">
                    <path d="M12.0990833,0.916666667 L12.4662083,0.916666667 C12.6687917,0.916666667 12.8333333,0.752125 12.8333333,0.549541667 C12.8333333,0.347416667 12.6687917,0.182416667 12.4662083,0.182416667 L12.0990833,0.182416667 C11.8969583,0.182416667 11.7324167,0.347416667 11.7324167,0.549541667 C11.7324167,0.752125 11.8969583,0.916666667 12.0990833,0.916666667" id="Fill-8"></path>
                    <path d="M20.7574583,0.759 C20.6144583,0.616 20.381625,0.616 20.2381667,0.759 C20.0951667,0.902458333 20.0951667,1.13345833 20.2381667,1.27645833 C21.608125,2.64595833 21.608125,4.87529167 20.2381667,6.246625 C20.0951667,6.389625 20.0951667,6.620625 20.2381667,6.76408333 C20.3096667,6.83558333 20.405,6.87133333 20.4980417,6.87133333 C20.5929167,6.87133333 20.6859583,6.83558333 20.7574583,6.76408333 C22.4134167,5.1095 22.4134167,2.41541667 20.7574583,0.759" id="Fill-10"></path>
                    <path d="M19.21425,1.593625 C19.0689583,1.45016667 18.8384167,1.45016667 18.6949583,1.593625 C18.5519583,1.736625 18.5519583,1.967625 18.6949583,2.110625 C19.1477917,2.56575 19.3985,3.16891667 19.3985,3.81333333 C19.3985,4.456375 19.1477917,5.05954167 18.6949583,5.512375 C18.5519583,5.65583333 18.5519583,5.88866667 18.6949583,6.03166667 C18.7664583,6.10316667 18.8595,6.139375 18.954375,6.139375 C19.047875,6.139375 19.14275,6.10316667 19.21425,6.03166667 C19.8050417,5.43904167 20.1309167,4.65116667 20.1309167,3.81333333 C20.1309167,2.97366667 19.8050417,2.18441667 19.21425,1.593625" id="Fill-12"></path>
                    <path d="M1.76,1.27645833 C1.903,1.13345833 1.903,0.902458333 1.76,0.759 C1.61654167,0.616 1.38554167,0.616 1.24254167,0.759 C-0.413416667,2.41541667 -0.413416667,5.108125 1.24254167,6.76408333 C1.31404167,6.83558333 1.40708333,6.87133333 1.500125,6.87133333 C1.595,6.87133333 1.6885,6.83558333 1.76,6.76408333 C1.903,6.620625 1.903,6.389625 1.76,6.246625 C0.3905,4.877125 0.3905,2.64779167 1.76,1.27645833" id="Fill-14"></path>
                </g>
                <path d="M3.30504167,2.40808333 C3.16158333,2.264625 2.92920833,2.264625 2.78575,2.40808333 C2.193125,3.00070833 1.86725,3.78858333 1.86725,4.62825 C1.86725,5.46608333 2.193125,6.25533333 2.78575,6.84658333 C2.85725,6.91808333 2.95075,6.95383333 3.045625,6.95383333 C3.13866667,6.95383333 3.23354167,6.91808333 3.30504167,6.84658333 C3.44804167,6.703125 3.44804167,6.472125 3.30504167,6.329125 C2.850375,5.87583333 2.6015,5.27083333 2.6015,4.62825 C2.6015,3.98520833 2.850375,3.38020833 3.30504167,2.927375 C3.44804167,2.78391667 3.44804167,2.55108333 3.30504167,2.40808333" id="Fill-17"></path>
            </g>
        </g>
    </g>
</svg>