<?xml version="1.0" encoding="UTF-8" standalone="no"?>
<svg width="194px" height="132px" viewBox="0 0 194 132" version="1.1" xmlns="http://www.w3.org/2000/svg" xmlns:xlink="http://www.w3.org/1999/xlink">
    <!-- Generator: Sketch 39.1 (31720) - http://www.bohemiancoding.com/sketch -->
    <title>Page 1</title>
    <desc>Created with Sketch.</desc>
    <defs></defs>
    <g id="Comprar-bolsa" stroke="none" stroke-width="1" fill="none" fill-rule="evenodd">
        <g id="Error" transform="translate(-91.000000, -137.000000)" fill="#720184">
            <g id="Page-1" transform="translate(91.000000, 137.000000)">
                <path d="M127.964876,75.1846071 C126.530674,73.8203189 125.530802,72.8692917 124.531409,71.9182645 C123.875842,72.6427882 122.529272,73.684321 122.689692,74.0338929 C123.254754,75.2650566 124.280963,76.3204765 125.304777,77.2528279 C125.415395,77.3533897 126.651827,76.2179992 127.964876,75.1846071 M62.3004225,74.3001422 C62.2889297,72.6001692 60.9701337,71.2943025 59.272076,71.3014855 C57.3499093,71.3096262 55.529262,73.0594013 55.6097115,74.9470898 C55.689682,76.8204122 56.758989,77.8633816 58.6337481,77.9251553 C60.5654922,77.9888444 62.3133518,76.2089008 62.3004225,74.3001422 M110.704642,73.4496768 C111.791667,84.4999808 123.595706,92.4218554 134.288776,89.4993383 C140.825771,87.7126905 145.97645,81.5865621 146.529061,75.042384 C146.663623,73.4506346 146.422274,72.3909049 144.513037,72.3822853 C143.514123,72.3779755 142.516646,72.1576973 141.835699,72.0738958 C140.873179,74.8182749 140.301413,77.4266561 139.087968,79.6916907 C136.939776,83.7017118 132.905333,85.1335201 128.915903,83.640417 C125.309566,82.2904947 123.199684,79.434061 121.674497,76.0724241 C121.159237,74.9365547 120.774229,73.741306 120.327448,72.5680852 C117.064936,72.8668973 113.98152,73.1494281 110.704642,73.4496768 M84.1793156,73.4717047 C81.3123469,73.1800755 78.6302204,72.8237994 75.9370799,72.6978577 C75.3389767,72.6700835 74.4655257,73.3165522 74.1269677,73.8921487 C73.006422,75.7999495 72.2981797,77.9802249 71.0172141,79.7568165 C68.7378135,82.9192453 65.6060321,84.7576105 61.5395049,84.003876 C57.6262148,83.2783945 55.7093155,80.3673702 54.5365735,76.8970307 C54.0136522,75.3502946 53.7909797,73.7025179 53.4366191,72.1189092 C47.7534414,72.5834089 47.5499235,72.1131628 49.0051963,77.9735207 C50.9062929,85.6286672 58.8750964,90.8353735 66.8831668,90.0581745 C75.7484068,89.1981318 83.6176062,81.7345316 84.1793156,73.4717047 M155.412498,73.5550273 C155.286556,72.8132644 154.999716,71.4968627 154.850789,70.1651373 C154.547667,67.4581097 153.732159,65.2174973 151.319154,63.4605392 C149.883994,62.4156543 149.010543,60.4800793 148.139008,58.8117113 C146.997392,56.627605 146.220672,54.253868 145.087676,52.0644942 C141.515338,45.1606879 136.089311,40.5832111 128.320195,39.0431791 C126.975061,38.7764509 125.647645,38.4168228 123.821731,37.9839283 C129.112238,35.1442549 132.177936,30.9479551 135.345154,26.6759946 C139.989672,20.4124317 145.034043,14.4237378 150.212975,8.58923855 C152.010158,6.56459453 154.71527,5.34588143 156.919488,3.8192577 C155.94356,3.04636852 154.324036,3.16321174 152.861581,4.14919614 C151.351238,5.1677434 149.797798,6.26865555 148.649,7.65353505 C143.360407,14.0277159 138.042125,20.3904039 133.065274,27.0064119 C130.087209,30.9651943 127.004272,34.6333052 122.408119,36.6823714 C121.464275,37.1032943 120.240294,37.318305 119.240423,37.1281953 C104.722174,34.3627461 90.223558,34.3584363 75.70483,37.1277165 C74.7044797,37.318305 73.4795413,37.111435 72.5366548,36.690991 C67.9409811,34.6419248 64.8427203,30.9829123 61.8718377,27.0198201 C57.0008162,20.5230497 51.8147011,14.2580502 46.6328958,8.00214925 C45.3835353,6.49372241 43.7118152,5.28410776 42.0831931,4.15542139 C40.6226529,3.14357825 38.9791859,3.0564247 37.2069041,4.42598049 C40.6681451,4.55862628 42.9657425,6.47887758 44.8989232,8.68022302 C49.4740057,13.8893237 54.1261856,19.0692135 58.2305432,24.6417732 C61.8651336,29.5764839 65.004098,34.8406541 71.142198,37.967168 C69.3488461,38.3981471 68.130133,38.7462824 66.889871,38.9804477 C58.7199439,40.5219163 53.1631868,45.3967687 49.5190191,52.6530201 C48.4832327,54.7140579 47.8003703,56.9561069 46.7224437,58.9917648 C45.8427674,60.6534286 44.9410634,62.6210876 43.4781288,63.5931849 C39.8526369,66.0028369 40.5623158,69.7193133 39.4872624,73.1915682 C40.0015641,73.0407256 40.1222383,73.0412044 40.1476181,72.9923601 C40.3305448,72.6389573 40.5005421,72.2788503 40.6628776,71.9158701 C44.1178933,64.2027809 49.2240379,58.8629499 58.491525,59.4572222 C59.1217122,59.4974469 59.7619556,59.3466043 60.3993258,59.3245764 C64.4974581,59.1813956 67.716872,57.3224391 70.3142393,54.2543468 C71.8604965,52.4274743 73.4239929,50.6135312 74.9194904,48.7449974 C76.6697443,46.5584968 78.8356537,45.1367446 81.5441179,44.2987297 C91.6912813,41.1588076 101.797262,41.471028 112.003326,44.0559448 C115.601044,44.9677051 118.562349,46.564722 120.586514,49.6275468 C125.163512,56.5543386 131.249895,60.3033778 139.83404,59.7282602 C143.510292,59.4821232 146.726354,61.1533644 148.954995,64.1659083 C151.292338,67.324985 153.419459,70.6392143 155.412498,73.5550273 M0,98.8726548 C2.86888417,98.2716784 5.71765599,97.5145917 8.61575097,97.1415554 C9.8842661,96.9782622 11.3907775,97.3273553 12.5539422,97.9120502 C17.3828235,100.339899 22.1451425,99.6551213 26.9467285,97.9656832 C27.1722742,97.8861915 27.3901581,97.7717426 27.621929,97.7243349 C31.8187077,96.8709963 33.956364,94.4761891 33.1810805,89.7655876 C31.4231647,89.9403736 29.4832799,90.1970456 27.5352544,90.3086213 C25.7098185,90.413014 23.8671434,90.4848438 22.0464962,90.3589022 C17.6864243,90.0576957 14.5704455,87.8836456 12.7694317,83.8640472 C12.4117191,83.0652993 12.0075564,82.2809173 11.5526341,81.5334081 C9.38145716,77.9629857 7.92331122,77.5990478 4.20348277,79.6533815 C3.70881454,77.7877209 5.5682499,75.9613272 7.68723045,76.6489783 C9.25647322,77.1584914 10.7696887,78.2761638 11.9290225,79.4857785 C12.9959352,80.5991411 13.6074466,82.1712571 14.3310126,83.5863051 C15.9989017,86.8497746 18.6221278,88.812645 22.2792249,88.8442501 C25.6925793,88.8739398 29.1145533,88.5133539 32.5207248,88.1968237 C33.0493924,88.1475006 33.8917171,87.4636804 33.9520542,86.9915189 C34.993587,78.8656475 36.4996195,70.7397761 36.6873349,62.5861305 C36.7998683,57.7026584 34.6875919,52.7942854 33.803127,47.8562227 C31.7736943,36.5291344 30.4520251,25.1235121 31.0826912,13.5890749 C31.2249143,10.9869189 31.6463161,8.32921449 32.4192052,5.84629604 C34.0339402,0.659223204 38.3355905,-1.21505699 43.4120453,0.787080335 C44.2979468,1.13665227 45.1575107,1.57625094 45.9802019,2.0579898 C58.4230472,9.35207154 70.0240467,17.7398825 79.9274674,28.314194 C82.1144469,30.6496218 84.6184355,31.8922782 87.9465518,31.8056035 C94.3250424,31.6394371 100.713589,31.6490144 107.09208,31.8032092 C110.327775,31.8817432 112.787708,30.6812269 114.910041,28.4080516 C124.631971,17.9951179 136.000242,9.68009452 148.219457,2.48944776 C156.638394,-2.4644175 162.443683,-0.00113254212 163.311866,9.66716515 C164.041178,17.7863324 163.751944,26.0941728 162.959421,34.2253117 C162.166419,42.3641125 159.981355,50.3578169 158.820106,58.474111 C158.230144,62.5957078 158.199975,66.8762879 158.546674,71.032363 C158.976695,76.1849575 160.008172,81.2920598 160.918974,86.3943734 C161.043001,87.0901652 161.914057,88.1096702 162.534667,88.1843732 C165.77132,88.5722544 169.039099,88.880165 172.295386,88.8782496 C176.247943,88.8753764 178.910436,86.7731561 180.80866,83.2932394 C181.996725,81.1163161 183.533405,78.9676458 185.394277,77.3644036 C187.315007,75.7099228 189.868319,76.4267846 190.968273,78.3728947 C191.150721,78.6956501 191.041061,79.1836143 191.065004,79.5781996 C190.71208,79.6414098 190.498506,79.7496335 190.412789,79.6854655 C187.519962,77.5257813 185.987592,77.7470173 183.871005,80.8045745 C183.105778,81.9102753 182.537843,83.1586781 181.930642,84.3682928 C180.183261,87.8506039 177.402009,90.01364 173.521761,90.2439744 C170.44026,90.42738 167.327634,90.1046245 164.229852,89.9791617 C163.38609,89.9451623 162.54616,89.8129953 161.435192,89.6975887 C161.725863,91.6269385 161.916452,93.2694477 162.253573,94.8817883 C162.345994,95.3252179 162.800438,95.8936315 163.215614,96.0372912 C166.521703,97.1798647 169.797144,98.5585189 173.206667,99.2006777 C175.452547,99.6235161 178.164363,99.5368414 180.212951,98.6404049 C184.719555,96.6679573 189.01498,96.7991665 193.461727,98.3937891 L193.461727,99.8303861 C190.059865,99.0297227 186.550738,97.6343082 183.17665,99.2552684 C177.22004,102.116012 171.540215,101.015579 165.811545,98.782628 C164.814068,98.3937891 163.820421,97.9968095 162.875619,97.6237731 C161.896818,101.345038 163.767267,103.491793 166.32872,105.413481 C168.735977,107.219762 170.804677,109.585837 173.407791,110.990829 C175.866287,112.317287 178.827113,112.713309 181.567183,113.518761 C181.531268,113.728983 181.494874,113.938726 181.458959,114.148948 C180.874264,114.200666 180.285738,114.326129 179.706311,114.293087 C174.407183,113.989007 170.107928,111.627721 166.493928,107.846597 C165.556309,106.865402 164.538241,105.960345 163.557045,105.020332 C163.328626,105.117542 163.099729,105.214273 162.870831,105.311482 L162.870831,131.719008 L159.264972,131.719008 C160.029721,121.255793 160.373546,110.977421 159.381337,101.233941 C157.111035,103.831309 155.058138,106.921908 152.309449,109.156774 C147.750169,112.864152 142.331325,115.101412 136.548064,116.332576 C132.516494,117.190703 128.474389,117.466051 124.477776,116.220521 C121.758777,115.373408 121.421656,113.723716 123.339034,111.618622 C124.676985,110.149941 126.035526,108.670246 127.150805,107.035878 C128.813905,104.598451 128.814384,102.023591 126.803148,99.7647815 C124.899178,97.6261674 122.894647,95.5569889 120.768962,93.6405686 C117.926894,91.0772007 114.879872,88.7427306 112.004763,86.2152776 C108.423805,83.0672148 106.054857,79.1749947 105.189068,74.4313514 C105.104308,73.9668517 105.074619,73.2389759 104.793046,73.1029781 C101.560703,71.5447492 102.79857,69.0024514 103.355012,66.6718123 C104.705413,61.0144934 104.552176,55.6397052 101.089499,50.6293338 C98.5280463,46.9229136 97.0224927,46.8788579 94.2675785,50.3726618 C90.1277849,55.6234237 90.1981781,61.3746003 91.7621534,67.4202793 C92.3008772,69.5033449 93.0388092,71.7113945 90.262825,72.9693746 C90.0104628,73.0843023 89.8931407,73.6460118 89.8347191,74.019527 C88.887044,80.0747833 85.3242834,84.4338974 80.7678767,88.1915562 C77.5068015,90.8808658 74.1873048,93.5208521 71.1283109,96.4294822 C65.1223778,102.140913 65.1922922,105.123288 70.9085116,111.051166 C71.7604136,111.934673 72.874734,113.632252 72.5457533,114.335706 C72.062099,115.370056 70.4737016,116.196099 69.2085385,116.503531 C64.0760563,117.751455 59.0077422,116.923017 54.164016,115.142594 C46.5878824,112.357033 39.3383352,109.017424 36.0087822,100.790033 C35.9848389,100.730175 35.7348711,100.761301 35.250259,100.722513 L35.250259,131.757796 L31.9178329,131.757796 L31.9178329,104.848419 C28.7611505,107.448181 26.2399227,109.867889 23.3810948,111.783352 C20.439423,113.754363 17.0562371,114.628293 13.4297875,113.730898 C13.9330753,113.159133 14.52208,112.907728 15.128324,112.857448 C19.7987007,112.469087 23.6779915,110.470781 26.9299682,107.158946 C27.8800376,106.191159 28.6835742,104.971967 29.8136972,104.311132 C32.5614283,102.703101 32.2425038,100.261365 32.174026,97.5710979 C30.256169,98.3095087 28.5820547,99.0421732 26.8523919,99.6029249 C22.6158674,100.97679 18.2304157,102.004915 13.9943701,100.061199 C9.0907857,97.8114885 4.55688563,98.493872 0,100.788117 L0,98.8726548" id="Fill-1"></path>
                <path d="M105.69259,80.6978935 C104.252162,78.0377947 103.323162,77.4090441 100.13248,77.6001115 C96.2996396,77.8299671 92.1464378,77.4813528 89.2574412,82.061224 C90.6528558,81.5421337 91.4271815,81.2366174 92.2139578,80.9655794 C93.5614858,80.5006008 94.7002283,80.0073692 96.0017852,81.5608094 C96.49789,82.1526874 99.1282991,81.9386344 99.7704579,81.2040545 C100.833061,79.9877357 101.77068,79.8752023 103.061223,80.1227758 C103.871463,80.2784072 104.673563,80.4737844 105.69259,80.6978935 M93.8344392,82.0181261 C92.7191611,82.4251619 91.5536021,83.0050682 90.3224385,83.237797 C89.6659136,83.362302 88.6856756,83.0831233 88.2479924,82.6152716 C87.9343354,82.2805445 88.1680218,81.2955178 88.3643568,80.6648518 C88.520467,80.1620428 88.9567136,79.7277117 89.3235247,79.3115774 C91.8921601,76.3957644 101.291335,74.9194216 104.630466,76.917728 C105.10119,77.1997798 105.676787,77.5479152 105.869291,78.0061896 C106.356297,79.1645656 106.653194,80.4033911 107.02623,81.6101326 C105.913826,81.6987227 104.801421,81.8538752 103.689495,81.8505231 C103.076068,81.8486077 102.463598,81.579964 102.320418,81.5454857 C101.110324,82.3514166 100.211014,82.8978023 99.378267,83.5322993 C99.0593424,83.7750842 98.8931761,84.2189927 98.6570953,84.5714378 C99.0373146,84.7692093 99.4002948,85.0943591 99.7996687,85.1465555 C108.551896,86.2943965 114.695743,91.8966458 116.441208,100.358202 C116.489574,100.592367 116.636585,100.849518 116.581995,101.054952 C116.285577,102.173582 116.017891,104.197268 115.597926,104.232704 C113.695392,104.394082 114.07226,102.690757 114.016232,101.4821 C113.489959,90.1281949 102.997534,83.836379 92.8786234,88.8850597 C85.8239744,92.4047223 81.822573,97.8159043 82.5279421,106.090224 C82.585406,106.763988 81.6990256,107.517723 81.2512862,108.234584 C80.8145608,107.581891 79.9966582,106.926802 80.0000103,106.276024 C80.0411927,99.0082798 82.8755986,93.0952466 89.0256702,89.0574513 C91.0024277,87.7597254 93.2990674,86.9542734 95.4295407,85.8835297 C96.0156723,85.5885485 96.5294951,85.1489498 97.0763597,84.7754346 C96.6008461,84.3894689 96.1181495,84.0121227 95.6522133,83.6151431 C95.0636874,83.1132919 94.4890486,82.5946804 93.8344392,82.0181261" id="Fill-4"></path>
            </g>
        </g>
    </g>
</svg>