<?xml version="1.0" encoding="UTF-8" standalone="no"?>
<svg width="45px" height="45px" viewBox="0 0 45 45" version="1.1" xmlns="http://www.w3.org/2000/svg" xmlns:xlink="http://www.w3.org/1999/xlink">
    <!-- Generator: Sketch 39.1 (31720) - http://www.bohemiancoding.com/sketch -->
    <title>Page 1</title>
    <desc>Created with Sketch.</desc>
    <defs>
        <polygon id="path-1" points="45 22.4999837 45 0 0 0 0 22.4999837 0 44.9999674 45 44.9999674"></polygon>
    </defs>
    <g id="SP2-Estado-Portabilidad" stroke="none" stroke-width="1" fill="none" fill-rule="evenodd">
        <g id="8-Estado-Portabilidad-Correciones-" transform="translate(-165.000000, -270.000000)">
            <g id="Page-1" transform="translate(165.000000, 270.000000)">
                <g id="Group-2">
                    <g id="Group-3">
                        <mask id="mask-2" fill="white">
                            <use xlink:href="#path-1"></use>
                        </mask>
                        <g id="Clip-2"></g>
                        <path d="M22.5,43.2692609 C11.0483152,43.2692609 1.73070652,33.9516522 1.73070652,22.4999674 C1.73070652,11.0484457 11.0483152,1.73067391 22.5,1.73067391 C33.9516848,1.73067391 43.2692935,11.0484457 43.2692935,22.4999674 C43.2692935,33.9516522 33.9516848,43.2692609 22.5,43.2692609 M22.5,-3.26086956e-05 C10.0938587,-3.26086956e-05 0,10.0930109 0,22.4999674 C0,34.9069239 10.0938587,44.9999674 22.5,44.9999674 C34.9061413,44.9999674 45,34.9069239 45,22.4999674 C45,10.0930109 34.9061413,-3.26086956e-05 22.5,-3.26086956e-05" id="Fill-1" fill="#8743A2" mask="url(#mask-2)"></path>
                    </g>
                    <path d="M29.6766848,14.0996739 L22.5,21.2763587 L15.3233152,14.099837 C14.985,13.7613587 14.4379891,13.7613587 14.099837,14.099837 C13.7613587,14.4381522 13.7613587,14.985163 14.099837,15.3233152 L21.2763587,22.5 L14.099837,29.6766848 C13.7613587,30.015 13.7613587,30.5620109 14.099837,30.900163 C14.268587,31.068913 14.490163,31.1538587 14.7115761,31.1538587 C14.9331522,31.1538587 15.1545652,31.068913 15.3233152,30.900163 L22.5,23.7236413 L29.6766848,30.900163 C29.8454348,31.068913 30.0670109,31.1538587 30.2884239,31.1538587 C30.51,31.1538587 30.731413,31.068913 30.900163,30.900163 C31.2386413,30.5618478 31.2386413,30.014837 30.900163,29.6766848 L23.7236413,22.5 L30.900163,15.3233152 C31.2386413,14.985 31.2386413,14.4379891 30.9003261,14.0996739" id="Fill-4" fill="#8743A2"></path>
                </g>
            </g>
        </g>
    </g>
</svg>