<?xml version="1.0" encoding="UTF-8" standalone="no"?>
<svg width="25px" height="19px" viewBox="0 0 25 19" version="1.1" xmlns="http://www.w3.org/2000/svg" xmlns:xlink="http://www.w3.org/1999/xlink">
    <!-- Generator: Sketch 39.1 (31720) - http://www.bohemiancoding.com/sketch -->
    <title>Group 7</title>
    <desc>Created with Sketch.</desc>
    <defs></defs>
    <g id="SP1-Portabilidad-prepago-" stroke="none" stroke-width="1" fill="none" fill-rule="evenodd">
        <g id="10-PortabilidadPrepago-Correciones" transform="translate(-310.000000, -1767.000000)" fill="#720184">
            <g id="Group-7" transform="translate(310.000000, 1767.000000)">
                <g id="Page-1-Copy-5">
                    <path d="M12.4685146,7.93601657 C10.9611925,7.93601657 9.73493724,9.16660773 9.73493724,10.6792597 C9.73493724,12.1919116 10.9611925,13.4225028 12.4685146,13.4225028 C13.9758368,13.4225028 15.2020921,12.1919116 15.2020921,10.6792597 C15.2020921,9.16660773 13.9758368,7.93601657 12.4685146,7.93601657" id="Fill-1"></path>
                    <path d="M12.4685146,16.7816188 C9.11558577,16.7816188 6.3876569,14.0441492 6.3876569,10.6792597 C6.3876569,7.31437017 9.11558577,4.57690055 12.4685146,4.57690055 C15.8215481,4.57690055 18.5493724,7.31437017 18.5493724,10.6792597 C18.5493724,14.0441492 15.8215481,16.7816188 12.4685146,16.7816188 M3.84330544,7.93601657 C2.91903766,7.93601657 2.16966527,7.18399448 2.16966527,6.25645856 C2.16966527,5.32892265 2.91903766,4.57690055 3.84330544,4.57690055 C4.76757322,4.57690055 5.51694561,5.32892265 5.51694561,6.25645856 C5.51694561,7.18399448 4.76757322,7.93601657 3.84330544,7.93601657 M22.866318,2.36555249 L22.0919456,2.36555249 L22.0919456,2.07845304 C22.0919456,0.930370166 21.1648536,0 20.0207113,0 L14.539749,0 C13.3960251,0 12.4685146,0.930370166 12.4685146,2.07845304 L12.4685146,2.36555249 L2.07123431,2.36555249 C0.92709205,2.36555249 0,3.29592265 0,4.4441105 L0,16.9144088 C0,18.0625967 0.92709205,18.9929669 2.07123431,18.9929669 L22.866318,18.9929669 C24.0099372,18.9929669 24.9370293,18.0625967 24.9370293,16.9144088 L24.9370293,4.4441105 C24.9370293,3.29592265 24.0099372,2.36555249 22.866318,2.36555249" id="Fill-3"></path>
                </g>
            </g>
        </g>
    </g>
</svg>