<?xml version="1.0" encoding="UTF-8" standalone="no"?>
<svg width="433px" height="159px" viewBox="0 0 433 159" version="1.1" xmlns="http://www.w3.org/2000/svg" xmlns:xlink="http://www.w3.org/1999/xlink">
    <!-- Generator: Sketch 39.1 (31720) - http://www.bohemiancoding.com/sketch -->
    <title>Group 36</title>
    <desc>Created with Sketch.</desc>
    <defs>
        <polygon id="path-1" points="0.131912227 25.3409065 8.67113681 25.3409065 8.67113681 0.19395179 0.131912227 0.19395179"></polygon>
        <polygon id="path-3" points="0 0.0551649048 0 17.9923168 13.3599698 17.9923168 13.3599698 0.0551649048 0 0.0551649048"></polygon>
        <polygon id="path-5" points="13.8888753 0.0825059833 0.0583709769 0.0825059833 0.0583709769 18.4312003 13.8888753 18.4312003 13.8888753 0.0825059833"></polygon>
        <polygon id="path-7" points="0.000238743873 17.7710504 14.9121811 17.7710504 14.9121811 0.463365807 0.000238743873 0.463365807"></polygon>
        <polygon id="path-9" points="15.7759804 17.0014531 15.7759804 0.0610686584 0.169771925 0.0610686584 0.169771925 17.0014531"></polygon>
        <polygon id="path-11" points="24.9313722 23.3043616 0 23.3043616 0 0.212013536 24.9313722 0.212013536"></polygon>
        <polygon id="path-13" points="9.0225268 6.55889485 9.0225268 0.141311017 0.0464357941 0.141311017 0.0464357941 6.55889485 9.0225268 6.55889485"></polygon>
        <polygon id="path-15" points="0.000166701755 23.6700775 14.7582731 23.6700775 14.7582731 0.514340025 0.000166701755 0.514340025 0.000166701755 23.6700775"></polygon>
        <polygon id="path-17" points="27.4515194 0.0926256158 0.000141395538 0.0926256158 0.000141395538 26.0424839 27.4515194 26.0424839 27.4515194 0.0926256158"></polygon>
        <polygon id="path-19" points="4.40984402 4.69219891 4.40984402 0.0617235626 0.0939714742 0.0617235626 0.0939714742 4.69219891 4.40984402 4.69219891"></polygon>
        <polygon id="path-21" points="4.23676303e-21 0.0447737248 4.23676303e-21 12.8633499 14.0581471 12.8633499 14.0581471 0.0447737248 0 0.0447737248"></polygon>
        <polygon id="path-23" points="0.173675765 10.0597829 48.1062103 10.0597829 48.1062103 0.144455157 0.173675765 0.144455157 0.173675765 10.0597829"></polygon>
    </defs>
    <g id="Page-2" stroke="none" stroke-width="1" fill="none" fill-rule="evenodd">
        <g id="1-Pago-Fácil-Desktop" transform="translate(-992.000000, -2076.000000)">
            <g id="Group-36" transform="translate(991.000000, 2075.000000)">
                <polygon id="Clip-11" points="217.199224 11.9441419 217.199224 0.143049796 141.0625 0.143049796 128.913433 0.143049796"></polygon>
                <g id="Group-34" transform="translate(1.045673, 5.130024)">
                    <path d="M0.0991441962,11.0631331 C0.0991441962,6.33517688 3.23127353,2.10042984 9.68273437,2.10042984 C12.0384826,2.10042984 13.8587456,2.59410824 15.3046042,3.5293754 L13.1094532,7.11417512 C12.1453862,6.56887635 11.1818029,6.17937724 9.60243577,6.17937724 C6.97918675,6.17937724 5.50672317,8.1273421 5.50672317,10.9073334 C5.50672317,13.8168449 6.89888815,15.9210787 9.65612941,15.9210787 C11.5832959,15.9210787 12.6005729,15.2457905 13.4306476,14.7000224 L15.4652014,18.1290225 C14.5548281,18.90849 12.2527735,20.025367 9.57583081,20.025367 C3.09728128,20.025367 0.0991441962,15.7910892 0.0991441962,11.0631331 L0.0991441962,11.0631331 Z" id="Fill-1" fill="#707070"></path>
                    <path d="M23.7902803,16.2328188 L23.7902803,14.3622844 L23.4153922,14.3622844 C21.8897187,14.3622844 20.8724418,14.8301527 20.8724418,15.8433196 C20.8724418,16.4665182 21.3542334,16.8302072 22.1843081,16.8302072 C23.0138992,16.8302072 23.4690858,16.4927977 23.7902803,16.2328188 M16.4018411,16.2849084 C16.4018411,13.011708 19.7211726,11.6606622 23.4153922,11.6606622 L23.7902803,11.6606622 L23.7902803,11.2711631 C23.7902803,10.543316 23.4424809,10.1538169 22.0237109,10.1538169 C20.4438601,10.1538169 19.212776,10.9332844 18.7309844,11.2448837 L16.8033341,8.49117182 C17.6866188,7.73798377 19.6679627,6.59482732 22.6390111,6.59482732 C26.8150223,6.59482732 28.5820753,7.97168324 28.5820753,11.7127519 L28.5820753,15.2717414 C28.5820753,17.3238856 28.7963662,18.7528311 29.0101733,19.7139085 L24.2986768,19.7139085 C24.1651683,19.4023092 24.057781,18.8565411 24.0311761,18.467042 C23.4690858,19.1423303 22.3178167,20.0255078 20.5241587,20.0255078 C18.248709,20.0255078 16.4018411,18.7528311 16.4018411,16.2849084" id="Fill-3" fill="#707070"></path>
                    <g id="Group-7" transform="translate(28.155283, 0.503859)">
                        <mask id="mask-2" fill="white">
                            <use xlink:href="#path-1"></use>
                        </mask>
                        <g id="Clip-6"></g>
                        <path d="M3.15665427,2.73977434 C3.15665427,1.36291842 4.28083475,0.19395179 5.91389554,0.19395179 C7.54695633,0.19395179 8.67113681,1.36291842 8.67113681,2.73977434 C8.67113681,4.11663026 7.54695633,5.31140708 5.91389554,5.31140708 C4.28083475,5.31140708 3.15665427,4.11663026 3.15665427,2.73977434 M0.131912227,24.9252687 L0.96150324,21.3920894 C1.14870541,21.444179 1.55068216,21.5741685 2.08568372,21.5741685 C3.18325923,21.5741685 3.47784869,21.1063003 3.47784869,19.1062457 L3.47784869,6.40294316 L8.34994239,6.40294316 L8.34994239,19.4957449 C8.34994239,23.0810139 6.90456749,25.3410473 3.21034792,25.3410473 C1.55068216,25.3410473 0.613703859,25.0810684 0.131912227,24.9252687" id="Fill-5" fill="#707070" mask="url(#mask-2)"></path>
                    </g>
                    <path d="M46.1956228,16.2328188 L46.1956228,14.3622844 L45.8207347,14.3622844 C44.2950612,14.3622844 43.2777843,14.8301527 43.2777843,15.8433196 C43.2777843,16.4665182 43.759576,16.8302072 44.5896507,16.8302072 C45.4192417,16.8302072 45.8744284,16.4927977 46.1956228,16.2328188 M38.8071837,16.2849084 C38.8071837,13.011708 42.1265152,11.6606622 45.8207347,11.6606622 L46.1956228,11.6606622 L46.1956228,11.2711631 C46.1956228,10.543316 45.8473397,10.1538169 44.4285698,10.1538169 C42.8492026,10.1538169 41.6181186,10.9332844 41.1358432,11.2448837 L39.2086767,8.49117182 C40.0919613,7.73798377 42.0728215,6.59482732 45.0443536,6.59482732 C49.2203648,6.59482732 50.9874179,7.97168324 50.9874179,11.7127519 L50.9874179,15.2717414 C50.9874179,17.3238856 51.2017087,18.7528311 51.4155159,19.7139085 L46.7040194,19.7139085 C46.5705109,19.4023092 46.4631236,18.8565411 46.4365186,18.467042 C45.8744284,19.1423303 44.7231592,20.0255078 42.9295012,20.0255078 C40.6540516,20.0255078 38.8071837,18.7528311 38.8071837,16.2849084" id="Fill-8" fill="#707070"></path>
                    <path d="M52.9873853,1.91159316 L58.5589475,1.91159316 L61.6688254,11.3323098 C62.1017607,12.6744393 62.4534299,14.096815 62.4805186,14.2042792 L62.5346959,14.2042792 C62.5613009,14.096815 62.9400588,12.6476906 63.3459054,11.3323098 L66.3208236,1.91159316 L71.513628,1.91159316 L64.8062758,19.786787 L59.9380519,19.786787 L52.9873853,1.91159316 Z" id="Fill-10" fill="#707070"></path>
                    <path d="M79.1943347,11.5738931 C79.167246,10.3659766 78.7613994,9.50720139 77.5985208,9.50720139 C76.4898196,9.50720139 75.894836,10.1515174 75.6786102,11.5738931 L79.1943347,11.5738931 Z M70.6207655,13.1304817 C70.6207655,8.72914171 73.8394819,6.23306242 77.6526982,6.23306242 C81.8175837,6.23306242 83.9000264,8.67517496 83.9000264,13.1844485 C83.9000264,13.6673335 83.8734215,14.1506879 83.8192441,14.6870704 L75.8406586,14.6870704 C76.1110617,16.0024512 77.0035372,16.6735159 78.6264397,16.6735159 C80.4113906,16.6735159 81.2226,16.2708771 81.9259384,15.9757024 L83.3592202,18.8744206 C82.331785,19.4112724 81.0605517,20.1090858 78.1127221,20.1090858 C73.4336353,20.1090858 70.6207655,17.5322911 70.6207655,13.1304817 L70.6207655,13.1304817 Z" id="Fill-12" fill="#707070"></path>
                    <path d="M85.2792275,13.2110564 C85.2792275,8.78249839 88.3354118,6.23292163 92.9061439,6.23292163 C95.0698527,6.23292163 96.367691,6.74255542 96.9897633,7.11844553 L95.6648363,10.3123383 C95.1240301,10.0439124 94.3123369,9.77548651 93.1494583,9.77548651 C91.4728621,9.77548651 90.4178546,10.9299056 90.4178546,13.0500948 C90.4178546,15.2242507 91.3645074,16.5124134 93.2578131,16.5124134 C94.6640061,16.5124134 95.3944332,16.1097746 95.8268847,15.9220642 L97.1522954,19.0352415 C96.4760457,19.4111316 95.3131671,20.1089451 92.7977891,20.1089451 C88.2812344,20.1089451 85.2792275,17.6396145 85.2792275,13.2110564" id="Fill-14" fill="#707070"></path>
                    <path d="M99.0720126,19.7868809 L103.994414,19.7868809 L103.994414,6.55470422 L99.0720126,6.55470422 L99.0720126,19.7868809 Z M98.7474321,2.77046218 C98.7474321,1.34808648 99.883222,0.140169936 101.533213,0.140169936 C103.182721,0.140169936 104.318511,1.34808648 104.318511,2.77046218 C104.318511,4.19283787 103.182721,5.42750315 101.533213,5.42750315 C99.883222,5.42750315 98.7474321,4.19283787 98.7474321,2.77046218 L98.7474321,2.77046218 Z" id="Fill-16" fill="#707070"></path>
                    <path d="M107.022832,6.554845 L111.782701,6.554845 L111.782701,8.05793618 C112.567306,7.19916101 113.81145,6.23292163 115.920982,6.23292163 C118.922989,6.23292163 119.977513,8.11143365 119.977513,10.6342617 L119.977513,19.7865524 L115.109289,19.7865524 L115.109289,11.6544678 C115.109289,10.5807642 114.730531,10.1781254 113.784362,10.1781254 C112.864798,10.1781254 112.161459,10.9299056 111.891056,11.251829 L111.891056,19.7865524 L107.022832,19.7865524 L107.022832,6.554845 Z" id="Fill-18" fill="#707070"></path>
                    <path d="M129.443267,16.1903024 L129.443267,14.2578236 L129.064509,14.2578236 C127.522873,14.2578236 126.495437,14.7411779 126.495437,15.7876635 C126.495437,16.4319795 126.982066,16.8074004 127.820364,16.8074004 C128.658663,16.8074004 129.118686,16.4587283 129.443267,16.1903024 M121.978883,16.2437998 C121.978883,12.8621966 125.332559,11.4665697 129.064509,11.4665697 L129.443267,11.4665697 L129.443267,11.0639308 C129.443267,10.3126199 129.091598,9.90998102 127.658316,9.90998102 C126.062502,9.90998102 124.818358,10.7147894 124.331729,11.0371821 L122.384246,8.19196142 C123.276721,7.41390173 125.278382,6.23273392 128.280388,6.23273392 C132.499451,6.23273392 134.284402,7.65510962 134.284402,11.5200671 L134.284402,15.1973142 C134.284402,17.3175034 134.500628,18.7938459 134.717337,19.786834 L129.956985,19.786834 C129.822025,19.4644413 129.71367,18.9013101 129.686581,18.4986712 C129.118686,19.1964847 127.955808,20.1087573 126.143768,20.1087573 C123.844616,20.1087573 121.978883,18.7938459 121.978883,16.2437998" id="Fill-19" fill="#707070"></path>
                </g>
                <g id="Page-1" transform="translate(164.437864, 6.506699)">
                    <g id="Group-3" transform="translate(0.000000, 0.575808)">
                        <mask id="mask-4" fill="white">
                            <use xlink:href="#path-3"></use>
                        </mask>
                        <g id="Clip-2"></g>
                        <path d="M13.0110876,2.43181997 C12.3343705,2.09455482 10.4643618,1.26795897 8.33286305,1.26795897 C6.88563097,1.26795897 5.56239507,2.06953971 5.25103199,3.77298106 C4.51918004,7.74643411 13.4649777,7.38547043 12.4505883,12.9078855 C11.7713547,16.5991506 8.42917742,17.9923168 4.65804661,17.9923168 C2.55422963,17.9923168 0.550387437,17.450981 -4.57550445e-05,17.3204196 L0.00247077243,14.9832621 C0.763148396,15.4462611 3.13211585,16.7804004 5.31714803,16.7804004 C7.0395967,16.7804004 8.85698709,16.1085033 9.28868594,13.7608131 C10.0566844,9.57846192 1.10562491,9.96597672 2.10628774,4.52058182 C2.62926791,1.68312206 5.22335019,0.0551649048 9.07455233,0.0551649048 C10.9596602,0.0551649048 12.6731866,0.392210624 13.3599698,0.520577646 L13.0110876,2.43181997 Z" id="Fill-1" fill="#707070" mask="url(#mask-4)"></path>
                    </g>
                    <path d="M21.8392719,9.89646104 C21.9481689,9.30509502 22.3396033,6.87797087 19.9617136,6.87797087 C17.9130315,6.87797087 16.964987,8.9160442 16.7847121,9.89646104 L21.8392719,9.89646104 Z M22.8598382,17.8696988 C22.3071173,18.0533624 20.7624269,18.5690248 18.8798356,18.5690248 C14.6996547,18.5690248 12.6258073,16.1675741 13.4187422,11.8592696 C14.1682098,7.78027034 16.5721799,5.99958935 20.2332698,5.99958935 C24.9050887,5.99958935 24.6987335,9.20064595 24.3809647,10.9282247 L16.5945999,10.9282247 C16.1194337,13.5100476 16.5671469,17.1741032 20.418349,17.1741032 C21.5665718,17.1741032 22.5697512,16.9149554 23.0689388,16.7345833 L22.8598382,17.8696988 Z" id="Fill-4" fill="#707070"></path>
                    <path d="M26.401027,9.63979283 C26.7325223,7.83168298 26.3760905,7.39369909 24.6662245,7.34344944 L24.7600223,6.82515387 L29.8019995,5.99965517 L29.1767568,9.40697674 L29.2302902,9.40697674 C29.8308252,8.21919779 31.0865724,5.99965517 33.2718334,5.99965517 C33.7634713,5.99965517 34.2736401,6.05012426 34.7227258,6.12933878 L34.2736401,8.58169748 C33.8595569,8.45179444 33.4006338,8.27208061 32.9366777,8.27208061 C30.176047,8.27208061 29.0102085,10.3090568 28.6775693,12.1171666 L27.543073,18.28405 L24.811268,18.28405 L26.401027,9.63979283 Z" id="Fill-6" fill="#707070"></path>
                    <path d="M50.0528393,2.33573122 C50.212982,1.45756913 51.1097808,0.735202918 52.0665188,0.735202918 C52.9960326,0.735202918 53.688764,1.43343175 53.5224444,2.33573122 C53.3552097,3.2380307 52.4044198,3.96017748 51.4463092,3.96017748 C50.5181681,3.96017748 49.8865197,3.2380307 50.0528393,2.33573122 L50.0528393,2.33573122 Z M49.0082516,9.6386079 C49.3411196,7.83291179 48.9858317,7.39251416 47.3260674,7.34226451 L47.4223818,6.82528553 L52.4105968,5.9995674 L50.1528141,18.28484 L47.4198652,18.28484 L49.0082516,9.6386079 Z" id="Fill-8" fill="#707070"></path>
                    <polygon id="Fill-10" fill="#707070" points="35.1280469 6.28285257 38.1073867 6.28285257 40.2626781 15.3670685 45.6487332 6.28285257 47.20715 6.28285257 40.110085 18.2839623 38.1149363 18.2839623 35.1543561 6.29492127"></polygon>
                    <path d="M56.4458028,4.42565606 C56.914792,1.87016488 56.8347207,1.87016488 54.4307506,1.48396666 L54.5343858,0.916518594 L67.4228957,0.916518594 L66.8038299,4.73768666 L66.049558,4.73768666 C66.4286386,2.67042903 65.39915,2.12931266 63.6243118,2.12931266 L61.5227826,2.12931266 C60.1782706,2.12931266 59.8081123,2.23244514 59.5816248,3.47200977 L58.6374695,8.60559349 L61.8943136,8.60559349 C63.750367,8.60559349 64.1470632,7.47179451 64.4662047,6.61886697 L65.2191039,6.61886697 L64.2221015,12.0379302 L63.4689735,12.0379302 C63.7242866,10.6463 63.285267,9.8208013 61.6703426,9.8208013 L58.4146424,9.8208013 L57.3563282,15.5736188 C57.0923216,17.0203261 57.4327392,17.0705757 58.778395,17.0705757 L61.7643693,17.0705757 C63.2967057,17.0705757 64.1184663,16.5549133 64.6499112,14.5418551 L65.4030392,14.5418551 L64.6336681,18.2840281 L53.8988482,18.2840281 L56.4458028,4.42565606 Z" id="Fill-12" fill="#707070"></path>
                    <path d="M74.9090616,8.37523503 C74.5450802,8.11608725 73.4144731,7.13588984 71.8860258,7.13588984 C71.0102742,7.13588984 69.9158136,7.4455067 69.7119748,8.55385171 C69.2617452,11.0073076 75.2355239,11.0590932 74.5089338,15.0059952 C74.0433762,17.5360324 71.6419226,18.5682349 68.9364268,18.5682349 C67.2702569,18.5682349 66.1259232,18.2583986 65.5253882,18.1050164 L65.8957753,16.089325 C66.5923959,16.6065235 67.7255196,17.4331193 69.2567121,17.4331193 C70.9764155,17.4331193 71.7558527,16.6065235 71.9210284,15.7031268 C72.3875011,13.1741868 66.4336259,13.0181715 67.0865504,9.45724834 C67.4292556,7.60020542 69.060423,5.99967712 72.284781,5.99967712 C73.6782509,5.99967712 74.819153,6.33562568 75.2629769,6.43875816 L74.9090616,8.37523503 Z" id="Fill-14" fill="#707070"></path>
                    <path d="M81.7898654,18.3617505 C81.1682832,18.4646635 80.5229082,18.5682349 79.9198568,18.5682349 C77.2980927,18.5682349 75.8371341,18.1820366 76.3788738,15.2399084 L77.8336555,7.31713968 L75.7046732,7.31713968 L75.8947854,6.28537603 L78.0260554,6.28537603 L78.4001029,4.24554725 L81.5535406,1.94942329 L80.7567165,6.28537603 L84.3363625,6.28537603 L84.1476229,7.31713968 L80.567977,7.31713968 L79.1868609,14.8247453 C78.8553656,16.6341717 78.842783,17.4318027 80.9479726,17.4318027 C81.2771802,17.4318027 81.6375011,17.4065682 81.9788338,17.3286702 L81.7898654,18.3617505 Z" id="Fill-16" fill="#707070"></path>
                    <path d="M90.2055222,12.5551286 C89.2160694,12.5803631 85.9962869,12.7109245 85.5460572,15.1630637 C85.328492,16.3484289 85.8038869,17.1741471 86.8146159,17.1741471 C88.3993418,17.1741471 89.6075038,15.805996 89.9300769,14.0520855 L90.2055222,12.5551286 Z M89.4311181,16.7611783 C88.8395054,17.3036112 87.6789287,18.568191 85.573739,18.568191 C83.4447568,18.568191 82.1800873,17.1238974 82.460337,15.6001699 C83.1281319,11.9622265 88.6166783,11.6767471 90.3743584,11.6264974 L90.6170889,10.3090348 C90.9158693,8.683272 91.2485085,6.87801475 89.524916,6.87801475 C87.7249125,6.87801475 87.339655,8.37519115 87.1296393,9.50899012 L83.8775995,9.50899012 C84.4930049,7.80642649 85.7261033,5.99963323 89.6624099,5.99963323 C93.5426665,5.99963323 93.7954631,7.88344671 93.3262451,10.4376213 L91.8851899,18.2849058 L89.1508685,18.2849058 L89.4311181,16.7611783 Z" id="Fill-18" fill="#707070"></path>
                    <g id="Group-22" transform="translate(93.569067, 0.136947)">
                        <mask id="mask-6" fill="white">
                            <use xlink:href="#path-5"></use>
                        </mask>
                        <g id="Clip-21"></g>
                        <path d="M9.08070638,11.3839605 C9.34471299,9.93944754 9.53848561,7.25800308 6.94303068,7.25800308 C4.42901973,7.25800308 3.63860132,10.224927 3.3055046,12.0293065 C2.94037934,14.0197634 2.60407976,17.0380341 5.17299676,17.0380341 C7.79476084,17.0380341 8.63413714,13.8121818 8.88693377,12.4433725 L9.08070638,11.3839605 Z M8.10269229,16.7012078 C7.30586818,17.3204416 5.98125963,18.4312003 4.01493657,18.4312003 C0.465260176,18.4312003 -0.360389612,15.617878 0.234883524,12.3915868 C0.836562366,9.11394884 2.82782193,5.86264258 6.43537845,5.86264258 C8.67417281,5.86264258 9.32206424,6.94860564 9.68375788,7.79911945 L9.74118046,7.79911945 L10.5116954,3.59043658 C10.8482238,1.75950592 10.4940797,1.3219609 8.89562723,1.24384353 L8.99079772,0.726645117 L13.8888753,0.0823962679 L10.569118,18.1455014 L7.83731303,18.1455014 L8.10269229,16.7012078 Z" id="Fill-20" fill="#707070" mask="url(#mask-6)"></path>
                    </g>
                    <g id="Group-25" transform="translate(105.694154, 5.842148)" fill="#707070">
                        <path d="M5.25739194,11.8477056 C7.93520595,11.8477056 8.67094708,9.03526096 9.14359669,6.45475467 C9.5803286,4.08073277 9.89306433,1.03569146 7.24476232,1.03569146 C4.53812263,1.03569146 3.7701242,4.18145151 3.35238064,6.45475467 C2.95705705,8.59661877 2.55052348,11.8477056 5.25739194,11.8477056 M0.34535908,6.45475467 C1.13829401,2.14535305 3.41620893,0.157529376 7.40513376,0.157529376 C11.3663768,0.157529376 12.8337411,2.73957168 12.1517621,6.45475467 C11.3764429,10.6623404 9.13879241,12.7260871 5.09610541,12.7260871 C0.69561395,12.7260871 -0.317631523,10.0674635 0.34535908,6.45475467" id="Fill-23"></path>
                    </g>
                </g>
                <g id="Group-29" transform="translate(302.275388, 70.885348)">
                    <g id="Group-3" transform="translate(0.006450, 0.589728)">
                        <mask id="mask-8" fill="white">
                            <use xlink:href="#path-7"></use>
                        </mask>
                        <g id="Clip-2"></g>
                        <path d="M0.661559275,13.3651484 C2.02956167,13.9917212 3.94548126,14.4709663 6.14192491,14.4709663 C7.82626294,14.4709663 9.42166888,14.1808969 9.42166888,12.838896 C9.42166888,9.71749698 0.000238743873,11.6849242 0.000238743873,5.58888069 C0.000238743873,1.56459767 4.69036215,0.463365807 8.68036915,0.463365807 C10.5944982,0.463365807 12.4781873,0.701841838 13.8229122,1.08649909 L13.4803147,4.53178983 C12.1099249,4.00381765 10.5688332,3.76304858 9.05101901,3.76304858 C7.7128596,3.76304858 5.48896041,3.86164925 5.48896041,5.3257545 C5.48896041,8.03727283 14.9121811,6.21201398 14.9121811,12.260477 C14.9121811,16.5971865 10.5688332,17.7712224 6.14192491,17.7712224 C4.28807872,17.7712224 1.97405372,17.5344661 0.201380458,17.055221 L0.661559275,13.3651484 Z" id="Fill-1" fill="#707070" mask="url(#mask-8)"></path>
                    </g>
                    <polygon id="Fill-4" fill="#707070" points="16.0491435 1.34723307 30.1374195 1.34723307 30.1374195 4.50474745 21.3814879 4.50474745 21.3814879 7.95519752 29.6497851 7.95519752 29.6497851 11.1109921 21.3814879 11.1109921 21.3814879 14.9105573 30.4501739 14.9105573 30.4501739 18.0669252 16.0491435 18.0669252"></polygon>
                    <path d="M32.6444092,18.0666959 L37.9791411,18.0666959 L37.9791411,11.4581582 L39.0898969,11.4581582 C41.0678899,11.4581582 41.7548754,12.1758793 42.8429506,15.0507767 L43.9835495,18.0666959 L49.536732,18.0666959 L47.5909694,13.5167337 C46.6043604,11.4787955 46.4927476,10.2107451 44.7672263,9.82838088 L44.7672263,9.78252011 C47.3510319,9.28091788 48.6121964,7.79904158 48.6121964,5.55988923 C48.6121964,2.68556515 45.7156363,1.34700377 42.1619337,1.34700377 L32.6444092,1.34700377 L32.6444092,18.0666959 Z M37.9791411,4.5050914 L39.378777,4.5050914 C41.4146654,4.5050914 43.2774645,4.79286777 43.2774645,6.35557368 C43.2774645,8.25077021 41.1001204,8.30064381 39.378777,8.30064381 L37.9791411,8.30064381 L37.9791411,4.5050914 Z" id="Fill-6" fill="#707070"></path>
                    <polygon id="Fill-8" fill="#707070" points="48.7855244 1.34723307 54.4497228 1.34723307 58.8831966 14.4708672 58.94527 14.4708672 63.4258956 1.34723307 68.8931304 1.34723307 62.0817676 18.0669252 55.4942273 18.0669252"></polygon>
                    <polygon id="Fill-10" fill="#707070" points="70.1046361 18.0666959 75.43519 18.0666959 75.43519 1.34700377 70.1046361 1.34700377"></polygon>
                    <path d="M79.2990805,18.031899 L84.6296344,18.031899 L84.6296344,12.2110201 L86.6959626,12.2110201 C91.6815316,12.2110201 94.6353902,10.204038 94.6353902,6.81206037 C94.6353902,3.03485227 91.7692699,1.31449995 85.6610079,1.31449995 L79.2990805,1.31449995 L79.2990805,18.031899 Z M84.6296344,4.4680015 L86.0059928,4.4680015 C87.8425301,4.4680015 89.3030457,5.02291688 89.3030457,6.73753661 C89.3030457,8.50202994 87.8425301,9.05465228 86.0059928,9.05465228 L84.6296344,9.05465228 L84.6296344,4.4680015 Z" id="Fill-12" fill="#707070"></path>
                    <path d="M91.4926255,18.031899 L96.9001742,18.031899 L98.4734964,14.4828483 L105.970651,14.4828483 L107.460413,18.031899 L113.29591,18.031899 L105.602388,1.31449995 L99.0775184,1.31449995 L91.4926255,18.031899 Z M104.713664,11.3270537 L99.7066085,11.3270537 L102.267137,4.76151046 L102.324435,4.76151046 L104.713664,11.3270537 Z" id="Fill-13" fill="#707070"></path>
                    <path d="M131.164397,17.5609662 C127.790349,18.2804071 125.272795,18.3256946 123.442823,18.3256946 C118.1254,18.3256946 111.981326,16.0785166 111.981326,9.74571683 C111.981326,3.43355439 117.268906,1.01611828 124.588197,1.01611828 C125.902482,1.01611828 128.674895,1.13936911 130.618867,1.75848958 L130.1945,5.40556772 C128.535827,4.58523311 126.587677,4.31981387 125.333077,4.31981387 C121.015395,4.31981387 117.472435,5.83952531 117.472435,9.74800987 C117.472435,13.0316414 120.242461,15.0254386 124.129808,15.0254386 C124.847234,15.0254386 125.534219,14.931424 126.015885,14.7359424 L126.015885,11.4236479 L122.903262,11.4236479 L122.903262,8.26728009 L131.164397,8.26728009 L131.164397,17.5609662 Z" id="Fill-14" fill="#707070"></path>
                </g>
                <g id="Page-1" transform="translate(139.074519, 68.131999)">
                    <g id="Group-3" transform="translate(118.761441, 3.157292)">
                        <mask id="mask-10" fill="white">
                            <use xlink:href="#path-9"></use>
                        </mask>
                        <g id="Clip-2"></g>
                        <path d="M15.548284,12.4516889 L15.548284,12.359033 C15.927778,11.8842417 15.8222793,11.2129076 15.3128711,10.8594113 C14.8031615,10.5059151 14.0824543,10.6041865 13.7029603,11.0789777 C13.6131356,11.1912879 13.5561663,11.2996672 13.5163782,11.4347202 C12.9912959,13.333043 11.3768637,14.6793612 9.27894591,14.955925 L9.22740224,14.955925 C7.2030321,14.9654714 5.46411141,14.3792123 3.93347537,13.1701932 C2.38897379,11.3594724 1.85906869,9.22979069 2.39078234,6.97039071 C2.6388551,4.785677 4.06821234,3.04430772 6.25987334,2.25027477 C8.50277659,1.45933035 10.8786083,1.9470373 12.5545311,3.54015715 C12.8583675,3.75635424 13.0687621,4.0037174 13.2200775,4.3238014 C13.509144,4.7971888 14.1557006,4.96256553 14.6639031,4.69330188 C15.1721056,4.42403824 15.3499464,3.82177492 15.0608798,3.34838752 C14.9828107,3.22091547 14.8917804,3.1257326 14.7642776,3.03925376 C13.5618934,1.32259271 11.7225982,0.280635053 9.48542202,0.0610686584 L7.36972011,0.0610686584 C3.79029851,0.353075117 0.988553353,2.75903987 0.386004825,6.05871285 C0.3844977,6.07696326 0.383292,6.09830219 0.381784875,6.12357198 C0.381784875,6.12357198 0.379373476,6.17074226 0.374852101,6.25300946 C-0.039004392,8.54217163 0.168978842,10.5769513 1.04009702,12.7495916 C2.0329909,14.7318662 3.72790354,16.0655496 5.97653387,16.6366468 C8.59772546,17.400356 11.21319,16.9558885 13.3569244,15.3886 C14.3455983,14.5204423 15.0180775,13.6202763 15.548284,12.4550582 L15.548284,12.4516889 Z" id="Fill-1" fill="#707070" mask="url(#mask-10)"></path>
                    </g>
                    <path d="M50.360789,9.29147705 C50.6848208,8.12204734 51.6659591,7.30021762 52.9485224,7.12332909 C54.6684533,6.88635462 56.2693214,7.99289063 56.523724,9.59527608 L56.523724,19.0228731 C56.5794877,19.9662785 57.4454816,20.6889945 58.4582695,20.6370511 C59.3854528,20.5896 60.1164083,19.9238815 60.1881475,19.0613393 L60.1881475,9.17355136 C59.3866585,5.71187095 55.7237421,3.51087227 52.0074736,4.25773494 C49.3109258,4.79935077 47.3368936,6.62691811 46.7388664,9.1353659 C46.7328379,11.9770941 46.716561,18.7572595 46.7014897,19.325549 C46.9887477,20.2591273 48.0340896,20.7990585 49.0360262,20.5317603 C49.723878,20.3481331 50.2088708,19.8657609 50.360789,19.2146427 L50.360789,9.29147705 Z" id="Fill-4" fill="#707070"></path>
                    <path d="M73.0136597,9.68571385 C73.0272238,9.54981853 73.1294068,9.44284309 73.2728851,9.41448477 C73.4507259,9.37938784 73.6252509,9.48495941 73.6632305,9.65061692 C74.0782927,10.4937856 77.6550014,18.5365981 78.098699,19.4451874 C78.2798554,19.9831531 78.8953652,20.2824598 79.4728955,20.113433 C79.8327969,20.0081422 80.0887067,19.7655522 80.1957126,19.4283409 C81.0176985,17.5912272 85.0145937,9.11433582 85.0896485,9.11433582 L85.1062269,9.11433582 C85.1812817,9.11433582 85.1891187,9.13202468 85.1867073,9.29094358 L85.175856,19.0223396 C85.175856,19.0287974 85.1755546,19.0349745 85.1755546,19.0408708 C85.1282309,19.5968061 85.573737,20.0831092 86.1705585,20.1271909 C86.7673799,20.1712727 87.289448,19.7562866 87.3367717,19.2003512 C87.3406902,19.1531809 87.3412931,19.1127493 87.3385802,19.065579 C87.3400874,17.705222 87.3229061,6.41776849 87.311452,5.60913522 C87.3177819,4.88978854 86.726989,4.30184476 85.9547382,4.29594848 C85.2913018,4.29089452 84.7327613,4.69998434 84.5817474,5.30140533 C84.0557608,6.52446316 79.9973749,15.1549387 79.2878205,16.1954924 C79.2585823,16.2401357 79.2224113,16.2715826 79.1729776,16.2962908 C79.0267865,16.3684501 78.8453287,16.3167874 78.7678625,16.1806113 C78.3461689,15.3023458 74.1343577,6.53204409 73.4407788,5.24300404 C73.2843393,4.58374331 72.5838276,4.16735333 71.8760818,4.31307578 C71.2445965,4.44307481 70.8171759,4.96391325 70.8482226,5.56561502 L70.8482226,19.1380191 C70.7460396,19.6908659 71.144222,20.2164775 71.7380292,20.3116604 C72.3315349,20.4068433 72.8958025,20.0359389 72.9979856,19.4830921 C73.010344,19.4162675 73.0151668,19.3589893 73.0136597,19.2913225 L73.0136597,9.68571385 Z" id="Fill-6" fill="#707070"></path>
                    <path d="M44.0313166,5.80115754 C43.7817367,4.85578663 42.7565904,4.27795077 41.7419939,4.51043284 C41.0532378,4.66822864 40.5516667,5.12505028 40.3668931,5.76269131 L40.3668931,14.9884107 L40.3668931,14.9987994 C40.3702088,15.0358618 40.3726202,15.070678 40.3741273,15.1049326 C40.3201723,16.6112928 39.0918655,17.8200311 37.4801461,17.9528379 C35.7333884,18.0968757 34.1919011,16.8943144 34.0372701,15.2672208 L34.0372701,6.06929809 C33.9772865,5.12448873 33.1061683,4.40401895 32.0918733,4.45989326 C31.1827755,4.51015206 30.4653841,5.14947774 30.3707367,5.99320794 C30.3529526,8.53759499 30.3288386,12.8401978 30.3463212,14.7691251 C30.2359997,17.361244 31.8884114,19.6082899 34.5231671,20.44837 C34.5331142,20.454547 34.5361284,20.464655 34.5370327,20.4815015 C36.2904218,20.6117813 37.7782555,20.6435089 39.5355631,20.5881961 C41.8423684,19.786863 43.4260552,18.141519 44.0313166,15.9186198 L44.0313166,5.80115754 Z" id="Fill-8" fill="#707070"></path>
                    <path d="M67.6835919,6.03108455 C67.5479507,5.13148004 66.6551299,4.50450848 65.6890629,4.63057665 C64.8948081,4.73446356 64.2973837,5.29124126 64.1858565,6.03108455 L64.1858565,19.367918 C64.4378478,20.2770689 65.4334545,20.8237387 66.4094686,20.5890104 C67.0273898,20.4401994 67.4807329,20.046833 67.6835919,19.4827552 L67.6835919,6.03108455 Z" id="Fill-10" fill="#707070"></path>
                    <path d="M115.984232,7.58733859 C115.995686,8.33644746 115.987849,8.96903453 115.958008,9.71758186 C115.750326,10.4855027 114.992543,11.0083066 114.129564,10.957767 C113.014291,10.960294 108.141757,10.9712442 108.003704,10.971525 C107.899109,10.9979179 107.804763,11.0012872 107.69836,10.9824752 C107.330321,10.9167738 107.089181,10.5854587 107.159714,10.2426319 L107.159714,6.62371727 C107.295054,5.80497609 107.824657,5.70867011 108.433837,5.70024685 C108.456143,5.7008084 113.390771,5.7008084 113.590616,5.7008084 C114.794507,5.68676963 115.803377,6.49006816 115.984232,7.58733859 M107.159714,14.0465776 C107.109979,13.5341624 107.487966,13.0781831 108.032641,12.9931082 C108.673772,12.9931082 113.603879,12.9911427 113.675618,12.9894581 C114.832185,12.9630652 115.792525,13.8146571 115.820859,14.8917117 C115.820859,15.0472613 115.84015,18.8172331 115.853413,19.1926299 C115.882953,19.7418267 116.282039,20.1649552 116.871627,20.1371585 C117.431976,20.1110464 117.819307,19.7409843 117.834981,19.2184612 C117.839201,19.133667 117.819608,14.5693815 117.819608,14.3107873 C117.709588,13.1506232 117.241174,12.4851854 116.345037,12.2150794 C116.323636,12.2097447 116.320622,12.1940212 116.320622,12.1482549 L116.320622,12.0103941 C116.320622,11.9744549 116.321526,11.9511505 116.325445,11.9359886 C117.43077,11.3342868 118.078532,10.3501689 118.152984,9.15968106 L118.152984,7.25770822 C117.76505,5.39307852 116.277518,4.02345591 114.271233,3.68371763 L106.331097,3.68371763 C105.721615,3.56944203 105.12811,3.9366963 105.00543,4.50414347 C104.978301,4.62880777 104.980411,18.7296312 105.00121,19.1182244 C104.969862,19.6730367 105.153429,19.9288231 105.741509,20.0958845 C106.329891,20.2629459 106.952032,19.9543737 107.13138,19.4063 C107.186842,19.2364309 107.159714,15.0641078 107.159714,14.0465776" id="Fill-12" fill="#707070"></path>
                    <path d="M94.0946895,13.4585215 C93.9852723,13.4675063 93.8891177,13.4444828 93.7977859,13.3872046 C93.7510651,13.3585655 93.7013299,13.3282417 93.6802302,13.2827561 C93.6096967,13.1308566 93.6039697,12.9267328 93.6787231,12.7425442 C93.9225759,12.0448172 95.6883234,8.20942466 95.7721195,8.02046278 C95.8176347,7.91601432 95.9038422,7.84469736 96.0204937,7.81465438 C96.2209413,7.76327248 96.4283217,7.8727749 96.4834825,8.05949057 C96.7315552,8.60587958 98.6645936,12.9017438 98.6645936,12.9017438 L98.6645936,12.9023054 C98.6929275,12.952845 98.7070945,13.000296 98.7104102,13.0567319 C98.7233715,13.2667519 98.5512578,13.4464482 98.3260933,13.4585215 L98.3083093,13.4585215 L94.0946895,13.4585215 Z M90.3365229,19.4746969 L92.3608931,15.4756123 L99.7539435,15.4756123 L99.7629862,15.494705 L101.846134,19.6319311 C101.848847,19.6347389 101.851861,19.6378274 101.854574,19.6406352 C102.052912,20.0893143 102.604218,20.3029845 103.085895,20.1182342 C103.567271,19.933484 103.796957,19.4199457 103.598619,18.9712665 C103.595303,18.9639664 103.592591,18.9577893 103.588973,18.9507699 C103.494929,18.4024155 102.047486,15.2400417 102.047486,15.2400417 C100.27993,11.3136779 97.3651505,4.70647025 97.3518878,4.67614651 C97.2295093,4.0988722 96.627865,3.72347543 96.0081353,3.83747026 C95.5689591,3.91833359 95.2416116,4.20303989 95.1252615,4.60567187 C95.0691965,4.72724764 89.2275804,16.8862281 88.3127556,18.7907279 C88.0589558,19.2475496 88.2506621,19.8099428 88.7413819,20.0463557 C88.7627831,20.0567444 88.78117,20.0648869 88.8031741,20.0738717 C88.9041514,20.1182342 89.014473,20.1488387 89.1314259,20.162316 C89.6137058,20.2179095 90.0574034,19.9831812 90.2530282,19.5684759 C90.2895006,19.537029 90.318136,19.5055822 90.3365229,19.4746969 L90.3365229,19.4746969 Z" id="Fill-14" fill="#707070"></path>
                    <g id="Group-18" transform="translate(0.000000, 0.068762)">
                        <mask id="mask-12" fill="white">
                            <use xlink:href="#path-11"></use>
                        </mask>
                        <g id="Clip-17"></g>
                        <path d="M20.7686933,18.5505807 C19.4342849,18.5528269 18.278923,18.0541697 17.4418658,17.1205914 C16.9460218,16.5520211 16.6445968,15.9781161 16.4676603,15.265508 C16.4646461,15.1857678 16.3926055,15.1234357 16.3066994,15.1265242 C16.270227,15.1279281 16.2391802,15.1391591 16.2111477,15.1613403 C16.1804023,15.2090722 16.1517669,15.2559617 16.121323,15.3090282 C16.0296898,15.4876014 15.9332338,15.6439933 15.8096496,15.8158279 C14.9563155,17.2413248 13.6939477,18.2010153 12.0107906,18.7036033 C11.6496835,18.7760434 11.3199246,18.8063671 10.9383205,18.8038401 C8.16671789,18.7850282 5.93617306,16.6766854 5.95666996,14.0949552 C5.60098849,11.6648438 6.16676317,7.05591491 6.17188739,7.02334496 C6.26321916,6.45449392 6.83622804,6.01816888 7.46982334,6.0956629 C8.10311722,6.1734377 8.54892476,6.71449197 8.46573146,7.30468195 C8.45789442,8.5948451 8.3659598,9.87911197 8.31622468,10.6619139 C8.31471755,10.6883068 8.30748335,11.600827 8.3117033,12.414795 C8.13175259,13.9874182 8.76052509,15.4089843 10.074738,16.4034909 C11.5604617,17.282318 13.5161069,16.9088867 14.5126179,15.5653762 C15.6706927,13.7487591 16.1882394,11.9453384 16.1577954,9.83278402 C16.1731681,9.65252619 16.2063249,9.25803669 16.2325488,8.94665673 C16.2072291,8.80402281 16.2117505,8.67907774 16.2467158,8.53812846 C16.3877827,7.97376983 16.9933455,7.62280053 17.5995111,7.75420343 C18.2053753,7.88560634 18.5821565,8.4496842 18.4410896,9.01404284 C18.4239084,9.4203249 18.3078598,12.1536738 18.3078598,12.1536738 C18.3096684,12.1904554 18.3096684,12.2707572 18.3075584,12.3038887 C18.3045441,12.3577976 18.271086,13.9655177 18.3726662,14.6660525 C18.5731138,15.4356579 18.9284938,16.0477484 19.5099426,16.6250227 C19.5138611,16.6289536 19.5174782,16.6326037 19.5213968,16.6365345 C20.4410444,17.4064208 21.6120804,17.6664188 22.7999962,17.3665507 C23.6035952,17.2491865 24.2631131,17.0049119 24.9313722,16.5781332 L24.9313722,6.29220571 C24.9313722,2.93413144 21.9840388,0.212013536 18.3485522,0.212013536 L6.58303106,0.212013536 C2.94724299,0.212013536 -9.04274934e-05,2.93413144 -9.04274934e-05,6.29220571 L-9.04274934e-05,17.2241975 C-9.04274934e-05,20.5822718 2.94724299,23.3043897 6.58303106,23.3043897 L18.3485522,23.3043897 C21.9370165,23.3043897 24.8527003,20.6519041 24.9277551,17.3541965 C23.6913099,18.2493086 22.3065635,18.6488521 20.7686933,18.5505807" id="Fill-16" fill="#707070" mask="url(#mask-12)"></path>
                    </g>
                </g>
                <g id="Page-1" transform="translate(163.000000, 130.445636)">
                    <path d="M5.07833257,3.58553268 L0.250944753,20.6980264 C0.250944753,20.6980264 -1.56608341,25.5031917 4.57986392,25.5031917 L9.49643853,25.5031917 L10.5654583,21.5071257 L6.11161653,21.5071257 C6.11161653,21.5071257 5.11467924,21.7600595 5.57710664,20.0403983 C6.04075579,18.3207371 10.316224,3.58553268 10.316224,3.58553268 L5.07833257,3.58553268 Z" id="Fill-1" fill="#707070"></path>
                    <polygon id="Fill-3" fill="#707070" points="13.3444821 9.72225752 12.4181001 13.0265856 15.0191779 13.0265856 11.8481598 25.5030183 16.8004702 25.5030183 20.6840663 9.72225752"></polygon>
                    <path d="M21.5747125,5.74310193 C21.5747125,7.06529565 20.1868194,8.13773524 18.4745552,8.13773524 C16.7632073,8.13773524 15.3753142,7.06529565 15.3753142,5.74310193 C15.3753142,4.4209082 16.7632073,3.34933581 18.4745552,3.34933581 C20.1868194,3.34933581 21.5747125,4.4209082 21.5747125,5.74310193" id="Fill-5" fill="#707070"></path>
                    <path d="M42.8451209,3.58553268 L39.139593,17.882222 C39.139593,17.882222 37.3583006,25.5031917 27.9164126,25.5031917 C27.9164126,25.5031917 20.0068881,25.9896919 20.0068881,19.231299 C20.0068881,12.472617 27.7026087,7.12602868 36.3250166,10.3965358 L38.2220686,3.58553268 L42.8451209,3.58553268 Z M35.3897771,13.8193815 C35.3897771,13.8193815 33.1720192,11.467241 29.1635005,12.9845552 C25.1552873,14.5021584 25.0483853,18.1438279 25.0483853,18.8520427 C25.0483853,19.5599685 25.1284091,22.7463571 29.3238535,22.4428365 C29.3238535,22.4428365 32.5306073,22.4682744 33.5996271,19.6611421 C34.6683414,16.8540097 35.2028513,14.0468774 35.3897771,13.8193815 L35.3897771,13.8193815 Z" id="Fill-7" fill="#707070"></path>
                    <path d="M55.698312,20.9508446 L55.1638021,24.7191256 C55.1638021,24.7191256 49.8196196,26.3376133 45.4907005,24.8960348 C41.1617813,23.4544563 40.1727853,20.4452659 40.7072952,17.106828 C41.2414996,13.7686791 44.5551554,9.69629928 52.7588131,9.29160509 C52.7588131,9.29160509 60.3479371,8.98808445 60.3479371,13.3133981 C60.3479371,17.6372664 54.9768764,18.4723818 53.3198958,18.7759024 C51.6632206,19.0794231 47.7616039,19.1039938 45.6773208,18.5232576 C45.6773208,18.5232576 45.0630925,21.7347951 48.7237216,22.2406628 C52.3846562,22.7465305 55.2707041,21.3303899 55.698312,20.9508446 M52.1711577,15.8424477 C55.1903749,15.4883403 55.6179828,14.1227865 55.644861,13.9710262 C55.6714338,13.8192658 55.7248848,12.174473 52.1711577,12.2513649 C48.6168197,12.3262334 46.6394385,15.6906874 46.6394385,15.6906874 C47.0939247,15.9173161 49.1513296,16.1965551 52.1711577,15.8424477" id="Fill-9" fill="#707070"></path>
                    <path d="M62.7795905,9.68834993 L58.8065022,25.5029315 L63.7056671,25.5029315 C63.7056671,25.5029315 64.3828148,20.0404272 65.6656385,17.005799 C66.9481568,13.9708816 69.1927928,10.784493 74.4035006,13.3135426 L75.7929208,9.68834993 C75.7929208,9.68834993 71.2505031,8.5083773 67.4826666,10.8856666 L67.6781445,9.68834993 L62.7795905,9.68834993 Z" id="Fill-11" fill="#707070"></path>
                    <path d="M93.3129941,9.19962388 C93.3129941,9.19962388 94.513656,9.24876532 94.6181145,8.2613115 C94.7222676,7.27327955 95.2439492,1.09302119 95.2439492,1.09302119 C95.2439492,1.09302119 94.6898915,5.78134564e-05 93.3129941,5.78134564e-05 C91.9364021,5.78134564e-05 91.3099565,1.05573151 91.3099565,1.05573151 L91.9559499,8.18731028 C91.9559499,8.18731028 91.8713446,9.19384254 93.3129941,9.19962388" id="Fill-13" fill="#707070"></path>
                    <path d="M93.3129941,18.0784987 C93.3129941,18.0784987 94.513656,18.0293573 94.6181145,19.0173892 C94.7222676,20.004843 95.2439492,26.1859686 95.2439492,26.1859686 C95.2439492,26.1859686 94.6898915,27.2786429 93.3129941,27.2786429 C91.9364021,27.2786429 91.3099565,26.2229692 91.3099565,26.2229692 L91.9559499,19.0913905 C91.9559499,19.0913905 91.8713446,18.0848582 93.3129941,18.0784987" id="Fill-15" fill="#707070"></path>
                    <g id="Group-19" transform="translate(97.128081, 5.598626)">
                        <mask id="mask-14" fill="white">
                            <use xlink:href="#path-13"></use>
                        </mask>
                        <g id="Clip-18"></g>
                        <path d="M0.311512359,5.86254452 C0.311512359,5.86254452 0.868013504,6.87023305 1.82402261,6.46120285 C2.77942084,6.05130546 8.6926273,3.38090196 8.6926273,3.38090196 C8.6926273,3.38090196 9.41375748,2.38015105 8.72378159,1.2524996 C8.03380569,0.124559089 6.75495262,0.141324991 6.75495262,0.141324991 L0.557386904,4.24347871 C0.557386904,4.24347871 -0.404730882,4.67881403 0.311512359,5.86254452" id="Fill-17" fill="#707070" mask="url(#mask-14)"></path>
                    </g>
                    <path d="M97.39555,15.9309312 C97.39555,15.9309312 96.7523056,16.8915018 97.6053833,17.4696363 C98.4584611,18.0471927 103.860982,21.554446 103.860982,21.554446 C103.860982,21.554446 105.138002,21.6443459 105.823702,20.5149601 C106.510013,19.3849961 105.854856,18.3452211 105.854856,18.3452211 L98.9990797,15.3215774 C98.9990797,15.3215774 98.1191237,14.7512476 97.39555,15.9309312" id="Fill-20" fill="#707070"></path>
                    <path d="M89.1227726,11.4611706 C89.1227726,11.4611706 88.5668823,12.4688592 87.6108732,12.059829 C86.655475,11.6499316 80.7422685,8.97952806 80.7422685,8.97952806 C80.7422685,8.97952806 80.0211383,7.97877715 80.7111142,6.8511257 C81.4004793,5.72318519 82.6799432,5.73995109 82.6799432,5.73995109 L88.8775089,9.84210481 C88.8775089,9.84210481 89.8396267,10.2774401 89.1227726,11.4611706" id="Fill-22" fill="#707070"></path>
                    <path d="M89.1674882,15.9309312 C89.1674882,15.9309312 89.8107326,16.8915018 88.9576549,17.4696363 C88.1045771,18.0471927 82.7020566,21.554446 82.7020566,21.554446 C82.7020566,21.554446 81.4247307,21.6443459 80.7387255,20.5149601 C80.0530257,19.3849961 80.7081821,18.3452211 80.7081821,18.3452211 L87.5639585,15.3215774 C87.5639585,15.3215774 88.4439145,14.7512476 89.1674882,15.9309312" id="Fill-24" fill="#707070"></path>
                </g>
                <g id="Group-33" transform="translate(311.284010, 1.000000)">
                    <g id="Group-3" transform="translate(0.494554, 0.253277)">
                        <mask id="mask-16" fill="white">
                            <use xlink:href="#path-15"></use>
                        </mask>
                        <g id="Clip-2"></g>
                        <path d="M14.6454716,8.84297957 L8.92426735,8.84297957 L8.92426735,5.51034025 C8.92426735,4.90406349 8.81646688,4.50328604 8.59919892,4.31338747 C8.33025342,4.060548 7.93016921,3.93359031 7.40450301,3.93359031 C6.92106792,3.93359031 6.54598897,4.060548 6.28093318,4.31338747 C6.02032277,4.5592335 5.88862838,4.92181605 5.88862838,5.38876212 L5.88862838,6.10263014 C5.88862838,6.51416672 6.05088475,6.88804635 6.37928721,7.22588291 C6.82827061,7.68691147 8.43972091,9.04417523 11.2180835,11.2971362 C12.5717018,12.3886496 13.4957852,13.2757395 14.0036698,13.9454951 C14.5059978,14.6217062 14.7582731,15.6260707 14.7582731,16.9553607 C14.7582731,18.6267909 14.5132215,19.893678 14.0214514,20.7587118 C13.5335709,21.6269733 12.6967281,22.3268544 11.5025878,22.8675005 C10.3245621,23.4016911 8.87647951,23.6701313 7.14722663,23.6701313 C5.85917774,23.6701313 4.6972665,23.5055167 3.66149293,23.1714458 C2.63849982,22.8341472 1.82721794,22.369353 1.24265045,21.7609244 C0.893132439,21.4112528 0.618074542,20.9195607 0.426923196,20.2890759 C0.221880037,19.6564393 0.119636293,19.0383275 0.119636293,18.4298989 L0.119636293,14.4431047 L5.87029119,14.4431047 L5.87029119,18.4298989 C5.87029119,18.9388056 5.99865154,19.3288239 6.26259598,19.5778977 C6.51987236,19.8178262 6.8849492,19.9394043 7.35393681,19.9394043 C7.910165,19.9394043 8.29580173,19.8178262 8.52140477,19.5778977 C8.7553429,19.3288239 8.87647951,18.8043165 8.87647951,18.0022237 L8.87647951,17.3523724 C8.87647951,17.024757 8.80646477,16.7369504 8.67754875,16.4878767 C8.46861588,16.1478883 7.85404208,15.5534465 6.81549014,14.7018617 L2.76519315,11.4149487 C1.56827455,10.3971353 0.804780508,9.57137241 0.47415536,8.9349701 C0.158533369,8.28888458 0.000166701755,7.47710851 0.000166701755,6.50771124 C0.000166701755,5.10041754 0.249663662,3.99276551 0.743100859,3.19659017 C1.24265045,2.39664914 2.05004262,1.75379136 3.15471959,1.25725769 C4.2605079,0.763951752 5.73470709,0.514340025 7.58120687,0.514340025 C9.96948735,0.514340025 11.7476394,0.947932809 12.910662,1.83287093 C14.0681278,2.71458132 14.6454716,3.84966913 14.6454716,5.25265918 L14.6454716,8.84297957 Z" id="Fill-1" fill="#707070" mask="url(#mask-16)"></path>
                    </g>
                    <path d="M21.7369142,12.1122013 L24.0085034,12.1122013 L24.0085034,9.57519932 C24.0085034,9.22552772 23.9112608,8.96946051 23.7217764,8.81183932 C23.5422942,8.64614877 23.2583455,8.5633035 22.8660407,8.5633035 C22.4859607,8.5633035 22.195344,8.64937651 22.0041927,8.82475027 C21.8202651,8.98667511 21.7369142,9.23198319 21.7369142,9.57519932 L21.7369142,12.1122013 Z M29.4452034,15.1382055 L21.7369142,15.1382055 L21.7369142,18.9512398 C21.7369142,19.5532129 21.8319342,19.9496867 22.0219742,20.1686349 C22.2197936,20.3795138 22.5042979,20.4838773 22.8660407,20.4838773 C23.2133361,20.4838773 23.4845043,20.3848934 23.6856577,20.1858495 C23.9051484,19.9846539 24.0085034,19.6640319 24.0085034,19.2266734 L24.0085034,16.4276868 L29.4452034,16.4276868 L29.4452034,18.5773602 C29.4452034,20.2816057 28.9039783,21.583998 27.8226396,22.482385 C26.7385225,23.3721647 25.0792844,23.8181305 22.8293664,23.8181305 C21.4618563,23.8181305 20.330507,23.6454465 19.4369856,23.3162173 C18.5651355,22.9821464 17.8638767,22.5221938 17.322096,21.9390491 C16.940349,21.4914695 16.6402858,20.919084 16.436354,20.228886 C16.3113277,19.7947553 16.2513151,19.1631946 16.2513151,18.3299003 L16.2513151,10.5790258 C16.2513151,8.99313059 16.8142113,7.72301575 17.9572297,6.76061192 C19.0913573,5.80143582 20.6950282,5.32319266 22.7849126,5.32319266 C24.5225005,5.32319266 25.8916776,5.57925987 26.878552,6.08063514 C27.8709831,6.5847002 28.5655738,7.26144924 28.9906632,8.11034429 C29.2946161,8.7381393 29.4452034,9.82696287 29.4452034,11.3827325 L29.4452034,15.1382055 Z" id="Fill-4" fill="#707070"></path>
                    <path d="M30.7858189,23.3160559 L30.7858189,5.61406564 L36.1547268,5.61406564 L36.1547268,7.78202956 C36.530917,7.00360678 36.997682,6.42315192 37.5522431,6.05787959 C38.3018454,5.56887731 39.1925884,5.32356923 40.2389198,5.32356923 C41.6469939,5.32356923 42.664986,5.79750874 43.3123445,6.72817315 C43.7363226,7.35973386 43.9508122,8.43510851 43.9508122,9.95644895 L43.9508122,23.3160559 L38.5563434,23.3160559 L38.5563434,10.7171192 C38.5563434,10.201757 38.4457645,9.84831973 38.2468338,9.64604816 C38.0456803,9.42709994 37.7606203,9.32381233 37.3888754,9.32381233 C37.0510265,9.32381233 36.782081,9.41687877 36.5770379,9.60839122 C36.3753287,9.80797301 36.269751,10.1006212 36.269751,10.5073162 L36.269751,23.3160559 L30.7858189,23.3160559 Z" id="Fill-6" fill="#707070"></path>
                    <path d="M58.270104,11.8934144 L52.955652,11.8934144 L52.955652,9.85348411 C52.955652,9.38169643 52.8528526,9.03955622 52.6533662,8.83997443 C52.4477674,8.62640578 52.158262,8.52365612 51.7604005,8.52365612 C51.364206,8.52365612 51.0763676,8.61457074 50.8829936,8.8120007 C50.6879525,8.99329198 50.5973779,9.32897671 50.5973779,9.81905491 L50.5973779,19.40974 C50.5973779,19.729286 50.6985103,19.9939605 50.9168896,20.1924664 C51.1341575,20.3904343 51.4086598,20.4840387 51.7604005,20.4840387 C52.1054731,20.4840387 52.3999795,20.3667642 52.6222485,20.1343671 C52.8478516,19.9030459 52.955652,19.5598298 52.955652,19.0880421 L52.955652,16.4278481 L58.270104,16.4278481 L58.270104,18.5775215 C58.270104,20.3253416 57.6788685,21.6358032 56.4780601,22.512134 C55.2989231,23.3825473 53.7041429,23.8182919 51.6931641,23.8182919 C49.845553,23.8182919 48.3018947,23.4132108 47.0377397,22.6041245 C45.7885879,21.7896587 45.1634563,20.4770453 45.1634563,18.6485318 L45.1634563,10.5791872 C45.1634563,9.60064465 45.3329364,8.79317223 45.669674,8.15784583 C46.1297708,7.26537632 46.8543678,6.5810959 47.8479103,6.08079653 C48.8414527,5.57942125 50.1072747,5.32335405 51.6592681,5.32335405 C52.8717455,5.32335405 53.9141871,5.46591247 54.7965951,5.74833953 C55.6906722,6.03022864 56.4224929,6.45413821 57.0231749,7.02006824 C57.4838274,7.45635081 57.8016721,7.98354799 57.9894894,8.61188096 C58.1800851,9.23214458 58.270104,9.91104544 58.270104,10.6222237 L58.270104,11.8934144 Z" id="Fill-8" fill="#707070"></path>
                    <path d="M59.7053506,23.3160021 L65.2187333,23.3160021 L65.2187333,5.66081404 L59.7053506,5.66081404 L59.7053506,23.3160021 Z M59.7053506,4.47354447 L65.2187333,4.47354447 L65.2187333,1.2350475 L59.7053506,1.2350475 L59.7053506,4.47354447 Z" id="Fill-10" fill="#707070"></path>
                    <polygon id="Fill-12" fill="#707070" points="66.4995584 23.3160021 72.0184979 23.3160021 72.0184979 1.2350475 66.4995584 1.2350475"></polygon>
                    <polygon id="Fill-13" fill="#707070" points="73.3048798 23.3160021 78.8210409 23.3160021 78.8210409 1.2350475 73.3048798 1.2350475"></polygon>
                    <path d="M80.100199,23.3160021 L85.6196941,23.3160021 L85.6196941,5.66081404 L80.100199,5.66081404 L80.100199,23.3160021 Z M80.100199,4.47354447 L85.6196941,4.47354447 L85.6196941,1.2350475 L80.100199,1.2350475 L80.100199,4.47354447 Z" id="Fill-14" fill="#707070"></path>
                    <path d="M86.3182856,8.85094874 L86.3182856,5.66086784 L88.2009041,5.66086784 L88.2009041,2.39278327 L93.5987069,2.39278327 L93.5987069,5.66086784 L96.0086587,5.66086784 L96.0086587,8.85094874 L93.5987069,8.85094874 L93.5987069,18.5777367 C93.5987069,19.1501222 93.7081744,19.5530515 93.9337775,19.7698479 C94.1671599,19.9850304 94.5511296,20.0926217 95.0790185,20.0926217 L96.0086587,20.0926217 L96.0086587,23.2864683 C95.1401425,23.3063727 94.4488859,23.3160559 93.9337775,23.3160559 C92.3273282,23.3160559 91.1915336,23.2224515 90.5408411,23.0470777 C89.9007063,22.8550273 89.4100475,22.5801317 89.0594181,22.243371 C88.7210136,21.8877819 88.4859641,21.479473 88.3653832,21.011989 C88.2509146,20.5493466 88.2009041,19.8344027 88.2009041,18.8671572 L88.2009041,8.85094874 L86.3182856,8.85094874 Z" id="Fill-15" fill="#707070"></path>
                    <path d="M102.219855,19.302848 C102.219855,19.7073912 102.312652,20.0059569 102.515473,20.1926278 C102.724406,20.3905957 102.985572,20.4842001 103.312863,20.4842001 C103.696832,20.4842001 103.998007,20.3798366 104.216386,20.1689577 C104.464772,19.9494715 104.579796,19.6638167 104.579796,19.302848 L104.579796,9.74874402 C104.579796,9.35173227 104.465328,9.06015995 104.255839,8.86757159 C104.055797,8.66637593 103.776849,8.56308832 103.424553,8.56308832 C103.051697,8.56308832 102.745521,8.66637593 102.543256,8.86757159 C102.321543,9.07360885 102.219855,9.39853446 102.219855,9.8536455 L102.219855,19.302848 Z M109.967597,10.4292587 L109.967597,18.8315983 C109.967597,19.3797758 109.878689,19.9494715 109.688094,20.5422994 C109.51139,21.1324374 109.133532,21.6779251 108.577304,22.1905975 C108.017186,22.7108012 107.309815,23.1094269 106.432964,23.3880882 C105.562225,23.674281 104.538121,23.8179153 103.377876,23.8179153 C102.139838,23.8179153 101.070724,23.6592182 100.154976,23.341824 C99.2597874,23.0373407 98.5274111,22.590837 97.9634034,22.0232931 C97.5633192,21.6230536 97.2649231,21.1076914 97.0687707,20.4680614 C96.8809534,19.8316591 96.7876004,19.302848 96.7876004,18.8671034 L96.7876004,10.7886136 C96.7876004,9.68365131 96.9459671,8.80409274 97.2693685,8.15800722 C97.7139065,7.28920778 98.425723,6.60116167 99.4148201,6.09655865 C100.414475,5.57904468 101.683075,5.32351544 103.213397,5.32351544 C104.742052,5.32351544 105.975645,5.50480671 106.905286,5.85716809 C107.837704,6.19608057 108.581194,6.75071352 109.130198,7.50439031 C109.695873,8.25806709 109.967597,9.23230596 109.967597,10.4292587 L109.967597,10.4292587 Z" id="Fill-16" fill="#707070"></path>
                </g>
                <g id="Page-1" transform="translate(1.659973, 131.133973)">
                    <polygon id="Fill-1" fill="#707070" points="28.3961547 1.04025279 37.7644575 1.04025279 37.7644575 8.46130973 43.8775521 1.04025279 55.2234128 1.04025279 44.9674289 13.3605336 55.1513011 25.7355844 43.9425941 25.7355844 37.7644575 18.1021597 37.7644575 25.6668535 28.3961547 25.6668535"></polygon>
                    <g id="Group-18" transform="translate(0.000000, 0.175828)">
                        <g id="Group-4">
                            <mask id="mask-18" fill="white">
                                <use xlink:href="#path-17"></use>
                            </mask>
                            <g id="Clip-3"></g>
                            <path d="M13.8009114,17.5397209 C11.1141134,17.5397209 8.93633936,15.4718875 8.93633936,12.9210586 C8.93633936,10.3704982 11.1141134,8.30266488 13.8009114,8.30266488 C16.4877094,8.30266488 18.6657663,10.3704982 18.6657663,12.9210586 C18.6657663,15.4718875 16.4877094,17.5397209 13.8009114,17.5397209 M13.7293653,0.0925450718 C6.16470404,0.0925450718 0.000141395538,5.91775663 0.000141395538,13.071139 C0.000141395538,20.2105604 6.16470404,26.0424839 13.7293653,26.0424839 C21.2869568,26.0424839 27.4515194,20.2105604 27.4515194,13.071139 C27.4515194,5.91775663 21.2869568,0.0925450718 13.7293653,0.0925450718" id="Fill-2" fill="#707070" mask="url(#mask-18)"></path>
                        </g>
                        <path d="M56.797739,10.8009254 L58.3997505,10.8009254 L58.3997505,15.4314008 L57.36219,15.4314008 L57.36219,12.2993125 C57.36219,12.2093717 57.3633212,12.0831861 57.3658663,11.9207557 C57.3681286,11.7585937 57.3695426,11.633482 57.3695426,11.5454206 L56.3596957,15.4314008 L55.277737,15.4314008 L54.2752426,11.5454206 C54.2752426,11.633482 54.2763738,11.7585937 54.2789189,11.9207557 C54.2811813,12.0831861 54.2825952,12.2093717 54.2825952,12.2993125 L54.2825952,15.4314008 L53.2450348,15.4314008 L53.2450348,10.8009254 L54.8651448,10.8009254 L55.8351182,14.4417833 L56.797739,10.8009254 Z" id="Fill-5" fill="#707070"></path>
                        <path d="M61.4780162,13.6816357 L62.8424831,13.6816357 L62.1697231,11.8594617 L61.4780162,13.6816357 Z M61.5515418,10.8008449 L62.8113761,10.8008449 L64.6961786,15.4313202 L63.4889435,15.4313202 L63.1374342,14.4795584 L61.1751469,14.4795584 L60.8140227,15.4313202 L59.6494891,15.4313202 L61.5515418,10.8008449 Z" id="Fill-7" fill="#707070"></path>
                        <path d="M67.0854804,11.6051305 L67.0854804,12.8492671 L68.2836662,12.8492671 C68.5217763,12.8492671 68.6999346,12.8240299 68.8192725,12.7738242 C69.029669,12.6857627 69.1351501,12.5120561 69.1351501,12.2521674 C69.1351501,11.9716058 69.0333453,11.7831328 68.8294529,11.6867485 C68.7152053,11.632247 68.5435512,11.6051305 68.3144904,11.6051305 L67.0854804,11.6051305 Z M69.3865514,10.9202379 C69.5825256,10.993533 69.7488067,11.101462 69.8853948,11.2437564 C69.9979457,11.3610822 70.0875904,11.4910265 70.153198,11.6333209 C70.2190883,11.7758838 70.251892,11.9380458 70.251892,12.1203437 C70.251892,12.3402289 70.1879813,12.5563553 70.0604425,12.7689915 C69.9326209,12.9816277 69.7219416,13.1319765 69.4278389,13.2197695 C69.6735843,13.3056831 69.8477836,13.4275731 69.950154,13.5857078 C70.0525243,13.7438426 70.1037095,13.9852061 70.1037095,14.3097985 L70.1037095,14.6209669 C70.1037095,14.8325292 70.1133244,14.9758975 70.1334026,15.0513404 C70.1625301,15.170814 70.2309655,15.258607 70.3387089,15.3152563 L70.3387089,15.4315081 L69.1096989,15.4315081 C69.0760468,15.3286803 69.0520095,15.2459884 69.0373044,15.1831641 C69.0084597,15.0534882 68.9929062,14.9203221 68.9903611,14.7842028 L68.9832913,14.3538292 C68.9787666,14.0585012 68.9199461,13.8617053 68.8071124,13.7634416 C68.6942788,13.6649094 68.4827511,13.6157776 68.1728121,13.6157776 L67.0854804,13.6157776 L67.0854804,15.4315081 L65.9975831,15.4315081 L65.9975831,10.8010328 L68.5458135,10.8010328 C68.9100484,10.8072078 69.1905771,10.8469429 69.3865514,10.9202379 L69.3865514,10.9202379 Z" id="Fill-9" fill="#707070"></path>
                        <polygon id="Fill-11" fill="#707070" points="71.9344424 10.8009254 73.0296922 10.8009254 73.0296922 12.7087446 75.0884112 10.8009254 76.5269694 10.8009254 74.3404289 12.7055228 76.6389547 15.4314008 75.2074663 15.4314008 73.5658641 13.410283 73.0296922 13.8828078 73.0296922 15.4314008 71.9344424 15.4314008"></polygon>
                        <polygon id="Fill-13" fill="#707070" points="81.8006271 11.6208366 78.9812001 11.6208366 78.9812001 12.6040105 81.569304 12.6040105 81.569304 13.4083768 78.9812001 13.4083768 78.9812001 14.5988173 81.930711 14.5988173 81.930711 15.4313739 77.89302 15.4313739 77.89302 10.8008986 81.8006271 10.8008986"></polygon>
                        <g id="Group-17" transform="translate(82.857785, 10.739202)">
                            <mask id="mask-20" fill="white">
                                <use xlink:href="#path-19"></use>
                            </mask>
                            <g id="Clip-16"></g>
                            <polygon id="Fill-15" fill="#707070" mask="url(#mask-20)" points="4.40992886 0.0617235626 4.40992886 0.881661623 2.81583557 0.881661623 2.81583557 4.69219891 1.69541733 4.69219891 1.69541733 0.881661623 0.0939714742 0.881661623 0.0939714742 0.0617235626"></polygon>
                        </g>
                    </g>
                </g>
                <g id="Page-1" transform="translate(345.004125, 129.068961)">
                    <path d="M80.86957,15.9241334 C79.3158589,16.0484013 79.5243751,14.226693 79.5243751,14.226693 C79.5243751,14.226693 79.9729818,9.32550755 83.713768,9.69121025 C83.713768,9.69121025 83.2004493,15.7377316 80.86957,15.9241334 M84.2392787,6.50196318 C80.8386209,6.44367561 75.4584662,7.79849168 74.8407332,14.8122315 C74.4696557,19.0258012 78.9219603,19.3181267 78.9219603,19.3181267 C78.9219603,19.3181267 81.6733107,19.4207956 82.8790781,17.0357394 L82.8790781,19.3181267 L86.9599926,19.3181267 C86.9599926,19.3181267 87.145375,10.1885778 88.8769658,7.20407685 C88.8769658,7.20407685 87.6402492,6.56054662 84.2392787,6.50196318" id="Fill-1" fill="#707070"></path>
                    <g id="Group-5" transform="translate(0.000000, 6.455422)">
                        <mask id="mask-22" fill="white">
                            <use xlink:href="#path-21"></use>
                        </mask>
                        <g id="Clip-4"></g>
                        <path d="M6.05075136,9.46871152 C4.49704023,9.59297943 4.70555639,7.77127109 4.70555639,7.77127109 C4.70555639,7.77127109 5.15416313,2.87008566 8.89494931,3.23578836 C8.89494931,3.23578836 8.38163067,9.28230966 6.05075136,9.46871152 M9.42046006,0.0465412899 C6.01980218,-0.011746276 0.639647553,1.34306979 0.0219145171,8.35680963 C-0.34916297,12.5703793 4.10314163,12.8627048 4.10314163,12.8627048 C4.10314163,12.8627048 6.85449206,12.9653737 8.06025943,10.5803175 L8.06025943,12.8627048 L12.1411739,12.8627048 C12.1411739,12.8627048 12.3265564,3.73315586 14.0581471,0.748654964 C14.0581471,0.748654964 12.8214306,0.105124732 9.42046006,0.0465412899" id="Fill-3" fill="#707070" mask="url(#mask-22)"></path>
                    </g>
                    <path d="M71.9885322,14.6656842 L72.9238851,9.89616353 L75.3970055,9.89616353 L76.2010589,6.73591231 L73.5422433,6.73591231 L74.1606016,3.28303975 L69.5538638,4.57069197 L69.2290537,6.80899367 L67.5134065,6.74330921 L66.8178316,9.90356043 L68.4872114,9.90356043 L67.3627247,16.2364897 C67.3627247,16.2364897 66.7559333,19.3840182 71.0031605,19.3840182 L73.1942996,19.3840182 L73.9595883,15.7190026 L72.2551953,15.6944449 C72.2551953,15.6944449 71.936325,15.7246242 71.8838052,15.4550812 C71.8509803,15.2864319 71.9885322,14.6656842 71.9885322,14.6656842" id="Fill-6" fill="#707070"></path>
                    <path d="M54.3659467,6.78712844 L52.0006794,19.1864027 L56.6846339,19.1864027 L58.0295163,12.7564261 C58.0295163,12.7564261 58.5928538,9.6464738 60.2090885,9.96927449 C61.7474813,10.2763937 61.0712888,12.5794923 61.0712888,12.5794923 L59.7070241,19.1864027 L64.4062969,19.1864027 L65.9134279,9.63996453 C65.9134279,9.63996453 66.6555829,6.30425886 62.5743558,6.30425886 C59.7686098,6.30425886 58.05265,8.71831089 58.05265,8.71831089 L58.37746,6.83091808 L54.3659467,6.78712844 Z" id="Fill-8" fill="#707070"></path>
                    <path d="M38.0020235,18.8679514 L40.3672908,6.46867713 L35.6833363,6.46867713 L34.338454,12.8986537 C34.338454,12.8986537 33.7751164,16.008606 32.1588817,15.6858053 C30.6204889,15.3786861 31.2966815,13.0755875 31.2966815,13.0755875 L32.6609461,6.46867713 L27.9616734,6.46867713 L26.4545423,16.0151153 C26.4545423,16.0151153 25.7123873,19.3508209 29.7936145,19.3508209 C32.5993604,19.3508209 34.3153202,16.9367689 34.3153202,16.9367689 L33.9905102,18.8241617 L38.0020235,18.8679514 Z" id="Fill-10" fill="#707070"></path>
                    <path d="M34.123154,0.181431144 L33.3844378,5.18498966 L28.7673836,5.31576683 C28.7673836,5.31576683 21.0010163,5.6720015 20.4404923,12.8327917 C20.4032908,13.3100396 20.3873472,13.8180587 20.3961005,14.3583282 C20.5352155,23.0050075 30.9697769,20.4592907 30.9697769,20.4592907 L31.3405418,24.7607355 C31.3405418,24.7607355 14.6145445,29.5009644 14.0580846,14.6657433 C13.5016247,-0.169773631 29.3310337,-0.462099088 34.123154,0.181431144" id="Fill-12" fill="#707070"></path>
                    <path d="M48.3480202,10.2794117 C48.2085926,11.4004857 44.945174,11.5472402 44.945174,11.5472402 C44.8104357,9.73707103 47.4567465,9.60274334 47.4567465,9.60274334 C47.4567465,9.60274334 48.4408678,9.53232485 48.3480202,10.2794117 M52.5805544,10.5107867 C52.5805544,9.72079785 52.2404261,6.29721701 47.6955866,6.30431803 C43.1510597,6.31171493 40.3374983,10.4229115 40.1211667,14.0219468 C39.9045225,17.621278 43.2126454,19.4060018 46.0568434,19.384107 C48.901354,19.3622122 51.0656079,18.4698502 51.0656079,18.4698502 L50.6945304,15.3678866 C50.6945304,15.3678866 49.1176856,16.0410044 47.1391267,16.0410044 C45.1605678,16.0410044 44.4803112,14.6657729 44.4803112,14.6657729 C52.7346751,14.6657729 52.5805544,11.3007755 52.5805544,10.5107867" id="Fill-14" fill="#707070"></path>
                    <g id="Group-18" transform="translate(35.638444, 20.361592)">
                        <mask id="mask-24" fill="white">
                            <use xlink:href="#path-23"></use>
                        </mask>
                        <g id="Clip-17"></g>
                        <path d="M48.1062103,2.46793104 C48.1062103,2.46793104 48.0133627,0.18554382 43.1902933,0.36099827 C38.3675364,0.536748595 41.7991435,0.956300719 38.4600713,0.351530239 C35.1209992,-0.253240242 26.9591702,0.624623758 25.7534028,0.975532657 C24.5476354,1.32673743 15.4579564,2.81913582 12.3974269,3.96032943 C9.33658467,5.10152304 9.5219671,5.54030711 8.1308173,5.89151188 C6.73935488,6.24271666 0.803365565,9.402672 0.246905644,9.92962711 C-0.309554277,10.4562863 2.47305795,9.22721756 2.93667034,9.05176311 C3.40059535,8.87601278 5.99751252,7.99814878 6.55397244,7.64723988 C7.11043237,7.29603511 9.38847924,7.29603511 10.7074143,6.68150072 C12.0263494,6.06696633 23.8054805,3.96032943 24.9187129,3.87245427 C26.0316328,3.78457911 28.35032,3.87245427 29.6489349,3.52124949 C30.9472371,3.17034059 36.4196141,3.17034059 38.4600713,3.34579504 C40.5005286,3.52124949 46.6222129,3.34579504 47.1786729,3.17034059 C47.7351328,2.99459027 48.1062103,2.46793104 48.1062103,2.46793104" id="Fill-16" fill="#707070" mask="url(#mask-24)"></path>
                    </g>
                </g>
                <g id="Group-10" transform="translate(0.976401, 65.378649)" fill="#707070">
                    <path d="M0.953389555,11.1312622 C2.09630041,11.6610858 3.69697398,12.0663305 5.53201409,12.0663305 C6.93921061,12.0663305 8.27210795,11.8210508 8.27210795,10.6862686 C8.27210795,8.04684581 0.400882913,9.71048201 0.400882913,4.55573045 C0.400882913,1.15283822 4.31929193,0.221647906 7.65278192,0.221647906 C9.25195954,0.221647906 10.8257059,0.423300778 11.9491693,0.748562985 L11.6629429,3.66186531 C10.5180375,3.21541748 9.23051749,3.01182564 7.96244494,3.01182564 C6.84446669,3.01182564 4.98648858,3.09520134 4.98648858,4.33323365 C4.98648858,6.62606559 12.8592096,5.08264552 12.8592096,10.1971635 C12.8592096,13.8642403 9.23051749,14.8569929 5.53201409,14.8569929 C3.98320035,14.8569929 2.04992575,14.6567943 0.568928706,14.2515496 L0.953389555,11.1312622 L0.953389555,11.1312622 Z" id="Fill-1"></path>
                    <polygon id="Fill-3" points="13.8036569 0.470369274 25.5738435 0.470369274 25.5738435 3.14033087 18.2586156 3.14033087 18.2586156 6.05799587 25.1664446 6.05799587 25.1664446 8.72650324 18.2586156 8.72650324 18.2586156 11.9393764 25.8351372 11.9393764 25.8351372 14.6083685 13.8036569 14.6083685"></polygon>
                    <path d="M27.6683822,14.6081262 L32.1253356,14.6081262 L32.1253356,9.02001482 L33.0533273,9.02001482 C34.7058608,9.02001482 35.2798094,9.6269124 36.1888524,12.057896 L37.1417768,14.6081262 L41.7812369,14.6081262 L40.1556307,10.7607251 C39.3313586,9.03746555 39.2381106,7.96521517 37.7965071,7.64189194 L37.7965071,7.60311254 C39.9551725,7.17896287 41.0088246,5.92590355 41.0088246,4.03249941 C41.0088246,1.6020006 38.5888655,0.470126902 35.6198902,0.470126902 L27.6683822,0.470126902 L27.6683822,14.6081262 Z M32.1253356,3.14057324 L33.294675,3.14057324 C34.9955777,3.14057324 36.5518712,3.38391397 36.5518712,4.70532198 C36.5518712,6.30788062 34.732788,6.35005322 33.294675,6.35005322 L32.1253356,6.35005322 L32.1253356,3.14057324 Z" id="Fill-5"></path>
                    <polygon id="Fill-7" points="41.1536332 0.470369274 45.8858426 0.470369274 49.5898312 11.5675789 49.641691 11.5675789 53.3850731 0.470369274 57.9527273 0.470369274 52.2616097 14.6083685 46.758484 14.6083685"></polygon>
                    <polygon id="Fill-9" points="58.9648916 14.6082231 63.4183544 14.6082231 63.4183544 0.470223851 58.9648916 0.470223851"></polygon>
                    <path d="M66.6464792,14.5787508 L71.099942,14.5787508 L71.099942,9.65667559 L72.8262759,9.65667559 C76.9915178,9.65667559 79.4593475,7.95959216 79.4593475,5.09137089 C79.4593475,1.89740267 77.0648197,0.442690478 71.961613,0.442690478 L66.6464792,0.442690478 L66.6464792,14.5787508 Z M71.099942,3.10925888 L72.249834,3.10925888 C73.7841868,3.10925888 75.0043888,3.5784896 75.0043888,5.02835437 C75.0043888,6.52039173 73.7841868,6.98768348 72.249834,6.98768348 L71.099942,6.98768348 L71.099942,3.10925888 Z" id="Fill-11"></path>
                    <path d="M76.8336944,14.5787508 L81.3514833,14.5787508 L82.6659305,11.5777101 L88.9295009,11.5777101 L90.1741368,14.5787508 L95.0494594,14.5787508 L88.6218325,0.442690478 L83.1705666,0.442690478 L76.8336944,14.5787508 Z M87.8793393,8.90920268 L83.696146,8.90920268 L85.835364,3.35744703 L85.8832346,3.35744703 L87.8793393,8.90920268 Z" id="Fill-12"></path>
                    <path d="M109.97786,14.1805348 C107.158979,14.7888866 105.055664,14.8271813 103.526796,14.8271813 C99.0843037,14.8271813 93.9511779,12.9269908 93.9511779,7.57204055 C93.9511779,2.23454107 98.3687378,0.190382015 104.48371,0.190382015 C105.581742,0.190382015 107.897981,0.294601649 109.522092,0.818123531 L109.16755,3.90205521 C107.781795,3.20838871 106.154195,2.98395294 105.106028,2.98395294 C101.498778,2.98395294 98.5387782,4.26900527 98.5387782,7.57397952 C98.5387782,10.3505845 100.853023,12.0365188 104.100745,12.0365188 C104.700125,12.0365188 105.274073,11.957021 105.676486,11.7917239 L105.676486,8.99088179 L103.076015,8.99088179 L103.076015,6.32188968 L109.97786,6.32188968 L109.97786,14.1805348 Z" id="Fill-13"></path>
                    <polygon id="Fill-14" points="0.939277698 18.484224 9.21590698 18.484224 9.21590698 20.3616316 4.07181084 20.3616316 4.07181084 22.4130618 8.92918196 22.4130618 8.92918196 24.2899847 4.07181084 24.2899847 4.07181084 26.5488847 9.39941099 26.5488847 9.39941099 28.4253228 0.939277698 28.4253228"></polygon>
                    <path d="M29.9040395,28.4267771 L33.0380686,28.4267771 L33.0380686,24.4974545 L33.6908043,24.4974545 C34.852664,24.4974545 35.2560736,24.9240279 35.8953457,26.6332299 L36.5655343,28.4267771 L39.827717,28.4267771 L38.6848061,25.7214293 C38.1048736,24.5095731 38.0395502,23.7553138 37.0257903,23.5279695 L37.0257903,23.5013087 C38.5436876,23.2031921 39.2846847,22.3214455 39.2846847,20.9903426 C39.2846847,19.2816254 37.5827848,18.4856782 35.4954267,18.4856782 L29.9040395,18.4856782 L29.9040395,28.4267771 Z M33.0380686,20.3630859 L33.8603461,20.3630859 C35.0566127,20.3630859 36.1506556,20.5342 36.1506556,21.4634513 C36.1506556,22.5904776 34.8716127,22.6200469 33.8603461,22.6200469 L33.0380686,22.6200469 L33.0380686,20.3630859 Z" id="Fill-15"></path>
                    <path d="M20.1932865,28.4261954 L23.3248223,28.4261954 L23.3248223,24.965134 L24.5385418,24.965134 C27.4676248,24.965134 29.2029345,23.7721828 29.2029345,21.7546846 C29.2029345,19.5088727 27.518986,18.486066 23.9306847,18.486066 L20.1932865,18.486066 L20.1932865,28.4261954 Z M23.3248223,20.3610499 L24.1331375,20.3610499 C25.2122209,20.3610499 26.0704013,20.6911596 26.0704013,21.710573 C26.0704013,22.7595558 25.2122209,23.0886959 24.1331375,23.0886959 L23.3248223,23.0886959 L23.3248223,20.3610499 Z" id="Fill-16"></path>
                    <polygon id="Fill-17" points="40.5291212 18.484224 48.8057505 18.484224 48.8057505 20.3616316 43.6616543 20.3616316 43.6616543 22.4130618 48.5190255 22.4130618 48.5190255 24.2899847 43.6616543 24.2899847 43.6616543 26.5488847 48.9892545 26.5488847 48.9892545 28.4253228 40.5291212 28.4253228"></polygon>
                    <path d="M50.5219618,25.9806211 C51.3257891,26.353388 52.4512471,26.6379319 53.7412604,26.6379319 C54.731085,26.6379319 55.6680525,26.4658483 55.6680525,25.6674774 C55.6680525,23.8118832 50.1335117,24.9815668 50.1335117,21.3566625 C50.1335117,18.9639736 52.8885651,18.3095713 55.2327291,18.3095713 C56.3571899,18.3095713 57.4636991,18.4511161 58.2535642,18.6799145 L58.0526073,20.7284363 C57.2477827,20.4143231 56.3422303,20.2713241 55.4506401,20.2713241 C54.6647643,20.2713241 53.3577968,20.329978 53.3577968,21.2005755 C53.3577968,22.812829 58.8938336,21.7274905 58.8938336,25.323795 C58.8938336,27.9021403 56.3422303,28.6001695 53.7412604,28.6001695 C52.652204,28.6001695 51.2928781,28.4595941 50.2516923,28.1750503 L50.5219618,25.9806211 Z" id="Fill-18"></path>
                    <path d="M60.1385692,25.9806211 C60.9423966,26.353388 62.0678546,26.6379319 63.3578679,26.6379319 C64.3476925,26.6379319 65.28466,26.4658483 65.28466,25.6674774 C65.28466,23.8118832 59.7501192,24.9815668 59.7501192,21.3566625 C59.7501192,18.9639736 62.5051726,18.3095713 64.8493366,18.3095713 C65.9737973,18.3095713 67.0803066,18.4511161 67.8701717,18.6799145 L67.6692148,20.7284363 C66.8643902,20.4143231 65.9588378,20.2713241 65.0672476,20.2713241 C64.2813718,20.2713241 62.9744043,20.329978 62.9744043,21.2005755 C62.9744043,22.812829 68.5104411,21.7274905 68.5104411,25.323795 C68.5104411,27.9021403 65.9588378,28.6001695 63.3578679,28.6001695 C62.2688115,28.6001695 60.9094856,28.4595941 59.8682998,28.1750503 L60.1385692,25.9806211 Z" id="Fill-19"></path>
                    <polygon id="Fill-20" points="9.59014546 28.2757798 13.0084063 23.2635425 10.0374365 18.6817566 13.5619103 18.6817566 14.7018292 20.7777831 15.8412495 18.6817566 19.3662219 18.6817566 16.3952521 23.2635425 19.8135129 28.2757798 16.1075298 28.2757798 14.7018292 25.8031084 13.2961286 28.2757798"></polygon>
                </g>
            </g>
        </g>
    </g>
</svg>