<?xml version="1.0" encoding="UTF-8" standalone="no"?>
<svg width="436px" height="159px" viewBox="0 0 436 159" version="1.1" xmlns="http://www.w3.org/2000/svg" xmlns:xlink="http://www.w3.org/1999/xlink">
    <!-- Generator: Sketch 39.1 (31720) - http://www.bohemiancoding.com/sketch -->
    <title>Group 37</title>
    <desc>Created with Sketch.</desc>
    <defs>
        <polygon id="path-1" points="0.00432265727 13.8107006 13.1453461 13.8107006 13.1453461 0.0907144965 0.00432265727 0.0907144965 0.00432265727 13.8107006"></polygon>
        <polygon id="path-3" points="8.40477643 0.166455286 0.0289658799 0.166455286 0.0289658799 12.8537813 8.40477643 12.8537813 8.40477643 0.166455286"></polygon>
        <polygon id="path-5" points="16.9716978 25.7591517 33.7970905 25.7591517 33.7970905 0.264188373 16.9716978 0.264188373 0.146305091 0.264188373 0.146305091 25.7591517"></polygon>
        <polygon id="path-7" points="0.150281034 11.0013894 9.46135048 11.0013894 9.46135048 0.227330837 0.150281034 0.227330837"></polygon>
        <polygon id="path-9" points="26.9754431 24.6426288 26.9754431 0.058935503 0.0679492135 0.058935503 0.0679492135 24.6426288 26.9754431 24.6426288"></polygon>
        <polygon id="path-11" points="0.0325274792 24.6487771 22.3424853 24.6487771 22.3424853 0.0556674629 0.0325274792 0.0556674629 0.0325274792 24.6487771"></polygon>
        <polygon id="path-13" points="22.3114394 24.6487771 0 24.6487771 0 0.0556674629 22.3114394 0.0556674629"></polygon>
        <polygon id="path-15" points="25.5223955 0.0556674629 0.071040804 0.0556674629 0.071040804 24.6400808 25.5223955 24.6400808 25.5223955 0.0556674629"></polygon>
    </defs>
    <g id="Page-2" stroke="none" stroke-width="1" fill="none" fill-rule="evenodd">
        <g id="1-Pago-Fácil-Desktop" transform="translate(-319.000000, -2071.000000)">
            <g id="Group-37" transform="translate(319.000000, 2071.000000)">
                <g id="Page-1" transform="translate(372.611111, 73.255814)">
                    <path d="M29.5215497,8.37809675 C29.5215497,8.84087637 29.5866409,9.1231477 29.7178285,9.22394159 C29.8495188,9.32255484 30.2176986,9.37367866 30.8261378,9.37367866 L31.3858213,9.37367866 C35.2251955,9.37367866 37.1465161,8.08904121 37.1465161,5.52049319 C37.1465161,2.78112862 35.4189611,1.41290009 31.9663643,1.41290009 C31.0402601,1.41290009 30.4202603,1.49842952 30.1010874,1.66706544 C29.7138075,1.87616429 29.5215497,2.31398773 29.5215497,2.97641677 L29.5215497,8.37809675 Z M37.0547853,9.59392299 C40.7624692,10.1836641 42.6139236,12.0345403 42.6139236,15.1424325 C42.6139236,16.9235283 41.8795745,18.3552376 40.4121329,19.4353798 C38.9416755,20.517218 37.0341773,21.055593 34.6896383,21.055593 C33.8364162,21.055593 27.3501684,21.0866065 25.6432214,21.0866065 L25.6432214,0.255951049 C26.78194,0.255951049 29.5260734,0.361833087 30.9977875,0.344630284 C38.9152871,0.255951049 41.2163482,2.00506416 41.2163482,5.32496275 C41.2163482,7.40238287 39.8298307,8.82343127 37.0547853,9.59392299 L37.0547853,9.59392299 Z M30.0586148,10.4077852 C29.6989797,10.4077852 29.5215497,10.5463767 29.5215497,10.8204101 L29.5215497,17.4580267 C29.5215497,19.0801782 30.6645407,19.8925866 32.9560517,19.8925866 C34.7755889,19.8925866 36.161855,19.4014587 37.1140962,18.4221105 C37.956763,17.5566399 38.3752063,16.4057482 38.3752063,14.9590167 C38.3752063,13.5498407 37.8843836,12.436989 36.9072621,11.6260343 C35.9256167,10.8141105 34.5210044,10.4077852 32.6856343,10.4077852 L30.0586148,10.4077852 Z" id="Fill-1" fill="#707070"></path>
                    <g id="Group-5" transform="translate(44.164989, 7.603656)">
                        <mask id="mask-2" fill="white">
                            <use xlink:href="#path-1"></use>
                        </mask>
                        <g id="Clip-4"></g>
                        <path d="M8.15228029,0.0907144965 C9.14573751,0.0907144965 10.0921984,0.213072458 10.9921656,0.459726724 C12.1944675,0.788276022 12.7943618,1.25347857 12.7943618,1.85460748 C12.7943618,3.41763958 12.4352294,4.19854989 11.7182212,4.19854989 C11.3646178,4.19854989 11.0082499,3.91627856 10.6413267,3.3512513 C10.6026238,3.2855899 10.5355221,3.17122761 10.4460531,3.01131423 C9.57096636,1.56167526 8.6715018,0.837703793 7.74338707,0.837703793 C6.3332458,0.837703793 5.23071688,1.56870175 4.43529768,3.02948621 C3.83565464,4.14500314 3.53633575,5.29613715 3.53633575,6.48628033 C3.53633575,7.96644822 3.93241179,9.22612949 4.72908758,10.264355 C5.56924126,11.3602462 6.73585609,11.9909348 8.23194787,12.1583593 C8.50362186,12.1886459 9.40132719,12.2812018 11.2809292,11.6442136 C11.7056554,11.5007761 12.0710707,11.2909504 12.4716704,11.1080192 C12.6722216,11.0135249 13.0808635,10.946652 13.1371586,11.2483068 C13.1979774,11.5712834 12.9072033,11.9180046 12.6873007,12.1254074 C12.3311841,12.4619524 11.0989754,13.5721389 7.88814583,13.7967445 C7.74539761,13.8083746 7.60591652,13.8107975 7.46668675,13.8107975 C5.03845916,13.8107975 3.14478343,13.0948217 1.78716746,11.6619009 C0.598939349,10.4157881 0.00432265727,8.88304262 0.00432265727,7.05639574 C0.00432265727,5.12798581 0.675842438,3.52182557 2.02340571,2.24082251 C3.51070139,0.808386341 5.55567012,0.0907144965 8.15228029,0.0907144965" id="Fill-3" fill="#707070" mask="url(#mask-2)"></path>
                    </g>
                    <g id="Group-35" transform="translate(58.805414, 2.840963)" fill="#707070">
                        <path d="M0.285067828,18.2359277 L3.47880786,18.2359277 L3.45794853,5.68175857 C3.45794853,5.68175857 2.88017009,5.66915933 1.93044208,5.59840978 C1.23655506,5.54510532 0.285570463,5.49567755 0.285570463,5.49567755" id="Fill-6"></path>
                        <path d="M0.289867988,1.79113884 C0.289867988,0.857341641 0.9807392,0.100176039 1.83546928,0.100176039 C2.69019936,0.100176039 3.38107057,0.857341641 3.38107057,1.79113884 C3.38107057,2.72105934 2.69019936,3.47774036 1.83546928,3.47774036 C0.9807392,3.47774036 0.289867988,2.72105934 0.289867988,1.79113884" id="Fill-8"></path>
                    </g>
                    <path d="M0.152549591,18.9310299 C0.891422403,16.81242 2.9969586,15.6283342 4.82579447,14.4774424 C6.17612223,13.6277209 7.5540949,12.8213698 8.91799379,11.993697 C9.41007303,11.6961612 9.89310485,11.3903874 10.3821683,11.0928516 C11.5425002,10.3872944 12.4653372,9.36433342 13.1353491,8.22289113 C13.4746275,7.64138795 13.7548462,7.03904757 14.0262689,6.42604629 C14.4037474,5.58020146 14.7068361,4.47389165 15.6276626,4.03703739 C16.2863652,3.72690236 17.1433572,3.89578057 17.6424733,4.40750337 C18.1292749,4.90759611 18.2421163,5.63956324 18.1109287,6.29399661 C17.8352336,7.67773189 17.0078971,8.92747915 15.9646791,9.89228985 C15.3519676,10.4590132 14.6595884,10.87818 13.9355434,11.2941971 C12.9775219,11.8439599 12.0172385,12.3879077 11.0526828,12.9279788 C9.78428447,13.6432277 8.52945727,14.3231018 7.34349101,15.1611933 C6.1479747,16.0053421 5.05198003,16.9328396 4.02560024,17.9596773 C3.26486283,18.7204773 2.7876113,19.62738 2.28372015,20.5553622 C2.1012638,20.8923917 1.92609566,21.3796429 1.59636738,21.613698 C1.36490416,21.7736113 0.984158481,21.8181932 0.73635964,21.6747558 C-0.147271928,21.1601255 -0.0846939244,19.739804 0.152549591,18.9310299" id="Fill-10" fill="#707070"></path>
                    <path d="M15.9381903,19.5263923 C15.3365367,19.0815423 15.545884,18.2747067 15.5046679,17.642322 C15.4556611,16.887337 15.3119076,16.0557875 14.9673516,15.3703406 C14.5926375,14.628924 13.7467035,14.4629533 13.076943,14.0651082 C12.4463879,13.6900387 12.4974053,12.9379612 13.1410289,12.6052929 C14.4740158,11.9188769 16.0158473,12.7465498 16.7298397,13.8717584 C17.1766818,14.5761041 17.4553927,15.389724 17.7215377,16.1696652 C17.9942169,16.9682629 18.353098,17.9977658 17.925356,18.797575 C17.5878369,19.430202 16.6127258,20.0238198 15.9381903,19.5263923" id="Fill-12" fill="#707070"></path>
                    <g id="Group-16" transform="translate(4.272394, 0.075935)">
                        <mask id="mask-4" fill="white">
                            <use xlink:href="#path-3"></use>
                        </mask>
                        <g id="Clip-15"></g>
                        <path d="M6.62168264,12.7599486 C3.56993688,11.5891888 0.391024561,9.33998297 0.053002815,5.92244031 C-0.032193744,5.05333534 0.118596626,4.17211573 0.355337507,3.3328128 C0.554380795,2.62677102 0.782074253,1.87130147 1.14648431,1.2272867 C1.78131177,0.103289503 3.30831558,-0.144333936 4.38621541,0.564615361 C5.65159793,1.39883013 4.857184,2.90468108 4.55158218,4.02237866 C4.34700991,4.76936796 4.16731806,5.53767904 4.03814097,6.30090196 C3.91022048,7.05709839 3.88961246,7.83558578 4.14947453,8.56949125 C4.36309422,9.17595061 4.75062547,9.72401736 5.25929165,10.1361577 C5.83330033,10.5991797 6.57192182,10.8390497 7.24168238,11.1411891 C7.70636804,11.3502879 8.64554073,11.6575154 8.34747843,12.3281824 C8.06550044,12.9603249 7.18915707,12.9048398 6.62168264,12.7599486" id="Fill-14" fill="#707070" mask="url(#mask-4)"></path>
                    </g>
                    <path d="M3.94613372,21.1229093 C4.02379076,21.4051806 4.29320288,21.7220998 5.11098932,21.7695893 C6.53595832,21.8522112 8.01797634,21.659346 9.47234946,21.3673829 C11.8963047,20.8830392 12.9083594,20.251866 12.9083594,20.251866 C12.9083594,20.251866 14.3898747,19.501 14.3107098,17.4436902 C14.2287804,15.3851689 12.7907429,14.4392571 12.7907429,14.4392571 C12.7907429,14.4392571 12.2129644,14.067095 11.2594667,14.3844988 C10.6095602,14.6052278 8.77243082,15.5991136 7.58445402,16.3003095 C6.94083046,16.6787712 6.30499774,17.1871019 5.773713,17.7017322 C5.24192563,18.2161202 4.62041799,18.8926023 4.19820495,19.8317299 C4.13085192,19.9780749 4.07958319,20.1115783 4.04314219,20.2339363 C3.96246934,20.494159 3.87048721,20.8529949 3.94613372,21.1229093" id="Fill-17" fill="#707070"></path>
                </g>
                <g id="Group-11" transform="translate(169.944444, 1.054264)">
                    <path d="M101.076011,6.67036375 C101.572579,3.7821974 100.228505,3.07350659 97.852051,3.07350659 L94.9842186,3.07350659 C93.1669301,3.07350659 92.7138242,3.20261648 92.4154296,4.86031213 L91.1495225,11.8545501 L95.5034902,11.8545501 C96.7531802,11.8545501 97.4998156,11.4691052 97.9879504,10.9501526 C98.234126,10.6891055 98.4160819,10.3909905 98.5646305,10.0806241 C98.6937187,9.81737816 98.7955621,9.5472212 98.8892969,9.29339931 C98.9000002,9.26544121 98.9450837,9.16177633 98.9567601,9.13193341 L100.140609,9.1108863 L98.7621548,16.7500455 L97.5633866,16.7500455 C97.9088109,14.7427164 97.316238,13.6881619 95.1995817,13.6881619 L90.8206397,13.6881619 L89.3996972,21.5638655 C89.0510295,23.489205 89.4489972,23.5344406 91.2614205,23.5344406 L95.344887,23.5344406 C97.3820794,23.5344406 98.5036542,22.7987341 99.2188284,20.0924525 L100.406245,20.0852273 L99.337862,25.3680524 L84.5005105,25.3680524 L87.9680513,6.14921213 C88.2917447,4.36806103 88.4094809,3.53183101 88.0741112,3.05811392 C87.7611211,2.61581044 87.0368653,2.47130788 85.5666228,2.22722421 C85.4933215,2.21654359 85.2445511,2.16753837 85.1676821,2.15371639 L85.364882,1.23989478 L103.14207,1.23989478 L102.273158,6.67036375 L101.076011,6.67036375" id="Fill-1" fill="#707070"></path>
                    <path d="M108.410358,14.6635542 C108.832327,14.9268001 109.288027,15.1935016 109.741133,15.4705695 C111.554854,16.596433 113.361439,18.0012491 112.859033,20.7778972 C112.220728,24.325435 108.9319,25.7591517 105.274619,25.7591517 C104.148179,25.7591517 103.196235,25.6532879 102.424625,25.5182094 C101.690964,25.3912984 100.958275,25.1971624 100.556415,25.090042 L101.128554,22.1176872 C102.230993,22.9564303 103.716804,24.0342309 105.703399,24.0342309 C107.986443,24.0342309 108.995795,22.9177916 109.215699,21.715279 C109.36814,20.8781066 109.005201,20.2341278 108.366896,19.6576882 C108.046446,19.368369 107.661776,19.0978979 107.24078,18.8277409 C106.815568,18.5600971 106.360192,18.2946522 105.906437,18.0197832 C104.097582,16.9165375 102.2644,15.6065904 102.718155,13.0957014 C103.188775,10.4864878 105.428357,8.2573788 109.801137,8.2573788 C110.744648,8.2573788 111.602857,8.37392325 112.301165,8.50648864 C112.854168,8.61486556 113.307274,8.73109588 113.61994,8.81025815 C113.673781,8.82784977 113.842114,8.8708864 113.890441,8.88376597 L113.385441,11.7533983 C113.123697,11.5589481 112.950174,11.4182152 112.727999,11.2595765 C112.486364,11.0836604 112.190889,10.8838699 111.843194,10.6938176 C111.152021,10.3155978 110.273379,9.9835561 109.260458,9.9835561 C108.094124,9.9835561 106.679669,10.4054407 106.41533,11.8746548 C106.268403,12.6844974 106.636207,13.2961202 107.275485,13.8559105 C107.596584,14.136434 107.986443,14.3984234 108.410358,14.6635542" id="Fill-2" fill="#707070"></path>
                    <path d="M118.377065,8.64722157 L118.87493,5.87088763 L123.321335,2.55643874 L122.221167,8.64722157 L127.037646,8.64722157 L126.750604,10.2307811 L121.935421,10.2307811 L120.078239,20.5287874 C119.627403,23.0164303 119.617673,24.0342309 122.360958,24.0342309 C122.787468,24.0342309 123.336579,23.9852257 123.780279,23.8875294 L123.509778,25.4673194 C122.585403,25.6256439 121.775196,25.7591517 120.973423,25.7591517 C117.432581,25.7591517 115.386631,25.2109844 116.135861,21.0713002 L118.092292,10.2307811 L115.22219,10.2307811 L115.508259,8.64722157 L118.377065,8.64722157" id="Fill-3" fill="#707070"></path>
                    <path d="M135.122196,16.0243913 L135.489027,14.2689994 C135.908077,11.9685815 136.306045,9.62638347 134.109925,9.62638347 C131.853801,9.62638347 131.291392,11.4552832 130.99689,12.9964344 C130.988457,13.0454397 130.965753,13.1921412 130.956023,13.2420888 L126.390908,13.2584239 C127.28966,10.7406238 128.996024,8.2573788 134.290259,8.2573788 C139.587413,8.2573788 139.936405,10.9300479 139.296478,14.473816 L137.33129,25.3680524 L133.487512,25.3680524 L133.838775,23.4204092 C133.597789,23.6522416 133.44405,23.7967441 133.269879,23.9528697 C132.96597,24.2211419 132.60141,24.5126601 132.175873,24.7803039 C131.317988,25.3177906 130.204846,25.7591517 128.768335,25.7591517 C125.862231,25.7591517 124.111757,23.7288908 124.501291,21.5704623 C125.407503,16.5577942 132.655575,16.1051243 135.122196,16.0243913 M128.818933,20.992138 C128.52443,22.613708 129.160465,23.6789431 130.44194,23.6789431 C132.518703,23.6789431 134.124844,21.8387345 134.557192,19.433081 L134.912671,17.4634483 C133.320476,17.5184221 129.390748,17.8174796 128.818933,20.992138 M128.818933,20.992138 C128.52443,22.613708 129.160465,23.6789431 130.44194,23.6789431 C132.518703,23.6789431 134.124844,21.8387345 134.557192,19.433081 L134.912671,17.4634483 C133.320476,17.5184221 129.390748,17.8174796 128.818933,20.992138 M135.122196,16.0243913 L135.489027,14.2689994 C135.908077,11.9685815 136.306045,9.62638347 134.109925,9.62638347 C131.853801,9.62638347 131.291392,11.4552832 130.99689,12.9964344 C130.988457,13.0454397 130.965753,13.1921412 130.956023,13.2420888 L126.390908,13.2584239 C127.28966,10.7406238 128.996024,8.2573788 134.290259,8.2573788 C139.587413,8.2573788 139.936405,10.9300479 139.296478,14.473816 L137.33129,25.3680524 L133.487512,25.3680524 L133.838775,23.4204092 C133.597789,23.6522416 133.44405,23.7967441 133.269879,23.9528697 C132.96597,24.2211419 132.60141,24.5126601 132.175873,24.7803039 C131.317988,25.3177906 130.204846,25.7591517 128.768335,25.7591517 C125.862231,25.7591517 124.111757,23.7288908 124.501291,21.5704623 C125.407503,16.5577942 132.655575,16.1051243 135.122196,16.0243913" id="Fill-4" fill="#FFFFFF"></path>
                    <g id="Group-8" transform="translate(140.115766, 0.000000)">
                        <mask id="mask-6" fill="white">
                            <use xlink:href="#path-5"></use>
                        </mask>
                        <g id="Clip-6"></g>
                        <path d="M12.2909421,15.9442866 C12.6590703,13.9184236 12.8896775,10.3375874 9.5061412,10.3375874 C6.2027174,10.3375874 5.13660508,14.3450203 4.6825262,16.8631344 C4.17849866,19.6536045 3.76625991,23.6789431 7.10471265,23.6789431 C10.5550634,23.6789431 11.6837737,19.3143376 12.029198,17.4031342 L12.2909421,15.9442866 L12.2909421,15.9442866 Z M18.9678475,0.264188373 L14.4354917,25.3680524 L10.5913897,25.3680524 L10.9303272,23.493917 C10.6241483,23.738629 10.4013253,23.9117179 10.1587174,24.0926602 C9.79545431,24.3568486 9.38678333,24.6301469 8.92783932,24.8767437 C8.0067079,25.3727644 6.88675479,25.7591517 5.54689777,25.7591517 C0.675928836,25.7591517 -0.416455195,21.7894151 0.385318358,17.333396 C1.20493072,12.8032408 3.9034566,8.2573788 8.82080645,8.2573788 C11.7415066,8.2573788 12.6934505,9.64994367 13.2023432,10.8138175 C13.2646169,10.6567495 13.3317557,10.3143413 13.4134899,9.85821584 L13.7524273,7.91245747 C13.9908188,6.52963082 14.2343996,5.18827011 14.2343996,5.18827011 C14.6651259,2.79863759 14.2609957,2.19581061 12.3944072,2.0560201 C12.3331065,2.05099392 12.0853092,2.02931854 12.0191434,2.0255489 L12.2010993,1.17832412 L18.9678475,0.264188373 L18.9678475,0.264188373 Z" id="Fill-5" fill="#707070" mask="url(#mask-6)"></path>
                        <path d="M27.121158,8.2573788 C32.5230749,8.2573788 34.5083726,11.8825082 33.5755649,17.0374799 C32.5230749,22.8731843 29.4804221,25.7591517 23.9925546,25.7591517 C17.9957944,25.7591517 16.6251249,22.0221899 17.5277688,17.0117207 C18.6049088,11.0340269 21.7023754,8.2573788 27.121158,8.2573788 M29.3701458,17.0117207 C29.9698543,13.6847064 30.3519292,9.62638347 26.9022272,9.62638347 C23.3441948,9.62638347 22.3059759,13.8788425 21.7364313,17.0374799 C21.1931584,20.0503582 20.6858874,24.390147 24.2085664,24.390147 C27.7315698,24.390147 28.7217861,20.5985255 29.3701458,17.0117207 M29.3701458,17.0117207 C29.9698543,13.6847064 30.3519292,9.62638347 26.9022272,9.62638347 C23.3441948,9.62638347 22.3059759,13.8788425 21.7364313,17.0374799 C21.1931584,20.0503582 20.6858874,24.390147 24.2085664,24.390147 C27.7315698,24.390147 28.7217861,20.5985255 29.3701458,17.0117207 M27.121158,8.2573788 C32.5230749,8.2573788 34.5083726,11.8825082 33.5755649,17.0374799 C32.5230749,22.8731843 29.4804221,25.7591517 23.9925546,25.7591517 C17.9957944,25.7591517 16.6251249,22.0221899 17.5277688,17.0117207 C18.6049088,11.0340269 21.7023754,8.2573788 27.121158,8.2573788" id="Fill-7" fill="#E05431" mask="url(#mask-6)"></path>
                    </g>
                    <path d="M6.67593246,11.7103617 L9.04395378,11.7103617 C12.1858552,11.7103617 14.7410219,10.7264877 15.3673264,7.25371429 C15.9323303,4.11989359 14.3180799,3.07350659 10.9971416,3.07350659 C8.79842684,3.07350659 8.21525983,3.17842801 7.9126487,4.86031213 L6.67593246,11.7103617 L6.67593246,11.7103617 Z M19.605504,7.10512796 C18.9924975,10.5087915 16.2871605,11.9117228 14.3754884,12.5205184 C16.8002696,13.0595758 19.5322027,14.4427166 18.7210232,18.929521 C18.1391536,22.1516139 15.9563316,23.7628174 13.5500379,24.5670056 C12.3502967,24.9662724 11.0905521,25.1692043 9.944976,25.2669006 C8.80102158,25.3680524 7.76474872,25.3680524 7.00773438,25.3680524 L0,25.3680524 L3.47013561,6.14921213 C3.7909099,4.36806103 3.91610594,3.5308886 3.58527704,3.05811392 C3.25963762,2.59005129 2.34272264,2.3946587 0.700903174,2.12952792 L0.862749858,1.23989478 L11.8527559,1.23989478 C16.0656349,1.23989478 20.4916065,2.19895197 19.605504,7.10512796 L19.605504,7.10512796 Z M4.78988342,22.167949 C4.54565386,23.512451 5.88972732,23.5344406 7.97524672,23.5344406 C11.978925,23.5344406 13.9888727,21.8176873 14.6375568,18.2239716 C15.2602935,14.77413 12.8407018,13.5449159 9.62160697,13.5449159 L6.34510356,13.5449159 L4.78988342,22.167949 L4.78988342,22.167949 Z" id="Fill-9" fill="#707070"></path>
                    <path d="M29.6542695,16.0243913 L30.0230464,14.2689994 C30.4391772,11.9685815 30.8394153,9.62638347 28.6410249,9.62638347 C26.4147411,9.62638347 25.8354662,11.4100477 25.5399905,12.9408324 C25.5253951,13.0083716 25.5036642,13.1783192 25.4916636,13.2446019 L20.9216841,13.2584239 C21.823355,10.7406238 23.5264751,8.2573788 28.8223321,8.2573788 C34.1230543,8.2573788 34.4694516,10.9300479 33.829849,14.473816 L31.8623902,25.3680524 L28.0182882,25.3680524 L28.371821,23.4204092 C28.1288888,23.6522416 27.9751507,23.7967441 27.8045467,23.9528697 C27.4977192,24.2195712 27.133483,24.5126601 26.7079463,24.7803039 C25.8500615,25.3177906 24.7369196,25.7591517 23.3004087,25.7591517 C20.3939795,25.7591517 18.6451272,23.7288908 19.034662,21.5704623 C19.9395763,16.5577942 27.1876482,16.1051243 29.6542695,16.0243913 M23.3497087,20.992138 C23.0565034,22.613708 23.6899435,23.6789431 24.9736893,23.6789431 C27.0481811,23.6789431 28.6556203,21.8387345 29.0892656,19.433081 L29.4450688,17.4634483 C27.8525494,17.5184221 23.9221724,17.8174796 23.3497087,20.992138" id="Fill-10" fill="#707070"></path>
                    <path d="M135.545282,15.9345484 L135.914059,14.1791565 C136.33019,11.8787386 136.730428,9.53654058 134.532037,9.53654058 C132.305753,9.53654058 131.726479,11.3202048 131.431003,12.8509895 C131.416408,12.9185287 131.394677,13.0884763 131.382676,13.154759 L126.812697,13.168581 C127.714367,10.650781 129.417488,8.1675359 134.713345,8.1675359 C140.014067,8.1675359 140.360464,10.840205 139.720861,14.3839731 L137.753403,25.2782095 L133.909301,25.2782095 L134.262833,23.3305663 C134.019901,23.5623987 133.866163,23.7069012 133.695559,23.8630268 C133.388732,24.1297283 133.024495,24.4228172 132.598959,24.690461 C131.741074,25.2279477 130.627932,25.6693088 129.191421,25.6693088 C126.284992,25.6693088 124.53614,23.6390479 124.925674,21.4806194 C125.830589,16.4679513 133.078661,16.0152814 135.545282,15.9345484 M129.240721,20.9022951 C128.947516,22.5238651 129.580956,23.5891002 130.864702,23.5891002 C132.939194,23.5891002 134.546633,21.7488916 134.980278,19.3432381 L135.336081,17.3736054 C133.743562,17.4285792 129.813185,17.7276367 129.240721,20.9022951" id="Fill-10" fill="#707070"></path>
                    <path d="M47.1924172,16.0510929 C47.7081211,13.1773768 48.1109539,10.8386343 45.7656366,10.8386343 C43.3985883,10.8386343 40.7217933,14.0977952 40.2686875,16.6137104 L38.6907634,25.3680524 L34.8456884,25.3680524 L37.013915,13.3448113 C37.4443169,10.9768541 37.0054821,10.3787392 34.957262,10.2769591 C34.9034212,10.2760167 34.6773548,10.2493152 34.6209193,10.2480586 L34.7853607,9.40523173 L41.7807701,8.23978718 L40.9877538,12.6367487 C42.17517,10.9444981 44.5915183,8.2573788 47.8942934,8.2573788 C51.3199942,8.2573788 52.0170053,10.6155977 51.5184915,13.3689997 L49.3551301,25.3680524 L45.5084333,25.3680524 L47.1924172,16.0510929" id="Fill-11" fill="#707070"></path>
                    <path d="M63.0696094,13.2936071 C63.3553547,11.6519324 63.3242179,9.62638347 61.182263,9.62638347 C58.7616982,9.62638347 57.7396964,12.1759112 57.1182571,15.614758 C56.1702052,20.872138 58.1470701,23.6789431 61.4118971,23.6789431 C62.4939022,23.6789431 63.9456573,23.4848071 64.8797624,23.2206187 C64.9121966,23.2108805 65.026365,23.1738124 65.0575018,23.163446 L64.7629992,24.9072149 C64.0033901,25.1575813 63.4711448,25.3507749 62.6943456,25.5043874 C61.901005,25.6627119 60.9020314,25.7591517 59.3743804,25.7591517 C54.1602576,25.7591517 51.7238001,22.17486 52.7010427,16.7638674 C53.583253,11.8617752 56.3070776,8.2573788 61.6220708,8.2573788 C65.610505,8.2573788 67.9866349,10.1597864 67.6262909,12.9800994 C67.618831,13.0454397 67.5948297,13.2200993 67.5838021,13.2854396 L63.0696094,13.2936071" id="Fill-12" fill="#707070"></path>
                    <path d="M77.3083095,7.85339991 C82.708929,7.85339991 84.6958484,11.4785293 83.7656354,16.633501 C82.708929,22.4692054 79.6678979,25.3551728 74.1784087,25.3551728 C68.1842432,25.3551728 66.8142224,21.618211 67.7152446,16.6077419 C68.7959523,10.630048 71.8937432,7.85339991 77.3083095,7.85339991 M79.5585946,16.6077419 C80.15733,13.2807275 80.5407024,9.22240458 77.0897029,9.22240458 C73.5332923,9.22240458 72.4931274,13.4748636 71.9239071,16.633501 C71.3799854,19.6463793 70.8733631,23.9861681 74.3960422,23.9861681 C77.9190455,23.9861681 78.9108835,20.1945467 79.5585946,16.6077419" id="Fill-1" fill="#707070"></path>
                    <path d="M167.151058,7.85339991 C172.551677,7.85339991 174.538597,11.4785293 173.608384,16.633501 C172.551677,22.4692054 169.510646,25.3551728 164.021157,25.3551728 C158.026992,25.3551728 156.656971,21.618211 157.557993,16.6077419 C158.638701,10.630048 161.736492,7.85339991 167.151058,7.85339991 M169.401343,16.6077419 C170.000078,13.2807275 170.383451,9.22240458 166.932451,9.22240458 C163.376041,9.22240458 162.335876,13.4748636 161.766655,16.633501 C161.222734,19.6463793 160.716112,23.9861681 164.238791,23.9861681 C167.761794,23.9861681 168.753632,20.1945467 169.401343,16.6077419" id="Fill-1-Copy" fill="#707070"></path>
                </g>
                <g id="Group-20" transform="translate(1.055556, 0.000000)" fill="#707070">
                    <g id="Page-1" transform="translate(0.305482, 0.619246)">
                        <path d="M135.251301,25.7463545 L135.251301,26.5709593 L140.927208,26.5709593 L140.927208,25.6890655 L140.085278,25.6890655 C139.654914,25.6890655 139.21629,25.1425942 139.21629,24.694078 L139.21629,18.4326621 C139.268697,18.2501092 139.331643,18.0720088 139.405696,17.9143899 C139.769412,17.1399501 140.63897,16.167522 141.824963,15.8050877 C143.010672,15.4426534 143.721869,16.8267902 143.721869,16.8267902 L144.16448,16.8431161 L144.16448,14.1573623 C144.16448,14.1573623 143.295208,13.7783053 142.488595,13.794928 C141.682553,13.8115507 140.90784,14.3713796 140.291204,14.9976993 C139.927772,15.3669607 139.50282,16.183551 139.21629,16.7905765 L139.21629,13.803833 L138.863113,13.803833 C137.774243,14.6046911 136.556634,15.4815386 135.251301,15.8270534 L135.251301,16.7659393 C135.251301,16.7659393 136.183519,16.2061104 136.663727,16.4809787 C137.143365,16.7552533 137.152479,17.2871797 137.152479,17.8176221 L137.152479,24.6658788 C137.152479,25.3132737 136.685943,25.6656157 136.256149,25.6896592 L135.251301,25.7463545 Z M125.523535,18.3513296 L132.130521,18.3513296 C132.085804,16.6869814 130.873892,14.7982268 128.976701,14.8611556 C127.07951,14.9237876 125.558568,16.2645867 125.523535,18.3513296 L125.523535,18.3513296 Z M129.151296,13.7397168 C132.156154,13.7397168 134.318229,16.0395865 134.452094,19.3905453 L125.550308,19.3905453 C125.550308,19.3905453 125.508154,20.6707903 126.016559,22.3039708 C126.524679,23.9374482 127.329868,24.9089858 129.151296,25.5269942 C130.972155,26.1447057 134.022869,24.5557534 134.022869,24.5557534 L133.984703,25.5213543 C132.782475,26.5843168 130.80468,26.9396271 129.151296,26.9396271 C125.907758,26.9396271 123.178321,23.9505089 123.178321,20.3395236 C123.178321,16.7282414 125.907758,13.7397168 129.151296,13.7397168 L129.151296,13.7397168 Z M118.260037,16.8164011 L118.260037,23.6774217 C117.656217,24.5955292 116.682985,25.1734649 115.282806,25.1734649 C112.562768,25.1734649 110.804285,22.9020913 110.804285,20.0085537 C110.804285,17.1147192 112.310132,14.8344406 115.234671,14.9312084 C116.74593,14.9816702 117.690395,15.7374095 118.260037,16.8164011 L118.260037,16.8164011 Z M118.873256,26.9396271 L122.534911,25.375312 L122.548013,24.5070726 L121.193121,24.8947378 C120.778422,25.0128777 120.323848,24.3476728 120.323848,23.8991566 L120.323848,4.44406394 L119.970955,4.44406394 C118.8818,5.24551568 117.664192,5.77655167 116.358859,6.12206643 L116.358859,7.06065547 C116.358859,7.06065547 117.291362,6.50112342 117.771285,6.77599168 C118.251207,7.05026628 118.260037,7.58189594 118.260037,8.11204143 L118.260037,14.8338469 C117.446019,14.1852647 116.32411,13.8545916 114.875228,13.8721048 C111.238637,13.9163331 108.733069,16.8071992 108.733069,20.4057175 C108.733069,24.0042359 110.815393,26.9393303 114.197924,26.9393303 C115.893177,26.9393303 117.282817,26.1467835 118.268866,24.8644607 C118.295355,25.7644614 118.40558,26.136988 118.873256,26.9396271 L118.873256,26.9396271 Z M93.6988077,25.7463545 L93.6988077,26.5709593 L99.3747148,26.5709593 L99.3747148,25.6890655 L98.5325,25.6890655 C98.1024207,25.6890655 97.6637968,25.1425942 97.6637968,24.694078 L97.6637968,16.9805502 C98.521392,16.4227992 100.157117,15.4337484 100.983382,15.4352325 C102.134343,15.437904 103.447936,16.6308798 103.447936,17.9764282 L103.447936,24.6658788 C103.447936,25.3132737 102.981399,25.6656157 102.551605,25.6896592 L101.547327,25.7463545 L101.547327,26.5709593 L107.222665,26.5709593 L107.222665,25.6890655 L106.381019,25.6890655 C105.951225,25.6890655 105.512316,25.1425942 105.512316,24.694078 L105.512316,17.7965469 C105.512316,16.1419942 103.813076,13.7934438 101.671224,13.8424214 C99.8648913,13.8836813 98.5883249,15.0119473 97.6637968,16.0713478 L97.6637968,13.803833 L97.3103343,13.803833 C96.2217496,14.6046911 95.004141,15.1357271 93.6988077,15.4812418 L93.6988077,16.419534 C93.6988077,16.419534 94.6310259,15.8602988 95.1112336,16.1348702 C95.5911565,16.4094417 95.5997011,16.9407745 95.5997011,17.4715136 L95.5997011,24.6658788 C95.5997011,25.3135706 95.1334496,25.6656157 94.7033704,25.6896592 L93.6988077,25.7463545 Z M88.9554036,20.1445036 L88.9827464,24.1823363 C88.9836009,24.3010699 86.8201028,25.8309522 85.5609104,25.0921324 C84.3020029,24.352719 84.1758273,23.1158118 84.7192652,22.2772558 C85.2624183,21.4384029 88.9554036,20.1445036 88.9554036,20.1445036 L88.9554036,20.1445036 Z M85.0724429,17.6991853 L83.3344669,18.5234933 C83.3344669,18.5234933 82.7642558,17.243842 82.9542312,16.5614207 C83.1442067,15.8789993 84.0069286,15.1280094 85.0112064,14.4862543 C86.0157691,13.8439056 87.2020473,13.7174543 88.2769607,13.9172236 C89.351874,14.1172897 91.0197841,14.9086491 91.0197841,16.5614207 L91.0197841,23.3577315 C91.0197841,23.3577315 91.0465573,24.694078 91.399735,24.8362615 C91.7529126,24.978445 92.3501817,24.9217497 92.5674999,24.8077655 C92.7848181,24.694078 92.9477355,24.5803906 92.9477355,24.5803906 L92.9747935,25.2628119 L90.5578049,26.5421664 C90.5578049,26.5421664 89.9462949,26.9544688 89.5803003,26.6849435 C89.2143056,26.4151215 89.078731,25.7757411 89.0371472,25.2628119 C89.0371472,25.2628119 87.8426091,26.2865923 86.7292449,26.5709593 C85.6161656,26.8553262 84.095223,27.0545018 83.2800661,26.1729049 C82.4649093,25.2910112 81.9223258,24.0971449 82.5198797,22.7602047 C83.1171487,21.4238581 84.8010087,20.6847415 85.7514554,20.3148863 C86.7019022,19.945328 88.9283456,19.0922272 88.9283456,19.0922272 C88.9283456,19.0922272 88.9380296,17.5035717 88.9012877,16.8742837 C88.8648306,16.2449956 88.3997184,15.1772838 87.4623735,14.9976993 C86.5244589,14.8184115 85.6697119,15.0831874 85.2624183,15.5379371 C84.8551247,15.9929836 84.7463232,16.4477332 84.8007239,16.7890923 C84.8551247,17.1307482 85.0724429,17.6991853 85.0724429,17.6991853 L85.0724429,17.6991853 Z M77.0575881,10.0203871 L77.0575881,13.9706537 L81.380312,13.9706537 L80.9416881,15.2764264 L77.0575881,15.2764264 L77.0575881,21.7396894 C77.0575881,21.7396894 76.9012215,23.9923625 78.3105144,24.7430556 C79.7198073,25.4940456 81.4426877,24.2206278 81.4426877,24.2206278 L81.9129267,24.8083591 L79.9080738,26.5709593 C79.9080738,26.5709593 78.1228175,26.8333605 76.838561,26.212087 C75.5540196,25.5905167 74.9590291,24.386558 74.9590291,22.2621172 L74.9590291,15.2434778 L72.3281402,15.2434778 L72.3281402,14.9822639 C74.0715278,13.7515902 75.5756659,12.1759954 76.6505793,9.98803218 L77.0575881,10.0203871 Z M58.4092369,25.7463545 L58.4092369,26.5709593 L64.085144,26.5709593 L64.085144,25.6890655 L63.2429292,25.6890655 C62.8134195,25.6890655 62.374226,25.1425942 62.374226,24.694078 L62.374226,16.9805502 C63.2318212,16.4227992 64.8675465,15.4337484 65.6935266,15.4352325 C66.8450567,15.437904 68.1586498,16.6308798 68.1586498,17.9764282 L68.1586498,24.6658788 C68.1586498,25.3132737 67.6921135,25.6656157 67.2626039,25.6896592 L66.2577564,25.7463545 L66.2577564,26.5709593 L71.9333787,26.5709593 L71.9333787,25.6890655 L71.0917335,25.6890655 C70.6616542,25.6890655 70.2227455,25.1425942 70.2227455,24.694078 L70.2227455,17.7965469 C70.2227455,16.1419942 68.5235051,13.7934438 66.3819382,13.8424214 C64.5756053,13.8836813 63.298754,15.0119473 62.374226,16.0713478 L62.374226,13.803833 L62.0207635,13.803833 C60.9321788,14.6046911 59.7145702,15.1357271 58.4092369,15.4812418 L58.4092369,16.419534 C58.4092369,16.419534 59.3414551,15.8602988 59.8216628,16.1348702 C60.3018705,16.4094417 60.3104151,16.9407745 60.3104151,17.4715136 L60.3104151,24.6658788 C60.3104151,25.3135706 59.8438788,25.6656157 59.4140844,25.6896592 L58.4092369,25.7463545 Z M53.7928628,20.1445036 L53.8199208,24.1823363 C53.8210601,24.3010699 51.6569923,25.8309522 50.3980848,25.0921324 C49.1391772,24.352719 49.0130017,23.1158118 49.5564396,22.2772558 C50.0995927,21.4384029 53.7928628,20.1445036 53.7928628,20.1445036 L53.7928628,20.1445036 Z M49.9093324,17.6991853 L48.1713565,18.5234933 C48.1713565,18.5234933 47.6011454,17.243842 47.7914056,16.5614207 C47.9810962,15.8789993 48.8435333,15.1280094 49.848096,14.4862543 C50.8529435,13.8439056 52.0392217,13.7174543 53.1141351,13.9172236 C54.1887636,14.1172897 55.8566737,14.9086491 55.8566737,16.5614207 L55.8566737,23.3577315 C55.8566737,23.3577315 55.8834468,24.694078 56.2366245,24.8362615 C56.590087,24.978445 57.1873561,24.9217497 57.4046743,24.8077655 C57.6219925,24.694078 57.7846251,24.5803906 57.7846251,24.5803906 L57.8119679,25.2628119 L55.3949793,26.5421664 C55.3949793,26.5421664 54.7831844,26.9544688 54.4171898,26.6849435 C54.0511952,26.4151215 53.9159054,25.7757411 53.8743215,25.2628119 C53.8743215,25.2628119 52.6794987,26.2865923 51.5664193,26.5709593 C50.4530552,26.8553262 48.9323974,27.0545018 48.1172405,26.1729049 C47.3023685,25.2910112 46.7595002,24.0971449 47.3567692,22.7602047 C47.9543231,21.4238581 49.6378983,20.6847415 50.5886298,20.3148863 C51.5390765,19.945328 53.7652352,19.0922272 53.7652352,19.0922272 C53.7652352,19.0922272 53.7749191,17.5035717 53.7381772,16.8742837 C53.7014354,16.2449956 53.2368928,15.1772838 52.299263,14.9976993 C51.3616332,14.8184115 50.5066015,15.0831874 50.0995927,15.5379371 C49.6922991,15.9929836 49.5832127,16.4477332 49.6376135,16.7890923 C49.6922991,17.1307482 49.9093324,17.6991853 49.9093324,17.6991853 L49.9093324,17.6991853 Z M43.1080987,11.6921561 L44.1240542,11.6921561 L44.1240542,6.96804327 C44.1240542,6.96804327 40.9195364,6.11227091 39.1610533,6.11227091 C37.4022854,6.11227091 35.6193078,6.64301006 34.4714803,7.94522073 C33.3236528,9.2474314 33.064466,10.2670561 32.9864251,11.1629011 C32.9083842,12.0590429 33.0251607,14.0950271 34.5102159,15.3170926 C35.9958407,16.5385644 39.3957456,18.0862568 40.1379883,18.4938099 C40.8802311,18.9007693 42.052838,19.7155785 42.443612,20.7337191 C42.834386,21.7515628 42.6780194,23.2588857 42.1311637,24.1140644 C41.5837383,24.9692431 40.1767239,25.9470143 38.8873406,25.9470143 C37.5976724,25.9470143 36.0735968,25.6617568 35.2530283,24.6433194 C34.4324599,23.6251789 34.1977676,23.0552576 34.0804215,22.6073352 C33.9633602,22.1594127 33.9243397,21.6705271 33.9243397,21.6705271 L33.0248759,21.6705271 L33.0248759,26.3545673 C33.0248759,26.3545673 36.0345764,26.8425624 37.3242445,26.9241917 C38.6139127,27.0058211 40.4897419,26.9241917 41.7013692,26.1910118 C42.9121421,25.4581287 44.4755229,24.0733982 44.7492356,22.1594127 C45.0229483,20.2448335 44.6709099,19.1860267 44.0064232,18.2492187 C43.3425061,17.3127075 42.443612,16.4978982 41.2710051,15.8870139 C40.0986831,15.2764264 37.7147337,14.3393215 36.8551448,13.6067352 C35.9958407,12.8732585 35.0186209,11.0815686 35.2530283,9.81883681 C35.4874358,8.5564019 36.6597578,7.66055694 37.7933442,7.45633517 C38.9266459,7.25330072 40.0986831,7.13070829 41.2710051,7.94522073 C42.443612,8.76003001 42.7953656,9.7375043 42.9121421,10.4297211 C43.029773,11.1222348 43.1080987,11.6921561 43.1080987,11.6921561 L43.1080987,11.6921561 Z" id="Fill-1"></path>
                        <path d="M13.7748125,26.0816738 C21.3615818,26.0816738 27.5495965,22.8734922 27.5495965,18.9401451 C27.5495965,16.0638238 24.2385557,13.5745741 19.491449,12.4454176 C19.4646758,11.7196586 19.5478435,10.6463069 19.0437108,9.46401714 C18.3071645,7.73584971 16.681123,5.80642885 15.3666754,3.90401987 C14.0570698,2.00843807 14.3581253,0.597883002 14.27923,5.93667955e-05 C13.6984805,0.377632189 12.2495976,1.96213197 12.9821565,4.66599269 C13.7081644,7.34491936 16.4168094,10.3031668 17.2510493,11.8431415 C18.0850043,13.3828193 17.9480055,14.7921871 17.7081865,15.661317 C17.4683675,16.5304469 17.0149329,16.8872413 16.6440963,17.1359882 C16.6685909,16.5586461 16.6492231,15.7773791 16.3100016,14.9414946 C15.9713498,14.1050164 14.3239468,12.1058396 13.1276998,10.6347304 C11.9308832,9.16332432 10.7690995,6.95755102 11.2926,5.20385587 C10.7762201,5.53185741 9.67453355,6.97031488 9.73292179,8.65039521 C9.79131004,10.3301787 11.1319611,12.6068953 11.9616439,13.6829185 C12.7910418,14.7586448 14.233089,16.9160342 14.5176249,18.1030733 C14.8024456,19.2895187 14.7007646,20.1372766 14.4569581,20.7517229 C14.2533113,21.2601995 13.5620514,21.8321986 13.5620514,21.8321986 C13.5620514,21.8321986 13.6232879,21.0058128 13.3384672,20.3702912 C13.0539313,19.7347697 9.75997976,15.0726952 9.43471451,14.5855906 C9.13736169,14.1400428 8.36492792,13.2165923 8.40537246,12.3652725 C3.47341704,13.4543563 2.84820712e-05,15.993771 2.84820712e-05,18.9401451 C2.84820712e-05,22.8734922 6.18804323,26.0816738 13.7748125,26.0816738" id="Fill-3"></path>
                    </g>
                </g>
                <g id="Page-1" transform="translate(193.166667, 72.201550)" fill="#707070">
                    <path d="M76.7999238,8.44787224 L76.7999238,4.75958081 L76.2003808,4.75958081 C76.0245306,5.16536366 75.7775732,5.33469942 75.4603937,5.33469942 C74.6138933,5.33469942 74.2261967,4.75958081 72.9214826,4.75958081 C70.8416702,4.75958081 69.1135584,6.34986447 69.1135584,8.21142515 C69.1135584,12.271519 75.7418721,11.3571625 75.7418721,14.7073488 C75.7418721,15.8915664 74.7903336,16.7716593 73.5564316,16.7716593 C72.0047601,16.7716593 70.0656869,15.7904747 69.5366611,13.2864009 L68.9377082,13.2864009 L68.9377082,17.3807583 L69.5366611,17.3807583 C69.5723622,16.9404287 69.8892466,16.5689095 70.3477554,16.5689095 C70.9467083,16.5689095 72.1460893,17.4481528 73.5210255,17.4481528 C75.671355,17.4481528 77.469984,15.7562111 77.469984,13.7598614 C77.469984,9.29341836 70.9118923,10.1063999 70.9118923,7.06033842 C70.9118923,6.07915379 71.7578026,5.43607434 72.9925898,5.43607434 C74.4731541,5.43607434 75.8480903,6.45180573 76.0950478,8.44787224 L76.7999238,8.44787224 Z" id="Fill-1"></path>
                    <path d="M81.8466774,9.19512999 C81.9874165,6.96205005 83.2216136,5.47285814 85.302016,5.47285814 C86.8887986,5.47285814 88.7573546,6.55598403 88.6517264,9.19512999 L81.8466774,9.19512999 Z M91.0139022,9.77053177 C91.1900475,6.99518096 88.5103971,4.76238419 85.6194905,4.76238419 C82.0936348,4.76238419 79.3431723,7.60484633 79.3431723,11.2251769 C79.3431723,14.8460738 82.1638568,17.4512394 86.0779993,17.4512394 C88.2637348,17.4512394 89.7094831,16.7407654 91.2251585,14.8797711 L91.2251585,13.9999614 C89.4274147,15.9289166 88.5458032,16.503752 86.8182815,16.503752 C85.1255757,16.503752 81.7761602,15.1499154 81.8466774,9.77053177 L91.0139022,9.77053177 Z" id="Fill-3"></path>
                    <path d="M104.250584,4.76244082 L103.651041,4.76244082 C103.44008,5.20277044 103.122015,5.43921752 102.804836,5.43921752 C102.170772,5.43921752 101.147831,4.76244082 99.2795702,4.76244082 C95.7186035,4.76244082 92.8274018,7.70656105 92.8274018,11.3945693 C92.8274018,14.9809195 95.4011289,17.451296 99.1028349,17.451296 C101.359383,17.451296 103.263345,16.5714863 104.60376,14.8121501 L104.60376,13.931774 C103.299046,15.6576962 101.465601,16.436131 99.9493353,16.436131 C97.4101291,16.436131 95.2603898,13.6953269 95.2603898,10.4133847 C95.2603898,7.46926445 96.9876165,5.43921752 99.4560106,5.43921752 C101.536118,5.43921752 103.122015,6.82675134 103.651041,8.99243678 L104.250584,8.99243678 L104.250584,4.76244082 Z" id="Fill-5"></path>
                    <path d="M118.887518,4.76244082 L118.287975,4.76244082 L114.057243,5.13509277 L114.057243,5.7099282 C116.208458,5.74305911 116.490231,5.94694163 116.490231,7.60490296 L116.490231,14.0674125 C115.46729,15.3875518 114.375013,16.0297818 113.176222,16.0297818 C111.483516,16.0297818 110.355242,15.0148999 110.355242,13.3235245 L110.355242,4.76244082 L109.755994,4.76244082 L105.736223,5.13509277 L105.736223,5.7099282 C107.534557,5.7099282 107.95766,6.14969147 107.95766,7.30021186 L107.95766,13.4248994 C107.95766,15.6576962 109.579849,17.451296 112.047653,17.451296 C113.740359,17.451296 115.185812,16.6731444 116.419714,15.116558 L116.490231,15.116558 L116.490231,17.0806263 L121.038437,17.0792104 L121.038437,16.5038086 C119.345732,16.5038086 118.887518,16.131723 118.887518,14.8121501 L118.887518,4.76244082 Z" id="Fill-7"></path>
                    <path d="M127.244652,7.94705748 C128.37263,6.89791201 129.078096,6.49184599 129.889486,6.49184599 C130.735396,6.49184599 131.828559,6.99928693 132.85091,7.54070829 L133.802743,5.40928644 C133.167794,4.86786508 132.216256,4.46179906 131.510789,4.46179906 C130.664879,4.46179906 129.572011,5.13857576 127.244652,7.06724777 L127.244652,4.46179906 L126.645109,4.46179906 L122.273638,4.83388466 L122.273638,5.40928644 C124.388561,5.40928644 124.847365,5.61203628 124.847365,7.3716557 L124.847365,14.2011538 C124.847365,16.0284509 124.636108,16.5021946 122.732146,16.5021946 L122.732146,17.0775964 L129.325054,17.0775964 L129.325054,16.5021946 C127.668049,16.5021946 127.244652,16.130109 127.244652,14.8099697 L127.244652,7.94705748 Z" id="Fill-9"></path>
                    <path d="M138.670991,0 C137.824786,0 137.120205,0.64279628 137.120205,1.45521149 C137.120205,2.26734353 137.824786,2.94355389 138.670991,2.94355389 C139.517196,2.94355389 140.187256,2.26734353 140.187256,1.45521149 C140.187256,0.64279628 139.517196,0 138.670991,0 L138.670991,0 Z M139.834671,4.49022934 L139.235128,4.49022934 L135.075208,4.86231494 L135.075208,5.43715038 C136.907768,5.43715038 137.436794,5.66227067 137.436794,7.31994883 L137.436794,14.6631176 C137.436794,16.0840655 136.978285,16.5017415 135.075208,16.5017415 L135.075208,17.0765769 L141.914778,17.0765769 L141.914778,16.5017415 C140.152145,16.5017415 139.834671,15.8470521 139.834671,14.6631176 L139.834671,4.49022934 Z" id="Fill-11"></path>
                    <path d="M157.162939,7.5605302 C156.70325,6.54309979 156.99299,5.91474519 157.947184,5.77910668 L157.947184,4.89816429 L151.937591,4.89816429 L151.937591,5.77910668 C153.387175,5.81280393 153.956033,6.16931517 154.592162,7.5605302 L158.97278,17.2823284 L158.134541,19.3709915 C157.357082,21.4743795 156.473405,22.3230405 154.953009,22.3230405 C154.529021,22.3230405 154.246363,22.2545134 153.751563,22.0511972 L152.938403,24.1206048 C153.574532,24.4941062 153.963114,24.6297447 154.49391,24.6297447 C156.013716,24.6297447 157.639741,23.0354967 158.629341,20.2533498 L162.825552,8.35935324 C163.532788,6.35818967 164.345948,5.5435091 165.688724,5.5435091 L165.688724,4.89816429 L161.270044,4.89816429 L161.270044,5.5435091 C162.649111,5.61203628 162.75533,6.39217009 162.259939,7.8167992 L160.068598,14.1612268 L157.162939,7.5605302 Z" id="Fill-13"></path>
                    <path d="M147.590845,0.859987798 L146.989827,0.859987798 C145.92912,2.92911221 144.515532,4.38828808 142.8184,5.20268548 L142.8184,5.77950311 L145.186772,5.77950311 L145.186772,13.82012 C145.186772,15.8898108 146.671467,17.3147231 148.792292,17.3147231 C150.20647,17.3147231 151.479023,16.6359642 152.574842,15.3129931 L152.18626,14.871814 C151.443912,15.6859282 150.771787,16.0254493 149.852999,16.0254493 C148.474522,16.0254493 147.590845,15.1767883 147.590845,13.5145794 L147.590845,5.77950311 L151.961136,5.77950311 L151.961136,4.89714487 L147.590845,4.89714487 L147.590845,0.859987798 Z" id="Fill-15"></path>
                    <path d="M6.25693341,13.4101179 C6.25693341,14.536852 5.47268868,15.2130624 3.88354567,15.2130624 L2.37347625,15.2130624 L2.37347625,11.7949153 L3.98179755,11.7949153 C5.43344694,11.7949153 6.25693341,12.4521533 6.25693341,13.4101179 M5.47268868,8.26406648 C5.47268868,9.24072039 4.62884371,9.89795835 3.78558885,9.89795835 L2.37347625,9.89795835 L2.37347625,6.66783625 L3.5309601,6.66783625 C4.84482082,6.66783625 5.47268868,7.32507421 5.47268868,8.26406648 M8.68962633,13.4101179 C8.68962633,11.9449955 7.669046,10.7432213 6.23746006,10.4240885 L6.23746006,10.4053993 C7.29698709,9.89795835 7.84637147,8.90261521 7.84637147,7.83166563 C7.84637147,6.33001424 6.64935083,4.75219006 4.11899612,4.75219006 L8.85152059e-05,4.75219006 L8.85152059e-05,17.1287086 L4.09952278,17.1287086 C7.35540712,17.1287086 8.68962633,15.1756839 8.68962633,13.4101179" id="Fill-17"></path>
                    <path d="M18.8098059,17.1287369 C18.8098059,17.1287369 15.358598,8.20746076 15.2600511,7.79459866 C15.1617992,8.22671633 11.7297696,17.1287369 11.7297696,17.1287369 L9.39503352,17.1287369 L14.3681129,4.75165204 L16.0941594,4.75165204 L21.3407507,17.1287369 L18.8098059,17.1287369 Z" id="Fill-19"></path>
                    <path d="M34.2500445,17.2117624 L34.2500445,4.83552705 L31.8967202,4.83552705 L31.8967202,11.7278889 C31.8967202,12.2724251 31.8967202,12.9862971 31.936257,13.530267 L31.8967202,13.530267 C31.5830813,13.0236756 31.2299056,12.5541795 30.6218062,11.802929 L24.9928291,4.83552705 L22.5799046,4.83552705 L22.5799046,17.2117624 L24.9532924,17.2117624 L24.9532924,9.92437812 C24.9532924,9.3427466 24.933524,8.68522547 24.8942822,8.2720802 L24.933524,8.2720802 C25.2872897,8.79821037 25.6599388,9.2677065 26.208733,9.96232292 L32.0542773,17.2117624 L34.2500445,17.2117624 Z" id="Fill-21"></path>
                    <path d="M46.8945302,16.1525644 L46.2474841,14.5181062 C45.2664406,15.0252639 44.2467454,15.3446799 43.0700832,15.3446799 C40.4019399,15.3446799 38.7549669,13.4100613 38.7549669,10.9122173 C38.7549669,8.58342579 40.245563,6.49844385 43.2459334,6.49844385 C44.4034173,6.49844385 45.443471,6.76179211 46.5218812,7.3816516 L46.5413546,5.31535889 C45.7762881,4.90249679 44.5603843,4.63914853 43.1869233,4.63914853 C38.9308171,4.63914853 36.1844853,7.51304256 36.1844853,11.0625806 C36.1844853,14.5934294 38.5779365,17.3166769 42.6974342,17.3166769 C44.0897784,17.3166769 45.4626493,16.9782886 46.8945302,16.1525644" id="Fill-23"></path>
                    <path d="M58.77333,10.9876255 C58.77333,13.7856299 57.0868202,15.4569002 54.6936641,15.4569002 C52.2813297,15.4569002 50.5942298,13.7856299 50.5942298,10.9876255 C50.5942298,8.20746076 52.2813297,6.53675678 54.6936641,6.53675678 C57.1655988,6.53675678 58.77333,8.2830672 58.77333,10.9876255 M61.3042748,10.9499638 C61.3042748,9.2217763 60.7548904,7.68189693 59.6761851,6.55516284 C58.5189963,5.33441625 56.7926547,4.63923349 54.7137275,4.63923349 C52.7519355,4.63923349 51.1238458,5.31544384 49.966657,6.44274428 C48.7705215,7.60714001 48.1031169,9.2217763 48.1031169,11.0626656 C48.1031169,12.9967178 48.8289416,14.6685545 50.1433924,15.7952886 C51.2811078,16.7909149 52.830419,17.3164787 54.7137275,17.3164787 C56.6554561,17.3164787 58.2835458,16.6586744 59.460208,15.5325067 C60.6569336,14.4057726 61.3042748,12.7715975 61.3042748,10.9499638" id="Fill-25"></path>
                </g>
                <g id="Group-13" transform="translate(369.444444, 1.054264)">
                    <g id="Page-1">
                        <g id="Group-18">
                            <path d="M29.1235139,22.5260494 C30.0095317,22.5260494 30.6789565,22.365476 31.1320311,22.0433928 C31.584378,21.7220117 31.8111578,21.248952 31.8111578,20.6249157 C31.8111578,20.0692285 31.5863183,19.6312796 31.136882,19.3091964 C30.6872031,18.9878154 30.0839931,18.8272419 29.3272519,18.8272419 L26.8627496,18.8272419 L26.8627496,22.5260494 L29.1235139,22.5260494 Z M28.5122999,16.8512051 C29.2042815,16.8512051 29.7507359,16.6922701 30.1519057,16.3739321 C30.552833,16.055594 30.7534179,15.6122614 30.7534179,15.0444025 C30.7534179,14.5388067 30.5690836,14.1376071 30.2004148,13.8410377 C29.831746,13.5449365 29.3466555,13.3963007 28.7451433,13.3963007 L26.8627496,13.3963007 L26.8627496,16.8512051 L28.5122999,16.8512051 Z M29.2108302,11.4202639 C30.4526618,11.4202639 31.4648031,11.7327502 32.2477392,12.3567865 C33.0301902,12.9812909 33.4216582,13.7619214 33.4216582,14.6982098 C33.4216582,15.2974344 33.2581827,15.8247989 32.9314742,16.2803032 C32.6050083,16.7358076 32.1313175,17.0981512 31.5104017,17.3663978 L31.5104017,17.4787525 C32.4546303,17.6847359 33.19027,18.0920214 33.7178059,18.700843 C34.2448568,19.3091964 34.5082609,20.0226482 34.5082609,20.8407302 C34.5082609,21.5642471 34.3159225,22.2119247 33.9312458,22.7832947 C33.5463264,23.3541966 33.0127269,23.7837189 32.329962,24.0706913 C31.6476823,24.3576637 30.8438873,24.501384 29.9190623,24.501384 L24.243261,24.501384 L24.243261,11.4202639 L29.2108302,11.4202639 Z" id="Fill-1" fill="#707070"></path>
                            <path d="M37.717156,21.6932443 C37.717156,22.0708026 37.8418242,22.3746282 38.0909182,22.6040189 C38.3404973,22.8334095 38.6494999,22.9481049 39.0176836,22.9481049 C39.639327,22.9481049 40.260728,22.6742405 40.8821289,22.1267458 L40.8821289,19.3937198 C40.0916739,19.6530717 39.4722134,19.897443 39.0237472,20.1275359 C38.5743109,20.3566925 38.2446919,20.5895943 38.0339201,20.8269434 C37.8226632,21.0640584 37.717156,21.3529034 37.717156,21.6932443 M39.443593,13.895834 C40.8246457,13.895834 41.8794749,14.1790613 42.6085659,14.7457499 C43.3374144,15.3119703 43.7019599,16.1024318 43.7019599,17.1171344 L43.7019599,22.1927542 C43.7019599,22.5852931 43.8668907,22.7816796 44.1969948,22.7816796 C44.335003,22.7816796 44.5287967,22.7243319 44.7783757,22.6098707 C45.0274697,22.4951753 45.2365437,22.3631587 45.4053552,22.2156932 L45.4053552,23.7921689 C44.415528,24.3775833 43.5101066,24.6699393 42.689091,24.6699393 C42.1826565,24.6699393 41.7933714,24.5882482 41.5207505,24.4255681 C41.2486148,24.2628879 41.0584593,23.974277 40.9512543,23.5592672 C39.8695025,24.2994032 38.7833849,24.6699393 37.6941142,24.6699393 C36.9189396,24.6699393 36.253638,24.4185459 35.6969966,23.9145886 C35.1408404,23.4108654 34.8628835,22.8076616 34.8628835,22.1038068 C34.8628835,21.2080128 35.1391426,20.5008809 35.6914181,19.9826453 C36.2439362,19.4646437 37.2107215,19.0124164 38.5917741,18.6276018 L40.8821289,17.9834353 L40.8821289,17.5061623 C40.8821289,16.4914597 40.2452051,15.9839913 38.9716,15.9839913 C38.3193958,15.9839913 37.6710724,16.128882 37.0266297,16.4170248 C36.3821869,16.7063379 35.7949849,17.1321151 35.2657512,17.6945903 L35.2657512,15.2403442 C36.4396702,14.343848 37.832365,13.895834 39.443593,13.895834" id="Fill-3" fill="#707070"></path>
                            <path d="M52.0974668,13.8959276 C53.248344,13.8959276 54.1673479,14.260612 54.853751,14.9902148 C55.5406391,15.7195835 55.8840832,16.6799814 55.8840832,17.8723447 L55.8840832,24.4701354 L53.0642521,24.4701354 L53.0642521,18.1497202 C53.0642521,17.4760606 52.8971385,16.9428443 52.5638813,16.5503054 C52.229654,16.1582346 51.7751242,15.9618481 51.1998068,15.9618481 C50.7624978,15.9618481 50.3518687,16.0859063 49.9681621,16.3337887 C49.5844555,16.5823733 49.1626693,16.9945743 48.7023184,17.5720302 L48.7023184,24.4701354 L45.8708452,24.4701354 L45.8708452,14.0958252 L48.7023184,14.0958252 L48.7023184,15.5512856 C49.2237907,14.958615 49.7593306,14.5344764 50.307968,14.2793378 C50.8563628,14.0234969 51.4530241,13.8959276 52.0974668,13.8959276" id="Fill-5" fill="#707070"></path>
                            <g id="Group-9" transform="translate(56.220588, 13.668597)">
                                <mask id="mask-8" fill="white">
                                    <use xlink:href="#path-7"></use>
                                </mask>
                                <g id="Clip-8"></g>
                                <path d="M5.87046811,0.227330837 C7.12078886,0.227330837 8.25299006,0.460934807 9.26561647,0.926738314 L9.26561647,3.24849961 C8.26026642,2.68602432 7.30924651,2.40443557 6.41134401,2.40443557 C5.44455866,2.40443557 4.65410371,2.69538721 4.04046423,3.2763542 C3.42633967,3.85755525 3.11976248,4.6445057 3.11976248,5.63626925 C3.11976248,6.60649816 3.42852258,7.38759681 4.04652786,7.9802674 C4.66380552,8.57293799 5.48651899,8.86880515 6.51491083,8.86880515 C7.28208145,8.86880515 8.26438969,8.62443386 9.46135048,8.13569128 L9.46135048,10.3458002 C8.34879544,10.7828128 7.20155642,11.0014362 6.02011853,11.0014362 C4.27815857,11.0014362 2.86460488,10.5197158 1.77872982,9.55744531 C0.693097295,8.59494077 0.150281034,7.31737517 0.150281034,5.72498258 C0.150281034,4.07407196 0.681697668,2.74477642 1.74453094,1.73803226 C2.80712166,0.731054027 4.1823532,0.227330837 5.87046811,0.227330837" id="Fill-7" fill="#707070" mask="url(#mask-8)"></path>
                            </g>
                            <polygon id="Fill-10" fill="#707070" points="23.5082422 0.0808603967 4.85090495e-05 0.0808603967 4.85090495e-05 7.65561473 6.07894359 7.65561473 6.07894359 24.4952045 17.1597911 24.4952045 17.1597911 7.65561473 23.5082422 7.65561473"></polygon>
                        </g>
                    </g>
                </g>
                <g id="Page-1" transform="translate(0.000000, 75.364341)" fill="#707070">
                    <g id="Group-15" transform="translate(157.664357, 0.000000)">
                        <g id="Group-17">
                            <path d="M16.3611351,2.16625615 C13.3395936,-0.324001228 9.0011162,-0.704616603 5.56537362,1.21886176 C3.3391247,2.46484051 1.71871895,4.57384497 1.12033095,7.00587308 L1.10037738,7.08705402 L13.4950561,7.08705402 L16.4045505,2.20174625 L16.3611351,2.16625615 Z" id="Fill-1"></path>
                            <g id="Group-5" transform="translate(0.835850, 7.394479)">
                                <path d="M5.9701098,0.0325573843 L0.192124427,0.0325573843 L0.181380194,0.0865363375 C0.0770076453,0.639289319 0.0237250206,1.19267985 0.0237250206,1.7314068 C0.0237250206,4.9743943 1.82765981,7.99870329 4.73189176,9.62444735 C6.95529018,10.8689385 9.64902287,11.1734733 12.1223892,10.459421 L12.2048347,10.4358318 L12.1612,10.363364 C11.9020227,9.92664448 6.16986482,0.301602088 6.02887417,0.0650722656 L6.0089206,0.0325573843 L5.9701098,0.0325573843 Z" id="Fill-3"></path>
                            </g>
                            <path d="M16.6280087,2.50545224 L10.4741944,12.8400841 L13.3814961,17.7224167 L13.4347788,17.7039278 C17.1709213,16.4116207 19.6809057,12.9605804 19.6809057,9.11681142 C19.6809057,6.62379135 18.6067017,4.20876448 16.7332583,2.49078866 L16.6707663,2.43298443 L16.6280087,2.50545224 Z" id="Fill-6"></path>
                        </g>
                    </g>
                    <path d="M12.9580493,7.5386496 C12.5111769,7.10554288 11.3119889,6.01108772 9.45367518,6.01108772 C7.61970039,6.01108772 6.23194018,7.3106204 6.23194018,9.15695561 C6.23194018,9.3616081 6.2551828,9.93221239 6.51457928,10.4790149 C6.84348438,11.1397258 7.73700987,12.234181 9.64180889,12.234181 C10.0182956,12.234181 10.4182442,12.1882776 10.7708304,12.0971084 C11.711499,11.8690792 12.3230432,11.4359725 13.0988207,10.8662183 L12.8635439,16.9065482 C11.429737,17.3167032 10.3950015,17.5902107 8.86581214,17.5902107 C7.87821979,17.5902107 5.19720476,17.4992541 2.93960021,15.6297546 C0.234904016,13.3962161 6.57810184e-05,10.2964641 6.57810184e-05,9.15695561 C6.57810184e-05,5.32763767 2.23398916,3.13957743 3.40971522,2.27336399 C4.35060306,1.56696226 5.9966634,0.655057973 8.81910762,0.655057973 C10.7940731,0.655057973 12.2528768,1.1797589 12.9580493,1.38441139 L12.9580493,7.5386496 Z" id="Fill-8"></path>
                    <path d="M22.7899258,6.33041361 C22.177943,6.62666031 21.1201843,7.46992206 21.1201843,9.20234894 C21.1440847,10.8663458 22.2489865,12.2791493 24.0597187,12.2791493 C24.6945055,12.2791493 25.0944541,12.1425018 25.3297309,12.0285934 C25.9412751,11.7552984 27.0700774,10.9349883 27.0700774,9.15708312 C27.0700774,8.51847385 26.9286482,8.08557965 26.8348006,7.88071465 C26.3883667,6.74099368 25.3534121,6.01121523 24.0833999,6.03416691 C23.8479038,6.03416691 23.3545462,6.05690608 22.7899258,6.33041361 M29.3982869,2.20548652 C30.1747221,2.7063857 32.1262257,4.23352254 32.8316175,6.85468951 C32.9256843,7.21936621 33.0903561,8.06262797 33.0903561,9.11117976 C33.0903561,14.057267 29.3982869,17.5901257 24.2949955,17.5901257 C23.6599894,17.5901257 22.2961296,17.5444349 20.7202357,16.9976323 C17.169157,15.7667422 15.0996862,12.8268019 15.0996862,9.17960977 C15.0996862,8.83788475 15.1233674,7.99462299 15.3588634,7.03724037 C16.0638167,4.14235337 18.0157587,2.61564156 18.9566466,2.02293565 C19.8269294,1.49823472 21.4964517,0.700876329 24.0130142,0.700876329 C24.9534635,0.677924648 27.2115065,0.768881309 29.3982869,2.20548652" id="Fill-10"></path>
                    <path d="M40.96926,8.17674883 L41.7919613,8.17674883 C42.4035055,8.17674883 43.0385115,8.15422218 43.414779,7.6069946 C43.5086266,7.46992206 43.6500557,7.19641453 43.6500557,6.78625949 C43.6500557,5.32755266 42.0039954,5.46441269 41.7682801,5.46441269 L40.96926,5.46441269 L40.96926,8.17674883 Z M42.1449861,1.11103137 C42.6387822,1.11103137 43.1327977,1.11103137 43.6261553,1.1565097 C45.5313929,1.27063056 47.2715201,1.77174225 48.4711466,3.29909161 C48.8943378,3.82336751 49.5528058,4.8037018 49.5528058,6.46706112 C49.5528058,8.56437721 48.5649942,9.58997732 47.8124593,10.1140407 C47.3655869,10.4107124 46.989758,10.5698866 46.4720614,10.7524375 L50.4932551,17.2029224 L44.0500043,17.2029224 L40.96926,11.29924 L40.96926,17.2029224 L35.2783248,17.2029224 L35.2783248,1.11103137 L42.1449861,1.11103137 Z" id="Fill-12"></path>
                    <path d="M58.6320597,8.26800301 L59.2203613,8.26800301 C59.8551481,8.26800301 60.5133968,8.22209965 60.960927,7.72120046 C61.2190079,7.46979455 61.2896128,7.17397289 61.2896128,6.83224786 C61.2896128,6.53578865 61.2426891,6.28502029 61.0547746,6.05699109 C60.6311449,5.46428518 59.8551481,5.46428518 59.1966801,5.46428518 L58.6320597,5.46428518 L58.6320597,8.26800301 Z M59.5255852,1.11111637 C60.9841697,1.11111637 61.6891229,1.1797589 62.394734,1.29345473 C63.17095,1.43031475 64.9823399,1.81751811 66.1810894,3.66406584 C67.0748341,5.05413014 67.1219772,6.51283697 67.1219772,7.05985203 C67.1219772,7.74372711 67.0279103,10.0002174 65.0996494,11.3675425 C63.758813,12.3249251 62.2068195,12.3708285 60.607683,12.3708285 L58.6320597,12.3708285 L58.6320597,17.2030074 L52.5413952,17.2030074 L52.5413952,1.11111637 L59.5255852,1.11111637 Z" id="Fill-14"></path>
                    <path d="M75.0363589,13.2368932 L76.0478517,13.2368932 C76.3999994,13.2368932 76.988301,13.2368932 77.3172061,13.1002457 C77.5994067,12.9863373 78.0464983,12.6671389 78.0464983,11.9607372 C78.0464983,11.664278 77.9761126,11.4130846 77.7879789,11.1854804 C77.3641299,10.6382528 76.6357148,10.6382528 76.0241706,10.6382528 L75.0363589,10.6382528 L75.0363589,13.2368932 Z M75.0363589,7.21930246 L75.6948269,7.21930246 C76.212085,7.21930246 76.8003866,7.19656329 77.1762155,6.78640825 C77.2935249,6.64954823 77.4347349,6.4442582 77.4347349,6.03410316 C77.4347349,5.92019482 77.4347349,5.60099644 77.2468204,5.37339227 C76.7767054,4.80363805 75.7888938,4.89459471 75.6948269,4.89459471 L75.0363589,4.89459471 L75.0363589,7.21930246 Z M77.1292917,1.11096761 C77.458416,1.11096761 77.8114408,1.11096761 78.1403459,1.13391929 C78.7755713,1.15644594 81.0331758,1.22487595 82.3029687,3.07142369 C82.7967649,3.77803794 83.032261,4.59834801 83.032261,5.46434893 C83.032261,6.51290072 82.6792362,7.49280999 81.9034587,8.19921172 C81.6918631,8.40471427 81.4559285,8.56431346 80.9625709,8.86077267 C81.6679626,9.17954602 82.1852207,9.45326606 82.7498411,10.0000686 C83.7608954,11.0258812 83.7845765,12.1194863 83.7845765,12.6441873 C83.7845765,13.1452989 83.7376527,14.1942758 82.9149515,15.2198759 C82.5614881,15.6529826 82.1382969,16.0176593 81.6679626,16.2911668 C80.2337172,17.1571678 78.7755713,17.1796944 77.1529728,17.2030711 L69.3449852,17.2030711 L69.3449852,1.11096761 L77.1292917,1.11096761 Z" id="Fill-16"></path>
                    <path d="M110.669156,1.11103137 L114.242819,6.28493528 L115.089859,7.58404292 C115.419422,8.10831882 115.725085,8.60985555 116.030089,9.13413144 C116.007066,8.4959472 115.983604,7.85797548 115.983604,7.21936621 L115.983604,1.11103137 L121.745364,1.11103137 L121.745364,17.2029224 L115.983604,17.2029224 L112.738407,12.4617001 C112.338239,11.9148976 111.962191,11.3451434 111.586362,10.7753891 C111.279823,10.2965916 110.997842,9.84053317 110.715641,9.36173561 C110.739322,10.2052099 110.763003,11.025945 110.763003,11.8689942 L110.763003,17.2029224 L105.001025,17.2029224 L105.001025,1.11103137 L110.669156,1.11103137 Z" id="Fill-18"></path>
                    <path d="M136.774708,7.5386496 C136.327836,7.10554288 135.128428,6.01108772 133.270334,6.01108772 C131.436798,6.01108772 130.04816,7.3106204 130.04816,9.15695561 C130.04816,9.3616081 130.071841,9.93221239 130.331019,10.4790149 C130.660582,11.1397258 131.554107,12.234181 133.458687,12.234181 C133.834735,12.234181 134.234903,12.1882776 134.58727,12.0971084 C135.528158,11.8690792 136.139702,11.4359725 136.915699,10.8662183 L136.68086,16.9065482 C135.245957,17.3167032 134.211222,17.5902107 132.682471,17.5902107 C131.695098,17.5902107 129.013644,17.4992541 126.75582,15.6297546 C124.051563,13.3962161 123.816724,10.2964641 123.816724,9.15695561 C123.816724,5.32763767 126.050648,3.13957743 127.226374,2.27336399 C128.167262,1.56696226 129.813322,0.655057973 132.635328,0.655057973 C134.610732,0.655057973 136.068658,1.1797589 136.774708,1.38441139 L136.774708,7.5386496 Z" id="Fill-20"></path>
                    <polygon id="Fill-22" points="97.5205565 1.11103137 90.1833417 1.11103137 84.8217502 17.2029224 91.0301627 17.2029224 93.8287064 6.67256367 96.6504929 17.2029224 102.882587 17.2029224"></polygon>
                    <polygon id="Fill-24" points="150.933967 1.11103137 143.596094 1.11103137 138.234283 17.2029224 144.443134 17.2029224 147.24124 6.67256367 150.063245 17.2029224 156.295558 17.2029224"></polygon>
                </g>
                <g id="Group-14" transform="translate(0.708499, 133.377071)">
                    <g id="Page-1">
                        <g id="Group-3" transform="translate(68.912128, 0.221396)">
                            <mask id="mask-10" fill="white">
                                <use xlink:href="#path-9"></use>
                            </mask>
                            <g id="Clip-2"></g>
                            <path d="M16.7519719,15.7355577 L8.72567667,15.7355577 L12.7115262,4.52147197 L16.7519719,15.7355577 Z M15.4923132,0.0633667439 C17.7850236,0.0633667439 18.2224508,0.543048564 19.0269221,2.56729476 L27.8846579,24.6409671 L19.992222,24.6409671 L18.0682002,19.335664 L7.44628441,19.335664 L5.53147163,24.6426288 L0.976966746,24.6426288 L9.91297899,0.058935503 L15.4923132,0.0633667439 Z" id="Fill-1" fill="#707070" mask="url(#mask-10)"></path>
                        </g>
                        <g id="Group-6" transform="translate(25.575963, 0.221396)">
                            <mask id="mask-12" fill="white">
                                <use xlink:href="#path-11"></use>
                            </mask>
                            <g id="Clip-5"></g>
                            <path d="M10.8376364,10.8768683 L13.2727573,7.81515789 C13.8884443,7.04883018 14.0193436,6.56637883 14.0193436,6.02881393 C14.0193436,4.52662329 12.4495391,3.26455051 10.642932,3.26455051 L6.89914742,3.26455051 L6.89914742,21.3470596 L8.97347311,21.3470596 C12.4442768,21.3470596 15.0790355,19.7675992 15.0790355,16.0722213 C15.0790355,13.0226967 13.3786607,11.3947696 10.8376364,10.8768683 M12.2952885,24.6488879 L0.0325274792,24.6488879 L0.0325274792,0.0555012914 L12.7422535,0.0555012914 C18.7001432,0.0555012914 20.7767711,4.14498267 17.7591814,7.91846119 L16.333432,9.6992661 C26.3291362,14.0712391 23.0786905,24.6488879 12.2952885,24.6488879" id="Fill-4" fill="#707070" mask="url(#mask-12)"></path>
                        </g>
                        <g id="Group-9" transform="translate(0.000000, 0.221396)">
                            <mask id="mask-14" fill="white">
                                <use xlink:href="#path-13"></use>
                            </mask>
                            <g id="Clip-8"></g>
                            <path d="M10.8053063,10.8768683 L13.241085,7.81515789 C13.8571008,7.04883018 13.9870134,6.56637883 13.9870134,6.02881393 C13.9870134,4.52662329 12.4191823,3.26455051 10.6129041,3.26455051 L6.86879063,3.26455051 L6.86879063,21.3470596 L8.94212965,21.3470596 C12.4142489,21.3470596 15.0476921,19.7675992 15.0476921,16.0722213 C15.0476921,13.0226967 13.348304,11.3947696 10.8053063,10.8768683 M12.263945,24.6488879 L-0.000131557044,24.6488879 L-0.000131557044,0.0555012914 L12.7109101,0.0555012914 C18.6678131,0.0555012914 20.7454277,4.14498267 17.7275091,7.91846119 L16.3020885,9.6992661 C26.2977927,14.0712391 23.0483337,24.6488879 12.263945,24.6488879" id="Fill-7" fill="#707070" mask="url(#mask-14)"></path>
                        </g>
                        <g id="Group-12" transform="translate(46.876323, 0.221396)">
                            <mask id="mask-16" fill="white">
                                <use xlink:href="#path-15"></use>
                            </mask>
                            <g id="Clip-11"></g>
                            <path d="M20.9132945,0.0555566819 L25.5223955,0.0555566819 L16.6235481,24.6400808 L9.61681995,24.6367574 L0.071040804,0.0591570651 L5.22906363,0.0555566819 C7.22116617,0.0555566819 7.74443432,0.48843352 8.78537943,3.27236057 L14.3124198,18.7285286 L20.9132945,0.0555566819 Z" id="Fill-10" fill="#707070" mask="url(#mask-16)"></path>
                        </g>
                    </g>
                </g>
            </g>
        </g>
    </g>
</svg>