<?xml version="1.0" encoding="UTF-8" standalone="no"?>
<svg width="22px" height="25px" viewBox="0 0 22 25" version="1.1" xmlns="http://www.w3.org/2000/svg" xmlns:xlink="http://www.w3.org/1999/xlink">
    <!-- Generator: Sketch 39.1 (31720) - http://www.bohemiancoding.com/sketch -->
    <title>Group 24</title>
    <desc>Created with Sketch.</desc>
    <defs></defs>
    <g id="SP2-Pago-fácil" stroke="none" stroke-width="1" fill="none" fill-rule="evenodd">
        <g id="1-PagoFacil-Correcciones" transform="translate(-37.000000, -913.000000)" fill="#720184">
            <g id="Group-24" transform="translate(37.000000, 913.000000)">
                <g id="Page-1">
                    <path d="M4.4816156,4.76918722 C8.03554399,1.55729565 13.3544241,1.50836926 16.95757,4.44014651 L14.1015976,4.54831251 C13.7329264,4.5629229 13.4477593,4.86746972 13.4624447,5.23579887 C13.4773144,5.5943059 13.7723128,5.87417467 14.1260528,5.87417467 L14.1505694,5.87417467 L18.5354825,5.71229401 C18.8943225,5.69743807 19.1744511,5.40774719 19.1744511,5.04924015 L19.1744511,4.97060188 L19.0121743,0.639112463 C18.9975504,0.270783313 18.6879281,-0.0140578959 18.3240496,0.000552493725 C17.9553785,0.0154084361 17.6702114,0.319709702 17.6850811,0.688038852 L17.788309,3.40397523 C16.0037563,1.9453304 13.8065992,1.10075166 11.4568122,0.98276356 C8.54682943,0.835493288 5.74984434,1.83237613 3.59182779,3.78697615 C0.623041947,6.47338481 -0.635417008,10.5593215 0.308381124,14.4488159 C0.382053908,14.7533627 0.652289857,14.9547774 0.952326725,14.9547774 C1.00633705,14.9547774 1.05555465,14.9497435 1.10956497,14.9351331 C1.46355071,14.8466728 1.68463051,14.4881657 1.59627233,14.1346925 C0.770387514,10.716598 1.87136244,7.12661656 4.4816156,4.76918722" id="Fill-1"></path>
                    <path d="M21.7011326,9.60178844 C21.6125287,9.24813107 21.2536888,9.02725636 20.8999488,9.11547119 C20.5459016,9.20399296 20.324576,9.5625 20.41318,9.91591182 C21.2438575,13.3340063 20.1378441,16.9240492 17.5276524,19.2814785 C15.6941279,20.9365655 13.3937428,21.7516166 11.1030047,21.7516166 C8.91549443,21.7516166 6.73296125,21.01017 4.97317098,19.5466755 L7.86367565,19.2862668 C8.22730829,19.2519508 8.49760569,18.9327936 8.46325782,18.5644644 C8.42897141,18.1961353 8.10945641,17.9309383 7.74078527,17.9652543 L3.37074185,18.3582615 C3.00692487,18.3925161 2.73662748,18.7117347 2.77097534,19.0800638 L3.16434745,23.4460534 C3.19384114,23.7896431 3.483801,24.0501132 3.82297845,24.0501132 C3.84264091,24.0501132 3.86230338,24.0501132 3.88202728,24.0450794 C4.24565992,24.0107634 4.51614165,23.6916062 4.48160945,23.323277 L4.24565992,20.6663347 C6.0302126,22.1101236 8.21747706,22.9499141 10.5523943,23.0679022 C10.7391262,23.0777243 10.926104,23.0825126 11.1077974,23.0825126 C13.8164243,23.0825126 16.3920838,22.0904794 18.4173787,20.2636896 C21.3864718,17.5772195 22.6448693,13.4961325 21.7011326,9.60178844" id="Fill-3"></path>
                    <path d="M12.8791455,14.3857702 C12.6203998,14.7053571 12.2774742,14.9185583 11.8814599,15.0248213 C11.7062797,15.0705555 11.6300262,15.1619625 11.6378298,15.3446538 C11.6452646,15.5196715 11.6378298,15.6946892 11.6378298,15.8770736 C11.6378298,16.036867 11.5542029,16.1208461 11.4017573,16.1208461 C11.2113387,16.128274 11.0209815,16.128274 10.8305628,16.1208461 C10.6628175,16.1208461 10.5869327,16.0216427 10.5869327,15.8619107 L10.5869327,15.4739987 C10.5869327,15.1924111 10.5716942,15.1771868 10.29728,15.1314526 C9.94704244,15.0783518 9.6044855,14.9947411 9.28466328,14.8423756 C9.033291,14.7205814 9.00287563,14.6596229 9.07900623,14.3935665 C9.13221776,14.1955282 9.1854293,13.9979196 9.24638293,13.8076776 C9.31483287,13.5792522 9.37584794,13.5565999 9.58924709,13.6632312 C9.94704244,13.8456155 10.320322,13.9522468 10.7163977,13.9979196 C10.9677699,14.0284296 11.2187736,14.0053476 11.4549074,13.8987163 C11.8966983,13.7084743 11.965517,13.1987681 11.592176,12.8945283 C11.462711,12.787897 11.3255039,12.7120826 11.1733656,12.6511241 C10.7847862,12.4835343 10.381337,12.3543122 10.023173,12.133683 C9.4293667,11.7836475 9.05596428,11.2965936 9.10174095,10.5739318 C9.14745617,9.75961748 9.61192037,9.25758485 10.3582951,8.98348658 C10.6628175,8.86936593 10.670621,8.87716223 10.670621,8.55732975 L10.670621,8.23043763 C10.6780559,7.98666512 10.7163977,7.94878861 10.9599664,7.94136064 L11.1808004,7.94136064 C11.6988448,7.94136064 11.6988448,7.94136064 11.6988448,8.45849476 C11.6988448,8.82369311 11.6988448,8.82369311 12.0644437,8.87716223 C12.3384893,8.92289643 12.6051,8.99871085 12.8639071,9.11313844 C13.0086105,9.17372858 13.0621293,9.2729319 13.0164141,9.42480629 C12.955399,9.64555822 12.8943839,9.87404507 12.8181919,10.0868779 C12.7497419,10.2923442 12.6813534,10.3228541 12.4831312,10.2314471 C12.0796821,10.0337771 11.6606259,9.9575944 11.2187736,9.98024664 C11.1046698,9.98804294 10.9903818,10.0032672 10.8837129,10.0490014 C10.5028756,10.2162229 10.4345486,10.6423183 10.7621129,10.9009467 C10.9294896,11.0301689 11.1124734,11.1293722 11.3102654,11.2129829 C11.6530682,11.3500628 11.9881902,11.4868356 12.3157545,11.6695883 C13.3209364,12.2250286 13.602847,13.5108657 12.8791455,14.3857702 M11.1581272,6.0466141 C7.85268311,6.0466141 5.17176798,8.72491951 5.17176798,12.0270517 C5.17176798,15.3294295 7.85268311,18.0077349 11.1581272,18.0077349 C14.4633254,18.0077349 17.1441176,15.3294295 17.1441176,12.0270517 C17.1441176,8.72491951 14.4633254,6.0466141 11.1581272,6.0466141" id="Fill-5"></path>
                </g>
            </g>
        </g>
    </g>
</svg>