<?xml version="1.0" encoding="UTF-8" standalone="no"?>
<svg width="28px" height="44px" viewBox="0 0 28 44" version="1.1" xmlns="http://www.w3.org/2000/svg" xmlns:xlink="http://www.w3.org/1999/xlink">
    <!-- Generator: Sketch 39.1 (31720) - http://www.bohemiancoding.com/sketch -->
    <title>Page 1</title>
    <desc>Created with Sketch.</desc>
    <defs></defs>
    <g id="SP2-Pago-fácil" stroke="none" stroke-width="1" fill="none" fill-rule="evenodd">
        <g id="6-PagoFacil-Correcciones" transform="translate(-26.000000, -371.000000)">
            <g id="Group-3" transform="translate(26.000000, 371.000000)">
                <g id="Page-1">
                    <path d="M25.2113607,42.5197889 L2.74778689,42.5197889 C1.99201639,42.5197889 1.37704918,41.8976359 1.37704918,41.1325699 L1.37704918,36.9572137 L26.5822131,36.9572137 L26.5822131,41.1325699 C26.5822131,41.8976359 25.9671311,42.5197889 25.2113607,42.5197889 L25.2113607,42.5197889 Z M2.74778689,1.39313984 L25.2113607,1.39313984 C25.9671311,1.39313984 26.5822131,2.01540897 26.5822131,2.78001055 L26.5822131,6.05876517 L1.37704918,6.05876517 L1.37704918,2.78001055 C1.37704918,2.01540897 1.99201639,1.39313984 2.74778689,1.39313984 L2.74778689,1.39313984 Z M1.37704918,36.0289182 L26.5822131,36.0289182 L26.5822131,6.98752507 L1.37704918,6.98752507 L1.37704918,36.0289182 Z M25.2113607,0 L2.74778689,0 C1.23268852,0 0,1.24720844 0,2.78001055 L0,41.1325699 C0,42.6658364 1.23268852,43.9129288 2.74778689,43.9129288 L25.2113607,43.9129288 C26.726459,43.9129288 27.9592623,42.6658364 27.9592623,41.1325699 L27.9592623,2.78001055 C27.9592623,1.24720844 26.726459,0 25.2113607,0 L25.2113607,0 Z" id="Fill-1" fill="#7A7A7A"></path>
                    <path d="M13.9798033,41.2074512 C13.2423934,41.2074512 12.6426885,40.6006227 12.6426885,39.8545963 C12.6426885,39.108686 13.2423934,38.5018575 13.9798033,38.5018575 C14.7167541,38.5018575 15.3165738,39.108686 15.3165738,39.8545963 C15.3165738,40.6006227 14.7167541,41.2074512 13.9798033,41.2074512 M13.9798033,37.5730976 C12.7363279,37.5730976 11.7246557,38.596591 11.7246557,39.8545963 C11.7246557,41.1126016 12.7363279,42.1362111 13.9798033,42.1362111 C15.2228197,42.1362111 16.2346066,41.1126016 16.2346066,39.8545963 C16.2346066,38.596591 15.2232787,37.5730976 13.9798033,37.5730976" id="Fill-3" fill="#1D1C1B"></path>
                    <path d="M10.8581475,4.42530871 L17.101,4.42530871 C17.3542623,4.42530871 17.5600164,4.2171504 17.5600164,3.96092876 C17.5600164,3.70424274 17.3542623,3.49654881 17.101,3.49654881 L10.8581475,3.49654881 C10.6048852,3.49654881 10.3991311,3.70424274 10.3991311,3.96092876 C10.3991311,4.2171504 10.6048852,4.42530871 10.8581475,4.42530871" id="Fill-5" fill="#1D1C1B"></path>
                    <path d="M9.20637705,4.42530871 C9.32640984,4.42530871 9.44483607,4.37585224 9.52998361,4.28970976 C9.61559016,4.20217414 9.66539344,4.08329288 9.66539344,3.96092876 C9.66539344,3.83798417 9.61559016,3.719219 9.52998361,3.63214776 C9.44483607,3.5454248 9.32640984,3.49654881 9.20637705,3.49654881 C9.08485246,3.49654881 8.96745902,3.5454248 8.88139344,3.63214776 C8.79567213,3.71829024 8.74736066,3.83798417 8.74736066,3.96092876 C8.74736066,4.08329288 8.79567213,4.20217414 8.88139344,4.28970976 C8.96654098,4.37585224 9.08485246,4.42530871 9.20637705,4.42530871" id="Fill-7" fill="#1D1C1B"></path>
                </g>
            </g>
        </g>
    </g>
</svg>