<?xml version="1.0" encoding="UTF-8" standalone="no"?>
<svg width="20px" height="20px" viewBox="0 0 20 20" version="1.1" xmlns="http://www.w3.org/2000/svg" xmlns:xlink="http://www.w3.org/1999/xlink">
    <!-- Generator: Sketch 39.1 (31720) - http://www.bohemiancoding.com/sketch -->
    <title>Page 1 Copy</title>
    <desc>Created with Sketch.</desc>
    <defs></defs>
    <g id="SP2-Pago-fácil" stroke="none" stroke-width="1" fill="none" fill-rule="evenodd">
        <g id="5-PagoFacil" transform="translate(-188.000000, -519.000000)" fill="#979690">
            <path d="M206.103576,525.493249 L201.50554,520.895212 C202.089403,520.413728 202.8181,520.149469 203.585256,520.149469 C204.458734,520.149469 205.27692,520.490487 205.894875,521.104126 C206.512669,521.717766 206.849319,522.540267 206.849319,523.413745 C206.849319,524.185109 206.585273,524.909598 206.103576,525.493249 L206.103576,525.493249 Z M194.857936,536.760569 L192.978611,534.881244 L203.423164,524.436478 L205.302489,526.315803 L194.857936,536.760569 Z M200.683198,521.700667 L202.605031,523.622659 L192.160424,534.067212 L190.238432,532.145433 L200.683198,521.700667 Z M206.704538,520.294516 C204.982885,518.568495 202.18326,518.568495 200.461606,520.294516 L189.015574,531.736394 C188.925925,531.825829 188.87058,531.940887 188.853482,532.06452 L188.005572,538.345698 C187.980004,538.524623 188.043871,538.703548 188.167505,538.827182 C188.274039,538.933716 188.423188,538.997797 188.57239,538.997797 C188.597798,538.997797 188.623367,538.997797 188.648988,538.993429 L192.433047,538.481956 C192.748496,538.439502 192.970088,538.149675 192.927421,537.834225 C192.884754,537.518989 192.595139,537.297397 192.27969,537.340064 L189.245529,537.749104 L189.837915,533.368292 L194.448843,537.979272 C194.555377,538.085807 194.704366,538.149675 194.853568,538.149675 C195.00277,538.149675 195.151971,538.089962 195.258506,537.979272 L206.704538,526.537395 C207.539717,525.702163 208,524.594202 208,523.413745 C208,522.233341 207.539717,521.125327 206.704538,520.294516 L206.704538,520.294516 Z" id="Page-1-Copy"></path>
        </g>
    </g>
</svg>