<?xml version="1.0" encoding="UTF-8" standalone="no"?>
<svg width="32px" height="24px" viewBox="0 0 32 24" version="1.1" xmlns="http://www.w3.org/2000/svg" xmlns:xlink="http://www.w3.org/1999/xlink">
    <!-- Generator: Sketch 39.1 (31720) - http://www.bohemiancoding.com/sketch -->
    <title>Page 1</title>
    <desc>Created with Sketch.</desc>
    <defs></defs>
    <g id="SP2-Pago-fácil" stroke="none" stroke-width="1" fill="none" fill-rule="evenodd">
        <g id="1-PagoFacil-Correcciones" transform="translate(-39.000000, -456.000000)" fill="#FEFEFE">
            <g id="Page-1" transform="translate(39.000000, 456.000000)">
                <path d="M1.068,2.66666667 L1.068,2.25 C1.068,1.59666667 1.59666667,1.068 2.25,1.068 L29.75,1.068 C30.4033333,1.068 30.932,1.59666667 30.932,2.25 L30.932,2.66666667 L1.068,2.66666667 Z M30.932,21.2186667 C30.932,21.87 30.4033333,22.4013333 29.75,22.4013333 L2.25,22.4013333 C1.59666667,22.4013333 1.068,21.87 1.068,21.2186667 L1.068,8 L30.932,8 L30.932,21.2186667 Z M1.59866667,4.26533333 C1.89333333,4.26533333 2.13266667,4.02866667 2.13266667,3.73466667 L4.26533333,3.73466667 C4.26533333,4.02866667 4.50533333,4.26533333 4.79933333,4.26533333 C5.094,4.26533333 5.33333333,4.02866667 5.33333333,3.73466667 L7.466,3.73466667 C7.466,4.02866667 7.706,4.26533333 8,4.26533333 C8.294,4.26533333 8.534,4.02866667 8.534,3.73466667 L10.6666667,3.73466667 C10.6666667,4.02866667 10.906,4.26533333 11.2006667,4.26533333 C11.4946667,4.26533333 11.7346667,4.02866667 11.7346667,3.73466667 L13.8673333,3.73466667 C13.8673333,4.02866667 14.1066667,4.26533333 14.4013333,4.26533333 C14.6953333,4.26533333 14.932,4.02866667 14.932,3.73466667 L17.068,3.73466667 C17.068,4.02866667 17.3046667,4.26533333 17.5986667,4.26533333 C17.8933333,4.26533333 18.1326667,4.02866667 18.1326667,3.73466667 L20.2653333,3.73466667 C20.2653333,4.02866667 20.5053333,4.26533333 20.7993333,4.26533333 C21.094,4.26533333 21.3333333,4.02866667 21.3333333,3.73466667 L23.466,3.73466667 C23.466,4.02866667 23.706,4.26533333 24,4.26533333 C24.294,4.26533333 24.534,4.02866667 24.534,3.73466667 L26.6666667,3.73466667 C26.6666667,4.02866667 26.906,4.26533333 27.2006667,4.26533333 C27.4946667,4.26533333 27.7346667,4.02866667 27.7346667,3.73466667 L29.8673333,3.73466667 C29.8673333,4.02866667 30.1066667,4.26533333 30.4013333,4.26533333 C30.6953333,4.26533333 30.932,4.02866667 30.932,3.73466667 L30.932,6.932 C30.932,6.638 30.6953333,6.40133333 30.4013333,6.40133333 C30.1066667,6.40133333 29.8673333,6.638 29.8673333,6.932 L27.7346667,6.932 C27.7346667,6.638 27.4946667,6.40133333 27.2006667,6.40133333 C26.906,6.40133333 26.6666667,6.638 26.6666667,6.932 L24.534,6.932 C24.534,6.638 24.294,6.40133333 24,6.40133333 C23.706,6.40133333 23.466,6.638 23.466,6.932 L21.3333333,6.932 C21.3333333,6.638 21.094,6.40133333 20.7993333,6.40133333 C20.5053333,6.40133333 20.2653333,6.638 20.2653333,6.932 L18.1326667,6.932 C18.1326667,6.638 17.8933333,6.40133333 17.5986667,6.40133333 C17.3046667,6.40133333 17.068,6.638 17.068,6.932 L14.932,6.932 C14.932,6.638 14.6953333,6.40133333 14.4013333,6.40133333 C14.1066667,6.40133333 13.8673333,6.638 13.8673333,6.932 L11.7346667,6.932 C11.7346667,6.638 11.4946667,6.40133333 11.2006667,6.40133333 C10.906,6.40133333 10.6666667,6.638 10.6666667,6.932 L8.534,6.932 C8.534,6.638 8.294,6.40133333 8,6.40133333 C7.706,6.40133333 7.466,6.638 7.466,6.932 L5.33333333,6.932 C5.33333333,6.638 5.094,6.40133333 4.79933333,6.40133333 C4.50533333,6.40133333 4.26533333,6.638 4.26533333,6.932 L2.13266667,6.932 C2.13266667,6.638 1.89333333,6.40133333 1.59866667,6.40133333 C1.30466667,6.40133333 1.068,6.638 1.068,6.932 L1.068,3.73466667 C1.068,4.02866667 1.30466667,4.26533333 1.59866667,4.26533333 L1.59866667,4.26533333 Z M29.75,0 L2.25,0 C1.008,0 0,1.008 0,2.25 L0,21.2186667 C0,22.458 1.008,23.466 2.25,23.466 L29.75,23.466 C30.992,23.466 32,22.458 32,21.2186667 L32,2.25 C32,1.008 30.992,0 29.75,0 L29.75,0 Z" id="Fill-1"></path>
                <path d="M18.6666667,10.1326667 L28.2653333,10.1326667 L28.2653333,19.7346667 L27.198,19.7346667 C27.1873333,19.0966667 26.8333333,18.526 26.2633333,18.2393333 L25.1326667,17.664 C25.6533333,17.3306667 26.026,16.8306667 26.25,16.1693333 C26.6146667,15.948 26.844,15.552 26.844,15.112 L26.844,14.7553333 C26.844,14.3933333 26.6873333,14.0573333 26.422,13.8253333 C26.232,12.8126667 25.544,11.716 23.466,11.716 C23.3853333,11.716 23.3046667,11.7213333 23.2266667,11.7266667 C22.948,11.75 22.5413333,11.7266667 22.1953333,11.492 C22.0313333,11.3853333 21.9506667,11.302 21.9086667,11.2473333 C21.7366667,11.0313333 21.4533333,10.958 21.2033333,11.0626667 C20.9506667,11.1666667 20.802,11.4193333 20.8333333,11.69 C20.8486667,11.8253333 20.8726667,11.9866667 20.906,12.1613333 C20.9533333,12.3853333 20.956,12.4506667 20.9533333,12.4686667 C20.948,12.4866667 20.9166667,12.552 20.8933333,12.6066667 C20.8566667,12.6846667 20.81,12.784 20.7553333,12.9166667 C20.6406667,13.198 20.5573333,13.5053333 20.5053333,13.8333333 C20.2446667,14.068 20.0913333,14.4013333 20.0913333,14.7553333 L20.0913333,15.112 C20.0913333,15.552 20.32,15.948 20.6846667,16.1693333 C20.906,16.828 21.2786667,17.328 21.7966667,17.6586667 L20.62,18.2393333 C20.0726667,18.5366667 19.7346667,19.1093333 19.7346667,19.732 L19.7346667,19.7346667 L18.6666667,19.7346667 L18.6666667,10.1326667 Z M20.7993333,19.7346667 L20.7993333,19.732 C20.7993333,19.4973333 20.9273333,19.2866667 21.1093333,19.1846667 L22.4846667,18.508 C22.7606667,18.37 22.932,18.094 22.932,17.7866667 L22.932,17.026 L22.612,16.888 C22.1253333,16.68 21.8073333,16.2733333 21.6406667,15.6513333 L21.5653333,15.3646667 L21.284,15.2786667 C21.2213333,15.2606667 21.156,15.198 21.156,15.112 L21.156,14.7553333 C21.156,14.68 21.206,14.6273333 21.2553333,14.6013333 L21.5053333,14.4686667 L21.534,14.1846667 C21.568,13.8673333 21.638,13.578 21.742,13.32 C21.7893333,13.208 21.828,13.1246667 21.8593333,13.0573333 C21.9426667,12.88 21.992,12.7473333 22.0106667,12.6013333 C22.4013333,12.7633333 22.844,12.828 23.3126667,12.7913333 C23.362,12.7866667 23.414,12.784 23.4686667,12.784 C25.0233333,12.784 25.318,13.4946667 25.3986667,14.1926667 L25.432,14.4686667 L25.68,14.6013333 C25.7293333,14.6246667 25.7786667,14.68 25.7786667,14.7553333 L25.7786667,15.112 C25.7786667,15.198 25.7133333,15.2606667 25.6513333,15.2786667 L25.37,15.3646667 L25.294,15.6513333 C25.1273333,16.2733333 24.81,16.68 24.3253333,16.888 L24,17.026 L24,17.7893333 C24,18.094 24.1693333,18.37 24.44,18.508 L25.784,19.1926667 C25.992,19.2966667 26.1253333,19.5026667 26.1326667,19.7346667 L20.7993333,19.7346667 Z M27.0133333,20.7993333 L29.3333333,20.7993333 L29.3333333,9.068 L17.5986667,9.068 L17.5986667,20.7993333 L27.0133333,20.7993333 Z" id="Fill-3"></path>
                <path d="M3.20066667,11.2006667 L8,11.2006667 C8.294,11.2006667 8.534,10.9606667 8.534,10.6666667 C8.534,10.3726667 8.294,10.1326667 8,10.1326667 L3.20066667,10.1326667 C2.906,10.1326667 2.66666667,10.3726667 2.66666667,10.6666667 C2.66666667,10.9606667 2.906,11.2006667 3.20066667,11.2006667" id="Fill-5"></path>
                <path d="M10.1326667,11.2006667 L14.932,11.2006667 C15.2293333,11.2006667 15.466,10.9606667 15.466,10.6666667 C15.466,10.3726667 15.2293333,10.1326667 14.932,10.1326667 L10.1326667,10.1326667 C9.83866667,10.1326667 9.59866667,10.3726667 9.59866667,10.6666667 C9.59866667,10.9606667 9.83866667,11.2006667 10.1326667,11.2006667" id="Fill-7"></path>
                <path d="M3.20066667,13.8673333 L3.73466667,13.8673333 C4.02866667,13.8673333 4.26533333,13.6273333 4.26533333,13.3333333 C4.26533333,13.0393333 4.02866667,12.7993333 3.73466667,12.7993333 L3.20066667,12.7993333 C2.906,12.7993333 2.66666667,13.0393333 2.66666667,13.3333333 C2.66666667,13.6273333 2.906,13.8673333 3.20066667,13.8673333" id="Fill-9"></path>
                <path d="M6.932,13.8673333 C7.22933333,13.8673333 7.466,13.6273333 7.466,13.3333333 C7.466,13.0393333 7.22933333,12.7993333 6.932,12.7993333 L5.86733333,12.7993333 C5.57266667,12.7993333 5.33333333,13.0393333 5.33333333,13.3333333 C5.33333333,13.6273333 5.57266667,13.8673333 5.86733333,13.8673333 L6.932,13.8673333 Z" id="Fill-11"></path>
                <path d="M9.068,13.8673333 L9.59866667,13.8673333 C9.896,13.8673333 10.1326667,13.6273333 10.1326667,13.3333333 C10.1326667,13.0393333 9.896,12.7993333 9.59866667,12.7993333 L9.068,12.7993333 C8.77066667,12.7993333 8.534,13.0393333 8.534,13.3333333 C8.534,13.6273333 8.77066667,13.8673333 9.068,13.8673333" id="Fill-13"></path>
                <path d="M12.7993333,13.8673333 C13.094,13.8673333 13.3333333,13.6273333 13.3333333,13.3333333 C13.3333333,13.0393333 13.094,12.7993333 12.7993333,12.7993333 L11.7346667,12.7993333 C11.4373333,12.7993333 11.2006667,13.0393333 11.2006667,13.3333333 C11.2006667,13.6273333 11.4373333,13.8673333 11.7346667,13.8673333 L12.7993333,13.8673333 Z" id="Fill-15"></path>
                <path d="M14.5546667,12.956 C14.4586667,13.0546667 14.4013333,13.1873333 14.4013333,13.3333333 C14.4013333,13.4766667 14.4586667,13.6093333 14.5546667,13.7106667 C14.656,13.8073333 14.794,13.8673333 14.932,13.8673333 C15.0726667,13.8673333 15.2106667,13.8073333 15.3126667,13.7106667 C15.4086667,13.6093333 15.466,13.4713333 15.466,13.3333333 C15.466,13.1953333 15.4086667,13.0546667 15.3126667,12.956 C15.1146667,12.758 14.7526667,12.758 14.5546667,12.956" id="Fill-17"></path>
                <path d="M6.21333333,15.68 C5.04666667,16.2893333 4.65133333,17.4506667 4.51066667,18.656 C4.28933333,18.4713333 4.068,18.2866667 3.84666667,18.1013333 C3.32533333,17.664 2.56533333,18.414 3.094,18.8566667 C3.59133333,19.2733333 4.09133333,19.6926667 4.59133333,20.1093333 C4.94,20.4033333 5.48466667,20.2186667 5.5,19.7346667 C5.53933333,18.578 5.594,17.2033333 6.75266667,16.6013333 C7.362,16.284 6.82266667,15.362 6.21333333,15.68" id="Fill-19"></path>
                <path d="M13.284,17.2653333 C12.5053333,17.216 11.3673333,18.414 10.768,17.3466667 C10.63,17.0986667 10.2813333,17.0053333 10.0393333,17.156 C9.284,17.62 8.29666667,18.2866667 7.50266667,17.422 C7.03666667,16.9166667 6.284,17.672 6.74733333,18.1773333 C7.74466667,19.2606667 9.02866667,18.93 10.1613333,18.3153333 C10.4166667,18.6013333 10.732,18.81 11.1406667,18.8933333 C11.5626667,18.9793333 13.2866667,18.284 13.38,18.4113333 C13.7813333,18.9606667 14.708,18.43 14.302,17.8726667 C14.026,17.4973333 13.7706667,17.294 13.284,17.2653333" id="Fill-21"></path>
                <path d="M22.932,5.33333333 C22.932,5.62733333 22.6953333,5.86733333 22.4013333,5.86733333 C22.104,5.86733333 21.8673333,5.62733333 21.8673333,5.33333333 C21.8673333,5.03933333 22.104,4.79933333 22.4013333,4.79933333 C22.6953333,4.79933333 22.932,5.03933333 22.932,5.33333333" id="Fill-23"></path>
                <path d="M26.1326667,5.33333333 C26.1326667,5.62733333 25.896,5.86733333 25.5986667,5.86733333 C25.3046667,5.86733333 25.068,5.62733333 25.068,5.33333333 C25.068,5.03933333 25.3046667,4.79933333 25.5986667,4.79933333 C25.896,4.79933333 26.1326667,5.03933333 26.1326667,5.33333333" id="Fill-25"></path>
                <path d="M13.3333333,5.33333333 C13.3333333,5.62733333 13.094,5.86733333 12.7993333,5.86733333 C12.5053333,5.86733333 12.2653333,5.62733333 12.2653333,5.33333333 C12.2653333,5.03933333 12.5053333,4.79933333 12.7993333,4.79933333 C13.094,4.79933333 13.3333333,5.03933333 13.3333333,5.33333333" id="Fill-27"></path>
                <path d="M16.534,5.33333333 C16.534,5.62733333 16.294,5.86733333 16,5.86733333 C15.706,5.86733333 15.466,5.62733333 15.466,5.33333333 C15.466,5.03933333 15.706,4.79933333 16,4.79933333 C16.294,4.79933333 16.534,5.03933333 16.534,5.33333333" id="Fill-29"></path>
                <path d="M19.7346667,5.33333333 C19.7346667,5.62733333 19.4946667,5.86733333 19.2006667,5.86733333 C18.906,5.86733333 18.6666667,5.62733333 18.6666667,5.33333333 C18.6666667,5.03933333 18.906,4.79933333 19.2006667,4.79933333 C19.4946667,4.79933333 19.7346667,5.03933333 19.7346667,5.33333333" id="Fill-31"></path>
                <path d="M29.3333333,5.33333333 C29.3333333,5.62733333 29.094,5.86733333 28.7993333,5.86733333 C28.5053333,5.86733333 28.2653333,5.62733333 28.2653333,5.33333333 C28.2653333,5.03933333 28.5053333,4.79933333 28.7993333,4.79933333 C29.094,4.79933333 29.3333333,5.03933333 29.3333333,5.33333333" id="Fill-33"></path>
                <path d="M10.1326667,5.33333333 C10.1326667,5.62733333 9.896,5.86733333 9.59866667,5.86733333 C9.30466667,5.86733333 9.068,5.62733333 9.068,5.33333333 C9.068,5.03933333 9.30466667,4.79933333 9.59866667,4.79933333 C9.896,4.79933333 10.1326667,5.03933333 10.1326667,5.33333333" id="Fill-35"></path>
                <path d="M3.73466667,5.33333333 C3.73466667,5.62733333 3.49466667,5.86733333 3.20066667,5.86733333 C2.906,5.86733333 2.66666667,5.62733333 2.66666667,5.33333333 C2.66666667,5.03933333 2.906,4.79933333 3.20066667,4.79933333 C3.49466667,4.79933333 3.73466667,5.03933333 3.73466667,5.33333333" id="Fill-37"></path>
                <path d="M6.932,5.33333333 C6.932,5.62733333 6.69533333,5.86733333 6.40133333,5.86733333 C6.104,5.86733333 5.86733333,5.62733333 5.86733333,5.33333333 C5.86733333,5.03933333 6.104,4.79933333 6.40133333,4.79933333 C6.69533333,4.79933333 6.932,5.03933333 6.932,5.33333333" id="Fill-39"></path>
            </g>
        </g>
    </g>
</svg>