<?xml version="1.0" encoding="UTF-8" standalone="no"?>
<svg width="39px" height="37px" viewBox="0 0 39 37" version="1.1" xmlns="http://www.w3.org/2000/svg" xmlns:xlink="http://www.w3.org/1999/xlink">
    <!-- Generator: Sketch 39.1 (31720) - http://www.bohemiancoding.com/sketch -->
    <title>Page 1</title>
    <desc>Created with Sketch.</desc>
    <defs></defs>
    <g id="SP2-Pago-fácil" stroke="none" stroke-width="1" fill="none" fill-rule="evenodd">
        <g id="6-PagoFacil-Correcciones" transform="translate(-25.000000, -761.000000)" fill="#7A7A7A">
            <g id="Page-1" transform="translate(25.000000, 761.000000)">
                <path d="M35.5266017,2.46139135 L3.08034119,2.46139135 C2.74027152,2.46139135 2.46427295,2.73706718 2.46427295,3.07673918 L2.46427295,22.7678699 C2.46427295,23.107542 2.74027152,23.3832178 3.08034119,23.3832178 L29.7766315,23.3832178 C30.1167012,23.3832178 30.3926997,23.107542 30.3926997,22.7678699 C30.3926997,22.4281979 30.1167012,22.1525221 29.7766315,22.1525221 L3.69640943,22.1525221 L3.69640943,3.69208702 L34.9105335,3.69208702 L34.9105335,22.1525221 L32.2409044,22.1525221 C31.9008348,22.1525221 31.6248362,22.4281979 31.6248362,22.7678699 C31.6248362,23.107542 31.9008348,23.3832178 32.2409044,23.3832178 L35.5266017,23.3832178 C35.8666714,23.3832178 36.1426699,23.107542 36.1426699,22.7678699 L36.1426699,3.07673918 C36.1426699,2.73706718 35.8666714,2.46139135 35.5266017,2.46139135" id="Fill-3"></path>
                <path d="M37.3748064,24.6139135 L1.23213648,24.6139135 L1.23213648,3.07673918 C1.23213648,2.05874874 2.06115897,1.23069567 3.08034119,1.23069567 L35.5266017,1.23069567 C36.5457839,1.23069567 37.3748064,2.05874874 37.3748064,3.07673918 L37.3748064,24.6139135 Z M37.3748064,27.6906526 C37.3748064,28.7086431 36.5457839,29.5366962 35.5266017,29.5366962 L3.08034119,29.5366962 C2.06115897,29.5366962 1.23213648,28.7086431 1.23213648,27.6906526 L1.23213648,25.8446091 L37.3748064,25.8446091 L37.3748064,27.6906526 Z M16.2231303,35.2799426 L22.3838126,35.2799426 L22.3838126,30.7673918 L16.2231303,30.7673918 L16.2231303,35.2799426 Z M35.5266017,0 L3.08034119,0 C1.38173838,0 0,1.38012264 0,3.07673918 L0,27.6906526 C0,29.3872692 1.38173838,30.7673918 3.08034119,30.7673918 L14.9909938,30.7673918 L14.9909938,35.2799426 L10.6785161,35.2799426 C10.3384465,35.2799426 10.0624479,35.5556185 10.0624479,35.8952905 C10.0624479,36.2349625 10.3384465,36.5106383 10.6785161,36.5106383 L27.9284268,36.5106383 C28.2684964,36.5106383 28.544495,36.2349625 28.544495,35.8952905 C28.544495,35.5556185 28.2684964,35.2799426 27.9284268,35.2799426 L23.6159491,35.2799426 L23.6159491,30.7673918 L35.5266017,30.7673918 C37.2252045,30.7673918 38.6069429,29.3872692 38.6069429,27.6906526 L38.6069429,3.07673918 C38.6069429,1.38012264 37.2252045,0 35.5266017,0 L35.5266017,0 Z" id="Fill-1"></path>
            </g>
        </g>
    </g>
</svg>