<?xml version="1.0" encoding="UTF-8" standalone="no"?>
<svg width="91px" height="14px" viewBox="0 0 91 14" version="1.1" xmlns="http://www.w3.org/2000/svg" xmlns:xlink="http://www.w3.org/1999/xlink">
    <!-- Generator: Sketch 39.1 (31720) - http://www.bohemiancoding.com/sketch -->
    <title>Group 11</title>
    <desc>Created with Sketch.</desc>
    <defs>
        <polygon id="path-1" points="8.85881124 13.8725861 17.6412548 13.8725861 17.6412548 0.142278597 8.85881124 0.142278597 0.0763676798 0.142278597 0.0763676798 13.8725861"></polygon>
    </defs>
    <g id="SP2-Pago-fácil" stroke="none" stroke-width="1" fill="none" fill-rule="evenodd">
        <g id="1-PagoFacil-Correcciones" transform="translate(-147.000000, -1237.000000)">
            <g id="Group-19" transform="translate(30.000000, 1233.000000)">
                <g id="Group-11" transform="translate(117.000000, 4.000000)">
                    <path d="M52.7592061,3.59232309 C53.0184023,2.03690167 52.3168289,1.65523637 51.0763779,1.65523637 L49.5794395,1.65523637 C48.6308593,1.65523637 48.3943491,1.72476848 48.2385944,2.61752015 L47.5778219,6.38426564 L49.8504866,6.38426564 C50.5027941,6.38426564 50.8925196,6.17668438 51.147314,5.89720252 C51.2758116,5.7566157 51.3707882,5.5960659 51.4483269,5.42891815 C51.5157078,5.28714709 51.5688675,5.14165411 51.6177948,5.00495839 C51.6233817,4.98990155 51.6469142,4.93407285 51.653009,4.91800096 L52.2709489,4.90666604 L51.5514298,9.02073371 L50.9257021,9.02073371 C51.1060051,7.93968706 50.7966965,7.37175692 49.6918537,7.37175692 L47.4061531,7.37175692 L46.6644558,11.6132155 C46.4824598,12.6501068 46.6901892,12.6744684 47.6362299,12.6744684 L49.7676995,12.6744684 C50.8310642,12.6744684 51.4164988,12.2782538 51.7898022,10.8207863 L52.4096045,10.8168953 L51.8519348,13.6619597 L44.1072002,13.6619597 L45.9171717,3.31165699 C46.0861317,2.35241841 46.1475871,1.9020669 45.9725324,1.64694666 C45.8091592,1.4087442 45.4311154,1.33092238 44.6636847,1.19947117 C44.6254232,1.19371912 44.4955712,1.16732737 44.4554474,1.15988354 L44.558381,0.66774509 L53.8376384,0.66774509 L53.3840874,3.59232309 L52.7592061,3.59232309" id="Fill-1" fill="#FFFFFF"></path>
                    <path d="M56.5875558,7.89705423 C56.8078133,8.0388253 57.0456779,8.18245732 57.2821881,8.33167221 C58.228906,8.93800573 59.1718993,9.6945692 58.9096557,11.1899325 C58.576476,13.1004583 56.859788,13.8725861 54.9507768,13.8725861 C54.3628027,13.8725861 53.8659112,13.8155732 53.4631498,13.7428267 C53.0801963,13.6744788 52.6977507,13.5699269 52.4879898,13.5122372 L52.7866325,11.9114761 C53.3620785,12.3631811 54.1376355,12.9436304 55.1745896,12.9436304 C56.3662825,12.9436304 56.8931398,12.3423722 57.0079243,11.6947593 C57.0874947,11.2439002 56.8980495,10.8970856 56.5648698,10.5866442 C56.3976028,10.4308313 56.1968146,10.2851692 55.977065,10.1396762 C55.7551145,9.99553665 55.5174193,9.85258134 55.2805705,9.7045507 C54.3363921,9.11039799 53.3795163,8.40492623 53.6163651,7.05268744 C53.8620174,5.64749597 55.0310243,4.44700974 57.3135083,4.44700974 C57.805998,4.44700974 58.2539622,4.50977473 58.6184621,4.5811678 C58.9071162,4.63953417 59.1436264,4.70212998 59.3068303,4.74476281 C59.3349338,4.75423677 59.4227998,4.77741414 59.4480253,4.78435043 L59.1844274,6.32979036 C59.0478034,6.22506925 58.9572286,6.14927756 58.8412591,6.06384273 C58.7151316,5.96910312 58.5609006,5.86150599 58.3794124,5.75915337 C58.0186371,5.55546321 57.5600071,5.37664219 57.0312875,5.37664219 C56.4224897,5.37664219 55.6841784,5.60384808 55.5462,6.39509302 C55.4695078,6.83123359 55.6614924,7.16062293 55.99518,7.46209791 C56.1627856,7.61317375 56.3662825,7.7542681 56.5875558,7.89705423" id="Fill-2" fill="#FFFFFF"></path>
                    <path d="M61.7899331,4.65695949 L62.0498065,3.16176539 L64.3707213,1.37676958 L63.7964604,4.65695949 L66.3105449,4.65695949 L66.1607156,5.50978518 L63.6473083,5.50978518 L62.6779044,11.0557744 C62.4425793,12.395494 62.4375004,12.9436304 63.8694281,12.9436304 C64.0920558,12.9436304 64.3786783,12.9172386 64.6102788,12.8646243 L64.4690838,13.7154199 C63.9865827,13.8006855 63.5636748,13.8725861 63.1451686,13.8725861 C61.2969356,13.8725861 60.2289999,13.5773707 60.6200797,11.3479446 L61.6412889,5.50978518 L60.1431655,5.50978518 L60.2924868,4.65695949 L61.7899331,4.65695949" id="Fill-3" fill="#FFFFFF"></path>
                    <path d="M70.5304823,8.62993281 L70.721959,7.68456682 C70.9406928,6.44567721 71.1484223,5.18428694 70.0021013,5.18428694 C68.8244601,5.18428694 68.5308963,6.16924055 68.3771731,6.99922723 C68.3727714,7.02561898 68.3609205,7.10462505 68.3558415,7.13152433 L65.9729634,7.14032158 C66.4420899,5.78436088 67.33277,4.44700974 70.0962313,4.44700974 C72.8612164,4.44700974 73.0433817,5.88637514 72.7093555,7.7948708 L71.6835752,13.6619597 L69.6772172,13.6619597 L69.8605676,12.6130568 C69.7347788,12.7379101 69.6545312,12.8157319 69.5636179,12.8998133 C69.4049851,13.0442912 69.2146934,13.2012883 68.9925736,13.3454278 C68.5447788,13.6348912 67.9637459,13.8725861 67.2139223,13.8725861 C65.6970067,13.8725861 64.783302,12.7791895 64.9866297,11.6167683 C65.45965,8.91719685 69.2429663,8.67341152 70.5304823,8.62993281 M67.2403329,11.3053118 C67.0866098,12.178608 67.4186044,12.7522902 68.0875032,12.7522902 C69.1715223,12.7522902 70.009889,11.7612462 70.2355641,10.465682 L70.4211154,9.40493667 C69.5900285,9.4345428 67.5388064,9.59560014 67.2403329,11.3053118 M67.2403329,11.3053118 C67.0866098,12.178608 67.4186044,12.7522902 68.0875032,12.7522902 C69.1715223,12.7522902 70.009889,11.7612462 70.2355641,10.465682 L70.4211154,9.40493667 C69.5900285,9.4345428 67.5388064,9.59560014 67.2403329,11.3053118 M70.5304823,8.62993281 L70.721959,7.68456682 C70.9406928,6.44567721 71.1484223,5.18428694 70.0021013,5.18428694 C68.8244601,5.18428694 68.5308963,6.16924055 68.3771731,6.99922723 C68.3727714,7.02561898 68.3609205,7.10462505 68.3558415,7.13152433 L65.9729634,7.14032158 C66.4420899,5.78436088 67.33277,4.44700974 70.0962313,4.44700974 C72.8612164,4.44700974 73.0433817,5.88637514 72.7093555,7.7948708 L71.6835752,13.6619597 L69.6772172,13.6619597 L69.8605676,12.6130568 C69.7347788,12.7379101 69.6545312,12.8157319 69.5636179,12.8998133 C69.4049851,13.0442912 69.2146934,13.2012883 68.9925736,13.3454278 C68.5447788,13.6348912 67.9637459,13.8725861 67.2139223,13.8725861 C65.6970067,13.8725861 64.783302,12.7791895 64.9866297,11.6167683 C65.45965,8.91719685 69.2429663,8.67341152 70.5304823,8.62993281" id="Fill-4" fill="#FFFFFF"></path>
                    <g id="Group-8" transform="translate(73.137004, 0.000000)">
                        <mask id="mask-2" fill="white">
                            <use xlink:href="#path-1"></use>
                        </mask>
                        <g id="Clip-6"></g>
                        <path d="M6.41557121,8.58679245 C6.60772514,7.4957643 6.72809646,5.56730566 4.96197325,5.56730566 C3.23766681,5.56730566 2.68118224,7.72550786 2.44416418,9.08163775 C2.18107412,10.5844448 1.96589558,12.7522902 3.70848627,12.7522902 C5.50948499,12.7522902 6.09864419,10.4017327 6.27894722,9.37245452 L6.41557121,8.58679245 L6.41557121,8.58679245 Z M9.9007526,0.142278597 L7.53497368,13.6619597 L5.52844644,13.6619597 L5.70536349,12.6526444 C5.5455456,12.784434 5.42923744,12.877651 5.30260208,12.9750975 C5.11298762,13.1173761 4.89967136,13.2645608 4.66011381,13.3973655 C4.17930573,13.6644973 3.5947176,13.8725861 2.895345,13.8725861 C0.352818324,13.8725861 -0.217379428,11.7346853 0.201126761,9.33489703 C0.628944373,6.89518283 2.03750889,4.44700974 4.60424527,4.44700974 C6.12877934,4.44700974 6.62567079,5.19697528 6.89130033,5.82377932 C6.92380566,5.73919038 6.95885048,5.55478649 7.00151373,5.30914021 L7.17843079,4.26125243 C7.30286527,3.5165314 7.43000854,2.79414186 7.43000854,2.79414186 C7.6548371,1.50720573 7.44389102,1.18255338 6.46957746,1.10726922 C6.43758003,1.10456237 6.30823588,1.0928891 6.27369896,1.09085897 L6.36867549,0.634586226 L9.9007526,0.142278597 L9.9007526,0.142278597 Z" id="Fill-5" fill="#FFFFFF" mask="url(#mask-2)"></path>
                        <path d="M14.1565813,4.44700974 C16.9762498,4.44700974 18.0125267,6.39932247 17.5256238,9.17553147 C16.9762498,12.3183489 15.3880595,13.8725861 12.5235268,13.8725861 C9.39336463,13.8725861 8.67790866,11.8600461 9.14906672,9.16165888 C9.71130744,5.94237302 11.3281093,4.44700974 14.1565813,4.44700974 M15.3304979,9.16165888 C15.6435311,7.36989596 15.8429649,5.18428694 14.0423047,5.18428694 C12.1850989,5.18428694 11.643174,7.47444789 11.3458856,9.17553147 C11.0623104,10.7981165 10.7975274,13.1353089 12.6362797,13.1353089 C14.4752013,13.1353089 14.99207,11.0933319 15.3304979,9.16165888 M15.3304979,9.16165888 C15.6435311,7.36989596 15.8429649,5.18428694 14.0423047,5.18428694 C12.1850989,5.18428694 11.643174,7.47444789 11.3458856,9.17553147 C11.0623104,10.7981165 10.7975274,13.1353089 12.6362797,13.1353089 C14.4752013,13.1353089 14.99207,11.0933319 15.3304979,9.16165888 M14.1565813,4.44700974 C16.9762498,4.44700974 18.0125267,6.39932247 17.5256238,9.17553147 C16.9762498,12.3183489 15.3880595,13.8725861 12.5235268,13.8725861 C9.39336463,13.8725861 8.67790866,11.8600461 9.14906672,9.16165888 C9.71130744,5.94237302 11.3281093,4.44700974 14.1565813,4.44700974" id="Fill-7" fill="#E05431" mask="url(#mask-2)"></path>
                    </g>
                    <path d="M3.4846735,6.30661299 L4.72072272,6.30661299 C6.36071845,6.30661299 7.69445298,5.77674787 8.02136862,3.90648641 C8.31628681,2.21876789 7.47368758,1.65523637 5.74023901,1.65523637 C4.59256366,1.65523637 4.28816475,1.71174178 4.13020913,2.61752015 L3.4846735,6.30661299 L3.4846735,6.30661299 Z M10.2335937,3.82646528 C9.91361929,5.6595076 8.5014995,6.41505601 7.50365344,6.74292274 C8.76932992,7.03323198 10.1953322,7.77812219 9.77191635,10.1944898 C9.46819462,11.9297473 8.32881491,12.7974607 7.07278845,13.2305561 C6.44655285,13.4455811 5.78899701,13.5548701 5.19103429,13.6074844 C4.59391805,13.6619597 4.05300896,13.6619597 3.65786598,13.6619597 L0,13.6619597 L1.81132594,3.31165699 C1.97876227,2.35241841 2.04411154,1.90155936 1.87142695,1.64694666 C1.70145113,1.39487162 1.22284393,1.28964297 0.365854318,1.14685684 L0.450334329,0.66774509 L6.18684877,0.66774509 C8.38586854,0.66774509 10.6961175,1.18424516 10.2335937,3.82646528 L10.2335937,3.82646528 Z M2.50020202,11.9385446 C2.37272016,12.6626259 3.07429364,12.6744684 4.16288377,12.6744684 C6.25270593,12.6744684 7.30184948,11.7499113 7.64044672,9.81451632 C7.96550007,7.95660485 6.70253237,7.29461181 5.02224356,7.29461181 L3.3119889,7.29461181 L2.50020202,11.9385446 L2.50020202,11.9385446 Z" id="Fill-9" fill="#FFFFFF"></path>
                    <path d="M15.4788035,8.62993281 L15.6712961,7.68456682 C15.8885062,6.44567721 16.0974207,5.18428694 14.9499146,5.18428694 C13.7878489,5.18428694 13.4854816,6.14487894 13.3312505,6.96928274 C13.3236321,7.00565599 13.3122891,7.09718122 13.306025,7.13287775 L10.9206075,7.14032158 C11.3912576,5.78436088 12.2802447,4.44700974 15.0445526,4.44700974 C17.8113999,4.44700974 17.9922108,5.88637514 17.658354,7.7948708 L16.6313885,13.6619597 L14.6248613,13.6619597 L14.8093968,12.6130568 C14.6825921,12.7379101 14.6023446,12.8157319 14.5132935,12.8998133 C14.353137,13.0434453 14.1630147,13.2012883 13.9408949,13.3454278 C13.4931,13.6348912 12.9120672,13.8725861 12.1622436,13.8725861 C10.6451586,13.8725861 9.73230047,12.7791895 9.93562811,11.6167683 C10.4079713,8.91719685 14.1912875,8.67341152 15.4788035,8.62993281 M12.187977,11.3053118 C12.034931,12.178608 12.3655712,12.7522902 13.0356551,12.7522902 C14.1184891,12.7522902 14.9575331,11.7612462 15.1838853,10.465682 L15.3696059,9.40493667 C14.5383497,9.4345428 12.486789,9.59560014 12.187977,11.3053118" id="Fill-10" fill="#FFFFFF"></path>
                    <path d="M70.7513227,8.58154793 L70.9438152,7.63618194 C71.1610253,6.39729233 71.3699398,5.13590206 70.2224338,5.13590206 C69.0603681,5.13590206 68.7580007,6.09649406 68.6037697,6.92089787 C68.5961512,6.95727111 68.5848082,7.04879635 68.5785442,7.08449288 L66.1931266,7.09193671 C66.6637768,5.735976 67.5527638,4.39862487 70.3170717,4.39862487 C73.0839191,4.39862487 73.26473,5.83799026 72.9308731,7.74648592 L71.9039077,13.6135748 L69.8973804,13.6135748 L70.0819159,12.5646719 C69.9551113,12.6895252 69.8748637,12.767347 69.7858126,12.8514284 C69.6256561,12.9950605 69.4355338,13.1529034 69.213414,13.297043 C68.7656192,13.5865063 68.1845863,13.8242012 67.4347627,13.8242012 C65.9176778,13.8242012 65.0048196,12.7308046 65.2081473,11.5683834 C65.6804904,8.86881197 69.4638067,8.62502665 70.7513227,8.58154793 M67.4604961,11.2569269 C67.3074501,12.1302231 67.6380903,12.7039053 68.3081743,12.7039053 C69.3910083,12.7039053 70.2300522,11.7128613 70.4564045,10.4172971 L70.6421251,9.3565518 C69.8108688,9.38615793 67.7593082,9.54721527 67.4604961,11.2569269" id="Fill-10" fill="#FFFFFF"></path>
                    <path d="M24.6332878,8.64431293 C24.9024726,7.09667369 25.1127415,5.83714437 23.8885432,5.83714437 C22.6530018,5.83714437 21.2557803,7.59236487 21.0192702,8.94731051 L20.1956324,13.6619597 L18.1885972,13.6619597 L19.3203585,7.1868455 C19.5450178,5.91158264 19.3159568,5.58946796 18.246836,5.53465433 C18.2187324,5.53414679 18.1007313,5.51976667 18.0712733,5.51908996 L18.1571077,5.06518571 L21.8085403,4.43753578 L21.3946052,6.80551856 C22.0144075,5.89415732 23.2756822,4.44700974 24.99965,4.44700974 C26.787782,4.44700974 27.1516048,5.71702808 26.8913928,7.19987219 L25.762171,13.6619597 L23.7542894,13.6619597 L24.6332878,8.64431293" id="Fill-11" fill="#FFFFFF"></path>
                    <path d="M32.9207939,7.1592695 C33.0699459,6.2751459 33.0536933,5.18428694 31.9356452,5.18428694 C30.6721696,5.18428694 30.1387096,6.55733461 29.8143335,8.40932485 C29.3194736,11.2406858 30.3513487,12.7522902 32.0555086,12.7522902 C32.6202888,12.7522902 33.3780694,12.6477383 33.8656495,12.5054597 C33.8825793,12.5002152 33.9421724,12.4802522 33.9584251,12.4746693 L33.8047019,13.4137757 C33.4082046,13.5486105 33.1303855,13.6526549 32.7249154,13.7353829 C32.3108109,13.8206485 31.7893712,13.8725861 30.9919747,13.8725861 C28.2703301,13.8725861 26.9985588,11.9422665 27.5086556,9.02817754 C27.9691478,6.38815673 29.3909176,4.44700974 32.1652141,4.44700974 C34.2470792,4.44700974 35.4873609,5.47155098 35.2992702,6.99042998 C35.2953763,7.02561898 35.2828482,7.11968188 35.277092,7.15487088 L32.9207939,7.1592695" id="Fill-12" fill="#FFFFFF"></path>
                    <path d="M40.3530471,4.22944699 C43.1720384,4.22944699 44.2091618,6.18175971 43.7236133,8.95796872 C43.1720384,12.1007862 41.5846946,13.6550234 38.7193154,13.6550234 C35.5905076,13.6550234 34.8753903,11.6424833 35.3457018,8.94409613 C35.9098048,5.72481026 37.526776,4.22944699 40.3530471,4.22944699 M41.5276409,8.94409613 C41.8401662,7.15233321 42.0402772,4.96672418 40.2389398,4.96672418 C38.3825805,4.96672418 37.8396398,7.25688514 37.5425207,8.95796872 C37.2586069,10.5805538 36.9941625,12.9177462 38.8329148,12.9177462 C40.6718364,12.9177462 41.1895516,10.8757692 41.5276409,8.94409613" id="Fill-1" fill="#FFFFFF"></path>
                    <path d="M87.2487649,4.22944699 C90.0677562,4.22944699 91.1048795,6.18175971 90.6193311,8.95796872 C90.0677562,12.1007862 88.4804123,13.6550234 85.6150332,13.6550234 C82.4862254,13.6550234 81.771108,11.6424833 82.2414196,8.94409613 C82.8055226,5.72481026 84.4224937,4.22944699 87.2487649,4.22944699 M88.4233587,8.94409613 C88.7358839,7.15233321 88.9359949,4.96672418 87.1346576,4.96672418 C85.2782982,4.96672418 84.7353575,7.25688514 84.4382385,8.95796872 C84.1543247,10.5805538 83.8898802,12.9177462 85.7286325,12.9177462 C87.5675542,12.9177462 88.0852693,10.8757692 88.4233587,8.94409613" id="Fill-1-Copy" fill="#FFFFFF"></path>
                </g>
            </g>
        </g>
    </g>
</svg>