<?xml version="1.0" encoding="UTF-8" standalone="no"?>
<svg width="104px" height="18px" viewBox="0 0 104 18" version="1.1" xmlns="http://www.w3.org/2000/svg" xmlns:xlink="http://www.w3.org/1999/xlink">
    <!-- Generator: Sketch 39.1 (31720) - http://www.bohemiancoding.com/sketch -->
    <title>Page 1</title>
    <desc>Created with Sketch.</desc>
    <defs></defs>
    <g id="SP2-Pago-fácil" stroke="none" stroke-width="1" fill="none" fill-rule="evenodd">
        <g id="1-PagoFacil-Correcciones" transform="translate(-30.000000, -1234.000000)" fill="#FFFFFF">
            <g id="Group-19" transform="translate(30.000000, 1233.000000)">
                <g id="Page-1" transform="translate(0.000000, 1.000000)">
                    <path d="M97.2557839,15.4685256 L97.2557839,16.0370746 L101.337185,16.0370746 L101.337185,15.4290259 L100.731774,15.4290259 C100.42231,15.4290259 100.106907,15.0522445 100.106907,14.7430013 L100.106907,10.425876 C100.144592,10.3000093 100.189854,10.1772125 100.243104,10.0685374 C100.504643,9.53457607 101.12992,8.86410568 101.982738,8.61421424 C102.835351,8.3643228 103.346755,9.31865841 103.346755,9.31865841 L103.665025,9.32991478 L103.665025,7.47813941 C103.665025,7.47813941 103.039953,7.21678694 102.459939,7.22824797 C101.880334,7.239709 101.323258,7.6257002 100.87985,8.05753553 C100.618516,8.31213417 100.312943,8.87515739 100.106907,9.29368973 L100.106907,7.23438781 L99.852946,7.23438781 C99.0699675,7.78656397 98.194416,8.39113343 97.2557839,8.62935917 L97.2557839,9.27670284 C97.2557839,9.27670284 97.9261184,8.89071164 98.2714236,9.080228 C98.6163192,9.26933503 98.622873,9.63608807 98.622873,10.0018178 L98.622873,14.7235585 C98.622873,15.1699247 98.2873986,15.4128577 97.9783443,15.4294353 L97.2557839,15.4685256 Z M90.2607935,10.3697988 L95.0117097,10.3697988 C94.979555,9.22226294 94.1080997,7.92000314 92.7438779,7.96339133 C91.3796561,8.00657486 90.2859848,8.93102992 90.2607935,10.3697988 L90.2607935,10.3697988 Z M92.8694248,7.19018097 C95.0301424,7.19018097 96.584835,8.77589666 96.6810945,11.086318 L90.2800454,11.086318 C90.2800454,11.086318 90.2497339,11.9690221 90.615315,13.0950686 C90.9806913,14.2213197 91.5596817,14.8911761 92.8694248,15.3172809 C94.1787582,15.743181 96.3724498,14.6476291 96.3724498,14.6476291 L96.3450056,15.3133923 C95.4805138,16.0462844 94.0583315,16.291264 92.8694248,16.291264 C90.5370786,16.291264 88.5744097,14.2303247 88.5744097,11.7406201 C88.5744097,9.25071086 90.5370786,7.19018097 92.8694248,7.19018097 L92.8694248,7.19018097 Z M85.0377963,9.31149526 L85.0377963,14.0420364 C84.6036047,14.6750537 83.9037779,15.0735293 82.896945,15.0735293 C80.9410347,15.0735293 79.6765541,13.5074611 79.6765541,11.5124228 C79.6765541,9.51717986 80.7593706,7.94497181 82.8623325,8.0116914 C83.9490404,8.04648382 84.6281815,8.56755146 85.0377963,9.31149526 L85.0377963,9.31149526 Z M85.4787465,16.291264 L88.1117499,15.2126989 L88.121171,14.6140647 L87.1469024,14.8813523 C86.8487029,14.9628075 86.5218304,14.5041616 86.5218304,14.1949183 L86.5218304,0.781007956 L86.268074,0.781007956 C85.4848907,1.33359344 84.6093393,1.69973249 83.6707072,1.93795824 L83.6707072,2.58509724 C83.6707072,2.58509724 84.3412464,2.19931071 84.6863468,2.38882706 C85.0314472,2.5779341 85.0377963,2.94448247 85.0377963,3.31000754 L85.0377963,7.94456249 C84.4524568,7.49737757 83.6457207,7.26938489 82.6038656,7.28145991 C79.9888853,7.31195444 78.187195,9.30515076 78.187195,11.7862596 C78.187195,14.2673684 79.6845416,16.2910593 82.1168337,16.2910593 C83.3358471,16.2910593 84.3351022,15.7446136 85.0441453,14.8604769 C85.0631924,15.4810099 85.1424528,15.7378598 85.4787465,16.291264 L85.4787465,16.291264 Z M67.3764387,15.4685256 L67.3764387,16.0370746 L71.4578397,16.0370746 L71.4578397,15.4290259 L70.8522243,15.4290259 C70.5429652,15.4290259 70.2275619,15.0522445 70.2275619,14.7430013 L70.2275619,9.42467295 C70.8442368,9.04011439 72.0204455,8.35818296 72.6145916,8.35920627 C73.4422182,8.36104822 74.3867897,9.18358195 74.3867897,10.1113116 L74.3867897,14.7235585 C74.3867897,15.1699247 74.0513152,15.4128577 73.7422609,15.4294353 L73.0201102,15.4685256 L73.0201102,16.0370746 L77.1011016,16.0370746 L77.1011016,15.4290259 L76.4958958,15.4290259 C76.1868415,15.4290259 75.8712334,15.0522445 75.8712334,14.7430013 L75.8712334,9.98728685 C75.8712334,8.84650481 74.6493527,7.22722466 73.1092014,7.26099378 C71.8103131,7.2894417 70.8923666,8.06735927 70.2275619,8.79779542 L70.2275619,7.23438781 L69.973396,7.23438781 C69.1906222,7.78656397 68.3150708,8.15270303 67.3764387,8.39092877 L67.3764387,9.03786311 C67.3764387,9.03786311 68.0467732,8.65228124 68.3920784,8.84159293 C68.7371788,9.03090463 68.743323,9.39724834 68.743323,9.76318273 L68.743323,14.7235585 C68.743323,15.1701294 68.4080533,15.4128577 68.0987942,15.4294353 L67.3764387,15.4685256 Z M63.965577,11.6061577 L63.9852385,14.3901652 C63.9858529,14.4720297 62.4301362,15.526854 61.5246829,15.0174521 C60.6194344,14.5076408 60.5287047,13.6548172 60.9194771,13.076649 C61.3100448,12.4982762 63.965577,11.6061577 63.965577,11.6061577 L63.965577,11.6061577 Z M61.1734383,9.92015794 L59.9237038,10.4885023 C59.9237038,10.4885023 59.5136794,9.60620752 59.650286,9.13569121 C59.7868925,8.6651749 60.4072539,8.14738183 61.1294047,7.70490412 C61.8517602,7.26201708 62.7047829,7.17483137 63.4777258,7.31256842 C64.2506688,7.45051013 65.4500207,7.99613714 65.4500207,9.13569121 L65.4500207,13.8216161 C65.4500207,13.8216161 65.4692726,14.7430013 65.7232337,14.841034 C65.9771948,14.9390668 66.4066758,14.8999765 66.5629439,14.8213866 C66.7192119,14.7430013 66.8363617,14.664616 66.8363617,14.664616 L66.8558184,15.1351323 L65.1178231,16.0172225 C65.1178231,16.0172225 64.6781018,16.301497 64.4149243,16.1156646 C64.1517468,15.9296275 64.0542585,15.488787 64.0243567,15.1351323 C64.0243567,15.1351323 63.1653946,15.8410091 62.3648027,16.0370746 C61.5644155,16.2331401 60.4707442,16.3704679 59.8845856,15.7626238 C59.2984269,15.1545751 58.9082689,14.3314274 59.3379547,13.409633 C59.7674358,12.4882478 60.9782569,11.9786412 61.661699,11.7236332 C62.3451412,11.4688299 63.9461203,10.8806334 63.9461203,10.8806334 C63.9461203,10.8806334 63.9530837,9.78528615 63.9266636,9.35140421 C63.9004482,8.91752227 63.5659978,8.18135561 62.8919768,8.05753553 C62.2175462,7.9339201 61.6029193,8.11647798 61.3100448,8.43001908 C61.0171703,8.74376484 60.9389338,9.05730594 60.978052,9.29266642 C61.0171703,9.52823157 61.1734383,9.92015794 61.1734383,9.92015794 L61.1734383,9.92015794 Z M55.4101593,4.62577498 L55.4101593,7.34940746 L58.5185205,7.34940746 L58.2031172,8.24971248 L55.4101593,8.24971248 L55.4101593,12.7060074 C55.4101593,12.7060074 55.29772,14.259182 56.3111068,14.7767704 C57.3244936,15.2945635 58.5633733,14.4165665 58.5633733,14.4165665 L58.9015103,14.8217959 L57.4598713,16.0370746 C57.4598713,16.0370746 56.1761388,16.2179952 55.2526624,15.7896391 C54.3289812,15.3610784 53.9011387,14.5309722 53.9011387,13.0662113 L53.9011387,8.22699507 L52.0093331,8.22699507 L52.0093331,8.04689314 C53.2629589,7.19836742 54.3445466,6.11202529 55.1174895,4.6034669 L55.4101593,4.62577498 Z M42.0006024,15.4685256 L42.0006024,16.0370746 L46.0820034,16.0370746 L46.0820034,15.4290259 L45.476388,15.4290259 C45.1675385,15.4290259 44.8517256,15.0522445 44.8517256,14.7430013 L44.8517256,9.42467295 C45.4684006,9.04011439 46.6446092,8.35818296 47.2385505,8.35920627 C48.0665867,8.36104822 49.0111582,9.18358195 49.0111582,10.1113116 L49.0111582,14.7235585 C49.0111582,15.1699247 48.6756838,15.4128577 48.3668343,15.4294353 L47.6442739,15.4685256 L47.6442739,16.0370746 L51.7254701,16.0370746 L51.7254701,15.4290259 L51.1202644,15.4290259 C50.8110053,15.4290259 50.4953971,15.0522445 50.4953971,14.7430013 L50.4953971,9.98728685 C50.4953971,8.84650481 49.2735164,7.22722466 47.7335699,7.26099378 C46.4346817,7.2894417 45.5165303,8.06735927 44.8517256,8.79779542 L44.8517256,7.23438781 L44.5975597,7.23438781 C43.814786,7.78656397 42.9392345,8.15270303 42.0006024,8.39092877 L42.0006024,9.03786311 C42.0006024,9.03786311 42.6709369,8.65228124 43.0162421,8.84159293 C43.3615473,9.03090463 43.3676915,9.39724834 43.3676915,9.76318273 L43.3676915,14.7235585 C43.3676915,15.1701294 43.032217,15.4128577 42.7231627,15.4294353 L42.0006024,15.4685256 Z M38.6810848,11.6061577 L38.7005415,14.3901652 C38.7013607,14.4720297 37.1452344,15.526854 36.2399859,15.0174521 C35.3347374,14.5076408 35.2440077,13.6548172 35.6347801,13.076649 C36.0253478,12.4982762 38.6810848,11.6061577 38.6810848,11.6061577 L38.6810848,11.6061577 Z M35.8885365,9.92015794 L34.638802,10.4885023 C34.638802,10.4885023 34.2287776,9.60620752 34.3655889,9.13569121 C34.5019906,8.6651749 35.1221473,8.14738183 35.8445029,7.70490412 C36.5670632,7.26201708 37.4200859,7.17483137 38.1930288,7.31256842 C38.965767,7.45051013 40.1651189,7.99613714 40.1651189,9.13569121 L40.1651189,13.8216161 C40.1651189,13.8216161 40.1843708,14.7430013 40.4383319,14.841034 C40.6924978,14.9390668 41.1219788,14.8999765 41.2782468,14.8213866 C41.4345149,14.7430013 41.5514599,14.664616 41.5514599,14.664616 L41.5711214,15.1351323 L39.8331261,16.0172225 C39.8331261,16.0172225 39.3931999,16.301497 39.1300225,16.1156646 C38.866845,15.9296275 38.7695615,15.488787 38.7396597,15.1351323 C38.7396597,15.1351323 37.8804928,15.8410091 37.0801057,16.0370746 C36.2795137,16.2331401 35.1860472,16.3704679 34.5998886,15.7626238 C34.0139347,15.1545751 33.6235719,14.3314274 34.0530529,13.409633 C34.4827388,12.4882478 35.693355,11.9786412 36.377002,11.7236332 C37.0604441,11.4688299 38.6612184,10.8806334 38.6612184,10.8806334 C38.6612184,10.8806334 38.6681819,9.78528615 38.6417617,9.35140421 C38.6153416,8.91752227 38.2813008,8.18135561 37.607075,8.05753553 C36.9328492,7.9339201 36.3180175,8.11647798 36.0253478,8.43001908 C35.7324732,8.74376484 35.654032,9.05730594 35.6931502,9.29266642 C35.7324732,9.52823157 35.8885365,9.92015794 35.8885365,9.92015794 L35.8885365,9.92015794 Z M30.9979416,5.77842738 L31.7284894,5.77842738 L31.7284894,2.52124292 C31.7284894,2.52124292 29.4242019,1.93120442 28.1597212,1.93120442 C26.8950358,1.93120442 25.6129418,2.29713881 24.7875681,3.19498789 C23.9621945,4.09283698 23.7758198,4.79584852 23.7197026,5.4135163 C23.6635853,6.03138874 23.7475564,7.43516054 24.8154219,8.27775108 C25.8836971,9.11993229 28.3284825,10.1870363 28.8622105,10.4680362 C29.3959384,10.7486269 30.2391303,11.3104221 30.520126,12.0124103 C30.8011217,12.7141939 30.6886825,13.7534639 30.2954524,14.3430931 C29.9018126,14.9327223 28.8900643,15.6068766 27.9629014,15.6068766 C27.0355337,15.6068766 25.9396095,15.4101971 25.3495595,14.7080042 C24.7595095,14.006016 24.5907482,13.6130663 24.5063676,13.3042324 C24.4221918,12.9953985 24.3941332,12.6583214 24.3941332,12.6583214 L23.7473515,12.6583214 L23.7473515,15.8878766 C23.7473515,15.8878766 25.9115509,16.2243397 26.8389186,16.2806216 C27.7662863,16.3369034 29.1151476,16.2806216 29.9863981,15.7751082 C30.8570341,15.2697994 31.9812217,14.3150545 32.1780416,12.9953985 C32.3748614,11.6753332 32.1217195,10.9453064 31.643904,10.2993953 C31.166498,9.65368894 30.520126,9.09189369 29.6769341,8.67070076 C28.8339471,8.24971248 27.1197095,7.60359678 26.5016009,7.09849271 C25.8836971,6.59277466 25.181003,5.3574391 25.3495595,4.48680997 C25.518116,3.61638549 26.361103,2.99871771 27.1762363,2.85791075 C27.9911648,2.71792242 28.8339471,2.63339731 29.6769341,3.19498789 C30.520126,3.75678314 30.7730631,4.43073277 30.8570341,4.90800291 C30.9416196,5.3854777 30.9979416,5.77842738 30.9979416,5.77842738 L30.9979416,5.77842738 Z" id="Fill-1"></path>
                    <path d="M9.90511866,17.98281 C15.3605722,17.98281 19.8102168,15.7708308 19.8102168,13.058864 C19.8102168,11.0756961 17.4293313,9.35940647 14.0158071,8.58087491 C13.9965552,8.08047806 14.056359,7.34042282 13.69385,6.5252569 C13.1642181,5.33371886 11.9949729,4.00342046 11.049787,2.69174624 C10.1080828,1.38477923 10.3245641,0.412228774 10.2678325,4.09322583e-05 C9.85023029,0.260370095 8.80837527,1.35285207 9.33513979,3.21711178 C9.85719374,5.06417994 11.8049117,7.10383437 12.4047925,8.16561715 C13.0044684,9.22719527 12.9059561,10.1989271 12.7335083,10.7981753 C12.5610605,11.3974236 12.2350072,11.6434265 11.968348,11.8149326 C11.9859614,11.4168664 11.9720345,10.8781979 11.7281089,10.3018717 C11.484593,9.7251362 10.2999872,8.3467424 9.43979635,7.33244103 C8.57919584,6.31793501 7.74378663,4.79709695 8.12022255,3.58795804 C7.74890682,3.81410877 6.95671196,4.80589739 6.99869747,5.9642803 C7.04068298,7.12245855 8.0047112,8.69221066 8.60131503,9.43410784 C9.19771406,10.1758004 10.2346537,11.6632786 10.4392563,12.4817191 C10.6440636,13.2997503 10.5709474,13.884263 10.3956323,14.3079118 C10.249195,14.6584966 9.75212757,15.0528789 9.75212757,15.0528789 C9.75212757,15.0528789 9.79616115,14.4831019 9.59135379,14.0449221 C9.38675125,13.6067423 7.01815417,10.392332 6.78426417,10.0564828 C6.57044529,9.74928623 6.01500773,9.11258495 6.04409038,8.52561637 C2.49764619,9.27651865 2.04807357e-05,11.027396 2.04807357e-05,13.058864 C2.04807357e-05,15.7708308 4.44966511,17.98281 9.90511866,17.98281" id="Fill-3"></path>
                </g>
            </g>
        </g>
    </g>
</svg>