<?xml version="1.0" encoding="UTF-8" standalone="no"?>
<svg width="19px" height="25px" viewBox="0 0 19 25" version="1.1" xmlns="http://www.w3.org/2000/svg" xmlns:xlink="http://www.w3.org/1999/xlink">
    <!-- Generator: Sketch 39.1 (31720) - http://www.bohemiancoding.com/sketch -->
    <title>Page 1</title>
    <desc>Created with Sketch.</desc>
    <defs></defs>
    <g id="Visualizando-historica-de-recargas" stroke="none" stroke-width="1" fill="none" fill-rule="evenodd">
        <g id="visualizando-recargas" transform="translate(-42.000000, -472.000000)" fill="#777777">
            <g id="Page-1" transform="translate(42.000000, 472.000000)">
                <path d="M16.15,12.5 L14.0388889,16.6666667 L4.96111111,16.6666667 L2.85,12.5 C2.32222222,11.5625 2.11111111,10.5208333 2.11111111,9.375 C2.11111111,5.3125 5.38333333,2.08333333 9.5,2.08333333 C13.6166667,2.08333333 16.8888889,5.3125 16.8888889,9.375 C16.8888889,10.5208333 16.6777778,11.5625 16.15,12.5 L16.15,12.5 Z M13.7222222,19.7916667 L12.6666667,19.7916667 L6.33333333,19.7916667 L5.27777778,19.7916667 L5.27777778,18.75 L13.7222222,18.75 L13.7222222,19.7916667 Z M12.6666667,21.875 L11.6111111,21.875 L7.38888889,21.875 L6.33333333,21.875 L6.33333333,20.8333333 L12.6666667,20.8333333 L12.6666667,21.875 Z M7.38888889,23.9583333 L11.6111111,23.9583333 L11.6111111,22.9166667 L7.38888889,22.9166667 L7.38888889,23.9583333 Z M9.5,0 C4.22222222,0 0,4.16666667 0,9.375 C0,10.5208333 0.211111111,11.5625 0.527777778,12.5 L3.16666667,17.7083333 C3.48333333,18.125 3.8,18.5416667 4.22222222,18.75 L4.22222222,19.7916667 C4.22222222,20.4166667 4.64444444,20.8333333 5.27777778,20.8333333 L5.27777778,21.875 C5.27777778,22.5 5.7,22.9166667 6.33333333,22.9166667 L6.33333333,23.9583333 C6.33333333,24.5833333 6.75555556,25 7.38888889,25 L11.6111111,25 C12.2444444,25 12.6666667,24.5833333 12.6666667,23.9583333 L12.6666667,22.9166667 C13.3,22.9166667 13.7222222,22.5 13.7222222,21.875 L13.7222222,20.8333333 C14.3555556,20.8333333 14.7777778,20.4166667 14.7777778,19.7916667 L14.7777778,18.75 L14.7777778,18.6458333 C15.2,18.5416667 15.6222222,18.125 15.8333333,17.7083333 L18.4722222,12.5 C18.7888889,11.5625 19,10.5208333 19,9.375 C19,4.16666667 14.7777778,0 9.5,0 L9.5,0 Z" id="Fill-1"></path>
                <path d="M9.5,3.125 L9.5,4.16666667 C12.4555556,4.16666667 14.7777778,6.45833333 14.7777778,9.375 L15.8333333,9.375 C15.8333333,5.9375 12.9833333,3.125 9.5,3.125" id="Fill-3"></path>
            </g>
        </g>
    </g>
</svg>