<?xml version="1.0" standalone="no"?>
<!DOCTYPE svg PUBLIC "-//W3C//DTD SVG 1.1//EN" "http://www.w3.org/Graphics/SVG/1.1/DTD/svg11.dtd" >
<svg xmlns="http://www.w3.org/2000/svg">
<metadata></metadata>
<defs>
<font id="cera_stencilblack" horiz-adv-x="1146" >
<font-face units-per-em="2048" ascent="1655" descent="-393" />
<missing-glyph horiz-adv-x="573" />
<glyph horiz-adv-x="0" />
<glyph horiz-adv-x="682" />
<glyph unicode=" "  horiz-adv-x="573" />
<glyph unicode="&#x09;" horiz-adv-x="573" />
<glyph unicode="&#xa0;" horiz-adv-x="573" />
<glyph unicode="!" horiz-adv-x="768" d="M592 1352l-66 -811h-286l-68 811h420zM387 434q97 0 162 -66.5t65 -162.5q0 -97 -64.5 -163.5t-162.5 -66.5q-102 0 -167.5 66t-65.5 164q0 97 66 163t167 66z" />
<glyph unicode="&#x22;" horiz-adv-x="1202" d="M555 1352l-133 -598h-266v598h399zM1112 1352l-133 -598h-266v598h399z" />
<glyph unicode="#" horiz-adv-x="1339" d="M1126 1049h160v-295h-1192v295h217l41 303h285l-41 -303h246l41 303h284zM53 303v295h1192v-295h-217l-41 -303h-285l41 303h-245l-41 -303h-285l41 303h-160z" />
<glyph unicode="$" horiz-adv-x="1103" d="M432 559q-152 53 -234.5 150t-82.5 225q0 125 78 216.5t208 129.5v252h295v-248q200 -49 299 -242l-233 -178q-85 127 -205 127q-43 0 -70.5 -15t-27.5 -44q0 -26 23 -46t77 -38l37 -12l-123 -291zM1036 426q0 -148 -93 -245.5t-247 -129.5v-254h-295v260 q-116 29 -204.5 99.5t-141.5 173.5l234 178q107 -162 276 -162q57 0 92 18.5t35 55.5q0 32 -28.5 50.5t-92.5 41.5l-22 8l123 293l43 -14q321 -107 321 -373z" />
<glyph unicode="%" horiz-adv-x="1732" d="M78 987q-4 32 -4 51q0 142 104 240t254 98q120 0 214 -65.5t128 -171.5h-319q-115 0 -115 -105q0 -19 4 -47h-266zM338 0l780 1352h277l-783 -1352h-274zM430 694q-120 0 -214 66.5t-126 173.5h324q110 0 110 102q0 28 -6 49h268q5 -40 5 -53q0 -143 -106 -240.5 t-255 -97.5zM946 270q-4 32 -4 52q0 142 104 239.5t254 97.5q120 0 214 -65.5t128 -171.5h-319q-115 0 -115 -105q0 -19 4 -47h-266zM1298 -23q-120 0 -214 66.5t-126 173.5h324q111 0 111 102q0 25 -7 50h269q4 -32 4 -54q0 -143 -106 -240.5t-255 -97.5z" />
<glyph unicode="&#x26;" horiz-adv-x="1445" d="M956 0l-591 725q-127 154 -127 311q0 155 101.5 247.5t262.5 92.5q160 0 262.5 -91.5t102.5 -233.5q0 -159 -142 -269l-174 213q6 15 6 33q0 26 -14 41.5t-39 15.5q-23 0 -40 -14t-17 -39q0 -11 2.5 -20.5t9.5 -21t10 -16.5t15.5 -19.5t13.5 -16.5l766 -938h-408z M1188 422q-76 0 -129 53t-53 129q0 78 52.5 131t129.5 53q76 0 130 -53.5t54 -130.5q0 -76 -54 -129t-130 -53zM563 -25q-218 0 -345.5 108t-127.5 282q0 104 47 184.5t139 155.5l187 -226q-29 -40 -29 -80q0 -50 37.5 -85t103.5 -35q16 0 48 4l202 -248q-107 -60 -262 -60z " />
<glyph unicode="'" horiz-adv-x="645" d="M555 1352l-133 -598h-266v598h399z" />
<glyph unicode="(" horiz-adv-x="790" d="M604 1520l137 -201q-70 -47 -124 -105t-100 -140t-70.5 -196t-24.5 -253t24.5 -253t70.5 -196.5t100 -140.5t124 -105l-137 -200q-100 44 -184 119t-151 183.5t-104.5 260.5t-37.5 332t37.5 332t104.5 260.5t151 183.5t184 119z" />
<glyph unicode=")" horiz-adv-x="790" d="M186 1520q100 -44 184 -119t151 -183.5t105 -260.5t38 -332t-38 -332t-105 -260.5t-151 -183.5t-184 -119l-137 200q70 47 124 105t100.5 140.5t71 196.5t24.5 253t-24.5 253t-71 196t-100.5 140t-124 105z" />
<glyph unicode="*" horiz-adv-x="1032" d="M961 1221l-185 -144l185 -143l-99 -170l-217 88l-31 -231h-196l-31 231l-217 -88l-98 170l184 143l-184 144l98 170l217 -88l31 231h196l31 -231l217 88z" />
<glyph unicode="+" d="M410 170v344h-334v295h334v344h331v-344h332v-295h-332v-344h-331z" />
<glyph unicode="," horiz-adv-x="552" d="M500 297l-123 -659h-277v659h400z" />
<glyph unicode="-" horiz-adv-x="696" d="M614 813v-295h-532v295h532z" />
<glyph unicode="." horiz-adv-x="552" d="M281 434q97 0 162 -66.5t65 -162.5q0 -97 -64.5 -163.5t-162.5 -66.5q-102 0 -168 66t-66 164q0 97 66.5 163t167.5 66z" />
<glyph unicode="/" horiz-adv-x="1433" d="M1434 1597l-1072 -1845h-362l1071 1845h363z" />
<glyph unicode="0" horiz-adv-x="1343" d="M100 377q-26 89 -26 178q0 120 47 227t127 183t190 120.5t232 44.5q177 0 322 -88t218 -235h-503q-133 0 -203 -68.5t-70 -187.5q0 -88 39 -174h-373zM674 -25q-177 0 -322.5 88t-218.5 236h506q131 0 200.5 68.5t69.5 187.5q0 88 -39 174h373q27 -93 27 -178 q0 -160 -79.5 -292.5t-216.5 -208t-300 -75.5z" />
<glyph unicode="1" horiz-adv-x="1087" d="M762 1106v-733h-352v418h-258v315h610zM1014 295v-295h-881v295h881z" />
<glyph unicode="2" horiz-adv-x="1226" d="M602 1130q214 0 353 -119t139 -304q0 -94 -39.5 -173t-118.5 -155l-6 -6h-455l41 30q115 88 166 145t51 122q0 57 -39.5 97t-103.5 40t-100.5 -38.5t-36.5 -102.5q0 -22 6 -72h-346q-15 62 -15 108q0 81 35.5 157.5t98.5 137t159.5 97t210.5 36.5zM1122 295v-295h-1046 v72l297 223h749z" />
<glyph unicode="3" horiz-adv-x="1124" d="M1022 1106v-92l-461 -670h-305v90l240 357h-385v315h911zM825 588q96 -57 156.5 -158t60.5 -227q0 -204 -152 -339.5t-376 -135.5q-178 0 -312 88t-202 235l244 172q60 -91 119 -131.5t137 -40.5q80 0 131 39t51 113q0 66 -45 108z" />
<glyph unicode="4" horiz-adv-x="1224" d="M776 1106l-313 -811h153v-295h-589v92l387 1014h362zM1047 627v-332h157v-295h-157v-248h-353v875h353z" />
<glyph unicode="5" horiz-adv-x="1148" d="M989 1106v-315h-504v-447h-333v762h837zM614 653q82 0 162.5 -31t145.5 -86t105 -141.5t40 -187.5q0 -137 -71 -247t-194.5 -171t-275.5 -61q-181 0 -318 87t-206 236l244 172q60 -91 121.5 -131.5t144.5 -40.5q85 0 140 40t55 112q0 61 -36.5 101t-103.5 40h-4v309h51z " />
<glyph unicode="6" horiz-adv-x="1167" d="M1001 1352l-534 -734q-55 -74 -55 -143q0 -74 50 -125t122 -51t122 51t50 131q0 66 -39.5 109.5t-118.5 75.5l184 260q137 -47 229.5 -167.5t92.5 -283.5q0 -143 -74 -259t-192.5 -178.5t-253.5 -62.5q-81 0 -158.5 23.5t-142.5 68t-114.5 105.5t-77.5 140t-28 167 q0 110 42.5 198.5t142.5 221.5l338 453h415z" />
<glyph unicode="7" horiz-adv-x="1105" d="M1061 1106v-92l-103 -223h-876v315h979zM924 713l-441 -961h-383l457 961h367z" />
<glyph unicode="8" horiz-adv-x="1218" d="M606 1376q208 0 339.5 -97t131.5 -269q0 -128 -90 -232l-264 121q33 56 33 90q0 51 -42 81t-104 30q-63 0 -105 -31t-42 -78q0 -40 34.5 -66.5t123.5 -68.5l243 -113q143 -66 208 -151.5t65 -206.5q0 -131 -70 -225t-187 -139.5t-268 -45.5q-232 0 -381 106t-149 284 q0 157 139 260l264 -123q-55 -61 -55 -115q0 -59 45 -95t133 -36t134 35.5t46 89.5q0 18 -4.5 33t-18 29.5t-24 23.5t-39 24t-45 23t-57.5 27l-211 98q-248 115 -248 356q0 123 62 210.5t165 129t238 41.5z" />
<glyph unicode="9" horiz-adv-x="1167" d="M166 -246l534 733q56 75 56 144q0 74 -50 125t-122 51t-122 -51t-50 -131q0 -66 39 -109.5t118 -75.5l-184 -260q-137 47 -229.5 167.5t-92.5 283.5q0 108 43.5 202t115.5 158.5t166.5 101.5t195.5 37q136 0 254.5 -62.5t192 -179t73.5 -261.5q0 -110 -42.5 -199 t-141.5 -221l-338 -453h-416z" />
<glyph unicode=":" horiz-adv-x="552" d="M281 1049q97 0 162 -67t65 -163q0 -97 -64.5 -163t-162.5 -66q-102 0 -168 65.5t-66 163.5q0 97 66.5 163.5t167.5 66.5zM281 434q97 0 162 -66.5t65 -162.5q0 -97 -64.5 -163.5t-162.5 -66.5q-102 0 -168 66t-66 164q0 97 66.5 163t167.5 66z" />
<glyph unicode=";" horiz-adv-x="552" d="M281 1049q97 0 162 -67t65 -163q0 -97 -64.5 -163t-162.5 -66q-102 0 -168 65.5t-66 163.5q0 97 66.5 163.5t167.5 66.5zM500 297l-123 -659h-277v659h400z" />
<glyph unicode="&#x3c;" d="M782 737l-333 152l591 266v-301zM1040 174l-985 444v93l232 104l753 -340v-301z" />
<glyph unicode="=" d="M1053 1036v-295h-957v295h957zM1053 586v-295h-957v295h957z" />
<glyph unicode="&#x3e;" d="M104 1155l986 -444v-93l-232 -104l-754 340v301zM362 592l334 -152l-592 -266v301z" />
<glyph unicode="?" horiz-adv-x="933" d="M307 924l-287 127q45 162 159 243.5t257 81.5h4v-323h-4q-73 0 -129 -129zM289 541q-25 60 -25 102q0 28 11.5 55.5t24 46t40.5 45t40 36t44 34.5q35 27 46.5 37.5t26 29.5t18 37.5t3.5 49.5v358q163 -21 262 -119t99 -247q0 -86 -36.5 -146t-117.5 -129 q-14 -13 -36 -31.5t-32.5 -27.5t-25 -22.5t-21 -22t-14 -19.5t-10 -21t-2.5 -22v-24h-295zM442 -25q-99 0 -165 66.5t-66 163.5q0 96 65.5 162.5t165.5 66.5t165 -66t65 -163t-65.5 -163.5t-164.5 -66.5z" />
<glyph unicode="@" horiz-adv-x="1992" d="M956 -406q-170 0 -316.5 51.5t-250 138t-177.5 200t-110 238.5t-36 253q0 195 76 364.5t205.5 286.5t306 183.5t374.5 66.5q259 0 464 -109t320 -304t115 -441q0 -261 -125 -469h-274q127 234 127 469q0 283 -164.5 437.5t-454.5 154.5q-313 0 -505.5 -173.5 t-192.5 -459.5q0 -144 52.5 -263t142.5 -198t209.5 -122t254.5 -43q104 0 230 24l53 -235q-142 -50 -324 -50zM934 33q-183 0 -304.5 127.5t-121.5 324.5q0 196 121 323.5t301 127.5q83 0 157 -33v-254q-50 6 -79 6q-84 0 -133.5 -44.5t-49.5 -127.5t49.5 -126.5 t133.5 -43.5q30 0 79 6v-253q-62 -33 -153 -33zM1155 53v862h295v-862h-295z" />
<glyph unicode="A" horiz-adv-x="1349" d="M971 0l-477 1096l124 280h113l615 -1376h-375zM4 0l445 997l184 -422l-78 -180h158l123 -282h-404l-49 -113h-379z" />
<glyph unicode="B" horiz-adv-x="1277" d="M1092 688q131 -106 131 -287q0 -177 -130 -289t-327 -112h-422h-209v1352h338h150q196 0 326 -111t130 -289t-130 -297.5t-326 -119.5h-72v282h49q63 0 99 32.5t36 86.5t-36 86.5t-99 32.5h-127v-758h270q63 0 99.5 30t36.5 87q0 42 -23 80z" />
<glyph unicode="C" horiz-adv-x="1480" d="M1147 831q-131 222 -356 222q-84 0 -159.5 -28t-127.5 -73v369q135 55 289 55q203 0 366.5 -95t255.5 -267zM799 -25q-150 0 -285.5 54t-233.5 147t-156 223.5t-58 276.5q0 194 97.5 354.5t262.5 251.5v-586q0 -186 103 -291.5t268 -105.5q220 0 350 221l268 -182 q-93 -174 -255 -268.5t-361 -94.5z" />
<glyph unicode="D" horiz-adv-x="1409" d="M487 1352v-1352h-352v1352h352zM606 1352q156 0 291.5 -47.5t234 -132.5t155 -212t56.5 -278q0 -202 -97 -358.5t-264.5 -240t-375.5 -83.5h-41v317h39q166 0 272.5 96.5t106.5 268.5q0 170 -106 261t-273 91h-39v318h41z" />
<glyph unicode="E" horiz-adv-x="1181" d="M135 0v1352h938v-318h-586v-717h611v-317h-963zM565 553v295h340v-295h-340z" />
<glyph unicode="F" horiz-adv-x="1110" d="M135 0v1352h918v-318h-566v-1034h-352zM565 459v317h381v-317h-381z" />
<glyph unicode="G" horiz-adv-x="1529" d="M1137 866q-134 187 -342 187q-86 0 -162.5 -28t-128.5 -73v369q138 55 297 55q186 0 334 -77.5t247 -223.5zM811 -25q-209 0 -380 92t-268 252t-97 355q0 196 97.5 356.5t262.5 251.5v-586q0 -191 107 -299t282 -108q168 0 297 96v10h352v-76q-91 -158 -267 -251 t-386 -93zM797 473v303h667v-303h-667z" />
<glyph unicode="H" horiz-adv-x="1468" d="M487 1352v-1352h-352v1352h352zM1333 1352v-1352h-352v541h-416v317h416v494h352z" />
<glyph unicode="I" horiz-adv-x="622" d="M135 0v1352h352v-1352h-352z" />
<glyph unicode="J" horiz-adv-x="817" d="M682 1352v-961q0 -207 -116 -311.5t-335 -104.5q-101 0 -206 25v299q110 -4 129 -4q96 0 136 31t40 104v922h352z" />
<glyph unicode="K" horiz-adv-x="1423" d="M135 0v1352h352v-1352h-352zM932 717l487 -717h-403l-481 707l413 645h395z" />
<glyph unicode="L" horiz-adv-x="1095" d="M487 1352v-957h-352v957h352zM1047 317v-317h-912v317h912z" />
<glyph unicode="M" horiz-adv-x="1646" d="M1511 1376v-403l-632 -733h-111l-633 733v403h113l575 -702l576 702h112zM135 852l352 -410v-442h-352v852zM1511 852v-852h-352v442z" />
<glyph unicode="N" horiz-adv-x="1468" d="M1221 -25l-1086 1049v352h113l1085 -1044v-357h-112zM1333 444l-352 342v566h352v-908zM135 0v911l352 -340v-571h-352z" />
<glyph unicode="O" horiz-adv-x="1589" d="M793 1376q149 0 284 -54t233 -146.5t156 -223t58 -276.5q0 -195 -98 -355t-263 -251v585q0 182 -104 290t-268 108q-84 0 -159.5 -28t-127.5 -73v369q135 55 289 55zM426 1282v-586q0 -183 104 -290t269 -107q84 0 159 27.5t127 72.5v-368q-138 -56 -288 -56 q-149 0 -284 54t-233 147t-156 223.5t-58 276.5q0 194 97.5 354.5t262.5 251.5z" />
<glyph unicode="P" horiz-adv-x="1243" d="M666 1352q227 0 374.5 -127t147.5 -338q0 -208 -148 -337.5t-374 -129.5h-101v307h103q73 0 117 44t44 116q0 71 -44 114t-117 43h-181v-1044h-352v1352h531z" />
<glyph unicode="Q" horiz-adv-x="1589" d="M1163 676q0 167 -106 272t-269 105q-83 0 -157.5 -28t-126.5 -73v369q135 55 289 55q149 0 284 -54t233 -146.5t156 -223t58 -276.5q0 -270 -181 -467l-245 240q65 95 65 227zM2001 -176q70 0 184 6v-276q-111 -29 -260 -29q-286 0 -515.5 107.5t-438.5 363.5 q-85 -21 -178 -21q-149 0 -283.5 54t-231.5 146.5t-154.5 222.5t-57.5 276q0 196 97.5 356.5t262.5 251.5v-606q0 -170 102 -273.5t265 -103.5q147 0 251 90q223 -234 311 -314q165 -148 316 -202q137 -49 330 -49z" />
<glyph unicode="R" horiz-adv-x="1335" d="M135 0v1352h531q227 0 374.5 -127t147.5 -338q0 -208 -148 -337.5t-374 -129.5h-101v307h103q73 0 117 44t44 116q0 71 -44 114t-117 43h-181v-1044h-352zM938 0l-248 340l346 76l295 -416h-393z" />
<glyph unicode="S" d="M807 924q-50 73 -102 108t-132 35q-14 0 -32 -2v309q18 2 32 2q331 0 469 -272zM725 -10v352q0 38 -7 63t-27.5 44t-40.5 29.5t-62 29.5l-139 61q-170 75 -256.5 173t-86.5 235q0 152 97.5 255.5t259.5 133.5v-344q0 -66 24.5 -95t92.5 -57l155 -65q176 -74 261 -169 t85 -239q0 -160 -97.5 -267t-258.5 -140zM606 -25q-200 0 -341 81t-218 223l238 180q29 -38 55 -65t62.5 -54t83 -41t100.5 -14q25 0 61 4v-312q-20 -2 -41 -2z" />
<glyph unicode="T" horiz-adv-x="1204" d="M20 1034v318h1164v-318h-1164zM426 0v956h352v-956h-352z" />
<glyph unicode="U" horiz-adv-x="1449" d="M729 -25q-173 0 -309.5 73.5t-214.5 210t-78 314.5v779h352v-805q0 -117 68 -182.5t190 -65.5q78 0 156 20v-323q-79 -21 -164 -21zM971 20v1332h352v-779q0 -197 -95 -342t-257 -211z" />
<glyph unicode="V" horiz-adv-x="1349" d="M403 1352l471 -1057l-143 -320h-113l-614 1377h399zM1346 1352l-428 -959l-199 447l227 512h400z" />
<glyph unicode="W" horiz-adv-x="2078" d="M1096 1376l520 -1106l-119 -295h-113l-344 707l-147 -299l-174 428l264 565h113zM418 1352l430 -1063l-154 -314h-112l-557 1377h393zM2054 1352l-397 -983l-211 446l215 537h393z" />
<glyph unicode="X" horiz-adv-x="1275" d="M426 1352l846 -1352h-398l-845 1352h397zM1245 1352l-360 -586l-197 313l160 273h397zM397 614l195 -309l-191 -305h-397z" />
<glyph unicode="Y" horiz-adv-x="1288" d="M393 1352l428 -768v-584h-352v516l-465 836h389zM1284 1352l-418 -695l-184 334l215 361h387z" />
<glyph unicode="Z" horiz-adv-x="1202" d="M25 0v92l790 1260h338v-92l-791 -1260h-337zM113 1034v318h612l-203 -318h-409zM453 0l202 317h500v-317h-702z" />
<glyph unicode="[" horiz-adv-x="751" d="M168 1221v274h522v-274h-522zM168 -266v1409h291v-1135h231v-274h-522z" />
<glyph unicode="\" horiz-adv-x="1433" d="M0 1597h362l1072 -1845h-363z" />
<glyph unicode="]" horiz-adv-x="751" d="M293 86v1135h-232v274h523v-1409h-291zM61 -266v274h523v-274h-523z" />
<glyph unicode="^" horiz-adv-x="1128" d="M621 1372l421 -819h-329l-314 608l109 211h113zM354 1075l166 -321l-104 -201h-330z" />
<glyph unicode="_" horiz-adv-x="1024" d="M963 -119v-274h-902v274h902z" />
<glyph unicode="`" horiz-adv-x="677" d="M362 1176l-301 360v61h424l131 -421h-254z" />
<glyph unicode="a" horiz-adv-x="1136" d="M565 1049q215 0 340 -116.5t125 -338.5v-594h-352v614q0 59 -38.5 95t-117.5 36q-69 0 -126 -30t-130 -94l-164 223q103 104 213.5 154.5t249.5 50.5zM598 598v-215h-86q-44 0 -69 -20.5t-25 -57.5q0 -80 110 -80q37 0 70 8v-217q-87 -41 -190 -41q-161 0 -254 92 t-93 226q0 144 108 224.5t294 80.5h135z" />
<glyph unicode="b" horiz-adv-x="1284" d="M115 0v1536h352v-1536h-352zM731 -25q-104 0 -184 39v287q59 -6 96 -6q100 0 158.5 58t58.5 159q0 100 -57.5 158.5t-159.5 58.5q-37 0 -96 -6v287q83 39 184 39q214 0 352 -150.5t138 -384.5q0 -235 -138 -387t-352 -152z" />
<glyph unicode="c" horiz-adv-x="1132" d="M838 588q-89 137 -217 137q-72 0 -119 -23v332q58 15 121 15q158 0 276.5 -73.5t181.5 -201.5zM625 -25q-153 0 -282 70t-204.5 193.5t-75.5 273.5q0 174 99.5 309t261.5 193v-492q0 -105 55.5 -164t147.5 -59q71 0 120 35.5t91 99.5l243 -184q-65 -131 -184.5 -203 t-271.5 -72z" />
<glyph unicode="d" horiz-adv-x="1284" d="M817 0v1536h352v-1536h-352zM553 -25q-214 0 -352 152t-138 387q0 234 138 384.5t352 150.5q101 0 184 -39v-287q-59 6 -96 6q-102 0 -159.5 -58.5t-57.5 -158.5q0 -101 58.5 -159t158.5 -58q37 0 96 6v-287q-80 -39 -184 -39z" />
<glyph unicode="e" horiz-adv-x="1163" d="M485 389v229h281q-3 69 -52 111.5t-118 42.5q-87 0 -143 -68.5t-56 -185.5q0 -124 65.5 -185t188.5 -61q137 0 269 80l127 -239q-185 -138 -408 -138q-166 0 -298 70.5t-205 193t-73 273.5q0 150 72.5 273.5t198 193.5t276.5 70q111 0 204 -39.5t155 -106t96.5 -154.5 t34.5 -186q0 -88 -23 -174h-592z" />
<glyph unicode="f" horiz-adv-x="753" d="M606 1561q97 0 170 -25v-295q-62 4 -80 4q-90 0 -129 -32t-39 -103v-86h207v-295h-702v295h143v121q0 205 113.5 310.5t316.5 105.5zM528 651v-651h-352v651h352z" />
<glyph unicode="g" horiz-adv-x="1282" d="M551 43q-215 0 -351.5 142t-136.5 362t136 361t350 141q105 0 188 -39v-260q-59 6 -96 6q-101 0 -159 -58t-58 -153t58.5 -151t158.5 -56q37 0 96 6v-262q-80 -39 -186 -39zM618 -393q-298 0 -516 184l179 248q153 -117 301 -117q101 0 167 45t66 135v922h352v-899 q0 -134 -41.5 -235t-116.5 -162t-173 -91t-218 -30z" />
<glyph unicode="h" horiz-adv-x="1222" d="M115 0v1536h352v-1536h-352zM764 0v580q0 69 -42 110t-112 41q-23 0 -63 -4v287q89 35 182 35q177 0 282 -114t105 -304v-631h-352z" />
<glyph unicode="i" horiz-adv-x="581" d="M289 1180q-90 0 -152.5 59.5t-62.5 146.5q0 89 62.5 149t152.5 60t153.5 -60.5t63.5 -148.5q0 -87 -63.5 -146.5t-153.5 -59.5zM467 1024v-1024h-352v1024h352z" />
<glyph unicode="j" horiz-adv-x="581" d="M289 1180q-90 0 -152.5 59.5t-62.5 146.5q0 89 62.5 149t152.5 60t153.5 -60.5t63.5 -148.5q0 -87 -63.5 -146.5t-153.5 -59.5zM467 1024v-1001q0 -205 -113.5 -310.5t-316.5 -105.5q-100 0 -170 24v295q62 -4 80 -4q90 0 129 32t39 103v967h352z" />
<glyph unicode="k" horiz-adv-x="1218" d="M115 0v1536h352v-1536h-352zM891 547l328 -547h-388l-317 547l289 477h391z" />
<glyph unicode="l" horiz-adv-x="581" d="M467 1536v-1536h-352v1536h352z" />
<glyph unicode="m" horiz-adv-x="1851" d="M754 0v580q0 70 -40.5 110.5t-113.5 40.5q-25 0 -53 -4v287q89 35 180 35q172 0 275.5 -115t103.5 -303v-631h-352zM1393 0v580q0 69 -41 110t-111 41q-30 0 -57 -6l-78 254q118 70 256 70q177 0 280 -114.5t103 -303.5v-631h-352zM115 0v1024h352v-1024h-352z" />
<glyph unicode="n" horiz-adv-x="1222" d="M729 1049q177 0 282 -114t105 -304v-631h-352v580q0 69 -42 110t-112 41q-23 0 -63 -4v287q89 35 182 35zM467 1024v-1024h-352v1024h352z" />
<glyph unicode="o" horiz-adv-x="1243" d="M621 1049q152 0 280 -70t203.5 -194t75.5 -273q0 -172 -99.5 -308t-261.5 -194v492q0 104 -56 163.5t-149 59.5q-65 0 -112 -23v332q58 15 119 15zM424 1014v-492q0 -106 55.5 -164.5t149.5 -58.5q65 0 112 23v-332q-59 -15 -118 -15q-152 0 -280.5 70t-204 194 t-75.5 273q0 174 99.5 309t261.5 193z" />
<glyph unicode="p" horiz-adv-x="1284" d="M731 1049q214 0 352 -150.5t138 -384.5q0 -235 -138 -387t-352 -152q-104 0 -184 39v287q59 -6 96 -6q100 0 158.5 58t58.5 159q0 100 -57.5 158.5t-159.5 58.5q-37 0 -96 -6v287q83 39 184 39zM467 1024v-1393h-352v1393h352z" />
<glyph unicode="q" horiz-adv-x="1284" d="M553 -25q-214 0 -352 152t-138 387q0 234 138 384.5t352 150.5q101 0 184 -39v-287q-59 6 -96 6q-102 0 -159.5 -58.5t-57.5 -158.5q0 -101 58.5 -159t158.5 -58q37 0 96 6v-287q-80 -39 -184 -39zM817 -369v1393h352v-1393h-352z" />
<glyph unicode="r" horiz-adv-x="876" d="M709 1049q76 0 130 -54t54 -131q0 -76 -54 -129t-130 -53q-77 0 -130 53t-53 129q0 78 53 131.5t130 53.5zM467 1024v-1024h-352v1024h352z" />
<glyph unicode="s" horiz-adv-x="933" d="M705 684q-105 88 -199 88h-12v277h16q216 0 360 -150zM559 -18v276q0 40 -13.5 60t-45.5 32l-115 47q-151 61 -224 138.5t-73 193.5q0 131 88 215t240 103v-273q0 -41 15 -60.5t54 -35.5l103 -41q150 -59 224.5 -133.5t74.5 -194.5q0 -132 -87.5 -215t-240.5 -112z M465 -25q-138 0 -253 50t-189 147l163 209q130 -127 283 -127h12v-279h-16z" />
<glyph unicode="t" horiz-adv-x="899" d="M528 1270v-246h275v-295h-783v295h156v246h352zM528 651v-225q0 -72 40.5 -103.5t136.5 -31.5q19 0 129 4v-295q-105 -25 -207 -25q-217 0 -334 105t-117 311v260h352z" />
<glyph unicode="u" horiz-adv-x="1214" d="M608 -25q-220 0 -361 138t-141 364v547h353v-575q0 -67 43 -108.5t114 -41.5q32 0 62 6v-323q-32 -7 -70 -7zM756 -6v1030h352v-547q0 -184 -96 -312.5t-256 -170.5z" />
<glyph unicode="v" horiz-adv-x="1169" d="M377 1024l393 -788l-129 -261h-113l-524 1049h373zM1165 1024l-352 -702l-186 370l166 332h372z" />
<glyph unicode="w" horiz-adv-x="1763" d="M1143 -25l-260 490l-82 -152l-170 353l194 383h113l440 -816l-123 -258h-112zM508 -25l-504 1049h373l379 -797l-135 -252h-113zM1421 319l-198 365l163 340h373z" />
<glyph unicode="x" horiz-adv-x="1132" d="M741 0l-721 1024h392l721 -1024h-392zM809 594l-191 272l103 158h391zM0 0l324 459l190 -271l-123 -188h-391z" />
<glyph unicode="y" horiz-adv-x="1171" d="M338 184l-334 840h375l158 -397zM240 -393q-96 0 -197 24v295q98 -4 119 -4q70 0 115 24t79 97l439 981h372l-481 -1079q-78 -175 -183.5 -256.5t-262.5 -81.5z" />
<glyph unicode="z" horiz-adv-x="978" d="M956 1024v-92l-624 -932h-312v92l625 932h311zM549 1024l-197 -295h-284v295h481zM958 295v-295h-530l197 295h333z" />
<glyph unicode="{" horiz-adv-x="866" d="M82 467v295h133q55 0 79.5 23.5t24.5 76.5q0 35 -20 152.5t-20 181.5q0 299 337 299h189v-274h-127q-51 0 -80 -28.5t-29 -82.5q0 -32 20.5 -149.5t20.5 -174.5q0 -149 -103 -234t-292 -85h-133zM616 -266q-337 0 -337 299q0 64 20 177t20 148q0 21 -2 33l273 103 q20 -36 20 -88q0 -43 -20.5 -149t-20.5 -140q0 -53 29 -81t80 -28h127v-274h-189z" />
<glyph unicode="|" horiz-adv-x="679" d="M485 1597v-1845h-290v1845h290z" />
<glyph unicode="}" horiz-adv-x="866" d="M276 735q-20 36 -20 88q0 43 20.5 149t20.5 140q0 53 -29 81t-80 28h-127v274h189q338 0 338 -299q0 -64 -20.5 -177.5t-20.5 -148.5q0 -20 2 -32zM61 -266v274h127q51 0 80 28.5t29 82.5q0 32 -20.5 149t-20.5 174q0 149 103 234.5t292 85.5h133v-295h-133 q-55 0 -79.5 -23.5t-24.5 -76.5q0 -35 20.5 -152.5t20.5 -181.5q0 -299 -338 -299h-189z" />
<glyph unicode="~" d="M324 924q87 0 174 -54l172 -104q72 -43 104 -43q30 0 47 20t17 52v28h262q6 -41 6 -78q0 -150 -83 -244.5t-198 -94.5q-89 0 -174 53l-172 104q-72 43 -104 43q-30 0 -47 -19.5t-17 -51.5v-29h-262q-6 40 -6 78q0 150 83 245t198 95z" />
<glyph unicode="&#xa1;" horiz-adv-x="768" d="M387 1049q98 0 162.5 -66.5t64.5 -163.5q0 -96 -65 -162.5t-162 -66.5q-101 0 -167 66t-66 163q0 98 65.5 164t167.5 66zM528 483l66 -852h-420l68 852h286z" />
<glyph unicode="&#xa2;" horiz-adv-x="1142" d="M625 879q-79 0 -132.5 -43.5t-64.5 -114.5h-365q17 157 114.5 277t246.5 171v363h295v-338q122 -21 214.5 -90.5t145.5 -175.5l-243 -187q-42 65 -92 101.5t-119 36.5zM625 453q124 0 211 135l243 -185q-53 -106 -145.5 -175.5t-214.5 -90.5v-340h-295v365 q-149 51 -246.5 171t-114.5 277h365q11 -71 64.5 -114t132.5 -43z" />
<glyph unicode="&#xa3;" horiz-adv-x="1218" d="M913 737v-295h-827v295h139q-57 105 -57 224q0 126 64.5 221.5t173 144.5t243.5 49q184 0 317 -98.5t185 -294.5l-289 -104q-55 174 -188 174q-69 0 -109.5 -42.5t-40.5 -111.5q0 -70 56 -162h333zM674 365q-8 -34 -27 -70h483v-295h-1064v72q107 85 169 153.5t87 139.5 h352z" />
<glyph unicode="&#xa4;" horiz-adv-x="1366" d="M158 719q9 103 67 199l-202 210l208 209l213 -223q108 51 230 51q129 0 235 -53l226 225l208 -209l-215 -213q54 -96 62 -196h-361q-9 55 -53 89t-104 34q-63 0 -105.5 -35.5t-48.5 -87.5h-360zM1190 641q-9 -117 -66 -211l219 -227l-208 -209l-234 242 q-106 -50 -231 -50q-119 0 -221 45l-218 -237l-208 209l202 221q-61 99 -67 217h360q6 -60 49.5 -95.5t106.5 -35.5q64 0 105.5 36t49.5 95h361z" />
<glyph unicode="&#xa5;" horiz-adv-x="1288" d="M1284 1352l-385 -566h272v-274h-1052v274h270l-385 566h389l252 -373l252 373h387zM119 147v275h1052v-275h-350v-147h-352v147h-350z" />
<glyph unicode="&#xa6;" horiz-adv-x="679" d="M485 1597v-614h-290v614h290zM485 367v-615h-290v615h290z" />
<glyph unicode="&#xa7;" horiz-adv-x="1261" d="M1104 207l-223 182q8 21 8 41q0 37 -33.5 72.5t-126.5 87.5l-164 90q-105 59 -165 107t-95 112t-35 145q0 161 114.5 258t301.5 97q154 0 270.5 -67.5t169.5 -178.5l-211 -172q-78 129 -225 129q-98 0 -98 -70q0 -30 23 -51t104 -65l164 -93q178 -94 252.5 -181.5 t74.5 -203.5q0 -151 -106 -239zM575 -293q-154 0 -270.5 67.5t-169.5 178.5l211 172q78 -129 225 -129q99 0 99 70q0 30 -23 51t-104 65l-164 92q-178 94 -253 181.5t-75 203.5q0 151 107 240l223 -182q-8 -21 -8 -41q0 -38 33.5 -73.5t125.5 -86.5l164 -90 q78 -44 129 -80.5t90.5 -80t57.5 -93.5t18 -111q0 -161 -114.5 -257.5t-301.5 -96.5z" />
<glyph unicode="&#xa8;" horiz-adv-x="1044" d="M260 1196q-76 0 -137.5 58t-61.5 132q0 81 60.5 137t138.5 56q84 0 142.5 -55.5t58.5 -137.5q0 -76 -59.5 -133t-141.5 -57zM782 1196q-76 0 -137 58t-61 132q0 81 60.5 137t137.5 56q84 0 142.5 -55.5t58.5 -137.5q0 -76 -59.5 -133t-141.5 -57z" />
<glyph unicode="&#xa9;" horiz-adv-x="1589" d="M793 -25q-193 0 -359.5 90.5t-267 252t-100.5 356.5q0 147 59.5 278.5t159 223.5t233 146t277.5 54t277.5 -54t233 -146.5t159 -223.5t59.5 -276q0 -195 -101 -357t-268.5 -253t-361.5 -91zM948 737l172 148q-121 164 -311 164q-30 0 -74 -7v-237q35 14 74 14 q46 0 77.5 -21t61.5 -61zM807 305q191 0 313 162l-172 147q-29 -39 -60 -59t-75 -20q-61 0 -97 39.5t-36 107.5v346q-114 -37 -183 -132t-69 -220q0 -159 109 -265t270 -106z" />
<glyph unicode="&#xaa;" horiz-adv-x="770" d="M430 500v395q0 57 -82 57q-71 0 -166 -61l-96 170q121 104 293 104q146 0 228.5 -75t82.5 -220v-370h-260zM276 483q-109 0 -166 61t-57 148q0 93 69.5 143t192.5 50h62v-137h-15q-22 0 -34.5 -12t-12.5 -34q0 -43 47 -43h15v-159q-49 -17 -101 -17z" />
<glyph unicode="&#xab;" horiz-adv-x="1347" d="M469 1063l223 -195l-266 -307l266 -307l-223 -195l-422 455v92zM1073 1063l223 -195l-266 -307l266 -307l-223 -195l-422 455v92z" />
<glyph unicode="&#xac;" d="M1008 811v-590h-324v295h-612v295h936z" />
<glyph unicode="&#xad;" horiz-adv-x="696" d="M614 813v-295h-532v295h532z" />
<glyph unicode="&#xae;" horiz-adv-x="1181" d="M592 356q-146 0 -269.5 72t-195.5 195.5t-72 269.5q0 145 72 268t195.5 194.5t269.5 71.5q145 0 268 -71.5t194.5 -194.5t71.5 -268q0 -146 -71.5 -269.5t-194.5 -195.5t-268 -72zM381 635h158v377h59q25 0 40 -13t15 -36t-15 -36.5t-40 -13.5h-10v-137h10q93 0 155 52 t62 137q0 84 -62 134t-155 50h-217v-514zM696 635h174l-102 139l-145 -43z" />
<glyph unicode="&#xaf;" horiz-adv-x="778" d="M61 1249v275h656v-275h-656z" />
<glyph unicode="&#xb0;" horiz-adv-x="741" d="M485 748v282q0 135 -114 135q-23 0 -37 -2v211q12 2 37 2q138 0 234.5 -94t96.5 -229q0 -103 -60.5 -187t-156.5 -118zM371 727q-137 0 -234.5 96.5t-97.5 229.5q0 102 60.5 185.5t156.5 117.5v-285q0 -65 31 -99t84 -34q23 0 37 2v-211q-12 -2 -37 -2z" />
<glyph unicode="&#xb1;" d="M741 1171v-243h312v-275h-312v-266h-331v266h-314v275h314v243h331zM1053 274v-274h-957v274h957z" />
<glyph unicode="&#xb2;" horiz-adv-x="808" d="M274 1024l97 106q92 103 92 175q0 38 -20 58.5t-52 20.5q-30 0 -49.5 -20.5t-19.5 -63.5q0 -5 4 -55h-250q-8 36 -8 72q0 117 91 207t236 90q138 0 231 -81t93 -206q0 -72 -32 -135.5t-95 -138.5l-25 -29h-293zM66 743v52l159 176h506v-226z" />
<glyph unicode="&#xb3;" horiz-adv-x="745" d="M184 1100v61l140 211h-240v225h590v-65l-283 -432h-207zM344 729q-116 0 -203 57.5t-129 153.5l172 121q36 -56 70.5 -79.5t79.5 -23.5q41 0 67.5 17.5t26.5 50.5q0 13 -6 25l137 211q125 -89 125 -232q0 -128 -98.5 -214.5t-241.5 -86.5z" />
<glyph unicode="&#xb4;" horiz-adv-x="677" d="M61 1176l132 421h423v-61l-301 -360h-254z" />
<glyph unicode="&#xb5;" horiz-adv-x="1271" d="M115 -369v1393h352v-1393h-352zM1196 291q24 0 55 2v-293q-80 -25 -176 -25q-158 0 -231 103q-79 -103 -201 -103q-50 0 -96 19v303q40 -4 61 -4q71 0 113.5 42t42.5 114v575h352v-623q0 -57 18.5 -83.5t61.5 -26.5z" />
<glyph unicode="&#xb6;" horiz-adv-x="1320" d="M694 1352v-932h-116q-225 0 -374 129.5t-149 339.5q0 209 147.5 336t375.5 127h116zM1186 1352v-1329q0 -207 -116 -311.5t-335 -104.5q-106 0 -207 24v299q110 -4 129 -4q96 0 136.5 31.5t40.5 103.5v1291h352z" />
<glyph unicode="&#xb7;" horiz-adv-x="552" d="M281 893q97 0 162 -66.5t65 -162.5q0 -97 -64.5 -163.5t-162.5 -66.5q-102 0 -168 66t-66 164q0 96 66.5 162.5t167.5 66.5z" />
<glyph unicode="&#xb8;" horiz-adv-x="630" d="M219 -393q-81 0 -158 18v230q55 -2 129 -2q37 0 66 13.5t29 39.5v6h282q2 -10 2 -29q0 -120 -94 -198t-256 -78z" />
<glyph unicode="&#xb9;" horiz-adv-x="782" d="M539 1597v-573h-250v348h-187v225h437zM709 971v-226h-629v226h629z" />
<glyph unicode="&#xba;" horiz-adv-x="811" d="M502 496v323q0 51 -26.5 80t-72.5 29q-23 0 -41 -6v241q18 2 44 2q149 0 253.5 -97.5t104.5 -242.5q0 -119 -72.5 -209t-189.5 -120zM406 483q-149 0 -254 97.5t-105 242.5q0 119 73 210t189 120v-324q0 -51 26.5 -79.5t72.5 -28.5q23 0 41 6v-242q-18 -2 -43 -2z" />
<glyph unicode="&#xbb;" horiz-adv-x="1347" d="M274 1063l422 -457v-92l-422 -455l-223 195l266 307l-266 307zM879 1063l421 -457v-92l-421 -455l-224 195l267 307l-267 307z" />
<glyph unicode="&#xbc;" horiz-adv-x="1984" d="M289 778v348h-187v226h437v-574h-250zM1300 1352h277l-782 -1352h-275zM1716 852l-198 -528h79v-205h-387v65l248 668h258zM709 725v-225h-629v225h629zM1972 324v-205h-92v-119h-229v518h229v-194h92z" />
<glyph unicode="&#xbd;" horiz-adv-x="2052" d="M539 1352v-574h-250v348h-187v226h437zM1577 1352l-782 -1352h-275l780 1352h277zM1518 279l96 106q92 103 92 174q0 38 -20 59t-52 21q-30 0 -49.5 -20.5t-19.5 -63.5q0 -5 4 -55h-250q-8 36 -8 71q0 117 91 207t236 90q138 0 231 -80.5t93 -205.5q0 -72 -32 -136.5 t-95 -138.5l-25 -28h-292zM709 725v-225h-629v225h629zM1309 -2v51l159 176h506v-225z" />
<glyph unicode="&#xbe;" horiz-adv-x="1875" d="M184 915l140 211h-240v226h590v-66l-283 -432h-207v61zM1192 1352h276l-782 -1352h-274zM684 784q0 -128 -98.5 -214.5t-241.5 -86.5q-116 0 -203 57.5t-129 153.5l172 121q36 -56 70.5 -79t79.5 -23q42 0 68 17.5t26 49.5q0 13 -6 25l137 211q125 -89 125 -232z M1608 852l-199 -528h80v-205h-387v65l248 668h258zM1864 324v-205h-92v-119h-230v518h230v-194h92z" />
<glyph unicode="&#xbf;" horiz-adv-x="933" d="M492 590q-100 0 -165 66t-65 163t65.5 163.5t164.5 66.5t165 -66.5t66 -163.5q0 -96 -65.5 -162.5t-165.5 -66.5zM416 -389q-160 22 -260.5 124.5t-100.5 256.5q0 54 12 98t37.5 79.5t47 58t57.5 53.5q81 70 111 105t30 71v26h295q25 -60 25 -102q0 -21 -5.5 -41.5 t-17.5 -41t-22.5 -35.5t-30 -34t-29 -28t-30.5 -27.5t-25 -21.5q-54 -46 -74 -79t-20 -77v-385zM500 -393h-6v323h4q73 0 129 129l286 -127q-45 -162 -157.5 -243.5t-255.5 -81.5z" />
<glyph unicode="&#xc0;" horiz-adv-x="1349" d="M547 1483l-301 319v62h424l131 -381h-254zM971 0l-477 1096l124 280h113l615 -1376h-375zM4 0l445 997l184 -422l-78 -180h158l123 -282h-404l-49 -113h-379z" />
<glyph unicode="&#xc1;" horiz-adv-x="1349" d="M537 1483l131 381h424v-62l-301 -319h-254zM971 0l-477 1096l124 280h113l615 -1376h-375zM4 0l445 997l184 -422l-78 -180h158l123 -282h-404l-49 -113h-379z" />
<glyph unicode="&#xc2;" horiz-adv-x="1349" d="M674 1614l-158 -131h-264l305 381h236l305 -381h-267zM731 1376l615 -1376h-375l-477 1096l124 280h113zM555 395h158l123 -282h-404l-49 -113h-379l445 997l184 -422z" />
<glyph unicode="&#xc3;" horiz-adv-x="1349" d="M852 1464q-77 0 -158 41l-57 29q-64 31 -92 31q-27 0 -41.5 -17.5t-14.5 -46.5v-16h-262q-6 41 -6 78q0 148 82 233.5t195 85.5q76 0 157 -41l58 -29q62 -30 92 -30q27 0 41 17t14 46v17h262q6 -40 6 -78q0 -148 -81.5 -234t-194.5 -86zM971 0l-477 1096l124 280h113 l615 -1376h-375zM4 0l445 997l184 -422l-78 -180h158l123 -282h-404l-49 -113h-379z" />
<glyph unicode="&#xc4;" horiz-adv-x="1349" d="M393 1483q-76 0 -137 58t-61 132q0 81 60.5 137t137.5 56q84 0 142.5 -55.5t58.5 -137.5q0 -76 -59.5 -133t-141.5 -57zM956 1481q-76 0 -137 58t-61 132q0 81 60.5 137t137.5 56q84 0 142.5 -55.5t58.5 -137.5q0 -76 -59.5 -133t-141.5 -57zM971 0l-477 1096l124 280 h113l615 -1376h-375zM4 0l445 997l184 -422l-78 -180h158l123 -282h-404l-49 -113h-379z" />
<glyph unicode="&#xc5;" horiz-adv-x="1349" d="M739 1358l607 -1358h-375l-477 1096l116 262q-97 20 -156 93t-59 171q0 114 78.5 191t200.5 77q123 0 201.5 -77t78.5 -191q0 -98 -59 -171t-156 -93zM676 1694q-32 0 -52 -21t-20 -53q0 -41 33 -61v-183h78v185q33 17 33 59q0 33 -20.5 53.5t-51.5 20.5zM555 395h158 l123 -282h-404l-49 -113h-379l445 997l184 -422z" />
<glyph unicode="&#xc6;" horiz-adv-x="1787" d="M1208 317h496v-317h-780l-222 1352h977v-318h-587zM774 395l51 -282h-389l-57 -113h-379l635 1255l94 -559l-151 -301h196zM1511 553h-262l-49 295h311v-295z" />
<glyph unicode="&#xc7;" horiz-adv-x="1480" d="M1147 831q-131 222 -356 222q-84 0 -159.5 -28t-127.5 -73v369q135 55 289 55q203 0 366.5 -95t255.5 -267zM799 -25q-150 0 -285.5 54t-233.5 147t-156 223.5t-58 276.5q0 194 97.5 354.5t262.5 251.5v-586q0 -186 103 -291.5t268 -105.5q220 0 350 221l268 -182 q-93 -174 -255 -268.5t-361 -94.5zM635 -393q-81 0 -158 18v230q55 -2 129 -2q37 0 65.5 13.5t28.5 39.5v6h283q2 -10 2 -29q0 -120 -94 -198t-256 -78z" />
<glyph unicode="&#xc8;" horiz-adv-x="1181" d="M463 1483l-301 319v62h424l131 -381h-254zM135 0v1352h938v-318h-586v-717h611v-317h-963zM565 553v295h340v-295h-340z" />
<glyph unicode="&#xc9;" horiz-adv-x="1181" d="M453 1483l131 381h424v-62l-301 -319h-254zM135 0v1352h938v-318h-586v-717h611v-317h-963zM565 553v295h340v-295h-340z" />
<glyph unicode="&#xca;" horiz-adv-x="1181" d="M590 1614l-158 -131h-264l305 381h236l305 -381h-266zM487 317h611v-317h-963v1352h938v-318h-586v-717zM905 553h-340v295h340v-295z" />
<glyph unicode="&#xcb;" horiz-adv-x="1181" d="M309 1483q-76 0 -137 58t-61 132q0 81 60.5 137t137.5 56q84 0 142.5 -55.5t58.5 -137.5q0 -76 -59.5 -133t-141.5 -57zM872 1481q-76 0 -137 58t-61 132q0 81 60.5 137t137.5 56q84 0 142.5 -55.5t58.5 -137.5q0 -76 -59.5 -133t-141.5 -57zM135 0v1352h938v-318h-586 v-717h611v-317h-963zM565 553v295h340v-295h-340z" />
<glyph unicode="&#xcc;" horiz-adv-x="622" d="M182 1483l-301 319v62h424l131 -381h-254zM135 0v1352h352v-1352h-352z" />
<glyph unicode="&#xcd;" horiz-adv-x="622" d="M172 1483l131 381h424v-62l-301 -319h-254zM135 0v1352h352v-1352h-352z" />
<glyph unicode="&#xce;" horiz-adv-x="622" d="M309 1614l-157 -131h-265l306 381h235l305 -381h-266zM135 0v1352h352v-1352h-352z" />
<glyph unicode="&#xcf;" horiz-adv-x="622" d="M29 1483q-76 0 -137.5 58t-61.5 132q0 81 60.5 137t138.5 56q84 0 142 -55t58 -138q0 -76 -59 -133t-141 -57zM592 1481q-76 0 -137.5 58t-61.5 132q0 81 60.5 137t138.5 56q84 0 142.5 -55.5t58.5 -137.5q0 -76 -59.5 -133t-141.5 -57zM135 0v1352h352v-1352h-352z" />
<glyph unicode="&#xd0;" horiz-adv-x="1409" d="M606 1352q209 0 375.5 -80t264 -234.5t97.5 -357.5q0 -200 -97 -356t-264.5 -240t-375.5 -84h-471v426h352v-109h117q165 0 272 97t107 266q0 173 -105.5 262.5t-273.5 89.5h-117v-155h-352v475h471zM678 799v-295h-698v295h698z" />
<glyph unicode="&#xd1;" horiz-adv-x="1468" d="M911 1464q-76 0 -157 41l-58 29q-64 31 -92 31q-27 0 -41 -17.5t-14 -46.5v-16h-262q-6 41 -6 78q0 148 81.5 233.5t194.5 85.5q77 0 158 -41l57 -29q62 -30 92 -30q27 0 41.5 17t14.5 46v17h262q6 -40 6 -78q0 -148 -82 -234t-195 -86zM1221 -25l-1086 1049v352h113 l1085 -1044v-357h-112zM1333 444l-352 342v566h352v-908zM135 0v911l352 -340v-571h-352z" />
<glyph unicode="&#xd2;" horiz-adv-x="1589" d="M666 1483l-301 319v62h423l132 -381h-254zM793 1376q149 0 284 -54t233 -146.5t156 -223t58 -276.5q0 -195 -98 -355t-263 -251v585q0 182 -104 290t-268 108q-84 0 -159.5 -28t-127.5 -73v369q135 55 289 55zM426 1282v-586q0 -183 104 -290t269 -107q84 0 159 27.5 t127 72.5v-368q-138 -56 -288 -56q-149 0 -284 54t-233 147t-156 223.5t-58 276.5q0 194 97.5 354.5t262.5 251.5z" />
<glyph unicode="&#xd3;" horiz-adv-x="1589" d="M655 1483l131 381h424v-62l-301 -319h-254zM793 1376q149 0 284 -54t233 -146.5t156 -223t58 -276.5q0 -195 -98 -355t-263 -251v585q0 182 -104 290t-268 108q-84 0 -159.5 -28t-127.5 -73v369q135 55 289 55zM426 1282v-586q0 -183 104 -290t269 -107q84 0 159 27.5 t127 72.5v-368q-138 -56 -288 -56q-149 0 -284 54t-233 147t-156 223.5t-58 276.5q0 194 97.5 354.5t262.5 251.5z" />
<glyph unicode="&#xd4;" horiz-adv-x="1589" d="M793 1614l-158 -131h-264l305 381h235l306 -381h-267zM793 1376q149 0 284 -54t233 -146.5t156 -223t58 -276.5q0 -195 -98 -355t-263 -251v585q0 182 -104 290t-268 108q-84 0 -159.5 -28t-127.5 -73v369q135 55 289 55zM426 696q0 -183 104 -290t269 -107 q84 0 159 27.5t127 72.5v-368q-138 -56 -288 -56q-149 0 -284 54t-233 147t-156 223.5t-58 276.5q0 194 97.5 354.5t262.5 251.5v-586z" />
<glyph unicode="&#xd5;" horiz-adv-x="1589" d="M971 1464q-77 0 -158 41l-57 29q-64 31 -92 31q-27 0 -41.5 -17.5t-14.5 -46.5v-16h-262q-6 41 -6 78q0 148 81.5 233.5t194.5 85.5q77 0 158 -41l57 -29q62 -30 93 -30q27 0 41 17t14 46v17h262q6 -40 6 -78q0 -148 -81.5 -234t-194.5 -86zM793 1376q149 0 284 -54 t233 -146.5t156 -223t58 -276.5q0 -195 -98 -355t-263 -251v585q0 182 -104 290t-268 108q-84 0 -159.5 -28t-127.5 -73v369q135 55 289 55zM426 1282v-586q0 -183 104 -290t269 -107q84 0 159 27.5t127 72.5v-368q-138 -56 -288 -56q-149 0 -284 54t-233 147t-156 223.5 t-58 276.5q0 194 97.5 354.5t262.5 251.5z" />
<glyph unicode="&#xd6;" horiz-adv-x="1589" d="M512 1483q-76 0 -137.5 58t-61.5 132q0 81 60.5 137t138.5 56q84 0 142.5 -55.5t58.5 -137.5q0 -76 -59.5 -133t-141.5 -57zM1075 1481q-76 0 -137 58t-61 132q0 81 60.5 137t137.5 56q84 0 142.5 -55.5t58.5 -137.5q0 -76 -59.5 -133t-141.5 -57zM793 1376 q149 0 284 -54t233 -146.5t156 -223t58 -276.5q0 -195 -98 -355t-263 -251v585q0 182 -104 290t-268 108q-84 0 -159.5 -28t-127.5 -73v369q135 55 289 55zM426 1282v-586q0 -183 104 -290t269 -107q84 0 159 27.5t127 72.5v-368q-138 -56 -288 -56q-149 0 -284 54t-233 147 t-156 223.5t-58 276.5q0 194 97.5 354.5t262.5 251.5z" />
<glyph unicode="&#xd7;" d="M862 1169l209 -208l-291 -289l291 -289l-209 -209l-291 289l-288 -289l-209 209l288 289l-288 289l209 208l290 -288z" />
<glyph unicode="&#xd8;" horiz-adv-x="1589" d="M1540 1214l-141 -141q125 -181 125 -397q0 -147 -58 -277.5t-156 -223t-233 -146.5t-284 -54q-168 0 -312 66l246 246q40 -4 68 -4q166 0 275.5 108.5t109.5 284.5q0 72 -27 151l-895 -899l-209 209l141 142q-124 180 -124 397q0 147 58 277.5t156 222.5t233 146t284 54 q169 0 311 -65l-246 -246q-40 4 -67 4q-166 0 -275.5 -108.5t-109.5 -284.5q0 -76 26 -152l895 899z" />
<glyph unicode="&#xd9;" horiz-adv-x="1449" d="M596 1483l-301 319v62h424l131 -381h-254zM729 -25q-173 0 -309.5 73.5t-214.5 210t-78 314.5v779h352v-805q0 -117 68 -182.5t190 -65.5q78 0 156 20v-323q-79 -21 -164 -21zM971 20v1332h352v-779q0 -197 -95 -342t-257 -211z" />
<glyph unicode="&#xda;" horiz-adv-x="1449" d="M586 1483l131 381h424v-62l-301 -319h-254zM729 -25q-173 0 -309.5 73.5t-214.5 210t-78 314.5v779h352v-805q0 -117 68 -182.5t190 -65.5q78 0 156 20v-323q-79 -21 -164 -21zM971 20v1332h352v-779q0 -197 -95 -342t-257 -211z" />
<glyph unicode="&#xdb;" horiz-adv-x="1449" d="M723 1614l-158 -131h-264l305 381h236l305 -381h-266zM479 547q0 -117 68 -182.5t190 -65.5q78 0 156 20v-323q-79 -21 -164 -21q-173 0 -309.5 73.5t-214.5 210t-78 314.5v779h352v-805zM971 1352h352v-779q0 -197 -95 -342t-257 -211v1332z" />
<glyph unicode="&#xdc;" horiz-adv-x="1449" d="M442 1483q-76 0 -137 58t-61 132q0 81 60.5 137t137.5 56q84 0 142.5 -55.5t58.5 -137.5q0 -76 -59.5 -133t-141.5 -57zM1006 1481q-76 0 -137.5 58t-61.5 132q0 81 60.5 137t138.5 56q84 0 142 -55t58 -138q0 -76 -59 -133t-141 -57zM729 -25q-173 0 -309.5 73.5 t-214.5 210t-78 314.5v779h352v-805q0 -117 68 -182.5t190 -65.5q78 0 156 20v-323q-79 -21 -164 -21zM971 20v1332h352v-779q0 -197 -95 -342t-257 -211z" />
<glyph unicode="&#xdd;" horiz-adv-x="1288" d="M506 1483l131 381h424v-62l-301 -319h-254zM393 1352l428 -768v-584h-352v516l-465 836h389zM1284 1352l-418 -695l-184 334l215 361h387z" />
<glyph unicode="&#xde;" horiz-adv-x="1243" d="M487 1352v-1352h-352v1352h352zM666 1165q227 0 374.5 -127t147.5 -338q0 -208 -148 -337.5t-374 -129.5h-101v308h103q73 0 117 43.5t44 115.5q0 71 -44 114.5t-117 43.5h-103v307h101z" />
<glyph unicode="&#xdf;" horiz-adv-x="1382" d="M115 0v1044q0 245 140 381t388 136q226 0 355.5 -107.5t129.5 -271.5q0 -47 -12 -92t-43 -119l-74 -178l-276 131l25 57q26 65 26 119q0 65 -35.5 104t-103.5 39q-75 0 -123.5 -50t-48.5 -165v-1028h-348zM928 -25q-214 0 -375 115l115 248q152 -74 247 -74q38 0 60 18 t22 50q0 33 -29.5 60.5t-99.5 60.5l-286 137l110 262l377 -180q137 -64 202.5 -144t65.5 -200q0 -161 -109.5 -257t-299.5 -96z" />
<glyph unicode="&#xe0;" horiz-adv-x="1136" d="M426 1176l-301 360v61h424l131 -421h-254zM565 1049q215 0 340 -116.5t125 -338.5v-594h-352v614q0 59 -38.5 95t-117.5 36q-69 0 -126 -30t-130 -94l-164 223q103 104 213.5 154.5t249.5 50.5zM598 598v-215h-86q-44 0 -69 -20.5t-25 -57.5q0 -80 110 -80q37 0 70 8 v-217q-87 -41 -190 -41q-161 0 -254 92t-93 226q0 144 108 224.5t294 80.5h135z" />
<glyph unicode="&#xe1;" horiz-adv-x="1136" d="M422 1176l131 421h424v-61l-301 -360h-254zM565 1049q215 0 340 -116.5t125 -338.5v-594h-352v614q0 59 -38.5 95t-117.5 36q-69 0 -126 -30t-130 -94l-164 223q103 104 213.5 154.5t249.5 50.5zM598 598v-215h-86q-44 0 -69 -20.5t-25 -57.5q0 -80 110 -80q37 0 70 8 v-217q-87 -41 -190 -41q-161 0 -254 92t-93 226q0 144 108 224.5t294 80.5h135z" />
<glyph unicode="&#xe2;" horiz-adv-x="1136" d="M551 1323l-137 -147h-254l274 421h236l272 -421h-254zM565 1049q215 0 340 -116.5t125 -338.5v-594h-352v614q0 59 -38.5 95t-117.5 36q-69 0 -126 -30t-130 -94l-164 223q103 104 213.5 154.5t249.5 50.5zM61 293q0 144 108 224.5t294 80.5h135v-215h-86 q-44 0 -69 -20.5t-25 -57.5q0 -80 110 -80q37 0 70 8v-217q-87 -41 -190 -41q-161 0 -254 92t-93 226z" />
<glyph unicode="&#xe3;" horiz-adv-x="1136" d="M723 1163q-78 0 -152 39l-59 31q-7 3 -20 10t-20.5 11t-18.5 7t-21 3q-28 0 -42.5 -17.5t-14.5 -46.5v-16h-262q-7 47 -7 78q0 148 79.5 233.5t191.5 85.5q80 0 151 -39l60 -31l20 -10l21 -10.5t18 -6.5t21 -3q57 0 57 63v17h262q6 -41 6 -78q0 -149 -79 -234.5 t-191 -85.5zM565 1049q215 0 340 -116.5t125 -338.5v-594h-352v614q0 59 -38.5 95t-117.5 36q-69 0 -126 -30t-130 -94l-164 223q103 104 213.5 154.5t249.5 50.5zM598 598v-215h-86q-44 0 -69 -20.5t-25 -57.5q0 -80 110 -80q37 0 70 8v-217q-87 -41 -190 -41 q-161 0 -254 92t-93 226q0 144 108 224.5t294 80.5h135z" />
<glyph unicode="&#xe4;" horiz-adv-x="1136" d="M289 1196q-76 0 -137.5 58t-61.5 132q0 81 60.5 137t138.5 56q84 0 142 -55t58 -138q0 -76 -59 -133t-141 -57zM811 1196q-76 0 -137.5 58t-61.5 132q0 81 60.5 137t138.5 56q84 0 142.5 -55.5t58.5 -137.5q0 -76 -59.5 -133t-141.5 -57zM565 1049q215 0 340 -116.5 t125 -338.5v-594h-352v614q0 59 -38.5 95t-117.5 36q-69 0 -126 -30t-130 -94l-164 223q103 104 213.5 154.5t249.5 50.5zM598 598v-215h-86q-44 0 -69 -20.5t-25 -57.5q0 -80 110 -80q37 0 70 8v-217q-87 -41 -190 -41q-161 0 -254 92t-93 226q0 144 108 224.5t294 80.5 h135z" />
<glyph unicode="&#xe5;" horiz-adv-x="1136" d="M512 1110q-107 12 -174.5 87.5t-67.5 180.5q0 114 78.5 191.5t200.5 77.5q123 0 201.5 -77.5t78.5 -191.5q0 -105 -66 -180t-173 -88v207q33 17 33 59q0 33 -20.5 53.5t-51.5 20.5q-32 0 -52 -21t-20 -53q0 -41 33 -61v-205zM565 1049q215 0 340 -116.5t125 -338.5v-594 h-352v614q0 59 -38.5 95t-117.5 36q-69 0 -126 -30t-130 -94l-164 223q103 104 213.5 154.5t249.5 50.5zM598 598v-215h-86q-44 0 -69 -20.5t-25 -57.5q0 -80 110 -80q37 0 70 8v-217q-87 -41 -190 -41q-161 0 -254 92t-93 226q0 144 108 224.5t294 80.5h135z" />
<glyph unicode="&#xe6;" horiz-adv-x="1777" d="M1264 272q136 0 268 80l127 -239q-185 -138 -406 -138q-124 0 -231.5 41t-182 110.5t-117 164.5t-42.5 201v122q0 59 -38.5 95t-117.5 36q-69 0 -127.5 -30t-130.5 -94l-164 223q102 103 214 154t247 51q211 0 330 -116.5t119 -318.5v-96q0 -123 65.5 -184.5t186.5 -61.5 zM1225 1049q147 0 260 -67.5t171 -177.5t58 -241q0 -93 -22 -176h-592v215h280q-3 78 -49.5 124t-118.5 46q-61 0 -122 -41l-129 248q121 70 264 70zM522 225q63 0 123 37l129 -180q-122 -107 -325 -107q-193 0 -290.5 90t-97.5 226q0 147 108 229t294 82h135v-215h-86 q-44 0 -69 -21.5t-25 -58.5q0 -39 27 -60.5t77 -21.5z" />
<glyph unicode="&#xe7;" horiz-adv-x="1132" d="M838 588q-89 137 -217 137q-72 0 -119 -23v332q58 15 121 15q158 0 276.5 -73.5t181.5 -201.5zM625 -25q-153 0 -282 70t-204.5 193.5t-75.5 273.5q0 174 99.5 309t261.5 193v-492q0 -105 55.5 -164t147.5 -59q71 0 120 35.5t91 99.5l243 -184q-65 -131 -184.5 -203 t-271.5 -72zM455 -393q-81 0 -158 18v230q55 -2 129 -2q37 0 65.5 13.5t28.5 39.5v6h283q2 -10 2 -29q0 -120 -94 -198t-256 -78z" />
<glyph unicode="&#xe8;" horiz-adv-x="1163" d="M739 1176h-254l-301 360v61h424zM485 389v229h281q-3 69 -52 111.5t-118 42.5q-87 0 -143 -68.5t-56 -185.5q0 -124 65.5 -185t188.5 -61q137 0 269 80l127 -239q-185 -138 -408 -138q-166 0 -298 70.5t-205 193t-73 273.5q0 150 72.5 273.5t198 193.5t276.5 70 q111 0 204 -39.5t155 -106t96.5 -154.5t34.5 -186q0 -88 -23 -174h-592z" />
<glyph unicode="&#xe9;" horiz-adv-x="1163" d="M1036 1536l-301 -360h-254l131 421h424v-61zM485 389v229h281q-3 69 -52 111.5t-118 42.5q-87 0 -143 -68.5t-56 -185.5q0 -124 65.5 -185t188.5 -61q137 0 269 80l127 -239q-185 -138 -408 -138q-166 0 -298 70.5t-205 193t-73 273.5q0 150 72.5 273.5t198 193.5 t276.5 70q111 0 204 -39.5t155 -106t96.5 -154.5t34.5 -186q0 -88 -23 -174h-592z" />
<glyph unicode="&#xea;" horiz-adv-x="1163" d="M610 1323l-137 -147h-254l275 421h235l272 -421h-253zM485 389v229h281q-3 69 -52 111.5t-118 42.5q-87 0 -143 -68.5t-56 -185.5q0 -124 65.5 -185t188.5 -61q137 0 269 80l127 -239q-185 -138 -408 -138q-166 0 -298 70.5t-205 193t-73 273.5q0 150 72.5 273.5 t198 193.5t276.5 70q111 0 204 -39.5t155 -106t96.5 -154.5t34.5 -186q0 -88 -23 -174h-592z" />
<glyph unicode="&#xeb;" horiz-adv-x="1163" d="M348 1196q-76 0 -137 58t-61 132q0 81 60.5 137t137.5 56q84 0 142.5 -55.5t58.5 -137.5q0 -76 -59.5 -133t-141.5 -57zM870 1196q-76 0 -137 58t-61 132q0 81 60.5 137t137.5 56q84 0 142.5 -55.5t58.5 -137.5q0 -76 -59.5 -133t-141.5 -57zM485 389v229h281 q-3 69 -52 111.5t-118 42.5q-87 0 -143 -68.5t-56 -185.5q0 -124 65.5 -185t188.5 -61q137 0 269 80l127 -239q-185 -138 -408 -138q-166 0 -298 70.5t-205 193t-73 273.5q0 150 72.5 273.5t198 193.5t276.5 70q111 0 204 -39.5t155 -106t96.5 -154.5t34.5 -186 q0 -88 -23 -174h-592z" />
<glyph unicode="&#xec;" horiz-adv-x="581" d="M170 1176l-240 360v61h424l70 -421h-254zM467 1024v-1024h-352v1024h352z" />
<glyph unicode="&#xed;" horiz-adv-x="581" d="M162 1176l69 421h424v-61l-239 -360h-254zM467 1024v-1024h-352v1024h352z" />
<glyph unicode="&#xee;" horiz-adv-x="581" d="M291 1323l-137 -147h-254l274 421h236l272 -421h-254zM115 0v1024h352v-1024h-352z" />
<glyph unicode="&#xef;" horiz-adv-x="581" d="M39 1196q-76 0 -137.5 58t-61.5 132q0 81 60.5 137t138.5 56q84 0 142.5 -55.5t58.5 -137.5q0 -76 -59.5 -133t-141.5 -57zM541 1196q-76 0 -137.5 58t-61.5 132q0 81 60.5 137t138.5 56q84 0 142 -55t58 -138q0 -76 -59 -133t-141 -57zM467 1024v-1024h-352v1024h352z " />
<glyph unicode="&#xf0;" horiz-adv-x="1177" d="M860 1016q62 -80 101 -136.5t77.5 -127.5t57 -141.5t18.5 -143.5q0 -215 -150 -353.5t-376 -138.5t-375.5 138t-149.5 344q0 166 100.5 286t258.5 158l178 -244q-182 -61 -182 -198q0 -73 47.5 -123.5t122.5 -50.5q74 0 125 48t51 132q0 101 -96 233l-238 322l-260 -131 l-123 248l217 110l-88 121l264 193l125 -162l322 162l123 -248l-273 -137z" />
<glyph unicode="&#xf1;" horiz-adv-x="1222" d="M743 1163q-77 0 -151 39l-60 31q-7 4 -20 10.5t-20 10.5t-18 7t-21 3q-28 0 -43 -17.5t-15 -46.5v-16h-262q-6 40 -6 78q0 148 79 233.5t191 85.5q81 0 152 -39l59 -31l20 -10l21 -10.5t18 -6.5t21 -3q57 0 57 63v17h263q6 -41 6 -78q0 -148 -79.5 -234t-191.5 -86z M729 1049q177 0 282 -114t105 -304v-631h-352v580q0 69 -42 110t-112 41q-23 0 -63 -4v287q89 35 182 35zM467 1024v-1024h-352v1024h352z" />
<glyph unicode="&#xf2;" horiz-adv-x="1243" d="M498 1176l-301 360v61h424l131 -421h-254zM621 1049q152 0 280 -70t203.5 -194t75.5 -273q0 -172 -99.5 -308t-261.5 -194v492q0 104 -56 163.5t-149 59.5q-65 0 -112 -23v332q58 15 119 15zM424 1014v-492q0 -106 55.5 -164.5t149.5 -58.5q65 0 112 23v-332 q-59 -15 -118 -15q-152 0 -280.5 70t-204 194t-75.5 273q0 174 99.5 309t261.5 193z" />
<glyph unicode="&#xf3;" horiz-adv-x="1243" d="M494 1176l131 421h424v-61l-301 -360h-254zM621 1049q152 0 280 -70t203.5 -194t75.5 -273q0 -172 -99.5 -308t-261.5 -194v492q0 104 -56 163.5t-149 59.5q-65 0 -112 -23v332q58 15 119 15zM424 1014v-492q0 -106 55.5 -164.5t149.5 -58.5q65 0 112 23v-332 q-59 -15 -118 -15q-152 0 -280.5 70t-204 194t-75.5 273q0 174 99.5 309t261.5 193z" />
<glyph unicode="&#xf4;" horiz-adv-x="1243" d="M623 1323l-138 -147h-254l275 421h235l273 -421h-254zM621 1049q152 0 280 -70t203.5 -194t75.5 -273q0 -172 -99.5 -308t-261.5 -194v492q0 104 -56 163.5t-149 59.5q-65 0 -112 -23v332q58 15 119 15zM424 522q0 -106 55.5 -164.5t149.5 -58.5q65 0 112 23v-332 q-59 -15 -118 -15q-152 0 -280.5 70t-204 194t-75.5 273q0 174 99.5 309t261.5 193v-492z" />
<glyph unicode="&#xf5;" horiz-adv-x="1243" d="M795 1163q-78 0 -152 39l-59 31q-7 3 -20 10t-20.5 11t-18.5 7t-21 3q-28 0 -43 -17.5t-15 -46.5v-16h-262q-6 40 -6 78q0 148 79.5 233.5t191.5 85.5q80 0 151 -39l59 -31l20 -10l21 -10.5t18 -6.5t21 -3q28 0 43 17t15 46v17h262q6 -41 6 -78q0 -149 -79 -234.5 t-191 -85.5zM621 1049q152 0 280 -70t203.5 -194t75.5 -273q0 -172 -99.5 -308t-261.5 -194v492q0 104 -56 163.5t-149 59.5q-65 0 -112 -23v332q58 15 119 15zM424 1014v-492q0 -106 55.5 -164.5t149.5 -58.5q65 0 112 23v-332q-59 -15 -118 -15q-152 0 -280.5 70t-204 194 t-75.5 273q0 174 99.5 309t261.5 193z" />
<glyph unicode="&#xf6;" horiz-adv-x="1243" d="M360 1196q-76 0 -137 58t-61 132q0 81 60.5 137t137.5 56q84 0 142.5 -55.5t58.5 -137.5q0 -76 -59.5 -133t-141.5 -57zM883 1196q-76 0 -137.5 58t-61.5 132q0 81 60.5 137t138.5 56q84 0 142 -55t58 -138q0 -76 -59 -133t-141 -57zM621 1049q152 0 280 -70t203.5 -194 t75.5 -273q0 -172 -99.5 -308t-261.5 -194v492q0 104 -56 163.5t-149 59.5q-65 0 -112 -23v332q58 15 119 15zM424 1014v-492q0 -106 55.5 -164.5t149.5 -58.5q65 0 112 23v-332q-59 -15 -118 -15q-152 0 -280.5 70t-204 194t-75.5 273q0 174 99.5 309t261.5 193z" />
<glyph unicode="&#xf7;" d="M571 870q-83 0 -141.5 55.5t-58.5 135.5q0 79 58 133.5t142 54.5t143.5 -54.5t59.5 -133.5t-59.5 -135t-143.5 -56zM74 516v295h997v-295h-997zM571 78q-84 0 -142 54.5t-58 133.5q0 80 58.5 135.5t141.5 55.5q84 0 143.5 -56t59.5 -135t-59.5 -133.5t-143.5 -54.5z" />
<glyph unicode="&#xf8;" horiz-adv-x="1241" d="M1184 907l-101 -100q97 -135 97 -299q0 -147 -74.5 -269.5t-202.5 -193t-280 -70.5q-115 0 -215 41l239 256h6q44 0 88 22t76.5 70.5t32.5 112.5q0 43 -12 84l-613 -612l-168 168l103 102q-97 135 -97 297q0 147 74.5 269.5t203 193t280.5 70.5q115 0 215 -41l-238 -256 h-6q-45 0 -89 -22t-77 -70.5t-33 -112.5q0 -38 13 -82l610 610z" />
<glyph unicode="&#xf9;" horiz-adv-x="1214" d="M483 1176l-301 360v61h424l131 -421h-254zM608 -25q-220 0 -361 138t-141 364v547h353v-575q0 -67 43 -108.5t114 -41.5q32 0 62 6v-323q-32 -7 -70 -7zM756 -6v1030h352v-547q0 -184 -96 -312.5t-256 -170.5z" />
<glyph unicode="&#xfa;" horiz-adv-x="1214" d="M479 1176l131 421h424v-61l-301 -360h-254zM608 -25q-220 0 -361 138t-141 364v547h353v-575q0 -67 43 -108.5t114 -41.5q32 0 62 6v-323q-32 -7 -70 -7zM756 -6v1030h352v-547q0 -184 -96 -312.5t-256 -170.5z" />
<glyph unicode="&#xfb;" horiz-adv-x="1214" d="M727 1597l272 -421h-254l-137 147l-137 -147h-254l275 421h235zM459 449q0 -67 43 -108.5t114 -41.5q32 0 62 6v-323q-32 -7 -70 -7q-220 0 -361 138t-141 364v547h353v-575zM756 1024h352v-547q0 -184 -96 -312.5t-256 -170.5v1030z" />
<glyph unicode="&#xfc;" horiz-adv-x="1214" d="M346 1196q-76 0 -137.5 58t-61.5 132q0 81 60.5 137t138.5 56q84 0 142.5 -55.5t58.5 -137.5q0 -76 -59.5 -133t-141.5 -57zM868 1196q-76 0 -137 58t-61 132q0 81 60.5 137t137.5 56q84 0 142.5 -55.5t58.5 -137.5q0 -76 -59.5 -133t-141.5 -57zM608 -25 q-220 0 -361 138t-141 364v547h353v-575q0 -67 43 -108.5t114 -41.5q32 0 62 6v-323q-32 -7 -70 -7zM756 -6v1030h352v-547q0 -184 -96 -312.5t-256 -170.5z" />
<glyph unicode="&#xfd;" horiz-adv-x="1171" d="M459 1176l131 421h424v-61l-301 -360h-254zM338 184l-334 840h375l158 -397zM240 -393q-96 0 -197 24v295q98 -4 119 -4q70 0 115 24t79 97l439 981h372l-481 -1079q-78 -175 -183.5 -256.5t-262.5 -81.5z" />
<glyph unicode="&#xfe;" horiz-adv-x="1284" d="M115 -369v1905h352v-1905h-352zM731 -25q-104 0 -184 39v287q59 -6 96 -6q100 0 158.5 58t58.5 159q0 100 -57.5 158.5t-159.5 58.5q-37 0 -96 -6v287q83 39 184 39q214 0 352 -150.5t138 -384.5q0 -235 -138 -387t-352 -152z" />
<glyph unicode="&#xff;" horiz-adv-x="1171" d="M326 1196q-76 0 -137.5 58t-61.5 132q0 81 60.5 137t138.5 56q84 0 142 -55t58 -138q0 -76 -59 -133t-141 -57zM848 1196q-76 0 -137.5 58t-61.5 132q0 81 60.5 137t138.5 56q84 0 142.5 -55.5t58.5 -137.5q0 -76 -59.5 -133t-141.5 -57zM338 184l-334 840h375l158 -397z M240 -393q-96 0 -197 24v295q98 -4 119 -4q70 0 115 24t79 97l439 981h372l-481 -1079q-78 -175 -183.5 -256.5t-262.5 -81.5z" />
<glyph unicode="&#x152;" horiz-adv-x="2209" d="M791 -25q-152 0 -286.5 54t-231 146.5t-152 223t-55.5 277.5t56 276.5t152 222.5t231 147t288 54q165 0 290 -61v-340q-47 35 -125 56.5t-155 21.5q-171 0 -274 -104t-103 -275q0 -170 102.5 -272.5t272.5 -102.5q78 0 156.5 21t125.5 55v-338q-127 -62 -292 -62zM1163 0 v1352h938v-318h-585v-717h610v-317h-963zM1593 553v295h340v-295h-340z" />
<glyph unicode="&#x153;" horiz-adv-x="1878" d="M1364 272q136 0 268 80l127 -239q-185 -138 -403 -138q-162 0 -289 72.5t-193.5 192t-66.5 262.5q0 107 -50.5 165t-135.5 58q-87 0 -142 -59t-55 -154t54.5 -154t139.5 -59q61 0 121 37l148 -279q-113 -82 -273 -82q-148 0 -274.5 70t-201.5 194t-75 273q0 150 75 273.5 t203 193.5t280 70q223 0 362 -147.5t139 -371.5q0 -133 60.5 -195.5t181.5 -62.5zM1325 1049q111 0 204 -39.5t155 -106t96.5 -154.5t34.5 -186q0 -90 -23 -176h-582v215h271q-3 78 -49.5 124t-118.5 46q-62 0 -123 -41l-129 248q121 70 264 70z" />
<glyph unicode="&#x178;" horiz-adv-x="1288" d="M362 1483q-76 0 -137 58t-61 132q0 81 60.5 137t137.5 56q84 0 142.5 -55.5t58.5 -137.5q0 -76 -59.5 -133t-141.5 -57zM926 1481q-76 0 -137.5 58t-61.5 132q0 81 60.5 137t138.5 56q84 0 142 -55t58 -138q0 -76 -59 -133t-141 -57zM393 1352l428 -768v-584h-352v516 l-465 836h389zM1284 1352l-418 -695l-184 334l215 361h387z" />
<glyph unicode="&#x2c6;" horiz-adv-x="905" d="M844 1176h-254l-137 147l-138 -147h-254l275 421h235z" />
<glyph unicode="&#x2dc;" horiz-adv-x="1009" d="M678 1163q-78 0 -152 39l-59 31q-7 3 -20 10t-20.5 11t-18.5 7t-21 3q-28 0 -42.5 -17.5t-14.5 -46.5v-16h-262q-7 47 -7 78q0 148 79.5 233.5t191.5 85.5q80 0 151 -39l60 -31l20 -10l21 -10.5t18 -6.5t21 -3q57 0 57 63v17h262q6 -41 6 -78q0 -149 -79 -234.5 t-191 -85.5z" />
<glyph unicode="&#x2000;" horiz-adv-x="945" />
<glyph unicode="&#x2001;" horiz-adv-x="1890" />
<glyph unicode="&#x2002;" horiz-adv-x="945" />
<glyph unicode="&#x2003;" horiz-adv-x="1890" />
<glyph unicode="&#x2004;" horiz-adv-x="630" />
<glyph unicode="&#x2005;" horiz-adv-x="472" />
<glyph unicode="&#x2006;" horiz-adv-x="315" />
<glyph unicode="&#x2007;" horiz-adv-x="315" />
<glyph unicode="&#x2008;" horiz-adv-x="236" />
<glyph unicode="&#x2009;" horiz-adv-x="378" />
<glyph unicode="&#x200a;" horiz-adv-x="105" />
<glyph unicode="&#x2010;" horiz-adv-x="696" d="M614 813v-295h-532v295h532z" />
<glyph unicode="&#x2011;" horiz-adv-x="696" d="M614 813v-295h-532v295h532z" />
<glyph unicode="&#x2012;" horiz-adv-x="696" d="M614 813v-295h-532v295h532z" />
<glyph unicode="&#x2013;" horiz-adv-x="1024" d="M963 813v-295h-902v295h902z" />
<glyph unicode="&#x2014;" horiz-adv-x="2048" d="M1946 813v-295h-1844v295h1844z" />
<glyph unicode="&#x2018;" horiz-adv-x="645" d="M489 1352v-598h-399l133 598h266z" />
<glyph unicode="&#x2019;" horiz-adv-x="645" d="M555 1352l-133 -598h-266v598h399z" />
<glyph unicode="&#x201a;" horiz-adv-x="645" d="M555 297l-133 -598h-266v598h399z" />
<glyph unicode="&#x201c;" horiz-adv-x="1202" d="M489 1352v-598h-399l133 598h266zM1047 1352v-598h-400l133 598h267z" />
<glyph unicode="&#x201d;" horiz-adv-x="1202" d="M555 1352l-133 -598h-266v598h399zM1112 1352l-133 -598h-266v598h399z" />
<glyph unicode="&#x201e;" horiz-adv-x="1202" d="M555 297l-133 -598h-266v598h399zM1112 297l-133 -598h-266v598h399z" />
<glyph unicode="&#x2022;" horiz-adv-x="940" d="M471 924q158 0 265.5 -105t107.5 -258t-107.5 -257.5t-265.5 -104.5q-157 0 -266 105t-109 257t109 257.5t266 105.5z" />
<glyph unicode="&#x2026;" horiz-adv-x="1638" d="M281 434q97 0 162 -66.5t65 -162.5q0 -97 -64.5 -163.5t-162.5 -66.5q-102 0 -168 66t-66 164q0 97 66.5 163t167.5 66zM823 434q97 0 162.5 -66.5t65.5 -162.5q0 -97 -65 -163.5t-163 -66.5q-102 0 -167.5 66t-65.5 164q0 97 66 163t167 66zM1366 434q97 0 162 -66.5 t65 -162.5q0 -97 -64.5 -163.5t-162.5 -66.5q-102 0 -167.5 66t-65.5 164q0 97 66 163t167 66z" />
<glyph unicode="&#x202f;" horiz-adv-x="378" />
<glyph unicode="&#x2039;" horiz-adv-x="743" d="M469 1063l223 -195l-266 -307l266 -307l-223 -195l-422 455v92z" />
<glyph unicode="&#x203a;" horiz-adv-x="743" d="M274 1063l422 -457v-92l-422 -455l-223 195l266 307l-266 307z" />
<glyph unicode="&#x205f;" horiz-adv-x="472" />
<glyph unicode="&#x20ac;" horiz-adv-x="1378" d="M979 950l-66 -233h-913v233h188q67 195 227 310.5t378 115.5q175 0 313.5 -74t206.5 -200l-244 -187q-44 61 -113.5 99.5t-152.5 38.5q-137 0 -217 -103h393zM803 299q84 0 153 38t113 99l244 -186q-68 -126 -206.5 -200.5t-313.5 -74.5q-215 0 -372 113t-228 305h-193 v234h889l-66 -234h-231q81 -94 211 -94z" />
<glyph unicode="&#x2122;" horiz-adv-x="2048" d="M1913 1368v-303l-440 -516h-91l-440 516v303h92l396 -463l393 463h90zM825 1352v-262h-805v262h805zM567 1036v-604h-288v604h288zM942 989l291 -338v-219h-291v557zM1913 989v-557h-289v219z" />
<glyph unicode="&#x25fc;" horiz-adv-x="1024" d="M0 1024h1024v-1024h-1024v1024z" />
<glyph unicode="&#xfb01;" horiz-adv-x="1366" d="M1073 1180q-90 0 -152.5 59.5t-62.5 146.5q0 89 62.5 149t152.5 60t153.5 -60.5t63.5 -148.5q0 -87 -63.5 -146.5t-153.5 -59.5zM606 1561q97 0 170 -25v-295q-62 4 -80 4q-90 0 -129 -32t-39 -103v-86h207v-295h-702v295h143v121q0 205 113.5 310.5t316.5 105.5z M1251 1024v-1024h-352v1024h352zM528 651v-651h-352v651h352z" />
<glyph unicode="&#xfb02;" horiz-adv-x="1366" d="M606 1561q97 0 170 -25v-295q-62 4 -80 4q-90 0 -129 -32t-39 -103v-86h207v-295h-702v295h143v121q0 205 113.5 310.5t316.5 105.5zM1251 1536v-1536h-352v1536h352zM528 651v-651h-352v651h352z" />
</font>
</defs>
</svg>
