<?xml version="1.0" encoding="UTF-8" standalone="no"?>
<svg width="27px" height="37px" viewBox="0 0 27 37" version="1.1" xmlns="http://www.w3.org/2000/svg" xmlns:xlink="http://www.w3.org/1999/xlink">
    <!-- Generator: Sketch 39.1 (31720) - http://www.bohemiancoding.com/sketch -->
    <title>Page 1</title>
    <desc>Created with Sketch.</desc>
    <defs></defs>
    <g id="SP3-HOME-Clientes-WOM-Correcciones" stroke="none" stroke-width="1" fill="none" fill-rule="evenodd">
        <g id="1-Home-Clientes" transform="translate(-308.000000, -2029.000000)" stroke="#FFFFFF">
            <path d="M321.272485,2046.672 C319.680705,2046.672 317.93915,2045.873 317.079818,2043.664 C316.95144,2043.3125 316.961392,2042.6075 316.961392,2042.543 L316.961392,2041.5505 C316.961392,2038.736 319.340355,2037.455 321.410317,2037.455 C323.956967,2037.455 325.927909,2039.504 325.927909,2042.0645 C325.927909,2044.625 323.820628,2046.672 321.272485,2046.672 L321.272485,2046.672 Z M333.098138,2038.961 C332.96976,2038.4805 332.711015,2037.9685 332.518947,2037.5195 C330.227061,2031.9845 325.21835,2030 321.173466,2030 C315.760217,2030 309.797134,2033.6485 309,2041.168 L309,2042.703 C309,2042.7675 309.021396,2043.3435 309.052247,2043.6325 C309.499577,2047.2145 312.313929,2051.0235 314.415239,2054.6075 C316.675777,2058.447 319.0219,2062.2245 321.346128,2066 C322.780672,2063.535 324.209244,2061.039 325.608956,2058.6385 C325.9916,2057.9355 326.43495,2057.2325 326.816102,2056.5605 C327.070369,2056.111 327.558502,2055.664 327.779928,2055.248 C330.040466,2051.088 333.68131,2046.8965 333.68131,2042.7675 L333.68131,2041.072 C333.68131,2040.625 333.128988,2039.0565 333.098138,2038.961 L333.098138,2038.961 Z" id="Page-1"></path>
        </g>
    </g>
</svg>