<?xml version="1.0" encoding="UTF-8" standalone="no"?>
<svg width="24px" height="24px" viewBox="0 0 24 24" version="1.1" xmlns="http://www.w3.org/2000/svg" xmlns:xlink="http://www.w3.org/1999/xlink">
    <!-- Generator: Sketch 39.1 (31720) - http://www.bohemiancoding.com/sketch -->
    <title>Shape</title>
    <desc>Created with Sketch.</desc>
    <defs></defs>
    <g id="SP3-HOME-Clientes-WOM-Correcciones" stroke="none" stroke-width="1" fill="none" fill-rule="evenodd">
        <g id="1-Home-Clientes" transform="translate(-324.000000, -1942.000000)" fill="#A1A1A1">
            <path d="M341.155403,1957.09348 L340.065866,1957.09348 L339.687136,1956.71751 C341.025043,1955.1574 341.838765,1953.13487 341.838765,1950.91887 C341.838765,1945.99291 337.845626,1942 332.919383,1942 C327.993139,1942 324,1945.99291 324,1950.91887 C324,1955.84483 327.993139,1959.83775 332.919383,1959.83775 C335.135506,1959.83775 337.156775,1959.02544 338.716981,1957.68898 L339.095712,1958.06495 L339.095712,1959.15168 L345.954031,1966 L348,1963.95415 L341.155403,1957.09348 L341.155403,1957.09348 Z M332.919383,1957.09348 C329.508062,1957.09348 326.744425,1954.33 326.744425,1950.91887 C326.744425,1947.50912 329.508062,1944.74427 332.919383,1944.74427 C336.329331,1944.74427 339.09434,1947.50912 339.09434,1950.91887 C339.09434,1954.33 336.329331,1957.09348 332.919383,1957.09348 L332.919383,1957.09348 Z" id="Shape"></path>
        </g>
    </g>
</svg>