<?xml version="1.0" encoding="UTF-8" standalone="no"?>
<svg width="40px" height="40px" viewBox="0 0 40 40" version="1.1" xmlns="http://www.w3.org/2000/svg" xmlns:xlink="http://www.w3.org/1999/xlink">
    <!-- Generator: Sketch 39.1 (31720) - http://www.bohemiancoding.com/sketch -->
    <title>Group 27</title>
    <desc>Created with Sketch.</desc>
    <defs></defs>
    <g id="Page-1" stroke="none" stroke-width="1" fill="none" fill-rule="evenodd">
        <g id="Home-Desktop-NO-WOMERS-Desktop" transform="translate(-263.000000, -3696.000000)" fill="#720184">
            <g id="Group-28" transform="translate(263.763835, 3691.000000)">
                <g id="Group-27" transform="translate(0.000000, 5.000000)">
                    <path d="M36.7948718,35.8974359 L1.75076923,35.8974359 C0.785641026,35.8974359 0,36.6830769 0,37.6523077 C0,38.6184615 0.785641026,39.4030769 1.75076923,39.4030769 L36.7948718,39.4030769 C37.7641026,39.4030769 38.5497436,38.6184615 38.5497436,37.6523077 C38.545641,36.6830769 37.7641026,35.8974359 36.7948718,35.8974359 L36.7948718,35.8974359 Z" id="Fill-1"></path>
                    <g id="Group-26">
                        <path d="M1.75102553,11.3917949 L36.8115383,11.3917949 C37.7807691,11.3917949 38.5664101,10.6061538 38.5664101,9.63692308 C38.5664101,8.86769231 38.0689742,8.21435897 37.3797435,7.97846154 L19.9920512,0.153846154 C19.5356409,-0.0512820513 19.0146153,-0.0512820513 18.558205,0.153846154 L1.03410245,8.03794872 C0.280256297,8.37846154 -0.13615396,9.2 0.0402562967,10.0051282 C0.212563989,10.814359 0.925384502,11.3917949 1.75102553,11.3917949" id="Fill-5"></path>
                        <path d="M7.74461538,30.8533333 L13,30.8533333 L13,15.0841026 L7.74461538,15.0841026 L7.74461538,30.8533333 Z M16.505641,30.8533333 L21.7620513,30.8533333 L21.7620513,15.0841026 L16.505641,15.0841026 L16.505641,30.8533333 Z M25.2646154,30.8533333 L30.5210256,30.8533333 L30.5210256,15.0841026 L25.2646154,15.0841026 L25.2646154,30.8533333 Z M3.80205128,30.8533333 C2.83179487,30.8533333 2.05128205,31.6379487 2.05128205,32.6041026 C2.05128205,33.5733333 2.83179487,34.3589744 3.80205128,34.3589744 L34.4625641,34.3589744 C35.4328205,34.3589744 36.2174359,33.5733333 36.2174359,32.6041026 C36.2174359,31.6379487 35.4328205,30.8533333 34.4625641,30.8533333 L34.025641,30.8533333 L34.025641,15.0841026 L34.4625641,15.0841026 C34.9476923,15.0841026 35.3405128,14.6912821 35.3405128,14.2061538 C35.3405128,13.7261538 34.9476923,13.3333333 34.4625641,13.3333333 L3.80205128,13.3333333 C3.31692308,13.3333333 2.92820513,13.7261538 2.92820513,14.2061538 C2.92820513,14.6912821 3.31692308,15.0841026 3.80205128,15.0841026 L4.23897436,15.0841026 L4.23897436,30.8533333 L3.80205128,30.8533333 Z" id="Fill-3"></path>
                    </g>
                </g>
            </g>
        </g>
    </g>
</svg>