<?xml version="1.0" encoding="UTF-8" standalone="no"?>
<svg width="41px" height="33px" viewBox="0 0 41 33" version="1.1" xmlns="http://www.w3.org/2000/svg" xmlns:xlink="http://www.w3.org/1999/xlink">
    <!-- Generator: Sketch 39.1 (31720) - http://www.bohemiancoding.com/sketch -->
    <title>Group 11</title>
    <desc>Created with Sketch.</desc>
    <defs>
        <polygon id="path-1" points="6.8567374e-13 0.285705851 6.8567374e-13 21.1020638 35.4054654 21.1020638 35.4054654 0.285705851 6.85673771e-13 0.285705851"></polygon>
        <polygon id="path-3" points="1.29276676e-12 0.753642444 35.4056202 0.753642444 35.4056202 22.3236428 1.29276676e-12 22.3236428 1.29276676e-12 1.50736025 -0.000154863291 22.3237182 35.4054654 22.3237182 35.4054654 1.50736025 12.9744935 1.50736025 7.67619995 1.50736025 1.29276684e-12 1.50736025"></polygon>
    </defs>
    <g id="SP2-Estado-Portabilidad" stroke="none" stroke-width="1" fill="none" fill-rule="evenodd">
        <g id="5-Estado-Portabilidad-Correciones" transform="translate(-21.000000, -1930.000000)">
            <g id="Group-11" transform="translate(20.000000, 1929.000000)">
                <g id="Page-1" transform="translate(21.400728, 18.176164) rotate(21.000000) translate(-21.400728, -18.176164) translate(3.400728, 6.676164)">
                    <g id="Group-3" transform="translate(0.000000, 0.468012)">
                        <mask id="mask-2" fill="white">
                            <use xlink:href="#path-1"></use>
                        </mask>
                        <g id="Clip-2"></g>
                        <path d="M34.1650104,5.42705461 C33.0205707,5.52502812 32.2354138,5.92671955 31.2799073,6.85746797 C29.0343895,9.04303105 29.0343895,12.3447386 31.2814559,14.5325626 C32.2354138,15.4602965 33.0228936,15.8642488 34.1673334,15.962976 L34.1673334,19.8962359 L13.5023756,19.8962359 L13.5039242,17.0889178 L12.2642436,17.0889178 L12.2665665,19.8962359 L1.23875148,19.8969895 L1.23875148,15.962976 C2.38319121,15.8650025 3.16989673,15.4610501 4.12385461,14.5325626 C6.37246962,12.3447386 6.3716953,9.04303105 4.12540325,6.85746797 C3.16989673,5.92671955 2.38473984,5.52427448 1.23875148,5.42554732 L1.23875148,1.49078012 L12.2665665,1.49078012 L12.2642436,4.29960551 L13.5039242,4.29885187 L13.5046986,1.49304105 L34.1673334,1.49078012 L34.1650104,5.42705461 Z M0.0021680861,6.60725867 L0.61852399,6.60725867 C1.78154732,6.60725867 2.37002783,6.85520704 3.24887701,7.71059121 C5.02438466,9.43793969 5.02438466,11.9490763 3.24655406,13.6794394 C2.37002783,14.5325626 1.77922437,14.7820183 0.620846939,14.7820183 L-0.000154863287,14.7820183 L0.000619453175,21.1020638 L35.4054654,21.1020638 L35.4054654,14.7820183 L34.7852379,14.7820183 C33.6253118,14.7820183 33.036057,14.5325626 32.1587564,13.6786857 C30.3817002,11.9490763 30.3817002,9.43869334 32.1564335,7.71134485 C33.036057,6.85520704 33.6237632,6.60725867 34.7875608,6.60725867 L35.4031424,6.60725867 L35.4054654,0.285705851 L0.000619453175,0.285705851 L0.0021680861,6.60725867 Z" id="Fill-1" fill="#FFFFFF" mask="url(#mask-2)"></path>
                    </g>
                    <polygon id="Fill-4" fill="#FFFFFF" points="13.5046986 12.4402251 13.5046986 15.8497035 12.2657922 15.8519644 12.2665665 12.442486"></polygon>
                    <polygon id="Fill-6" fill="#FFFFFF" points="13.5046986 6.4737886 13.5039242 9.88402066 12.2657922 9.88100609 12.2657922 6.47152767"></polygon>
                    <path d="" id="Fill-8" fill="#FFFFFF"></path>
                    <mask id="mask-4" fill="white">
                        <use xlink:href="#path-3"></use>
                    </mask>
                    <g id="Clip-11"></g>
                    <path d="M34.1650104,6.64870901 C33.0205707,6.74668253 32.2354138,7.14837395 31.2799073,8.07912237 C29.0343895,10.2646855 29.0343895,13.566393 31.2814559,15.754217 C32.2354138,16.6819509 33.0228936,17.0859032 34.1673334,17.1846304 L34.1673334,21.1178903 L13.5023756,21.1178903 L13.5039242,18.3105722 L12.2642436,18.3105722 L12.2665665,21.1178903 L1.23875148,21.1186439 L1.23875148,17.1846304 C2.38319121,17.0866569 3.16989673,16.6827045 4.12385461,15.754217 C6.37246962,13.566393 6.3716953,10.2646855 4.12540325,8.07912237 C3.16989673,7.14837395 2.38473984,6.74592888 1.23875148,6.64720172 L1.23875148,2.71243452 L12.2665665,2.71243452 L12.2642436,5.52125991 L13.5039242,5.52050627 L13.5046986,2.71469545 L34.1673334,2.71243452 L34.1650104,6.64870901 Z M0.0021680861,7.82891308 L0.61852399,7.82891308 C1.78154732,7.82891308 2.37002783,8.07686144 3.24887701,8.93224561 C5.02438466,10.6595941 5.02438466,13.1707307 3.24655406,14.9010938 C2.37002783,15.754217 1.77922437,16.0036727 0.620846939,16.0036727 L-0.000154863291,16.0036727 L0.000619453172,22.3237182 L35.4054654,22.3237182 L35.4054654,16.0036727 L34.7852379,16.0036727 C33.6253118,16.0036727 33.036057,15.754217 32.1587564,14.9003401 C30.3817002,13.1707307 30.3817002,10.6603477 32.1564335,8.93299926 C33.036057,8.07686144 33.6237632,7.82891308 34.7875608,7.82891308 L35.4031424,7.82891308 L35.4054654,1.50736025 L0.000619453172,1.50736025 L0.0021680861,7.82891308 Z" id="Fill-10" fill="#848483" mask="url(#mask-4)"></path>
                    <polygon id="Fill-13" fill="#FFFFFF" mask="url(#mask-4)" points="13.5046986 13.1938675 13.5046986 16.603346 12.2657922 16.6056069 12.2665665 13.1961285"></polygon>
                    <polygon id="Fill-15" fill="#848483" mask="url(#mask-4)" points="13.5046986 7.22743104 13.5039242 10.6376631 12.2657922 10.6346485 12.2657922 7.22517011"></polygon>
                    <path d="" id="Fill-17" fill="#848483" mask="url(#mask-4)"></path>
                </g>
            </g>
        </g>
    </g>
</svg>