<?xml version="1.0" encoding="UTF-8" standalone="no"?>
<svg width="49px" height="13px" viewBox="0 0 49 13" version="1.1" xmlns="http://www.w3.org/2000/svg" xmlns:xlink="http://www.w3.org/1999/xlink">
    <!-- Generator: Sketch 39.1 (31720) - http://www.bohemiancoding.com/sketch -->
    <title>Group 14</title>
    <desc>Created with Sketch.</desc>
    <defs>
        <polygon id="path-1" points="13.8857035 12.9026362 13.8857035 0.0308580452 0.0349770949 0.0308580452 0.0349770949 12.9026362 13.8857035 12.9026362"></polygon>
        <polygon id="path-3" points="0.0167436335 12.9058554 11.5008723 12.9058554 11.5008723 0.0291469318 0.0167436335 0.0291469318 0.0167436335 12.9058554"></polygon>
        <polygon id="path-5" points="11.4848913 12.9058554 0 12.9058554 0 0.0291469318 11.4848913 0.0291469318"></polygon>
        <polygon id="path-7" points="13.1377422 0.0291469318 0.0365685019 0.0291469318 0.0365685019 12.9013021 13.1377422 12.9013021 13.1377422 0.0291469318"></polygon>
    </defs>
    <g id="SP2-Pago-fácil" stroke="none" stroke-width="1" fill="none" fill-rule="evenodd">
        <g id="1-PagoFacil-Correcciones" transform="translate(-297.000000, -1271.000000)">
            <g id="Group-19" transform="translate(30.000000, 1233.000000)">
                <g id="Group-14" transform="translate(267.000000, 38.000000)">
                    <g id="Page-1">
                        <g id="Group-3" transform="translate(34.536918, 0.115921)">
                            <mask id="mask-2" fill="white">
                                <use xlink:href="#path-1"></use>
                            </mask>
                            <g id="Clip-2"></g>
                            <path d="M8.1552161,8.23898206 L4.02365258,8.23898206 L6.07538256,2.36739791 L8.1552161,8.23898206 Z M7.50680239,0.033178199 C8.68698307,0.033178199 8.91215023,0.284334845 9.32625466,1.34421009 L13.8858051,12.9017661 L9.82314611,12.9017661 L8.83274918,10.123962 L3.36508095,10.123962 L2.37942438,12.9026362 L0.0349770949,12.9026362 L4.6348206,0.0308580452 L7.50680239,0.033178199 Z" id="Fill-1" fill="#FFFFFF" mask="url(#mask-2)"></path>
                        </g>
                        <g id="Group-6" transform="translate(12.697397, 0.115921)">
                            <mask id="mask-4" fill="white">
                                <use xlink:href="#path-3"></use>
                            </mask>
                            <g id="Clip-5"></g>
                            <path d="M5.5787112,5.69502045 L6.83219818,4.09193921 C7.1491252,3.69069761 7.21650605,3.43809087 7.21650605,3.15662722 C7.21650605,2.37009509 6.40844373,1.70928629 5.47848641,1.70928629 L3.55136022,1.70928629 L3.55136022,11.1771088 L4.61912662,11.1771088 C6.40573496,11.1771088 7.7619862,10.350119 7.7619862,8.41525575 C7.7619862,6.81855492 6.88671233,5.96618843 5.5787112,5.69502045 M6.32904268,12.9059134 L0.0167436335,12.9059134 L0.0167436335,0.029059926 L6.5591195,0.029059926 C9.62596401,0.029059926 10.6949155,2.17027184 9.14160065,4.14602779 L8.40769114,5.07843959 C13.5530148,7.36756131 11.8798365,12.9059134 6.32904268,12.9059134" id="Fill-4" fill="#FFFFFF" mask="url(#mask-4)"></path>
                        </g>
                        <g id="Group-9" transform="translate(0.000000, 0.115921)">
                            <mask id="mask-6" fill="white">
                                <use xlink:href="#path-5"></use>
                            </mask>
                            <g id="Clip-8"></g>
                            <path d="M5.56206914,5.69502045 L6.81589472,4.09193921 C7.13299104,3.69069761 7.19986399,3.43809087 7.19986399,3.15662722 C7.19986399,2.37009509 6.39281747,1.70928629 5.46302945,1.70928629 L3.53573396,1.70928629 L3.53573396,11.1771088 L4.60299246,11.1771088 C6.39027799,11.1771088 7.74585204,10.350119 7.74585204,8.41525575 C7.74585204,6.81855492 6.87108607,5.96618843 5.56206914,5.69502045 M6.31290852,12.9059134 L-6.77194475e-05,12.9059134 L-6.77194475e-05,0.029059926 L6.54298535,0.029059926 C9.60932195,0.029059926 10.6787813,2.17027184 9.1252972,4.14602779 L8.39155698,5.07843959 C13.5368806,7.36756131 11.8642103,12.9059134 6.31290852,12.9059134" id="Fill-7" fill="#FFFFFF" mask="url(#mask-6)"></path>
                        </g>
                        <g id="Group-12" transform="translate(23.193911, 0.115921)">
                            <mask id="mask-8" fill="white">
                                <use xlink:href="#path-7"></use>
                            </mask>
                            <g id="Clip-11"></g>
                            <path d="M10.7651914,0.029088928 L13.1377422,0.029088928 L8.55702945,12.9013021 L4.95029165,12.899562 L0.0365685019,0.0309740529 L2.69167876,0.029088928 C3.7171205,0.029088928 3.98647461,0.25573895 4.52230474,1.71337556 L7.36736805,9.80607193 L10.7651914,0.029088928 Z" id="Fill-10" fill="#FFFFFF" mask="url(#mask-8)"></path>
                        </g>
                    </g>
                </g>
            </g>
        </g>
    </g>
</svg>