<?xml version="1.0" encoding="UTF-8" standalone="no"?>
<svg width="75px" height="13px" viewBox="0 0 75 13" version="1.1" xmlns="http://www.w3.org/2000/svg" xmlns:xlink="http://www.w3.org/1999/xlink">
    <!-- Generator: Sketch 39.1 (31720) - http://www.bohemiancoding.com/sketch -->
    <title>Page 1</title>
    <desc>Created with Sketch.</desc>
    <defs>
        <polygon id="path-1" points="0 0.0359921547 0 11.7390259 8.38553035 11.7390259 8.38553035 0.0359921547 0 0.0359921547"></polygon>
        <polygon id="path-3" points="8.7175036 0.0538307484 0.0366371784 0.0538307484 0.0366371784 12.025374 8.7175036 12.025374 8.7175036 0.0538307484"></polygon>
    </defs>
    <g id="SP2-Pago-fácil" stroke="none" stroke-width="1" fill="none" fill-rule="evenodd">
        <g id="1-PagoFacil-Correcciones" transform="translate(-112.000000, -1470.000000)">
            <g id="Page-1" transform="translate(112.217906, 1470.000000)">
                <g id="Group-3" transform="translate(0.000000, 0.375684)">
                    <mask id="mask-2" fill="white">
                        <use xlink:href="#path-1"></use>
                    </mask>
                    <g id="Clip-2"></g>
                    <path d="M8.16655063,1.58663268 C7.74180177,1.36658518 6.56807049,0.827275523 5.2302121,0.827275523 C4.32184115,0.827275523 3.49129775,1.35026415 3.29586733,2.46166867 C2.8365125,5.05413461 8.45143965,4.81862509 7.81474715,8.42170606 C7.38841877,10.8300594 5.29066486,11.7390259 2.9236736,11.7390259 C1.60319,11.7390259 0.34545666,11.3858332 -2.87186513e-05,11.3006489 L0.00155080718,9.77577845 C0.478998389,10.0778606 1.96590657,10.9483152 3.33736578,10.9483152 C4.41847942,10.9483152 5.55918426,10.5099382 5.83014473,8.97819574 C6.3121873,6.24943492 0.693957496,6.50226764 1.32203441,2.94943825 C1.65028859,1.09814727 3.27849254,0.0359921547 5.69574144,0.0359921547 C6.87894989,0.0359921547 7.95446339,0.255896489 8.38553035,0.339649116 L8.16655063,1.58663268 Z" id="Fill-1" fill="#FFFFFF" mask="url(#mask-2)"></path>
                </g>
                <path d="M13.7076565,6.45691237 C13.7760069,6.07107762 14.021695,4.48750872 12.5291866,4.48750872 C11.243309,4.48750872 10.6482585,5.81724274 10.5351071,6.45691237 L13.7076565,6.45691237 Z M14.348226,11.6590243 C14.0013047,11.778855 13.031763,12.1152971 11.8501341,12.1152971 C9.22639811,12.1152971 7.92472523,10.5484788 8.42241946,7.73754015 C8.89283097,5.07621094 10.4017089,3.91441168 12.6996318,3.91441168 C15.6319497,3.91441168 15.5024286,6.00293018 15.3029776,7.13008306 L10.4157811,7.13008306 C10.1175379,8.81458462 10.3985499,11.2051853 12.8157988,11.2051853 C13.5364933,11.2051853 14.1661498,11.0361052 14.4794703,10.918422 L14.348226,11.6590243 Z" id="Fill-4" fill="#FFFFFF"></path>
                <path d="M16.5708917,6.28945007 C16.7789583,5.10975494 16.55524,4.82399384 15.482024,4.79120863 L15.5408973,4.45304845 L18.7055491,3.91445463 L18.3131087,6.13755001 L18.3467095,6.13755001 C18.7236418,5.36258766 19.5118252,3.91445463 20.883428,3.91445463 C21.1920099,3.91445463 21.5122229,3.94738301 21.7940964,3.99906626 L21.5122229,5.59909935 C21.2523191,5.51434456 20.964271,5.39709088 20.6730639,5.39709088 C18.940324,5.39709088 18.2085728,6.72610907 17.9997882,7.90580419 L17.2877092,11.9293663 L15.5730621,11.9293663 L16.5708917,6.28945007 Z" id="Fill-6" fill="#FFFFFF"></path>
                <path d="M31.4162089,1.5239399 C31.5167241,0.950986028 32.0796097,0.479680645 32.6801167,0.479680645 C33.2635361,0.479680645 33.6983365,0.93523767 33.5939442,1.5239399 C33.4889775,2.11264213 32.892204,2.58380434 32.2908354,2.58380434 C31.7082775,2.58380434 31.3118166,2.11264213 31.4162089,1.5239399 L31.4162089,1.5239399 Z M30.760562,6.28867697 C30.9694902,5.11055668 30.7464899,4.82322074 29.7047208,4.79043553 L29.7651736,4.45313435 L32.896081,3.91439736 L31.4789591,11.9298817 L29.7635941,11.9298817 L30.760562,6.28867697 Z" id="Fill-8" fill="#FFFFFF"></path>
                <polygon id="Fill-10" fill="#FFFFFF" points="22.0485006 4.09922581 23.9185156 4.09922581 25.2713077 10.0261916 28.6519238 4.09922581 29.630081 4.09922581 25.175531 11.929309 23.9232542 11.929309 22.0650138 4.10709999"></polygon>
                <path d="M35.4288219,2.88750425 C35.7231881,1.22018272 35.6729305,1.22018272 34.1640525,0.968209004 L34.2291003,0.597979442 L42.3187136,0.597979442 L41.9301503,3.09108756 L41.4567233,3.09108756 C41.6946573,1.74231235 41.0484877,1.38926281 39.9344912,1.38926281 L38.6154435,1.38926281 C37.7715459,1.38926281 37.539212,1.45655125 37.3970547,2.26530097 L36.8044453,5.61469023 L38.848639,5.61469023 C40.0136111,5.61469023 40.2626018,4.87494694 40.4629144,4.31845726 L40.9354798,4.31845726 L40.3097004,7.85410663 L39.8369913,7.85410663 C39.9972414,6.94614225 39.721686,6.40754843 38.7080612,6.40754843 L36.6645855,6.40754843 L36.0003231,10.1609546 C35.8346165,11.1048539 36.0482832,11.1376391 36.8928988,11.1376391 L38.767078,11.1376391 C39.7288656,11.1376391 40.2446526,10.8011969 40.5782197,9.48778394 L41.0509288,9.48778394 L40.5680246,11.929352 L33.8301982,11.929352 L35.4288219,2.88750425 Z" id="Fill-12" fill="#FFFFFF"></path>
                <path d="M47.0174871,5.46439363 C46.7890302,5.29531354 46.0793923,4.65578707 45.1200458,4.65578707 C44.5703708,4.65578707 43.8834206,4.85779554 43.755479,5.58093148 C43.4728875,7.18168041 47.2223947,7.21546779 46.7663425,9.79061054 C46.4741302,11.4413247 44.9668318,12.1147817 43.2686979,12.1147817 C42.2229082,12.1147817 41.5046547,11.9126301 41.1277224,11.8125564 L41.3601999,10.4974254 C41.7974414,10.8348698 42.5086588,11.3741794 43.4697285,11.3741794 C44.549119,11.3741794 45.0383412,10.8348698 45.1420155,10.2454517 C45.4348022,8.59545339 41.6977877,8.49366173 42.1076028,6.17034954 C42.3227055,4.9587282 43.3465254,3.91446895 45.3703288,3.91446895 C46.2449554,3.91446895 46.9610549,4.13365744 47.2396258,4.20094588 L47.0174871,5.46439363 Z" id="Fill-14" fill="#FFFFFF"></path>
                <path d="M51.3362984,11.9800617 C50.9461555,12.047207 50.541079,12.1147817 50.1625671,12.1147817 C48.5169884,12.1147817 47.6000018,11.862808 47.9400307,9.94322644 L48.8531402,4.77404292 L47.5168614,4.77404292 L47.6361873,4.10087223 L48.9739021,4.10087223 L49.2086771,2.76999287 L51.1879666,1.2718946 L50.6878313,4.10087223 L52.934635,4.10087223 L52.8161705,4.77404292 L50.5693668,4.77404292 L49.7024943,9.67235469 C49.4944277,10.8529088 49.4865301,11.3733204 50.8078752,11.3733204 C51.0145059,11.3733204 51.2406653,11.3568562 51.4549064,11.306032 L51.3362984,11.9800617 Z" id="Fill-16" fill="#FFFFFF"></path>
                <path d="M56.6184769,8.19155097 C55.9974361,8.20801517 53.9765046,8.29319946 53.693913,9.89308939 C53.5573558,10.6664769 53.8557426,11.2052139 54.4901377,11.2052139 C55.4848081,11.2052139 56.2431241,10.3125684 56.4455906,9.16823546 L56.6184769,8.19155097 Z M56.1324137,10.9357738 C55.7610816,11.2896823 55.032633,12.1147531 53.7112878,12.1147531 C52.375009,12.1147531 51.5812254,11.1724287 51.7571272,10.1782778 C52.1762759,7.80471405 55.6212217,7.61845394 56.7244487,7.58566872 L56.8768012,6.72609475 C57.064334,5.6653713 57.2731186,4.48753735 56.191287,4.48753735 C55.0614952,4.48753735 54.8196842,5.464365 54.6878656,6.20410829 L52.6466874,6.20410829 C53.0329533,5.09327644 53.8069209,3.91444031 56.2775865,3.91444031 C58.7130718,3.91444031 58.8717423,5.14352801 58.5772325,6.80999054 L57.6727386,11.9299247 L55.956512,11.9299247 L56.1324137,10.9357738 Z" id="Fill-18" fill="#FFFFFF"></path>
                <g id="Group-22" transform="translate(58.729642, 0.089350)">
                    <mask id="mask-4" fill="white">
                        <use xlink:href="#path-3"></use>
                    </mask>
                    <g id="Clip-21"></g>
                    <path d="M5.6996041,7.42742636 C5.86531072,6.48495877 5.98693421,4.73545944 4.3578687,4.73545944 C2.77992239,4.73545944 2.28380769,6.67121888 2.0747359,7.84848017 C1.84556106,9.14714698 1.63447898,11.1164075 3.24688767,11.1164075 C4.8924664,11.1164075 5.41931006,9.0117111 5.57798061,8.11863608 L5.6996041,7.42742636 Z M5.08574293,10.8966463 C4.58560761,11.3006632 3.75420265,12.025374 2.5200186,12.025374 C0.292025608,12.025374 -0.226202459,10.1898314 0.147427198,8.0848487 C0.525077466,5.94636495 1.77491318,3.82506123 4.03923526,3.82506123 C5.44443888,3.82506123 5.85109499,4.53359414 6.07811593,5.08850898 L6.11415784,5.08850898 L6.59777993,2.34256814 C6.80900561,1.14798366 6.58672325,0.862508893 5.58343716,0.811541483 L5.64317195,0.474097137 L8.7175036,0.053759165 L6.63382184,11.8389707 L4.91917475,11.8389707 L5.08574293,10.8966463 Z" id="Fill-20" fill="#FFFFFF" mask="url(#mask-4)"></path>
                </g>
                <g id="Group-25" transform="translate(66.340085, 3.811689)" fill="#FFFFFF">
                    <path d="M3.29985922,7.72999526 C4.9806183,7.72999526 5.44241422,5.8950253 5.73907789,4.21138275 C6.01319742,2.66246023 6.2094894,0.675733376 4.54725385,0.675733376 C2.84840202,0.675733376 2.36635945,2.72817383 2.10415816,4.21138275 C1.85602901,5.6088347 1.60086379,7.72999526 3.29985922,7.72999526 M0.216768382,4.21138275 C0.714462613,1.39972831 2.14422068,0.102779506 4.64791272,0.102779506 C7.13422998,0.102779506 8.05523714,1.78742423 7.62718564,4.21138275 C7.14054809,6.95660775 5.73606243,8.30309229 3.19862597,8.30309229 C0.43660966,8.30309229 -0.199364879,6.56848233 0.216768382,4.21138275" id="Fill-23"></path>
                </g>
            </g>
        </g>
    </g>
</svg>