<?xml version="1.0" encoding="UTF-8" standalone="no"?>
<svg width="53px" height="14px" viewBox="0 0 53 14" version="1.1" xmlns="http://www.w3.org/2000/svg" xmlns:xlink="http://www.w3.org/1999/xlink">
    <!-- Generator: Sketch 39.1 (31720) - http://www.bohemiancoding.com/sketch -->
    <title>Page 1</title>
    <desc>Created with Sketch.</desc>
    <defs>
        <polygon id="path-1" points="4.40561483 3.29919279 4.40561483 0.0710809213 0.0226741608 0.0710809213 0.0226741608 3.29919279 4.40561483 3.29919279"></polygon>
    </defs>
    <g id="SP2-Pago-fácil" stroke="none" stroke-width="1" fill="none" fill-rule="evenodd">
        <g id="1-PagoFacil-Correcciones" transform="translate(-149.000000, -1504.000000)">
            <g id="Group-20" transform="translate(30.000000, 1504.000000)">
                <g id="Page-1" transform="translate(119.650485, 0.000000)">
                    <path d="M2.47970195,1.80356048 L0.122533959,10.411324 C0.122533959,10.411324 -0.764703774,12.8283725 2.23630441,12.8283725 L4.63702147,12.8283725 L5.15901374,10.8183094 L2.98424477,10.8183094 C2.98424477,10.8183094 2.49744969,10.9455378 2.72324863,10.0805302 C2.94964414,9.21552259 5.03731497,1.80356048 5.03731497,1.80356048 L2.47970195,1.80356048 Z" id="Fill-1" fill="#FFFFFF"></path>
                    <polygon id="Fill-3" fill="#FFFFFF" points="6.51598487 4.89039733 6.06364128 6.55250893 7.33372306 6.55250893 5.78534482 12.8282852 8.20351134 12.8282852 10.0998347 4.89039733"></polygon>
                    <path d="M10.5347289,2.8888404 C10.5347289,3.55391769 9.85703374,4.09336603 9.02095125,4.09336603 C8.18531618,4.09336603 7.50762106,3.55391769 7.50762106,2.8888404 C7.50762106,2.22376312 8.18531618,1.68475098 9.02095125,1.68475098 C9.85703374,1.68475098 10.5347289,2.22376312 10.5347289,2.8888404" id="Fill-5" fill="#FFFFFF"></path>
                    <path d="M20.9208689,1.80356048 L19.1114945,8.99494492 C19.1114945,8.99494492 18.2417062,12.8283725 13.6313213,12.8283725 C13.6313213,12.8283725 9.76917498,13.0730872 9.76917498,9.67354477 C9.76917498,6.27385696 13.5269228,3.58446704 17.7371634,5.22956639 L18.663476,1.80356048 L20.9208689,1.80356048 Z M17.2804947,6.95129357 C17.2804947,6.95129357 16.1975845,5.76814231 14.2402626,6.53136721 C12.2830898,7.29473751 12.2308906,9.12653542 12.2308906,9.48277489 C12.2308906,9.83886896 12.2699654,11.4416558 14.3185614,11.2889817 C14.3185614,11.2889817 15.8843891,11.3017773 16.4063814,9.88976031 C16.9282245,8.47774337 17.1892206,7.06572642 17.2804947,6.95129357 L17.2804947,6.95129357 Z" id="Fill-7" fill="#FFFFFF"></path>
                    <path d="M27.196961,10.5384942 L26.9359649,12.433979 C26.9359649,12.433979 24.3264509,13.2480953 22.2126805,12.5229662 C20.09891,11.7978371 19.6159926,10.2841828 19.8769887,8.60491359 C20.1378357,6.92578974 21.7558626,4.87734006 25.7616314,4.67377465 C25.7616314,4.67377465 29.4673291,4.52110059 29.4673291,6.69677865 C29.4673291,8.87172968 26.8446908,9.29180145 26.0356028,9.44447551 C25.2266639,9.59714957 23.3215412,9.6095089 22.3038054,9.31739253 C22.3038054,9.31739253 22.0038835,10.9328295 23.7913342,11.1872863 C25.5789341,11.441743 26.9881641,10.7294095 27.196961,10.5384942 M25.4746848,7.96891707 C26.9489401,7.79079734 27.157737,7.10390947 27.1708614,7.02757244 C27.1838366,6.95123541 27.2099362,6.12388741 25.4746848,6.16256484 C23.739135,6.20022444 22.7735984,7.89258004 22.7735984,7.89258004 C22.9955197,8.00657668 24.0001312,8.14703681 25.4746848,7.96891707" id="Fill-9" fill="#FFFFFF"></path>
                    <path d="M30.6546826,4.87334146 L28.714661,12.8282416 L31.1068771,12.8282416 C31.1068771,12.8282416 31.4375219,10.0805447 32.0639126,8.55409494 C32.6901542,7.02749974 33.7861889,5.42471292 36.3305284,6.69685135 L37.0089692,4.87334146 C37.0089692,4.87334146 34.7909494,4.27980287 32.9511504,5.47560427 L33.0466004,4.87334146 L30.6546826,4.87334146 Z" id="Fill-11" fill="#FFFFFF"></path>
                    <path d="M45.5638559,4.62750714 C45.5638559,4.62750714 46.1501278,4.65222579 46.2011339,4.15552619 C46.2519909,3.65853577 46.5067231,0.549801101 46.5067231,0.549801101 C46.5067231,0.549801101 46.236182,2.90807739e-05 45.5638559,2.90807739e-05 C44.891679,2.90807739e-05 44.5857915,0.531044002 44.5857915,0.531044002 L44.901224,4.1183028 C44.901224,4.1183028 44.859912,4.62459906 45.5638559,4.62750714" id="Fill-13" fill="#FFFFFF"></path>
                    <path d="M45.5638559,9.09367414 C45.5638559,9.09367414 46.1501278,9.06895549 46.2011339,9.5659459 C46.2519909,10.0626455 46.5067231,13.1718164 46.5067231,13.1718164 C46.5067231,13.1718164 46.236182,13.721443 45.5638559,13.721443 C44.891679,13.721443 44.5857915,13.1904281 44.5857915,13.1904281 L44.901224,9.60316929 C44.901224,9.60316929 44.859912,9.09687303 45.5638559,9.09367414" id="Fill-15" fill="#FFFFFF"></path>
                    <g id="Group-19" transform="translate(47.426727, 2.816168)">
                        <mask id="mask-2" fill="white">
                            <use xlink:href="#path-1"></use>
                        </mask>
                        <g id="Clip-18"></g>
                        <path d="M0.15210855,2.94892128 C0.15210855,2.94892128 0.423842816,3.45579916 0.890653054,3.25005269 C1.35716501,3.04387 4.24452801,1.70062908 4.24452801,1.70062908 C4.24452801,1.70062908 4.59664909,1.1972409 4.25974036,0.630020414 C3.92283163,0.0626545261 3.29837972,0.0710879504 3.29837972,0.0710879504 L0.272166774,2.13451422 C0.272166774,2.13451422 -0.197626277,2.35349245 0.15210855,2.94892128" id="Fill-17" fill="#FFFFFF" mask="url(#mask-2)"></path>
                    </g>
                    <path d="M47.5573295,8.0134252 C47.5573295,8.0134252 47.2432393,8.49660225 47.6597891,8.78740998 C48.076339,9.07792691 50.7143388,10.842112 50.7143388,10.842112 C50.7143388,10.842112 51.3378959,10.8873326 51.6727166,10.3192397 C52.0078357,9.750856 51.687929,9.22783829 51.687929,9.22783829 L48.3403179,7.70691385 C48.3403179,7.70691385 47.9106437,7.42003202 47.5573295,8.0134252" id="Fill-20" fill="#FFFFFF"></path>
                    <path d="M43.5178102,5.76508883 C43.5178102,5.76508883 43.2463742,6.27196671 42.779564,6.06622024 C42.313052,5.86003755 39.425689,4.51679663 39.425689,4.51679663 C39.425689,4.51679663 39.073568,4.01340845 39.4104767,3.44618796 C39.7470871,2.87882208 40.3718373,2.8872555 40.3718373,2.8872555 L43.3980503,4.95068177 C43.3980503,4.95068177 43.8678433,5.16965999 43.5178102,5.76508883" id="Fill-22" fill="#FFFFFF"></path>
                    <path d="M43.5396444,8.0134252 C43.5396444,8.0134252 43.8537346,8.49660225 43.4371848,8.78740998 C43.0206349,9.07792691 40.3826351,10.842112 40.3826351,10.842112 C40.3826351,10.842112 39.7589289,10.8873326 39.423959,10.3192397 C39.0891382,9.750856 39.4090449,9.22783829 39.4090449,9.22783829 L42.756656,7.70691385 C42.756656,7.70691385 43.1863302,7.42003202 43.5396444,8.0134252" id="Fill-24" fill="#FFFFFF"></path>
                </g>
            </g>
        </g>
    </g>
</svg>