<?xml version="1.0" encoding="UTF-8" standalone="no"?>
<svg width="73px" height="11px" viewBox="0 0 73 11" version="1.1" xmlns="http://www.w3.org/2000/svg" xmlns:xlink="http://www.w3.org/1999/xlink">
    <!-- Generator: Sketch 39.1 (31720) - http://www.bohemiancoding.com/sketch -->
    <title>Page 1</title>
    <desc>Created with Sketch.</desc>
    <defs>
        <polygon id="path-1" points="0.000130669864 10.0968445 8.16177041 10.0968445 8.16177041 0.263267078 0.000130669864 0.263267078"></polygon>
        <polygon id="path-3" points="0 10.1801598 71.7857768 10.1801598 71.7857768 0.32563952 0 0.32563952"></polygon>
    </defs>
    <g id="SP2-Pago-fácil" stroke="none" stroke-width="1" fill="none" fill-rule="evenodd">
        <g id="1-PagoFacil-Correcciones" transform="translate(-197.000000, -1471.000000)">
            <g id="Page-1" transform="translate(197.553939, 1471.359623)">
                <g id="Group-3" transform="translate(0.000000, 0.083315)">
                    <mask id="mask-2" fill="white">
                        <use xlink:href="#path-1"></use>
                    </mask>
                    <g id="Clip-2"></g>
                    <path d="M0.362086195,7.59357619 C1.11082452,7.94957138 2.15945018,8.22186048 3.36161294,8.22186048 C4.28348883,8.22186048 5.1566902,8.05705392 5.1566902,7.29457931 C5.1566902,5.52111743 0.000130669864,6.63893582 0.000130669864,3.17539245 C0.000130669864,0.888945732 2.56714016,0.263267078 4.75096027,0.263267078 C5.79860591,0.263267078 6.82959114,0.398760217 7.56558915,0.617308045 L7.3780779,2.57479306 C6.62803288,2.27481907 5.7845589,2.13802311 4.95382524,2.13802311 C4.22142065,2.13802311 3.00423086,2.19404431 3.00423086,3.02589402 C3.00423086,4.56647706 8.16177041,3.52943342 8.16177041,6.9659433 C8.16177041,9.42989907 5.7845589,10.0969422 3.36161294,10.0969422 C2.34696144,10.0969422 1.08044378,9.96242619 0.110220031,9.69013709 L0.362086195,7.59357619 Z" id="Fill-1" fill="#FFFFFF" mask="url(#mask-2)"></path>
                </g>
                <polygon id="Fill-4" fill="#FFFFFF" points="8.78052489 0.513701392 16.4913536 0.513701392 16.4913536 2.30768267 11.6990363 2.30768267 11.6990363 4.26809902 16.2244604 4.26809902 16.2244604 6.06110318 11.6990363 6.06110318 11.6990363 8.21987368 16.6625311 8.21987368 16.6625311 10.0132035 8.78052489 10.0132035"></polygon>
                <path d="M17.8634852,10.0130733 L20.7833033,10.0130733 L20.7833033,6.25834993 L21.3912448,6.25834993 C22.4738447,6.25834993 22.8498472,6.66613216 23.4453751,8.29954104 L24.0696504,10.0130733 L27.1090314,10.0130733 L26.044072,7.42795537 C25.5040788,6.27007529 25.4429907,5.54961658 24.4985742,5.33237157 L24.4985742,5.3063152 C25.9127488,5.02132362 26.6030124,4.17937707 26.6030124,2.90717467 C26.6030124,1.27409149 25.0176603,0.51357111 23.0726393,0.51357111 L17.8634852,0.51357111 L17.8634852,10.0130733 Z M20.7833033,2.30787809 L21.5493554,2.30787809 C22.6636427,2.30787809 23.6831943,2.47138183 23.6831943,3.35925274 C23.6831943,4.43603235 22.4914851,4.46436865 21.5493554,4.46436865 L20.7833033,4.46436865 L20.7833033,2.30787809 Z" id="Fill-6" fill="#FFFFFF"></path>
                <polygon id="Fill-8" fill="#FFFFFF" points="26.6978787 0.513701392 29.7980213 0.513701392 32.2245606 7.9700582 32.2585348 7.9700582 34.7108815 0.513701392 37.7032214 0.513701392 33.9752101 10.0132035 30.3697019 10.0132035"></polygon>
                <mask id="mask-4" fill="white">
                    <use xlink:href="#path-3"></use>
                </mask>
                <g id="Clip-11"></g>
                <polygon id="Fill-10" fill="#FFFFFF" mask="url(#mask-4)" points="38.3663056 10.0130733 41.283837 10.0130733 41.283837 0.51357111 38.3663056 0.51357111"></polygon>
                <path d="M43.3986308,9.99330299 L46.3161622,9.99330299 L46.3161622,6.68609786 L47.4471099,6.68609786 C50.1758233,6.68609786 51.7925362,5.54580584 51.7925362,3.61861136 C51.7925362,1.47254334 50.2238445,0.495103656 46.880656,0.495103656 L43.3986308,0.495103656 L43.3986308,9.99330299 Z M46.3161622,2.286805 L47.0694739,2.286805 C48.0746519,2.286805 48.8740248,2.60208711 48.8740248,3.57626975 C48.8740248,4.5787887 48.0746519,4.89276799 47.0694739,4.89276799 L46.3161622,4.89276799 L46.3161622,2.286805 Z" id="Fill-12" fill="#FFFFFF" mask="url(#mask-4)"></path>
                <path d="M50.0724308,9.99330299 L53.0321032,9.99330299 L53.8932176,7.97686543 L57.996578,7.97686543 L58.811958,9.99330299 L62.0058561,9.99330299 L57.7950198,0.495103656 L54.2238124,0.495103656 L50.0724308,9.99330299 Z M57.3086012,6.18386127 L54.5681275,6.18386127 L55.9695618,2.45356578 L56.0009225,2.45356578 L57.3086012,6.18386127 Z" id="Fill-13" fill="#FFFFFF" mask="url(#mask-4)"></path>
                <path d="M71.7856788,9.72573661 C69.938987,10.134496 68.5610732,10.1602266 67.5594887,10.1602266 C64.6491442,10.1602266 61.2863552,8.88346436 61.2863552,5.28540496 C61.2863552,1.69907094 64.180366,0.325574379 68.1863774,0.325574379 C68.905715,0.325574379 70.4231188,0.395600882 71.4870982,0.747361916 L71.2548325,2.81949497 C70.3470036,2.3534116 69.2807375,2.20261034 68.5940674,2.20261034 C66.2309029,2.20261034 64.2917621,3.0660534 64.2917621,5.28670778 C64.2917621,7.15234408 65.8078592,8.28514489 67.9354913,8.28514489 C68.3281542,8.28514489 68.7041567,8.23172933 68.9677832,8.12066404 L68.9677832,6.23874251 L67.2641748,6.23874251 L67.2641748,4.44541264 L71.7856788,4.44541264 L71.7856788,9.72573661 Z" id="Fill-14" fill="#FFFFFF" mask="url(#mask-4)"></path>
            </g>
        </g>
    </g>
</svg>