<?xml version="1.0" encoding="UTF-8" standalone="no"?>
<svg width="38px" height="33px" viewBox="0 0 38 33" version="1.1" xmlns="http://www.w3.org/2000/svg" xmlns:xlink="http://www.w3.org/1999/xlink">
    <!-- Generator: Sketch 39.1 (31720) - http://www.bohemiancoding.com/sketch -->
    <title>Fill 117</title>
    <desc>Created with Sketch.</desc>
    <defs></defs>
    <g id="Autoatencion-de-recargas" stroke="none" stroke-width="1" fill="none" fill-rule="evenodd">
        <g id="Compra-tu-bolsa-" transform="translate(-52.000000, -640.000000)" fill="#720184">
            <g id="elige-tu-bolsa" transform="translate(21.000000, 451.000000)">
                <path d="M62.712534,210.345867 C62.2930412,209.930598 60.9824779,210.03899 60.5615774,210.455667 L60.5615774,214.335273 L54.9308007,214.335273 L49.9546019,207.523441 L48.1837226,209.81939 L53.5231066,217.022561 L60.5615774,217.022561 L60.5615774,221.065458 C60.9824779,221.480728 62.2930412,221.29632 62.712534,220.879643 L68.6853804,216.365168 C69.1048732,215.949898 69.1048732,215.27702 68.6853804,214.860342 L62.712534,210.345867 L62.712534,210.345867 Z M60.5615774,196.035248 L60.5615774,199.81913 C60.9824779,200.232992 62.2930412,200.406139 62.712534,199.992277 L68.6853804,195.477802 C69.1048732,195.061124 69.1048732,194.386839 68.6853804,193.971569 L62.712534,189.455686 C62.2930412,189.040416 60.9824779,188.801108 60.5615774,189.216378 L60.5615774,193.21986 L53.5231066,193.21986 L38.0384708,214.335273 L32.4076942,214.335273 C31.6292393,214.335273 31,214.860342 31,215.630351 C31,216.398952 31.6292393,217.150661 32.4076942,217.150661 L39.446165,217.150661 L54.9308007,196.035248 L60.5615774,196.035248 L60.5615774,196.035248 Z M32.4076942,196.035248 L38.0384708,196.035248 L42.9766619,202.796404 L44.7475412,200.500454 C44.7475412,200.500454 39.8037193,193.674545 39.446165,193.21986 L32.4076942,193.21986 C31.6292393,193.21986 31,193.971569 31,194.74017 C31,195.510179 31.6292393,196.035248 32.4076942,196.035248 L32.4076942,196.035248 Z" id="Fill-117"></path>
            </g>
        </g>
    </g>
</svg>