<?xml version="1.0" encoding="UTF-8" standalone="no"?>
<svg width="75px" height="34px" viewBox="0 0 75 34" version="1.1" xmlns="http://www.w3.org/2000/svg" xmlns:xlink="http://www.w3.org/1999/xlink">
    <!-- Generator: Sketch 39.1 (31720) - http://www.bohemiancoding.com/sketch -->
    <title>ico-bolsa-bolsas_datos</title>
    <desc>Created with Sketch.</desc>
    <defs></defs>
    <g id="Autoatencion-de-recargas" stroke="none" stroke-width="1" fill="none" fill-rule="evenodd">
        <g id="Comprar-bolsa-de-datos" transform="translate(-64.000000, -814.000000)" fill="#720184">
            <g id="ico-bolsa-bolsas_datos" transform="translate(64.000000, 814.000000)">
                <path d="M48.8333333,25.5 L27.1666667,25.5 L27.1666667,8.5 C27.1666667,7.327 28.1373333,6.375 29.3333333,6.375 L31.5,6.375 L31.5,12.75 L33.6666667,12.75 L33.6666667,6.375 L42.3333333,6.375 L42.3333333,12.75 L44.5,12.75 L44.5,6.375 L46.6666667,6.375 C47.8626667,6.375 48.8333333,7.327 48.8333333,8.5 L48.8333333,25.5 L48.8333333,25.5 Z M48.8333333,29.75 C48.8333333,30.923 47.8626667,31.875 46.6666667,31.875 L29.3333333,31.875 C28.1373333,31.875 27.1666667,30.923 27.1666667,29.75 L27.1666667,27.625 L48.8333333,27.625 L48.8333333,29.75 L48.8333333,29.75 Z M38,2.125 C40.3930833,2.125 42.3333333,2.7826875 42.3333333,4.25 L33.6666667,4.25 C33.6666667,2.7826875 35.6069167,2.125 38,2.125 L38,2.125 Z M46.6666667,4.25 L44.5,4.25 C44.5,1.9029375 41.5890833,0 38,0 C34.4109167,0 31.5,1.9029375 31.5,4.25 L29.3333333,4.25 C26.94025,4.25 25,6.1529375 25,8.5 L25,29.75 C25,32.0970625 26.94025,34 29.3333333,34 L46.6666667,34 C49.05975,34 51,32.0970625 51,29.75 L51,8.5 C51,6.1529375 49.05975,4.25 46.6666667,4.25 L46.6666667,4.25 Z" id="Fill-93-Copy-2"></path>
                <path d="M17.4166667,27.75 L1.58333333,27.75 L1.58333333,15.25 C1.58333333,14.3875 2.29266667,13.6875 3.16666667,13.6875 L4.75,13.6875 L4.75,18.375 L6.33333333,18.375 L6.33333333,13.6875 L12.6666667,13.6875 L12.6666667,18.375 L14.25,18.375 L14.25,13.6875 L15.8333333,13.6875 C16.7073333,13.6875 17.4166667,14.3875 17.4166667,15.25 L17.4166667,27.75 L17.4166667,27.75 Z M17.4166667,30.875 C17.4166667,31.7375 16.7073333,32.4375 15.8333333,32.4375 L3.16666667,32.4375 C2.29266667,32.4375 1.58333333,31.7375 1.58333333,30.875 L1.58333333,29.3125 L17.4166667,29.3125 L17.4166667,30.875 L17.4166667,30.875 Z M9.5,10.5625 C11.2487917,10.5625 12.6666667,11.0460938 12.6666667,12.125 L6.33333333,12.125 C6.33333333,11.0460938 7.75120833,10.5625 9.5,10.5625 L9.5,10.5625 Z M15.8333333,12.125 L14.25,12.125 C14.25,10.3992187 12.1227917,9 9.5,9 C6.87720833,9 4.75,10.3992187 4.75,12.125 L3.16666667,12.125 C1.417875,12.125 0,13.5242187 0,15.25 L0,30.875 C0,32.6007812 1.417875,34 3.16666667,34 L15.8333333,34 C17.582125,34 19,32.6007812 19,30.875 L19,15.25 C19,13.5242187 17.582125,12.125 15.8333333,12.125 L15.8333333,12.125 Z" id="Fill-93-Copy-5"></path>
                <path d="M73.4166667,27.75 L57.5833333,27.75 L57.5833333,15.25 C57.5833333,14.3875 58.2926667,13.6875 59.1666667,13.6875 L60.75,13.6875 L60.75,18.375 L62.3333333,18.375 L62.3333333,13.6875 L68.6666667,13.6875 L68.6666667,18.375 L70.25,18.375 L70.25,13.6875 L71.8333333,13.6875 C72.7073333,13.6875 73.4166667,14.3875 73.4166667,15.25 L73.4166667,27.75 L73.4166667,27.75 Z M73.4166667,30.875 C73.4166667,31.7375 72.7073333,32.4375 71.8333333,32.4375 L59.1666667,32.4375 C58.2926667,32.4375 57.5833333,31.7375 57.5833333,30.875 L57.5833333,29.3125 L73.4166667,29.3125 L73.4166667,30.875 L73.4166667,30.875 Z M65.5,10.5625 C67.2487917,10.5625 68.6666667,11.0460938 68.6666667,12.125 L62.3333333,12.125 C62.3333333,11.0460938 63.7512083,10.5625 65.5,10.5625 L65.5,10.5625 Z M71.8333333,12.125 L70.25,12.125 C70.25,10.3992187 68.1227917,9 65.5,9 C62.8772083,9 60.75,10.3992187 60.75,12.125 L59.1666667,12.125 C57.417875,12.125 56,13.5242187 56,15.25 L56,30.875 C56,32.6007812 57.417875,34 59.1666667,34 L71.8333333,34 C73.582125,34 75,32.6007812 75,30.875 L75,15.25 C75,13.5242187 73.582125,12.125 71.8333333,12.125 L71.8333333,12.125 Z" id="Fill-93-Copy-6"></path>
            </g>
        </g>
    </g>
</svg>