<?xml version="1.0" encoding="UTF-8" standalone="no"?>
<svg width="40px" height="31px" viewBox="0 0 40 31" version="1.1" xmlns="http://www.w3.org/2000/svg" xmlns:xlink="http://www.w3.org/1999/xlink">
    <!-- Generator: Sketch 39.1 (31720) - http://www.bohemiancoding.com/sketch -->
    <title>Fill 186</title>
    <desc>Created with Sketch.</desc>
    <defs></defs>
    <g id="Autoatencion-de-recargas" stroke="none" stroke-width="1" fill="none" fill-rule="evenodd">
        <g id="Compra-tu-bolsa-" transform="translate(-283.000000, -526.000000)" fill="#720184">
            <g id="elige-tu-bolsa" transform="translate(21.000000, 451.000000)">
                <path d="M299.5,100.581395 C299.5,100.841047 299.45125,101.086628 299.38125,101.320698 L288.25,89.0697674 L299.5,80.1162791 L299.5,100.581395 L299.5,100.581395 Z M266.445,103.070465 L277.725,90.7709302 L282,94.0773256 L286.09,90.7504651 L297.555,103.070465 C297.37625,103.112674 266.62375,103.112674 266.445,103.070465 L266.445,103.070465 Z M264.5,100.581395 L264.5,80.1162791 L275.75,89.0697674 L264.61875,101.320698 C264.54875,101.086628 264.5,100.841047 264.5,100.581395 L264.5,100.581395 Z M298.25,77.5581395 L282,90.3488372 L265.75,77.5581395 L298.25,77.5581395 L298.25,77.5581395 Z M297,75 L267,75 C264.23875,75 262,77.290814 262,80.1162791 L262,100.581395 C262,103.40686 264.23875,105.697674 267,105.697674 L297,105.697674 C299.76125,105.697674 302,103.40686 302,100.581395 L302,80.1162791 C302,77.290814 299.76125,75 297,75 L297,75 Z" id="Fill-186"></path>
            </g>
        </g>
    </g>
</svg>