<?xml version="1.0" encoding="UTF-8" standalone="no"?>
<svg width="32px" height="32px" viewBox="0 0 32 32" version="1.1" xmlns="http://www.w3.org/2000/svg" xmlns:xlink="http://www.w3.org/1999/xlink">
    <!-- Generator: Sketch 39.1 (31720) - http://www.bohemiancoding.com/sketch -->
    <title>Fill 110</title>
    <desc>Created with Sketch.</desc>
    <defs></defs>
    <g id="Autoatencion-de-recargas" stroke="none" stroke-width="1" fill="none" fill-rule="evenodd">
        <g id="Compra-tu-bolsa-" transform="translate(-287.000000, -641.000000)" fill="#720184">
            <path d="M314.596,664.829 C312.681,664.192 310.622,663.716 308.455,663.408 C308.75,661.675 308.907,659.859 308.957,658 L316.962,658 C316.783,660.521 315.936,662.854 314.596,664.829 L314.596,664.829 Z M306.434,670.559 C307.1,668.95 307.645,667.211 308.064,665.379 C309.862,665.645 311.586,666.038 313.219,666.554 C311.415,668.477 309.073,669.892 306.434,670.559 L306.434,670.559 Z M303.971,670.951 C303.649,670.974 303.328,671 303,671 C302.672,671 302.352,670.974 302.029,670.951 C301.178,669.179 300.489,667.207 299.979,665.114 C300.973,665.027 301.98,664.976 303,664.976 C304.02,664.976 305.027,665.027 306.022,665.114 C305.511,667.207 304.822,669.179 303.971,670.951 L303.971,670.951 Z M292.781,666.554 C294.414,666.038 296.138,665.645 297.936,665.379 C298.355,667.211 298.9,668.95 299.566,670.559 C296.927,669.892 294.586,668.477 292.781,666.554 L292.781,666.554 Z M291.404,664.829 C290.064,662.854 289.217,660.521 289.038,658 L297.043,658 C297.093,659.859 297.25,661.675 297.545,663.408 C295.378,663.716 293.319,664.192 291.404,664.829 L291.404,664.829 Z M291.404,649.171 C293.319,649.808 295.378,650.285 297.545,650.592 C297.25,652.325 297.093,654.141 297.043,656 L289.038,656 C289.217,653.479 290.064,651.146 291.404,649.171 L291.404,649.171 Z M299.566,643.441 C298.9,645.05 298.355,646.789 297.936,648.621 C296.138,648.356 294.414,647.962 292.781,647.446 C294.586,645.523 296.927,644.108 299.566,643.441 L299.566,643.441 Z M302.029,643.049 C302.352,643.027 302.672,643 303,643 C303.328,643 303.649,643.027 303.971,643.049 C304.822,644.821 305.511,646.794 306.022,648.886 C305.027,648.973 304.02,649.024 303,649.024 C301.98,649.024 300.973,648.973 299.979,648.886 C300.489,646.794 301.178,644.821 302.029,643.049 L302.029,643.049 Z M306.954,658 C306.9,659.761 306.74,661.493 306.439,663.156 C305.313,663.058 304.168,663 303,663 C301.832,663 300.687,663.058 299.562,663.156 C299.26,661.493 299.1,659.761 299.047,658 L306.954,658 L306.954,658 Z M299.047,656 C299.1,654.239 299.26,652.507 299.562,650.844 C300.687,650.942 301.832,651 303,651 C304.168,651 305.313,650.942 306.438,650.844 C306.74,652.507 306.9,654.239 306.954,656 L299.047,656 L299.047,656 Z M313.219,647.446 C311.586,647.962 309.862,648.356 308.064,648.621 C307.645,646.789 307.1,645.05 306.434,643.441 C309.073,644.108 311.415,645.523 313.219,647.446 L313.219,647.446 Z M314.596,649.171 C315.936,651.146 316.783,653.479 316.962,656 L308.957,656 C308.907,654.141 308.75,652.325 308.455,650.592 C310.622,650.285 312.681,649.808 314.596,649.171 L314.596,649.171 Z M303,641 C294.164,641 287,648.163 287,657 C287,665.837 294.164,673 303,673 C311.836,673 319,665.837 319,657 C319,648.163 311.836,641 303,641 L303,641 Z" id="Fill-110"></path>
        </g>
    </g>
</svg>