<?xml version="1.0" encoding="UTF-8" standalone="no"?>
<svg width="33px" height="32px" viewBox="0 0 33 32" version="1.1" xmlns="http://www.w3.org/2000/svg" xmlns:xlink="http://www.w3.org/1999/xlink">
    <!-- Generator: Sketch 39.1 (31720) - http://www.bohemiancoding.com/sketch -->
    <title>Fill 179 Copy 3</title>
    <desc>Created with Sketch.</desc>
    <defs></defs>
    <g id="Autoatencion-de-recargas" stroke="none" stroke-width="1" fill="none" fill-rule="evenodd">
        <g id="Compra-tu-bolsa-" transform="translate(-171.000000, -522.000000)" fill="#720184">
            <g id="elige-tu-bolsa" transform="translate(21.000000, 451.000000)">
                <path d="M179.630262,79.0142689 C177.876536,82.3463479 173.982233,87.47548 170.722367,90.8581075 C166.964235,94.9226249 158.104825,100.480904 158.104825,100.480904 C157.420872,100.839902 155.522722,100.866724 155.000731,100.345764 L153.111865,98.4620562 C152.721919,97.8100828 152.546546,97.0549491 153.111865,96.5783483 L156.890628,93.751755 C157.530222,93.3195132 158.257503,93.2318269 158.779494,93.751755 L161.107823,96.0728627 C161.655604,95.6880746 170.401538,89.9564861 175.26658,82.0657517 L172.882544,79.6879059 C172.360553,79.1679778 172.449271,78.441729 172.882544,77.8031665 L175.716359,74.0357509 C176.23835,73.3394186 177.084265,73.5147912 177.605224,74.0357509 L179.495122,75.9194587 C180.235813,76.6147594 180.02124,78.2354083 179.630262,79.0142689 L179.630262,79.0142689 Z M181.113708,74.5742479 L178.144753,71.6135461 C177.32566,70.7954846 175.995923,70.7954846 175.175798,71.6135461 L170.722367,77.5349496 C170.04254,78.5366365 169.903273,79.6775899 170.722367,80.4956514 L172.540052,82.3081785 C171.192778,84.1134845 169.575224,86.0817838 167.754444,87.8974058 C165.695363,89.9502965 163.405204,91.8164671 161.346123,93.3494297 L159.589303,91.5987987 C158.77021,90.7807373 157.626161,90.9189721 156.620348,91.5987987 L150.682439,96.0398514 C149.686942,96.7258676 149.862314,98.1824916 150.682439,99.0005531 L153.651394,101.960223 C155.291643,103.596346 157.423967,103.072292 159.589303,101.960223 C159.589303,101.960223 166.143079,98.2918416 171.75397,92.6964248 C177.031653,87.4331842 181.113708,80.4956514 181.113708,80.4956514 C181.96478,78.1611329 182.753957,76.2093393 181.113708,74.5742479 L181.113708,74.5742479 Z" id="Fill-179-Copy-3"></path>
            </g>
        </g>
    </g>
</svg>