<?xml version="1.0" encoding="UTF-8" standalone="no"?>
<svg width="316px" height="52px" viewBox="0 0 316 52" version="1.1" xmlns="http://www.w3.org/2000/svg" xmlns:xlink="http://www.w3.org/1999/xlink">
    <!-- Generator: Sketch 39.1 (31720) - http://www.bohemiancoding.com/sketch -->
    <title>Group 26</title>
    <desc>Created with Sketch.</desc>
    <defs>
        <polygon id="path-1" points="0.0718662294 14.1886804 4.72406479 14.1886804 4.72406479 0.108595956 0.0718662294 0.108595956"></polygon>
        <polygon id="path-3" points="0 14.3922879 73.340449 14.3922879 73.340449 -2.62753338e-05 0 -2.62753338e-05"></polygon>
        <polygon id="path-5" points="0 0.0359921547 0 11.7390259 8.38553035 11.7390259 8.38553035 0.0359921547 0 0.0359921547"></polygon>
        <polygon id="path-7" points="8.7175036 0.0538307484 0.0366371784 0.0538307484 0.0366371784 12.025374 8.7175036 12.025374 8.7175036 0.0538307484"></polygon>
        <polygon id="path-9" points="0.000130669864 10.0968445 8.16177041 10.0968445 8.16177041 0.263267078 0.000130669864 0.263267078"></polygon>
        <polygon id="path-11" points="0 10.1801598 71.7857768 10.1801598 71.7857768 0.32563952 0 0.32563952"></polygon>
        <polygon id="path-13" points="8.87387502 10.0092844 8.87387502 0.0359530192 0.0954954813 0.0359530192 0.0954954813 10.0092844"></polygon>
        <polygon id="path-15" points="14.0237168 13.7200027 0 13.7200027 0 0.124818965 14.0237168 0.124818965"></polygon>
        <polygon id="path-17" points="4.40561483 3.29919279 4.40561483 0.0710809213 0.0226741608 0.0710809213 0.0226741608 3.29919279 4.40561483 3.29919279"></polygon>
        <polygon id="path-19" points="8.18142998e-05 11.6987797 7.24310179 11.6987797 7.24310179 0.254209165 8.18142998e-05 0.254209165 8.18142998e-05 11.6987797"></polygon>
        <polygon id="path-21" points="0 11.7105582 53.7274508 11.7105582 53.7274508 0.265961121 0 0.265961121"></polygon>
        <polygon id="path-23" points="14.6706397 0.0508331918 7.5564597e-05 0.0508331918 7.5564597e-05 14.2921865 14.6706397 14.2921865 14.6706397 0.0508331918"></polygon>
        <polygon id="path-25" points="2.35670864 2.57509162 2.35670864 0.0338740603 0.0502202308 0.0338740603 0.0502202308 2.57509162 2.35670864 2.57509162"></polygon>
        <polygon id="path-27" points="2.22937669e-21 0.0242692649 2.22937669e-21 6.97248326 7.3973704 6.97248326 7.3973704 0.0242692649 0 0.0242692649"></polygon>
        <polygon id="path-29" points="0.0913878587 5.45283062 25.3133968 5.45283062 25.3133968 0.0783008446 0.0913878587 0.0783008446 0.0913878587 5.45283062"></polygon>
        <polygon id="path-31" points="0 17.8804068 67.0414576 17.8804068 67.0414576 0 0 0"></polygon>
    </defs>
    <g id="SP2-Pago-fácil" stroke="none" stroke-width="1" fill="none" fill-rule="evenodd">
        <g id="1-PagoFacil-Correcciones" transform="translate(-30.000000, -1470.000000)">
            <g id="Group-26" transform="translate(30.000000, 1470.000000)">
                <g id="Page-1" transform="translate(0.788187, 0.000000)">
                    <path d="M0,6.11587302 C0,3.46863312 1.7063947,1.09754698 5.22117248,1.09754698 C6.50459213,1.09754698 7.49627758,1.37396349 8.28398627,1.8976309 L7.08806053,3.90480366 C6.56283355,3.59948428 6.03787012,3.38139901 5.17742553,3.38139901 C3.74827056,3.38139901 2.94606739,4.47208813 2.94606739,6.02863891 C2.94606739,7.65770962 3.7045236,8.8358956 5.20667801,8.8358956 C6.25660488,8.8358956 6.8108208,8.45779354 7.26304834,8.15221141 L8.37148017,10.0721501 C7.87550568,10.5085834 6.62133852,11.1339363 5.16293106,11.1339363 C1.63339527,11.1339363 0,8.76311293 0,6.11587302 L0,6.11587302 Z" id="Fill-1" fill="#FFFFFF"></path>
                    <path d="M12.9070114,9.01044265 L12.9070114,7.96310783 L12.7027711,7.96310783 C11.871579,7.96310783 11.3173631,8.22507291 11.3173631,8.79235737 C11.3173631,9.14129381 11.5798448,9.34492765 12.0320723,9.34492765 C12.4840363,9.34492765 12.7320236,9.156008 12.9070114,9.01044265 M8.88176466,9.03960827 C8.88176466,7.20690372 10.6901477,6.45043685 12.7027711,6.45043685 L12.9070114,6.45043685 L12.9070114,6.23235158 C12.9070114,5.82482115 12.7175291,5.60673588 11.9445784,5.60673588 C11.0838703,5.60673588 10.4131715,6.04316917 10.1506898,6.21763739 L9.10049942,4.67580079 C9.58171591,4.25408168 10.6611588,3.61401454 12.2797961,3.61401454 C14.5549011,3.61401454 15.5175976,4.38493284 15.5175976,6.47960247 L15.5175976,8.4723238 C15.5175976,9.62134416 15.634344,10.4214281 15.7508269,10.9595469 L13.1839876,10.9595469 C13.1112517,10.7850787 13.0527467,10.4794966 13.0382523,10.2614113 C12.7320236,10.6395134 12.1048082,11.1340151 11.1276173,11.1340151 C9.88794458,11.1340151 8.88176466,10.4214281 8.88176466,9.03960827" id="Fill-3" fill="#FFFFFF"></path>
                    <g id="Group-7" transform="translate(15.285080, 0.203608)">
                        <mask id="mask-2" fill="white">
                            <use xlink:href="#path-1"></use>
                        </mask>
                        <g id="Clip-6"></g>
                        <path d="M1.71975597,1.53403283 C1.71975597,0.763114526 2.33221331,0.108595956 3.22191038,0.108595956 C4.11160745,0.108595956 4.72406479,0.763114526 4.72406479,1.53403283 C4.72406479,2.30495113 4.11160745,2.97392113 3.22191038,2.97392113 C2.33221331,2.97392113 1.71975597,2.30495113 1.71975597,1.53403283 M0.0718662294,13.9559597 L0.523830232,11.9776898 C0.62581861,12.0068555 0.844816911,12.0796381 1.13628757,12.0796381 C1.73425044,12.0796381 1.89474378,11.8176731 1.89474378,10.6978183 L1.89474378,3.5850854 L4.54907698,3.5850854 L4.54907698,10.9159036 C4.54907698,12.9233391 3.76163182,14.1887592 1.74900845,14.1887592 C0.844816911,14.1887592 0.334347947,14.0431938 0.0718662294,13.9559597" id="Fill-5" fill="#FFFFFF" mask="url(#mask-2)"></path>
                    </g>
                    <path d="M25.1135181,9.01044265 L25.1135181,7.96310783 L24.9092778,7.96310783 C24.0780857,7.96310783 23.5238698,8.22507291 23.5238698,8.79235737 C23.5238698,9.14129381 23.7863515,9.34492765 24.2385791,9.34492765 C24.6905431,9.34492765 24.9385303,9.156008 25.1135181,9.01044265 M21.0882714,9.03960827 C21.0882714,7.20690372 22.8966545,6.45043685 24.9092778,6.45043685 L25.1135181,6.45043685 L25.1135181,6.23235158 C25.1135181,5.82482115 24.9237723,5.60673588 24.1508216,5.60673588 C23.290377,5.60673588 22.6196783,6.04316917 22.356933,6.21763739 L21.3070062,4.67580079 C21.7882226,4.25408168 22.867402,3.61401454 24.4863028,3.61401454 C26.7614079,3.61401454 27.7241044,4.38493284 27.7241044,6.47960247 L27.7241044,8.4723238 C27.7241044,9.62134416 27.8408508,10.4214281 27.9573336,10.9595469 L25.3904943,10.9595469 C25.3177584,10.7850787 25.2592535,10.4794966 25.244759,10.2614113 C24.9385303,10.6395134 24.311315,11.1340151 23.334124,11.1340151 C22.0944513,11.1340151 21.0882714,10.4214281 21.0882714,9.03960827" id="Fill-8" fill="#FFFFFF"></path>
                    <path d="M28.8136934,0.991815033 L31.8490995,0.991815033 L33.5433715,6.26658834 C33.7792361,7.01806289 33.9708267,7.81446827 33.9855847,7.87463878 L34.0151007,7.87463878 C34.0295952,7.81446827 34.2359437,7.00308595 34.4570503,6.26658834 L36.0777959,0.991815033 L38.9068534,0.991815033 L35.2526651,11.0003525 L32.6004402,11.0003525 L28.8136934,0.991815033 Z" id="Fill-10" fill="#FFFFFF"></path>
                    <path d="M43.0913285,6.40185376 C43.0765705,5.72552666 42.8554639,5.24468805 42.2219237,5.24468805 C41.6178995,5.24468805 41.2937504,5.60544838 41.1759498,6.40185376 L43.0913285,6.40185376 Z M38.4204189,7.27340659 C38.4204189,4.80904301 40.1739865,3.41145799 42.2514397,3.41145799 C44.5204834,3.41145799 45.6550053,4.77882638 45.6550053,7.30362322 C45.6550053,7.57399641 45.6405109,7.84463235 45.6109948,8.14495942 L41.2642343,8.14495942 C41.4115509,8.88145703 41.8977746,9.25719431 42.7819374,9.25719431 C43.7543847,9.25719431 44.1963343,9.03175194 44.5795155,8.86648009 L45.3603722,10.4895075 C44.8006221,10.7900973 44.1080498,11.1808115 42.5020623,11.1808115 C39.9528799,11.1808115 38.4204189,9.73803292 38.4204189,7.27340659 L38.4204189,7.27340659 Z" id="Fill-12" fill="#FFFFFF"></path>
                    <path d="M46.4063988,7.31852134 C46.4063988,4.83891806 48.0714183,3.41137917 50.5615687,3.41137917 C51.7403646,3.41137917 52.4474313,3.69672929 52.7863384,3.90719472 L52.0645137,5.69549395 C51.7698806,5.54519904 51.3276674,5.39490413 50.6941272,5.39490413 C49.7807119,5.39490413 49.2059402,6.04127735 49.2059402,7.22839694 C49.2059402,8.44573317 49.7216799,9.16699109 50.7531593,9.16699109 C51.519258,9.16699109 51.9171972,8.94154872 52.1527982,8.83644738 L52.8748865,10.579553 C52.5064634,10.7900185 51.8729231,11.1807327 50.5025367,11.1807327 C48.0419023,11.1807327 46.4063988,9.79812461 46.4063988,7.31852134" id="Fill-14" fill="#FFFFFF"></path>
                    <mask id="mask-4" fill="white">
                        <use xlink:href="#path-3"></use>
                    </mask>
                    <g id="Clip-17"></g>
                    <path d="M53.9207549,11.0004051 L56.6024958,11.0004051 L56.6024958,3.59154913 L53.9207549,3.59154913 L53.9207549,11.0004051 Z M53.7439223,1.4727062 C53.7439223,0.676300822 54.3627045,-2.62753338e-05 55.2616254,-2.62753338e-05 C56.1602827,-2.62753338e-05 56.7790649,0.676300822 56.7790649,1.4727062 C56.7790649,2.26911157 56.1602827,2.96041561 55.2616254,2.96041561 C54.3627045,2.96041561 53.7439223,2.26911157 53.7439223,1.4727062 L53.7439223,1.4727062 Z" id="Fill-16" fill="#FFFFFF" mask="url(#mask-4)"></path>
                    <path d="M58.2523884,3.59162796 L60.8455813,3.59162796 L60.8455813,4.43322691 C61.2730365,3.95238829 61.9508507,3.41137917 63.1001306,3.41137917 C64.7356342,3.41137917 65.3101423,4.46318079 65.3101423,5.87574275 L65.3101423,11.0002211 L62.6579174,11.0002211 L62.6579174,6.44696851 C62.6579174,5.84578886 62.4515689,5.6203465 61.9360927,5.6203465 C61.435111,5.6203465 61.0519299,6.04127735 60.9046134,6.22152614 L60.9046134,11.0002211 L58.2523884,11.0002211 L58.2523884,3.59162796 Z" id="Fill-18" fill="#FFFFFF" mask="url(#mask-4)"></path>
                    <path d="M70.4671175,8.98663719 L70.4671175,7.90461894 L70.2607689,7.90461894 C69.4208801,7.90461894 68.86113,8.17525488 68.86113,8.76119483 C68.86113,9.12195516 69.126247,9.33215783 69.5829547,9.33215783 C70.0396623,9.33215783 70.2902849,9.1369321 70.4671175,8.98663719 M66.4004956,9.01659107 C66.4004956,7.1231905 68.2275897,6.34176207 70.2607689,6.34176207 L70.4671175,6.34176207 L70.4671175,6.1163197 C70.4671175,5.69565161 70.2755269,5.47020924 69.4946702,5.47020924 C68.6252654,5.47020924 67.9474511,5.92083122 67.6823341,6.10134276 L66.6213387,4.50826926 C67.1075623,4.07262422 68.1980737,3.41127407 69.8335773,3.41127407 C72.1321371,3.41127407 73.1045844,4.20767944 73.1045844,6.37171595 L73.1045844,8.43065112 C73.1045844,9.61777072 73.2223849,10.4443927 73.340449,11.0003788 L70.7469926,11.0003788 C70.6734661,10.8198672 70.614434,10.5045632 70.599676,10.2791209 C70.2902849,10.6698351 69.6567447,11.1806276 68.6695394,11.1806276 C67.4169534,11.1806276 66.4004956,10.4443927 66.4004956,9.01659107" id="Fill-19" fill="#FFFFFF" mask="url(#mask-4)"></path>
                </g>
                <g id="Page-1" transform="translate(82.217906, 0.000000)">
                    <g id="Group-3" transform="translate(0.000000, 0.375684)">
                        <mask id="mask-6" fill="white">
                            <use xlink:href="#path-5"></use>
                        </mask>
                        <g id="Clip-2"></g>
                        <path d="M8.16655063,1.58663268 C7.74180177,1.36658518 6.56807049,0.827275523 5.2302121,0.827275523 C4.32184115,0.827275523 3.49129775,1.35026415 3.29586733,2.46166867 C2.8365125,5.05413461 8.45143965,4.81862509 7.81474715,8.42170606 C7.38841877,10.8300594 5.29066486,11.7390259 2.9236736,11.7390259 C1.60319,11.7390259 0.34545666,11.3858332 -2.87186513e-05,11.3006489 L0.00155080718,9.77577845 C0.478998389,10.0778606 1.96590657,10.9483152 3.33736578,10.9483152 C4.41847942,10.9483152 5.55918426,10.5099382 5.83014473,8.97819574 C6.3121873,6.24943492 0.693957496,6.50226764 1.32203441,2.94943825 C1.65028859,1.09814727 3.27849254,0.0359921547 5.69574144,0.0359921547 C6.87894989,0.0359921547 7.95446339,0.255896489 8.38553035,0.339649116 L8.16655063,1.58663268 Z" id="Fill-1" fill="#FFFFFF" mask="url(#mask-6)"></path>
                    </g>
                    <path d="M13.7076565,6.45691237 C13.7760069,6.07107762 14.021695,4.48750872 12.5291866,4.48750872 C11.243309,4.48750872 10.6482585,5.81724274 10.5351071,6.45691237 L13.7076565,6.45691237 Z M14.348226,11.6590243 C14.0013047,11.778855 13.031763,12.1152971 11.8501341,12.1152971 C9.22639811,12.1152971 7.92472523,10.5484788 8.42241946,7.73754015 C8.89283097,5.07621094 10.4017089,3.91441168 12.6996318,3.91441168 C15.6319497,3.91441168 15.5024286,6.00293018 15.3029776,7.13008306 L10.4157811,7.13008306 C10.1175379,8.81458462 10.3985499,11.2051853 12.8157988,11.2051853 C13.5364933,11.2051853 14.1661498,11.0361052 14.4794703,10.918422 L14.348226,11.6590243 Z" id="Fill-4" fill="#FFFFFF"></path>
                    <path d="M16.5708917,6.28945007 C16.7789583,5.10975494 16.55524,4.82399384 15.482024,4.79120863 L15.5408973,4.45304845 L18.7055491,3.91445463 L18.3131087,6.13755001 L18.3467095,6.13755001 C18.7236418,5.36258766 19.5118252,3.91445463 20.883428,3.91445463 C21.1920099,3.91445463 21.5122229,3.94738301 21.7940964,3.99906626 L21.5122229,5.59909935 C21.2523191,5.51434456 20.964271,5.39709088 20.6730639,5.39709088 C18.940324,5.39709088 18.2085728,6.72610907 17.9997882,7.90580419 L17.2877092,11.9293663 L15.5730621,11.9293663 L16.5708917,6.28945007 Z" id="Fill-6" fill="#FFFFFF"></path>
                    <path d="M31.4162089,1.5239399 C31.5167241,0.950986028 32.0796097,0.479680645 32.6801167,0.479680645 C33.2635361,0.479680645 33.6983365,0.93523767 33.5939442,1.5239399 C33.4889775,2.11264213 32.892204,2.58380434 32.2908354,2.58380434 C31.7082775,2.58380434 31.3118166,2.11264213 31.4162089,1.5239399 L31.4162089,1.5239399 Z M30.760562,6.28867697 C30.9694902,5.11055668 30.7464899,4.82322074 29.7047208,4.79043553 L29.7651736,4.45313435 L32.896081,3.91439736 L31.4789591,11.9298817 L29.7635941,11.9298817 L30.760562,6.28867697 Z" id="Fill-8" fill="#FFFFFF"></path>
                    <polygon id="Fill-10" fill="#FFFFFF" points="22.0485006 4.09922581 23.9185156 4.09922581 25.2713077 10.0261916 28.6519238 4.09922581 29.630081 4.09922581 25.175531 11.929309 23.9232542 11.929309 22.0650138 4.10709999"></polygon>
                    <path d="M35.4288219,2.88750425 C35.7231881,1.22018272 35.6729305,1.22018272 34.1640525,0.968209004 L34.2291003,0.597979442 L42.3187136,0.597979442 L41.9301503,3.09108756 L41.4567233,3.09108756 C41.6946573,1.74231235 41.0484877,1.38926281 39.9344912,1.38926281 L38.6154435,1.38926281 C37.7715459,1.38926281 37.539212,1.45655125 37.3970547,2.26530097 L36.8044453,5.61469023 L38.848639,5.61469023 C40.0136111,5.61469023 40.2626018,4.87494694 40.4629144,4.31845726 L40.9354798,4.31845726 L40.3097004,7.85410663 L39.8369913,7.85410663 C39.9972414,6.94614225 39.721686,6.40754843 38.7080612,6.40754843 L36.6645855,6.40754843 L36.0003231,10.1609546 C35.8346165,11.1048539 36.0482832,11.1376391 36.8928988,11.1376391 L38.767078,11.1376391 C39.7288656,11.1376391 40.2446526,10.8011969 40.5782197,9.48778394 L41.0509288,9.48778394 L40.5680246,11.929352 L33.8301982,11.929352 L35.4288219,2.88750425 Z" id="Fill-12" fill="#FFFFFF"></path>
                    <path d="M47.0174871,5.46439363 C46.7890302,5.29531354 46.0793923,4.65578707 45.1200458,4.65578707 C44.5703708,4.65578707 43.8834206,4.85779554 43.755479,5.58093148 C43.4728875,7.18168041 47.2223947,7.21546779 46.7663425,9.79061054 C46.4741302,11.4413247 44.9668318,12.1147817 43.2686979,12.1147817 C42.2229082,12.1147817 41.5046547,11.9126301 41.1277224,11.8125564 L41.3601999,10.4974254 C41.7974414,10.8348698 42.5086588,11.3741794 43.4697285,11.3741794 C44.549119,11.3741794 45.0383412,10.8348698 45.1420155,10.2454517 C45.4348022,8.59545339 41.6977877,8.49366173 42.1076028,6.17034954 C42.3227055,4.9587282 43.3465254,3.91446895 45.3703288,3.91446895 C46.2449554,3.91446895 46.9610549,4.13365744 47.2396258,4.20094588 L47.0174871,5.46439363 Z" id="Fill-14" fill="#FFFFFF"></path>
                    <path d="M51.3362984,11.9800617 C50.9461555,12.047207 50.541079,12.1147817 50.1625671,12.1147817 C48.5169884,12.1147817 47.6000018,11.862808 47.9400307,9.94322644 L48.8531402,4.77404292 L47.5168614,4.77404292 L47.6361873,4.10087223 L48.9739021,4.10087223 L49.2086771,2.76999287 L51.1879666,1.2718946 L50.6878313,4.10087223 L52.934635,4.10087223 L52.8161705,4.77404292 L50.5693668,4.77404292 L49.7024943,9.67235469 C49.4944277,10.8529088 49.4865301,11.3733204 50.8078752,11.3733204 C51.0145059,11.3733204 51.2406653,11.3568562 51.4549064,11.306032 L51.3362984,11.9800617 Z" id="Fill-16" fill="#FFFFFF"></path>
                    <path d="M56.6184769,8.19155097 C55.9974361,8.20801517 53.9765046,8.29319946 53.693913,9.89308939 C53.5573558,10.6664769 53.8557426,11.2052139 54.4901377,11.2052139 C55.4848081,11.2052139 56.2431241,10.3125684 56.4455906,9.16823546 L56.6184769,8.19155097 Z M56.1324137,10.9357738 C55.7610816,11.2896823 55.032633,12.1147531 53.7112878,12.1147531 C52.375009,12.1147531 51.5812254,11.1724287 51.7571272,10.1782778 C52.1762759,7.80471405 55.6212217,7.61845394 56.7244487,7.58566872 L56.8768012,6.72609475 C57.064334,5.6653713 57.2731186,4.48753735 56.191287,4.48753735 C55.0614952,4.48753735 54.8196842,5.464365 54.6878656,6.20410829 L52.6466874,6.20410829 C53.0329533,5.09327644 53.8069209,3.91444031 56.2775865,3.91444031 C58.7130718,3.91444031 58.8717423,5.14352801 58.5772325,6.80999054 L57.6727386,11.9299247 L55.956512,11.9299247 L56.1324137,10.9357738 Z" id="Fill-18" fill="#FFFFFF"></path>
                    <g id="Group-22" transform="translate(58.729642, 0.089350)">
                        <mask id="mask-8" fill="white">
                            <use xlink:href="#path-7"></use>
                        </mask>
                        <g id="Clip-21"></g>
                        <path d="M5.6996041,7.42742636 C5.86531072,6.48495877 5.98693421,4.73545944 4.3578687,4.73545944 C2.77992239,4.73545944 2.28380769,6.67121888 2.0747359,7.84848017 C1.84556106,9.14714698 1.63447898,11.1164075 3.24688767,11.1164075 C4.8924664,11.1164075 5.41931006,9.0117111 5.57798061,8.11863608 L5.6996041,7.42742636 Z M5.08574293,10.8966463 C4.58560761,11.3006632 3.75420265,12.025374 2.5200186,12.025374 C0.292025608,12.025374 -0.226202459,10.1898314 0.147427198,8.0848487 C0.525077466,5.94636495 1.77491318,3.82506123 4.03923526,3.82506123 C5.44443888,3.82506123 5.85109499,4.53359414 6.07811593,5.08850898 L6.11415784,5.08850898 L6.59777993,2.34256814 C6.80900561,1.14798366 6.58672325,0.862508893 5.58343716,0.811541483 L5.64317195,0.474097137 L8.7175036,0.053759165 L6.63382184,11.8389707 L4.91917475,11.8389707 L5.08574293,10.8966463 Z" id="Fill-20" fill="#FFFFFF" mask="url(#mask-8)"></path>
                    </g>
                    <g id="Group-25" transform="translate(66.340085, 3.811689)" fill="#FFFFFF">
                        <path d="M3.29985922,7.72999526 C4.9806183,7.72999526 5.44241422,5.8950253 5.73907789,4.21138275 C6.01319742,2.66246023 6.2094894,0.675733376 4.54725385,0.675733376 C2.84840202,0.675733376 2.36635945,2.72817383 2.10415816,4.21138275 C1.85602901,5.6088347 1.60086379,7.72999526 3.29985922,7.72999526 M0.216768382,4.21138275 C0.714462613,1.39972831 2.14422068,0.102779506 4.64791272,0.102779506 C7.13422998,0.102779506 8.05523714,1.78742423 7.62718564,4.21138275 C7.14054809,6.95660775 5.73606243,8.30309229 3.19862597,8.30309229 C0.43660966,8.30309229 -0.199364879,6.56848233 0.216768382,4.21138275" id="Fill-23"></path>
                    </g>
                </g>
                <g id="Page-1" transform="translate(167.553939, 1.359623)">
                    <g id="Group-3" transform="translate(0.000000, 0.083315)">
                        <mask id="mask-10" fill="white">
                            <use xlink:href="#path-9"></use>
                        </mask>
                        <g id="Clip-2"></g>
                        <path d="M0.362086195,7.59357619 C1.11082452,7.94957138 2.15945018,8.22186048 3.36161294,8.22186048 C4.28348883,8.22186048 5.1566902,8.05705392 5.1566902,7.29457931 C5.1566902,5.52111743 0.000130669864,6.63893582 0.000130669864,3.17539245 C0.000130669864,0.888945732 2.56714016,0.263267078 4.75096027,0.263267078 C5.79860591,0.263267078 6.82959114,0.398760217 7.56558915,0.617308045 L7.3780779,2.57479306 C6.62803288,2.27481907 5.7845589,2.13802311 4.95382524,2.13802311 C4.22142065,2.13802311 3.00423086,2.19404431 3.00423086,3.02589402 C3.00423086,4.56647706 8.16177041,3.52943342 8.16177041,6.9659433 C8.16177041,9.42989907 5.7845589,10.0969422 3.36161294,10.0969422 C2.34696144,10.0969422 1.08044378,9.96242619 0.110220031,9.69013709 L0.362086195,7.59357619 Z" id="Fill-1" fill="#FFFFFF" mask="url(#mask-10)"></path>
                    </g>
                    <polygon id="Fill-4" fill="#FFFFFF" points="8.78052489 0.513701392 16.4913536 0.513701392 16.4913536 2.30768267 11.6990363 2.30768267 11.6990363 4.26809902 16.2244604 4.26809902 16.2244604 6.06110318 11.6990363 6.06110318 11.6990363 8.21987368 16.6625311 8.21987368 16.6625311 10.0132035 8.78052489 10.0132035"></polygon>
                    <path d="M17.8634852,10.0130733 L20.7833033,10.0130733 L20.7833033,6.25834993 L21.3912448,6.25834993 C22.4738447,6.25834993 22.8498472,6.66613216 23.4453751,8.29954104 L24.0696504,10.0130733 L27.1090314,10.0130733 L26.044072,7.42795537 C25.5040788,6.27007529 25.4429907,5.54961658 24.4985742,5.33237157 L24.4985742,5.3063152 C25.9127488,5.02132362 26.6030124,4.17937707 26.6030124,2.90717467 C26.6030124,1.27409149 25.0176603,0.51357111 23.0726393,0.51357111 L17.8634852,0.51357111 L17.8634852,10.0130733 Z M20.7833033,2.30787809 L21.5493554,2.30787809 C22.6636427,2.30787809 23.6831943,2.47138183 23.6831943,3.35925274 C23.6831943,4.43603235 22.4914851,4.46436865 21.5493554,4.46436865 L20.7833033,4.46436865 L20.7833033,2.30787809 Z" id="Fill-6" fill="#FFFFFF"></path>
                    <polygon id="Fill-8" fill="#FFFFFF" points="26.6978787 0.513701392 29.7980213 0.513701392 32.2245606 7.9700582 32.2585348 7.9700582 34.7108815 0.513701392 37.7032214 0.513701392 33.9752101 10.0132035 30.3697019 10.0132035"></polygon>
                    <mask id="mask-12" fill="white">
                        <use xlink:href="#path-11"></use>
                    </mask>
                    <g id="Clip-11"></g>
                    <polygon id="Fill-10" fill="#FFFFFF" mask="url(#mask-12)" points="38.3663056 10.0130733 41.283837 10.0130733 41.283837 0.51357111 38.3663056 0.51357111"></polygon>
                    <path d="M43.3986308,9.99330299 L46.3161622,9.99330299 L46.3161622,6.68609786 L47.4471099,6.68609786 C50.1758233,6.68609786 51.7925362,5.54580584 51.7925362,3.61861136 C51.7925362,1.47254334 50.2238445,0.495103656 46.880656,0.495103656 L43.3986308,0.495103656 L43.3986308,9.99330299 Z M46.3161622,2.286805 L47.0694739,2.286805 C48.0746519,2.286805 48.8740248,2.60208711 48.8740248,3.57626975 C48.8740248,4.5787887 48.0746519,4.89276799 47.0694739,4.89276799 L46.3161622,4.89276799 L46.3161622,2.286805 Z" id="Fill-12" fill="#FFFFFF" mask="url(#mask-12)"></path>
                    <path d="M50.0724308,9.99330299 L53.0321032,9.99330299 L53.8932176,7.97686543 L57.996578,7.97686543 L58.811958,9.99330299 L62.0058561,9.99330299 L57.7950198,0.495103656 L54.2238124,0.495103656 L50.0724308,9.99330299 Z M57.3086012,6.18386127 L54.5681275,6.18386127 L55.9695618,2.45356578 L56.0009225,2.45356578 L57.3086012,6.18386127 Z" id="Fill-13" fill="#FFFFFF" mask="url(#mask-12)"></path>
                    <path d="M71.7856788,9.72573661 C69.938987,10.134496 68.5610732,10.1602266 67.5594887,10.1602266 C64.6491442,10.1602266 61.2863552,8.88346436 61.2863552,5.28540496 C61.2863552,1.69907094 64.180366,0.325574379 68.1863774,0.325574379 C68.905715,0.325574379 70.4231188,0.395600882 71.4870982,0.747361916 L71.2548325,2.81949497 C70.3470036,2.3534116 69.2807375,2.20261034 68.5940674,2.20261034 C66.2309029,2.20261034 64.2917621,3.0660534 64.2917621,5.28670778 C64.2917621,7.15234408 65.8078592,8.28514489 67.9354913,8.28514489 C68.3281542,8.28514489 68.7041567,8.23172933 68.9677832,8.12066404 L68.9677832,6.23874251 L67.2641748,6.23874251 L67.2641748,4.44541264 L71.7856788,4.44541264 L71.7856788,9.72573661 Z" id="Fill-14" fill="#FFFFFF" mask="url(#mask-12)"></path>
                </g>
                <g id="Group-20" transform="translate(0.000000, 34.000000)">
                    <g id="Page-1" transform="translate(239.300971, 1.000000)">
                        <g id="Group-3" transform="translate(66.802452, 1.858796)">
                            <mask id="mask-14" fill="white">
                                <use xlink:href="#path-13"></use>
                            </mask>
                            <g id="Clip-2"></g>
                            <path d="M8.74579742,7.33069665 L8.74579742,7.27614724 C8.95926008,6.99662285 8.8999178,6.60138759 8.61337936,6.39327333 C8.32667137,6.18515907 7.92127883,6.2430145 7.70781617,6.5225389 C7.65729045,6.58865939 7.62524562,6.65246567 7.60286511,6.73197556 C7.3075101,7.84957723 6.39940367,8.64219667 5.21934004,8.80501839 L5.1903471,8.80501839 C4.05165352,8.81063863 3.07352319,8.46548965 2.21255148,7.75370252 C1.3437805,6.68767483 1.0457127,5.43386494 1.3447978,4.10368588 C1.48433693,2.81747695 2.28834005,1.79227867 3.52113353,1.32480677 C4.78275041,0.859153184 6.11913855,1.14628143 7.06183306,2.08420066 C7.23273883,2.21148261 7.35108429,2.357113 7.43619807,2.54555641 C7.59879592,2.8242543 7.96247932,2.92161673 8.24833956,2.76309284 C8.5341998,2.60456896 8.63423393,2.2499978 8.47163609,1.97129991 C8.4277228,1.89625315 8.37651889,1.84021603 8.3047995,1.78930325 C7.62846706,0.778651481 6.59387679,0.165218587 5.33548136,0.0359530192 L4.14541432,0.0359530192 C2.13201553,0.207866307 0.556054119,1.62433261 0.217124925,3.56695276 C0.216277179,3.57769734 0.215598981,3.59026024 0.214751234,3.60513735 C0.214751234,3.60513735 0.213394839,3.63290796 0.210851599,3.68134122 C-0.0219396887,5.02904221 0.0950493778,6.22698028 0.585047062,7.50608126 C1.14354269,8.673108 2.09691881,9.45828888 3.36175712,9.7945116 C4.83615846,10.244131 6.30733836,9.98245911 7.51317349,9.0597476 C8.06929543,8.54863617 8.44756008,8.0186804 8.74579742,7.33268026 L8.74579742,7.33069665 Z" id="Fill-1" fill="#FFFFFF" mask="url(#mask-14)"></path>
                        </g>
                        <path d="M28.32758,5.47018162 C28.5098455,4.78170197 29.0617287,4.29786525 29.7831613,4.19372547 C30.75061,4.05421122 31.6510867,4.7056634 31.7941864,5.64903756 L31.7941864,11.1993572 C31.825553,11.7547694 32.3126684,12.1802548 32.8823543,12.149674 C33.4038881,12.1217381 33.8150454,11.7298089 33.8553981,11.2220035 L33.8553981,5.4007551 C33.4045663,3.36275614 31.3442024,2.06695974 29.2538282,2.50666103 C27.7370395,2.82552712 26.6266607,3.90147288 26.2902747,5.37827414 C26.2868837,7.05128797 26.2777281,11.0429823 26.2692506,11.377552 C26.4308311,11.9271786 27.0188284,12.2450529 27.5824105,12.0876861 C27.9693221,11.9795791 28.2421271,11.6955915 28.32758,11.312258 L28.32758,5.47018162 Z" id="Fill-4" fill="#FFFFFF"></path>
                        <path d="M41.0696561,5.70228109 C41.0772858,5.62227529 41.134763,5.55929552 41.2154685,5.5426001 C41.3155027,5.52193744 41.4136717,5.58409071 41.435035,5.68161844 C41.6685045,6.17801806 43.6803773,10.913072 43.929954,11.4479868 C44.0318531,11.764704 44.378073,11.9409151 44.7029296,11.8414038 C44.9053715,11.7794158 45.0493189,11.6365955 45.109509,11.4380687 C45.5718701,10.3565027 47.8200948,5.36589307 47.8623126,5.36589307 L47.8716378,5.36589307 C47.9138556,5.36589307 47.9182638,5.37630705 47.9169074,5.46986755 L47.9108037,11.1990432 C47.9108037,11.2028451 47.9106341,11.2064817 47.9106341,11.209953 C47.8840149,11.5372495 48.1346088,11.8235512 48.4703166,11.8495035 C48.8060244,11.8754558 49.0996839,11.6311406 49.1263031,11.3038441 C49.1285073,11.2760735 49.1288464,11.2522702 49.1273204,11.2244995 C49.1281682,10.423615 49.1185038,3.77833999 49.112061,3.30227242 C49.1156215,2.87877065 48.7833047,2.53262986 48.3489192,2.52915853 C47.9757411,2.52618311 47.6615661,2.76702701 47.5766219,3.12110226 C47.2807582,3.84115446 44.9979455,8.92218391 44.5988262,9.53479029 C44.58238,9.56107319 44.562034,9.57958693 44.5342279,9.59413344 C44.4519965,9.63661586 44.3499278,9.60620043 44.3063536,9.52602933 C44.069154,9.00896706 41.7000406,3.84561759 41.3099075,3.08671961 C41.2219114,2.6985923 40.8278787,2.45345056 40.4297767,2.53924191 C40.0745708,2.61577638 39.8341498,2.92241018 39.8516134,3.27665073 L39.8516134,11.2671473 C39.7941361,11.5926254 40.0181109,11.9020693 40.3521231,11.9581064 C40.6859658,12.0141436 41.0033623,11.7957806 41.0608395,11.4703025 C41.067791,11.4309608 41.0705038,11.3972393 41.0696561,11.3574017 L41.0696561,5.70228109 Z" id="Fill-6" fill="#FFFFFF"></path>
                        <path d="M24.7672975,3.41532194 C24.6269106,2.85875267 24.0502732,2.51856272 23.47957,2.65543215 C23.0921497,2.74833144 22.8100195,3.01727656 22.7060858,3.39267567 L22.7060858,8.82414374 L22.7060858,8.83025989 C22.7079508,8.85207965 22.7093072,8.872577 22.710155,8.89274376 C22.6798056,9.7795849 21.9888919,10.4912067 21.0823114,10.5693942 C20.0997728,10.6541937 19.2326973,9.94620854 19.1457185,8.98828787 L19.1457185,3.57318462 C19.1119782,3.01694595 18.6219805,2.59278298 18.0514469,2.62567792 C17.540086,2.65526684 17.1365585,3.03165776 17.08332,3.52838798 C17.0733165,5.0263478 17.0597526,7.55942397 17.0695865,8.69504348 C17.0075314,10.2211045 17.937001,11.5440103 19.4190321,12.0385916 C19.4246272,12.0422282 19.4263227,12.0481791 19.4268314,12.0580972 C20.4131001,12.1347969 21.2499958,12.153476 22.2384686,12.1209116 C23.5360299,11.6491419 24.4268423,10.6804766 24.7672975,9.37178674 L24.7672975,3.41532194 Z" id="Fill-8" fill="#FFFFFF"></path>
                        <path d="M38.0715315,3.55068712 C37.9952343,3.02106195 37.493029,2.65194429 36.9496233,2.72616455 C36.5028607,2.787326 36.1668138,3.11511836 36.1040806,3.55068712 L36.1040806,11.4024959 C36.2458239,11.9377413 36.8058454,12.2595828 37.3548463,12.121391 C37.7024225,12.0337813 37.9574248,11.8021943 38.0715315,11.4701041 L38.0715315,3.55068712 Z" id="Fill-10" fill="#FFFFFF"></path>
                        <path d="M65.2402924,4.46690229 C65.2467352,4.90792599 65.242327,5.28034968 65.2255416,5.72104278 C65.108722,6.17314167 64.6824749,6.48093257 64.1970551,6.45117835 C63.5697224,6.45266606 60.8289568,6.45911281 60.7513032,6.45927811 C60.6924696,6.47481643 60.6394006,6.47680004 60.5795497,6.46572486 C60.3725299,6.42704437 60.2368904,6.23198891 60.276565,6.0301561 L60.276565,3.89958844 C60.3526926,3.41757003 60.6505909,3.36087171 60.9932501,3.35591267 C61.0057968,3.35624327 63.7814896,3.35624327 63.8939008,3.35624327 C64.571081,3.34797821 65.1385627,3.82090505 65.2402924,4.46690229 M60.276565,8.26965727 C60.2485893,7.96798251 60.4612042,7.6995333 60.7675799,7.64944702 C61.1282114,7.64944702 63.901361,7.64828992 63.9417137,7.64729811 C64.5922747,7.63175979 65.132459,8.13311845 65.1483966,8.767214 C65.1483966,8.85879088 65.1592478,11.0782906 65.1667079,11.2992984 C65.1833238,11.6226276 65.4078071,11.8717365 65.7394457,11.8553717 C66.054638,11.8399987 66.2725089,11.6221317 66.2813255,11.3145061 C66.2836992,11.2645851 66.2726785,8.57744817 66.2726785,8.42520573 C66.210793,7.74218102 65.9473132,7.35041709 65.443243,7.19139729 C65.431205,7.18825657 65.4295095,7.1789997 65.4295095,7.1520556 L65.4295095,7.07089269 C65.4295095,7.04973413 65.4300181,7.03601413 65.4322222,7.02708786 C66.0539598,6.67284731 66.4183214,6.09346647 66.4602001,5.39258922 L66.4602001,4.27283864 C66.24199,3.17507312 65.4052639,2.36873368 64.2767433,2.16871918 L59.8104737,2.16871918 C59.4676449,2.10144158 59.1338022,2.3176556 59.0647956,2.6517294 C59.0495361,2.72512315 59.050723,11.0267166 59.0624219,11.2554935 C59.0447888,11.5821288 59.1480443,11.7327182 59.4788352,11.8310724 C59.8097955,11.9294267 60.1597454,11.7477606 60.2606273,11.4250926 C60.2918244,11.3250854 60.276565,8.86870896 60.276565,8.26965727" id="Fill-12" fill="#FFFFFF"></path>
                        <path d="M52.9275831,7.92345036 C52.8660367,7.92874 52.8119504,7.91518529 52.7605769,7.88146384 C52.7342968,7.86460312 52.7063211,7.84675058 52.6944527,7.81997178 C52.6547781,7.73054381 52.6515567,7.61036981 52.6936049,7.5019322 C52.8307704,7.09115862 53.8239906,4.83314371 53.8711253,4.72189598 C53.8967273,4.66040392 53.9452184,4.61841741 54.010834,4.60073017 C54.1235843,4.57048005 54.2402343,4.63494753 54.2712618,4.74487285 C54.410801,5.06654906 55.4981211,7.595658 55.4981211,7.595658 L55.4981211,7.5959886 C55.5140587,7.62574283 55.5220276,7.65367874 55.5238926,7.68690429 C55.5311832,7.81054961 55.4343705,7.9163424 55.3077172,7.92345036 L55.2977137,7.92345036 L52.9275831,7.92345036 Z M50.8136415,11.46536 L51.9523351,9.11097445 L56.1108725,9.11097445 L56.115959,9.12221493 L57.2877147,11.5579287 C57.2892407,11.5595817 57.2909362,11.5614 57.2924621,11.563053 C57.4040256,11.8272044 57.7141314,11.9529986 57.9850713,11.8442304 C58.2558416,11.7354622 58.3850383,11.4331262 58.2734748,11.1689749 C58.2716097,11.164677 58.2700838,11.1610404 58.2680492,11.1569079 C58.2151498,10.8340746 57.4009737,8.97228671 57.4009737,8.97228671 C56.4067362,6.6607142 54.7671938,2.77084547 54.7597336,2.75299294 C54.6908965,2.41313359 54.352476,2.19212584 54.0038825,2.25923814 C53.7568491,2.3068449 53.5727184,2.47446035 53.5072724,2.71150233 C53.4757362,2.78307776 50.1898694,9.94144787 49.675287,11.0626862 C49.5325265,11.3316313 49.6403599,11.6627297 49.9163862,11.8019133 C49.9284242,11.8080294 49.9387668,11.8128232 49.9511439,11.8181128 C50.0079429,11.8442304 50.069998,11.8622483 50.1357831,11.8701827 C50.4070621,11.9029124 50.6566388,11.7647205 50.7666763,11.5205706 C50.7871918,11.5020569 50.803299,11.4835431 50.8136415,11.46536 L50.8136415,11.46536 Z" id="Fill-14" fill="#FFFFFF"></path>
                        <g id="Group-18" transform="translate(0.000000, 0.040482)">
                            <mask id="mask-16" fill="white">
                                <use xlink:href="#path-15"></use>
                            </mask>
                            <g id="Clip-17"></g>
                            <path d="M11.6822399,10.921304 C10.9316449,10.9226264 10.2817621,10.6290514 9.81092353,10.0794248 C9.53201481,9.74468981 9.36246544,9.40681408 9.26293996,8.98727953 C9.26124447,8.94033398 9.22072217,8.90363711 9.17240059,8.90545542 C9.15188512,8.90628193 9.13442154,8.91289398 9.11865344,8.92595277 C9.10135941,8.95405398 9.08525222,8.98165929 9.06812773,9.01290123 C9.01658472,9.11803281 8.96232892,9.2101056 8.89281368,9.31126996 C8.41281941,10.1505043 7.70274664,10.715504 6.75598295,11.0113932 C6.5528628,11.0540409 6.36737579,11.0718934 6.15272628,11.0704057 C4.59371981,11.0593306 3.33905446,9.81808356 3.35058382,8.29813867 C3.15051556,6.86745646 3.46875973,4.15403664 3.47164207,4.1348617 C3.52301553,3.79996139 3.84532889,3.54308326 4.20172166,3.5887064 C4.55794489,3.63449485 4.80870842,3.95303033 4.76191279,4.30049354 C4.75750451,5.06005272 4.70579195,5.81614059 4.6778163,6.27700044 C4.67696855,6.29253875 4.67289937,6.82976778 4.67527306,7.30897607 C4.57405208,8.2348283 4.92773207,9.07174847 5.66696733,9.65724545 C6.50267619,10.1746383 7.60271251,9.95478768 8.16324273,9.16382126 C8.81465142,8.09432225 9.10576769,7.0325924 9.08864321,5.78886588 C9.09729022,5.68274249 9.11594065,5.45049425 9.13069145,5.26717517 C9.1164493,5.18320215 9.11899254,5.10964309 9.13866027,5.02666187 C9.21800938,4.69440639 9.55863406,4.48777984 9.89959785,4.56514082 C10.2403921,4.6425018 10.4523288,4.97459198 10.3729797,5.30684747 C10.3633154,5.54603836 10.2980389,7.15524591 10.2980389,7.15524591 C10.2990562,7.17690038 10.2990562,7.22417653 10.2978693,7.24368208 C10.2961738,7.27541991 10.2773539,8.2219348 10.334492,8.63436139 C10.4472423,9.08745208 10.647141,9.44780878 10.9742018,9.78766813 C10.9764059,9.78998234 10.9784405,9.79213126 10.9806446,9.79444548 C11.4979398,10.2477015 12.1566391,10.4007704 12.8248332,10.2242287 C13.2768518,10.1551328 13.6478258,10.0113207 14.0237168,9.76006282 L14.0237168,3.70441727 C14.0237168,1.72741447 12.365863,0.124818965 10.320928,0.124818965 L3.70290741,0.124818965 C1.65780289,0.124818965 -5.08648118e-05,1.72741447 -5.08648118e-05,3.70441727 L-5.08648118e-05,10.140421 C-5.08648118e-05,12.1174238 1.65780289,13.7200193 3.70290741,13.7200193 L10.320928,13.7200193 C12.3394133,13.7200193 13.9794644,12.1584185 14.0216822,10.2169554 C13.3261907,10.7439358 12.5472808,10.9791595 11.6822399,10.921304" id="Fill-16" fill="#FFFFFF" mask="url(#mask-16)"></path>
                        </g>
                    </g>
                    <g id="Page-1" transform="translate(119.650485, 0.000000)">
                        <path d="M2.47970195,1.80356048 L0.122533959,10.411324 C0.122533959,10.411324 -0.764703774,12.8283725 2.23630441,12.8283725 L4.63702147,12.8283725 L5.15901374,10.8183094 L2.98424477,10.8183094 C2.98424477,10.8183094 2.49744969,10.9455378 2.72324863,10.0805302 C2.94964414,9.21552259 5.03731497,1.80356048 5.03731497,1.80356048 L2.47970195,1.80356048 Z" id="Fill-1" fill="#FFFFFF"></path>
                        <polygon id="Fill-3" fill="#FFFFFF" points="6.51598487 4.89039733 6.06364128 6.55250893 7.33372306 6.55250893 5.78534482 12.8282852 8.20351134 12.8282852 10.0998347 4.89039733"></polygon>
                        <path d="M10.5347289,2.8888404 C10.5347289,3.55391769 9.85703374,4.09336603 9.02095125,4.09336603 C8.18531618,4.09336603 7.50762106,3.55391769 7.50762106,2.8888404 C7.50762106,2.22376312 8.18531618,1.68475098 9.02095125,1.68475098 C9.85703374,1.68475098 10.5347289,2.22376312 10.5347289,2.8888404" id="Fill-5" fill="#FFFFFF"></path>
                        <path d="M20.9208689,1.80356048 L19.1114945,8.99494492 C19.1114945,8.99494492 18.2417062,12.8283725 13.6313213,12.8283725 C13.6313213,12.8283725 9.76917498,13.0730872 9.76917498,9.67354477 C9.76917498,6.27385696 13.5269228,3.58446704 17.7371634,5.22956639 L18.663476,1.80356048 L20.9208689,1.80356048 Z M17.2804947,6.95129357 C17.2804947,6.95129357 16.1975845,5.76814231 14.2402626,6.53136721 C12.2830898,7.29473751 12.2308906,9.12653542 12.2308906,9.48277489 C12.2308906,9.83886896 12.2699654,11.4416558 14.3185614,11.2889817 C14.3185614,11.2889817 15.8843891,11.3017773 16.4063814,9.88976031 C16.9282245,8.47774337 17.1892206,7.06572642 17.2804947,6.95129357 L17.2804947,6.95129357 Z" id="Fill-7" fill="#FFFFFF"></path>
                        <path d="M27.196961,10.5384942 L26.9359649,12.433979 C26.9359649,12.433979 24.3264509,13.2480953 22.2126805,12.5229662 C20.09891,11.7978371 19.6159926,10.2841828 19.8769887,8.60491359 C20.1378357,6.92578974 21.7558626,4.87734006 25.7616314,4.67377465 C25.7616314,4.67377465 29.4673291,4.52110059 29.4673291,6.69677865 C29.4673291,8.87172968 26.8446908,9.29180145 26.0356028,9.44447551 C25.2266639,9.59714957 23.3215412,9.6095089 22.3038054,9.31739253 C22.3038054,9.31739253 22.0038835,10.9328295 23.7913342,11.1872863 C25.5789341,11.441743 26.9881641,10.7294095 27.196961,10.5384942 M25.4746848,7.96891707 C26.9489401,7.79079734 27.157737,7.10390947 27.1708614,7.02757244 C27.1838366,6.95123541 27.2099362,6.12388741 25.4746848,6.16256484 C23.739135,6.20022444 22.7735984,7.89258004 22.7735984,7.89258004 C22.9955197,8.00657668 24.0001312,8.14703681 25.4746848,7.96891707" id="Fill-9" fill="#FFFFFF"></path>
                        <path d="M30.6546826,4.87334146 L28.714661,12.8282416 L31.1068771,12.8282416 C31.1068771,12.8282416 31.4375219,10.0805447 32.0639126,8.55409494 C32.6901542,7.02749974 33.7861889,5.42471292 36.3305284,6.69685135 L37.0089692,4.87334146 C37.0089692,4.87334146 34.7909494,4.27980287 32.9511504,5.47560427 L33.0466004,4.87334146 L30.6546826,4.87334146 Z" id="Fill-11" fill="#FFFFFF"></path>
                        <path d="M45.5638559,4.62750714 C45.5638559,4.62750714 46.1501278,4.65222579 46.2011339,4.15552619 C46.2519909,3.65853577 46.5067231,0.549801101 46.5067231,0.549801101 C46.5067231,0.549801101 46.236182,2.90807739e-05 45.5638559,2.90807739e-05 C44.891679,2.90807739e-05 44.5857915,0.531044002 44.5857915,0.531044002 L44.901224,4.1183028 C44.901224,4.1183028 44.859912,4.62459906 45.5638559,4.62750714" id="Fill-13" fill="#FFFFFF"></path>
                        <path d="M45.5638559,9.09367414 C45.5638559,9.09367414 46.1501278,9.06895549 46.2011339,9.5659459 C46.2519909,10.0626455 46.5067231,13.1718164 46.5067231,13.1718164 C46.5067231,13.1718164 46.236182,13.721443 45.5638559,13.721443 C44.891679,13.721443 44.5857915,13.1904281 44.5857915,13.1904281 L44.901224,9.60316929 C44.901224,9.60316929 44.859912,9.09687303 45.5638559,9.09367414" id="Fill-15" fill="#FFFFFF"></path>
                        <g id="Group-19" transform="translate(47.426727, 2.816168)">
                            <mask id="mask-18" fill="white">
                                <use xlink:href="#path-17"></use>
                            </mask>
                            <g id="Clip-18"></g>
                            <path d="M0.15210855,2.94892128 C0.15210855,2.94892128 0.423842816,3.45579916 0.890653054,3.25005269 C1.35716501,3.04387 4.24452801,1.70062908 4.24452801,1.70062908 C4.24452801,1.70062908 4.59664909,1.1972409 4.25974036,0.630020414 C3.92283163,0.0626545261 3.29837972,0.0710879504 3.29837972,0.0710879504 L0.272166774,2.13451422 C0.272166774,2.13451422 -0.197626277,2.35349245 0.15210855,2.94892128" id="Fill-17" fill="#FFFFFF" mask="url(#mask-18)"></path>
                        </g>
                        <path d="M47.5573295,8.0134252 C47.5573295,8.0134252 47.2432393,8.49660225 47.6597891,8.78740998 C48.076339,9.07792691 50.7143388,10.842112 50.7143388,10.842112 C50.7143388,10.842112 51.3378959,10.8873326 51.6727166,10.3192397 C52.0078357,9.750856 51.687929,9.22783829 51.687929,9.22783829 L48.3403179,7.70691385 C48.3403179,7.70691385 47.9106437,7.42003202 47.5573295,8.0134252" id="Fill-20" fill="#FFFFFF"></path>
                        <path d="M43.5178102,5.76508883 C43.5178102,5.76508883 43.2463742,6.27196671 42.779564,6.06622024 C42.313052,5.86003755 39.425689,4.51679663 39.425689,4.51679663 C39.425689,4.51679663 39.073568,4.01340845 39.4104767,3.44618796 C39.7470871,2.87882208 40.3718373,2.8872555 40.3718373,2.8872555 L43.3980503,4.95068177 C43.3980503,4.95068177 43.8678433,5.16965999 43.5178102,5.76508883" id="Fill-22" fill="#FFFFFF"></path>
                        <path d="M43.5396444,8.0134252 C43.5396444,8.0134252 43.8537346,8.49660225 43.4371848,8.78740998 C43.0206349,9.07792691 40.3826351,10.842112 40.3826351,10.842112 C40.3826351,10.842112 39.7589289,10.8873326 39.423959,10.3192397 C39.0891382,9.750856 39.4090449,9.22783829 39.4090449,9.22783829 L42.756656,7.70691385 C42.756656,7.70691385 43.1863302,7.42003202 43.5396444,8.0134252" id="Fill-24" fill="#FFFFFF"></path>
                    </g>
                    <g id="Page-1" transform="translate(0.000000, 1.000000)">
                        <g id="Group-3" transform="translate(0.000000, 0.011779)">
                            <mask id="mask-20" fill="white">
                                <use xlink:href="#path-19"></use>
                            </mask>
                            <g id="Clip-2"></g>
                            <path d="M7.18774078,4.37058432 L4.37987401,4.37058432 L4.37987401,2.72344932 C4.37987401,2.42380103 4.32696743,2.22571942 4.22033612,2.1318633 C4.08834239,2.00689906 3.89198807,1.94415106 3.63400031,1.94415106 C3.39673884,1.94415106 3.21265666,2.00689906 3.08257192,2.1318633 C2.9546689,2.25337108 2.8900356,2.43257512 2.8900356,2.66336013 L2.8900356,3.01618469 C2.8900356,3.21958393 2.96966819,3.40437147 3.13084236,3.57134496 C3.35119554,3.79920529 4.14206711,4.47002395 5.50563878,5.58353507 C6.16997089,6.12300834 6.62349483,6.5614467 6.87275573,6.89246898 C7.11928949,7.22668185 7.24310179,7.72308234 7.24310179,8.38007517 C7.24310179,9.20616855 7.12283477,9.83231914 6.88148259,10.2598564 C6.6420394,10.6889889 6.23133162,11.0349005 5.64526851,11.3021113 C5.06711413,11.5661315 4.35642057,11.6988063 3.50773357,11.6988063 C2.87558174,11.6988063 2.30533607,11.6174466 1.79699656,11.4523342 C1.29492947,11.2856266 0.896766542,11.0559051 0.609871064,10.7551933 C0.438333748,10.5823704 0.303340153,10.3393549 0.209526422,10.0277419 C0.108894833,9.71506546 0.058715396,9.40956778 0.058715396,9.10885597 L0.058715396,7.13840924 L2.88103603,7.13840924 L2.88103603,9.10885597 C2.88103603,9.36037973 2.94403304,9.55314372 3.07357235,9.67624678 C3.19983909,9.79482987 3.3790124,9.85491906 3.6091833,9.85491906 C3.88217035,9.85491906 4.0714341,9.79482987 4.18215612,9.67624678 C4.29696885,9.55314372 4.35642057,9.29390939 4.35642057,8.89748029 L4.35642057,8.57629561 C4.35642057,8.41437387 4.32205857,8.27212734 4.25878884,8.14902427 C4.15624825,7.98098726 3.8546262,7.68718836 3.34492311,7.26629817 L1.35710834,5.64176309 C0.769681663,5.13871556 0.394972169,4.73058768 0.232707141,4.41605003 C0.0778053993,4.09672652 8.18142998e-05,3.69551156 8.18142998e-05,3.21639335 C8.18142998e-05,2.52084773 0.12253055,1.97339801 0.364700878,1.57989361 C0.609871064,1.18452803 1.00612499,0.866799809 1.54828108,0.621391318 C2.09098261,0.377578114 2.81449373,0.254209165 3.72072346,0.254209165 C4.89284967,0.254209165 5.76553553,0.468509538 6.33632663,0.905884369 C6.90439059,1.34166391 7.18774078,1.90267357 7.18774078,2.59609215 L7.18774078,4.37058432 Z" id="Fill-1" fill="#FFFFFF" mask="url(#mask-20)"></path>
                        </g>
                        <path d="M10.4253781,5.87297351 L11.5402343,5.87297351 L11.5402343,4.61907704 C11.5402343,4.44625416 11.4925093,4.31969463 11.3995137,4.24179139 C11.3114269,4.15989993 11.1720699,4.11895421 10.9795336,4.11895421 C10.792997,4.11895421 10.6503674,4.16149522 10.5565537,4.24817254 C10.4662852,4.32820283 10.4253781,4.44944473 10.4253781,4.61907704 L10.4253781,5.87297351 Z M14.2084713,7.36855614 L10.4253781,7.36855614 L10.4253781,9.25312319 C10.4253781,9.55064443 10.4720122,9.74659899 10.5652805,9.8548127 C10.6623668,9.95903819 10.8019966,10.0106192 10.9795336,10.0106192 C11.1499801,10.0106192 11.2830647,9.96169701 11.3817872,9.86332091 C11.4895094,9.76388128 11.5402343,9.60541599 11.5402343,9.38925445 L11.5402343,8.00587375 L14.2084713,8.00587375 L14.2084713,9.06833565 C14.2084713,9.91064779 13.9428475,10.5543466 13.4121455,10.9983684 C12.8800798,11.4381362 12.0657548,11.6585518 10.9615345,11.6585518 C10.2903845,11.6585518 9.7351381,11.5732039 9.29661345,11.4104845 C8.86872466,11.2453722 8.52455917,11.0180436 8.2586627,10.7298282 C8.07130795,10.508615 7.92404221,10.2257172 7.82395605,9.88459142 C7.76259533,9.67002516 7.73314218,9.35788045 7.73314218,8.94603023 L7.73314218,5.11521165 C7.73314218,4.33139341 8.0094018,3.70364753 8.57037518,3.22798578 C9.12698514,2.75391932 9.9140387,2.5175508 10.9397173,2.5175508 C11.792495,2.5175508 12.4644631,2.64411032 12.9488038,2.89191175 C13.4358716,3.14104258 13.7767645,3.47552132 13.985391,3.8950821 C14.1345657,4.20536565 14.2084713,4.74350951 14.2084713,5.51243839 L14.2084713,7.36855614 Z" id="Fill-4" fill="#FFFFFF"></path>
                        <path d="M14.8664219,11.4104048 L14.8664219,2.66131285 L17.5013878,2.66131285 L17.5013878,3.73281471 C17.6860154,3.34808439 17.9150954,3.06119841 18.1872643,2.88066497 C18.555156,2.63897881 18.9923171,2.51773691 19.5058381,2.51773691 C20.1968963,2.51773691 20.6965089,2.75197839 21.0142211,3.21195314 C21.2223022,3.52409785 21.3275699,4.05559468 21.3275699,4.80750715 L21.3275699,11.4104048 L18.6800591,11.4104048 L18.6800591,5.18346339 C18.6800591,4.92874905 18.625789,4.754065 18.5281573,4.65409361 C18.4294347,4.5458799 18.2895322,4.49483068 18.1070863,4.49483068 C17.941276,4.49483068 17.8092823,4.54082815 17.7086507,4.63548192 C17.6096554,4.7341239 17.5578397,4.87876336 17.5578397,5.07976966 L17.5578397,11.4104048 L14.8664219,11.4104048 Z" id="Fill-6" fill="#FFFFFF"></path>
                        <path d="M28.3552274,5.76483957 L25.7469875,5.76483957 L25.7469875,4.75661746 C25.7469875,4.52343951 25.6965353,4.35433897 25.5986309,4.25569699 C25.4977266,4.15014209 25.3556424,4.09935875 25.1603789,4.09935875 C24.9659336,4.09935875 24.8246676,4.1442927 24.729763,4.24187116 C24.6340403,4.33147317 24.5895878,4.49738314 24.5895878,4.73960106 L24.5895878,9.47973387 C24.5895878,9.6376674 24.6392219,9.76848103 24.7463986,9.86659125 C24.8530299,9.96443559 24.9877508,10.0106989 25.1603789,10.0106989 C25.3297345,10.0106989 25.4742731,9.95273681 25.5833589,9.83787606 C25.6940809,9.72354708 25.7469875,9.55391477 25.7469875,9.32073682 L25.7469875,8.00595352 L28.3552274,8.00595352 L28.3552274,9.06841542 C28.3552274,9.93226394 28.0650593,10.5799509 27.4757236,11.0130717 C26.8970238,11.4432677 26.1143337,11.6586316 25.1273805,11.6586316 C24.2206054,11.6586316 23.4630049,11.4584229 22.8425798,11.0585374 C22.229518,10.655993 21.9227144,10.0072425 21.9227144,9.10351176 L21.9227144,5.11529141 C21.9227144,4.63165323 22.0058923,4.23256531 22.1711571,3.91855943 C22.3969646,3.47746226 22.7525841,3.13926117 23.2401973,2.89199151 C23.7278106,2.64419009 24.3490538,2.51763056 25.1107449,2.51763056 C25.7058076,2.51763056 26.2174197,2.58808912 26.6504901,2.72767683 C27.0892874,2.86699866 27.4484522,3.07651317 27.7432564,3.35622036 C27.9693366,3.57185014 28.1253292,3.83241387 28.2175066,4.14296329 C28.3110476,4.4495245 28.3552274,4.78506677 28.3552274,5.13656192 L28.3552274,5.76483957 Z" id="Fill-8" fill="#FFFFFF"></path>
                        <mask id="mask-22" fill="white">
                            <use xlink:href="#path-21"></use>
                        </mask>
                        <g id="Clip-11"></g>
                        <path d="M29.0596212,11.4103782 L31.7654928,11.4103782 L31.7654928,2.68441794 L29.0596212,2.68441794 L29.0596212,11.4103782 Z M29.0596212,2.09761778 L31.7654928,2.09761778 L31.7654928,0.497012019 L29.0596212,0.497012019 L29.0596212,2.09761778 Z" id="Fill-10" fill="#FFFFFF" mask="url(#mask-22)"></path>
                        <polygon id="Fill-12" fill="#FFFFFF" mask="url(#mask-22)" points="32.3940994 11.4103782 35.1026981 11.4103782 35.1026981 0.497012019 32.3940994 0.497012019"></polygon>
                        <polygon id="Fill-13" fill="#FFFFFF" mask="url(#mask-22)" points="35.7340318 11.4103782 38.441267 11.4103782 38.441267 0.497012019 35.7340318 0.497012019"></polygon>
                        <path d="M39.0690554,11.4103782 L41.7779269,11.4103782 L41.7779269,2.68441794 L39.0690554,2.68441794 L39.0690554,11.4103782 Z M39.0690554,2.09761778 L41.7779269,2.09761778 L41.7779269,0.497012019 L39.0690554,0.497012019 L39.0690554,2.09761778 Z" id="Fill-14" fill="#FFFFFF" mask="url(#mask-22)"></path>
                        <path d="M42.1207833,4.26112097 L42.1207833,2.68444452 L43.0447395,2.68444452 L43.0447395,1.06921529 L45.6938865,1.06921529 L45.6938865,2.68444452 L46.8766486,2.68444452 L46.8766486,4.26112097 L45.6938865,4.26112097 L45.6938865,9.06852177 C45.6938865,9.35141953 45.7476112,9.55056467 45.8583333,9.65771485 C45.9728733,9.7640674 46.1613189,9.81724367 46.4203975,9.81724367 L46.8766486,9.81724367 L46.8766486,11.3957813 C46.4503961,11.4056189 46.1111394,11.4104048 45.8583333,11.4104048 C45.0699161,11.4104048 44.512488,11.3641414 44.1931395,11.2774641 C43.8789726,11.1825444 43.6381659,11.0466791 43.4660831,10.8802373 C43.3000001,10.7044898 43.1846419,10.5026858 43.1254629,10.2716349 C43.0692838,10.0429769 43.0447395,9.68962062 43.0447395,9.21156594 L43.0447395,4.26112097 L42.1207833,4.26112097 Z" id="Fill-15" fill="#FFFFFF" mask="url(#mask-22)"></path>
                        <path d="M49.9249949,9.42690325 C49.9249949,9.62684603 49.9705382,9.77441018 50.0700789,9.86667101 C50.1726195,9.96451535 50.3007952,10.0107787 50.461424,10.0107787 C50.6498696,10.0107787 50.7976807,9.95919772 50.9048575,9.85497223 C51.0267608,9.74649264 51.0832126,9.60530964 51.0832126,9.42690325 L51.0832126,4.70485036 C51.0832126,4.50862992 51.0270335,4.36452223 50.9242202,4.2693367 C50.826043,4.16989707 50.6891404,4.11884785 50.5162395,4.11884785 C50.3332482,4.11884785 50.1829826,4.16989707 50.0837146,4.2693367 C49.9749016,4.37116926 49.9249949,4.5317616 49.9249949,4.75669723 L49.9249949,9.42690325 Z M53.7274508,5.04119028 L53.7274508,9.19399118 C53.7274508,9.46492428 53.6838165,9.74649264 53.5902755,10.0394939 C53.5035523,10.3311657 53.3181066,10.6007694 53.0451195,10.8541544 C52.7702235,11.1112616 52.4230582,11.3082797 51.9927149,11.4460063 C51.5653716,11.5874551 51.0627591,11.6584455 50.4933315,11.6584455 C49.885724,11.6584455 49.3610216,11.5800105 48.9115884,11.4231405 C48.4722456,11.2726516 48.1128081,11.0519701 47.8360031,10.7714653 C47.6396487,10.5736495 47.4932011,10.3189352 47.396933,10.0028023 C47.3047555,9.68826462 47.2589395,9.42690325 47.2589395,9.21153935 L47.2589395,5.21879902 C47.2589395,4.67267872 47.3366631,4.2379627 47.4953829,3.91863919 C47.7135543,3.4892408 48.0629014,3.14917855 48.5483329,2.89978184 C49.038946,2.64400397 49.6615528,2.51771033 50.4126081,2.51771033 C51.1628452,2.51771033 51.768271,2.60731234 52.2245221,2.78146463 C52.6821368,2.94896989 53.0470285,3.22309356 53.3164703,3.59559334 C53.5940935,3.96809312 53.7274508,4.44960426 53.7274508,5.04119028 L53.7274508,5.04119028 Z" id="Fill-16" fill="#FFFFFF" mask="url(#mask-22)"></path>
                    </g>
                    <g id="Page-1" transform="translate(63.428499, 0.000000)">
                        <polygon id="Fill-1" fill="#FEFEFE" points="15.1754717 0.570893579 20.1820796 0.570893579 20.1820796 4.64358997 23.4490394 0.570893579 29.5124937 0.570893579 24.0314913 7.33229746 29.4739558 14.1237592 23.4837991 14.1237592 20.1820796 9.93451485 20.1820796 14.0860395 15.1754717 14.0860395"></polygon>
                        <g id="Group-18" transform="translate(0.000000, 0.096495)">
                            <g id="Group-4">
                                <mask id="mask-24" fill="white">
                                    <use xlink:href="#path-23"></use>
                                </mask>
                                <g id="Clip-3"></g>
                                <path d="M7.37548244,9.62584687 C5.93960398,9.62584687 4.77575806,8.49101428 4.77575806,7.09111238 C4.77575806,5.69135782 5.93960398,4.55652524 7.37548244,4.55652524 C8.81136091,4.55652524 9.97535795,5.69135782 9.97535795,7.09111238 C9.97535795,8.49101428 8.81136091,9.62584687 7.37548244,9.62584687 M7.33724676,0.050788989 C3.29454084,0.050788989 7.5564597e-05,3.24768105 7.5564597e-05,7.17347689 C7.5564597e-05,11.0916109 3.29454084,14.2921865 7.33724676,14.2921865 C11.3761744,14.2921865 14.6706397,11.0916109 14.6706397,7.17347689 C14.6706397,3.24768105 11.3761744,0.050788989 7.33724676,0.050788989" id="Fill-2" fill="#FEFEFE" mask="url(#mask-24)"></path>
                            </g>
                            <path d="M30.353845,5.92757746 L31.2099919,5.92757746 L31.2099919,8.46879502 L30.6554989,8.46879502 L30.6554989,6.74989642 C30.6554989,6.70053666 30.6561034,6.63128564 30.6574636,6.54214338 C30.6586726,6.45314846 30.6594283,6.38448681 30.6594283,6.33615844 L30.1197459,8.46879502 L29.5415256,8.46879502 L29.0057726,6.33615844 C29.0057726,6.38448681 29.0063772,6.45314846 29.0077373,6.54214338 C29.0089463,6.63128564 29.009702,6.70053666 29.009702,6.74989642 L29.009702,8.46879502 L28.455209,8.46879502 L28.455209,5.92757746 L29.3210281,5.92757746 L29.8394013,7.92569025 L30.353845,5.92757746 Z" id="Fill-5" fill="#FEFEFE"></path>
                            <path d="M32.8550785,7.50851919 L33.5842769,7.50851919 L33.2247405,6.50850507 L32.8550785,7.50851919 Z M32.8943721,5.92753325 L33.5676527,5.92753325 L34.5749287,8.46875082 L33.9297582,8.46875082 L33.7419046,7.94642135 L32.6932192,7.94642135 L32.5002272,8.46875082 L31.8778772,8.46875082 L32.8943721,5.92753325 Z" id="Fill-7" fill="#FEFEFE"></path>
                            <path d="M35.8518193,6.36892743 L35.8518193,7.05171297 L36.4921537,7.05171297 C36.6194045,7.05171297 36.7146159,7.03786277 36.7783924,7.01030971 C36.8908325,6.96198134 36.9472037,6.86665069 36.9472037,6.72402306 C36.9472037,6.57005006 36.8927972,6.46661557 36.783833,6.41371958 C36.7227768,6.38380904 36.6310414,6.36892743 36.5086268,6.36892743 L35.8518193,6.36892743 Z M37.0815575,5.9930565 C37.1862901,6.03328103 37.275154,6.09251275 37.3481494,6.17060432 C37.4082988,6.23499303 37.4562068,6.30630684 37.4912688,6.38439841 C37.5264819,6.46263732 37.5440129,6.55163224 37.5440129,6.65167786 C37.5440129,6.77235143 37.5098577,6.89096221 37.4416984,7.00765754 C37.373388,7.12435287 37.2607968,7.20686472 37.1036224,7.25504574 C37.2349537,7.30219537 37.3280492,7.3690889 37.382758,7.45587368 C37.4374668,7.54265847 37.4648212,7.67511945 37.4648212,7.85325664 L37.4648212,8.02402669 C37.4648212,8.14013265 37.4699596,8.21881359 37.4806897,8.26021685 C37.496256,8.3257843 37.5328293,8.37396533 37.5904095,8.40505462 L37.5904095,8.46885395 L36.9336021,8.46885395 C36.9156177,8.41242174 36.9027717,8.36704023 36.894913,8.33256206 C36.8794978,8.2613956 36.8711857,8.18831367 36.8698255,8.11361098 L36.8660473,7.87742082 C36.8636292,7.71534398 36.8321944,7.60734186 36.7718938,7.55341447 C36.7115933,7.49933975 36.5985486,7.47237605 36.432911,7.47237605 L35.8518193,7.47237605 L35.8518193,8.46885395 L35.2704253,8.46885395 L35.2704253,5.92763639 L36.6322504,5.92763639 C36.8269048,5.93102527 36.976825,5.95283198 37.0815575,5.9930565 L37.0815575,5.9930565 Z" id="Fill-9" fill="#FEFEFE"></path>
                            <polygon id="Fill-11" fill="#FEFEFE" points="38.4432013 5.92757746 39.0285247 5.92757746 39.0285247 6.97459386 40.1287452 5.92757746 40.8975394 5.92757746 39.7290085 6.97282575 40.9573866 8.46879502 40.1923706 8.46879502 39.3150657 7.35960004 39.0285247 7.61892299 39.0285247 8.46879502 38.4432013 8.46879502"></polygon>
                            <polygon id="Fill-13" fill="#FEFEFE" points="43.7158873 6.37754698 42.2091292 6.37754698 42.2091292 6.91711552 43.5922636 6.91711552 43.5922636 7.35855391 42.2091292 7.35855391 42.2091292 8.01187093 43.7854067 8.01187093 43.7854067 8.46878028 41.6275841 8.46878028 41.6275841 5.92756272 43.7158873 5.92756272"></polygon>
                            <g id="Group-17" transform="translate(44.280854, 5.893703)">
                                <mask id="mask-26" fill="white">
                                    <use xlink:href="#path-25"></use>
                                </mask>
                                <g id="Clip-16"></g>
                                <polygon id="Fill-15" fill="#FEFEFE" mask="url(#mask-26)" points="2.35675398 0.0338740603 2.35675398 0.483858315 1.50483871 0.483858315 1.50483871 2.57509162 0.906064851 2.57509162 0.906064851 0.483858315 0.0502202308 0.483858315 0.0502202308 0.0338740603"></polygon>
                            </g>
                        </g>
                    </g>
                    <g id="Page-1" transform="translate(182.032362, 1.000000)">
                        <path d="M42.5534147,8.63155823 C41.7358549,8.69891673 41.8455757,7.71147325 41.8455757,7.71147325 C41.8455757,7.71147325 42.0816317,5.0548221 44.0500263,5.25304853 C44.0500263,5.25304853 43.779919,8.53052049 42.5534147,8.63155823 M44.3265491,3.52434085 C42.5371293,3.4927465 39.7061021,4.22711449 39.3810522,8.02886007 C39.1857919,10.3127942 41.5285862,10.4712471 41.5285862,10.4712471 C41.5285862,10.4712471 42.9763416,10.526898 43.6108141,9.23409602 L43.6108141,10.4712471 L45.7581836,10.4712471 C45.7581836,10.4712471 45.8557315,5.52264289 46.7668912,3.90491635 C46.7668912,3.90491635 46.1161333,3.55609557 44.3265491,3.52434085" id="Fill-1" fill="#FFFFFF"></path>
                        <g id="Group-5" transform="translate(0.000000, 3.499113)">
                            <mask id="mask-28" fill="white">
                                <use xlink:href="#path-27"></use>
                            </mask>
                            <g id="Clip-4"></g>
                            <path d="M3.18389392,5.13244475 C2.36633406,5.19980324 2.47605487,4.21235977 2.47605487,4.21235977 C2.47605487,4.21235977 2.71211088,1.55570861 4.6805055,1.75393505 C4.6805055,1.75393505 4.4103982,5.031407 3.18389392,5.13244475 M4.95702826,0.0252273605 C3.16760852,-0.00636698164 0.336581332,0.728001001 0.0115313774,4.52974659 C-0.183728894,6.81368073 2.15906536,6.97213357 2.15906536,6.97213357 C2.15906536,6.97213357 3.60682075,7.02778452 4.24129326,5.73498253 L4.24129326,6.97213357 L6.38866275,6.97213357 C6.38866275,6.97213357 6.48621064,2.02352941 7.3973704,0.405802862 C7.3973704,0.405802862 6.7466125,0.05698208 4.95702826,0.0252273605" id="Fill-3" fill="#FFFFFF" mask="url(#mask-28)"></path>
                        </g>
                        <path d="M37.8802294,7.94942516 L38.3724103,5.36414194 L39.6737617,5.36414194 L40.096853,3.65115123 L38.6977893,3.65115123 L39.0231682,1.77954731 L36.5991115,2.47750963 L36.4281971,3.69076444 L35.5254268,3.65516067 L35.1594166,5.36815137 L36.037841,5.36815137 L35.4461383,8.80086862 C35.4461383,8.80086862 35.1268458,10.5069631 37.3617287,10.5069631 L38.5147019,10.5069631 L38.9173954,8.5203686 L38.0205471,8.50705728 C38.0205471,8.50705728 37.8527581,8.52341577 37.8251223,8.37731199 C37.8078499,8.28589689 37.8802294,7.94942516 37.8802294,7.94942516" id="Fill-6" fill="#FFFFFF"></path>
                        <path d="M28.6072583,3.67891256 L27.3626591,10.3998471 L29.8273471,10.3998471 L30.5350217,6.91452602 C30.5350217,6.91452602 30.8314488,5.22879947 31.6819084,5.40377118 C32.4914078,5.5702429 32.1355966,6.81862035 32.1355966,6.81862035 L31.4177231,10.3998471 L33.8904715,10.3998471 L34.6835211,5.22527117 C34.6835211,5.22527117 35.0740416,3.41717669 32.9265076,3.41717669 C31.4501294,3.41717669 30.5471946,4.72569566 30.5471946,4.72569566 L30.718109,3.70264841 L28.6072583,3.67891256 Z" id="Fill-8" fill="#FFFFFF"></path>
                        <path d="M19.9965929,10.2272329 L21.241192,3.50629839 L18.776504,3.50629839 L18.0688295,6.99161942 C18.0688295,6.99161942 17.7724024,8.67734597 16.9219427,8.50237426 C16.1124433,8.33590255 16.4682546,7.08752509 16.4682546,7.08752509 L17.1861281,3.50629839 L14.7133796,3.50629839 L13.9203301,8.68087428 C13.9203301,8.68087428 13.5298096,10.4889688 15.6773435,10.4889688 C17.1537218,10.4889688 18.0566566,9.18044979 18.0566566,9.18044979 L17.8857422,10.203497 L19.9965929,10.2272329 Z" id="Fill-10" fill="#FFFFFF"></path>
                        <path d="M17.9555391,0.098343404 L17.566828,2.81048513 L15.1373428,2.88137193 C15.1373428,2.88137193 11.050695,3.07446628 10.7557484,6.95591942 C10.736173,7.21460812 10.7277835,7.48997607 10.7323895,7.78282515 C10.8055916,12.4696934 16.296238,11.0898065 16.296238,11.0898065 L16.4913338,13.4213728 C16.4913338,13.4213728 7.69014566,15.9907786 7.3973375,7.94945724 C7.10452934,-0.0920245356 15.4339344,-0.250477378 17.9555391,0.098343404" id="Fill-12" fill="#FFFFFF"></path>
                        <path d="M25.4406368,5.57187874 C25.3672702,6.1795486 23.6500655,6.25909578 23.6500655,6.25909578 C23.5791665,5.27790702 24.9716502,5.2050957 24.9716502,5.2050957 C24.9716502,5.2050957 25.489493,5.16692588 25.4406368,5.57187874 M27.6677882,5.69729385 C27.6677882,5.26908627 27.4888134,3.41335971 25.0973274,3.41720876 C22.706006,3.4212182 21.2255153,5.64966177 21.111682,7.60049211 C20.9976842,9.55148283 22.7384123,10.5188791 24.2350238,10.5070112 C25.7317999,10.4951433 26.8706263,10.0114451 26.8706263,10.0114451 L26.675366,8.33004878 C26.675366,8.33004878 25.8456332,8.6949073 24.8045193,8.6949073 C23.7634053,8.6949073 23.4054556,7.94947327 23.4054556,7.94947327 C27.7488862,7.94947327 27.6677882,6.12550143 27.6677882,5.69729385" id="Fill-14" fill="#FFFFFF"></path>
                        <g id="Group-18" transform="translate(18.752882, 11.036850)">
                            <mask id="mask-30" fill="white">
                                <use xlink:href="#path-29"></use>
                            </mask>
                            <g id="Clip-17"></g>
                            <path d="M25.3133968,1.33772369 C25.3133968,1.33772369 25.2645406,0.10057265 22.7266506,0.195676431 C20.1889251,0.290940589 21.9946302,0.518355702 20.2376168,0.190544355 C18.4806033,-0.137266992 14.1858643,0.338572668 13.5513918,0.528780231 C12.9169193,0.71914817 8.13394742,1.52809163 6.52350255,2.14666715 C4.91289319,2.76524267 5.01044107,3.00308231 4.27842068,3.19345025 C3.54623579,3.38381819 0.42272944,5.09664852 0.129921282,5.38228062 C-0.162886875,5.66775234 1.30131841,5.00154474 1.54527038,4.90644096 C1.78938684,4.8111768 3.15587974,4.33533714 3.4486879,4.14512957 C3.74149606,3.95476164 4.94020001,3.95476164 5.63422115,3.62165784 C6.32824228,3.28855404 12.5263988,2.14666715 13.1121796,2.09903507 C13.6977959,2.05140299 14.9178847,2.09903507 15.6012134,1.90866713 C16.2843776,1.71845957 19.163932,1.71845957 20.2376168,1.81356335 C21.3113015,1.90866713 24.5325202,1.81356335 24.8253284,1.71845957 C25.1181365,1.62319541 25.3133968,1.33772369 25.3133968,1.33772369" id="Fill-16" fill="#FFFFFF" mask="url(#mask-30)"></path>
                        </g>
                    </g>
                </g>
                <g id="Page-1" transform="translate(248.000000, 2.000000)">
                    <path d="M0.338155932,6.88582373 C1.03741017,7.21928136 2.0167322,7.4743322 3.13944407,7.4743322 C4.00039322,7.4743322 4.81588475,7.31995932 4.81588475,6.60575593 C4.81588475,4.94456949 0.000122033898,5.99162034 0.000122033898,2.74734915 C0.000122033898,0.605654237 2.39747797,0.0195864407 4.43696949,0.0195864407 C5.41537627,0.0195864407 6.37822373,0.146501695 7.06557966,0.351213559 L6.89046102,2.18477288 C6.18998644,1.90378983 5.40225763,1.77565424 4.62642712,1.77565424 C3.94242712,1.77565424 2.80568136,1.82812881 2.80568136,2.60731525 C2.80568136,4.0503661 7.62235932,3.07897627 7.62235932,6.29792542 C7.62235932,8.60589153 5.40225763,9.23070508 3.13944407,9.23070508 C2.19185085,9.23070508 1.00903729,9.10470508 0.102935593,8.84965424 L0.338155932,6.88582373 L0.338155932,6.88582373 Z" id="Fill-1" fill="#FFFFFF"></path>
                    <polygon id="Fill-3" fill="#FFFFFF" points="8.20018983 0.176125424 15.4014102 0.176125424 15.4014102 1.8565322 10.9258169 1.8565322 10.9258169 3.69283729 15.1521559 3.69283729 15.1521559 5.37232881 10.9258169 5.37232881 10.9258169 7.39443051 15.5612746 7.39443051 15.5612746 9.07422712 8.20018983 9.07422712"></polygon>
                    <path d="M16.6828881,9.07407458 L19.4097356,9.07407458 L19.4097356,5.55705763 L19.9774983,5.55705763 C20.9885492,5.55705763 21.3397017,5.93902373 21.8958712,7.46902373 L22.4788881,9.07407458 L25.3173966,9.07407458 L24.3228203,6.65261695 C23.8185153,5.56804068 23.7614644,4.89319322 22.8794644,4.68970169 L22.8794644,4.66529492 C24.2001763,4.39834576 24.8448203,3.60970169 24.8448203,2.41804068 C24.8448203,0.888345763 23.3642441,0.175972881 21.5477695,0.175972881 L16.6828881,0.175972881 L16.6828881,9.07407458 Z M19.4097356,1.85668475 L20.1251593,1.85668475 C21.1658034,1.85668475 22.1179729,2.00983729 22.1179729,2.84149831 C22.1179729,3.85010847 21.0050237,3.87665085 20.1251593,3.87665085 L19.4097356,3.87665085 L19.4097356,1.85668475 Z" id="Fill-5" fill="#FFFFFF"></path>
                    <polygon id="Fill-7" fill="#FFFFFF" points="24.9334169 0.176125424 27.8286712 0.176125424 30.0948407 7.16043051 30.1265695 7.16043051 32.4168407 0.176125424 35.2114169 0.176125424 31.7294847 9.07422712 28.3625695 9.07422712"></polygon>
                    <mask id="mask-32" fill="white">
                        <use xlink:href="#path-31"></use>
                    </mask>
                    <g id="Clip-10"></g>
                    <polygon id="Fill-9" fill="#FFFFFF" mask="url(#mask-32)" points="35.830678 9.07413559 38.5553898 9.07413559 38.5553898 0.176033898 35.830678 0.176033898"></polygon>
                    <path d="M40.5304169,9.05558644 L43.2551288,9.05558644 L43.2551288,5.95775593 L44.3113322,5.95775593 C46.8597051,5.95775593 48.3695695,4.88965424 48.3695695,3.0844678 C48.3695695,1.07426441 46.9045525,0.158705085 43.7823153,0.158705085 L40.5304169,0.158705085 L40.5304169,9.05558644 Z M43.2551288,1.83697627 L43.9586542,1.83697627 C44.8974,1.83697627 45.6439424,2.13229831 45.6439424,3.04480678 C45.6439424,3.98385763 44.8974,4.27795932 43.9586542,4.27795932 L43.2551288,4.27795932 L43.2551288,1.83697627 Z" id="Fill-11" fill="#FFFFFF" mask="url(#mask-32)"></path>
                    <path d="M46.7631458,9.05558644 L49.5272136,9.05558644 L50.3314169,7.16680678 L54.1635864,7.16680678 L54.925078,9.05558644 L57.9078915,9.05558644 L53.9753492,0.158705085 L50.6401627,0.158705085 L46.7631458,9.05558644 Z M53.521078,5.48731525 L50.961722,5.48731525 L52.2705356,1.99317966 L52.2998237,1.99317966 L53.521078,5.48731525 Z" id="Fill-12" fill="#FFFFFF" mask="url(#mask-32)"></path>
                    <path d="M67.0413661,8.80495932 C65.316722,9.18784068 64.0298746,9.21194237 63.0944847,9.21194237 C60.3764847,9.21194237 57.2359424,8.01601017 57.2359424,4.64573898 C57.2359424,1.28645085 59.9386881,-9.15254241e-05 63.6799424,-9.15254241e-05 C64.351739,-9.15254241e-05 65.7688576,0.0655016949 66.7625186,0.39499322 L66.5456034,2.33594237 C65.6977729,1.8993661 64.7019763,1.75811186 64.0606881,1.75811186 C61.8537051,1.75811186 60.042722,2.56689153 60.042722,4.64695932 C60.042722,6.39448475 61.4586203,7.45556949 63.4456373,7.45556949 C63.8123492,7.45556949 64.1635017,7.40553559 64.4097051,7.30150169 L64.4097051,5.53872203 L62.8186881,5.53872203 L62.8186881,3.85892542 L67.0413661,3.85892542 L67.0413661,8.80495932 Z" id="Fill-13" fill="#FFFFFF" mask="url(#mask-32)"></path>
                    <polygon id="Fill-14" fill="#FFFFFF" mask="url(#mask-32)" points="0.329522034 11.5135932 5.39331864 11.5135932 5.39331864 12.6951864 2.24606441 12.6951864 2.24606441 13.9863051 5.21789492 13.9863051 5.21789492 15.1675932 2.24606441 15.1675932 2.24606441 16.5892881 5.50558983 16.5892881 5.50558983 17.7702712 0.329522034 17.7702712"></polygon>
                    <path d="M18.0507051,17.7711864 L19.9681627,17.7711864 L19.9681627,15.2981695 L20.3675186,15.2981695 C21.0783661,15.2981695 21.3251797,15.5666441 21.7162983,16.6423729 L22.1263322,17.7711864 L24.1221966,17.7711864 L23.4229424,16.0685085 C23.0681288,15.3057966 23.0281627,14.8310847 22.4079254,14.688 L22.4079254,14.6712203 C23.3366034,14.4835932 23.7899593,13.9286441 23.7899593,13.0908814 C23.7899593,12.0154576 22.7487051,11.5145085 21.4716203,11.5145085 L18.0507051,11.5145085 L18.0507051,17.7711864 Z M19.9681627,12.6961017 L20.4712475,12.6961017 C21.2031458,12.6961017 21.8725017,12.8037966 21.8725017,13.3886441 C21.8725017,14.0979661 21.0899593,14.1165763 20.4712475,14.1165763 L19.9681627,14.1165763 L19.9681627,12.6961017 Z" id="Fill-15" fill="#FFFFFF" mask="url(#mask-32)"></path>
                    <path d="M12.1094847,17.7708203 L14.0254169,17.7708203 L14.0254169,15.5925153 L14.7679932,15.5925153 C16.560061,15.5925153 17.6217559,14.8417017 17.6217559,13.571939 C17.6217559,12.1584814 16.5914847,11.5147525 14.3960949,11.5147525 L12.1094847,11.5147525 L12.1094847,17.7708203 Z M14.0254169,12.6948203 L14.5199593,12.6948203 C15.1801627,12.6948203 15.7052136,12.9025831 15.7052136,13.5441763 C15.7052136,14.2043797 15.1801627,14.4115322 14.5199593,14.4115322 L14.0254169,14.4115322 L14.0254169,12.6948203 Z" id="Fill-16" fill="#FFFFFF" mask="url(#mask-32)"></path>
                    <polygon id="Fill-17" fill="#FFFFFF" mask="url(#mask-32)" points="24.5513288 11.5135932 29.6151254 11.5135932 29.6151254 12.6951864 26.4678712 12.6951864 26.4678712 13.9863051 29.4397017 13.9863051 29.4397017 15.1675932 26.4678712 15.1675932 26.4678712 16.5892881 29.7273966 16.5892881 29.7273966 17.7702712 24.5513288 17.7702712"></polygon>
                    <path d="M30.6651356,16.2316373 C31.1569322,16.4662475 31.8455085,16.6453322 32.6347627,16.6453322 C33.2403559,16.6453322 33.8136102,16.5370271 33.8136102,16.0345525 C33.8136102,14.8666881 30.4274746,15.6028576 30.4274746,13.3214339 C30.4274746,11.8155356 32.1130678,11.4036712 33.5472712,11.4036712 C34.2352373,11.4036712 34.9122203,11.4927559 35.3954746,11.6367559 L35.2725254,12.9260441 C34.7801186,12.7283492 34.2260847,12.6383492 33.6805932,12.6383492 C33.1997797,12.6383492 32.4001525,12.6752644 32.4001525,13.2231966 C32.4001525,14.2379085 35.7872034,13.5548237 35.7872034,15.8182475 C35.7872034,17.4409932 34.2260847,17.8803153 32.6347627,17.8803153 C31.9684576,17.8803153 31.1367966,17.7918407 30.4997797,17.6127559 L30.6651356,16.2316373 Z" id="Fill-18" fill="#FFFFFF" mask="url(#mask-32)"></path>
                    <path d="M36.5487559,16.2316373 C37.0405525,16.4662475 37.7291288,16.6453322 38.5183831,16.6453322 C39.1239763,16.6453322 39.6972305,16.5370271 39.6972305,16.0345525 C39.6972305,14.8666881 36.3110949,15.6028576 36.3110949,13.3214339 C36.3110949,11.8155356 37.9966881,11.4036712 39.4308915,11.4036712 C40.1188576,11.4036712 40.7958407,11.4927559 41.2790949,11.6367559 L41.1561458,12.9260441 C40.663739,12.7283492 40.1097051,12.6383492 39.5642136,12.6383492 C39.0834,12.6383492 38.2837729,12.6752644 38.2837729,13.2231966 C38.2837729,14.2379085 41.6708237,13.5548237 41.6708237,15.8182475 C41.6708237,17.4409932 40.1097051,17.8803153 38.5183831,17.8803153 C37.852078,17.8803153 37.0204169,17.7918407 36.3834,17.6127559 L36.5487559,16.2316373 Z" id="Fill-19" fill="#FFFFFF" mask="url(#mask-32)"></path>
                    <polygon id="Fill-20" fill="#FFFFFF" mask="url(#mask-32)" points="5.62228475 17.6761525 7.71364068 14.5215763 5.89594576 11.6379153 8.05228475 11.6379153 8.74970847 12.9571017 9.44682712 11.6379153 11.6034712 11.6379153 9.78577627 14.5215763 11.8771322 17.6761525 9.60974237 17.6761525 8.74970847 16.1199153 7.88967458 17.6761525"></polygon>
                </g>
            </g>
        </g>
    </g>
</svg>