<?xml version="1.0" encoding="UTF-8" standalone="no"?>
<svg width="316px" height="56px" viewBox="0 0 316 56" version="1.1" xmlns="http://www.w3.org/2000/svg" xmlns:xlink="http://www.w3.org/1999/xlink">
    <!-- Generator: Sketch 39.1 (31720) - http://www.bohemiancoding.com/sketch -->
    <title>Group 19</title>
    <desc>Created with Sketch.</desc>
    <defs>
        <polygon id="path-1" points="0.00285250899 9.44634037 8.67457578 9.44634037 8.67457578 0.062047541 0.00285250899 0.062047541 0.00285250899 9.44634037"></polygon>
        <polygon id="path-3" points="5.54628759 0.11385326 0.0191145001 0.11385326 0.0191145001 8.79181995 5.54628759 8.79181995 5.54628759 0.11385326"></polygon>
        <polygon id="path-5" points="8.85881124 13.8725861 17.6412548 13.8725861 17.6412548 0.142278597 8.85881124 0.142278597 0.0763676798 0.142278597 0.0763676798 13.8725861"></polygon>
        <polygon id="path-7" points="0.100684954 7.66738318 6.33889462 7.66738318 6.33889462 0.158437501 0.100684954 0.158437501"></polygon>
        <polygon id="path-9" points="13.8857035 12.9026362 13.8857035 0.0308580452 0.0349770949 0.0308580452 0.0349770949 12.9026362 13.8857035 12.9026362"></polygon>
        <polygon id="path-11" points="0.0167436335 12.9058554 11.5008723 12.9058554 11.5008723 0.0291469318 0.0167436335 0.0291469318 0.0167436335 12.9058554"></polygon>
        <polygon id="path-13" points="11.4848913 12.9058554 0 12.9058554 0 0.0291469318 11.4848913 0.0291469318"></polygon>
        <polygon id="path-15" points="13.1377422 0.0291469318 0.0365685019 0.0291469318 0.0365685019 12.9013021 13.1377422 12.9013021 13.1377422 0.0291469318"></polygon>
    </defs>
    <g id="SP2-Pago-fácil" stroke="none" stroke-width="1" fill="none" fill-rule="evenodd">
        <g id="1-PagoFacil-Correcciones" transform="translate(-30.000000, -1233.000000)">
            <g id="Group-19" transform="translate(30.000000, 1233.000000)">
                <g id="Page-1" transform="translate(218.000000, 2.000000)">
                    <path d="M16.6759666,6.21630515 C16.6759666,6.53284041 16.7189201,6.72591035 16.8054904,6.79485206 C16.8923924,6.86230225 17.1353532,6.89727028 17.5368604,6.89727028 L17.906194,6.89727028 C20.4397859,6.89727028 21.7076598,6.0185949 21.7076598,4.26174132 C21.7076598,2.38805142 20.5676512,1.45220082 18.2892926,1.45220082 C17.6781591,1.45220082 17.2690231,1.51070184 17.0584018,1.62604663 C16.8028369,1.76906754 16.6759666,2.0685331 16.6759666,2.52162599 L16.6759666,6.21630515 Z M21.6471269,7.04791455 C24.0938167,7.45128986 25.3155861,8.71726519 25.3155861,10.8430232 C25.3155861,12.0612697 24.8309913,13.0405403 23.8626308,13.7793436 C22.8922802,14.5193069 21.6335277,14.8875484 20.0863733,14.8875484 C19.5233344,14.8875484 15.2430783,14.9087613 14.116669,14.9087613 L14.116669,0.660862658 C14.8681061,0.660862658 16.6789518,0.733284601 17.6501316,0.721518107 C22.8748667,0.660862658 24.3933302,1.85723338 24.3933302,4.12800102 C24.3933302,5.54892949 23.4783713,6.52090819 21.6471269,7.04791455 L21.6471269,7.04791455 Z M17.0303742,7.60458573 C16.7930521,7.60458573 16.6759666,7.69938059 16.6759666,7.88681587 L16.6759666,12.4268596 C16.6759666,13.5363903 17.430223,14.0920671 18.9423845,14.0920671 C20.1430918,14.0920671 21.0578848,13.756142 21.686266,13.0862805 C22.2423394,12.4943098 22.5184689,11.7071148 22.5184689,10.7175692 C22.5184689,9.75371103 22.1945764,8.99253486 21.5497767,8.43785239 C20.9019918,7.88250701 19.9750923,7.60458573 18.7639368,7.60458573 L17.0303742,7.60458573 Z" id="Fill-1" fill="#FFFFFF"></path>
                    <g id="Group-5" transform="translate(25.871593, 5.686597)">
                        <mask id="mask-2" fill="white">
                            <use xlink:href="#path-1"></use>
                        </mask>
                        <g id="Clip-4"></g>
                        <path d="M5.37966612,0.062047541 C6.03524566,0.062047541 6.65981245,0.145738802 7.25369819,0.314447127 C8.04709371,0.539170592 8.44296226,0.85736311 8.44296226,1.2685275 C8.44296226,2.33762122 8.20597183,2.87175376 7.73282019,2.87175376 C7.49947832,2.87175376 7.26431218,2.67868382 7.0221806,2.29221249 C6.99664069,2.24730095 6.95236047,2.16907862 6.89332016,2.05969994 C6.31585294,1.06816565 5.72229888,0.572978547 5.10983867,0.572978547 C4.17929053,0.572978547 3.45173489,1.07297169 2.92684007,2.07212934 C2.53113737,2.83512848 2.33361771,3.62248923 2.33361771,4.43653176 C2.33361771,5.44894743 2.59498713,6.31055311 3.12071118,7.02068589 C3.67512615,7.77026128 4.44497189,8.20164416 5.43223852,8.31616032 C5.6115154,8.33687598 6.20390854,8.40018303 7.44425242,7.9644913 C7.72452802,7.86638194 7.96566453,7.72286386 8.23001915,7.59774128 C8.36236229,7.53310842 8.6320239,7.48736825 8.66917286,7.69369621 C8.70930699,7.91460799 8.51742601,8.15176085 8.37231291,8.29362168 C8.1373126,8.52381408 7.3241817,9.28316727 5.20536455,9.43679459 C5.11116542,9.44474941 5.01912225,9.44640666 4.92724492,9.44640666 C3.32486458,9.44640666 2.07523346,8.95668849 1.17934663,7.97658924 C0.395238339,7.12426418 0.00285250899,6.07588613 0.00285250899,4.82648332 C0.00285250899,3.5074759 0.445986464,2.40888308 1.33523956,1.53269358 C2.31670166,0.55292579 3.6661706,0.062047541 5.37966612,0.062047541" id="Fill-3" fill="#FFFFFF" mask="url(#mask-2)"></path>
                    </g>
                    <path d="M35.253346,14.9021157 L37.3608858,14.9021157 L37.3471208,6.31522656 C37.3471208,6.31522656 36.9658465,6.30660885 36.3391237,6.25821707 C35.8812297,6.22175751 35.2536777,6.18794955 35.2536777,6.18794955" id="Fill-6" fill="#FFFFFF"></path>
                    <path d="M35.2565136,3.65409304 C35.2565136,3.01538785 35.7124175,2.49749639 36.2764514,2.49749639 C36.8404853,2.49749639 37.2963892,3.01538785 37.2963892,3.65409304 C37.2963892,4.29014663 36.8404853,4.80770665 36.2764514,4.80770665 C35.7124175,4.80770665 35.2565136,4.29014663 35.2565136,3.65409304" id="Fill-8" fill="#FFFFFF"></path>
                    <path d="M0.100667032,12.9485793 C0.588247058,11.4994776 1.97768429,10.6895782 3.18452777,9.90238317 C4.07560515,9.32118465 4.98492531,8.76965095 5.88495823,8.20353343 C6.2096799,8.0000228 6.52843119,7.79087751 6.85116273,7.58736688 C7.61686239,7.10477489 8.22583989,6.4050828 8.66797878,5.62435106 C8.89186757,5.22661041 9.07678312,4.81461739 9.25589415,4.39533246 C9.50499116,3.81678554 9.70499848,3.06008396 10.3126492,2.7612813 C10.7473252,2.54915295 11.3128517,2.66466347 11.6422169,3.01467524 C11.9634559,3.35673219 12.0379196,3.85738823 11.9513493,4.30501218 C11.7694189,5.2514692 11.223462,6.10628014 10.5350454,6.76619816 C10.1307189,7.15382957 9.67381989,7.44053429 9.19602463,7.72508457 C8.56382903,8.10111521 7.93014085,8.47316844 7.29363332,8.84257007 C6.45662094,9.33179106 5.62856411,9.79681617 4.84594842,10.3700599 C4.05703067,10.9474467 3.33378696,11.5818431 2.65648192,12.2841867 C2.15447351,12.8045641 1.83953661,13.4248738 1.5070203,14.0596016 C1.38661789,14.2901254 1.27102494,14.6233989 1.0534382,14.7834895 C0.900696299,14.8928682 0.649443327,14.9233617 0.48592159,14.8252523 C-0.097184318,14.4732518 -0.055889275,13.5017703 0.100667032,12.9485793" id="Fill-10" fill="#FFFFFF"></path>
                    <path d="M10.5175655,13.3557995 C10.1205361,13.0515279 10.2586837,12.4996627 10.2314854,12.0671198 C10.1991459,11.5507198 10.1042834,10.9819507 9.8769119,10.5131139 C9.62963917,10.0059946 9.07140979,9.8924728 8.62943674,9.6203519 C8.21333528,9.36380919 8.24700152,8.84939795 8.67172685,8.62185715 C9.55136101,8.15235747 10.5688112,8.71847499 11.0399727,9.48810314 C11.3348425,9.9698665 11.518763,10.526372 11.6943913,11.0598416 C11.8743316,11.6060721 12.1111561,12.3102388 11.8288904,12.8572979 C11.6061626,13.2900065 10.9626896,13.6960335 10.5175655,13.3557995" id="Fill-12" fill="#FFFFFF"></path>
                    <g id="Group-16" transform="translate(2.819340, 0.051938)">
                        <mask id="mask-4" fill="white">
                            <use xlink:href="#path-3"></use>
                        </mask>
                        <g id="Clip-15"></g>
                        <path d="M4.36962917,8.72763959 C2.35579099,7.92685509 0.258035973,6.38842741 0.0349764039,4.05087248 C-0.0212445583,3.45641594 0.0782615694,2.85367314 0.23448619,2.2796008 C0.365834278,1.79667737 0.516088531,1.27994598 0.756561673,0.839448208 C1.17548247,0.0706486825 2.18314786,-0.0987225431 2.89445083,0.386189596 C3.72947308,0.956781699 3.20524163,1.98676425 3.00357588,2.75125492 C2.86857923,3.26218593 2.7500011,3.78770076 2.66475751,4.30973536 C2.58034315,4.82696392 2.56674398,5.35943921 2.73822621,5.86142105 C2.87919322,6.2762314 3.13492397,6.65110196 3.47059131,6.93300065 C3.84937796,7.24970164 4.33679215,7.41376966 4.7787652,7.62042907 C5.08540991,7.76344997 5.70516725,7.97358962 5.5084768,8.43231716 C5.32240034,8.86469439 4.7441039,8.8267433 4.36962917,8.72763959" id="Fill-14" fill="#FFFFFF" mask="url(#mask-4)"></path>
                    </g>
                    <path d="M2.60404219,14.4477964 C2.65528785,14.6408664 2.83307213,14.857635 3.37272703,14.8901172 C4.31305994,14.9466295 5.29103933,14.8147122 6.25077593,14.6150132 C7.85033693,14.2837284 8.51818889,13.8520141 8.51818889,13.8520141 C8.51818889,13.8520141 9.4958366,13.3384315 9.44359588,11.9312582 C9.38953088,10.5232563 8.44057411,9.87626487 8.44057411,9.87626487 C8.44057411,9.87626487 8.0592998,9.62171085 7.43008938,9.83881095 C7.00121797,9.98978667 5.78890165,10.6695917 5.00495921,11.1492007 C4.58023389,11.4080635 4.16064972,11.7557551 3.81005646,12.1077556 C3.45913152,12.4595904 3.04900043,12.9222953 2.77038327,13.5646465 C2.7259372,13.6647445 2.69210512,13.7560592 2.6680578,13.8397504 C2.61482202,14.0177394 2.55412329,14.2631785 2.60404219,14.4477964" id="Fill-17" fill="#FFFFFF"></path>
                </g>
                <g id="Group-11" transform="translate(117.000000, 4.000000)">
                    <path d="M52.7592061,3.59232309 C53.0184023,2.03690167 52.3168289,1.65523637 51.0763779,1.65523637 L49.5794395,1.65523637 C48.6308593,1.65523637 48.3943491,1.72476848 48.2385944,2.61752015 L47.5778219,6.38426564 L49.8504866,6.38426564 C50.5027941,6.38426564 50.8925196,6.17668438 51.147314,5.89720252 C51.2758116,5.7566157 51.3707882,5.5960659 51.4483269,5.42891815 C51.5157078,5.28714709 51.5688675,5.14165411 51.6177948,5.00495839 C51.6233817,4.98990155 51.6469142,4.93407285 51.653009,4.91800096 L52.2709489,4.90666604 L51.5514298,9.02073371 L50.9257021,9.02073371 C51.1060051,7.93968706 50.7966965,7.37175692 49.6918537,7.37175692 L47.4061531,7.37175692 L46.6644558,11.6132155 C46.4824598,12.6501068 46.6901892,12.6744684 47.6362299,12.6744684 L49.7676995,12.6744684 C50.8310642,12.6744684 51.4164988,12.2782538 51.7898022,10.8207863 L52.4096045,10.8168953 L51.8519348,13.6619597 L44.1072002,13.6619597 L45.9171717,3.31165699 C46.0861317,2.35241841 46.1475871,1.9020669 45.9725324,1.64694666 C45.8091592,1.4087442 45.4311154,1.33092238 44.6636847,1.19947117 C44.6254232,1.19371912 44.4955712,1.16732737 44.4554474,1.15988354 L44.558381,0.66774509 L53.8376384,0.66774509 L53.3840874,3.59232309 L52.7592061,3.59232309" id="Fill-1" fill="#FFFFFF"></path>
                    <path d="M56.5875558,7.89705423 C56.8078133,8.0388253 57.0456779,8.18245732 57.2821881,8.33167221 C58.228906,8.93800573 59.1718993,9.6945692 58.9096557,11.1899325 C58.576476,13.1004583 56.859788,13.8725861 54.9507768,13.8725861 C54.3628027,13.8725861 53.8659112,13.8155732 53.4631498,13.7428267 C53.0801963,13.6744788 52.6977507,13.5699269 52.4879898,13.5122372 L52.7866325,11.9114761 C53.3620785,12.3631811 54.1376355,12.9436304 55.1745896,12.9436304 C56.3662825,12.9436304 56.8931398,12.3423722 57.0079243,11.6947593 C57.0874947,11.2439002 56.8980495,10.8970856 56.5648698,10.5866442 C56.3976028,10.4308313 56.1968146,10.2851692 55.977065,10.1396762 C55.7551145,9.99553665 55.5174193,9.85258134 55.2805705,9.7045507 C54.3363921,9.11039799 53.3795163,8.40492623 53.6163651,7.05268744 C53.8620174,5.64749597 55.0310243,4.44700974 57.3135083,4.44700974 C57.805998,4.44700974 58.2539622,4.50977473 58.6184621,4.5811678 C58.9071162,4.63953417 59.1436264,4.70212998 59.3068303,4.74476281 C59.3349338,4.75423677 59.4227998,4.77741414 59.4480253,4.78435043 L59.1844274,6.32979036 C59.0478034,6.22506925 58.9572286,6.14927756 58.8412591,6.06384273 C58.7151316,5.96910312 58.5609006,5.86150599 58.3794124,5.75915337 C58.0186371,5.55546321 57.5600071,5.37664219 57.0312875,5.37664219 C56.4224897,5.37664219 55.6841784,5.60384808 55.5462,6.39509302 C55.4695078,6.83123359 55.6614924,7.16062293 55.99518,7.46209791 C56.1627856,7.61317375 56.3662825,7.7542681 56.5875558,7.89705423" id="Fill-2" fill="#FFFFFF"></path>
                    <path d="M61.7899331,4.65695949 L62.0498065,3.16176539 L64.3707213,1.37676958 L63.7964604,4.65695949 L66.3105449,4.65695949 L66.1607156,5.50978518 L63.6473083,5.50978518 L62.6779044,11.0557744 C62.4425793,12.395494 62.4375004,12.9436304 63.8694281,12.9436304 C64.0920558,12.9436304 64.3786783,12.9172386 64.6102788,12.8646243 L64.4690838,13.7154199 C63.9865827,13.8006855 63.5636748,13.8725861 63.1451686,13.8725861 C61.2969356,13.8725861 60.2289999,13.5773707 60.6200797,11.3479446 L61.6412889,5.50978518 L60.1431655,5.50978518 L60.2924868,4.65695949 L61.7899331,4.65695949" id="Fill-3" fill="#FFFFFF"></path>
                    <path d="M70.5304823,8.62993281 L70.721959,7.68456682 C70.9406928,6.44567721 71.1484223,5.18428694 70.0021013,5.18428694 C68.8244601,5.18428694 68.5308963,6.16924055 68.3771731,6.99922723 C68.3727714,7.02561898 68.3609205,7.10462505 68.3558415,7.13152433 L65.9729634,7.14032158 C66.4420899,5.78436088 67.33277,4.44700974 70.0962313,4.44700974 C72.8612164,4.44700974 73.0433817,5.88637514 72.7093555,7.7948708 L71.6835752,13.6619597 L69.6772172,13.6619597 L69.8605676,12.6130568 C69.7347788,12.7379101 69.6545312,12.8157319 69.5636179,12.8998133 C69.4049851,13.0442912 69.2146934,13.2012883 68.9925736,13.3454278 C68.5447788,13.6348912 67.9637459,13.8725861 67.2139223,13.8725861 C65.6970067,13.8725861 64.783302,12.7791895 64.9866297,11.6167683 C65.45965,8.91719685 69.2429663,8.67341152 70.5304823,8.62993281 M67.2403329,11.3053118 C67.0866098,12.178608 67.4186044,12.7522902 68.0875032,12.7522902 C69.1715223,12.7522902 70.009889,11.7612462 70.2355641,10.465682 L70.4211154,9.40493667 C69.5900285,9.4345428 67.5388064,9.59560014 67.2403329,11.3053118 M67.2403329,11.3053118 C67.0866098,12.178608 67.4186044,12.7522902 68.0875032,12.7522902 C69.1715223,12.7522902 70.009889,11.7612462 70.2355641,10.465682 L70.4211154,9.40493667 C69.5900285,9.4345428 67.5388064,9.59560014 67.2403329,11.3053118 M70.5304823,8.62993281 L70.721959,7.68456682 C70.9406928,6.44567721 71.1484223,5.18428694 70.0021013,5.18428694 C68.8244601,5.18428694 68.5308963,6.16924055 68.3771731,6.99922723 C68.3727714,7.02561898 68.3609205,7.10462505 68.3558415,7.13152433 L65.9729634,7.14032158 C66.4420899,5.78436088 67.33277,4.44700974 70.0962313,4.44700974 C72.8612164,4.44700974 73.0433817,5.88637514 72.7093555,7.7948708 L71.6835752,13.6619597 L69.6772172,13.6619597 L69.8605676,12.6130568 C69.7347788,12.7379101 69.6545312,12.8157319 69.5636179,12.8998133 C69.4049851,13.0442912 69.2146934,13.2012883 68.9925736,13.3454278 C68.5447788,13.6348912 67.9637459,13.8725861 67.2139223,13.8725861 C65.6970067,13.8725861 64.783302,12.7791895 64.9866297,11.6167683 C65.45965,8.91719685 69.2429663,8.67341152 70.5304823,8.62993281" id="Fill-4" fill="#FFFFFF"></path>
                    <g id="Group-8" transform="translate(73.137004, 0.000000)">
                        <mask id="mask-6" fill="white">
                            <use xlink:href="#path-5"></use>
                        </mask>
                        <g id="Clip-6"></g>
                        <path d="M6.41557121,8.58679245 C6.60772514,7.4957643 6.72809646,5.56730566 4.96197325,5.56730566 C3.23766681,5.56730566 2.68118224,7.72550786 2.44416418,9.08163775 C2.18107412,10.5844448 1.96589558,12.7522902 3.70848627,12.7522902 C5.50948499,12.7522902 6.09864419,10.4017327 6.27894722,9.37245452 L6.41557121,8.58679245 L6.41557121,8.58679245 Z M9.9007526,0.142278597 L7.53497368,13.6619597 L5.52844644,13.6619597 L5.70536349,12.6526444 C5.5455456,12.784434 5.42923744,12.877651 5.30260208,12.9750975 C5.11298762,13.1173761 4.89967136,13.2645608 4.66011381,13.3973655 C4.17930573,13.6644973 3.5947176,13.8725861 2.895345,13.8725861 C0.352818324,13.8725861 -0.217379428,11.7346853 0.201126761,9.33489703 C0.628944373,6.89518283 2.03750889,4.44700974 4.60424527,4.44700974 C6.12877934,4.44700974 6.62567079,5.19697528 6.89130033,5.82377932 C6.92380566,5.73919038 6.95885048,5.55478649 7.00151373,5.30914021 L7.17843079,4.26125243 C7.30286527,3.5165314 7.43000854,2.79414186 7.43000854,2.79414186 C7.6548371,1.50720573 7.44389102,1.18255338 6.46957746,1.10726922 C6.43758003,1.10456237 6.30823588,1.0928891 6.27369896,1.09085897 L6.36867549,0.634586226 L9.9007526,0.142278597 L9.9007526,0.142278597 Z" id="Fill-5" fill="#FFFFFF" mask="url(#mask-6)"></path>
                        <path d="M14.1565813,4.44700974 C16.9762498,4.44700974 18.0125267,6.39932247 17.5256238,9.17553147 C16.9762498,12.3183489 15.3880595,13.8725861 12.5235268,13.8725861 C9.39336463,13.8725861 8.67790866,11.8600461 9.14906672,9.16165888 C9.71130744,5.94237302 11.3281093,4.44700974 14.1565813,4.44700974 M15.3304979,9.16165888 C15.6435311,7.36989596 15.8429649,5.18428694 14.0423047,5.18428694 C12.1850989,5.18428694 11.643174,7.47444789 11.3458856,9.17553147 C11.0623104,10.7981165 10.7975274,13.1353089 12.6362797,13.1353089 C14.4752013,13.1353089 14.99207,11.0933319 15.3304979,9.16165888 M15.3304979,9.16165888 C15.6435311,7.36989596 15.8429649,5.18428694 14.0423047,5.18428694 C12.1850989,5.18428694 11.643174,7.47444789 11.3458856,9.17553147 C11.0623104,10.7981165 10.7975274,13.1353089 12.6362797,13.1353089 C14.4752013,13.1353089 14.99207,11.0933319 15.3304979,9.16165888 M14.1565813,4.44700974 C16.9762498,4.44700974 18.0125267,6.39932247 17.5256238,9.17553147 C16.9762498,12.3183489 15.3880595,13.8725861 12.5235268,13.8725861 C9.39336463,13.8725861 8.67790866,11.8600461 9.14906672,9.16165888 C9.71130744,5.94237302 11.3281093,4.44700974 14.1565813,4.44700974" id="Fill-7" fill="#E05431" mask="url(#mask-6)"></path>
                    </g>
                    <path d="M3.4846735,6.30661299 L4.72072272,6.30661299 C6.36071845,6.30661299 7.69445298,5.77674787 8.02136862,3.90648641 C8.31628681,2.21876789 7.47368758,1.65523637 5.74023901,1.65523637 C4.59256366,1.65523637 4.28816475,1.71174178 4.13020913,2.61752015 L3.4846735,6.30661299 L3.4846735,6.30661299 Z M10.2335937,3.82646528 C9.91361929,5.6595076 8.5014995,6.41505601 7.50365344,6.74292274 C8.76932992,7.03323198 10.1953322,7.77812219 9.77191635,10.1944898 C9.46819462,11.9297473 8.32881491,12.7974607 7.07278845,13.2305561 C6.44655285,13.4455811 5.78899701,13.5548701 5.19103429,13.6074844 C4.59391805,13.6619597 4.05300896,13.6619597 3.65786598,13.6619597 L0,13.6619597 L1.81132594,3.31165699 C1.97876227,2.35241841 2.04411154,1.90155936 1.87142695,1.64694666 C1.70145113,1.39487162 1.22284393,1.28964297 0.365854318,1.14685684 L0.450334329,0.66774509 L6.18684877,0.66774509 C8.38586854,0.66774509 10.6961175,1.18424516 10.2335937,3.82646528 L10.2335937,3.82646528 Z M2.50020202,11.9385446 C2.37272016,12.6626259 3.07429364,12.6744684 4.16288377,12.6744684 C6.25270593,12.6744684 7.30184948,11.7499113 7.64044672,9.81451632 C7.96550007,7.95660485 6.70253237,7.29461181 5.02224356,7.29461181 L3.3119889,7.29461181 L2.50020202,11.9385446 L2.50020202,11.9385446 Z" id="Fill-9" fill="#FFFFFF"></path>
                    <path d="M15.4788035,8.62993281 L15.6712961,7.68456682 C15.8885062,6.44567721 16.0974207,5.18428694 14.9499146,5.18428694 C13.7878489,5.18428694 13.4854816,6.14487894 13.3312505,6.96928274 C13.3236321,7.00565599 13.3122891,7.09718122 13.306025,7.13287775 L10.9206075,7.14032158 C11.3912576,5.78436088 12.2802447,4.44700974 15.0445526,4.44700974 C17.8113999,4.44700974 17.9922108,5.88637514 17.658354,7.7948708 L16.6313885,13.6619597 L14.6248613,13.6619597 L14.8093968,12.6130568 C14.6825921,12.7379101 14.6023446,12.8157319 14.5132935,12.8998133 C14.353137,13.0434453 14.1630147,13.2012883 13.9408949,13.3454278 C13.4931,13.6348912 12.9120672,13.8725861 12.1622436,13.8725861 C10.6451586,13.8725861 9.73230047,12.7791895 9.93562811,11.6167683 C10.4079713,8.91719685 14.1912875,8.67341152 15.4788035,8.62993281 M12.187977,11.3053118 C12.034931,12.178608 12.3655712,12.7522902 13.0356551,12.7522902 C14.1184891,12.7522902 14.9575331,11.7612462 15.1838853,10.465682 L15.3696059,9.40493667 C14.5383497,9.4345428 12.486789,9.59560014 12.187977,11.3053118" id="Fill-10" fill="#FFFFFF"></path>
                    <path d="M70.7513227,8.58154793 L70.9438152,7.63618194 C71.1610253,6.39729233 71.3699398,5.13590206 70.2224338,5.13590206 C69.0603681,5.13590206 68.7580007,6.09649406 68.6037697,6.92089787 C68.5961512,6.95727111 68.5848082,7.04879635 68.5785442,7.08449288 L66.1931266,7.09193671 C66.6637768,5.735976 67.5527638,4.39862487 70.3170717,4.39862487 C73.0839191,4.39862487 73.26473,5.83799026 72.9308731,7.74648592 L71.9039077,13.6135748 L69.8973804,13.6135748 L70.0819159,12.5646719 C69.9551113,12.6895252 69.8748637,12.767347 69.7858126,12.8514284 C69.6256561,12.9950605 69.4355338,13.1529034 69.213414,13.297043 C68.7656192,13.5865063 68.1845863,13.8242012 67.4347627,13.8242012 C65.9176778,13.8242012 65.0048196,12.7308046 65.2081473,11.5683834 C65.6804904,8.86881197 69.4638067,8.62502665 70.7513227,8.58154793 M67.4604961,11.2569269 C67.3074501,12.1302231 67.6380903,12.7039053 68.3081743,12.7039053 C69.3910083,12.7039053 70.2300522,11.7128613 70.4564045,10.4172971 L70.6421251,9.3565518 C69.8108688,9.38615793 67.7593082,9.54721527 67.4604961,11.2569269" id="Fill-10" fill="#FFFFFF"></path>
                    <path d="M24.6332878,8.64431293 C24.9024726,7.09667369 25.1127415,5.83714437 23.8885432,5.83714437 C22.6530018,5.83714437 21.2557803,7.59236487 21.0192702,8.94731051 L20.1956324,13.6619597 L18.1885972,13.6619597 L19.3203585,7.1868455 C19.5450178,5.91158264 19.3159568,5.58946796 18.246836,5.53465433 C18.2187324,5.53414679 18.1007313,5.51976667 18.0712733,5.51908996 L18.1571077,5.06518571 L21.8085403,4.43753578 L21.3946052,6.80551856 C22.0144075,5.89415732 23.2756822,4.44700974 24.99965,4.44700974 C26.787782,4.44700974 27.1516048,5.71702808 26.8913928,7.19987219 L25.762171,13.6619597 L23.7542894,13.6619597 L24.6332878,8.64431293" id="Fill-11" fill="#FFFFFF"></path>
                    <path d="M32.9207939,7.1592695 C33.0699459,6.2751459 33.0536933,5.18428694 31.9356452,5.18428694 C30.6721696,5.18428694 30.1387096,6.55733461 29.8143335,8.40932485 C29.3194736,11.2406858 30.3513487,12.7522902 32.0555086,12.7522902 C32.6202888,12.7522902 33.3780694,12.6477383 33.8656495,12.5054597 C33.8825793,12.5002152 33.9421724,12.4802522 33.9584251,12.4746693 L33.8047019,13.4137757 C33.4082046,13.5486105 33.1303855,13.6526549 32.7249154,13.7353829 C32.3108109,13.8206485 31.7893712,13.8725861 30.9919747,13.8725861 C28.2703301,13.8725861 26.9985588,11.9422665 27.5086556,9.02817754 C27.9691478,6.38815673 29.3909176,4.44700974 32.1652141,4.44700974 C34.2470792,4.44700974 35.4873609,5.47155098 35.2992702,6.99042998 C35.2953763,7.02561898 35.2828482,7.11968188 35.277092,7.15487088 L32.9207939,7.1592695" id="Fill-12" fill="#FFFFFF"></path>
                    <path d="M40.3530471,4.22944699 C43.1720384,4.22944699 44.2091618,6.18175971 43.7236133,8.95796872 C43.1720384,12.1007862 41.5846946,13.6550234 38.7193154,13.6550234 C35.5905076,13.6550234 34.8753903,11.6424833 35.3457018,8.94409613 C35.9098048,5.72481026 37.526776,4.22944699 40.3530471,4.22944699 M41.5276409,8.94409613 C41.8401662,7.15233321 42.0402772,4.96672418 40.2389398,4.96672418 C38.3825805,4.96672418 37.8396398,7.25688514 37.5425207,8.95796872 C37.2586069,10.5805538 36.9941625,12.9177462 38.8329148,12.9177462 C40.6718364,12.9177462 41.1895516,10.8757692 41.5276409,8.94409613" id="Fill-1" fill="#FFFFFF"></path>
                    <path d="M87.2487649,4.22944699 C90.0677562,4.22944699 91.1048795,6.18175971 90.6193311,8.95796872 C90.0677562,12.1007862 88.4804123,13.6550234 85.6150332,13.6550234 C82.4862254,13.6550234 81.771108,11.6424833 82.2414196,8.94409613 C82.8055226,5.72481026 84.4224937,4.22944699 87.2487649,4.22944699 M88.4233587,8.94409613 C88.7358839,7.15233321 88.9359949,4.96672418 87.1346576,4.96672418 C85.2782982,4.96672418 84.7353575,7.25688514 84.4382385,8.95796872 C84.1543247,10.5805538 83.8898802,12.9177462 85.7286325,12.9177462 C87.5675542,12.9177462 88.0852693,10.8757692 88.4233587,8.94409613" id="Fill-1-Copy" fill="#FFFFFF"></path>
                </g>
                <g id="Page-1" transform="translate(0.000000, 1.000000)" fill="#FFFFFF">
                    <path d="M97.2557839,15.4685256 L97.2557839,16.0370746 L101.337185,16.0370746 L101.337185,15.4290259 L100.731774,15.4290259 C100.42231,15.4290259 100.106907,15.0522445 100.106907,14.7430013 L100.106907,10.425876 C100.144592,10.3000093 100.189854,10.1772125 100.243104,10.0685374 C100.504643,9.53457607 101.12992,8.86410568 101.982738,8.61421424 C102.835351,8.3643228 103.346755,9.31865841 103.346755,9.31865841 L103.665025,9.32991478 L103.665025,7.47813941 C103.665025,7.47813941 103.039953,7.21678694 102.459939,7.22824797 C101.880334,7.239709 101.323258,7.6257002 100.87985,8.05753553 C100.618516,8.31213417 100.312943,8.87515739 100.106907,9.29368973 L100.106907,7.23438781 L99.852946,7.23438781 C99.0699675,7.78656397 98.194416,8.39113343 97.2557839,8.62935917 L97.2557839,9.27670284 C97.2557839,9.27670284 97.9261184,8.89071164 98.2714236,9.080228 C98.6163192,9.26933503 98.622873,9.63608807 98.622873,10.0018178 L98.622873,14.7235585 C98.622873,15.1699247 98.2873986,15.4128577 97.9783443,15.4294353 L97.2557839,15.4685256 Z M90.2607935,10.3697988 L95.0117097,10.3697988 C94.979555,9.22226294 94.1080997,7.92000314 92.7438779,7.96339133 C91.3796561,8.00657486 90.2859848,8.93102992 90.2607935,10.3697988 L90.2607935,10.3697988 Z M92.8694248,7.19018097 C95.0301424,7.19018097 96.584835,8.77589666 96.6810945,11.086318 L90.2800454,11.086318 C90.2800454,11.086318 90.2497339,11.9690221 90.615315,13.0950686 C90.9806913,14.2213197 91.5596817,14.8911761 92.8694248,15.3172809 C94.1787582,15.743181 96.3724498,14.6476291 96.3724498,14.6476291 L96.3450056,15.3133923 C95.4805138,16.0462844 94.0583315,16.291264 92.8694248,16.291264 C90.5370786,16.291264 88.5744097,14.2303247 88.5744097,11.7406201 C88.5744097,9.25071086 90.5370786,7.19018097 92.8694248,7.19018097 L92.8694248,7.19018097 Z M85.0377963,9.31149526 L85.0377963,14.0420364 C84.6036047,14.6750537 83.9037779,15.0735293 82.896945,15.0735293 C80.9410347,15.0735293 79.6765541,13.5074611 79.6765541,11.5124228 C79.6765541,9.51717986 80.7593706,7.94497181 82.8623325,8.0116914 C83.9490404,8.04648382 84.6281815,8.56755146 85.0377963,9.31149526 L85.0377963,9.31149526 Z M85.4787465,16.291264 L88.1117499,15.2126989 L88.121171,14.6140647 L87.1469024,14.8813523 C86.8487029,14.9628075 86.5218304,14.5041616 86.5218304,14.1949183 L86.5218304,0.781007956 L86.268074,0.781007956 C85.4848907,1.33359344 84.6093393,1.69973249 83.6707072,1.93795824 L83.6707072,2.58509724 C83.6707072,2.58509724 84.3412464,2.19931071 84.6863468,2.38882706 C85.0314472,2.5779341 85.0377963,2.94448247 85.0377963,3.31000754 L85.0377963,7.94456249 C84.4524568,7.49737757 83.6457207,7.26938489 82.6038656,7.28145991 C79.9888853,7.31195444 78.187195,9.30515076 78.187195,11.7862596 C78.187195,14.2673684 79.6845416,16.2910593 82.1168337,16.2910593 C83.3358471,16.2910593 84.3351022,15.7446136 85.0441453,14.8604769 C85.0631924,15.4810099 85.1424528,15.7378598 85.4787465,16.291264 L85.4787465,16.291264 Z M67.3764387,15.4685256 L67.3764387,16.0370746 L71.4578397,16.0370746 L71.4578397,15.4290259 L70.8522243,15.4290259 C70.5429652,15.4290259 70.2275619,15.0522445 70.2275619,14.7430013 L70.2275619,9.42467295 C70.8442368,9.04011439 72.0204455,8.35818296 72.6145916,8.35920627 C73.4422182,8.36104822 74.3867897,9.18358195 74.3867897,10.1113116 L74.3867897,14.7235585 C74.3867897,15.1699247 74.0513152,15.4128577 73.7422609,15.4294353 L73.0201102,15.4685256 L73.0201102,16.0370746 L77.1011016,16.0370746 L77.1011016,15.4290259 L76.4958958,15.4290259 C76.1868415,15.4290259 75.8712334,15.0522445 75.8712334,14.7430013 L75.8712334,9.98728685 C75.8712334,8.84650481 74.6493527,7.22722466 73.1092014,7.26099378 C71.8103131,7.2894417 70.8923666,8.06735927 70.2275619,8.79779542 L70.2275619,7.23438781 L69.973396,7.23438781 C69.1906222,7.78656397 68.3150708,8.15270303 67.3764387,8.39092877 L67.3764387,9.03786311 C67.3764387,9.03786311 68.0467732,8.65228124 68.3920784,8.84159293 C68.7371788,9.03090463 68.743323,9.39724834 68.743323,9.76318273 L68.743323,14.7235585 C68.743323,15.1701294 68.4080533,15.4128577 68.0987942,15.4294353 L67.3764387,15.4685256 Z M63.965577,11.6061577 L63.9852385,14.3901652 C63.9858529,14.4720297 62.4301362,15.526854 61.5246829,15.0174521 C60.6194344,14.5076408 60.5287047,13.6548172 60.9194771,13.076649 C61.3100448,12.4982762 63.965577,11.6061577 63.965577,11.6061577 L63.965577,11.6061577 Z M61.1734383,9.92015794 L59.9237038,10.4885023 C59.9237038,10.4885023 59.5136794,9.60620752 59.650286,9.13569121 C59.7868925,8.6651749 60.4072539,8.14738183 61.1294047,7.70490412 C61.8517602,7.26201708 62.7047829,7.17483137 63.4777258,7.31256842 C64.2506688,7.45051013 65.4500207,7.99613714 65.4500207,9.13569121 L65.4500207,13.8216161 C65.4500207,13.8216161 65.4692726,14.7430013 65.7232337,14.841034 C65.9771948,14.9390668 66.4066758,14.8999765 66.5629439,14.8213866 C66.7192119,14.7430013 66.8363617,14.664616 66.8363617,14.664616 L66.8558184,15.1351323 L65.1178231,16.0172225 C65.1178231,16.0172225 64.6781018,16.301497 64.4149243,16.1156646 C64.1517468,15.9296275 64.0542585,15.488787 64.0243567,15.1351323 C64.0243567,15.1351323 63.1653946,15.8410091 62.3648027,16.0370746 C61.5644155,16.2331401 60.4707442,16.3704679 59.8845856,15.7626238 C59.2984269,15.1545751 58.9082689,14.3314274 59.3379547,13.409633 C59.7674358,12.4882478 60.9782569,11.9786412 61.661699,11.7236332 C62.3451412,11.4688299 63.9461203,10.8806334 63.9461203,10.8806334 C63.9461203,10.8806334 63.9530837,9.78528615 63.9266636,9.35140421 C63.9004482,8.91752227 63.5659978,8.18135561 62.8919768,8.05753553 C62.2175462,7.9339201 61.6029193,8.11647798 61.3100448,8.43001908 C61.0171703,8.74376484 60.9389338,9.05730594 60.978052,9.29266642 C61.0171703,9.52823157 61.1734383,9.92015794 61.1734383,9.92015794 L61.1734383,9.92015794 Z M55.4101593,4.62577498 L55.4101593,7.34940746 L58.5185205,7.34940746 L58.2031172,8.24971248 L55.4101593,8.24971248 L55.4101593,12.7060074 C55.4101593,12.7060074 55.29772,14.259182 56.3111068,14.7767704 C57.3244936,15.2945635 58.5633733,14.4165665 58.5633733,14.4165665 L58.9015103,14.8217959 L57.4598713,16.0370746 C57.4598713,16.0370746 56.1761388,16.2179952 55.2526624,15.7896391 C54.3289812,15.3610784 53.9011387,14.5309722 53.9011387,13.0662113 L53.9011387,8.22699507 L52.0093331,8.22699507 L52.0093331,8.04689314 C53.2629589,7.19836742 54.3445466,6.11202529 55.1174895,4.6034669 L55.4101593,4.62577498 Z M42.0006024,15.4685256 L42.0006024,16.0370746 L46.0820034,16.0370746 L46.0820034,15.4290259 L45.476388,15.4290259 C45.1675385,15.4290259 44.8517256,15.0522445 44.8517256,14.7430013 L44.8517256,9.42467295 C45.4684006,9.04011439 46.6446092,8.35818296 47.2385505,8.35920627 C48.0665867,8.36104822 49.0111582,9.18358195 49.0111582,10.1113116 L49.0111582,14.7235585 C49.0111582,15.1699247 48.6756838,15.4128577 48.3668343,15.4294353 L47.6442739,15.4685256 L47.6442739,16.0370746 L51.7254701,16.0370746 L51.7254701,15.4290259 L51.1202644,15.4290259 C50.8110053,15.4290259 50.4953971,15.0522445 50.4953971,14.7430013 L50.4953971,9.98728685 C50.4953971,8.84650481 49.2735164,7.22722466 47.7335699,7.26099378 C46.4346817,7.2894417 45.5165303,8.06735927 44.8517256,8.79779542 L44.8517256,7.23438781 L44.5975597,7.23438781 C43.814786,7.78656397 42.9392345,8.15270303 42.0006024,8.39092877 L42.0006024,9.03786311 C42.0006024,9.03786311 42.6709369,8.65228124 43.0162421,8.84159293 C43.3615473,9.03090463 43.3676915,9.39724834 43.3676915,9.76318273 L43.3676915,14.7235585 C43.3676915,15.1701294 43.032217,15.4128577 42.7231627,15.4294353 L42.0006024,15.4685256 Z M38.6810848,11.6061577 L38.7005415,14.3901652 C38.7013607,14.4720297 37.1452344,15.526854 36.2399859,15.0174521 C35.3347374,14.5076408 35.2440077,13.6548172 35.6347801,13.076649 C36.0253478,12.4982762 38.6810848,11.6061577 38.6810848,11.6061577 L38.6810848,11.6061577 Z M35.8885365,9.92015794 L34.638802,10.4885023 C34.638802,10.4885023 34.2287776,9.60620752 34.3655889,9.13569121 C34.5019906,8.6651749 35.1221473,8.14738183 35.8445029,7.70490412 C36.5670632,7.26201708 37.4200859,7.17483137 38.1930288,7.31256842 C38.965767,7.45051013 40.1651189,7.99613714 40.1651189,9.13569121 L40.1651189,13.8216161 C40.1651189,13.8216161 40.1843708,14.7430013 40.4383319,14.841034 C40.6924978,14.9390668 41.1219788,14.8999765 41.2782468,14.8213866 C41.4345149,14.7430013 41.5514599,14.664616 41.5514599,14.664616 L41.5711214,15.1351323 L39.8331261,16.0172225 C39.8331261,16.0172225 39.3931999,16.301497 39.1300225,16.1156646 C38.866845,15.9296275 38.7695615,15.488787 38.7396597,15.1351323 C38.7396597,15.1351323 37.8804928,15.8410091 37.0801057,16.0370746 C36.2795137,16.2331401 35.1860472,16.3704679 34.5998886,15.7626238 C34.0139347,15.1545751 33.6235719,14.3314274 34.0530529,13.409633 C34.4827388,12.4882478 35.693355,11.9786412 36.377002,11.7236332 C37.0604441,11.4688299 38.6612184,10.8806334 38.6612184,10.8806334 C38.6612184,10.8806334 38.6681819,9.78528615 38.6417617,9.35140421 C38.6153416,8.91752227 38.2813008,8.18135561 37.607075,8.05753553 C36.9328492,7.9339201 36.3180175,8.11647798 36.0253478,8.43001908 C35.7324732,8.74376484 35.654032,9.05730594 35.6931502,9.29266642 C35.7324732,9.52823157 35.8885365,9.92015794 35.8885365,9.92015794 L35.8885365,9.92015794 Z M30.9979416,5.77842738 L31.7284894,5.77842738 L31.7284894,2.52124292 C31.7284894,2.52124292 29.4242019,1.93120442 28.1597212,1.93120442 C26.8950358,1.93120442 25.6129418,2.29713881 24.7875681,3.19498789 C23.9621945,4.09283698 23.7758198,4.79584852 23.7197026,5.4135163 C23.6635853,6.03138874 23.7475564,7.43516054 24.8154219,8.27775108 C25.8836971,9.11993229 28.3284825,10.1870363 28.8622105,10.4680362 C29.3959384,10.7486269 30.2391303,11.3104221 30.520126,12.0124103 C30.8011217,12.7141939 30.6886825,13.7534639 30.2954524,14.3430931 C29.9018126,14.9327223 28.8900643,15.6068766 27.9629014,15.6068766 C27.0355337,15.6068766 25.9396095,15.4101971 25.3495595,14.7080042 C24.7595095,14.006016 24.5907482,13.6130663 24.5063676,13.3042324 C24.4221918,12.9953985 24.3941332,12.6583214 24.3941332,12.6583214 L23.7473515,12.6583214 L23.7473515,15.8878766 C23.7473515,15.8878766 25.9115509,16.2243397 26.8389186,16.2806216 C27.7662863,16.3369034 29.1151476,16.2806216 29.9863981,15.7751082 C30.8570341,15.2697994 31.9812217,14.3150545 32.1780416,12.9953985 C32.3748614,11.6753332 32.1217195,10.9453064 31.643904,10.2993953 C31.166498,9.65368894 30.520126,9.09189369 29.6769341,8.67070076 C28.8339471,8.24971248 27.1197095,7.60359678 26.5016009,7.09849271 C25.8836971,6.59277466 25.181003,5.3574391 25.3495595,4.48680997 C25.518116,3.61638549 26.361103,2.99871771 27.1762363,2.85791075 C27.9911648,2.71792242 28.8339471,2.63339731 29.6769341,3.19498789 C30.520126,3.75678314 30.7730631,4.43073277 30.8570341,4.90800291 C30.9416196,5.3854777 30.9979416,5.77842738 30.9979416,5.77842738 L30.9979416,5.77842738 Z" id="Fill-1"></path>
                    <path d="M9.90511866,17.98281 C15.3605722,17.98281 19.8102168,15.7708308 19.8102168,13.058864 C19.8102168,11.0756961 17.4293313,9.35940647 14.0158071,8.58087491 C13.9965552,8.08047806 14.056359,7.34042282 13.69385,6.5252569 C13.1642181,5.33371886 11.9949729,4.00342046 11.049787,2.69174624 C10.1080828,1.38477923 10.3245641,0.412228774 10.2678325,4.09322583e-05 C9.85023029,0.260370095 8.80837527,1.35285207 9.33513979,3.21711178 C9.85719374,5.06417994 11.8049117,7.10383437 12.4047925,8.16561715 C13.0044684,9.22719527 12.9059561,10.1989271 12.7335083,10.7981753 C12.5610605,11.3974236 12.2350072,11.6434265 11.968348,11.8149326 C11.9859614,11.4168664 11.9720345,10.8781979 11.7281089,10.3018717 C11.484593,9.7251362 10.2999872,8.3467424 9.43979635,7.33244103 C8.57919584,6.31793501 7.74378663,4.79709695 8.12022255,3.58795804 C7.74890682,3.81410877 6.95671196,4.80589739 6.99869747,5.9642803 C7.04068298,7.12245855 8.0047112,8.69221066 8.60131503,9.43410784 C9.19771406,10.1758004 10.2346537,11.6632786 10.4392563,12.4817191 C10.6440636,13.2997503 10.5709474,13.884263 10.3956323,14.3079118 C10.249195,14.6584966 9.75212757,15.0528789 9.75212757,15.0528789 C9.75212757,15.0528789 9.79616115,14.4831019 9.59135379,14.0449221 C9.38675125,13.6067423 7.01815417,10.392332 6.78426417,10.0564828 C6.57044529,9.74928623 6.01500773,9.11258495 6.04409038,8.52561637 C2.49764619,9.27651865 2.04807357e-05,11.027396 2.04807357e-05,13.058864 C2.04807357e-05,15.7708308 4.44966511,17.98281 9.90511866,17.98281" id="Fill-3"></path>
                </g>
                <g id="Page-1" transform="translate(139.000000, 38.000000)" fill="#FFFFFF">
                    <path d="M53.4861885,6.13303914 L53.4861885,3.45539025 L53.0686456,3.45539025 C52.9461772,3.74998302 52.7741873,3.87291846 52.5532923,3.87291846 C51.9637594,3.87291846 51.6937538,3.45539025 50.7851046,3.45539025 C49.3366496,3.45539025 48.1331312,4.60991433 48.1331312,5.9613818 C48.1331312,8.90895414 52.7493238,8.24514391 52.7493238,10.6773331 C52.7493238,11.5370588 52.0866387,12.1759942 51.2273056,12.1759942 C50.1466666,12.1759942 48.7962273,11.4636676 48.4277949,9.64574444 L48.0106629,9.64574444 L48.0106629,12.6181917 L48.4277949,12.6181917 C48.4526585,12.2985184 48.673348,12.0288006 48.9926698,12.0288006 C49.4098018,12.0288006 50.2450933,12.6671192 51.2026476,12.6671192 C52.7002132,12.6671192 53.9528422,11.4387927 53.9528422,9.98947027 C53.9528422,6.746894 49.3855547,7.33710743 49.3855547,5.12570865 C49.3855547,4.4133821 49.9746767,3.94651526 50.8346262,3.94651526 C51.8657437,3.94651526 52.823298,4.68392229 52.9952879,6.13303914 L53.4861885,6.13303914 Z" id="Fill-1"></path>
                    <path d="M57.0009265,6.675538 C57.0989423,5.05435265 57.9584808,3.97321979 59.4073468,3.97321979 C60.5124384,3.97321979 61.813767,4.7595543 61.7402039,6.675538 L57.0009265,6.675538 Z M63.3853068,7.09327178 C63.5079806,5.07840524 61.6417771,3.45742547 59.6284473,3.45742547 C57.1729164,3.45742547 55.2573969,5.52101392 55.2573969,8.14932417 C55.2573969,10.7780456 57.2218216,12.66936 59.9477691,12.66936 C61.4699927,12.66936 62.4768631,12.1535656 63.5324332,10.8025093 L63.5324332,10.1637796 C62.2804207,11.5641745 61.6664352,11.9814971 60.4633278,11.9814971 C59.2844675,11.9814971 56.9518159,10.9986304 57.0009265,7.09327178 L63.3853068,7.09327178 Z" id="Fill-3"></path>
                    <path d="M72.6038012,3.45746659 L72.1862582,3.45746659 C72.0393373,3.77713983 71.8178259,3.94879717 71.5969308,3.94879717 C71.1553462,3.94879717 70.442934,3.45746659 69.1418109,3.45746659 C66.6618275,3.45746659 64.6482922,5.59485741 64.6482922,8.27230072 C64.6482922,10.8759417 66.440727,12.6694011 69.0187261,12.6694011 C70.5902659,12.6694011 71.9162526,12.0306713 72.8497653,10.7534174 L72.8497653,10.1142765 C71.9411161,11.3672722 70.6642401,11.9324052 69.608259,11.9324052 C67.8398658,11.9324052 66.3427112,9.94261912 66.3427112,7.55997416 C66.3427112,5.42258334 67.5456131,3.94879717 69.2646902,3.94879717 C70.7133507,3.94879717 71.8178259,4.95612765 72.1862582,6.52838552 L72.6038012,6.52838552 L72.6038012,3.45746659 Z" id="Fill-5"></path>
                    <path d="M82.7974804,3.45746659 L82.3799374,3.45746659 L79.4335059,3.72800677 L79.4335059,4.1453294 C80.9316879,4.16938199 81.1279249,4.31739789 81.1279249,5.52105503 L81.1279249,10.2127482 C80.4155127,11.1711512 79.6548119,11.6374013 78.8199314,11.6374013 C77.6410711,11.6374013 76.8553012,10.900611 76.8553012,9.67269567 L76.8553012,3.45746659 L76.4379637,3.45746659 L73.638453,3.72800677 L73.638453,4.1453294 C74.8908765,4.1453294 75.1855402,4.46459149 75.1855402,5.29985348 L75.1855402,9.74629247 C75.1855402,11.3672722 76.3152899,12.6694011 78.033956,12.6694011 C79.2128163,12.6694011 80.2194812,12.1044737 81.0788143,10.9744133 L81.1279249,10.9744133 L81.1279249,12.4002999 L84.295457,12.399272 L84.295457,11.9815383 C83.1165967,11.9815383 82.7974804,11.7114092 82.7974804,10.7534174 L82.7974804,3.45746659 Z" id="Fill-7"></path>
                    <path d="M88.6176845,5.76945451 C89.4032489,5.00778931 89.8945606,4.71299097 90.4596409,4.71299097 C91.0487628,4.71299097 91.8100801,5.08138611 92.5220813,5.47445058 L93.1849719,3.92706761 C92.7427709,3.53400314 92.0800858,3.23920479 91.5887741,3.23920479 C90.9996522,3.23920479 90.2385404,3.73053538 88.6176845,5.13072475 L88.6176845,3.23920479 L88.2001415,3.23920479 L85.1556942,3.50933383 L85.1556942,3.92706761 C86.6286018,3.92706761 86.948129,4.07426121 86.948129,5.35172072 L86.948129,10.3098425 C86.948129,11.6364351 86.8010026,11.9803665 85.475016,11.9803665 L85.475016,12.3981002 L90.0665505,12.3981002 L90.0665505,11.9803665 C88.9125537,11.9803665 88.6176845,11.7102374 88.6176845,10.7518344 L88.6176845,5.76945451 Z" id="Fill-9"></path>
                    <path d="M96.5753922,0 C95.9860648,0 95.4953696,0.466661265 95.4953696,1.05646354 C95.4953696,1.64606024 95.9860648,2.13697967 96.5753922,2.13697967 C97.1647197,2.13697967 97.6313733,1.64606024 97.6313733,1.05646354 C97.6313733,0.466661265 97.1647197,0 96.5753922,0 L96.5753922,0 Z M97.3858202,3.25984479 L96.9682772,3.25984479 L94.0711617,3.52997382 L94.0711617,3.94729645 C95.3474213,3.94729645 95.7158537,4.11073068 95.7158537,5.31418224 L95.7158537,10.6452219 C95.7158537,11.6768105 95.3965319,11.9800375 94.0711617,11.9800375 L94.0711617,12.3973602 L98.8344807,12.3973602 L98.8344807,11.9800375 C97.6069207,11.9800375 97.3858202,11.504742 97.3858202,10.6452219 L97.3858202,3.25984479 Z" id="Fill-11"></path>
                    <path d="M109.45384,5.48884102 C109.133696,4.75020052 109.335481,4.29402372 110.000016,4.19555202 L110.000016,3.55599995 L105.814723,3.55599995 L105.814723,4.19555202 C106.824264,4.22001576 107.220437,4.47883802 107.66346,5.48884102 L110.714277,12.5467329 L110.130498,14.0630736 C109.589048,15.5901044 108.973624,16.2062206 107.914767,16.2062206 C107.619487,16.2062206 107.422633,16.1564708 107.078037,16.0088661 L106.511724,17.5112275 C106.954747,17.7823845 107.225369,17.8808562 107.595034,17.8808562 C108.653481,17.8808562 109.785902,16.723454 110.475094,14.7036536 L113.397484,6.06877556 C113.890029,4.61595831 114.456342,4.02451142 115.391499,4.02451142 L115.391499,3.55599995 L112.314174,3.55599995 L112.314174,4.02451142 C113.274605,4.07426121 113.348579,4.64062763 113.003572,5.67488879 L111.477444,10.280856 L109.45384,5.48884102 Z" id="Fill-13"></path>
                    <path d="M102.787495,0.624339322 L102.368925,0.624339322 C101.63021,2.12649521 100.645738,3.18583684 99.4637952,3.77707816 L99.4637952,4.19583983 L101.113213,4.19583983 L101.113213,10.0332172 C101.113213,11.5357842 102.147208,12.570251 103.624225,12.570251 C104.609108,12.570251 105.49536,12.0774813 106.258527,11.1170226 L105.987904,10.7967326 C105.470907,11.3877683 105.002815,11.6342559 104.362939,11.6342559 C103.402919,11.6342559 102.787495,11.0181397 102.787495,9.81139891 L102.787495,4.19583983 L105.83112,4.19583983 L105.83112,3.55525987 L102.787495,3.55525987 L102.787495,0.624339322 Z" id="Fill-15"></path>
                    <path d="M4.35755016,9.73556131 C4.35755016,10.5535548 3.81137433,11.0444742 2.70463883,11.0444742 L1.65297297,11.0444742 L1.65297297,8.5629464 L2.77306492,8.5629464 C3.784045,8.5629464 4.35755016,9.04009212 4.35755016,9.73556131 M3.81137433,5.99959869 C3.81137433,6.708636 3.22369079,7.18578172 2.63641822,7.18578172 L1.65297297,7.18578172 L1.65297297,4.84075747 L2.45908574,4.84075747 C3.3741049,4.84075747 3.81137433,5.3179032 3.81137433,5.99959869 M6.05176372,9.73556131 C6.05176372,8.67190255 5.34099541,7.79943101 4.34398823,7.567745 L4.34398823,7.55417687 C5.08188039,7.18578172 5.46449114,6.46317629 5.46449114,5.68568161 C5.46449114,4.59550334 4.63084355,3.45002467 2.86861487,3.45002467 L6.16451262e-05,3.45002467 L6.16451262e-05,12.435207 L2.85505294,12.435207 C5.12256618,12.435207 6.05176372,11.017338 6.05176372,9.73556131" id="Fill-17"></path>
                    <path d="M13.0998154,12.4352276 C13.0998154,12.4352276 10.6962719,5.95850371 10.6276404,5.6587715 C10.5592143,5.97248299 8.16902723,12.4352276 8.16902723,12.4352276 L6.54303428,12.4352276 L10.006463,3.44963408 L11.2085429,3.44963408 L14.8624551,12.4352276 L13.0998154,12.4352276 Z" id="Fill-19"></path>
                    <path d="M23.8529447,12.4955029 L23.8529447,3.51052618 L22.2140063,3.51052618 L22.2140063,8.51428617 C22.2140063,8.90961199 22.2140063,9.42787324 22.2415411,9.82278791 L22.2140063,9.82278791 C21.995577,9.45500949 21.749613,9.11416175 21.326111,8.56876425 L17.4058919,3.51052618 L15.7254457,3.51052618 L15.7254457,12.4955029 L17.3783571,12.4955029 L17.3783571,7.20496212 C17.3783571,6.78270563 17.3645897,6.30535432 17.3372603,6.00541653 L17.3645897,6.00541653 C17.6109647,6.38737981 17.8704907,6.72822755 18.2526904,7.23250952 L22.3237346,12.4955029 L23.8529447,12.4955029 Z" id="Fill-21"></path>
                    <path d="M32.6590127,11.7265397 L32.2083868,10.5399455 C31.5251533,10.9081351 30.8150015,11.1400267 29.9955322,11.1400267 C28.1373426,11.1400267 26.9903323,9.7355202 26.9903323,7.92211975 C26.9903323,6.23144916 28.0284363,4.71778092 30.1180006,4.71778092 C30.9241133,4.71778092 31.6484436,4.90896814 32.3994867,5.35897761 L32.4130486,3.8588775 C31.8802292,3.55914529 31.0334307,3.36795808 30.0769038,3.36795808 C27.1128006,3.36795808 25.2001579,5.45436564 25.2001579,8.03128148 C25.2001579,10.5946292 26.8670421,12.5716695 29.7360063,12.5716695 C30.7056841,12.5716695 31.6618,12.3260042 32.6590127,11.7265397" id="Fill-23"></path>
                    <path d="M40.9318298,7.97686508 C40.9318298,10.0081778 39.7572846,11.2214971 38.0906059,11.2214971 C36.4105707,11.2214971 35.2356146,10.0081778 35.2356146,7.97686508 C35.2356146,5.95850371 36.4105707,4.74559558 38.0906059,4.74559558 C39.8121488,4.74559558 40.9318298,6.01339295 40.9318298,7.97686508 M42.6944694,7.94952325 C42.6944694,6.69488285 42.3118587,5.5769516 41.56061,4.75895813 C40.7547028,3.87271288 39.5524173,3.36801975 38.1045788,3.36801975 C36.7383173,3.36801975 35.6044579,3.85893918 34.7985506,4.6773438 C33.9655195,5.5226791 33.5007152,6.69488285 33.5007152,8.03134316 C33.5007152,9.4354385 34.0062053,10.6491689 34.9216354,11.4671624 C35.7139808,12.1899734 36.792976,12.5715255 38.1045788,12.5715255 C39.4568674,12.5715255 40.5907267,12.0939687 41.4101959,11.2763864 C42.243638,10.4583929 42.6944694,9.27200427 42.6944694,7.94952325" id="Fill-25"></path>
                </g>
                <g id="Group-13" transform="translate(271.000000, 0.000000)">
                    <g id="Page-1">
                        <g id="Group-18">
                            <path d="M18.9187591,15.6994582 C19.5123713,15.6994582 19.9608711,15.587547 20.264421,15.3630722 C20.5674833,15.1390867 20.7194208,14.8093892 20.7194208,14.3744691 C20.7194208,13.9871847 20.5687833,13.6819576 20.267671,13.4574827 C19.9663961,13.2334973 19.5622588,13.1215861 19.055259,13.1215861 L17.4040973,13.1215861 L17.4040973,15.6994582 L18.9187591,15.6994582 Z M18.5092593,11.7443936 C18.9728716,11.7443936 19.3389839,11.6336244 19.6077588,11.4117597 C19.8763711,11.189895 20.0107586,10.8809157 20.0107586,10.4851482 C20.0107586,10.1327749 19.8872586,9.85316011 19.6402587,9.64646704 C19.3932589,9.44010023 19.068259,9.33650899 18.6652592,9.33650899 L17.4040973,9.33650899 L17.4040973,11.7443936 L18.5092593,11.7443936 Z M18.977259,7.95931647 C19.8092587,7.95931647 20.4873709,8.17710278 21.0119206,8.61202285 C21.5361454,9.0472692 21.7984203,9.59132713 21.7984203,10.2438704 C21.7984203,10.6614981 21.6888953,11.029043 21.4700079,11.3465053 C21.251283,11.6639676 20.9339207,11.9165019 20.5179209,12.1034555 L20.5179209,12.1817607 C21.1505331,12.3253202 21.6433953,12.6091765 21.9968327,13.0334928 C22.349945,13.4574827 22.5264199,13.9547207 22.5264199,14.5248804 C22.5264199,15.0291332 22.3975575,15.48053 22.1398326,15.8787445 C21.8819452,16.2766327 21.5244454,16.5759869 21.0670081,16.7759914 C20.6098958,16.9759959 20.0713711,17.0761613 19.4517588,17.0761613 L15.6490981,17.0761613 L15.6490981,7.95931647 L18.977259,7.95931647 Z" id="Fill-1" fill="#FFFFFF"></path>
                            <path d="M24.6763084,15.1190373 C24.6763084,15.3821754 24.7598333,15.5939257 24.9267207,15.7537988 C25.0939332,15.9136719 25.3009581,15.9936084 25.547633,15.9936084 C25.9641203,15.9936084 26.3804451,15.8027395 26.7967699,15.4211648 L26.7967699,13.5163911 C26.2671826,13.6971456 25.8521578,13.8674594 25.5516955,14.0278219 C25.2505831,14.1875318 25.0297457,14.349852 24.8885333,14.5152717 C24.7469958,14.6805282 24.6763084,14.8818378 24.6763084,15.1190373 M25.8329828,9.68465713 C26.7582574,9.68465713 27.4649696,9.88205146 27.9534444,10.2770033 C28.4417566,10.6716288 28.685994,11.2225384 28.685994,11.9297322 L28.685994,15.4671691 C28.685994,15.7407479 28.796494,15.8776188 29.0176564,15.8776188 C29.1101188,15.8776188 29.2399563,15.8376506 29.4071687,15.7578772 C29.5740561,15.6779406 29.7141311,15.585932 29.827231,15.4831564 L29.827231,16.5818761 C29.1640688,16.9898788 28.5574566,17.1936354 28.0073943,17.1936354 C27.6680945,17.1936354 27.4072821,17.136701 27.2246322,17.0233216 C27.0423073,16.9099423 26.9149073,16.7087958 26.8430824,16.419556 C26.1183327,16.9353914 25.390658,17.1936354 24.6608709,17.1936354 C24.1415211,17.1936354 23.6957838,17.0184276 23.3228465,16.6671962 C22.9502341,16.3161279 22.7640092,15.8957269 22.7640092,15.4051775 C22.7640092,14.7808568 22.9490966,14.2880235 23.319109,13.9268408 C23.6892838,13.5658212 24.3370085,13.2506429 25.2622831,12.9824476 L26.7967699,12.5334978 L26.7967699,12.2008639 C26.7967699,11.4936702 26.3700451,11.1399917 25.516758,11.1399917 C25.0797957,11.1399917 24.6454334,11.2409728 24.2136711,11.441793 C23.7819088,11.6434288 23.3884964,11.9401729 23.0339216,12.3321882 L23.0339216,10.6217092 C23.8204212,9.99689908 24.7534958,9.68465713 25.8329828,9.68465713" id="Fill-3" fill="#FFFFFF"></path>
                            <path d="M34.3107971,9.68472238 C35.0818593,9.68472238 35.6975715,9.93888798 36.1574463,10.4473823 C36.6176461,10.9557135 36.847746,11.6250597 36.847746,12.4560736 L36.847746,17.0543827 L34.9585218,17.0543827 L34.9585218,12.6493895 C34.9585218,12.1798846 34.8465594,11.8082613 34.6232845,11.5346825 C34.3993596,11.26143 34.0948347,11.1245591 33.7093849,11.1245591 C33.4163975,11.1245591 33.1412852,11.211021 32.8842103,11.3837819 C32.6271354,11.5570321 32.344548,11.8443143 32.0361232,12.2467703 L32.0361232,17.0543827 L30.139099,17.0543827 L30.139099,9.82404037 L32.0361232,9.82404037 L32.0361232,10.8384188 C32.385498,10.425359 32.7442978,10.1297569 33.1118727,9.95193885 C33.479285,9.7736314 33.8790348,9.68472238 34.3107971,9.68472238" id="Fill-5" fill="#FFFFFF"></path>
                            <g id="Group-9" transform="translate(37.073197, 9.526285)">
                                <mask id="mask-8" fill="white">
                                    <use xlink:href="#path-7"></use>
                                </mask>
                                <g id="Clip-8"></g>
                                <path d="M3.93308321,0.158437501 C4.77077033,0.158437501 5.52931999,0.321247042 6.20775718,0.645887308 L6.20775718,2.26403143 C5.53419499,1.87201607 4.89703278,1.67576369 4.29545805,1.67576369 C3.64773334,1.67576369 3.11814608,1.87854151 2.70702127,2.28344459 C2.29557146,2.68851081 2.09017155,3.23697342 2.09017155,3.92817985 C2.09017155,4.60437779 2.29703396,5.148762 2.71108377,5.56182188 C3.12464608,5.97488175 3.67584583,6.18108542 4.36484552,6.18108542 C4.87883279,6.18108542 5.53695749,6.01077163 6.33889462,5.67014406 L6.33889462,7.2104724 C5.59350746,7.51504696 4.82488281,7.66741581 4.03334567,7.66741581 C2.8662712,7.66741581 1.91922163,7.3316823 1.19170946,6.66103098 C0.464359789,5.99021652 0.100684954,5.09982126 0.100684954,3.99000832 C0.100684954,2.83941144 0.456722293,1.91296316 1.16879697,1.21131603 C1.88070915,0.509505769 2.80208373,0.158437501 3.93308321,0.158437501" id="Fill-7" fill="#FFFFFF" mask="url(#mask-8)"></path>
                            </g>
                            <polygon id="Fill-10" fill="#FFFFFF" points="15.75 0.0563553952 3.24999855e-05 0.0563553952 3.24999855e-05 5.33555624 4.07275715 5.33555624 4.07275715 17.0718546 11.4966788 17.0718546 11.4966788 5.33555624 15.75 5.33555624"></polygon>
                        </g>
                    </g>
                </g>
                <g id="Page-1" transform="translate(1.000000, 39.000000)" fill="#FFFFFF">
                    <g id="Group-15" transform="translate(108.422222, 0.000000)">
                        <g id="Group-17">
                            <path d="M11.2511836,1.54667761 C9.17333768,-0.231332498 6.1898646,-0.50308673 3.82718192,0.870250825 C2.29624074,1.75986281 1.18192426,3.26566348 0.770426328,5.00209868 L0.756704704,5.06006078 L9.28024571,5.06006078 L11.2810394,1.57201706 L11.2511836,1.54667761 Z" id="Fill-1"></path>
                            <g id="Group-5" transform="translate(0.574795, 5.279558)">
                                <path d="M4.10550986,0.0232455324 L0.132119635,0.0232455324 L0.124731069,0.0617857753 C0.0529564209,0.456443932 0.0163151616,0.851557289 0.0163151616,1.23620105 C0.0163151616,3.55165029 1.25684043,5.71096603 3.25401524,6.87172532 C4.78299619,7.76027517 6.63541541,7.9777089 8.33629362,7.46788522 L8.39298956,7.45104283 L8.36298293,7.39930179 C8.18475261,7.08748999 4.24287688,0.215339814 4.1459208,0.0464607181 L4.13219917,0.0232455324 L4.10550986,0.0232455324 Z" id="Fill-3"></path>
                            </g>
                            <path d="M11.4347065,1.78885903 L7.20286726,9.16764649 L9.20215309,12.6535659 L9.23879435,12.6403652 C11.8080553,11.7176753 13.534115,9.25367924 13.534115,6.50928013 C13.534115,4.72929749 12.7954091,3.00500095 11.5070843,1.77838944 L11.46411,1.737118 L11.4347065,1.78885903 Z" id="Fill-6"></path>
                        </g>
                    </g>
                    <path d="M8.91095824,5.38249391 C8.60365418,5.07326157 7.77899967,4.29183539 6.5010792,4.29183539 C5.23989611,4.29183539 4.28556471,5.21968415 4.28556471,6.53794254 C4.28556471,6.68406165 4.30154814,7.0914654 4.47992925,7.48187502 C4.70610986,7.95361367 5.32056719,8.73503985 6.63045452,8.73503985 C6.88935592,8.73503985 7.16439155,8.70226547 7.40685717,8.63717191 C8.05373372,8.47436215 8.47427887,8.1651298 9.00776355,7.75833299 L8.84596901,12.0710469 C7.85997233,12.363892 7.14840812,12.5591727 6.09681906,12.5591727 C5.41767407,12.5591727 3.5740005,12.4942309 2.02149677,11.1594336 C0.161538194,9.56471721 4.52361228e-05,7.35153617 4.52361228e-05,6.53794254 C4.52361228e-05,3.80386129 1.53626396,2.24161585 2.34478426,1.62315116 C2.9918116,1.11878987 4.12377017,0.467702539 6.06470141,0.467702539 C7.4228406,0.467702539 8.42602701,0.842331908 8.91095824,0.988451018 L8.91095824,5.38249391 Z" id="Fill-8"></path>
                    <path d="M15.672118,4.51982975 C15.2512712,4.73134589 14.5238744,5.33342338 14.5238744,6.57035276 C14.5403102,7.75842403 15.3001262,8.76714661 16.5453259,8.76714661 C16.9818545,8.76714661 17.2568901,8.66958213 17.4186847,8.58825312 C17.8392298,8.39312417 18.6154817,7.80743386 18.6154817,6.53803358 C18.6154817,6.08207519 18.518224,5.77299458 18.4536871,5.62672374 C18.1466847,4.81297837 17.4349697,4.29192643 16.5616109,4.30831362 C16.3996656,4.30831362 16.0603947,4.32454907 15.672118,4.51982975 M20.2165388,1.57468756 C20.7504759,1.93232281 22.0924808,3.02267787 22.5775629,4.89415566 C22.6422505,5.1545299 22.7554916,5.75660739 22.7554916,6.5052592 C22.7554916,10.0366986 20.2165388,12.559112 16.7071204,12.559112 C16.2704411,12.559112 15.3325455,12.5264894 14.2488388,12.1360797 C11.8068421,11.2572408 10.3837137,9.15816316 10.3837137,6.5541173 C10.3837137,6.31013025 10.3999987,5.70805275 10.561944,5.02449451 C11.0467244,2.95758431 12.389031,1.86753272 13.0360583,1.44434871 C13.6345322,1.06971934 14.782625,0.500416225 16.5132083,0.500416225 C17.159934,0.484029036 18.7127393,0.548970862 20.2165388,1.57468756" id="Fill-10"></path>
                    <path d="M28.1736361,5.83808814 L28.7393892,5.83808814 C29.1599343,5.83808814 29.5966137,5.82200442 29.8553643,5.43129132 C29.9199012,5.33342338 30.0171589,5.13814271 30.0171589,4.84529755 C30.0171589,3.80380059 28.8852003,3.9015168 28.7231042,3.9015168 L28.1736361,3.9015168 L28.1736361,5.83808814 Z M28.9821564,0.793261379 C29.3217289,0.793261379 29.6614522,0.793261379 30.0007231,0.825732292 C31.310912,0.907213042 32.5075582,1.26500002 33.3325143,2.35550682 C33.6235334,2.72983272 34.0763469,3.42977816 34.0763469,4.61739423 C34.0763469,6.11484957 33.3970512,6.84711419 32.8795499,7.22128836 C32.5722459,7.43310796 32.3137968,7.54675616 31.9577885,7.67709501 L34.7230727,12.282654 L30.2921945,12.282654 L28.1736361,8.06750464 L28.1736361,12.282654 L24.2601083,12.282654 L24.2601083,0.793261379 L28.9821564,0.793261379 Z" id="Fill-12"></path>
                    <path d="M40.3199451,5.90324239 L40.7245068,5.90324239 C41.1610354,5.90324239 41.6136982,5.87046801 41.9214546,5.51283277 C42.098931,5.33333235 42.1474845,5.12211967 42.1474845,4.87813263 C42.1474845,4.66646476 42.115216,4.48741953 41.9859915,4.32460977 C41.6946709,3.90142576 41.1610354,3.90142576 40.7082218,3.90142576 L40.3199451,3.90142576 L40.3199451,5.90324239 Z M40.9344024,0.793322072 C41.9374381,0.793322072 42.4222185,0.842331908 42.9074513,0.923509192 C43.4412376,1.0212254 44.6868896,1.29768336 45.5112425,2.61609348 C46.1258506,3.60858061 46.1582699,4.65007757 46.1582699,5.04063893 C46.1582699,5.52891649 46.0935822,7.14002003 44.7675607,8.1162717 C43.8454977,8.79982995 42.7782268,8.83260433 41.6785366,8.83260433 L40.3199451,8.83260433 L40.3199451,12.2827147 L36.1315325,12.2827147 L36.1315325,0.793322072 L40.9344024,0.793322072 Z" id="Fill-14"></path>
                    <path d="M51.6008117,9.4509628 L52.2963925,9.4509628 C52.5385565,9.4509628 52.9431182,9.4509628 53.1692988,9.35339832 C53.3633618,9.27206931 53.6708167,9.04416598 53.6708167,8.53980469 C53.6708167,8.32813682 53.622414,8.14878813 53.4930387,7.98628183 C53.2015673,7.59556874 52.7006526,7.59556874 52.2801075,7.59556874 L51.6008117,7.59556874 L51.6008117,9.4509628 Z M51.6008117,5.15448438 L52.0536253,5.15448438 C52.409332,5.15448438 52.8138937,5.13824892 53.0723428,4.84540377 C53.1530138,4.74768756 53.2501207,4.60111325 53.2501207,4.3082681 C53.2501207,4.22693908 53.2501207,3.99903575 53.1208962,3.83652945 C52.7976087,3.42973264 52.1183129,3.49467446 52.0536253,3.49467446 L51.6008117,3.49467446 L51.6008117,5.15448438 Z M53.0400743,0.793215859 C53.2664057,0.793215859 53.5091729,0.793215859 53.7353535,0.809603049 C54.1721837,0.825686772 55.7246874,0.874544875 56.5978954,2.192955 C56.9374679,2.69746802 57.0994132,3.28315833 57.0994132,3.90147128 C57.0994132,4.65012309 56.856646,5.34976505 56.3231613,5.85412634 C56.1776518,6.00085239 56.0154049,6.11480405 55.676134,6.32647192 C56.161216,6.55407178 56.5169227,6.74950419 56.9051994,7.13991382 C57.6004786,7.87233017 57.6167636,8.65314942 57.6167636,9.02777879 C57.6167636,9.38556577 57.5844952,10.134521 57.0187421,10.8667857 C56.7756733,11.176018 56.4846543,11.4363922 56.161216,11.6316729 C55.1749177,12.2499859 54.1721837,12.2660696 53.0563593,12.2827603 L47.6869824,12.2827603 L47.6869824,0.793215859 L53.0400743,0.793215859 Z" id="Fill-16"></path>
                    <path d="M76.1046824,0.793261379 L78.5622102,4.48735884 L79.1447006,5.41490413 C79.3713336,5.78923004 79.5815308,6.14732048 79.7912756,6.52164639 C79.775443,6.06599147 79.7593088,5.61048828 79.7593088,5.1545299 L79.7593088,0.793261379 L83.7215407,0.793261379 L83.7215407,12.282654 L79.7593088,12.282654 L77.52766,8.89748546 C77.2524736,8.50707583 76.9938738,8.10027902 76.7354247,7.6934822 C76.5246244,7.35162721 76.3307122,7.02600768 76.1366493,6.68415269 C76.1529343,7.28638192 76.1692193,7.87237569 76.1692193,8.47430145 L76.1692193,12.282654 L72.2068365,12.282654 L72.2068365,0.793261379 L76.1046824,0.793261379 Z" id="Fill-18"></path>
                    <path d="M94.0568819,5.38249391 C93.7495778,5.07326157 92.9247725,4.29183539 91.6470029,4.29183539 C90.3861213,4.29183539 89.4311868,5.21968415 89.4311868,6.53794254 C89.4311868,6.68406165 89.4474718,7.0914654 89.6257021,7.48187502 C89.8523351,7.95361367 90.4667924,8.73503985 91.776529,8.73503985 C92.0351288,8.73503985 92.3103152,8.70226547 92.55263,8.63717191 C93.1996574,8.47436215 93.6202025,8.1651298 94.153838,7.75833299 L93.992345,12.0710469 C93.0055944,12.363892 92.2940302,12.5591727 91.2427427,12.5591727 C90.5637485,12.5591727 88.7197734,12.4942309 87.1671188,11.1594336 C85.3074618,9.56471721 85.1459689,7.35153617 85.1459689,6.53794254 C85.1459689,3.80386129 86.6821876,2.24161585 87.4907079,1.62315116 C88.1377352,1.11878987 89.2696938,0.467702539 91.2103235,0.467702539 C92.5687642,0.467702539 93.5713475,0.842331908 94.0568819,0.988451018 L94.0568819,5.38249391 Z" id="Fill-20"></path>
                    <polygon id="Fill-22" points="67.0626872 0.793261379 62.0170501 0.793261379 58.3300045 12.282654 62.5993898 12.282654 64.5238852 4.76412027 66.4643641 12.282654 70.7500344 12.282654"></polygon>
                    <polygon id="Fill-24" points="103.793885 0.793261379 98.7477954 0.793261379 95.060599 12.282654 99.3302859 12.282654 101.25448 4.76412027 103.195109 12.282654 107.48093 12.282654"></polygon>
                </g>
                <g id="Group-14" transform="translate(267.000000, 38.000000)">
                    <g id="Page-1">
                        <g id="Group-3" transform="translate(34.536918, 0.115921)">
                            <mask id="mask-10" fill="white">
                                <use xlink:href="#path-9"></use>
                            </mask>
                            <g id="Clip-2"></g>
                            <path d="M8.1552161,8.23898206 L4.02365258,8.23898206 L6.07538256,2.36739791 L8.1552161,8.23898206 Z M7.50680239,0.033178199 C8.68698307,0.033178199 8.91215023,0.284334845 9.32625466,1.34421009 L13.8858051,12.9017661 L9.82314611,12.9017661 L8.83274918,10.123962 L3.36508095,10.123962 L2.37942438,12.9026362 L0.0349770949,12.9026362 L4.6348206,0.0308580452 L7.50680239,0.033178199 Z" id="Fill-1" fill="#FFFFFF" mask="url(#mask-10)"></path>
                        </g>
                        <g id="Group-6" transform="translate(12.697397, 0.115921)">
                            <mask id="mask-12" fill="white">
                                <use xlink:href="#path-11"></use>
                            </mask>
                            <g id="Clip-5"></g>
                            <path d="M5.5787112,5.69502045 L6.83219818,4.09193921 C7.1491252,3.69069761 7.21650605,3.43809087 7.21650605,3.15662722 C7.21650605,2.37009509 6.40844373,1.70928629 5.47848641,1.70928629 L3.55136022,1.70928629 L3.55136022,11.1771088 L4.61912662,11.1771088 C6.40573496,11.1771088 7.7619862,10.350119 7.7619862,8.41525575 C7.7619862,6.81855492 6.88671233,5.96618843 5.5787112,5.69502045 M6.32904268,12.9059134 L0.0167436335,12.9059134 L0.0167436335,0.029059926 L6.5591195,0.029059926 C9.62596401,0.029059926 10.6949155,2.17027184 9.14160065,4.14602779 L8.40769114,5.07843959 C13.5530148,7.36756131 11.8798365,12.9059134 6.32904268,12.9059134" id="Fill-4" fill="#FFFFFF" mask="url(#mask-12)"></path>
                        </g>
                        <g id="Group-9" transform="translate(0.000000, 0.115921)">
                            <mask id="mask-14" fill="white">
                                <use xlink:href="#path-13"></use>
                            </mask>
                            <g id="Clip-8"></g>
                            <path d="M5.56206914,5.69502045 L6.81589472,4.09193921 C7.13299104,3.69069761 7.19986399,3.43809087 7.19986399,3.15662722 C7.19986399,2.37009509 6.39281747,1.70928629 5.46302945,1.70928629 L3.53573396,1.70928629 L3.53573396,11.1771088 L4.60299246,11.1771088 C6.39027799,11.1771088 7.74585204,10.350119 7.74585204,8.41525575 C7.74585204,6.81855492 6.87108607,5.96618843 5.56206914,5.69502045 M6.31290852,12.9059134 L-6.77194475e-05,12.9059134 L-6.77194475e-05,0.029059926 L6.54298535,0.029059926 C9.60932195,0.029059926 10.6787813,2.17027184 9.1252972,4.14602779 L8.39155698,5.07843959 C13.5368806,7.36756131 11.8642103,12.9059134 6.31290852,12.9059134" id="Fill-7" fill="#FFFFFF" mask="url(#mask-14)"></path>
                        </g>
                        <g id="Group-12" transform="translate(23.193911, 0.115921)">
                            <mask id="mask-16" fill="white">
                                <use xlink:href="#path-15"></use>
                            </mask>
                            <g id="Clip-11"></g>
                            <path d="M10.7651914,0.029088928 L13.1377422,0.029088928 L8.55702945,12.9013021 L4.95029165,12.899562 L0.0365685019,0.0309740529 L2.69167876,0.029088928 C3.7171205,0.029088928 3.98647461,0.25573895 4.52230474,1.71337556 L7.36736805,9.80607193 L10.7651914,0.029088928 Z" id="Fill-10" fill="#FFFFFF" mask="url(#mask-16)"></path>
                        </g>
                    </g>
                </g>
            </g>
        </g>
    </g>
</svg>