<?xml version="1.0" encoding="UTF-8" standalone="no"?>
<svg width="24px" height="25px" viewBox="0 0 24 25" version="1.1" xmlns="http://www.w3.org/2000/svg" xmlns:xlink="http://www.w3.org/1999/xlink">
    <!-- Generator: Sketch 39.1 (31720) - http://www.bohemiancoding.com/sketch -->
    <title>Page 1</title>
    <desc>Created with Sketch.</desc>
    <defs></defs>
    <g id="SP2-Pago-fácil" stroke="none" stroke-width="1" fill="none" fill-rule="evenodd">
        <g id="1-PagoFacil-Correcciones" transform="translate(-37.000000, -781.000000)" fill="#720184">
            <g id="Page-1" transform="translate(37.000000, 781.000000)">
                <g id="Group-23">
                    <g id="Group-3" transform="translate(0.000000, 0.055987)">
                        <path d="M18.58484,6.20414151 C18.9346269,6.20414151 19.0332201,5.73169404 18.7178576,5.58889543 L6.4062188,0.135354139 C5.65737912,-0.19946278 4.77552186,0.135354139 4.4406378,0.888292296 L0.129883041,10.5452564 C-0.205185768,11.2933956 0.129883041,12.174428 0.883587719,12.5092449 L3.36658246,13.5820495 C3.67689522,13.7199877 4.03173192,13.4936386 4.03173192,13.1537767 L4.03173192,9.0540229 C4.03173192,7.48366879 5.30765374,6.20894043 6.87917018,6.20894043 L18.58484,6.20894043 L18.58484,6.20414151 Z" id="Fill-1"></path>
                    </g>
                    <path d="M7.28332807,11.0886417 L21.4027126,11.0886417 L21.4027126,9.50844366 L7.28332807,9.50844366 L7.28332807,11.0886417 Z M21.8068151,7.59878134 L6.87436061,7.59878134 C6.04176912,7.59878134 5.36676651,8.27315257 5.36676651,9.10496527 L5.36676651,19.6429617 C5.36676651,20.4747129 6.04176912,21.1490841 6.87436061,21.1490841 L8.87941581,21.1490841 C8.83033479,20.853766 8.80551716,20.5535875 8.80551716,20.2483639 C8.80551716,19.903703 8.83994162,19.5691937 8.89912212,19.2391757 L7.28332807,19.2391757 L7.28332807,14.1941578 L21.4027126,14.1941578 L21.4027126,19.2343768 L19.7820536,19.2343768 C19.8410493,19.5641487 19.8756585,19.8989041 19.8756585,20.2433189 C19.8756585,20.5485424 19.8509025,20.8486595 19.8015751,21.1440391 L21.8068151,21.1440391 C22.6394066,21.1440391 23.3144092,20.4696679 23.3144092,19.6379167 L23.3144092,9.10496527 C23.3144092,8.27315257 22.6394066,7.59878134 21.8068151,7.59878134 L21.8068151,7.59878134 Z" id="Fill-4"></path>
                    <path d="M15.4564082,21.7691291 C15.2890278,21.9758518 15.0672087,22.11379 14.8110267,22.182513 C14.6977154,22.2121063 14.6483881,22.2712315 14.6534378,22.3894202 C14.6582412,22.5026255 14.6534378,22.6158308 14.6534378,22.733835 C14.6534378,22.8371963 14.599307,22.8915226 14.5007139,22.8915226 C14.3775495,22.8963215 14.2543851,22.8963215 14.1312207,22.8915226 C14.0227128,22.8915226 13.9736318,22.8273524 13.9736318,22.7239911 L13.9736318,22.4730937 C13.9736318,22.2909193 13.9637786,22.2810754 13.7862371,22.2514821 C13.5596762,22.2171513 13.3381034,22.1630712 13.1311871,22.0645088 C12.9686101,21.9856958 12.9489038,21.9462585 12.9981696,21.7741742 C13.032594,21.6460799 13.0670185,21.5182318 13.1064311,21.3951826 C13.1507087,21.2474005 13.1901829,21.2327576 13.3282502,21.3017267 C13.5596762,21.4197309 13.80114,21.4887 14.0573836,21.5182318 C14.2199606,21.5379812 14.3823529,21.5230307 14.5350768,21.4540616 C14.8208798,21.3310124 14.8654038,21.001302 14.6238783,20.8044848 C14.5401265,20.7355157 14.4513866,20.6864806 14.3529782,20.6470433 C14.1015996,20.538637 13.8406142,20.455025 13.6089419,20.3122879 C13.2247921,20.0858774 12.9832667,19.7708099 13.0128877,19.3033459 C13.0424472,18.7765722 13.3429068,18.4518453 13.8257113,18.2745314 C14.0227128,18.2007019 14.0277625,18.2057469 14.0277625,17.9988396 L14.0277625,17.7873795 C14.0325659,17.629692 14.0573836,17.6052052 14.2149109,17.6004063 L14.3577816,17.6004063 C14.692912,17.6004063 14.692912,17.6004063 14.692912,17.9349155 C14.692912,18.17117 14.692912,18.17117 14.9293877,18.2057469 C15.1066829,18.2353402 15.2791131,18.2843753 15.4465551,18.3583894 C15.5401601,18.3975806 15.5747693,18.4617508 15.5452098,18.5600056 C15.5057356,18.7028042 15.4662614,18.8505863 15.4169956,18.9882784 C15.372718,19.1211715 15.3284404,19.1409209 15.2002262,19.0817958 C14.9392408,18.9539476 14.6681559,18.9046664 14.3823529,18.9193093 C14.3085158,18.9243543 14.2346172,18.9341982 14.1655835,18.9637916 C13.9192547,19.0719518 13.8750387,19.3475821 14.086943,19.5148675 C14.1952046,19.5984794 14.3135656,19.6626496 14.4415334,19.7167297 C14.663291,19.8053867 14.8800603,19.8938591 15.0919647,20.0121094 C15.7422113,20.3714131 15.9245562,21.2031643 15.4564082,21.7691291 M14.343125,16.374713 C12.2048675,16.374713 10.4706509,18.107246 10.4706509,20.2433189 C10.4706509,22.3795763 12.2048675,24.1121093 14.343125,24.1121093 C16.4811978,24.1121093 18.2153529,22.3795763 18.2153529,20.2433189 C18.2153529,18.107246 16.4811978,16.374713 14.343125,16.374713" id="Fill-6"></path>
                </g>
            </g>
        </g>
    </g>
</svg>