<?xml version="1.0" encoding="UTF-8" standalone="no"?>
<svg width="20px" height="25px" viewBox="0 0 20 25" version="1.1" xmlns="http://www.w3.org/2000/svg" xmlns:xlink="http://www.w3.org/1999/xlink">
    <!-- Generator: Sketch 39.1 (31720) - http://www.bohemiancoding.com/sketch -->
    <title>Page 1</title>
    <desc>Created with Sketch.</desc>
    <defs></defs>
    <g id="SP2-Pago-fácil" stroke="none" stroke-width="1" fill="none" fill-rule="evenodd">
        <g id="1-PagoFacil-Correcciones" transform="translate(-37.000000, -687.000000)" fill="#8743A2">
            <path d="M42.4402713,694.509323 C42.4402713,692.179876 44.335449,690.289743 46.6598513,690.289743 C48.9892981,690.289743 50.879176,692.184856 50.879176,694.509323 L50.879176,697.119534 L42.4402713,697.119534 L42.4402713,694.509323 Z M47.7733321,705.042437 C47.6201471,705.154884 47.5792808,705.262158 47.5792808,705.441012 C47.5845168,706.242887 47.5845168,707.039845 47.5845168,707.841719 C47.5997139,708.174014 47.4310763,708.500753 47.1347952,708.648894 C46.4351502,709.006602 45.7352498,708.505989 45.7352498,707.841719 L45.7352498,707.836739 C45.7352498,707.034864 45.7352498,706.23267 45.7402304,705.430795 C45.7402304,705.267138 45.7045362,705.159864 45.5613762,705.052654 C44.836062,704.516347 44.5960998,703.601962 44.9587888,702.800023 C45.3111974,702.018326 46.1744994,701.558643 46.9865907,701.722045 C47.8908229,701.906071 48.5190795,702.631449 48.5293599,703.535618 C48.5293599,704.163938 48.2791811,704.674768 47.7733321,705.042437 L47.7733321,705.042437 Z M39.1558286,694.509323 L39.1558286,697.119534 L38.9819549,697.119534 C37.8889712,697.119534 37,698.00825 37,699.101553 L37,710.017981 C37,711.111284 37.8889712,712 38.9819549,712 L54.2150848,712 C55.3080686,712 56.1970397,711.111284 56.1970397,710.017981 L56.1970397,699.096508 C56.1970397,698.003269 55.3080686,697.114298 54.2150848,697.114298 L54.163938,697.114298 L54.163938,694.504087 C54.163938,690.366303 50.7973794,687 46.6598513,687 C42.5220678,687.004981 39.1558286,690.371539 39.1558286,694.509323 L39.1558286,694.509323 Z" id="Page-1"></path>
        </g>
    </g>
</svg>