<?xml version="1.0" encoding="UTF-8" standalone="no"?>
<svg width="48px" height="15px" viewBox="0 0 48 15" version="1.1" xmlns="http://www.w3.org/2000/svg" xmlns:xlink="http://www.w3.org/1999/xlink">
    <!-- Generator: Sketch 39.1 (31720) - http://www.bohemiancoding.com/sketch -->
    <title>Page 1</title>
    <desc>Created with Sketch.</desc>
    <defs>
        <polygon id="path-1" points="14.6706397 0.0508331918 7.5564597e-05 0.0508331918 7.5564597e-05 14.2921865 14.6706397 14.2921865 14.6706397 0.0508331918"></polygon>
        <polygon id="path-3" points="2.35670864 2.57509162 2.35670864 0.0338740603 0.0502202308 0.0338740603 0.0502202308 2.57509162 2.35670864 2.57509162"></polygon>
    </defs>
    <g id="SP2-Pago-fácil" stroke="none" stroke-width="1" fill="none" fill-rule="evenodd">
        <g id="1-PagoFacil-Correcciones" transform="translate(-93.000000, -1504.000000)">
            <g id="Group-20" transform="translate(30.000000, 1504.000000)">
                <g id="Page-1" transform="translate(63.428499, 0.000000)">
                    <polygon id="Fill-1" fill="#FEFEFE" points="15.1754717 0.570893579 20.1820796 0.570893579 20.1820796 4.64358997 23.4490394 0.570893579 29.5124937 0.570893579 24.0314913 7.33229746 29.4739558 14.1237592 23.4837991 14.1237592 20.1820796 9.93451485 20.1820796 14.0860395 15.1754717 14.0860395"></polygon>
                    <g id="Group-18" transform="translate(0.000000, 0.096495)">
                        <g id="Group-4">
                            <mask id="mask-2" fill="white">
                                <use xlink:href="#path-1"></use>
                            </mask>
                            <g id="Clip-3"></g>
                            <path d="M7.37548244,9.62584687 C5.93960398,9.62584687 4.77575806,8.49101428 4.77575806,7.09111238 C4.77575806,5.69135782 5.93960398,4.55652524 7.37548244,4.55652524 C8.81136091,4.55652524 9.97535795,5.69135782 9.97535795,7.09111238 C9.97535795,8.49101428 8.81136091,9.62584687 7.37548244,9.62584687 M7.33724676,0.050788989 C3.29454084,0.050788989 7.5564597e-05,3.24768105 7.5564597e-05,7.17347689 C7.5564597e-05,11.0916109 3.29454084,14.2921865 7.33724676,14.2921865 C11.3761744,14.2921865 14.6706397,11.0916109 14.6706397,7.17347689 C14.6706397,3.24768105 11.3761744,0.050788989 7.33724676,0.050788989" id="Fill-2" fill="#FEFEFE" mask="url(#mask-2)"></path>
                        </g>
                        <path d="M30.353845,5.92757746 L31.2099919,5.92757746 L31.2099919,8.46879502 L30.6554989,8.46879502 L30.6554989,6.74989642 C30.6554989,6.70053666 30.6561034,6.63128564 30.6574636,6.54214338 C30.6586726,6.45314846 30.6594283,6.38448681 30.6594283,6.33615844 L30.1197459,8.46879502 L29.5415256,8.46879502 L29.0057726,6.33615844 C29.0057726,6.38448681 29.0063772,6.45314846 29.0077373,6.54214338 C29.0089463,6.63128564 29.009702,6.70053666 29.009702,6.74989642 L29.009702,8.46879502 L28.455209,8.46879502 L28.455209,5.92757746 L29.3210281,5.92757746 L29.8394013,7.92569025 L30.353845,5.92757746 Z" id="Fill-5" fill="#FEFEFE"></path>
                        <path d="M32.8550785,7.50851919 L33.5842769,7.50851919 L33.2247405,6.50850507 L32.8550785,7.50851919 Z M32.8943721,5.92753325 L33.5676527,5.92753325 L34.5749287,8.46875082 L33.9297582,8.46875082 L33.7419046,7.94642135 L32.6932192,7.94642135 L32.5002272,8.46875082 L31.8778772,8.46875082 L32.8943721,5.92753325 Z" id="Fill-7" fill="#FEFEFE"></path>
                        <path d="M35.8518193,6.36892743 L35.8518193,7.05171297 L36.4921537,7.05171297 C36.6194045,7.05171297 36.7146159,7.03786277 36.7783924,7.01030971 C36.8908325,6.96198134 36.9472037,6.86665069 36.9472037,6.72402306 C36.9472037,6.57005006 36.8927972,6.46661557 36.783833,6.41371958 C36.7227768,6.38380904 36.6310414,6.36892743 36.5086268,6.36892743 L35.8518193,6.36892743 Z M37.0815575,5.9930565 C37.1862901,6.03328103 37.275154,6.09251275 37.3481494,6.17060432 C37.4082988,6.23499303 37.4562068,6.30630684 37.4912688,6.38439841 C37.5264819,6.46263732 37.5440129,6.55163224 37.5440129,6.65167786 C37.5440129,6.77235143 37.5098577,6.89096221 37.4416984,7.00765754 C37.373388,7.12435287 37.2607968,7.20686472 37.1036224,7.25504574 C37.2349537,7.30219537 37.3280492,7.3690889 37.382758,7.45587368 C37.4374668,7.54265847 37.4648212,7.67511945 37.4648212,7.85325664 L37.4648212,8.02402669 C37.4648212,8.14013265 37.4699596,8.21881359 37.4806897,8.26021685 C37.496256,8.3257843 37.5328293,8.37396533 37.5904095,8.40505462 L37.5904095,8.46885395 L36.9336021,8.46885395 C36.9156177,8.41242174 36.9027717,8.36704023 36.894913,8.33256206 C36.8794978,8.2613956 36.8711857,8.18831367 36.8698255,8.11361098 L36.8660473,7.87742082 C36.8636292,7.71534398 36.8321944,7.60734186 36.7718938,7.55341447 C36.7115933,7.49933975 36.5985486,7.47237605 36.432911,7.47237605 L35.8518193,7.47237605 L35.8518193,8.46885395 L35.2704253,8.46885395 L35.2704253,5.92763639 L36.6322504,5.92763639 C36.8269048,5.93102527 36.976825,5.95283198 37.0815575,5.9930565 L37.0815575,5.9930565 Z" id="Fill-9" fill="#FEFEFE"></path>
                        <polygon id="Fill-11" fill="#FEFEFE" points="38.4432013 5.92757746 39.0285247 5.92757746 39.0285247 6.97459386 40.1287452 5.92757746 40.8975394 5.92757746 39.7290085 6.97282575 40.9573866 8.46879502 40.1923706 8.46879502 39.3150657 7.35960004 39.0285247 7.61892299 39.0285247 8.46879502 38.4432013 8.46879502"></polygon>
                        <polygon id="Fill-13" fill="#FEFEFE" points="43.7158873 6.37754698 42.2091292 6.37754698 42.2091292 6.91711552 43.5922636 6.91711552 43.5922636 7.35855391 42.2091292 7.35855391 42.2091292 8.01187093 43.7854067 8.01187093 43.7854067 8.46878028 41.6275841 8.46878028 41.6275841 5.92756272 43.7158873 5.92756272"></polygon>
                        <g id="Group-17" transform="translate(44.280854, 5.893703)">
                            <mask id="mask-4" fill="white">
                                <use xlink:href="#path-3"></use>
                            </mask>
                            <g id="Clip-16"></g>
                            <polygon id="Fill-15" fill="#FEFEFE" mask="url(#mask-4)" points="2.35675398 0.0338740603 2.35675398 0.483858315 1.50483871 0.483858315 1.50483871 2.57509162 0.906064851 2.57509162 0.906064851 0.483858315 0.0502202308 0.483858315 0.0502202308 0.0338740603"></polygon>
                        </g>
                    </g>
                </g>
            </g>
        </g>
    </g>
</svg>