<?xml version="1.0" encoding="UTF-8" standalone="no"?>
<svg width="47px" height="17px" viewBox="0 0 47 17" version="1.1" xmlns="http://www.w3.org/2000/svg" xmlns:xlink="http://www.w3.org/1999/xlink">
    <!-- Generator: Sketch 39.1 (31720) - http://www.bohemiancoding.com/sketch -->
    <title>Page 1</title>
    <desc>Created with Sketch.</desc>
    <defs>
        <polygon id="path-1" points="2.22937669e-21 0.0242692649 2.22937669e-21 6.97248326 7.3973704 6.97248326 7.3973704 0.0242692649 0 0.0242692649"></polygon>
        <polygon id="path-3" points="0.0913878587 5.45283062 25.3133968 5.45283062 25.3133968 0.0783008446 0.0913878587 0.0783008446 0.0913878587 5.45283062"></polygon>
    </defs>
    <g id="SP2-Pago-fácil" stroke="none" stroke-width="1" fill="none" fill-rule="evenodd">
        <g id="1-PagoFacil-Correcciones" transform="translate(-212.000000, -1505.000000)">
            <g id="Group-20" transform="translate(30.000000, 1504.000000)">
                <g id="Page-1" transform="translate(182.032362, 1.000000)">
                    <path d="M42.5534147,8.63155823 C41.7358549,8.69891673 41.8455757,7.71147325 41.8455757,7.71147325 C41.8455757,7.71147325 42.0816317,5.0548221 44.0500263,5.25304853 C44.0500263,5.25304853 43.779919,8.53052049 42.5534147,8.63155823 M44.3265491,3.52434085 C42.5371293,3.4927465 39.7061021,4.22711449 39.3810522,8.02886007 C39.1857919,10.3127942 41.5285862,10.4712471 41.5285862,10.4712471 C41.5285862,10.4712471 42.9763416,10.526898 43.6108141,9.23409602 L43.6108141,10.4712471 L45.7581836,10.4712471 C45.7581836,10.4712471 45.8557315,5.52264289 46.7668912,3.90491635 C46.7668912,3.90491635 46.1161333,3.55609557 44.3265491,3.52434085" id="Fill-1" fill="#FFFFFF"></path>
                    <g id="Group-5" transform="translate(0.000000, 3.499113)">
                        <mask id="mask-2" fill="white">
                            <use xlink:href="#path-1"></use>
                        </mask>
                        <g id="Clip-4"></g>
                        <path d="M3.18389392,5.13244475 C2.36633406,5.19980324 2.47605487,4.21235977 2.47605487,4.21235977 C2.47605487,4.21235977 2.71211088,1.55570861 4.6805055,1.75393505 C4.6805055,1.75393505 4.4103982,5.031407 3.18389392,5.13244475 M4.95702826,0.0252273605 C3.16760852,-0.00636698164 0.336581332,0.728001001 0.0115313774,4.52974659 C-0.183728894,6.81368073 2.15906536,6.97213357 2.15906536,6.97213357 C2.15906536,6.97213357 3.60682075,7.02778452 4.24129326,5.73498253 L4.24129326,6.97213357 L6.38866275,6.97213357 C6.38866275,6.97213357 6.48621064,2.02352941 7.3973704,0.405802862 C7.3973704,0.405802862 6.7466125,0.05698208 4.95702826,0.0252273605" id="Fill-3" fill="#FFFFFF" mask="url(#mask-2)"></path>
                    </g>
                    <path d="M37.8802294,7.94942516 L38.3724103,5.36414194 L39.6737617,5.36414194 L40.096853,3.65115123 L38.6977893,3.65115123 L39.0231682,1.77954731 L36.5991115,2.47750963 L36.4281971,3.69076444 L35.5254268,3.65516067 L35.1594166,5.36815137 L36.037841,5.36815137 L35.4461383,8.80086862 C35.4461383,8.80086862 35.1268458,10.5069631 37.3617287,10.5069631 L38.5147019,10.5069631 L38.9173954,8.5203686 L38.0205471,8.50705728 C38.0205471,8.50705728 37.8527581,8.52341577 37.8251223,8.37731199 C37.8078499,8.28589689 37.8802294,7.94942516 37.8802294,7.94942516" id="Fill-6" fill="#FFFFFF"></path>
                    <path d="M28.6072583,3.67891256 L27.3626591,10.3998471 L29.8273471,10.3998471 L30.5350217,6.91452602 C30.5350217,6.91452602 30.8314488,5.22879947 31.6819084,5.40377118 C32.4914078,5.5702429 32.1355966,6.81862035 32.1355966,6.81862035 L31.4177231,10.3998471 L33.8904715,10.3998471 L34.6835211,5.22527117 C34.6835211,5.22527117 35.0740416,3.41717669 32.9265076,3.41717669 C31.4501294,3.41717669 30.5471946,4.72569566 30.5471946,4.72569566 L30.718109,3.70264841 L28.6072583,3.67891256 Z" id="Fill-8" fill="#FFFFFF"></path>
                    <path d="M19.9965929,10.2272329 L21.241192,3.50629839 L18.776504,3.50629839 L18.0688295,6.99161942 C18.0688295,6.99161942 17.7724024,8.67734597 16.9219427,8.50237426 C16.1124433,8.33590255 16.4682546,7.08752509 16.4682546,7.08752509 L17.1861281,3.50629839 L14.7133796,3.50629839 L13.9203301,8.68087428 C13.9203301,8.68087428 13.5298096,10.4889688 15.6773435,10.4889688 C17.1537218,10.4889688 18.0566566,9.18044979 18.0566566,9.18044979 L17.8857422,10.203497 L19.9965929,10.2272329 Z" id="Fill-10" fill="#FFFFFF"></path>
                    <path d="M17.9555391,0.098343404 L17.566828,2.81048513 L15.1373428,2.88137193 C15.1373428,2.88137193 11.050695,3.07446628 10.7557484,6.95591942 C10.736173,7.21460812 10.7277835,7.48997607 10.7323895,7.78282515 C10.8055916,12.4696934 16.296238,11.0898065 16.296238,11.0898065 L16.4913338,13.4213728 C16.4913338,13.4213728 7.69014566,15.9907786 7.3973375,7.94945724 C7.10452934,-0.0920245356 15.4339344,-0.250477378 17.9555391,0.098343404" id="Fill-12" fill="#FFFFFF"></path>
                    <path d="M25.4406368,5.57187874 C25.3672702,6.1795486 23.6500655,6.25909578 23.6500655,6.25909578 C23.5791665,5.27790702 24.9716502,5.2050957 24.9716502,5.2050957 C24.9716502,5.2050957 25.489493,5.16692588 25.4406368,5.57187874 M27.6677882,5.69729385 C27.6677882,5.26908627 27.4888134,3.41335971 25.0973274,3.41720876 C22.706006,3.4212182 21.2255153,5.64966177 21.111682,7.60049211 C20.9976842,9.55148283 22.7384123,10.5188791 24.2350238,10.5070112 C25.7317999,10.4951433 26.8706263,10.0114451 26.8706263,10.0114451 L26.675366,8.33004878 C26.675366,8.33004878 25.8456332,8.6949073 24.8045193,8.6949073 C23.7634053,8.6949073 23.4054556,7.94947327 23.4054556,7.94947327 C27.7488862,7.94947327 27.6677882,6.12550143 27.6677882,5.69729385" id="Fill-14" fill="#FFFFFF"></path>
                    <g id="Group-18" transform="translate(18.752882, 11.036850)">
                        <mask id="mask-4" fill="white">
                            <use xlink:href="#path-3"></use>
                        </mask>
                        <g id="Clip-17"></g>
                        <path d="M25.3133968,1.33772369 C25.3133968,1.33772369 25.2645406,0.10057265 22.7266506,0.195676431 C20.1889251,0.290940589 21.9946302,0.518355702 20.2376168,0.190544355 C18.4806033,-0.137266992 14.1858643,0.338572668 13.5513918,0.528780231 C12.9169193,0.71914817 8.13394742,1.52809163 6.52350255,2.14666715 C4.91289319,2.76524267 5.01044107,3.00308231 4.27842068,3.19345025 C3.54623579,3.38381819 0.42272944,5.09664852 0.129921282,5.38228062 C-0.162886875,5.66775234 1.30131841,5.00154474 1.54527038,4.90644096 C1.78938684,4.8111768 3.15587974,4.33533714 3.4486879,4.14512957 C3.74149606,3.95476164 4.94020001,3.95476164 5.63422115,3.62165784 C6.32824228,3.28855404 12.5263988,2.14666715 13.1121796,2.09903507 C13.6977959,2.05140299 14.9178847,2.09903507 15.6012134,1.90866713 C16.2843776,1.71845957 19.163932,1.71845957 20.2376168,1.81356335 C21.3113015,1.90866713 24.5325202,1.81356335 24.8253284,1.71845957 C25.1181365,1.62319541 25.3133968,1.33772369 25.3133968,1.33772369" id="Fill-16" fill="#FFFFFF" mask="url(#mask-4)"></path>
                    </g>
                </g>
            </g>
        </g>
    </g>
</svg>