<?xml version="1.0" encoding="UTF-8" standalone="no"?>
<svg width="38px" height="16px" viewBox="0 0 38 16" version="1.1" xmlns="http://www.w3.org/2000/svg" xmlns:xlink="http://www.w3.org/1999/xlink">
    <!-- Generator: Sketch 39.1 (31720) - http://www.bohemiancoding.com/sketch -->
    <title>Page 1</title>
    <desc>Created with Sketch.</desc>
    <defs>
        <polygon id="path-1" points="0.00285250899 9.44634037 8.67457578 9.44634037 8.67457578 0.062047541 0.00285250899 0.062047541 0.00285250899 9.44634037"></polygon>
        <polygon id="path-3" points="5.54628759 0.11385326 0.0191145001 0.11385326 0.0191145001 8.79181995 5.54628759 8.79181995 5.54628759 0.11385326"></polygon>
    </defs>
    <g id="SP2-Pago-fácil" stroke="none" stroke-width="1" fill="none" fill-rule="evenodd">
        <g id="1-PagoFacil-Correcciones" transform="translate(-248.000000, -1235.000000)">
            <g id="Group-19" transform="translate(30.000000, 1233.000000)">
                <g id="Page-1" transform="translate(218.000000, 2.000000)">
                    <path d="M16.6759666,6.21630515 C16.6759666,6.53284041 16.7189201,6.72591035 16.8054904,6.79485206 C16.8923924,6.86230225 17.1353532,6.89727028 17.5368604,6.89727028 L17.906194,6.89727028 C20.4397859,6.89727028 21.7076598,6.0185949 21.7076598,4.26174132 C21.7076598,2.38805142 20.5676512,1.45220082 18.2892926,1.45220082 C17.6781591,1.45220082 17.2690231,1.51070184 17.0584018,1.62604663 C16.8028369,1.76906754 16.6759666,2.0685331 16.6759666,2.52162599 L16.6759666,6.21630515 Z M21.6471269,7.04791455 C24.0938167,7.45128986 25.3155861,8.71726519 25.3155861,10.8430232 C25.3155861,12.0612697 24.8309913,13.0405403 23.8626308,13.7793436 C22.8922802,14.5193069 21.6335277,14.8875484 20.0863733,14.8875484 C19.5233344,14.8875484 15.2430783,14.9087613 14.116669,14.9087613 L14.116669,0.660862658 C14.8681061,0.660862658 16.6789518,0.733284601 17.6501316,0.721518107 C22.8748667,0.660862658 24.3933302,1.85723338 24.3933302,4.12800102 C24.3933302,5.54892949 23.4783713,6.52090819 21.6471269,7.04791455 L21.6471269,7.04791455 Z M17.0303742,7.60458573 C16.7930521,7.60458573 16.6759666,7.69938059 16.6759666,7.88681587 L16.6759666,12.4268596 C16.6759666,13.5363903 17.430223,14.0920671 18.9423845,14.0920671 C20.1430918,14.0920671 21.0578848,13.756142 21.686266,13.0862805 C22.2423394,12.4943098 22.5184689,11.7071148 22.5184689,10.7175692 C22.5184689,9.75371103 22.1945764,8.99253486 21.5497767,8.43785239 C20.9019918,7.88250701 19.9750923,7.60458573 18.7639368,7.60458573 L17.0303742,7.60458573 Z" id="Fill-1" fill="#FFFFFF"></path>
                    <g id="Group-5" transform="translate(25.871593, 5.686597)">
                        <mask id="mask-2" fill="white">
                            <use xlink:href="#path-1"></use>
                        </mask>
                        <g id="Clip-4"></g>
                        <path d="M5.37966612,0.062047541 C6.03524566,0.062047541 6.65981245,0.145738802 7.25369819,0.314447127 C8.04709371,0.539170592 8.44296226,0.85736311 8.44296226,1.2685275 C8.44296226,2.33762122 8.20597183,2.87175376 7.73282019,2.87175376 C7.49947832,2.87175376 7.26431218,2.67868382 7.0221806,2.29221249 C6.99664069,2.24730095 6.95236047,2.16907862 6.89332016,2.05969994 C6.31585294,1.06816565 5.72229888,0.572978547 5.10983867,0.572978547 C4.17929053,0.572978547 3.45173489,1.07297169 2.92684007,2.07212934 C2.53113737,2.83512848 2.33361771,3.62248923 2.33361771,4.43653176 C2.33361771,5.44894743 2.59498713,6.31055311 3.12071118,7.02068589 C3.67512615,7.77026128 4.44497189,8.20164416 5.43223852,8.31616032 C5.6115154,8.33687598 6.20390854,8.40018303 7.44425242,7.9644913 C7.72452802,7.86638194 7.96566453,7.72286386 8.23001915,7.59774128 C8.36236229,7.53310842 8.6320239,7.48736825 8.66917286,7.69369621 C8.70930699,7.91460799 8.51742601,8.15176085 8.37231291,8.29362168 C8.1373126,8.52381408 7.3241817,9.28316727 5.20536455,9.43679459 C5.11116542,9.44474941 5.01912225,9.44640666 4.92724492,9.44640666 C3.32486458,9.44640666 2.07523346,8.95668849 1.17934663,7.97658924 C0.395238339,7.12426418 0.00285250899,6.07588613 0.00285250899,4.82648332 C0.00285250899,3.5074759 0.445986464,2.40888308 1.33523956,1.53269358 C2.31670166,0.55292579 3.6661706,0.062047541 5.37966612,0.062047541" id="Fill-3" fill="#FFFFFF" mask="url(#mask-2)"></path>
                    </g>
                    <path d="M35.253346,14.9021157 L37.3608858,14.9021157 L37.3471208,6.31522656 C37.3471208,6.31522656 36.9658465,6.30660885 36.3391237,6.25821707 C35.8812297,6.22175751 35.2536777,6.18794955 35.2536777,6.18794955" id="Fill-6" fill="#FFFFFF"></path>
                    <path d="M35.2565136,3.65409304 C35.2565136,3.01538785 35.7124175,2.49749639 36.2764514,2.49749639 C36.8404853,2.49749639 37.2963892,3.01538785 37.2963892,3.65409304 C37.2963892,4.29014663 36.8404853,4.80770665 36.2764514,4.80770665 C35.7124175,4.80770665 35.2565136,4.29014663 35.2565136,3.65409304" id="Fill-8" fill="#FFFFFF"></path>
                    <path d="M0.100667032,12.9485793 C0.588247058,11.4994776 1.97768429,10.6895782 3.18452777,9.90238317 C4.07560515,9.32118465 4.98492531,8.76965095 5.88495823,8.20353343 C6.2096799,8.0000228 6.52843119,7.79087751 6.85116273,7.58736688 C7.61686239,7.10477489 8.22583989,6.4050828 8.66797878,5.62435106 C8.89186757,5.22661041 9.07678312,4.81461739 9.25589415,4.39533246 C9.50499116,3.81678554 9.70499848,3.06008396 10.3126492,2.7612813 C10.7473252,2.54915295 11.3128517,2.66466347 11.6422169,3.01467524 C11.9634559,3.35673219 12.0379196,3.85738823 11.9513493,4.30501218 C11.7694189,5.2514692 11.223462,6.10628014 10.5350454,6.76619816 C10.1307189,7.15382957 9.67381989,7.44053429 9.19602463,7.72508457 C8.56382903,8.10111521 7.93014085,8.47316844 7.29363332,8.84257007 C6.45662094,9.33179106 5.62856411,9.79681617 4.84594842,10.3700599 C4.05703067,10.9474467 3.33378696,11.5818431 2.65648192,12.2841867 C2.15447351,12.8045641 1.83953661,13.4248738 1.5070203,14.0596016 C1.38661789,14.2901254 1.27102494,14.6233989 1.0534382,14.7834895 C0.900696299,14.8928682 0.649443327,14.9233617 0.48592159,14.8252523 C-0.097184318,14.4732518 -0.055889275,13.5017703 0.100667032,12.9485793" id="Fill-10" fill="#FFFFFF"></path>
                    <path d="M10.5175655,13.3557995 C10.1205361,13.0515279 10.2586837,12.4996627 10.2314854,12.0671198 C10.1991459,11.5507198 10.1042834,10.9819507 9.8769119,10.5131139 C9.62963917,10.0059946 9.07140979,9.8924728 8.62943674,9.6203519 C8.21333528,9.36380919 8.24700152,8.84939795 8.67172685,8.62185715 C9.55136101,8.15235747 10.5688112,8.71847499 11.0399727,9.48810314 C11.3348425,9.9698665 11.518763,10.526372 11.6943913,11.0598416 C11.8743316,11.6060721 12.1111561,12.3102388 11.8288904,12.8572979 C11.6061626,13.2900065 10.9626896,13.6960335 10.5175655,13.3557995" id="Fill-12" fill="#FFFFFF"></path>
                    <g id="Group-16" transform="translate(2.819340, 0.051938)">
                        <mask id="mask-4" fill="white">
                            <use xlink:href="#path-3"></use>
                        </mask>
                        <g id="Clip-15"></g>
                        <path d="M4.36962917,8.72763959 C2.35579099,7.92685509 0.258035973,6.38842741 0.0349764039,4.05087248 C-0.0212445583,3.45641594 0.0782615694,2.85367314 0.23448619,2.2796008 C0.365834278,1.79667737 0.516088531,1.27994598 0.756561673,0.839448208 C1.17548247,0.0706486825 2.18314786,-0.0987225431 2.89445083,0.386189596 C3.72947308,0.956781699 3.20524163,1.98676425 3.00357588,2.75125492 C2.86857923,3.26218593 2.7500011,3.78770076 2.66475751,4.30973536 C2.58034315,4.82696392 2.56674398,5.35943921 2.73822621,5.86142105 C2.87919322,6.2762314 3.13492397,6.65110196 3.47059131,6.93300065 C3.84937796,7.24970164 4.33679215,7.41376966 4.7787652,7.62042907 C5.08540991,7.76344997 5.70516725,7.97358962 5.5084768,8.43231716 C5.32240034,8.86469439 4.7441039,8.8267433 4.36962917,8.72763959" id="Fill-14" fill="#FFFFFF" mask="url(#mask-4)"></path>
                    </g>
                    <path d="M2.60404219,14.4477964 C2.65528785,14.6408664 2.83307213,14.857635 3.37272703,14.8901172 C4.31305994,14.9466295 5.29103933,14.8147122 6.25077593,14.6150132 C7.85033693,14.2837284 8.51818889,13.8520141 8.51818889,13.8520141 C8.51818889,13.8520141 9.4958366,13.3384315 9.44359588,11.9312582 C9.38953088,10.5232563 8.44057411,9.87626487 8.44057411,9.87626487 C8.44057411,9.87626487 8.0592998,9.62171085 7.43008938,9.83881095 C7.00121797,9.98978667 5.78890165,10.6695917 5.00495921,11.1492007 C4.58023389,11.4080635 4.16064972,11.7557551 3.81005646,12.1077556 C3.45913152,12.4595904 3.04900043,12.9222953 2.77038327,13.5646465 C2.7259372,13.6647445 2.69210512,13.7560592 2.6680578,13.8397504 C2.61482202,14.0177394 2.55412329,14.2631785 2.60404219,14.4477964" id="Fill-17" fill="#FFFFFF"></path>
                </g>
            </g>
        </g>
    </g>
</svg>