<?xml version="1.0" encoding="UTF-8" standalone="no"?>
<svg width="68px" height="18px" viewBox="0 0 68 18" version="1.1" xmlns="http://www.w3.org/2000/svg" xmlns:xlink="http://www.w3.org/1999/xlink">
    <!-- Generator: Sketch 39.1 (31720) - http://www.bohemiancoding.com/sketch -->
    <title>Page 1</title>
    <desc>Created with Sketch.</desc>
    <defs>
        <polygon id="path-1" points="0 17.8804068 67.0414576 17.8804068 67.0414576 0 0 0"></polygon>
    </defs>
    <g id="SP2-Pago-fácil" stroke="none" stroke-width="1" fill="none" fill-rule="evenodd">
        <g id="1-PagoFacil-Correcciones" transform="translate(-278.000000, -1472.000000)">
            <g id="Page-1" transform="translate(278.000000, 1472.000000)">
                <path d="M0.338155932,6.88582373 C1.03741017,7.21928136 2.0167322,7.4743322 3.13944407,7.4743322 C4.00039322,7.4743322 4.81588475,7.31995932 4.81588475,6.60575593 C4.81588475,4.94456949 0.000122033898,5.99162034 0.000122033898,2.74734915 C0.000122033898,0.605654237 2.39747797,0.0195864407 4.43696949,0.0195864407 C5.41537627,0.0195864407 6.37822373,0.146501695 7.06557966,0.351213559 L6.89046102,2.18477288 C6.18998644,1.90378983 5.40225763,1.77565424 4.62642712,1.77565424 C3.94242712,1.77565424 2.80568136,1.82812881 2.80568136,2.60731525 C2.80568136,4.0503661 7.62235932,3.07897627 7.62235932,6.29792542 C7.62235932,8.60589153 5.40225763,9.23070508 3.13944407,9.23070508 C2.19185085,9.23070508 1.00903729,9.10470508 0.102935593,8.84965424 L0.338155932,6.88582373 L0.338155932,6.88582373 Z" id="Fill-1" fill="#FFFFFF"></path>
                <polygon id="Fill-3" fill="#FFFFFF" points="8.20018983 0.176125424 15.4014102 0.176125424 15.4014102 1.8565322 10.9258169 1.8565322 10.9258169 3.69283729 15.1521559 3.69283729 15.1521559 5.37232881 10.9258169 5.37232881 10.9258169 7.39443051 15.5612746 7.39443051 15.5612746 9.07422712 8.20018983 9.07422712"></polygon>
                <path d="M16.6828881,9.07407458 L19.4097356,9.07407458 L19.4097356,5.55705763 L19.9774983,5.55705763 C20.9885492,5.55705763 21.3397017,5.93902373 21.8958712,7.46902373 L22.4788881,9.07407458 L25.3173966,9.07407458 L24.3228203,6.65261695 C23.8185153,5.56804068 23.7614644,4.89319322 22.8794644,4.68970169 L22.8794644,4.66529492 C24.2001763,4.39834576 24.8448203,3.60970169 24.8448203,2.41804068 C24.8448203,0.888345763 23.3642441,0.175972881 21.5477695,0.175972881 L16.6828881,0.175972881 L16.6828881,9.07407458 Z M19.4097356,1.85668475 L20.1251593,1.85668475 C21.1658034,1.85668475 22.1179729,2.00983729 22.1179729,2.84149831 C22.1179729,3.85010847 21.0050237,3.87665085 20.1251593,3.87665085 L19.4097356,3.87665085 L19.4097356,1.85668475 Z" id="Fill-5" fill="#FFFFFF"></path>
                <polygon id="Fill-7" fill="#FFFFFF" points="24.9334169 0.176125424 27.8286712 0.176125424 30.0948407 7.16043051 30.1265695 7.16043051 32.4168407 0.176125424 35.2114169 0.176125424 31.7294847 9.07422712 28.3625695 9.07422712"></polygon>
                <mask id="mask-2" fill="white">
                    <use xlink:href="#path-1"></use>
                </mask>
                <g id="Clip-10"></g>
                <polygon id="Fill-9" fill="#FFFFFF" mask="url(#mask-2)" points="35.830678 9.07413559 38.5553898 9.07413559 38.5553898 0.176033898 35.830678 0.176033898"></polygon>
                <path d="M40.5304169,9.05558644 L43.2551288,9.05558644 L43.2551288,5.95775593 L44.3113322,5.95775593 C46.8597051,5.95775593 48.3695695,4.88965424 48.3695695,3.0844678 C48.3695695,1.07426441 46.9045525,0.158705085 43.7823153,0.158705085 L40.5304169,0.158705085 L40.5304169,9.05558644 Z M43.2551288,1.83697627 L43.9586542,1.83697627 C44.8974,1.83697627 45.6439424,2.13229831 45.6439424,3.04480678 C45.6439424,3.98385763 44.8974,4.27795932 43.9586542,4.27795932 L43.2551288,4.27795932 L43.2551288,1.83697627 Z" id="Fill-11" fill="#FFFFFF" mask="url(#mask-2)"></path>
                <path d="M46.7631458,9.05558644 L49.5272136,9.05558644 L50.3314169,7.16680678 L54.1635864,7.16680678 L54.925078,9.05558644 L57.9078915,9.05558644 L53.9753492,0.158705085 L50.6401627,0.158705085 L46.7631458,9.05558644 Z M53.521078,5.48731525 L50.961722,5.48731525 L52.2705356,1.99317966 L52.2998237,1.99317966 L53.521078,5.48731525 Z" id="Fill-12" fill="#FFFFFF" mask="url(#mask-2)"></path>
                <path d="M67.0413661,8.80495932 C65.316722,9.18784068 64.0298746,9.21194237 63.0944847,9.21194237 C60.3764847,9.21194237 57.2359424,8.01601017 57.2359424,4.64573898 C57.2359424,1.28645085 59.9386881,-9.15254241e-05 63.6799424,-9.15254241e-05 C64.351739,-9.15254241e-05 65.7688576,0.0655016949 66.7625186,0.39499322 L66.5456034,2.33594237 C65.6977729,1.8993661 64.7019763,1.75811186 64.0606881,1.75811186 C61.8537051,1.75811186 60.042722,2.56689153 60.042722,4.64695932 C60.042722,6.39448475 61.4586203,7.45556949 63.4456373,7.45556949 C63.8123492,7.45556949 64.1635017,7.40553559 64.4097051,7.30150169 L64.4097051,5.53872203 L62.8186881,5.53872203 L62.8186881,3.85892542 L67.0413661,3.85892542 L67.0413661,8.80495932 Z" id="Fill-13" fill="#FFFFFF" mask="url(#mask-2)"></path>
                <polygon id="Fill-14" fill="#FFFFFF" mask="url(#mask-2)" points="0.329522034 11.5135932 5.39331864 11.5135932 5.39331864 12.6951864 2.24606441 12.6951864 2.24606441 13.9863051 5.21789492 13.9863051 5.21789492 15.1675932 2.24606441 15.1675932 2.24606441 16.5892881 5.50558983 16.5892881 5.50558983 17.7702712 0.329522034 17.7702712"></polygon>
                <path d="M18.0507051,17.7711864 L19.9681627,17.7711864 L19.9681627,15.2981695 L20.3675186,15.2981695 C21.0783661,15.2981695 21.3251797,15.5666441 21.7162983,16.6423729 L22.1263322,17.7711864 L24.1221966,17.7711864 L23.4229424,16.0685085 C23.0681288,15.3057966 23.0281627,14.8310847 22.4079254,14.688 L22.4079254,14.6712203 C23.3366034,14.4835932 23.7899593,13.9286441 23.7899593,13.0908814 C23.7899593,12.0154576 22.7487051,11.5145085 21.4716203,11.5145085 L18.0507051,11.5145085 L18.0507051,17.7711864 Z M19.9681627,12.6961017 L20.4712475,12.6961017 C21.2031458,12.6961017 21.8725017,12.8037966 21.8725017,13.3886441 C21.8725017,14.0979661 21.0899593,14.1165763 20.4712475,14.1165763 L19.9681627,14.1165763 L19.9681627,12.6961017 Z" id="Fill-15" fill="#FFFFFF" mask="url(#mask-2)"></path>
                <path d="M12.1094847,17.7708203 L14.0254169,17.7708203 L14.0254169,15.5925153 L14.7679932,15.5925153 C16.560061,15.5925153 17.6217559,14.8417017 17.6217559,13.571939 C17.6217559,12.1584814 16.5914847,11.5147525 14.3960949,11.5147525 L12.1094847,11.5147525 L12.1094847,17.7708203 Z M14.0254169,12.6948203 L14.5199593,12.6948203 C15.1801627,12.6948203 15.7052136,12.9025831 15.7052136,13.5441763 C15.7052136,14.2043797 15.1801627,14.4115322 14.5199593,14.4115322 L14.0254169,14.4115322 L14.0254169,12.6948203 Z" id="Fill-16" fill="#FFFFFF" mask="url(#mask-2)"></path>
                <polygon id="Fill-17" fill="#FFFFFF" mask="url(#mask-2)" points="24.5513288 11.5135932 29.6151254 11.5135932 29.6151254 12.6951864 26.4678712 12.6951864 26.4678712 13.9863051 29.4397017 13.9863051 29.4397017 15.1675932 26.4678712 15.1675932 26.4678712 16.5892881 29.7273966 16.5892881 29.7273966 17.7702712 24.5513288 17.7702712"></polygon>
                <path d="M30.6651356,16.2316373 C31.1569322,16.4662475 31.8455085,16.6453322 32.6347627,16.6453322 C33.2403559,16.6453322 33.8136102,16.5370271 33.8136102,16.0345525 C33.8136102,14.8666881 30.4274746,15.6028576 30.4274746,13.3214339 C30.4274746,11.8155356 32.1130678,11.4036712 33.5472712,11.4036712 C34.2352373,11.4036712 34.9122203,11.4927559 35.3954746,11.6367559 L35.2725254,12.9260441 C34.7801186,12.7283492 34.2260847,12.6383492 33.6805932,12.6383492 C33.1997797,12.6383492 32.4001525,12.6752644 32.4001525,13.2231966 C32.4001525,14.2379085 35.7872034,13.5548237 35.7872034,15.8182475 C35.7872034,17.4409932 34.2260847,17.8803153 32.6347627,17.8803153 C31.9684576,17.8803153 31.1367966,17.7918407 30.4997797,17.6127559 L30.6651356,16.2316373 Z" id="Fill-18" fill="#FFFFFF" mask="url(#mask-2)"></path>
                <path d="M36.5487559,16.2316373 C37.0405525,16.4662475 37.7291288,16.6453322 38.5183831,16.6453322 C39.1239763,16.6453322 39.6972305,16.5370271 39.6972305,16.0345525 C39.6972305,14.8666881 36.3110949,15.6028576 36.3110949,13.3214339 C36.3110949,11.8155356 37.9966881,11.4036712 39.4308915,11.4036712 C40.1188576,11.4036712 40.7958407,11.4927559 41.2790949,11.6367559 L41.1561458,12.9260441 C40.663739,12.7283492 40.1097051,12.6383492 39.5642136,12.6383492 C39.0834,12.6383492 38.2837729,12.6752644 38.2837729,13.2231966 C38.2837729,14.2379085 41.6708237,13.5548237 41.6708237,15.8182475 C41.6708237,17.4409932 40.1097051,17.8803153 38.5183831,17.8803153 C37.852078,17.8803153 37.0204169,17.7918407 36.3834,17.6127559 L36.5487559,16.2316373 Z" id="Fill-19" fill="#FFFFFF" mask="url(#mask-2)"></path>
                <polygon id="Fill-20" fill="#FFFFFF" mask="url(#mask-2)" points="5.62228475 17.6761525 7.71364068 14.5215763 5.89594576 11.6379153 8.05228475 11.6379153 8.74970847 12.9571017 9.44682712 11.6379153 11.6034712 11.6379153 9.78577627 14.5215763 11.8771322 17.6761525 9.60974237 17.6761525 8.74970847 16.1199153 7.88967458 17.6761525"></polygon>
            </g>
        </g>
    </g>
</svg>