<?xml version="1.0" encoding="UTF-8" standalone="no"?>
<svg width="54px" height="12px" viewBox="0 0 54 12" version="1.1" xmlns="http://www.w3.org/2000/svg" xmlns:xlink="http://www.w3.org/1999/xlink">
    <!-- Generator: Sketch 39.1 (31720) - http://www.bohemiancoding.com/sketch -->
    <title>Page 1</title>
    <desc>Created with Sketch.</desc>
    <defs>
        <polygon id="path-1" points="8.18142998e-05 11.6987797 7.24310179 11.6987797 7.24310179 0.254209165 8.18142998e-05 0.254209165 8.18142998e-05 11.6987797"></polygon>
        <polygon id="path-3" points="0 11.7105582 53.7274508 11.7105582 53.7274508 0.265961121 0 0.265961121"></polygon>
    </defs>
    <g id="SP2-Pago-fácil" stroke="none" stroke-width="1" fill="none" fill-rule="evenodd">
        <g id="1-PagoFacil-Correcciones" transform="translate(-30.000000, -1505.000000)">
            <g id="Group-20" transform="translate(30.000000, 1504.000000)">
                <g id="Page-1" transform="translate(0.000000, 1.000000)">
                    <g id="Group-3" transform="translate(0.000000, 0.011779)">
                        <mask id="mask-2" fill="white">
                            <use xlink:href="#path-1"></use>
                        </mask>
                        <g id="Clip-2"></g>
                        <path d="M7.18774078,4.37058432 L4.37987401,4.37058432 L4.37987401,2.72344932 C4.37987401,2.42380103 4.32696743,2.22571942 4.22033612,2.1318633 C4.08834239,2.00689906 3.89198807,1.94415106 3.63400031,1.94415106 C3.39673884,1.94415106 3.21265666,2.00689906 3.08257192,2.1318633 C2.9546689,2.25337108 2.8900356,2.43257512 2.8900356,2.66336013 L2.8900356,3.01618469 C2.8900356,3.21958393 2.96966819,3.40437147 3.13084236,3.57134496 C3.35119554,3.79920529 4.14206711,4.47002395 5.50563878,5.58353507 C6.16997089,6.12300834 6.62349483,6.5614467 6.87275573,6.89246898 C7.11928949,7.22668185 7.24310179,7.72308234 7.24310179,8.38007517 C7.24310179,9.20616855 7.12283477,9.83231914 6.88148259,10.2598564 C6.6420394,10.6889889 6.23133162,11.0349005 5.64526851,11.3021113 C5.06711413,11.5661315 4.35642057,11.6988063 3.50773357,11.6988063 C2.87558174,11.6988063 2.30533607,11.6174466 1.79699656,11.4523342 C1.29492947,11.2856266 0.896766542,11.0559051 0.609871064,10.7551933 C0.438333748,10.5823704 0.303340153,10.3393549 0.209526422,10.0277419 C0.108894833,9.71506546 0.058715396,9.40956778 0.058715396,9.10885597 L0.058715396,7.13840924 L2.88103603,7.13840924 L2.88103603,9.10885597 C2.88103603,9.36037973 2.94403304,9.55314372 3.07357235,9.67624678 C3.19983909,9.79482987 3.3790124,9.85491906 3.6091833,9.85491906 C3.88217035,9.85491906 4.0714341,9.79482987 4.18215612,9.67624678 C4.29696885,9.55314372 4.35642057,9.29390939 4.35642057,8.89748029 L4.35642057,8.57629561 C4.35642057,8.41437387 4.32205857,8.27212734 4.25878884,8.14902427 C4.15624825,7.98098726 3.8546262,7.68718836 3.34492311,7.26629817 L1.35710834,5.64176309 C0.769681663,5.13871556 0.394972169,4.73058768 0.232707141,4.41605003 C0.0778053993,4.09672652 8.18142998e-05,3.69551156 8.18142998e-05,3.21639335 C8.18142998e-05,2.52084773 0.12253055,1.97339801 0.364700878,1.57989361 C0.609871064,1.18452803 1.00612499,0.866799809 1.54828108,0.621391318 C2.09098261,0.377578114 2.81449373,0.254209165 3.72072346,0.254209165 C4.89284967,0.254209165 5.76553553,0.468509538 6.33632663,0.905884369 C6.90439059,1.34166391 7.18774078,1.90267357 7.18774078,2.59609215 L7.18774078,4.37058432 Z" id="Fill-1" fill="#FFFFFF" mask="url(#mask-2)"></path>
                    </g>
                    <path d="M10.4253781,5.87297351 L11.5402343,5.87297351 L11.5402343,4.61907704 C11.5402343,4.44625416 11.4925093,4.31969463 11.3995137,4.24179139 C11.3114269,4.15989993 11.1720699,4.11895421 10.9795336,4.11895421 C10.792997,4.11895421 10.6503674,4.16149522 10.5565537,4.24817254 C10.4662852,4.32820283 10.4253781,4.44944473 10.4253781,4.61907704 L10.4253781,5.87297351 Z M14.2084713,7.36855614 L10.4253781,7.36855614 L10.4253781,9.25312319 C10.4253781,9.55064443 10.4720122,9.74659899 10.5652805,9.8548127 C10.6623668,9.95903819 10.8019966,10.0106192 10.9795336,10.0106192 C11.1499801,10.0106192 11.2830647,9.96169701 11.3817872,9.86332091 C11.4895094,9.76388128 11.5402343,9.60541599 11.5402343,9.38925445 L11.5402343,8.00587375 L14.2084713,8.00587375 L14.2084713,9.06833565 C14.2084713,9.91064779 13.9428475,10.5543466 13.4121455,10.9983684 C12.8800798,11.4381362 12.0657548,11.6585518 10.9615345,11.6585518 C10.2903845,11.6585518 9.7351381,11.5732039 9.29661345,11.4104845 C8.86872466,11.2453722 8.52455917,11.0180436 8.2586627,10.7298282 C8.07130795,10.508615 7.92404221,10.2257172 7.82395605,9.88459142 C7.76259533,9.67002516 7.73314218,9.35788045 7.73314218,8.94603023 L7.73314218,5.11521165 C7.73314218,4.33139341 8.0094018,3.70364753 8.57037518,3.22798578 C9.12698514,2.75391932 9.9140387,2.5175508 10.9397173,2.5175508 C11.792495,2.5175508 12.4644631,2.64411032 12.9488038,2.89191175 C13.4358716,3.14104258 13.7767645,3.47552132 13.985391,3.8950821 C14.1345657,4.20536565 14.2084713,4.74350951 14.2084713,5.51243839 L14.2084713,7.36855614 Z" id="Fill-4" fill="#FFFFFF"></path>
                    <path d="M14.8664219,11.4104048 L14.8664219,2.66131285 L17.5013878,2.66131285 L17.5013878,3.73281471 C17.6860154,3.34808439 17.9150954,3.06119841 18.1872643,2.88066497 C18.555156,2.63897881 18.9923171,2.51773691 19.5058381,2.51773691 C20.1968963,2.51773691 20.6965089,2.75197839 21.0142211,3.21195314 C21.2223022,3.52409785 21.3275699,4.05559468 21.3275699,4.80750715 L21.3275699,11.4104048 L18.6800591,11.4104048 L18.6800591,5.18346339 C18.6800591,4.92874905 18.625789,4.754065 18.5281573,4.65409361 C18.4294347,4.5458799 18.2895322,4.49483068 18.1070863,4.49483068 C17.941276,4.49483068 17.8092823,4.54082815 17.7086507,4.63548192 C17.6096554,4.7341239 17.5578397,4.87876336 17.5578397,5.07976966 L17.5578397,11.4104048 L14.8664219,11.4104048 Z" id="Fill-6" fill="#FFFFFF"></path>
                    <path d="M28.3552274,5.76483957 L25.7469875,5.76483957 L25.7469875,4.75661746 C25.7469875,4.52343951 25.6965353,4.35433897 25.5986309,4.25569699 C25.4977266,4.15014209 25.3556424,4.09935875 25.1603789,4.09935875 C24.9659336,4.09935875 24.8246676,4.1442927 24.729763,4.24187116 C24.6340403,4.33147317 24.5895878,4.49738314 24.5895878,4.73960106 L24.5895878,9.47973387 C24.5895878,9.6376674 24.6392219,9.76848103 24.7463986,9.86659125 C24.8530299,9.96443559 24.9877508,10.0106989 25.1603789,10.0106989 C25.3297345,10.0106989 25.4742731,9.95273681 25.5833589,9.83787606 C25.6940809,9.72354708 25.7469875,9.55391477 25.7469875,9.32073682 L25.7469875,8.00595352 L28.3552274,8.00595352 L28.3552274,9.06841542 C28.3552274,9.93226394 28.0650593,10.5799509 27.4757236,11.0130717 C26.8970238,11.4432677 26.1143337,11.6586316 25.1273805,11.6586316 C24.2206054,11.6586316 23.4630049,11.4584229 22.8425798,11.0585374 C22.229518,10.655993 21.9227144,10.0072425 21.9227144,9.10351176 L21.9227144,5.11529141 C21.9227144,4.63165323 22.0058923,4.23256531 22.1711571,3.91855943 C22.3969646,3.47746226 22.7525841,3.13926117 23.2401973,2.89199151 C23.7278106,2.64419009 24.3490538,2.51763056 25.1107449,2.51763056 C25.7058076,2.51763056 26.2174197,2.58808912 26.6504901,2.72767683 C27.0892874,2.86699866 27.4484522,3.07651317 27.7432564,3.35622036 C27.9693366,3.57185014 28.1253292,3.83241387 28.2175066,4.14296329 C28.3110476,4.4495245 28.3552274,4.78506677 28.3552274,5.13656192 L28.3552274,5.76483957 Z" id="Fill-8" fill="#FFFFFF"></path>
                    <mask id="mask-4" fill="white">
                        <use xlink:href="#path-3"></use>
                    </mask>
                    <g id="Clip-11"></g>
                    <path d="M29.0596212,11.4103782 L31.7654928,11.4103782 L31.7654928,2.68441794 L29.0596212,2.68441794 L29.0596212,11.4103782 Z M29.0596212,2.09761778 L31.7654928,2.09761778 L31.7654928,0.497012019 L29.0596212,0.497012019 L29.0596212,2.09761778 Z" id="Fill-10" fill="#FFFFFF" mask="url(#mask-4)"></path>
                    <polygon id="Fill-12" fill="#FFFFFF" mask="url(#mask-4)" points="32.3940994 11.4103782 35.1026981 11.4103782 35.1026981 0.497012019 32.3940994 0.497012019"></polygon>
                    <polygon id="Fill-13" fill="#FFFFFF" mask="url(#mask-4)" points="35.7340318 11.4103782 38.441267 11.4103782 38.441267 0.497012019 35.7340318 0.497012019"></polygon>
                    <path d="M39.0690554,11.4103782 L41.7779269,11.4103782 L41.7779269,2.68441794 L39.0690554,2.68441794 L39.0690554,11.4103782 Z M39.0690554,2.09761778 L41.7779269,2.09761778 L41.7779269,0.497012019 L39.0690554,0.497012019 L39.0690554,2.09761778 Z" id="Fill-14" fill="#FFFFFF" mask="url(#mask-4)"></path>
                    <path d="M42.1207833,4.26112097 L42.1207833,2.68444452 L43.0447395,2.68444452 L43.0447395,1.06921529 L45.6938865,1.06921529 L45.6938865,2.68444452 L46.8766486,2.68444452 L46.8766486,4.26112097 L45.6938865,4.26112097 L45.6938865,9.06852177 C45.6938865,9.35141953 45.7476112,9.55056467 45.8583333,9.65771485 C45.9728733,9.7640674 46.1613189,9.81724367 46.4203975,9.81724367 L46.8766486,9.81724367 L46.8766486,11.3957813 C46.4503961,11.4056189 46.1111394,11.4104048 45.8583333,11.4104048 C45.0699161,11.4104048 44.512488,11.3641414 44.1931395,11.2774641 C43.8789726,11.1825444 43.6381659,11.0466791 43.4660831,10.8802373 C43.3000001,10.7044898 43.1846419,10.5026858 43.1254629,10.2716349 C43.0692838,10.0429769 43.0447395,9.68962062 43.0447395,9.21156594 L43.0447395,4.26112097 L42.1207833,4.26112097 Z" id="Fill-15" fill="#FFFFFF" mask="url(#mask-4)"></path>
                    <path d="M49.9249949,9.42690325 C49.9249949,9.62684603 49.9705382,9.77441018 50.0700789,9.86667101 C50.1726195,9.96451535 50.3007952,10.0107787 50.461424,10.0107787 C50.6498696,10.0107787 50.7976807,9.95919772 50.9048575,9.85497223 C51.0267608,9.74649264 51.0832126,9.60530964 51.0832126,9.42690325 L51.0832126,4.70485036 C51.0832126,4.50862992 51.0270335,4.36452223 50.9242202,4.2693367 C50.826043,4.16989707 50.6891404,4.11884785 50.5162395,4.11884785 C50.3332482,4.11884785 50.1829826,4.16989707 50.0837146,4.2693367 C49.9749016,4.37116926 49.9249949,4.5317616 49.9249949,4.75669723 L49.9249949,9.42690325 Z M53.7274508,5.04119028 L53.7274508,9.19399118 C53.7274508,9.46492428 53.6838165,9.74649264 53.5902755,10.0394939 C53.5035523,10.3311657 53.3181066,10.6007694 53.0451195,10.8541544 C52.7702235,11.1112616 52.4230582,11.3082797 51.9927149,11.4460063 C51.5653716,11.5874551 51.0627591,11.6584455 50.4933315,11.6584455 C49.885724,11.6584455 49.3610216,11.5800105 48.9115884,11.4231405 C48.4722456,11.2726516 48.1128081,11.0519701 47.8360031,10.7714653 C47.6396487,10.5736495 47.4932011,10.3189352 47.396933,10.0028023 C47.3047555,9.68826462 47.2589395,9.42690325 47.2589395,9.21153935 L47.2589395,5.21879902 C47.2589395,4.67267872 47.3366631,4.2379627 47.4953829,3.91863919 C47.7135543,3.4892408 48.0629014,3.14917855 48.5483329,2.89978184 C49.038946,2.64400397 49.6615528,2.51771033 50.4126081,2.51771033 C51.1628452,2.51771033 51.768271,2.60731234 52.2245221,2.78146463 C52.6821368,2.94896989 53.0470285,3.22309356 53.3164703,3.59559334 C53.5940935,3.96809312 53.7274508,4.44960426 53.7274508,5.04119028 L53.7274508,5.04119028 Z" id="Fill-16" fill="#FFFFFF" mask="url(#mask-4)"></path>
                </g>
            </g>
        </g>
    </g>
</svg>