<?xml version="1.0" encoding="UTF-8" standalone="no"?>
<svg width="44px" height="18px" viewBox="0 0 44 18" version="1.1" xmlns="http://www.w3.org/2000/svg" xmlns:xlink="http://www.w3.org/1999/xlink">
    <!-- Generator: Sketch 39.1 (31720) - http://www.bohemiancoding.com/sketch -->
    <title>Group 13</title>
    <desc>Created with Sketch.</desc>
    <defs>
        <polygon id="path-1" points="0.100684954 7.66738318 6.33889462 7.66738318 6.33889462 0.158437501 0.100684954 0.158437501"></polygon>
    </defs>
    <g id="SP2-Pago-fácil" stroke="none" stroke-width="1" fill="none" fill-rule="evenodd">
        <g id="1-PagoFacil-Correcciones" transform="translate(-301.000000, -1233.000000)">
            <g id="Group-19" transform="translate(30.000000, 1233.000000)">
                <g id="Group-13" transform="translate(271.000000, 0.000000)">
                    <g id="Page-1">
                        <g id="Group-18">
                            <path d="M18.9187591,15.6994582 C19.5123713,15.6994582 19.9608711,15.587547 20.264421,15.3630722 C20.5674833,15.1390867 20.7194208,14.8093892 20.7194208,14.3744691 C20.7194208,13.9871847 20.5687833,13.6819576 20.267671,13.4574827 C19.9663961,13.2334973 19.5622588,13.1215861 19.055259,13.1215861 L17.4040973,13.1215861 L17.4040973,15.6994582 L18.9187591,15.6994582 Z M18.5092593,11.7443936 C18.9728716,11.7443936 19.3389839,11.6336244 19.6077588,11.4117597 C19.8763711,11.189895 20.0107586,10.8809157 20.0107586,10.4851482 C20.0107586,10.1327749 19.8872586,9.85316011 19.6402587,9.64646704 C19.3932589,9.44010023 19.068259,9.33650899 18.6652592,9.33650899 L17.4040973,9.33650899 L17.4040973,11.7443936 L18.5092593,11.7443936 Z M18.977259,7.95931647 C19.8092587,7.95931647 20.4873709,8.17710278 21.0119206,8.61202285 C21.5361454,9.0472692 21.7984203,9.59132713 21.7984203,10.2438704 C21.7984203,10.6614981 21.6888953,11.029043 21.4700079,11.3465053 C21.251283,11.6639676 20.9339207,11.9165019 20.5179209,12.1034555 L20.5179209,12.1817607 C21.1505331,12.3253202 21.6433953,12.6091765 21.9968327,13.0334928 C22.349945,13.4574827 22.5264199,13.9547207 22.5264199,14.5248804 C22.5264199,15.0291332 22.3975575,15.48053 22.1398326,15.8787445 C21.8819452,16.2766327 21.5244454,16.5759869 21.0670081,16.7759914 C20.6098958,16.9759959 20.0713711,17.0761613 19.4517588,17.0761613 L15.6490981,17.0761613 L15.6490981,7.95931647 L18.977259,7.95931647 Z" id="Fill-1" fill="#FFFFFF"></path>
                            <path d="M24.6763084,15.1190373 C24.6763084,15.3821754 24.7598333,15.5939257 24.9267207,15.7537988 C25.0939332,15.9136719 25.3009581,15.9936084 25.547633,15.9936084 C25.9641203,15.9936084 26.3804451,15.8027395 26.7967699,15.4211648 L26.7967699,13.5163911 C26.2671826,13.6971456 25.8521578,13.8674594 25.5516955,14.0278219 C25.2505831,14.1875318 25.0297457,14.349852 24.8885333,14.5152717 C24.7469958,14.6805282 24.6763084,14.8818378 24.6763084,15.1190373 M25.8329828,9.68465713 C26.7582574,9.68465713 27.4649696,9.88205146 27.9534444,10.2770033 C28.4417566,10.6716288 28.685994,11.2225384 28.685994,11.9297322 L28.685994,15.4671691 C28.685994,15.7407479 28.796494,15.8776188 29.0176564,15.8776188 C29.1101188,15.8776188 29.2399563,15.8376506 29.4071687,15.7578772 C29.5740561,15.6779406 29.7141311,15.585932 29.827231,15.4831564 L29.827231,16.5818761 C29.1640688,16.9898788 28.5574566,17.1936354 28.0073943,17.1936354 C27.6680945,17.1936354 27.4072821,17.136701 27.2246322,17.0233216 C27.0423073,16.9099423 26.9149073,16.7087958 26.8430824,16.419556 C26.1183327,16.9353914 25.390658,17.1936354 24.6608709,17.1936354 C24.1415211,17.1936354 23.6957838,17.0184276 23.3228465,16.6671962 C22.9502341,16.3161279 22.7640092,15.8957269 22.7640092,15.4051775 C22.7640092,14.7808568 22.9490966,14.2880235 23.319109,13.9268408 C23.6892838,13.5658212 24.3370085,13.2506429 25.2622831,12.9824476 L26.7967699,12.5334978 L26.7967699,12.2008639 C26.7967699,11.4936702 26.3700451,11.1399917 25.516758,11.1399917 C25.0797957,11.1399917 24.6454334,11.2409728 24.2136711,11.441793 C23.7819088,11.6434288 23.3884964,11.9401729 23.0339216,12.3321882 L23.0339216,10.6217092 C23.8204212,9.99689908 24.7534958,9.68465713 25.8329828,9.68465713" id="Fill-3" fill="#FFFFFF"></path>
                            <path d="M34.3107971,9.68472238 C35.0818593,9.68472238 35.6975715,9.93888798 36.1574463,10.4473823 C36.6176461,10.9557135 36.847746,11.6250597 36.847746,12.4560736 L36.847746,17.0543827 L34.9585218,17.0543827 L34.9585218,12.6493895 C34.9585218,12.1798846 34.8465594,11.8082613 34.6232845,11.5346825 C34.3993596,11.26143 34.0948347,11.1245591 33.7093849,11.1245591 C33.4163975,11.1245591 33.1412852,11.211021 32.8842103,11.3837819 C32.6271354,11.5570321 32.344548,11.8443143 32.0361232,12.2467703 L32.0361232,17.0543827 L30.139099,17.0543827 L30.139099,9.82404037 L32.0361232,9.82404037 L32.0361232,10.8384188 C32.385498,10.425359 32.7442978,10.1297569 33.1118727,9.95193885 C33.479285,9.7736314 33.8790348,9.68472238 34.3107971,9.68472238" id="Fill-5" fill="#FFFFFF"></path>
                            <g id="Group-9" transform="translate(37.073197, 9.526285)">
                                <mask id="mask-2" fill="white">
                                    <use xlink:href="#path-1"></use>
                                </mask>
                                <g id="Clip-8"></g>
                                <path d="M3.93308321,0.158437501 C4.77077033,0.158437501 5.52931999,0.321247042 6.20775718,0.645887308 L6.20775718,2.26403143 C5.53419499,1.87201607 4.89703278,1.67576369 4.29545805,1.67576369 C3.64773334,1.67576369 3.11814608,1.87854151 2.70702127,2.28344459 C2.29557146,2.68851081 2.09017155,3.23697342 2.09017155,3.92817985 C2.09017155,4.60437779 2.29703396,5.148762 2.71108377,5.56182188 C3.12464608,5.97488175 3.67584583,6.18108542 4.36484552,6.18108542 C4.87883279,6.18108542 5.53695749,6.01077163 6.33889462,5.67014406 L6.33889462,7.2104724 C5.59350746,7.51504696 4.82488281,7.66741581 4.03334567,7.66741581 C2.8662712,7.66741581 1.91922163,7.3316823 1.19170946,6.66103098 C0.464359789,5.99021652 0.100684954,5.09982126 0.100684954,3.99000832 C0.100684954,2.83941144 0.456722293,1.91296316 1.16879697,1.21131603 C1.88070915,0.509505769 2.80208373,0.158437501 3.93308321,0.158437501" id="Fill-7" fill="#FFFFFF" mask="url(#mask-2)"></path>
                            </g>
                            <polygon id="Fill-10" fill="#FFFFFF" points="15.75 0.0563553952 3.24999855e-05 0.0563553952 3.24999855e-05 5.33555624 4.07275715 5.33555624 4.07275715 17.0718546 11.4966788 17.0718546 11.4966788 5.33555624 15.75 5.33555624"></polygon>
                        </g>
                    </g>
                </g>
            </g>
        </g>
    </g>
</svg>