<?xml version="1.0" encoding="UTF-8" standalone="no"?>
<svg width="76px" height="14px" viewBox="0 0 76 14" version="1.1" xmlns="http://www.w3.org/2000/svg" xmlns:xlink="http://www.w3.org/1999/xlink">
    <!-- Generator: Sketch 39.1 (31720) - http://www.bohemiancoding.com/sketch -->
    <title>Page 1</title>
    <desc>Created with Sketch.</desc>
    <defs>
        <polygon id="path-1" points="8.87387502 10.0092844 8.87387502 0.0359530192 0.0954954813 0.0359530192 0.0954954813 10.0092844"></polygon>
        <polygon id="path-3" points="14.0237168 13.7200027 0 13.7200027 0 0.124818965 14.0237168 0.124818965"></polygon>
    </defs>
    <g id="SP2-Pago-fácil" stroke="none" stroke-width="1" fill="none" fill-rule="evenodd">
        <g id="1-PagoFacil-Correcciones" transform="translate(-269.000000, -1505.000000)">
            <g id="Group-20" transform="translate(30.000000, 1504.000000)">
                <g id="Page-1" transform="translate(239.300971, 1.000000)">
                    <g id="Group-3" transform="translate(66.802452, 1.858796)">
                        <mask id="mask-2" fill="white">
                            <use xlink:href="#path-1"></use>
                        </mask>
                        <g id="Clip-2"></g>
                        <path d="M8.74579742,7.33069665 L8.74579742,7.27614724 C8.95926008,6.99662285 8.8999178,6.60138759 8.61337936,6.39327333 C8.32667137,6.18515907 7.92127883,6.2430145 7.70781617,6.5225389 C7.65729045,6.58865939 7.62524562,6.65246567 7.60286511,6.73197556 C7.3075101,7.84957723 6.39940367,8.64219667 5.21934004,8.80501839 L5.1903471,8.80501839 C4.05165352,8.81063863 3.07352319,8.46548965 2.21255148,7.75370252 C1.3437805,6.68767483 1.0457127,5.43386494 1.3447978,4.10368588 C1.48433693,2.81747695 2.28834005,1.79227867 3.52113353,1.32480677 C4.78275041,0.859153184 6.11913855,1.14628143 7.06183306,2.08420066 C7.23273883,2.21148261 7.35108429,2.357113 7.43619807,2.54555641 C7.59879592,2.8242543 7.96247932,2.92161673 8.24833956,2.76309284 C8.5341998,2.60456896 8.63423393,2.2499978 8.47163609,1.97129991 C8.4277228,1.89625315 8.37651889,1.84021603 8.3047995,1.78930325 C7.62846706,0.778651481 6.59387679,0.165218587 5.33548136,0.0359530192 L4.14541432,0.0359530192 C2.13201553,0.207866307 0.556054119,1.62433261 0.217124925,3.56695276 C0.216277179,3.57769734 0.215598981,3.59026024 0.214751234,3.60513735 C0.214751234,3.60513735 0.213394839,3.63290796 0.210851599,3.68134122 C-0.0219396887,5.02904221 0.0950493778,6.22698028 0.585047062,7.50608126 C1.14354269,8.673108 2.09691881,9.45828888 3.36175712,9.7945116 C4.83615846,10.244131 6.30733836,9.98245911 7.51317349,9.0597476 C8.06929543,8.54863617 8.44756008,8.0186804 8.74579742,7.33268026 L8.74579742,7.33069665 Z" id="Fill-1" fill="#FFFFFF" mask="url(#mask-2)"></path>
                    </g>
                    <path d="M28.32758,5.47018162 C28.5098455,4.78170197 29.0617287,4.29786525 29.7831613,4.19372547 C30.75061,4.05421122 31.6510867,4.7056634 31.7941864,5.64903756 L31.7941864,11.1993572 C31.825553,11.7547694 32.3126684,12.1802548 32.8823543,12.149674 C33.4038881,12.1217381 33.8150454,11.7298089 33.8553981,11.2220035 L33.8553981,5.4007551 C33.4045663,3.36275614 31.3442024,2.06695974 29.2538282,2.50666103 C27.7370395,2.82552712 26.6266607,3.90147288 26.2902747,5.37827414 C26.2868837,7.05128797 26.2777281,11.0429823 26.2692506,11.377552 C26.4308311,11.9271786 27.0188284,12.2450529 27.5824105,12.0876861 C27.9693221,11.9795791 28.2421271,11.6955915 28.32758,11.312258 L28.32758,5.47018162 Z" id="Fill-4" fill="#FFFFFF"></path>
                    <path d="M41.0696561,5.70228109 C41.0772858,5.62227529 41.134763,5.55929552 41.2154685,5.5426001 C41.3155027,5.52193744 41.4136717,5.58409071 41.435035,5.68161844 C41.6685045,6.17801806 43.6803773,10.913072 43.929954,11.4479868 C44.0318531,11.764704 44.378073,11.9409151 44.7029296,11.8414038 C44.9053715,11.7794158 45.0493189,11.6365955 45.109509,11.4380687 C45.5718701,10.3565027 47.8200948,5.36589307 47.8623126,5.36589307 L47.8716378,5.36589307 C47.9138556,5.36589307 47.9182638,5.37630705 47.9169074,5.46986755 L47.9108037,11.1990432 C47.9108037,11.2028451 47.9106341,11.2064817 47.9106341,11.209953 C47.8840149,11.5372495 48.1346088,11.8235512 48.4703166,11.8495035 C48.8060244,11.8754558 49.0996839,11.6311406 49.1263031,11.3038441 C49.1285073,11.2760735 49.1288464,11.2522702 49.1273204,11.2244995 C49.1281682,10.423615 49.1185038,3.77833999 49.112061,3.30227242 C49.1156215,2.87877065 48.7833047,2.53262986 48.3489192,2.52915853 C47.9757411,2.52618311 47.6615661,2.76702701 47.5766219,3.12110226 C47.2807582,3.84115446 44.9979455,8.92218391 44.5988262,9.53479029 C44.58238,9.56107319 44.562034,9.57958693 44.5342279,9.59413344 C44.4519965,9.63661586 44.3499278,9.60620043 44.3063536,9.52602933 C44.069154,9.00896706 41.7000406,3.84561759 41.3099075,3.08671961 C41.2219114,2.6985923 40.8278787,2.45345056 40.4297767,2.53924191 C40.0745708,2.61577638 39.8341498,2.92241018 39.8516134,3.27665073 L39.8516134,11.2671473 C39.7941361,11.5926254 40.0181109,11.9020693 40.3521231,11.9581064 C40.6859658,12.0141436 41.0033623,11.7957806 41.0608395,11.4703025 C41.067791,11.4309608 41.0705038,11.3972393 41.0696561,11.3574017 L41.0696561,5.70228109 Z" id="Fill-6" fill="#FFFFFF"></path>
                    <path d="M24.7672975,3.41532194 C24.6269106,2.85875267 24.0502732,2.51856272 23.47957,2.65543215 C23.0921497,2.74833144 22.8100195,3.01727656 22.7060858,3.39267567 L22.7060858,8.82414374 L22.7060858,8.83025989 C22.7079508,8.85207965 22.7093072,8.872577 22.710155,8.89274376 C22.6798056,9.7795849 21.9888919,10.4912067 21.0823114,10.5693942 C20.0997728,10.6541937 19.2326973,9.94620854 19.1457185,8.98828787 L19.1457185,3.57318462 C19.1119782,3.01694595 18.6219805,2.59278298 18.0514469,2.62567792 C17.540086,2.65526684 17.1365585,3.03165776 17.08332,3.52838798 C17.0733165,5.0263478 17.0597526,7.55942397 17.0695865,8.69504348 C17.0075314,10.2211045 17.937001,11.5440103 19.4190321,12.0385916 C19.4246272,12.0422282 19.4263227,12.0481791 19.4268314,12.0580972 C20.4131001,12.1347969 21.2499958,12.153476 22.2384686,12.1209116 C23.5360299,11.6491419 24.4268423,10.6804766 24.7672975,9.37178674 L24.7672975,3.41532194 Z" id="Fill-8" fill="#FFFFFF"></path>
                    <path d="M38.0715315,3.55068712 C37.9952343,3.02106195 37.493029,2.65194429 36.9496233,2.72616455 C36.5028607,2.787326 36.1668138,3.11511836 36.1040806,3.55068712 L36.1040806,11.4024959 C36.2458239,11.9377413 36.8058454,12.2595828 37.3548463,12.121391 C37.7024225,12.0337813 37.9574248,11.8021943 38.0715315,11.4701041 L38.0715315,3.55068712 Z" id="Fill-10" fill="#FFFFFF"></path>
                    <path d="M65.2402924,4.46690229 C65.2467352,4.90792599 65.242327,5.28034968 65.2255416,5.72104278 C65.108722,6.17314167 64.6824749,6.48093257 64.1970551,6.45117835 C63.5697224,6.45266606 60.8289568,6.45911281 60.7513032,6.45927811 C60.6924696,6.47481643 60.6394006,6.47680004 60.5795497,6.46572486 C60.3725299,6.42704437 60.2368904,6.23198891 60.276565,6.0301561 L60.276565,3.89958844 C60.3526926,3.41757003 60.6505909,3.36087171 60.9932501,3.35591267 C61.0057968,3.35624327 63.7814896,3.35624327 63.8939008,3.35624327 C64.571081,3.34797821 65.1385627,3.82090505 65.2402924,4.46690229 M60.276565,8.26965727 C60.2485893,7.96798251 60.4612042,7.6995333 60.7675799,7.64944702 C61.1282114,7.64944702 63.901361,7.64828992 63.9417137,7.64729811 C64.5922747,7.63175979 65.132459,8.13311845 65.1483966,8.767214 C65.1483966,8.85879088 65.1592478,11.0782906 65.1667079,11.2992984 C65.1833238,11.6226276 65.4078071,11.8717365 65.7394457,11.8553717 C66.054638,11.8399987 66.2725089,11.6221317 66.2813255,11.3145061 C66.2836992,11.2645851 66.2726785,8.57744817 66.2726785,8.42520573 C66.210793,7.74218102 65.9473132,7.35041709 65.443243,7.19139729 C65.431205,7.18825657 65.4295095,7.1789997 65.4295095,7.1520556 L65.4295095,7.07089269 C65.4295095,7.04973413 65.4300181,7.03601413 65.4322222,7.02708786 C66.0539598,6.67284731 66.4183214,6.09346647 66.4602001,5.39258922 L66.4602001,4.27283864 C66.24199,3.17507312 65.4052639,2.36873368 64.2767433,2.16871918 L59.8104737,2.16871918 C59.4676449,2.10144158 59.1338022,2.3176556 59.0647956,2.6517294 C59.0495361,2.72512315 59.050723,11.0267166 59.0624219,11.2554935 C59.0447888,11.5821288 59.1480443,11.7327182 59.4788352,11.8310724 C59.8097955,11.9294267 60.1597454,11.7477606 60.2606273,11.4250926 C60.2918244,11.3250854 60.276565,8.86870896 60.276565,8.26965727" id="Fill-12" fill="#FFFFFF"></path>
                    <path d="M52.9275831,7.92345036 C52.8660367,7.92874 52.8119504,7.91518529 52.7605769,7.88146384 C52.7342968,7.86460312 52.7063211,7.84675058 52.6944527,7.81997178 C52.6547781,7.73054381 52.6515567,7.61036981 52.6936049,7.5019322 C52.8307704,7.09115862 53.8239906,4.83314371 53.8711253,4.72189598 C53.8967273,4.66040392 53.9452184,4.61841741 54.010834,4.60073017 C54.1235843,4.57048005 54.2402343,4.63494753 54.2712618,4.74487285 C54.410801,5.06654906 55.4981211,7.595658 55.4981211,7.595658 L55.4981211,7.5959886 C55.5140587,7.62574283 55.5220276,7.65367874 55.5238926,7.68690429 C55.5311832,7.81054961 55.4343705,7.9163424 55.3077172,7.92345036 L55.2977137,7.92345036 L52.9275831,7.92345036 Z M50.8136415,11.46536 L51.9523351,9.11097445 L56.1108725,9.11097445 L56.115959,9.12221493 L57.2877147,11.5579287 C57.2892407,11.5595817 57.2909362,11.5614 57.2924621,11.563053 C57.4040256,11.8272044 57.7141314,11.9529986 57.9850713,11.8442304 C58.2558416,11.7354622 58.3850383,11.4331262 58.2734748,11.1689749 C58.2716097,11.164677 58.2700838,11.1610404 58.2680492,11.1569079 C58.2151498,10.8340746 57.4009737,8.97228671 57.4009737,8.97228671 C56.4067362,6.6607142 54.7671938,2.77084547 54.7597336,2.75299294 C54.6908965,2.41313359 54.352476,2.19212584 54.0038825,2.25923814 C53.7568491,2.3068449 53.5727184,2.47446035 53.5072724,2.71150233 C53.4757362,2.78307776 50.1898694,9.94144787 49.675287,11.0626862 C49.5325265,11.3316313 49.6403599,11.6627297 49.9163862,11.8019133 C49.9284242,11.8080294 49.9387668,11.8128232 49.9511439,11.8181128 C50.0079429,11.8442304 50.069998,11.8622483 50.1357831,11.8701827 C50.4070621,11.9029124 50.6566388,11.7647205 50.7666763,11.5205706 C50.7871918,11.5020569 50.803299,11.4835431 50.8136415,11.46536 L50.8136415,11.46536 Z" id="Fill-14" fill="#FFFFFF"></path>
                    <g id="Group-18" transform="translate(0.000000, 0.040482)">
                        <mask id="mask-4" fill="white">
                            <use xlink:href="#path-3"></use>
                        </mask>
                        <g id="Clip-17"></g>
                        <path d="M11.6822399,10.921304 C10.9316449,10.9226264 10.2817621,10.6290514 9.81092353,10.0794248 C9.53201481,9.74468981 9.36246544,9.40681408 9.26293996,8.98727953 C9.26124447,8.94033398 9.22072217,8.90363711 9.17240059,8.90545542 C9.15188512,8.90628193 9.13442154,8.91289398 9.11865344,8.92595277 C9.10135941,8.95405398 9.08525222,8.98165929 9.06812773,9.01290123 C9.01658472,9.11803281 8.96232892,9.2101056 8.89281368,9.31126996 C8.41281941,10.1505043 7.70274664,10.715504 6.75598295,11.0113932 C6.5528628,11.0540409 6.36737579,11.0718934 6.15272628,11.0704057 C4.59371981,11.0593306 3.33905446,9.81808356 3.35058382,8.29813867 C3.15051556,6.86745646 3.46875973,4.15403664 3.47164207,4.1348617 C3.52301553,3.79996139 3.84532889,3.54308326 4.20172166,3.5887064 C4.55794489,3.63449485 4.80870842,3.95303033 4.76191279,4.30049354 C4.75750451,5.06005272 4.70579195,5.81614059 4.6778163,6.27700044 C4.67696855,6.29253875 4.67289937,6.82976778 4.67527306,7.30897607 C4.57405208,8.2348283 4.92773207,9.07174847 5.66696733,9.65724545 C6.50267619,10.1746383 7.60271251,9.95478768 8.16324273,9.16382126 C8.81465142,8.09432225 9.10576769,7.0325924 9.08864321,5.78886588 C9.09729022,5.68274249 9.11594065,5.45049425 9.13069145,5.26717517 C9.1164493,5.18320215 9.11899254,5.10964309 9.13866027,5.02666187 C9.21800938,4.69440639 9.55863406,4.48777984 9.89959785,4.56514082 C10.2403921,4.6425018 10.4523288,4.97459198 10.3729797,5.30684747 C10.3633154,5.54603836 10.2980389,7.15524591 10.2980389,7.15524591 C10.2990562,7.17690038 10.2990562,7.22417653 10.2978693,7.24368208 C10.2961738,7.27541991 10.2773539,8.2219348 10.334492,8.63436139 C10.4472423,9.08745208 10.647141,9.44780878 10.9742018,9.78766813 C10.9764059,9.78998234 10.9784405,9.79213126 10.9806446,9.79444548 C11.4979398,10.2477015 12.1566391,10.4007704 12.8248332,10.2242287 C13.2768518,10.1551328 13.6478258,10.0113207 14.0237168,9.76006282 L14.0237168,3.70441727 C14.0237168,1.72741447 12.365863,0.124818965 10.320928,0.124818965 L3.70290741,0.124818965 C1.65780289,0.124818965 -5.08648118e-05,1.72741447 -5.08648118e-05,3.70441727 L-5.08648118e-05,10.140421 C-5.08648118e-05,12.1174238 1.65780289,13.7200193 3.70290741,13.7200193 L10.320928,13.7200193 C12.3394133,13.7200193 13.9794644,12.1584185 14.0216822,10.2169554 C13.3261907,10.7439358 12.5472808,10.9791595 11.6822399,10.921304" id="Fill-16" fill="#FFFFFF" mask="url(#mask-4)"></path>
                    </g>
                </g>
            </g>
        </g>
    </g>
</svg>