<?xml version="1.0" encoding="UTF-8" standalone="no"?>
<svg width="116px" height="18px" viewBox="0 0 116 18" version="1.1" xmlns="http://www.w3.org/2000/svg" xmlns:xlink="http://www.w3.org/1999/xlink">
    <!-- Generator: Sketch 39.1 (31720) - http://www.bohemiancoding.com/sketch -->
    <title>Page 1</title>
    <desc>Created with Sketch.</desc>
    <defs></defs>
    <g id="SP2-Pago-fácil" stroke="none" stroke-width="1" fill="none" fill-rule="evenodd">
        <g id="1-PagoFacil-Correcciones" transform="translate(-169.000000, -1271.000000)" fill="#FFFFFF">
            <g id="Group-19" transform="translate(30.000000, 1233.000000)">
                <g id="Page-1" transform="translate(139.000000, 38.000000)">
                    <path d="M53.4861885,6.13303914 L53.4861885,3.45539025 L53.0686456,3.45539025 C52.9461772,3.74998302 52.7741873,3.87291846 52.5532923,3.87291846 C51.9637594,3.87291846 51.6937538,3.45539025 50.7851046,3.45539025 C49.3366496,3.45539025 48.1331312,4.60991433 48.1331312,5.9613818 C48.1331312,8.90895414 52.7493238,8.24514391 52.7493238,10.6773331 C52.7493238,11.5370588 52.0866387,12.1759942 51.2273056,12.1759942 C50.1466666,12.1759942 48.7962273,11.4636676 48.4277949,9.64574444 L48.0106629,9.64574444 L48.0106629,12.6181917 L48.4277949,12.6181917 C48.4526585,12.2985184 48.673348,12.0288006 48.9926698,12.0288006 C49.4098018,12.0288006 50.2450933,12.6671192 51.2026476,12.6671192 C52.7002132,12.6671192 53.9528422,11.4387927 53.9528422,9.98947027 C53.9528422,6.746894 49.3855547,7.33710743 49.3855547,5.12570865 C49.3855547,4.4133821 49.9746767,3.94651526 50.8346262,3.94651526 C51.8657437,3.94651526 52.823298,4.68392229 52.9952879,6.13303914 L53.4861885,6.13303914 Z" id="Fill-1"></path>
                    <path d="M57.0009265,6.675538 C57.0989423,5.05435265 57.9584808,3.97321979 59.4073468,3.97321979 C60.5124384,3.97321979 61.813767,4.7595543 61.7402039,6.675538 L57.0009265,6.675538 Z M63.3853068,7.09327178 C63.5079806,5.07840524 61.6417771,3.45742547 59.6284473,3.45742547 C57.1729164,3.45742547 55.2573969,5.52101392 55.2573969,8.14932417 C55.2573969,10.7780456 57.2218216,12.66936 59.9477691,12.66936 C61.4699927,12.66936 62.4768631,12.1535656 63.5324332,10.8025093 L63.5324332,10.1637796 C62.2804207,11.5641745 61.6664352,11.9814971 60.4633278,11.9814971 C59.2844675,11.9814971 56.9518159,10.9986304 57.0009265,7.09327178 L63.3853068,7.09327178 Z" id="Fill-3"></path>
                    <path d="M72.6038012,3.45746659 L72.1862582,3.45746659 C72.0393373,3.77713983 71.8178259,3.94879717 71.5969308,3.94879717 C71.1553462,3.94879717 70.442934,3.45746659 69.1418109,3.45746659 C66.6618275,3.45746659 64.6482922,5.59485741 64.6482922,8.27230072 C64.6482922,10.8759417 66.440727,12.6694011 69.0187261,12.6694011 C70.5902659,12.6694011 71.9162526,12.0306713 72.8497653,10.7534174 L72.8497653,10.1142765 C71.9411161,11.3672722 70.6642401,11.9324052 69.608259,11.9324052 C67.8398658,11.9324052 66.3427112,9.94261912 66.3427112,7.55997416 C66.3427112,5.42258334 67.5456131,3.94879717 69.2646902,3.94879717 C70.7133507,3.94879717 71.8178259,4.95612765 72.1862582,6.52838552 L72.6038012,6.52838552 L72.6038012,3.45746659 Z" id="Fill-5"></path>
                    <path d="M82.7974804,3.45746659 L82.3799374,3.45746659 L79.4335059,3.72800677 L79.4335059,4.1453294 C80.9316879,4.16938199 81.1279249,4.31739789 81.1279249,5.52105503 L81.1279249,10.2127482 C80.4155127,11.1711512 79.6548119,11.6374013 78.8199314,11.6374013 C77.6410711,11.6374013 76.8553012,10.900611 76.8553012,9.67269567 L76.8553012,3.45746659 L76.4379637,3.45746659 L73.638453,3.72800677 L73.638453,4.1453294 C74.8908765,4.1453294 75.1855402,4.46459149 75.1855402,5.29985348 L75.1855402,9.74629247 C75.1855402,11.3672722 76.3152899,12.6694011 78.033956,12.6694011 C79.2128163,12.6694011 80.2194812,12.1044737 81.0788143,10.9744133 L81.1279249,10.9744133 L81.1279249,12.4002999 L84.295457,12.399272 L84.295457,11.9815383 C83.1165967,11.9815383 82.7974804,11.7114092 82.7974804,10.7534174 L82.7974804,3.45746659 Z" id="Fill-7"></path>
                    <path d="M88.6176845,5.76945451 C89.4032489,5.00778931 89.8945606,4.71299097 90.4596409,4.71299097 C91.0487628,4.71299097 91.8100801,5.08138611 92.5220813,5.47445058 L93.1849719,3.92706761 C92.7427709,3.53400314 92.0800858,3.23920479 91.5887741,3.23920479 C90.9996522,3.23920479 90.2385404,3.73053538 88.6176845,5.13072475 L88.6176845,3.23920479 L88.2001415,3.23920479 L85.1556942,3.50933383 L85.1556942,3.92706761 C86.6286018,3.92706761 86.948129,4.07426121 86.948129,5.35172072 L86.948129,10.3098425 C86.948129,11.6364351 86.8010026,11.9803665 85.475016,11.9803665 L85.475016,12.3981002 L90.0665505,12.3981002 L90.0665505,11.9803665 C88.9125537,11.9803665 88.6176845,11.7102374 88.6176845,10.7518344 L88.6176845,5.76945451 Z" id="Fill-9"></path>
                    <path d="M96.5753922,0 C95.9860648,0 95.4953696,0.466661265 95.4953696,1.05646354 C95.4953696,1.64606024 95.9860648,2.13697967 96.5753922,2.13697967 C97.1647197,2.13697967 97.6313733,1.64606024 97.6313733,1.05646354 C97.6313733,0.466661265 97.1647197,0 96.5753922,0 L96.5753922,0 Z M97.3858202,3.25984479 L96.9682772,3.25984479 L94.0711617,3.52997382 L94.0711617,3.94729645 C95.3474213,3.94729645 95.7158537,4.11073068 95.7158537,5.31418224 L95.7158537,10.6452219 C95.7158537,11.6768105 95.3965319,11.9800375 94.0711617,11.9800375 L94.0711617,12.3973602 L98.8344807,12.3973602 L98.8344807,11.9800375 C97.6069207,11.9800375 97.3858202,11.504742 97.3858202,10.6452219 L97.3858202,3.25984479 Z" id="Fill-11"></path>
                    <path d="M109.45384,5.48884102 C109.133696,4.75020052 109.335481,4.29402372 110.000016,4.19555202 L110.000016,3.55599995 L105.814723,3.55599995 L105.814723,4.19555202 C106.824264,4.22001576 107.220437,4.47883802 107.66346,5.48884102 L110.714277,12.5467329 L110.130498,14.0630736 C109.589048,15.5901044 108.973624,16.2062206 107.914767,16.2062206 C107.619487,16.2062206 107.422633,16.1564708 107.078037,16.0088661 L106.511724,17.5112275 C106.954747,17.7823845 107.225369,17.8808562 107.595034,17.8808562 C108.653481,17.8808562 109.785902,16.723454 110.475094,14.7036536 L113.397484,6.06877556 C113.890029,4.61595831 114.456342,4.02451142 115.391499,4.02451142 L115.391499,3.55599995 L112.314174,3.55599995 L112.314174,4.02451142 C113.274605,4.07426121 113.348579,4.64062763 113.003572,5.67488879 L111.477444,10.280856 L109.45384,5.48884102 Z" id="Fill-13"></path>
                    <path d="M102.787495,0.624339322 L102.368925,0.624339322 C101.63021,2.12649521 100.645738,3.18583684 99.4637952,3.77707816 L99.4637952,4.19583983 L101.113213,4.19583983 L101.113213,10.0332172 C101.113213,11.5357842 102.147208,12.570251 103.624225,12.570251 C104.609108,12.570251 105.49536,12.0774813 106.258527,11.1170226 L105.987904,10.7967326 C105.470907,11.3877683 105.002815,11.6342559 104.362939,11.6342559 C103.402919,11.6342559 102.787495,11.0181397 102.787495,9.81139891 L102.787495,4.19583983 L105.83112,4.19583983 L105.83112,3.55525987 L102.787495,3.55525987 L102.787495,0.624339322 Z" id="Fill-15"></path>
                    <path d="M4.35755016,9.73556131 C4.35755016,10.5535548 3.81137433,11.0444742 2.70463883,11.0444742 L1.65297297,11.0444742 L1.65297297,8.5629464 L2.77306492,8.5629464 C3.784045,8.5629464 4.35755016,9.04009212 4.35755016,9.73556131 M3.81137433,5.99959869 C3.81137433,6.708636 3.22369079,7.18578172 2.63641822,7.18578172 L1.65297297,7.18578172 L1.65297297,4.84075747 L2.45908574,4.84075747 C3.3741049,4.84075747 3.81137433,5.3179032 3.81137433,5.99959869 M6.05176372,9.73556131 C6.05176372,8.67190255 5.34099541,7.79943101 4.34398823,7.567745 L4.34398823,7.55417687 C5.08188039,7.18578172 5.46449114,6.46317629 5.46449114,5.68568161 C5.46449114,4.59550334 4.63084355,3.45002467 2.86861487,3.45002467 L6.16451262e-05,3.45002467 L6.16451262e-05,12.435207 L2.85505294,12.435207 C5.12256618,12.435207 6.05176372,11.017338 6.05176372,9.73556131" id="Fill-17"></path>
                    <path d="M13.0998154,12.4352276 C13.0998154,12.4352276 10.6962719,5.95850371 10.6276404,5.6587715 C10.5592143,5.97248299 8.16902723,12.4352276 8.16902723,12.4352276 L6.54303428,12.4352276 L10.006463,3.44963408 L11.2085429,3.44963408 L14.8624551,12.4352276 L13.0998154,12.4352276 Z" id="Fill-19"></path>
                    <path d="M23.8529447,12.4955029 L23.8529447,3.51052618 L22.2140063,3.51052618 L22.2140063,8.51428617 C22.2140063,8.90961199 22.2140063,9.42787324 22.2415411,9.82278791 L22.2140063,9.82278791 C21.995577,9.45500949 21.749613,9.11416175 21.326111,8.56876425 L17.4058919,3.51052618 L15.7254457,3.51052618 L15.7254457,12.4955029 L17.3783571,12.4955029 L17.3783571,7.20496212 C17.3783571,6.78270563 17.3645897,6.30535432 17.3372603,6.00541653 L17.3645897,6.00541653 C17.6109647,6.38737981 17.8704907,6.72822755 18.2526904,7.23250952 L22.3237346,12.4955029 L23.8529447,12.4955029 Z" id="Fill-21"></path>
                    <path d="M32.6590127,11.7265397 L32.2083868,10.5399455 C31.5251533,10.9081351 30.8150015,11.1400267 29.9955322,11.1400267 C28.1373426,11.1400267 26.9903323,9.7355202 26.9903323,7.92211975 C26.9903323,6.23144916 28.0284363,4.71778092 30.1180006,4.71778092 C30.9241133,4.71778092 31.6484436,4.90896814 32.3994867,5.35897761 L32.4130486,3.8588775 C31.8802292,3.55914529 31.0334307,3.36795808 30.0769038,3.36795808 C27.1128006,3.36795808 25.2001579,5.45436564 25.2001579,8.03128148 C25.2001579,10.5946292 26.8670421,12.5716695 29.7360063,12.5716695 C30.7056841,12.5716695 31.6618,12.3260042 32.6590127,11.7265397" id="Fill-23"></path>
                    <path d="M40.9318298,7.97686508 C40.9318298,10.0081778 39.7572846,11.2214971 38.0906059,11.2214971 C36.4105707,11.2214971 35.2356146,10.0081778 35.2356146,7.97686508 C35.2356146,5.95850371 36.4105707,4.74559558 38.0906059,4.74559558 C39.8121488,4.74559558 40.9318298,6.01339295 40.9318298,7.97686508 M42.6944694,7.94952325 C42.6944694,6.69488285 42.3118587,5.5769516 41.56061,4.75895813 C40.7547028,3.87271288 39.5524173,3.36801975 38.1045788,3.36801975 C36.7383173,3.36801975 35.6044579,3.85893918 34.7985506,4.6773438 C33.9655195,5.5226791 33.5007152,6.69488285 33.5007152,8.03134316 C33.5007152,9.4354385 34.0062053,10.6491689 34.9216354,11.4671624 C35.7139808,12.1899734 36.792976,12.5715255 38.1045788,12.5715255 C39.4568674,12.5715255 40.5907267,12.0939687 41.4101959,11.2763864 C42.243638,10.4583929 42.6944694,9.27200427 42.6944694,7.94952325" id="Fill-25"></path>
                </g>
            </g>
        </g>
    </g>
</svg>