<?xml version="1.0" encoding="UTF-8" standalone="no"?>
<svg width="75px" height="15px" viewBox="0 0 75 15" version="1.1" xmlns="http://www.w3.org/2000/svg" xmlns:xlink="http://www.w3.org/1999/xlink">
    <!-- Generator: Sketch 39.1 (31720) - http://www.bohemiancoding.com/sketch -->
    <title>Page 1</title>
    <desc>Created with Sketch.</desc>
    <defs>
        <polygon id="path-1" points="0.0718662294 14.1886804 4.72406479 14.1886804 4.72406479 0.108595956 0.0718662294 0.108595956"></polygon>
        <polygon id="path-3" points="0 14.3922879 73.340449 14.3922879 73.340449 -2.62753338e-05 0 -2.62753338e-05"></polygon>
    </defs>
    <g id="SP2-Pago-fácil" stroke="none" stroke-width="1" fill="none" fill-rule="evenodd">
        <g id="1-PagoFacil-Correcciones" transform="translate(-30.000000, -1470.000000)">
            <g id="Page-1" transform="translate(30.788187, 1470.000000)">
                <path d="M0,6.11587302 C0,3.46863312 1.7063947,1.09754698 5.22117248,1.09754698 C6.50459213,1.09754698 7.49627758,1.37396349 8.28398627,1.8976309 L7.08806053,3.90480366 C6.56283355,3.59948428 6.03787012,3.38139901 5.17742553,3.38139901 C3.74827056,3.38139901 2.94606739,4.47208813 2.94606739,6.02863891 C2.94606739,7.65770962 3.7045236,8.8358956 5.20667801,8.8358956 C6.25660488,8.8358956 6.8108208,8.45779354 7.26304834,8.15221141 L8.37148017,10.0721501 C7.87550568,10.5085834 6.62133852,11.1339363 5.16293106,11.1339363 C1.63339527,11.1339363 0,8.76311293 0,6.11587302 L0,6.11587302 Z" id="Fill-1" fill="#FFFFFF"></path>
                <path d="M12.9070114,9.01044265 L12.9070114,7.96310783 L12.7027711,7.96310783 C11.871579,7.96310783 11.3173631,8.22507291 11.3173631,8.79235737 C11.3173631,9.14129381 11.5798448,9.34492765 12.0320723,9.34492765 C12.4840363,9.34492765 12.7320236,9.156008 12.9070114,9.01044265 M8.88176466,9.03960827 C8.88176466,7.20690372 10.6901477,6.45043685 12.7027711,6.45043685 L12.9070114,6.45043685 L12.9070114,6.23235158 C12.9070114,5.82482115 12.7175291,5.60673588 11.9445784,5.60673588 C11.0838703,5.60673588 10.4131715,6.04316917 10.1506898,6.21763739 L9.10049942,4.67580079 C9.58171591,4.25408168 10.6611588,3.61401454 12.2797961,3.61401454 C14.5549011,3.61401454 15.5175976,4.38493284 15.5175976,6.47960247 L15.5175976,8.4723238 C15.5175976,9.62134416 15.634344,10.4214281 15.7508269,10.9595469 L13.1839876,10.9595469 C13.1112517,10.7850787 13.0527467,10.4794966 13.0382523,10.2614113 C12.7320236,10.6395134 12.1048082,11.1340151 11.1276173,11.1340151 C9.88794458,11.1340151 8.88176466,10.4214281 8.88176466,9.03960827" id="Fill-3" fill="#FFFFFF"></path>
                <g id="Group-7" transform="translate(15.285080, 0.203608)">
                    <mask id="mask-2" fill="white">
                        <use xlink:href="#path-1"></use>
                    </mask>
                    <g id="Clip-6"></g>
                    <path d="M1.71975597,1.53403283 C1.71975597,0.763114526 2.33221331,0.108595956 3.22191038,0.108595956 C4.11160745,0.108595956 4.72406479,0.763114526 4.72406479,1.53403283 C4.72406479,2.30495113 4.11160745,2.97392113 3.22191038,2.97392113 C2.33221331,2.97392113 1.71975597,2.30495113 1.71975597,1.53403283 M0.0718662294,13.9559597 L0.523830232,11.9776898 C0.62581861,12.0068555 0.844816911,12.0796381 1.13628757,12.0796381 C1.73425044,12.0796381 1.89474378,11.8176731 1.89474378,10.6978183 L1.89474378,3.5850854 L4.54907698,3.5850854 L4.54907698,10.9159036 C4.54907698,12.9233391 3.76163182,14.1887592 1.74900845,14.1887592 C0.844816911,14.1887592 0.334347947,14.0431938 0.0718662294,13.9559597" id="Fill-5" fill="#FFFFFF" mask="url(#mask-2)"></path>
                </g>
                <path d="M25.1135181,9.01044265 L25.1135181,7.96310783 L24.9092778,7.96310783 C24.0780857,7.96310783 23.5238698,8.22507291 23.5238698,8.79235737 C23.5238698,9.14129381 23.7863515,9.34492765 24.2385791,9.34492765 C24.6905431,9.34492765 24.9385303,9.156008 25.1135181,9.01044265 M21.0882714,9.03960827 C21.0882714,7.20690372 22.8966545,6.45043685 24.9092778,6.45043685 L25.1135181,6.45043685 L25.1135181,6.23235158 C25.1135181,5.82482115 24.9237723,5.60673588 24.1508216,5.60673588 C23.290377,5.60673588 22.6196783,6.04316917 22.356933,6.21763739 L21.3070062,4.67580079 C21.7882226,4.25408168 22.867402,3.61401454 24.4863028,3.61401454 C26.7614079,3.61401454 27.7241044,4.38493284 27.7241044,6.47960247 L27.7241044,8.4723238 C27.7241044,9.62134416 27.8408508,10.4214281 27.9573336,10.9595469 L25.3904943,10.9595469 C25.3177584,10.7850787 25.2592535,10.4794966 25.244759,10.2614113 C24.9385303,10.6395134 24.311315,11.1340151 23.334124,11.1340151 C22.0944513,11.1340151 21.0882714,10.4214281 21.0882714,9.03960827" id="Fill-8" fill="#FFFFFF"></path>
                <path d="M28.8136934,0.991815033 L31.8490995,0.991815033 L33.5433715,6.26658834 C33.7792361,7.01806289 33.9708267,7.81446827 33.9855847,7.87463878 L34.0151007,7.87463878 C34.0295952,7.81446827 34.2359437,7.00308595 34.4570503,6.26658834 L36.0777959,0.991815033 L38.9068534,0.991815033 L35.2526651,11.0003525 L32.6004402,11.0003525 L28.8136934,0.991815033 Z" id="Fill-10" fill="#FFFFFF"></path>
                <path d="M43.0913285,6.40185376 C43.0765705,5.72552666 42.8554639,5.24468805 42.2219237,5.24468805 C41.6178995,5.24468805 41.2937504,5.60544838 41.1759498,6.40185376 L43.0913285,6.40185376 Z M38.4204189,7.27340659 C38.4204189,4.80904301 40.1739865,3.41145799 42.2514397,3.41145799 C44.5204834,3.41145799 45.6550053,4.77882638 45.6550053,7.30362322 C45.6550053,7.57399641 45.6405109,7.84463235 45.6109948,8.14495942 L41.2642343,8.14495942 C41.4115509,8.88145703 41.8977746,9.25719431 42.7819374,9.25719431 C43.7543847,9.25719431 44.1963343,9.03175194 44.5795155,8.86648009 L45.3603722,10.4895075 C44.8006221,10.7900973 44.1080498,11.1808115 42.5020623,11.1808115 C39.9528799,11.1808115 38.4204189,9.73803292 38.4204189,7.27340659 L38.4204189,7.27340659 Z" id="Fill-12" fill="#FFFFFF"></path>
                <path d="M46.4063988,7.31852134 C46.4063988,4.83891806 48.0714183,3.41137917 50.5615687,3.41137917 C51.7403646,3.41137917 52.4474313,3.69672929 52.7863384,3.90719472 L52.0645137,5.69549395 C51.7698806,5.54519904 51.3276674,5.39490413 50.6941272,5.39490413 C49.7807119,5.39490413 49.2059402,6.04127735 49.2059402,7.22839694 C49.2059402,8.44573317 49.7216799,9.16699109 50.7531593,9.16699109 C51.519258,9.16699109 51.9171972,8.94154872 52.1527982,8.83644738 L52.8748865,10.579553 C52.5064634,10.7900185 51.8729231,11.1807327 50.5025367,11.1807327 C48.0419023,11.1807327 46.4063988,9.79812461 46.4063988,7.31852134" id="Fill-14" fill="#FFFFFF"></path>
                <mask id="mask-4" fill="white">
                    <use xlink:href="#path-3"></use>
                </mask>
                <g id="Clip-17"></g>
                <path d="M53.9207549,11.0004051 L56.6024958,11.0004051 L56.6024958,3.59154913 L53.9207549,3.59154913 L53.9207549,11.0004051 Z M53.7439223,1.4727062 C53.7439223,0.676300822 54.3627045,-2.62753338e-05 55.2616254,-2.62753338e-05 C56.1602827,-2.62753338e-05 56.7790649,0.676300822 56.7790649,1.4727062 C56.7790649,2.26911157 56.1602827,2.96041561 55.2616254,2.96041561 C54.3627045,2.96041561 53.7439223,2.26911157 53.7439223,1.4727062 L53.7439223,1.4727062 Z" id="Fill-16" fill="#FFFFFF" mask="url(#mask-4)"></path>
                <path d="M58.2523884,3.59162796 L60.8455813,3.59162796 L60.8455813,4.43322691 C61.2730365,3.95238829 61.9508507,3.41137917 63.1001306,3.41137917 C64.7356342,3.41137917 65.3101423,4.46318079 65.3101423,5.87574275 L65.3101423,11.0002211 L62.6579174,11.0002211 L62.6579174,6.44696851 C62.6579174,5.84578886 62.4515689,5.6203465 61.9360927,5.6203465 C61.435111,5.6203465 61.0519299,6.04127735 60.9046134,6.22152614 L60.9046134,11.0002211 L58.2523884,11.0002211 L58.2523884,3.59162796 Z" id="Fill-18" fill="#FFFFFF" mask="url(#mask-4)"></path>
                <path d="M70.4671175,8.98663719 L70.4671175,7.90461894 L70.2607689,7.90461894 C69.4208801,7.90461894 68.86113,8.17525488 68.86113,8.76119483 C68.86113,9.12195516 69.126247,9.33215783 69.5829547,9.33215783 C70.0396623,9.33215783 70.2902849,9.1369321 70.4671175,8.98663719 M66.4004956,9.01659107 C66.4004956,7.1231905 68.2275897,6.34176207 70.2607689,6.34176207 L70.4671175,6.34176207 L70.4671175,6.1163197 C70.4671175,5.69565161 70.2755269,5.47020924 69.4946702,5.47020924 C68.6252654,5.47020924 67.9474511,5.92083122 67.6823341,6.10134276 L66.6213387,4.50826926 C67.1075623,4.07262422 68.1980737,3.41127407 69.8335773,3.41127407 C72.1321371,3.41127407 73.1045844,4.20767944 73.1045844,6.37171595 L73.1045844,8.43065112 C73.1045844,9.61777072 73.2223849,10.4443927 73.340449,11.0003788 L70.7469926,11.0003788 C70.6734661,10.8198672 70.614434,10.5045632 70.599676,10.2791209 C70.2902849,10.6698351 69.6567447,11.1806276 68.6695394,11.1806276 C67.4169534,11.1806276 66.4004956,10.4443927 66.4004956,9.01659107" id="Fill-19" fill="#FFFFFF" mask="url(#mask-4)"></path>
            </g>
        </g>
    </g>
</svg>