<?xml version="1.0" encoding="UTF-8" standalone="no"?>
<svg width="122px" height="13px" viewBox="0 0 122 13" version="1.1" xmlns="http://www.w3.org/2000/svg" xmlns:xlink="http://www.w3.org/1999/xlink">
    <!-- Generator: Sketch 39.1 (31720) - http://www.bohemiancoding.com/sketch -->
    <title>Page 1</title>
    <desc>Created with Sketch.</desc>
    <defs></defs>
    <g id="SP2-Pago-fácil" stroke="none" stroke-width="1" fill="none" fill-rule="evenodd">
        <g id="1-PagoFacil-Correcciones" transform="translate(-31.000000, -1272.000000)" fill="#FFFFFF">
            <g id="Group-19" transform="translate(30.000000, 1233.000000)">
                <g id="Page-1" transform="translate(1.000000, 39.000000)">
                    <g id="Group-15" transform="translate(108.422222, 0.000000)">
                        <g id="Group-17">
                            <path d="M11.2511836,1.54667761 C9.17333768,-0.231332498 6.1898646,-0.50308673 3.82718192,0.870250825 C2.29624074,1.75986281 1.18192426,3.26566348 0.770426328,5.00209868 L0.756704704,5.06006078 L9.28024571,5.06006078 L11.2810394,1.57201706 L11.2511836,1.54667761 Z" id="Fill-1"></path>
                            <g id="Group-5" transform="translate(0.574795, 5.279558)">
                                <path d="M4.10550986,0.0232455324 L0.132119635,0.0232455324 L0.124731069,0.0617857753 C0.0529564209,0.456443932 0.0163151616,0.851557289 0.0163151616,1.23620105 C0.0163151616,3.55165029 1.25684043,5.71096603 3.25401524,6.87172532 C4.78299619,7.76027517 6.63541541,7.9777089 8.33629362,7.46788522 L8.39298956,7.45104283 L8.36298293,7.39930179 C8.18475261,7.08748999 4.24287688,0.215339814 4.1459208,0.0464607181 L4.13219917,0.0232455324 L4.10550986,0.0232455324 Z" id="Fill-3"></path>
                            </g>
                            <path d="M11.4347065,1.78885903 L7.20286726,9.16764649 L9.20215309,12.6535659 L9.23879435,12.6403652 C11.8080553,11.7176753 13.534115,9.25367924 13.534115,6.50928013 C13.534115,4.72929749 12.7954091,3.00500095 11.5070843,1.77838944 L11.46411,1.737118 L11.4347065,1.78885903 Z" id="Fill-6"></path>
                        </g>
                    </g>
                    <path d="M8.91095824,5.38249391 C8.60365418,5.07326157 7.77899967,4.29183539 6.5010792,4.29183539 C5.23989611,4.29183539 4.28556471,5.21968415 4.28556471,6.53794254 C4.28556471,6.68406165 4.30154814,7.0914654 4.47992925,7.48187502 C4.70610986,7.95361367 5.32056719,8.73503985 6.63045452,8.73503985 C6.88935592,8.73503985 7.16439155,8.70226547 7.40685717,8.63717191 C8.05373372,8.47436215 8.47427887,8.1651298 9.00776355,7.75833299 L8.84596901,12.0710469 C7.85997233,12.363892 7.14840812,12.5591727 6.09681906,12.5591727 C5.41767407,12.5591727 3.5740005,12.4942309 2.02149677,11.1594336 C0.161538194,9.56471721 4.52361228e-05,7.35153617 4.52361228e-05,6.53794254 C4.52361228e-05,3.80386129 1.53626396,2.24161585 2.34478426,1.62315116 C2.9918116,1.11878987 4.12377017,0.467702539 6.06470141,0.467702539 C7.4228406,0.467702539 8.42602701,0.842331908 8.91095824,0.988451018 L8.91095824,5.38249391 Z" id="Fill-8"></path>
                    <path d="M15.672118,4.51982975 C15.2512712,4.73134589 14.5238744,5.33342338 14.5238744,6.57035276 C14.5403102,7.75842403 15.3001262,8.76714661 16.5453259,8.76714661 C16.9818545,8.76714661 17.2568901,8.66958213 17.4186847,8.58825312 C17.8392298,8.39312417 18.6154817,7.80743386 18.6154817,6.53803358 C18.6154817,6.08207519 18.518224,5.77299458 18.4536871,5.62672374 C18.1466847,4.81297837 17.4349697,4.29192643 16.5616109,4.30831362 C16.3996656,4.30831362 16.0603947,4.32454907 15.672118,4.51982975 M20.2165388,1.57468756 C20.7504759,1.93232281 22.0924808,3.02267787 22.5775629,4.89415566 C22.6422505,5.1545299 22.7554916,5.75660739 22.7554916,6.5052592 C22.7554916,10.0366986 20.2165388,12.559112 16.7071204,12.559112 C16.2704411,12.559112 15.3325455,12.5264894 14.2488388,12.1360797 C11.8068421,11.2572408 10.3837137,9.15816316 10.3837137,6.5541173 C10.3837137,6.31013025 10.3999987,5.70805275 10.561944,5.02449451 C11.0467244,2.95758431 12.389031,1.86753272 13.0360583,1.44434871 C13.6345322,1.06971934 14.782625,0.500416225 16.5132083,0.500416225 C17.159934,0.484029036 18.7127393,0.548970862 20.2165388,1.57468756" id="Fill-10"></path>
                    <path d="M28.1736361,5.83808814 L28.7393892,5.83808814 C29.1599343,5.83808814 29.5966137,5.82200442 29.8553643,5.43129132 C29.9199012,5.33342338 30.0171589,5.13814271 30.0171589,4.84529755 C30.0171589,3.80380059 28.8852003,3.9015168 28.7231042,3.9015168 L28.1736361,3.9015168 L28.1736361,5.83808814 Z M28.9821564,0.793261379 C29.3217289,0.793261379 29.6614522,0.793261379 30.0007231,0.825732292 C31.310912,0.907213042 32.5075582,1.26500002 33.3325143,2.35550682 C33.6235334,2.72983272 34.0763469,3.42977816 34.0763469,4.61739423 C34.0763469,6.11484957 33.3970512,6.84711419 32.8795499,7.22128836 C32.5722459,7.43310796 32.3137968,7.54675616 31.9577885,7.67709501 L34.7230727,12.282654 L30.2921945,12.282654 L28.1736361,8.06750464 L28.1736361,12.282654 L24.2601083,12.282654 L24.2601083,0.793261379 L28.9821564,0.793261379 Z" id="Fill-12"></path>
                    <path d="M40.3199451,5.90324239 L40.7245068,5.90324239 C41.1610354,5.90324239 41.6136982,5.87046801 41.9214546,5.51283277 C42.098931,5.33333235 42.1474845,5.12211967 42.1474845,4.87813263 C42.1474845,4.66646476 42.115216,4.48741953 41.9859915,4.32460977 C41.6946709,3.90142576 41.1610354,3.90142576 40.7082218,3.90142576 L40.3199451,3.90142576 L40.3199451,5.90324239 Z M40.9344024,0.793322072 C41.9374381,0.793322072 42.4222185,0.842331908 42.9074513,0.923509192 C43.4412376,1.0212254 44.6868896,1.29768336 45.5112425,2.61609348 C46.1258506,3.60858061 46.1582699,4.65007757 46.1582699,5.04063893 C46.1582699,5.52891649 46.0935822,7.14002003 44.7675607,8.1162717 C43.8454977,8.79982995 42.7782268,8.83260433 41.6785366,8.83260433 L40.3199451,8.83260433 L40.3199451,12.2827147 L36.1315325,12.2827147 L36.1315325,0.793322072 L40.9344024,0.793322072 Z" id="Fill-14"></path>
                    <path d="M51.6008117,9.4509628 L52.2963925,9.4509628 C52.5385565,9.4509628 52.9431182,9.4509628 53.1692988,9.35339832 C53.3633618,9.27206931 53.6708167,9.04416598 53.6708167,8.53980469 C53.6708167,8.32813682 53.622414,8.14878813 53.4930387,7.98628183 C53.2015673,7.59556874 52.7006526,7.59556874 52.2801075,7.59556874 L51.6008117,7.59556874 L51.6008117,9.4509628 Z M51.6008117,5.15448438 L52.0536253,5.15448438 C52.409332,5.15448438 52.8138937,5.13824892 53.0723428,4.84540377 C53.1530138,4.74768756 53.2501207,4.60111325 53.2501207,4.3082681 C53.2501207,4.22693908 53.2501207,3.99903575 53.1208962,3.83652945 C52.7976087,3.42973264 52.1183129,3.49467446 52.0536253,3.49467446 L51.6008117,3.49467446 L51.6008117,5.15448438 Z M53.0400743,0.793215859 C53.2664057,0.793215859 53.5091729,0.793215859 53.7353535,0.809603049 C54.1721837,0.825686772 55.7246874,0.874544875 56.5978954,2.192955 C56.9374679,2.69746802 57.0994132,3.28315833 57.0994132,3.90147128 C57.0994132,4.65012309 56.856646,5.34976505 56.3231613,5.85412634 C56.1776518,6.00085239 56.0154049,6.11480405 55.676134,6.32647192 C56.161216,6.55407178 56.5169227,6.74950419 56.9051994,7.13991382 C57.6004786,7.87233017 57.6167636,8.65314942 57.6167636,9.02777879 C57.6167636,9.38556577 57.5844952,10.134521 57.0187421,10.8667857 C56.7756733,11.176018 56.4846543,11.4363922 56.161216,11.6316729 C55.1749177,12.2499859 54.1721837,12.2660696 53.0563593,12.2827603 L47.6869824,12.2827603 L47.6869824,0.793215859 L53.0400743,0.793215859 Z" id="Fill-16"></path>
                    <path d="M76.1046824,0.793261379 L78.5622102,4.48735884 L79.1447006,5.41490413 C79.3713336,5.78923004 79.5815308,6.14732048 79.7912756,6.52164639 C79.775443,6.06599147 79.7593088,5.61048828 79.7593088,5.1545299 L79.7593088,0.793261379 L83.7215407,0.793261379 L83.7215407,12.282654 L79.7593088,12.282654 L77.52766,8.89748546 C77.2524736,8.50707583 76.9938738,8.10027902 76.7354247,7.6934822 C76.5246244,7.35162721 76.3307122,7.02600768 76.1366493,6.68415269 C76.1529343,7.28638192 76.1692193,7.87237569 76.1692193,8.47430145 L76.1692193,12.282654 L72.2068365,12.282654 L72.2068365,0.793261379 L76.1046824,0.793261379 Z" id="Fill-18"></path>
                    <path d="M94.0568819,5.38249391 C93.7495778,5.07326157 92.9247725,4.29183539 91.6470029,4.29183539 C90.3861213,4.29183539 89.4311868,5.21968415 89.4311868,6.53794254 C89.4311868,6.68406165 89.4474718,7.0914654 89.6257021,7.48187502 C89.8523351,7.95361367 90.4667924,8.73503985 91.776529,8.73503985 C92.0351288,8.73503985 92.3103152,8.70226547 92.55263,8.63717191 C93.1996574,8.47436215 93.6202025,8.1651298 94.153838,7.75833299 L93.992345,12.0710469 C93.0055944,12.363892 92.2940302,12.5591727 91.2427427,12.5591727 C90.5637485,12.5591727 88.7197734,12.4942309 87.1671188,11.1594336 C85.3074618,9.56471721 85.1459689,7.35153617 85.1459689,6.53794254 C85.1459689,3.80386129 86.6821876,2.24161585 87.4907079,1.62315116 C88.1377352,1.11878987 89.2696938,0.467702539 91.2103235,0.467702539 C92.5687642,0.467702539 93.5713475,0.842331908 94.0568819,0.988451018 L94.0568819,5.38249391 Z" id="Fill-20"></path>
                    <polygon id="Fill-22" points="67.0626872 0.793261379 62.0170501 0.793261379 58.3300045 12.282654 62.5993898 12.282654 64.5238852 4.76412027 66.4643641 12.282654 70.7500344 12.282654"></polygon>
                    <polygon id="Fill-24" points="103.793885 0.793261379 98.7477954 0.793261379 95.060599 12.282654 99.3302859 12.282654 101.25448 4.76412027 103.195109 12.282654 107.48093 12.282654"></polygon>
                </g>
            </g>
        </g>
    </g>
</svg>