<?xml version="1.0" standalone="no"?>
<!DOCTYPE svg PUBLIC "-//W3C//DTD SVG 1.1//EN" "http://www.w3.org/Graphics/SVG/1.1/DTD/svg11.dtd" >
<svg xmlns="http://www.w3.org/2000/svg">
<metadata></metadata>
<defs>
<font id="cera_stencilthin" horiz-adv-x="1605" >
<font-face units-per-em="2048" ascent="1655" descent="-393" />
<missing-glyph horiz-adv-x="573" />
<glyph horiz-adv-x="0" />
<glyph horiz-adv-x="682" />
<glyph unicode=" "  horiz-adv-x="573" />
<glyph unicode="&#x09;" horiz-adv-x="573" />
<glyph unicode="&#xa0;" horiz-adv-x="573" />
<glyph unicode="!" horiz-adv-x="552" d="M315 1352l-10 -979h-57l-10 979h77zM274 139q33 0 57.5 -22t24.5 -60q0 -35 -24.5 -56t-57.5 -21q-30 0 -53.5 21t-23.5 56q0 38 23.5 60t53.5 22z" />
<glyph unicode="&#x22;" horiz-adv-x="829" d="M334 1352l-68 -492h-53l41 492h80zM621 1352l-68 -492h-53l41 492h80z" />
<glyph unicode="#" horiz-adv-x="1165" d="M907 911h195v-57h-993v57h213l59 441h61l-59 -441h463l59 441h62zM63 440v58h994v-58h-213l-62 -440h-59l59 440h-463l-61 -440h-59l59 440h-195z" />
<glyph unicode="$" horiz-adv-x="1093" d="M471 700q-46 21 -78 37.5t-71.5 45t-64 58.5t-41.5 73.5t-17 93.5q0 125 89.5 201t225.5 87v242h64v-240q210 -10 340 -204l-48 -37q-62 92 -136.5 135t-174.5 43q-53 0 -101.5 -11.5t-92.5 -36.5t-70.5 -70t-26.5 -105q0 -30 7.5 -56.5t17 -46t31 -40t35.5 -32.5 t45.5 -30t46 -25.5t51.5 -25.5l20 -11l-28 -55zM936 358q0 -135 -101.5 -220t-256.5 -93v-231h-64v233q-262 17 -418 281l51 34q152 -256 408 -256q134 0 222.5 67t88.5 185q0 43 -14.5 79.5t-33.5 60.5t-57.5 51t-65 41.5t-77.5 40.5l-24 12l31 55l24 -12q54 -27 87.5 -46 t76 -50.5t66 -62t40.5 -74.5t17 -95z" />
<glyph unicode="%" horiz-adv-x="1626" d="M174 866q-55 80 -55 183q0 136 93.5 229.5t227.5 93.5q106 0 189 -59h-178q-122 0 -194.5 -74.5t-72.5 -189.5q0 -102 60 -183h-70zM393 0l781 1352h63l-780 -1352h-64zM440 725q-106 0 -186 59h176q122 0 195 75t73 190q0 103 -59 182h70q55 -80 55 -182 q0 -136 -95 -230t-229 -94zM918 123q-56 82 -56 182q0 136 94 230t228 94q103 0 188 -60h-178q-122 0 -194 -74.5t-72 -189.5q0 -103 59 -182h-69zM1184 -18q-107 0 -187 59h177q122 0 195 74.5t73 189.5q0 101 -60 182h70q55 -80 55 -182q0 -136 -94.5 -229.5t-228.5 -93.5 z" />
<glyph unicode="&#x26;" horiz-adv-x="1202" d="M1081 0l-610 721q-51 61 -77.5 95.5t-59 86t-46.5 99t-14 98.5q0 113 70.5 192.5t194.5 79.5t198 -79t74 -191q0 -87 -47.5 -158t-138.5 -139l-37 45q81 61 119 121t38 131q0 88 -53.5 147.5t-150.5 59.5q-96 0 -148.5 -58.5t-52.5 -150.5q0 -85 42.5 -157.5 t137.5 -184.5l643 -758h-82zM498 -20q-158 0 -273.5 92t-115.5 241q0 75 35 144.5t85.5 120.5t126.5 106l37 -45q-109 -82 -164 -157.5t-55 -166.5q0 -124 94 -198t226 -74q162 0 294 129l41 -47q-151 -145 -331 -145zM1075 469q-29 0 -49 20.5t-20 49.5t20 49t49 20 t49.5 -20t20.5 -49t-20.5 -49.5t-49.5 -20.5z" />
<glyph unicode="'" horiz-adv-x="542" d="M334 1352l-68 -492h-53l41 492h80z" />
<glyph unicode="(" horiz-adv-x="645" d="M559 1493l25 -49q-50 -27 -95 -67t-92 -109t-80.5 -157t-55 -217t-21.5 -282t21.5 -282t55 -216.5t80.5 -157t92 -109t95 -66.5l-25 -49q-57 28 -106.5 69t-101.5 113.5t-89 164.5t-60.5 230t-23.5 303q0 139 16 258t45 207t64.5 157.5t80.5 119.5t87 83t88 56z" />
<glyph unicode=")" horiz-adv-x="645" d="M86 1493q46 -23 88 -56t87 -83t80.5 -119.5t64.5 -157.5t45 -207t16 -258q0 -165 -23.5 -303t-60.5 -230t-89 -164.5t-101.5 -113.5t-106.5 -69l-25 49q50 27 95.5 66.5t92.5 109t80.5 157t55 216.5t21.5 282t-21.5 282t-55 216.5t-80.5 157t-92.5 109.5t-95.5 67z" />
<glyph unicode="*" horiz-adv-x="745" d="M639 1368l-203 -125l203 -125l-25 -43l-211 113l-6 -238h-49l-6 238l-211 -113l-25 43l203 125l-203 125l25 43l211 -113l6 238h49l6 -238l211 113z" />
<glyph unicode="+" horiz-adv-x="1146" d="M543 186v418h-408v58h408v417h61v-417h406v-58h-406v-418h-61z" />
<glyph unicode="," horiz-adv-x="552" d="M332 129l-66 -498h-57l41 498h82z" />
<glyph unicode="-" horiz-adv-x="696" d="M573 662v-58h-450v58h450z" />
<glyph unicode="." horiz-adv-x="552" d="M274 139q33 0 57.5 -22t24.5 -60q0 -35 -24.5 -56t-57.5 -21q-30 0 -53.5 21t-23.5 56q0 38 23.5 60t53.5 22z" />
<glyph unicode="/" horiz-adv-x="1177" d="M1157 1597l-1071 -1845h-66l1072 1845h65z" />
<glyph unicode="0" horiz-adv-x="1366" d="M279 147q-74 76 -117 178.5t-43 217.5q0 153 74.5 282.5t205 205t287.5 75.5q134 0 252 -59h-246q-146 0 -263 -68t-181 -182.5t-64 -251.5q0 -121 48 -224t122 -174h-75zM680 -23q-134 0 -254 60h248q146 0 263 68t181 182.5t64 251.5q0 121 -48 223.5t-122 173.5h75 q74 -76 117 -178t43 -217t-44 -219t-119.5 -180t-181 -120.5t-222.5 -44.5z" />
<glyph unicode="1" horiz-adv-x="968" d="M565 1085v-917h-63v860h-305v57h368zM874 57v-57h-700v57h700z" />
<glyph unicode="2" horiz-adv-x="1087" d="M545 1106q160 0 260 -97t100 -249q0 -65 -21.5 -126t-53.5 -108t-88 -99.5t-104 -89t-122 -87.5l-115 -80h-96l176 125q54 38 82.5 58.5t73 56t68.5 60t54 60.5t45 68t25.5 72.5t10.5 83.5q0 127 -77.5 210t-217.5 83q-144 0 -226.5 -87t-82.5 -208q0 -56 14 -117h-64 q-16 56 -16 117q0 91 44 171t131.5 131.5t199.5 51.5zM975 57v-57h-875v25l47 32h828z" />
<glyph unicode="3" horiz-adv-x="1030" d="M866 1085v-24l-458 -549h-58v25l410 491h-658v57h764zM588 557q65 -15 120.5 -46t101 -78t71.5 -117t26 -154q0 -102 -38.5 -186t-102.5 -137t-144.5 -82t-168.5 -29q-266 0 -433 256l50 36q150 -233 387 -233q168 0 276.5 106t108.5 271q0 135 -78 225t-219 115z" />
<glyph unicode="4" horiz-adv-x="1056" d="M582 1085l-447 -1028h490v-57h-572v25l461 1060h68zM801 575v-518h215v-57h-215v-248h-66v823h66z" />
<glyph unicode="5" horiz-adv-x="1089" d="M834 1085v-57h-566v-514h-65v571h631zM502 571q96 0 178 -24t147 -71.5t102.5 -127.5t37.5 -184q0 -102 -38.5 -186.5t-102 -138t-142.5 -82.5t-164 -29q-273 0 -440 256l47 36q150 -233 397 -233q162 0 269.5 106t107.5 271q0 163 -106.5 256.5t-294.5 93.5h-121v57h123 z" />
<glyph unicode="6" horiz-adv-x="1110" d="M725 1352l-367 -545q-5 -8 -26 -39t-26.5 -39.5t-23.5 -36.5t-23.5 -39t-19 -36t-18 -39.5t-13 -38t-11.5 -42t-6 -41.5t-3 -46q0 -162 104.5 -266.5t262.5 -104.5t262.5 106t104.5 269q0 95 -39 172t-102.5 122.5t-144 64t-163.5 3.5l39 60q61 9 127 -3t128 -46t111 -85 t79 -126t30 -162q0 -186 -123.5 -310t-308.5 -124q-184 0 -308 124.5t-124 307.5q0 32 5 63.5t10.5 56t19.5 56.5t22.5 50.5t29.5 53t30.5 49t35.5 53.5t35 52l336 506h78z" />
<glyph unicode="7" horiz-adv-x="987" d="M932 1085v-24l-19 -33h-847v57h866zM852 918l-649 -1166h-70l647 1166h72z" />
<glyph unicode="8" horiz-adv-x="1163" d="M582 1372q105 0 190.5 -35t139 -108.5t53.5 -173.5q0 -173 -168 -275l-64 27q80 51 123 108.5t43 137.5q0 120 -90.5 190t-226.5 70t-227 -70t-91 -190q0 -59 23 -105t71.5 -82.5t97 -61.5t126.5 -56l75 -31q60 -24 103 -44.5t98 -56t89 -73t58.5 -93.5t24.5 -120 q0 -154 -121.5 -252t-326.5 -98q-206 0 -327.5 98.5t-121.5 253.5q0 199 225 321l64 -26q-52 -30 -86.5 -54.5t-68.5 -60t-51 -80t-17 -98.5q0 -132 102 -213.5t281 -81.5t281 81.5t102 213.5q0 30 -6 56.5t-14.5 48t-26.5 43t-31.5 36.5t-41 33t-44.5 28.5t-52 27t-52.5 24 t-57.5 25t-57 24.5l-76 33q-307 117 -307 344q0 147 109.5 231t273.5 84z" />
<glyph unicode="9" horiz-adv-x="1110" d="M397 -248l355 527q5 8 26 39t26.5 39.5t23.5 36.5t23.5 39t19 36t18 39.5t13 38t11.5 42t6 41.5t3 46q0 162 -104.5 266.5t-262.5 104.5t-262.5 -106t-104.5 -269q0 -126 66.5 -217.5t168.5 -128.5t214 -17l-39 -59q-61 -9 -127 3t-128 46t-111 85t-79 126t-30 162 q0 186 123.5 310t308.5 124q184 0 308 -124.5t124 -307.5q0 -32 -5 -63.5t-10.5 -56t-19.5 -56.5t-22.5 -50.5t-29.5 -53t-30.5 -49t-35.5 -53.5t-35 -52l-324 -488h-78z" />
<glyph unicode=":" horiz-adv-x="552" d="M274 987q33 0 57.5 -22t24.5 -60q0 -35 -24.5 -56.5t-57.5 -21.5q-30 0 -53.5 21.5t-23.5 56.5q0 38 23.5 60t53.5 22zM274 139q33 0 57.5 -22t24.5 -60q0 -35 -24.5 -56t-57.5 -21q-30 0 -53.5 21t-23.5 56q0 38 23.5 60t53.5 22z" />
<glyph unicode=";" horiz-adv-x="552" d="M274 987q33 0 57.5 -22t24.5 -60q0 -35 -24.5 -56.5t-57.5 -21.5q-30 0 -53.5 21.5t-23.5 56.5q0 38 23.5 60t53.5 22zM332 129l-66 -498h-57l41 498h82z" />
<glyph unicode="&#x3c;" horiz-adv-x="1146" d="M389 694l-70 33l664 277v-64zM983 266l-854 357v24l45 19l809 -336v-64z" />
<glyph unicode="=" horiz-adv-x="1146" d="M989 866v-57h-833v57h833zM989 455v-58h-833v58h833z" />
<glyph unicode="&#x3e;" horiz-adv-x="1146" d="M164 1004l854 -357v-24l-45 -19l-809 336v64zM758 575l69 -32l-663 -277v64z" />
<glyph unicode="?" horiz-adv-x="901" d="M184 1085l-57 21q35 120 123.5 193t208.5 73q85 0 155 -37v-63q-71 41 -153 41q-97 0 -170.5 -58.5t-106.5 -169.5zM381 373q-19 44 -19 86q0 69 38 124.5t130 143.5q46 45 67 66.5t51.5 58t43.5 64t23 66.5t10 83v178q66 -84 66 -196q0 -33 -7 -64.5t-15 -55t-28.5 -54 t-33 -47t-43 -48.5t-43.5 -44.5t-50 -47.5q-54 -51 -78 -77.5t-44.5 -66.5t-20.5 -83q0 -35 14 -86h-61zM426 -20q-32 0 -56 21t-24 58q0 36 24.5 58t55.5 22t55.5 -22.5t24.5 -57.5q0 -36 -24 -57.5t-56 -21.5z" />
<glyph unicode="@" horiz-adv-x="1851" d="M946 -291q-171 0 -325 64t-264.5 172.5t-175 259t-64.5 317.5q0 168 65 317.5t175.5 256t263.5 169t323 62.5q165 0 312.5 -58t252 -157t165.5 -234t61 -284q0 -152 -58.5 -284.5t-146.5 -223.5h-76q215 234 215 502q0 138 -54.5 263.5t-149 217.5t-229.5 146.5 t-288 54.5q-159 0 -301 -58t-244 -157.5t-161.5 -239t-59.5 -295.5q0 -157 59.5 -296t162 -239t245.5 -158t305 -58q160 0 293 55l19 -51q-153 -64 -320 -64zM901 66q-171 0 -288 124t-117 302q0 177 116.5 300t286.5 123q147 0 258 -90v-61q-111 96 -252 96 q-149 0 -246.5 -105.5t-97.5 -262.5q0 -158 98 -264.5t246 -106.5q136 0 252 98v-61q-110 -92 -256 -92zM1249 86v813h60v-813h-60z" />
<glyph unicode="A" horiz-adv-x="1361" d="M1202 0l-553 1331l17 41h30l574 -1372h-68zM92 0l498 1188l31 -74l-289 -696h577l23 -60h-625l-147 -358h-68z" />
<glyph unicode="B" horiz-adv-x="1249" d="M979 707q168 -114 168 -324q0 -168 -109.5 -275.5t-306.5 -107.5h-487h-33v1352h65h390q162 0 255 -91t93 -231q0 -139 -93 -232t-255 -93h-279v59h272q140 0 213.5 74t73.5 192q0 119 -73 190.5t-214 71.5h-383v-1233h451q168 0 260 91t92 235q0 162 -145 274z" />
<glyph unicode="C" horiz-adv-x="1452" d="M1286 1069q-84 113 -208 176.5t-273 63.5q-155 0 -288 -68t-220 -180v92q96 103 226 161t278 58q163 0 302.5 -70t231.5 -194zM803 -20q-187 0 -344.5 91t-249.5 251t-92 354q0 168 69 309v-311q0 -175 80.5 -319.5t223 -228t315.5 -83.5q149 0 273 63.5t208 176.5 l49 -39q-92 -124 -230.5 -194t-301.5 -70z" />
<glyph unicode="D" horiz-adv-x="1429" d="M276 1352v-1352h-65v1352h65zM578 1352q176 0 317 -51.5t231.5 -142.5t138.5 -213.5t48 -266.5q0 -143 -48 -266t-138.5 -215t-231.5 -144.5t-317 -52.5h-191v59h191q159 0 287 49t209.5 134t125 196.5t43.5 239.5q0 129 -43.5 239.5t-125 194.5t-209.5 132t-287 48h-191 v60h191z" />
<glyph unicode="E" horiz-adv-x="1148" d="M211 0v1352h831v-60h-766v-1233h791v-59h-856zM387 707v59h492v-59h-492z" />
<glyph unicode="F" horiz-adv-x="1052" d="M211 0v1352h811v-60h-746v-1292h-65zM387 666v59h512v-59h-512z" />
<glyph unicode="G" horiz-adv-x="1523" d="M1286 1069q-84 113 -208 176.5t-273 63.5q-155 0 -288 -68t-220 -180v92q96 103 226 161t278 58q163 0 302.5 -70t231.5 -194zM803 -20q-189 0 -346.5 91t-248.5 251t-91 354q0 168 69 309v-311q0 -175 80.5 -319.5t223 -228t315.5 -83.5q167 0 305 76.5t219 208.5v147 h66v-158q-90 -159 -248.5 -248t-343.5 -89zM801 586v59h594v-59h-594z" />
<glyph unicode="H" horiz-adv-x="1441" d="M276 1352v-1352h-65v1352h65zM1231 1352v-1352h-66v707h-778v59h778v586h66z" />
<glyph unicode="I" horiz-adv-x="487" d="M211 0v1352h65v-1352h-65z" />
<glyph unicode="J" horiz-adv-x="739" d="M528 1352v-1076q0 -154 -84.5 -225t-222.5 -71q-75 0 -160 20v59q99 -18 158 -18q53 0 94 10.5t76.5 35.5t54.5 72.5t19 116.5v1076h65z" />
<glyph unicode="K" horiz-adv-x="1224" d="M211 0v1352h65v-1352h-65zM455 735l688 -735h-84l-690 735l641 617h88z" />
<glyph unicode="L" horiz-adv-x="1009" d="M276 1352v-1182h-65v1182h65zM961 59v-59h-750v59h750z" />
<glyph unicode="M" horiz-adv-x="1601" d="M1391 1372v-78l-574 -841h-31l-575 841v78h31l559 -823l559 823h31zM211 1102l65 -96v-1006h-65v1102zM1391 1102v-1102h-66v1006z" />
<glyph unicode="N" horiz-adv-x="1441" d="M1200 -20l-989 1318v74h31l989 -1319v-73h-31zM1231 238l-66 86v1028h66v-1114zM211 0v1114l65 -86v-1028h-65z" />
<glyph unicode="O" d="M801 1372q188 0 346 -91t250 -251t92 -354q0 -166 -70 -309v311q0 175 -80.5 319.5t-222 228t-313.5 83.5q-154 0 -286.5 -68t-219.5 -180v92q96 103 226 161t278 58zM186 985v-311q0 -175 80.5 -319.5t222.5 -228t314 -83.5q154 0 286.5 68t219.5 180v-92 q-95 -104 -225 -161.5t-279 -57.5q-188 0 -346 91t-250 251t-92 354q0 168 69 309z" />
<glyph unicode="P" horiz-adv-x="1140" d="M659 1352q182 0 286 -100.5t104 -256.5q0 -157 -104 -257.5t-286 -100.5h-272v59h268q157 0 241.5 82.5t84.5 214.5t-84.5 215.5t-241.5 83.5h-379v-1292h-65v1352h448z" />
<glyph unicode="Q" d="M803 1309q-154 0 -286.5 -68t-219.5 -180v92q96 103 226 161t278 58q188 0 346 -91t250 -251t92 -354q0 -163 -66 -302.5t-182 -236.5l-39 51q103 89 160 216t57 274q0 175 -80.5 319.5t-222 228t-313.5 83.5zM1901 -330q78 0 202 15v-56q-105 -18 -200 -18 q-491 0 -807 434q-136 -65 -295 -65q-189 0 -346 92t-247.5 252t-90.5 352q0 168 69 309v-307q0 -132 47 -249.5t128.5 -202t196.5 -134t245 -49.5q170 0 309 82q311 -455 789 -455z" />
<glyph unicode="R" horiz-adv-x="1245" d="M211 0v1352h448q182 0 286 -100.5t104 -256.5q0 -157 -104 -257.5t-286 -100.5h-272v59h268q157 0 241.5 82.5t84.5 214.5t-84.5 215.5t-241.5 83.5h-379v-1292h-65zM1118 0l-399 530l78 5l401 -535h-80z" />
<glyph unicode="S" horiz-adv-x="1136" d="M924 1130q-130 179 -340 179q-118 0 -205 -43v65q90 41 201 41q127 0 226 -55t165 -150zM915 121v184q0 55 -11 97.5t-29.5 73t-54.5 59t-73.5 49.5t-99.5 51l-155 74q-38 18 -60 29.5t-57.5 32.5t-56 38t-46.5 44t-39.5 55t-23.5 65t-10 78q0 116 69 198v-172 q0 -28 2.5 -52.5t10 -46t14.5 -39t21.5 -34.5t24 -28.5t30 -26t32 -22.5t37.5 -21.5t39 -20t43 -20.5l156 -74q107 -50 170 -96.5t100 -112.5t37 -153q0 -123 -70 -209zM580 -20q-153 0 -275 75.5t-203 208.5l50 37q75 -119 183.5 -188.5t244.5 -69.5q120 0 225 55v-65 q-95 -53 -225 -53z" />
<glyph unicode="T" horiz-adv-x="1196" d="M55 1292v60h1086v-60h-1086zM565 0v1182h66v-1182h-66z" />
<glyph unicode="U" horiz-adv-x="1388" d="M696 -20q-235 0 -371.5 143.5t-136.5 392.5v836h66v-836q0 -223 120 -348t320 -125q196 0 330 113v-70q-127 -106 -328 -106zM1135 223v1129h65v-836q0 -172 -65 -293z" />
<glyph unicode="V" horiz-adv-x="1361" d="M160 1352l555 -1327l-19 -45h-30l-574 1372h68zM1270 1352l-494 -1184l-35 80l461 1104h68z" />
<glyph unicode="W" horiz-adv-x="2205" d="M1118 1372l500 -1345l-16 -47h-31l-467 1267l-391 -1054l-29 86l403 1093h31zM180 1352l473 -1321l-18 -51h-31l-491 1372h67zM2093 1352l-416 -1162l-32 89l380 1073h68z" />
<glyph unicode="X" horiz-adv-x="1185" d="M193 1352l911 -1352h-76l-911 1352h76zM1069 1352l-369 -555l-36 55l329 500h76zM492 600l36 -55l-370 -545h-76z" />
<glyph unicode="Y" horiz-adv-x="1249" d="M190 1352l467 -754v-598h-65v586l-471 766h69zM1128 1352l-403 -658l-35 56l369 602h69z" />
<glyph unicode="Z" horiz-adv-x="1208" d="M86 0v25l983 1327h55v-25l-983 -1327h-55zM176 1294v58h756l-43 -58h-713zM279 0l43 57h804v-57h-847z" />
<glyph unicode="[" horiz-adv-x="690" d="M229 1436v57h338v-57h-338zM229 -268v1593h62v-1536h276v-57h-338z" />
<glyph unicode="\" horiz-adv-x="1177" d="M20 1597h66l1071 -1845h-65z" />
<glyph unicode="]" horiz-adv-x="690" d="M399 -100v1536h-276v57h338v-1593h-62zM123 -268v57h338v-57h-338z" />
<glyph unicode="^" horiz-adv-x="1009" d="M520 1372l348 -774h-67l-330 731l18 43h31zM410 1192l32 -76l-233 -518h-68z" />
<glyph unicode="_" horiz-adv-x="1024" d="M922 -172v-57h-820v57h820z" />
<glyph unicode="`" horiz-adv-x="395" d="M281 1151l-220 436v10h76l197 -446h-53z" />
<glyph unicode="a" horiz-adv-x="1056" d="M516 1004q159 0 256.5 -98t97.5 -281v-625h-61v627q0 155 -81.5 236t-215.5 81q-99 0 -172.5 -45t-136.5 -127l-45 37q148 195 358 195zM698 494v-58h-254q-132 0 -202 -51t-70 -141q0 -69 41.5 -117t100.5 -68t128 -20q135 0 256 80v-62q-113 -77 -258 -77 q-137 0 -235.5 68t-98.5 192q0 117 92 185.5t244 68.5h256z" />
<glyph unicode="b" horiz-adv-x="1300" d="M203 0v1536h61v-1536h-61zM686 -20q-182 0 -311 110v66q137 -117 309 -117q123 0 221.5 60.5t152.5 164t54 228.5q0 193 -120.5 322.5t-307.5 129.5q-178 0 -309 -115v66q62 51 143.5 80t167.5 29q208 0 350 -148.5t142 -363.5q0 -105 -38 -199.5t-103 -163t-156.5 -109 t-194.5 -40.5z" />
<glyph unicode="c" horiz-adv-x="1132" d="M975 772q-63 81 -152.5 126.5t-195.5 45.5q-96 0 -180.5 -36.5t-147.5 -98.5v76q139 119 328 119q120 0 221 -51.5t172 -143.5zM629 -20q-104 0 -197.5 39.5t-161 107.5t-107.5 163.5t-40 201.5q0 137 65 253v-253q0 -191 127 -322t314 -131q213 0 346 172l45 -37 q-71 -92 -171 -143t-220 -51z" />
<glyph unicode="d" horiz-adv-x="1300" d="M1036 0v1536h62v-1536h-62zM614 -20q-137 0 -250 68.5t-177 186t-64 257.5q0 215 141.5 363.5t349.5 148.5q86 0 168 -29t144 -80v-66q-131 115 -310 115q-187 0 -307.5 -129.5t-120.5 -322.5q0 -125 54 -228.5t152.5 -164t221.5 -60.5q174 0 310 117v-66 q-129 -110 -312 -110z" />
<glyph unicode="e" horiz-adv-x="1173" d="M301 543h684q6 91 -22.5 167.5t-81 127t-122.5 78.5t-149 28q-179 0 -300.5 -131t-121.5 -321q0 -192 125.5 -322.5t311.5 -130.5q107 0 197 45.5t153 126.5l45 -37q-70 -91 -173 -142.5t-222 -51.5q-137 0 -252.5 67.5t-182.5 185.5t-67 259q0 213 142.5 361t348.5 148 q87 0 166 -29.5t139.5 -84t96 -137t35.5 -181.5q0 -21 -1.5 -42t-3.5 -31l-2 -11h-743v58z" />
<glyph unicode="f" horiz-adv-x="552" d="M489 1556q53 0 103 -12v-55q-58 10 -98 10q-222 0 -222 -219v-297h269v-57h-473v57h143v297q0 144 75.5 210t202.5 66zM272 815v-815h-61v815h61z" />
<glyph unicode="g" horiz-adv-x="1314" d="M627 0q-206 0 -348 144.5t-142 357.5q0 140 64.5 256t177 182t248.5 66q183 0 313 -111v-66q-136 117 -311 117q-186 0 -306 -126t-120 -318q0 -191 120.5 -317t305.5 -126q180 0 311 115v-65q-131 -109 -313 -109zM647 -389q-133 0 -251.5 53t-192.5 139l43 41 q69 -80 175.5 -128t225.5 -48q179 0 291.5 110t112.5 304v901h61v-901q0 -218 -131 -344.5t-334 -126.5z" />
<glyph unicode="h" horiz-adv-x="1128" d="M203 0v1536h61v-1536h-61zM881 0v625q0 142 -80 230.5t-217 88.5q-116 0 -209 -59v61q89 58 211 58q167 0 261.5 -105.5t94.5 -273.5v-625h-61z" />
<glyph unicode="i" horiz-adv-x="466" d="M233 1294q-29 0 -49 20.5t-20 49.5t20 49.5t49 20.5t49.5 -20.5t20.5 -49.5t-20.5 -49.5t-49.5 -20.5zM264 983v-983h-61v983h61z" />
<glyph unicode="j" horiz-adv-x="466" d="M233 1294q-29 0 -49 20.5t-20 49.5t20 49.5t49 20.5t49.5 -20.5t20.5 -49.5t-20.5 -49.5t-49.5 -20.5zM264 983v-1096q0 -144 -75.5 -210t-202.5 -66q-54 0 -103 12v55q58 -10 99 -10q221 0 221 219v1096h61z" />
<glyph unicode="k" horiz-adv-x="948" d="M203 0v1536h61v-1536h-61zM436 551l471 -551h-80l-471 553l418 430h86z" />
<glyph unicode="l" horiz-adv-x="466" d="M264 1536v-1536h-61v1536h61z" />
<glyph unicode="m" horiz-adv-x="1761" d="M858 0v625q0 144 -73.5 231.5t-204.5 87.5q-112 0 -205 -59v61q89 58 209 58q160 0 248 -105t88 -274v-625h-62zM1513 0v625q0 145 -73.5 232t-204.5 87q-114 0 -238 -88l-30 45q115 103 264 103q167 0 255.5 -103.5t88.5 -275.5v-625h-62zM203 0v983h61v-983h-61z" />
<glyph unicode="n" horiz-adv-x="1128" d="M586 1004q167 0 261.5 -105.5t94.5 -273.5v-625h-61v625q0 142 -80 230.5t-217 88.5q-116 0 -209 -59v61q89 58 211 58zM264 983v-983h-61v983h61z" />
<glyph unicode="o" horiz-adv-x="1255" d="M627 1004q104 0 197.5 -39.5t161 -107.5t107.5 -163.5t40 -201.5q0 -137 -66 -254v254q0 191 -126.5 321.5t-313.5 130.5q-96 0 -180.5 -36.5t-147.5 -98.5v76q139 119 328 119zM188 745v-253q0 -191 127 -322t314 -131q189 0 327 135v-76q-138 -118 -327 -118 q-104 0 -197.5 39.5t-161 107.5t-107.5 163.5t-40 201.5q0 137 65 253z" />
<glyph unicode="p" horiz-adv-x="1300" d="M686 1004q103 0 194.5 -40.5t156.5 -109t103 -163t38 -199.5q0 -215 -142 -363.5t-350 -148.5q-86 0 -167.5 28.5t-143.5 79.5v66q131 -115 309 -115q187 0 307.5 130t120.5 323q0 125 -54 228t-152.5 163.5t-221.5 60.5q-172 0 -309 -117v66q130 111 311 111zM264 983 v-1352h-61v1352h61z" />
<glyph unicode="q" horiz-adv-x="1300" d="M614 -20q-208 0 -349.5 148.5t-141.5 363.5q0 140 64 257.5t177 186t250 68.5q182 0 312 -111v-66q-136 117 -310 117q-123 0 -221.5 -60.5t-152.5 -163.5t-54 -228q0 -193 120.5 -323t307.5 -130q179 0 310 115v-66q-62 -51 -144 -79.5t-168 -28.5zM1036 -369v1352h62 v-1352h-62z" />
<glyph unicode="r" horiz-adv-x="563" d="M457 1004q29 0 49 -20.5t20 -49.5t-20 -49.5t-49 -20.5t-49.5 20.5t-20.5 49.5t20.5 49.5t49.5 20.5zM264 983v-983h-61v983h61z" />
<glyph unicode="s" horiz-adv-x="931" d="M739 805q-58 68 -121.5 103.5t-146.5 35.5q-63 0 -119 -18v57q59 21 121 21q181 0 311 -158zM725 74v143q0 51 -14.5 88.5t-48 66.5t-67.5 48.5t-93 46.5l-86 39q-51 23 -87.5 44t-74.5 52t-58 72.5t-20 91.5q0 76 66 152v-134q0 -85 46 -129.5t161 -95.5l92 -41 q45 -20 77 -37.5t67 -43.5t56.5 -53.5t35.5 -65.5t14 -82q0 -90 -66 -162zM475 -20q-229 0 -369 215l50 36q66 -95 144 -143.5t181 -48.5q72 0 133 22v-57q-64 -24 -139 -24z" />
<glyph unicode="t" horiz-adv-x="716" d="M301 1270v-287h328v-57h-566v57h177v287h61zM301 815v-559q0 -219 219 -219q54 0 142 18v-55q-75 -20 -146 -20q-124 0 -200 66.5t-76 209.5v559h61z" />
<glyph unicode="u" horiz-adv-x="1112" d="M557 -20q-158 0 -264.5 103.5t-106.5 274.5v625h62v-625q0 -149 88 -234t219 -85q111 0 199 55v-61q-86 -53 -197 -53zM864 139v844h62v-625q0 -125 -62 -219z" />
<glyph unicode="v" horiz-adv-x="1060" d="M141 983l424 -963l-18 -40h-31l-442 1003h67zM987 983l-362 -825l-33 75l328 750h67z" />
<glyph unicode="w" horiz-adv-x="1722" d="M1237 -20l-377 899l-295 -707l-33 90l314 742h31l411 -971l-20 -53h-31zM455 -20l-381 1003h67l363 -958l-19 -45h-30zM1343 182l-34 80l272 721h68z" />
<glyph unicode="x" horiz-adv-x="956" d="M819 0l-725 983h76l725 -983h-76zM584 608l-37 49l239 326h76zM61 0l310 424l37 -51l-271 -373h-76z" />
<glyph unicode="y" horiz-adv-x="1060" d="M205 -389q-67 0 -131 18v56q80 -17 127 -17q79 0 135.5 40.5t97.5 137.5l486 1137h67l-498 -1163q-48 -112 -118 -160.5t-166 -48.5zM444 152l-370 831h67l336 -756z" />
<glyph unicode="z" horiz-adv-x="915" d="M829 983v-25l-702 -958h-49v25l702 958h49zM643 983l-43 -57h-475v57h518zM840 57v-57h-576l41 57h535z" />
<glyph unicode="{" horiz-adv-x="804" d="M123 584v57h115q143 0 143 141q0 47 -31 212t-31 241q0 139 70.5 198.5t198.5 59.5h94v-57h-94q-103 0 -155 -49t-52 -158q0 -70 30.5 -230.5t30.5 -214.5q0 -90 -52 -145t-154 -55h-113zM588 -268q-60 0 -106.5 13t-84.5 41.5t-58 81t-20 126.5q0 79 31 238.5t31 207.5 q0 42 -12 76l57 12q16 -37 16 -88q0 -55 -30.5 -213t-30.5 -229q0 -110 52.5 -159.5t154.5 -49.5h94v-57h-94z" />
<glyph unicode="|" horiz-adv-x="679" d="M371 1597v-1845h-62v1845h62z" />
<glyph unicode="}" horiz-adv-x="804" d="M379 700q-17 39 -17 88q0 55 31 213.5t31 229.5q0 110 -52.5 159.5t-154.5 49.5h-94v57h94q125 0 196.5 -59.5t71.5 -202.5q0 -79 -30.5 -239t-30.5 -208q0 -40 12 -75zM123 -264v57h94q103 0 155 49t52 158q0 70 -31 230t-31 214q0 90 52.5 145.5t154.5 55.5h113v-57 h-115q-143 0 -143 -142q0 -47 30.5 -211.5t30.5 -240.5q0 -139 -70.5 -198.5t-197.5 -59.5h-94z" />
<glyph unicode="~" horiz-adv-x="1146" d="M315 776q70 0 174 -63l203 -123q79 -49 133 -49q43 0 69 29t26 73v43h59q2 -27 2 -43q0 -64 -40.5 -112t-111.5 -48q-68 0 -174 64l-202 123q-79 49 -134 49q-43 0 -68.5 -29.5t-25.5 -73.5v-43h-59q-2 27 -2 43q0 64 40 112t111 48z" />
<glyph unicode="&#xa1;" horiz-adv-x="552" d="M274 1004q33 0 57.5 -21.5t24.5 -56.5q0 -38 -24.5 -60t-57.5 -22q-30 0 -53.5 22t-23.5 60q0 35 23.5 56.5t53.5 21.5zM305 610l10 -979h-77l10 979h57z" />
<glyph unicode="&#xa2;" horiz-adv-x="1130" d="M580 1128q-170 0 -294.5 -113t-144.5 -284h-63q17 183 145 311.5t309 143.5v352h64v-350q114 -4 211 -55.5t164 -139.5l-45 -37q-63 81 -152.5 126.5t-193.5 45.5zM578 223q106 0 197 46.5t151 125.5l45 -37q-67 -88 -164 -139t-211 -55v-350h-64v352q-180 15 -308.5 144 t-145.5 311h63q20 -170 144.5 -284t292.5 -114z" />
<glyph unicode="&#xa3;" horiz-adv-x="1011" d="M784 588v-58h-624v58h221q-17 45 -49.5 108.5t-56.5 109.5t-43 110t-19 124q0 148 96.5 240t251.5 92q140 0 235 -79.5t140 -225.5l-64 -20q-82 264 -313 264q-130 0 -203 -78.5t-73 -196.5q0 -56 19.5 -116.5t44 -106.5t56 -110t48.5 -115h333zM479 420 q0 -115 -51.5 -209.5t-138.5 -153.5h631v-57h-781v25q123 65 199 166t76 229h65z" />
<glyph unicode="&#xa4;" horiz-adv-x="1366" d="M229 731q14 142 107 252l-264 274l39 41l266 -274q126 113 295 113q177 0 303 -117l278 278l41 -41l-280 -280q89 -103 104 -246h-65q-19 152 -125 250t-254 98q-149 0 -254.5 -98.5t-124.5 -249.5h-66zM1118 621q-15 -140 -104 -246l280 -281l-39 -41l-280 281 q-129 -119 -301 -119q-168 0 -297 113l-264 -275l-41 39l266 277q-94 108 -109 252h66q17 -151 122.5 -249t254.5 -98t255.5 98.5t125.5 248.5h65z" />
<glyph unicode="&#xa5;" horiz-adv-x="1056" d="M1032 1352l-471 -658h424v-57h-911v57h422l-471 658h69l434 -604l435 604h69zM74 332v57h911v-57h-424v-332h-65v332h-422z" />
<glyph unicode="&#xa6;" horiz-adv-x="679" d="M371 1597v-614h-62v614h62zM371 367v-615h-62v615h62z" />
<glyph unicode="&#xa7;" horiz-adv-x="1122" d="M905 143l-33 47q46 28 74.5 72.5t28.5 99.5q0 72 -50.5 139.5t-146.5 139.5l-184 141q-143 109 -197.5 182t-54.5 156q0 110 74 183t190 73q89 0 163.5 -45t123.5 -114l-47 -35q-42 59 -104.5 97t-135.5 38q-89 0 -143.5 -55t-54.5 -142q0 -72 43 -130.5t135 -125.5 l184 -139q148 -112 209 -189.5t61 -168.5q0 -72 -35.5 -131t-99.5 -93zM516 -221q-89 0 -163.5 45.5t-123.5 114.5l47 34q42 -59 104.5 -97t135.5 -38q89 0 144 55t55 142q0 72 -43 130.5t-135 125.5l-185 139q-148 112 -209 189.5t-61 168.5q0 72 35.5 131t99.5 93l33 -47 q-46 -28 -74.5 -72.5t-28.5 -99.5q0 -72 50.5 -139.5t146.5 -139.5l184 -141q143 -109 197.5 -182t54.5 -156q0 -110 -74 -183t-190 -73z" />
<glyph unicode="&#xa8;" horiz-adv-x="653" d="M131 1294q-29 0 -49.5 20.5t-20.5 49.5t20.5 49.5t49.5 20.5t49.5 -20.5t20.5 -49.5t-20.5 -49.5t-49.5 -20.5zM522 1294q-29 0 -49 20.5t-20 49.5t20 49.5t49 20.5t49.5 -20.5t20.5 -49.5t-20.5 -49.5t-49.5 -20.5z" />
<glyph unicode="&#xa9;" d="M801 -20q-189 0 -346 92t-247.5 252t-90.5 352q0 194 91 354t248 251t345 91t346 -91t250 -251t92 -354q0 -145 -54.5 -274.5t-146.5 -221.5t-219 -146t-268 -54zM1090 893l43 37q-57 74 -138.5 115.5t-177.5 41.5q-141 0 -252 -90v-73q104 104 252 104q167 0 273 -135z M815 266q96 0 178.5 42t139.5 116l-43 35q-47 -60 -118 -96.5t-155 -36.5q-145 0 -242.5 101.5t-97.5 248.5v225q-65 -100 -65 -225q0 -169 118 -289.5t285 -120.5z" />
<glyph unicode="&#xaa;" horiz-adv-x="737" d="M537 500v393q0 90 -48.5 136t-128.5 46q-61 0 -105.5 -26t-84.5 -76l-39 39q96 123 234 123q105 0 169 -63t64 -181v-391h-61zM313 487q-90 0 -151.5 44t-61.5 124q0 76 59 120t158 44h138v-53h-133q-76 0 -116 -29t-40 -82q0 -58 45.5 -85t110.5 -27t133 35v-54 q-61 -37 -142 -37z" />
<glyph unicode="&#xab;" horiz-adv-x="874" d="M428 915l45 -41l-301 -323l301 -328l-45 -37l-334 353v24zM733 915l45 -41l-301 -323l301 -328l-45 -37l-334 353v24z" />
<glyph unicode="&#xac;" horiz-adv-x="1146" d="M948 662v-480h-61v422h-752v58h813z" />
<glyph unicode="&#xad;" horiz-adv-x="696" d="M573 662v-58h-450v58h450z" />
<glyph unicode="&#xae;" horiz-adv-x="1165" d="M582 416q-128 0 -237.5 64t-174 173.5t-64.5 237.5q0 130 64.5 240t174 173.5t237.5 63.5q198 0 337.5 -139.5t139.5 -337.5q0 -96 -37.5 -183.5t-101.5 -151.5t-152.5 -102t-185.5 -38zM408 635h61v459h127q52 0 80.5 -27t28.5 -70q0 -41 -28.5 -67.5t-80.5 -26.5h-47 v-55h51q77 0 122.5 42t45.5 109q0 65 -47 107.5t-123 42.5h-192zM760 635h78l-123 158l-66 -17z" />
<glyph unicode="&#xaf;" horiz-adv-x="638" d="M61 1337v58h517v-58h-517z" />
<glyph unicode="&#xb0;" horiz-adv-x="737" d="M594 899v164q0 114 -63.5 182t-161.5 68q-56 0 -115 -25v62q55 22 115 22q121 0 205.5 -84.5t84.5 -204.5q0 -106 -65 -184zM369 795q-123 0 -207 83t-84 203q0 108 65 187v-164q0 -115 64.5 -182.5t161.5 -67.5q55 0 114 25v-62q-55 -22 -114 -22z" />
<glyph unicode="&#xb1;" horiz-adv-x="1146" d="M604 1079v-387h385v-57h-385v-387h-61v387h-387v57h387v387h61zM989 57v-57h-833v57h833z" />
<glyph unicode="&#xb2;" horiz-adv-x="733" d="M190 885l195 198q80 83 119 145t39 130q0 79 -52 135.5t-139 56.5q-90 0 -143 -59t-53 -141q0 -32 6 -70h-62q-8 31 -8 74q0 103 71.5 179.5t188.5 76.5q113 0 184.5 -71t71.5 -177q0 -85 -45.5 -155t-136.5 -163l-158 -159h-78zM74 745v19l39 39h536v-58h-575z" />
<glyph unicode="&#xb3;" horiz-adv-x="716" d="M248 1212v21l250 307h-392v57h494v-20l-299 -365h-53zM332 733q-95 0 -165 47t-114 119l47 33q88 -139 234 -139q100 0 162.5 60.5t62.5 158.5q0 72 -37.5 119t-115.5 75l34 47q81 -24 133 -85.5t52 -157.5q0 -127 -86.5 -202t-206.5 -75z" />
<glyph unicode="&#xb4;" horiz-adv-x="395" d="M61 1151l197 446h76v-10l-219 -436h-54z" />
<glyph unicode="&#xb5;" horiz-adv-x="1183" d="M203 -369v1352h61v-1352h-61zM1067 49q23 0 63 6v-55q-39 -8 -71 -8q-157 0 -176 168q-45 -85 -125.5 -132.5t-184.5 -47.5q-112 0 -198 55v61q92 -57 196 -57q134 0 222 94t88 244v606h61v-766q0 -168 125 -168z" />
<glyph unicode="&#xb6;" horiz-adv-x="1075" d="M688 1352v-840h-125q-204 0 -337.5 117.5t-133.5 306.5t133 302.5t338 113.5h125zM864 1352v-1440q0 -160 -77 -230.5t-205 -70.5q-69 0 -144 20v58q93 -19 137 -19q50 0 88 10.5t71.5 36t51 75t17.5 120.5v1440h61z" />
<glyph unicode="&#xb7;" horiz-adv-x="552" d="M274 713q33 0 57.5 -22t24.5 -60q0 -35 -24.5 -56.5t-57.5 -21.5q-30 0 -53.5 21.5t-23.5 56.5q0 38 23.5 60t53.5 22z" />
<glyph unicode="&#xb8;" horiz-adv-x="485" d="M195 -389q-62 0 -134 20v56q89 -19 127 -19q72 0 121 40t49 118q0 26 -2 51h60q8 -24 8 -55q0 -88 -62.5 -149.5t-166.5 -61.5z" />
<glyph unicode="&#xb9;" horiz-adv-x="698" d="M397 1597v-712h-63v655h-230v57h293zM602 803v-58h-498v58h498z" />
<glyph unicode="&#xba;" horiz-adv-x="849" d="M682 614v197q0 113 -74 188.5t-184 75.5q-100 0 -174 -61v69q77 52 174 52q134 0 229 -94t95 -230q0 -112 -66 -197zM426 487q-134 0 -229 94t-95 230q0 112 66 197v-197q0 -113 74 -188.5t184 -75.5q100 0 174 61v-69q-77 -52 -174 -52z" />
<glyph unicode="&#xbb;" horiz-adv-x="874" d="M141 915l334 -352v-24l-334 -353l-45 37l301 328l-301 323zM446 915l334 -352v-24l-334 -353l-45 37l301 328l-301 323z" />
<glyph unicode="&#xbc;" horiz-adv-x="1742" d="M334 639v655h-230v58h293v-713h-63zM1288 1352h64l-781 -1352h-63zM1364 852h66l-271 -627h264v-57h-346v20zM602 557v-57h-498v57h498zM1700 225v-57h-131v-168h-64v535h64v-310h131z" />
<glyph unicode="&#xbd;" horiz-adv-x="1822" d="M397 1352v-713h-63v655h-230v58h293zM1352 1352l-781 -1352h-63l780 1352h64zM1280 139l195 199q80 83 118.5 144t38.5 130q0 79 -51.5 136t-138.5 57q-90 0 -143.5 -59.5t-53.5 -141.5q0 -32 6 -69h-61q-8 31 -8 73q0 103 71.5 179.5t188.5 76.5q113 0 184.5 -71 t71.5 -177q0 -45 -13.5 -86.5t-42.5 -83t-55 -71.5t-71 -76l-158 -160h-78zM602 557v-57h-498v57h498zM1163 0v18l39 39h537v-57h-576z" />
<glyph unicode="&#xbe;" horiz-adv-x="1689" d="M248 987l250 307h-392v58h494v-21l-299 -364h-53v20zM1235 1352h63l-780 -1352h-63zM625 764q0 -127 -86.5 -202t-206.5 -75q-95 0 -165 47t-114 119l47 33q88 -139 234 -139q100 0 162.5 60.5t62.5 158.5q0 73 -37.5 120t-115.5 75l34 47q81 -24 133 -85.5t52 -158.5z M1311 852h65l-270 -627h264v-57h-346v20zM1647 225v-57h-131v-168h-64v535h64v-310h131z" />
<glyph unicode="&#xbf;" horiz-adv-x="901" d="M473 844q-31 0 -55.5 23t-24.5 59q0 35 24.5 56.5t55.5 21.5q32 0 56 -21t24 -57q0 -38 -24 -60t-56 -22zM176 -260q-65 83 -65 197q0 38 7 72t25 67.5t32 56t47.5 58t49.5 51t58 55.5q54 51 78 77.5t44.5 66.5t20.5 83q0 35 -14 86h61q19 -44 19 -86q0 -70 -39 -126 t-129 -142q-46 -45 -67 -66.5t-51.5 -58t-43.5 -64t-23 -66.5t-10 -83v-178zM442 -389q-85 0 -155 37v61q73 -39 153 -39q96 0 170 58.5t107 169.5l57 -21q-35 -120 -123.5 -193t-208.5 -73z" />
<glyph unicode="&#xc0;" horiz-adv-x="1361" d="M655 1483l-219 370v11h76l197 -381h-54zM1202 0l-553 1331l17 41h30l574 -1372h-68zM92 0l498 1188l31 -74l-289 -696h577l23 -60h-625l-147 -358h-68z" />
<glyph unicode="&#xc1;" horiz-adv-x="1361" d="M653 1483l197 381h76v-11l-219 -370h-54zM1202 0l-553 1331l17 41h30l574 -1372h-68zM92 0l498 1188l31 -74l-289 -696h577l23 -60h-625l-147 -358h-68z" />
<glyph unicode="&#xc2;" horiz-adv-x="1361" d="M682 1782l-260 -299h-55l299 381h30l299 -381h-55zM696 1372l574 -1372h-68l-553 1331l17 41h30zM332 418h577l23 -60h-625l-147 -358h-68l498 1188l31 -74z" />
<glyph unicode="&#xc3;" horiz-adv-x="1361" d="M838 1544q-26 0 -53 11t-39.5 19t-43.5 30l-75 53q-59 43 -95 43t-52.5 -26.5t-16.5 -65.5v-43h-60q-2 12 -2 39q0 61 31.5 107t93.5 46q26 0 52.5 -10.5t40.5 -19t43 -29.5l75 -53q32 -23 51.5 -33t42.5 -10q36 0 53 26.5t17 65.5v43h60q2 -12 2 -39q0 -62 -31.5 -108 t-93.5 -46zM1202 0l-553 1331l17 41h30l574 -1372h-68zM92 0l498 1188l31 -74l-289 -696h577l23 -60h-625l-147 -358h-68z" />
<glyph unicode="&#xc4;" horiz-adv-x="1361" d="M455 1581q-29 0 -49.5 20.5t-20.5 49.5t20.5 49t49.5 20t49 -20t20 -49t-20 -49.5t-49 -20.5zM907 1581q-29 0 -49 20.5t-20 49.5t20 49t49 20t49.5 -20t20.5 -49t-20.5 -49.5t-49.5 -20.5zM1202 0l-553 1331l17 41h30l574 -1372h-68zM92 0l498 1188l31 -74l-289 -696 h577l23 -60h-625l-147 -358h-68z" />
<glyph unicode="&#xc5;" horiz-adv-x="1361" d="M627 1475q-64 18 -105 70t-41 120q0 83 59 141t142 58t142 -58t59 -141q0 -68 -41 -120t-105 -70v59q38 18 61 53t23 78q0 60 -40 100.5t-99 40.5q-60 0 -99.5 -40.5t-39.5 -100.5q0 -44 22.5 -79t61.5 -52v-59zM1202 0l-553 1331l17 41h30l574 -1372h-68zM92 0l498 1188 l31 -74l-289 -696h577l23 -60h-625l-147 -358h-68z" />
<glyph unicode="&#xc6;" horiz-adv-x="1630" d="M1042 59h506v-59h-565l-242 1352h783v-60h-703zM799 420l10 -60h-512l-186 -360h-70l616 1184l17 -90l-346 -674h471zM1360 707h-324l-10 59h334v-59z" />
<glyph unicode="&#xc7;" horiz-adv-x="1452" d="M1286 1069q-84 113 -208 176.5t-273 63.5q-155 0 -288 -68t-220 -180v92q96 103 226 161t278 58q163 0 302.5 -70t231.5 -194zM803 -20q-187 0 -344.5 91t-249.5 251t-92 354q0 168 69 309v-311q0 -175 80.5 -319.5t223 -228t315.5 -83.5q149 0 273 63.5t208 176.5 l49 -39q-92 -124 -230.5 -194t-301.5 -70zM692 -389q-61 0 -133 20v56q89 -19 127 -19q72 0 121 40t49 118q0 26 -2 51h59q9 -27 9 -55q0 -88 -63 -149.5t-167 -61.5z" />
<glyph unicode="&#xc8;" horiz-adv-x="1148" d="M590 1483l-219 370v11h75l197 -381h-53zM211 0v1352h831v-60h-766v-1233h791v-59h-856zM387 707v59h492v-59h-492z" />
<glyph unicode="&#xc9;" horiz-adv-x="1148" d="M588 1483l196 381h76v-11l-219 -370h-53zM211 0v1352h831v-60h-766v-1233h791v-59h-856zM387 707v59h492v-59h-492z" />
<glyph unicode="&#xca;" horiz-adv-x="1148" d="M616 1782l-260 -299h-55l299 381h31l299 -381h-56zM276 59h791v-59h-856v1352h831v-60h-766v-1233zM879 707h-492v59h492v-59z" />
<glyph unicode="&#xcb;" horiz-adv-x="1148" d="M389 1581q-29 0 -49.5 20.5t-20.5 49.5t20.5 49t49.5 20t49.5 -20t20.5 -49t-20.5 -49.5t-49.5 -20.5zM842 1581q-29 0 -49.5 20.5t-20.5 49.5t20.5 49t49.5 20t49 -20t20 -49t-20 -49.5t-49 -20.5zM211 0v1352h831v-60h-766v-1233h791v-59h-856zM387 707v59h492v-59 h-492z" />
<glyph unicode="&#xcc;" horiz-adv-x="487" d="M217 1483l-219 370v11h76l196 -381h-53zM211 0v1352h65v-1352h-65z" />
<glyph unicode="&#xcd;" horiz-adv-x="487" d="M215 1483l197 381h75v-11l-219 -370h-53zM211 0v1352h65v-1352h-65z" />
<glyph unicode="&#xce;" horiz-adv-x="487" d="M258 1864l299 -381h-55l-258 299l-260 -299h-56l299 381h31zM211 0v1352h65v-1352h-65z" />
<glyph unicode="&#xcf;" horiz-adv-x="487" d="M16 1581q-29 0 -49 20.5t-20 49.5t20 49t49 20t49.5 -20t20.5 -49t-20.5 -49.5t-49.5 -20.5zM469 1581q-29 0 -49.5 20.5t-20.5 49.5t20.5 49t49.5 20t49.5 -20t20.5 -49t-20.5 -49.5t-49.5 -20.5zM211 0v1352h65v-1352h-65z" />
<glyph unicode="&#xd0;" horiz-adv-x="1429" d="M578 1352q176 0 317 -51.5t231.5 -142.5t138.5 -213.5t48 -266.5q0 -143 -48 -266t-138.5 -215t-231.5 -144.5t-317 -52.5h-367v477h65v-418h302q159 0 287 49t209.5 134t125 196.5t43.5 239.5q0 129 -43.5 239.5t-125 194.5t-209.5 132t-287 48h-302v-536h-65v596h367z M586 645v-57h-586v57h586z" />
<glyph unicode="&#xd1;" horiz-adv-x="1441" d="M877 1544q-26 0 -53 11t-39.5 19t-43.5 30l-75 53q-59 43 -95 43t-52.5 -26.5t-16.5 -65.5v-43h-60q-2 12 -2 39q0 61 31.5 107t93.5 46q26 0 52.5 -10.5t39 -18.5t43.5 -30l76 -53q32 -23 51.5 -33t42.5 -10q36 0 53 26.5t17 65.5v43h59q2 -12 2 -39q0 -62 -31 -108 t-93 -46zM1200 -20l-989 1318v74h31l989 -1319v-73h-31zM1231 238l-66 86v1028h66v-1114zM211 0v1114l65 -86v-1028h-65z" />
<glyph unicode="&#xd2;" d="M776 1483l-219 370v11h76l196 -381h-53zM801 1372q188 0 346 -91t250 -251t92 -354q0 -166 -70 -309v311q0 175 -80.5 319.5t-222 228t-313.5 83.5q-154 0 -286.5 -68t-219.5 -180v92q96 103 226 161t278 58zM186 985v-311q0 -175 80.5 -319.5t222.5 -228t314 -83.5 q154 0 286.5 68t219.5 180v-92q-95 -104 -225 -161.5t-279 -57.5q-188 0 -346 91t-250 251t-92 354q0 168 69 309z" />
<glyph unicode="&#xd3;" d="M774 1483l197 381h76v-11l-220 -370h-53zM801 1372q188 0 346 -91t250 -251t92 -354q0 -166 -70 -309v311q0 175 -80.5 319.5t-222 228t-313.5 83.5q-154 0 -286.5 -68t-219.5 -180v92q96 103 226 161t278 58zM186 985v-311q0 -175 80.5 -319.5t222.5 -228t314 -83.5 q154 0 286.5 68t219.5 180v-92q-95 -104 -225 -161.5t-279 -57.5q-188 0 -346 91t-250 251t-92 354q0 168 69 309z" />
<glyph unicode="&#xd4;" d="M803 1782l-260 -299h-56l299 381h31l299 -381h-55zM1489 676q0 -166 -70 -309v311q0 175 -80.5 319.5t-222 228t-313.5 83.5q-154 0 -286.5 -68t-219.5 -180v92q96 103 226 161t278 58q188 0 346 -91t250 -251t92 -354zM803 43q154 0 286.5 68t219.5 180v-92 q-95 -104 -225 -161.5t-279 -57.5q-188 0 -346 91t-250 251t-92 354q0 168 69 309v-311q0 -175 80.5 -319.5t222.5 -228t314 -83.5z" />
<glyph unicode="&#xd5;" d="M958 1544q-9 0 -17.5 1t-17.5 3.5t-15 4t-16 7t-13.5 7t-15 9.5t-13 8.5t-14.5 9.5l-13 10l-75 53q-59 43 -95 43t-52.5 -26.5t-16.5 -65.5v-43h-60q-2 12 -2 39q0 61 31.5 107t93.5 46q26 0 52.5 -10.5t39 -18.5t43.5 -30l76 -53q32 -23 51.5 -33t42.5 -10q36 0 53 26.5 t17 65.5v43h59q2 -12 2 -39q0 -62 -31.5 -108t-93.5 -46zM801 1372q188 0 346 -91t250 -251t92 -354q0 -166 -70 -309v311q0 175 -80.5 319.5t-222 228t-313.5 83.5q-154 0 -286.5 -68t-219.5 -180v92q96 103 226 161t278 58zM186 985v-311q0 -175 80.5 -319.5t222.5 -228 t314 -83.5q154 0 286.5 68t219.5 180v-92q-95 -104 -225 -161.5t-279 -57.5q-188 0 -346 91t-250 251t-92 354q0 168 69 309z" />
<glyph unicode="&#xd6;" d="M575 1581q-29 0 -49 20.5t-20 49.5t20 49t49 20t49.5 -20t20.5 -49t-20.5 -49.5t-49.5 -20.5zM1028 1581q-29 0 -49.5 20.5t-20.5 49.5t20.5 49t49.5 20t49.5 -20t20.5 -49t-20.5 -49.5t-49.5 -20.5zM801 1372q188 0 346 -91t250 -251t92 -354q0 -166 -70 -309v311 q0 175 -80.5 319.5t-222 228t-313.5 83.5q-154 0 -286.5 -68t-219.5 -180v92q96 103 226 161t278 58zM186 985v-311q0 -175 80.5 -319.5t222.5 -228t314 -83.5q154 0 286.5 68t219.5 180v-92q-95 -104 -225 -161.5t-279 -57.5q-188 0 -346 91t-250 251t-92 354q0 168 69 309 z" />
<glyph unicode="&#xd7;" horiz-adv-x="1146" d="M909 1010l41 -41l-336 -336l336 -336l-39 -41l-336 336l-335 -336l-41 39l336 338l-336 336l39 41l335 -336z" />
<glyph unicode="&#xd8;" d="M1499 1329l-186 -186q176 -205 176 -469q0 -144 -54.5 -273t-146.5 -221t-220 -146t-269 -54q-214 0 -375 114l39 49q159 -100 342 -100q172 0 313 84.5t221 229t80 317.5q0 237 -153 422l-1116 -1116l-44 43l187 186q-176 205 -176 469q0 144 54.5 273t146.5 221 t220 146t269 54q213 0 375 -115l-39 -49q-160 101 -342 101q-172 0 -313.5 -84.5t-221.5 -229t-80 -317.5q0 -236 154 -422l1116 1116z" />
<glyph unicode="&#xd9;" horiz-adv-x="1388" d="M668 1483l-219 370v11h75l197 -381h-53zM696 -20q-235 0 -371.5 143.5t-136.5 392.5v836h66v-836q0 -223 120 -348t320 -125q196 0 330 113v-70q-127 -106 -328 -106zM1135 223v1129h65v-836q0 -172 -65 -293z" />
<glyph unicode="&#xda;" horiz-adv-x="1388" d="M666 1483l196 381h76v-11l-219 -370h-53zM696 -20q-235 0 -371.5 143.5t-136.5 392.5v836h66v-836q0 -223 120 -348t320 -125q196 0 330 113v-70q-127 -106 -328 -106zM1135 223v1129h65v-836q0 -172 -65 -293z" />
<glyph unicode="&#xdb;" horiz-adv-x="1388" d="M694 1782l-260 -299h-55l299 381h31l299 -381h-56zM254 516q0 -223 120 -348t320 -125q196 0 330 113v-70q-127 -106 -328 -106q-235 0 -371.5 143.5t-136.5 392.5v836h66v-836zM1135 1352h65v-836q0 -172 -65 -293v1129z" />
<glyph unicode="&#xdc;" horiz-adv-x="1388" d="M467 1581q-29 0 -49.5 20.5t-20.5 49.5t20.5 49t49.5 20t49.5 -20t20.5 -49t-20.5 -49.5t-49.5 -20.5zM920 1581q-29 0 -49.5 20.5t-20.5 49.5t20.5 49t49.5 20t49 -20t20 -49t-20 -49.5t-49 -20.5zM696 -20q-235 0 -371.5 143.5t-136.5 392.5v836h66v-836 q0 -223 120 -348t320 -125q196 0 330 113v-70q-127 -106 -328 -106zM1135 223v1129h65v-836q0 -172 -65 -293z" />
<glyph unicode="&#xdd;" horiz-adv-x="1249" d="M596 1483l197 381h75v-11l-219 -370h-53zM190 1352l467 -754v-598h-65v586l-471 766h69zM1128 1352l-403 -658l-35 56l369 602h69z" />
<glyph unicode="&#xde;" horiz-adv-x="1140" d="M276 1352v-1352h-65v1352h65zM659 1079q183 0 286.5 -101.5t103.5 -264.5q0 -164 -103.5 -266.5t-286.5 -102.5h-272v59h268q158 0 242 84.5t84 223.5t-84 224t-242 85h-268v59h272z" />
<glyph unicode="&#xdf;" horiz-adv-x="1185" d="M203 0v1135q0 195 107.5 308t269.5 113q125 0 204.5 -70t79.5 -194q0 -74 -28 -162l-129 -405l-56 31l123 387q25 79 25 147q0 97 -60 152t-164 55q-138 0 -224.5 -95t-86.5 -267v-1135h-61zM809 -25q-190 0 -324 156l41 41q117 -137 287 -137q108 0 176 48t68 142 q0 67 -41 107t-162 110l-258 150l20 55l265 -151q119 -68 158 -103q83 -72 83 -172q0 -116 -90 -181t-223 -65z" />
<glyph unicode="&#xe0;" horiz-adv-x="1056" d="M494 1151l-220 436v10h76l197 -446h-53zM516 1004q159 0 256.5 -98t97.5 -281v-625h-61v627q0 155 -81.5 236t-215.5 81q-99 0 -172.5 -45t-136.5 -127l-45 37q148 195 358 195zM698 494v-58h-254q-132 0 -202 -51t-70 -141q0 -69 41.5 -117t100.5 -68t128 -20 q135 0 256 80v-62q-113 -77 -258 -77q-137 0 -235.5 68t-98.5 192q0 117 92 185.5t244 68.5h256z" />
<glyph unicode="&#xe1;" horiz-adv-x="1056" d="M487 1151l197 446h76v-10l-219 -436h-54zM516 1004q159 0 256.5 -98t97.5 -281v-625h-61v627q0 155 -81.5 236t-215.5 81q-99 0 -172.5 -45t-136.5 -127l-45 37q148 195 358 195zM698 494v-58h-254q-132 0 -202 -51t-70 -141q0 -69 41.5 -117t100.5 -68t128 -20 q135 0 256 80v-62q-113 -77 -258 -77q-137 0 -235.5 68t-98.5 192q0 117 92 185.5t244 68.5h256z" />
<glyph unicode="&#xe2;" horiz-adv-x="1056" d="M514 1503l-240 -352h-55l279 446h30l279 -446h-55zM516 1004q159 0 256.5 -98t97.5 -281v-625h-61v627q0 155 -81.5 236t-215.5 81q-99 0 -172.5 -45t-136.5 -127l-45 37q148 195 358 195zM106 240q0 117 92 185.5t244 68.5h256v-58h-254q-132 0 -202 -51t-70 -141 q0 -69 41.5 -117t100.5 -68t128 -20q135 0 256 80v-62q-113 -77 -258 -77q-137 0 -235.5 68t-98.5 192z" />
<glyph unicode="&#xe3;" horiz-adv-x="1056" d="M651 1247q-68 0 -129 68l-51 55q-26 28 -45 39.5t-43 11.5q-36 0 -53 -28t-17 -72v-43h-59q-2 12 -2 39q0 66 31.5 114t95.5 48q66 0 127 -68l51 -55q26 -28 45 -39.5t43 -11.5q36 0 53 28t17 72v43h59q2 -12 2 -39q0 -41 -11.5 -76t-41 -60.5t-72.5 -25.5zM516 1004 q159 0 256.5 -98t97.5 -281v-625h-61v627q0 155 -81.5 236t-215.5 81q-99 0 -172.5 -45t-136.5 -127l-45 37q148 195 358 195zM698 494v-58h-254q-132 0 -202 -51t-70 -141q0 -69 41.5 -117t100.5 -68t128 -20q135 0 256 80v-62q-113 -77 -258 -77q-137 0 -235.5 68 t-98.5 192q0 117 92 185.5t244 68.5h256z" />
<glyph unicode="&#xe4;" horiz-adv-x="1056" d="M317 1294q-29 0 -49 20.5t-20 49.5t20 49.5t49 20.5t49.5 -20.5t20.5 -49.5t-20.5 -49.5t-49.5 -20.5zM709 1294q-29 0 -49.5 20.5t-20.5 49.5t20.5 49.5t49.5 20.5t49 -20.5t20 -49.5t-20 -49.5t-49 -20.5zM516 1004q159 0 256.5 -98t97.5 -281v-625h-61v627 q0 155 -81.5 236t-215.5 81q-99 0 -172.5 -45t-136.5 -127l-45 37q148 195 358 195zM698 494v-58h-254q-132 0 -202 -51t-70 -141q0 -69 41.5 -117t100.5 -68t128 -20q135 0 256 80v-62q-113 -77 -258 -77q-137 0 -235.5 68t-98.5 192q0 117 92 185.5t244 68.5h256z" />
<glyph unicode="&#xe5;" horiz-adv-x="1056" d="M459 1174q-64 18 -105 70t-41 120q0 83 59 141t142 58t142 -58t59 -141q0 -68 -41 -120t-105 -70v59q38 18 61 53t23 78q0 60 -40 100.5t-99 40.5q-60 0 -99.5 -40.5t-39.5 -100.5q0 -44 22.5 -79t61.5 -52v-59zM516 1004q159 0 256.5 -98t97.5 -281v-625h-61v627 q0 155 -81.5 236t-215.5 81q-99 0 -172.5 -45t-136.5 -127l-45 37q148 195 358 195zM698 494v-58h-254q-132 0 -202 -51t-70 -141q0 -69 41.5 -117t100.5 -68t128 -20q135 0 256 80v-62q-113 -77 -258 -77q-137 0 -235.5 68t-98.5 192q0 117 92 185.5t244 68.5h256z" />
<glyph unicode="&#xe6;" horiz-adv-x="1859" d="M1313 39q105 0 195 45.5t153 126.5l45 -37q-70 -91 -173 -142.5t-222 -51.5q-133 0 -247.5 63t-184.5 181.5t-70 267.5v135q0 155 -81.5 236t-215.5 81q-99 0 -172.5 -45t-136.5 -127l-45 37q74 97 160 146t200 49q163 0 257.5 -98t94.5 -279v-135q0 -191 128 -322 t315 -131zM1300 1004q117 0 215.5 -51t160 -152.5t61.5 -233.5l-6 -98h-750v57h690q6 91 -22 170t-80.5 133t-124.5 84.5t-152 30.5q-98 0 -184 -45t-147 -121l-27 56q68 80 163 125t203 45zM446 39q99 0 186 46t136 118l37 -45q-57 -83 -153 -130.5t-208 -47.5 q-140 0 -239 73t-99 205q0 126 91.5 197t244.5 71h256v-57h-254q-132 0 -202 -53.5t-70 -151.5q0 -58 24 -102.5t64 -70.5t87.5 -39t98.5 -13z" />
<glyph unicode="&#xe7;" horiz-adv-x="1132" d="M975 772q-63 81 -152.5 126.5t-195.5 45.5q-96 0 -180.5 -36.5t-147.5 -98.5v76q139 119 328 119q120 0 221 -51.5t172 -143.5zM629 -20q-104 0 -197.5 39.5t-161 107.5t-107.5 163.5t-40 201.5q0 137 65 253v-253q0 -191 127 -322t314 -131q213 0 346 172l45 -37 q-71 -92 -171 -143t-220 -51zM514 -389q-61 0 -133 20v56q89 -19 127 -19q72 0 121 40t49 118q0 26 -2 51h59q8 -24 8 -55q0 -88 -62.5 -149.5t-166.5 -61.5z" />
<glyph unicode="&#xe8;" horiz-adv-x="1173" d="M649 1151h-53l-219 436v10h76zM301 543h684q6 91 -22.5 167.5t-81 127t-122.5 78.5t-149 28q-179 0 -300.5 -131t-121.5 -321q0 -192 125.5 -322.5t311.5 -130.5q107 0 197 45.5t153 126.5l45 -37q-70 -91 -173 -142.5t-222 -51.5q-137 0 -252.5 67.5t-182.5 185.5 t-67 259q0 213 142.5 361t348.5 148q87 0 166 -29.5t139.5 -84t96 -137t35.5 -181.5q0 -21 -1.5 -42t-3.5 -31l-2 -11h-743v58z" />
<glyph unicode="&#xe9;" horiz-adv-x="1173" d="M862 1587l-219 -436h-53l196 446h76v-10zM301 543h684q6 91 -22.5 167.5t-81 127t-122.5 78.5t-149 28q-179 0 -300.5 -131t-121.5 -321q0 -192 125.5 -322.5t311.5 -130.5q107 0 197 45.5t153 126.5l45 -37q-70 -91 -173 -142.5t-222 -51.5q-137 0 -252.5 67.5 t-182.5 185.5t-67 259q0 213 142.5 361t348.5 148q87 0 166 -29.5t139.5 -84t96 -137t35.5 -181.5q0 -21 -1.5 -42t-3.5 -31l-2 -11h-743v58z" />
<glyph unicode="&#xea;" horiz-adv-x="1173" d="M616 1503l-239 -352h-55l278 446h31l278 -446h-55zM301 543h684q6 91 -22.5 167.5t-81 127t-122.5 78.5t-149 28q-179 0 -300.5 -131t-121.5 -321q0 -192 125.5 -322.5t311.5 -130.5q107 0 197 45.5t153 126.5l45 -37q-70 -91 -173 -142.5t-222 -51.5q-137 0 -252.5 67.5 t-182.5 185.5t-67 259q0 213 142.5 361t348.5 148q87 0 166 -29.5t139.5 -84t96 -137t35.5 -181.5q0 -21 -1.5 -42t-3.5 -31l-2 -11h-743v58z" />
<glyph unicode="&#xeb;" horiz-adv-x="1173" d="M420 1294q-29 0 -49.5 20.5t-20.5 49.5t20.5 49.5t49.5 20.5t49 -20.5t20 -49.5t-20 -49.5t-49 -20.5zM811 1294q-29 0 -49.5 20.5t-20.5 49.5t20.5 49.5t49.5 20.5t49.5 -20.5t20.5 -49.5t-20.5 -49.5t-49.5 -20.5zM301 543h684q6 91 -22.5 167.5t-81 127t-122.5 78.5 t-149 28q-179 0 -300.5 -131t-121.5 -321q0 -192 125.5 -322.5t311.5 -130.5q107 0 197 45.5t153 126.5l45 -37q-70 -91 -173 -142.5t-222 -51.5q-137 0 -252.5 67.5t-182.5 185.5t-67 259q0 213 142.5 361t348.5 148q87 0 166 -29.5t139.5 -84t96 -137t35.5 -181.5 q0 -21 -1.5 -42t-3.5 -31l-2 -11h-743v58z" />
<glyph unicode="&#xec;" horiz-adv-x="466" d="M213 1151l-158 436v10h76l135 -446h-53zM264 983v-983h-61v983h61z" />
<glyph unicode="&#xed;" horiz-adv-x="466" d="M205 1151l135 446h76v-10l-158 -436h-53zM264 983v-983h-61v983h61z" />
<glyph unicode="&#xee;" horiz-adv-x="466" d="M248 1597l278 -446h-55l-238 352l-239 -352h-55l278 446h31zM203 0v983h61v-983h-61z" />
<glyph unicode="&#xef;" horiz-adv-x="466" d="M68 1294q-29 0 -49.5 20.5t-20.5 49.5t20.5 49.5t49.5 20.5t49 -20.5t20 -49.5t-20 -49.5t-49 -20.5zM397 1294q-29 0 -49 20.5t-20 49.5t20 49.5t49 20.5t49.5 -20.5t20.5 -49.5t-20.5 -49.5t-49.5 -20.5zM264 983v-983h-61v983h61z" />
<glyph unicode="&#xf0;" horiz-adv-x="1157" d="M901 797q63 -91 98 -176t35 -181q0 -192 -130.5 -326t-328.5 -134q-197 0 -324.5 133.5t-127.5 330.5q0 95 33 176.5t86.5 135t119 89.5t131.5 48.5t123 3.5l46 -59q-51 12 -106 4.5t-108 -24t-100 -51.5t-82.5 -79.5t-56.5 -108t-21 -135.5q0 -174 110.5 -289.5 t276.5 -115.5q167 0 280.5 115t113.5 284q0 159 -125 330l-342 481l-326 -151l-24 51l315 147l-160 224l49 36l168 -233l316 145l24 -51l-305 -141z" />
<glyph unicode="&#xf1;" horiz-adv-x="1128" d="M719 1247q-68 0 -129 68l-51 55q-26 28 -45 39.5t-43 11.5q-36 0 -53 -28t-17 -72v-43h-59q-3 18 -3 39q0 66 31.5 114t95.5 48q66 0 127 -68l52 -55q26 -28 45 -39.5t43 -11.5q36 0 52.5 28t16.5 72v43h60q2 -12 2 -39q0 -41 -11.5 -76t-41 -60.5t-72.5 -25.5zM586 1004 q167 0 261.5 -105.5t94.5 -273.5v-625h-61v625q0 142 -80 230.5t-217 88.5q-116 0 -209 -59v61q89 58 211 58zM264 983v-983h-61v983h61z" />
<glyph unicode="&#xf2;" horiz-adv-x="1255" d="M608 1151l-219 436v10h76l197 -446h-54zM627 1004q104 0 197.5 -39.5t161 -107.5t107.5 -163.5t40 -201.5q0 -137 -66 -254v254q0 191 -126.5 321.5t-313.5 130.5q-96 0 -180.5 -36.5t-147.5 -98.5v76q139 119 328 119zM188 745v-253q0 -191 127 -322t314 -131 q189 0 327 135v-76q-138 -118 -327 -118q-104 0 -197.5 39.5t-161 107.5t-107.5 163.5t-40 201.5q0 137 65 253z" />
<glyph unicode="&#xf3;" horiz-adv-x="1255" d="M602 1151l197 446h75v-10l-219 -436h-53zM627 1004q104 0 197.5 -39.5t161 -107.5t107.5 -163.5t40 -201.5q0 -137 -66 -254v254q0 191 -126.5 321.5t-313.5 130.5q-96 0 -180.5 -36.5t-147.5 -98.5v76q139 119 328 119zM188 745v-253q0 -191 127 -322t314 -131 q189 0 327 135v-76q-138 -118 -327 -118q-104 0 -197.5 39.5t-161 107.5t-107.5 163.5t-40 201.5q0 137 65 253z" />
<glyph unicode="&#xf4;" horiz-adv-x="1255" d="M629 1503l-240 -352h-55l278 446h31l279 -446h-56zM1133 492q0 -137 -66 -254v254q0 191 -126.5 321.5t-313.5 130.5q-96 0 -180.5 -36.5t-147.5 -98.5v76q139 119 328 119q104 0 197.5 -39.5t161 -107.5t107.5 -163.5t40 -201.5zM188 492q0 -191 127 -322t314 -131 q189 0 327 135v-76q-138 -118 -327 -118q-104 0 -197.5 39.5t-161 107.5t-107.5 163.5t-40 201.5q0 137 65 253v-253z" />
<glyph unicode="&#xf5;" horiz-adv-x="1255" d="M766 1247q-68 0 -129 68l-51 55q-26 28 -45 39.5t-43 11.5q-36 0 -53 -28t-17 -72v-43h-59q-2 12 -2 39q0 66 31.5 114t95.5 48q66 0 127 -68l51 -55q26 -28 45 -39.5t43 -11.5q36 0 52.5 28t16.5 72v43h60q2 -12 2 -39q0 -41 -11.5 -76t-41 -60.5t-72.5 -25.5zM627 1004 q104 0 197.5 -39.5t161 -107.5t107.5 -163.5t40 -201.5q0 -137 -66 -254v254q0 191 -126.5 321.5t-313.5 130.5q-96 0 -180.5 -36.5t-147.5 -98.5v76q139 119 328 119zM188 745v-253q0 -191 127 -322t314 -131q189 0 327 135v-76q-138 -118 -327 -118q-104 0 -197.5 39.5 t-161 107.5t-107.5 163.5t-40 201.5q0 137 65 253z" />
<glyph unicode="&#xf6;" horiz-adv-x="1255" d="M432 1294q-29 0 -49.5 20.5t-20.5 49.5t20.5 49.5t49.5 20.5t49.5 -20.5t20.5 -49.5t-20.5 -49.5t-49.5 -20.5zM823 1294q-29 0 -49 20.5t-20 49.5t20 49.5t49 20.5t49.5 -20.5t20.5 -49.5t-20.5 -49.5t-49.5 -20.5zM627 1004q104 0 197.5 -39.5t161 -107.5t107.5 -163.5 t40 -201.5q0 -137 -66 -254v254q0 191 -126.5 321.5t-313.5 130.5q-96 0 -180.5 -36.5t-147.5 -98.5v76q139 119 328 119zM188 745v-253q0 -191 127 -322t314 -131q189 0 327 135v-76q-138 -118 -327 -118q-104 0 -197.5 39.5t-161 107.5t-107.5 163.5t-40 201.5 q0 137 65 253z" />
<glyph unicode="&#xf7;" horiz-adv-x="1146" d="M567 911q-29 0 -49 20.5t-20 49.5t20 49.5t49 20.5t49.5 -20.5t20.5 -49.5t-20.5 -49.5t-49.5 -20.5zM135 604v58h875v-58h-875zM567 213q-29 0 -49 20.5t-20 49.5t20 49t49 20t49.5 -20t20.5 -49t-20.5 -49.5t-49.5 -20.5z" />
<glyph unicode="&#xf8;" horiz-adv-x="1284" d="M1153 961l-131 -132q125 -141 125 -337q0 -140 -67 -258t-183 -186t-254 -68q-136 0 -248 65l35 47q101 -53 215 -53q184 0 310 130.5t126 319.5q0 171 -102 297l-805 -806l-43 43l131 131q-125 141 -125 338q0 140 67 258t183 186t254 68q134 0 248 -66l-35 -47 q-101 53 -215 53q-184 0 -310 -130.5t-126 -319.5q0 -171 102 -297l805 807z" />
<glyph unicode="&#xf9;" horiz-adv-x="1112" d="M537 1151l-220 436v10h76l197 -446h-53zM557 -20q-158 0 -264.5 103.5t-106.5 274.5v625h62v-625q0 -149 88 -234t219 -85q111 0 199 55v-61q-86 -53 -197 -53zM864 139v844h62v-625q0 -125 -62 -219z" />
<glyph unicode="&#xfa;" horiz-adv-x="1112" d="M530 1151l197 446h76v-10l-219 -436h-54zM557 -20q-158 0 -264.5 103.5t-106.5 274.5v625h62v-625q0 -149 88 -234t219 -85q111 0 199 55v-61q-86 -53 -197 -53zM864 139v844h62v-625q0 -125 -62 -219z" />
<glyph unicode="&#xfb;" horiz-adv-x="1112" d="M541 1597h30l279 -446h-55l-238 352l-240 -352h-55zM248 358q0 -149 88 -234t219 -85q111 0 199 55v-61q-86 -53 -197 -53q-158 0 -264.5 103.5t-106.5 274.5v625h62v-625zM864 983h62v-625q0 -125 -62 -219v844z" />
<glyph unicode="&#xfc;" horiz-adv-x="1112" d="M360 1294q-29 0 -49 20.5t-20 49.5t20 49.5t49 20.5t49.5 -20.5t20.5 -49.5t-20.5 -49.5t-49.5 -20.5zM752 1294q-29 0 -49.5 20.5t-20.5 49.5t20.5 49.5t49.5 20.5t49 -20.5t20 -49.5t-20 -49.5t-49 -20.5zM557 -20q-158 0 -264.5 103.5t-106.5 274.5v625h62v-625 q0 -149 88 -234t219 -85q111 0 199 55v-61q-86 -53 -197 -53zM864 139v844h62v-625q0 -125 -62 -219z" />
<glyph unicode="&#xfd;" horiz-adv-x="1060" d="M504 1151l196 446h76v-10l-219 -436h-53zM205 -389q-67 0 -131 18v56q80 -17 127 -17q79 0 135.5 40.5t97.5 137.5l486 1137h67l-498 -1163q-48 -112 -118 -160.5t-166 -48.5zM444 152l-370 831h67l336 -756z" />
<glyph unicode="&#xfe;" horiz-adv-x="1300" d="M203 -369v1905h61v-1905h-61zM686 -20q-86 0 -167.5 28.5t-143.5 79.5v66q131 -115 309 -115q187 0 307.5 130t120.5 323q0 125 -54 228t-152.5 163.5t-221.5 60.5q-172 0 -309 -117v66q130 111 311 111q103 0 194.5 -40.5t156.5 -109t103 -163t38 -199.5 q0 -215 -142 -363.5t-350 -148.5z" />
<glyph unicode="&#xff;" horiz-adv-x="1060" d="M334 1294q-29 0 -49.5 20.5t-20.5 49.5t20.5 49.5t49.5 20.5t49 -20.5t20 -49.5t-20 -49.5t-49 -20.5zM725 1294q-29 0 -49.5 20.5t-20.5 49.5t20.5 49.5t49.5 20.5t49.5 -20.5t20.5 -49.5t-20.5 -49.5t-49.5 -20.5zM205 -389q-67 0 -131 18v56q80 -17 127 -17 q79 0 135.5 40.5t97.5 137.5l486 1137h67l-498 -1163q-48 -112 -118 -160.5t-166 -48.5zM444 152l-370 831h67l336 -756z" />
<glyph unicode="&#x152;" horiz-adv-x="2357" d="M801 -20q-189 0 -346 92t-247.5 252t-90.5 352q0 194 91 354t248 251t345 91q149 0 281.5 -58.5t224.5 -162.5v-88q-86 110 -218 178t-288 68q-172 0 -313.5 -83.5t-221.5 -228t-80 -319.5q0 -176 80 -321.5t221.5 -229.5t313.5 -84q156 0 288 68t218 178v-88 q-92 -104 -224.5 -162.5t-281.5 -58.5zM1419 0v1352h832v-60h-766v-1233h790v-59h-856zM1595 707v59h492v-59h-492z" />
<glyph unicode="&#x153;" horiz-adv-x="2076" d="M1530 39q105 0 195 45.5t153 126.5l45 -37q-70 -91 -173 -142.5t-222 -51.5q-98 0 -185.5 37t-153 102.5t-104 162.5t-38.5 210q0 193 -117.5 322.5t-302.5 129.5q-187 0 -313 -130.5t-126 -321.5q0 -190 126 -321.5t311 -131.5q220 0 352 190l43 -41 q-69 -100 -171.5 -154t-223.5 -54q-137 0 -252.5 68.5t-182.5 187t-67 258.5t66.5 257t183 185t256.5 68q210 0 346.5 -146.5t136.5 -365.5q0 -193 118 -323t300 -130zM1518 1004q117 0 215 -51t159.5 -152.5t61.5 -233.5q0 -21 -1.5 -41.5t-2.5 -30.5l-2 -10h-729v58h669 q6 177 -105 289t-274 112q-98 0 -184 -45t-147 -121l-27 56q68 80 163.5 125t203.5 45z" />
<glyph unicode="&#x178;" horiz-adv-x="1249" d="M397 1581q-29 0 -49 20.5t-20 49.5t20 49t49 20t49.5 -20t20.5 -49t-20.5 -49.5t-49.5 -20.5zM850 1581q-29 0 -49.5 20.5t-20.5 49.5t20.5 49t49.5 20t49.5 -20t20.5 -49t-20.5 -49.5t-49.5 -20.5zM190 1352l467 -754v-598h-65v586l-471 766h69zM1128 1352l-403 -658 l-35 56l369 602h69z" />
<glyph unicode="&#x2c6;" horiz-adv-x="710" d="M649 1151h-55l-238 352l-239 -352h-56l279 446h31z" />
<glyph unicode="&#x2dc;" horiz-adv-x="647" d="M461 1247q-68 0 -129 68l-51 55q-26 28 -45 39.5t-43 11.5q-36 0 -53 -28t-17 -72v-43h-60q-2 12 -2 39q0 66 31.5 114t95.5 48q66 0 127 -68l52 -55q26 -28 45 -39.5t43 -11.5q36 0 52.5 28t16.5 72v43h60q2 -12 2 -39q0 -41 -11.5 -76t-41 -60.5t-72.5 -25.5z" />
<glyph unicode="&#x2000;" horiz-adv-x="932" />
<glyph unicode="&#x2001;" horiz-adv-x="1864" />
<glyph unicode="&#x2002;" horiz-adv-x="932" />
<glyph unicode="&#x2003;" horiz-adv-x="1864" />
<glyph unicode="&#x2004;" horiz-adv-x="621" />
<glyph unicode="&#x2005;" horiz-adv-x="466" />
<glyph unicode="&#x2006;" horiz-adv-x="310" />
<glyph unicode="&#x2007;" horiz-adv-x="310" />
<glyph unicode="&#x2008;" horiz-adv-x="233" />
<glyph unicode="&#x2009;" horiz-adv-x="372" />
<glyph unicode="&#x200a;" horiz-adv-x="103" />
<glyph unicode="&#x2010;" horiz-adv-x="696" d="M573 662v-58h-450v58h450z" />
<glyph unicode="&#x2011;" horiz-adv-x="696" d="M573 662v-58h-450v58h450z" />
<glyph unicode="&#x2012;" horiz-adv-x="696" d="M573 662v-58h-450v58h450z" />
<glyph unicode="&#x2013;" horiz-adv-x="1024" d="M922 662v-58h-820v58h820z" />
<glyph unicode="&#x2014;" horiz-adv-x="2048" d="M1946 662v-58h-1844v58h1844z" />
<glyph unicode="&#x2018;" horiz-adv-x="542" d="M330 1352l-41 -492h-80l67 492h54z" />
<glyph unicode="&#x2019;" horiz-adv-x="542" d="M334 1352l-68 -492h-53l41 492h80z" />
<glyph unicode="&#x201a;" horiz-adv-x="542" d="M334 129l-68 -491h-53l41 491h80z" />
<glyph unicode="&#x201c;" horiz-adv-x="829" d="M330 1352l-41 -492h-80l67 492h54zM616 1352l-41 -492h-79l67 492h53z" />
<glyph unicode="&#x201d;" horiz-adv-x="829" d="M334 1352l-68 -492h-53l41 492h80zM621 1352l-68 -492h-53l41 492h80z" />
<glyph unicode="&#x201e;" horiz-adv-x="829" d="M334 129l-68 -491h-53l41 491h80zM621 129l-68 -491h-53l41 491h80z" />
<glyph unicode="&#x2022;" horiz-adv-x="690" d="M346 758q86 0 151.5 -60t65.5 -157t-65.5 -157t-151.5 -60q-87 0 -153 60t-66 157t66 157t153 60z" />
<glyph unicode="&#x2026;" horiz-adv-x="1536" d="M274 139q33 0 57.5 -22t24.5 -60q0 -35 -24.5 -56t-57.5 -21q-30 0 -53.5 21t-23.5 56q0 38 23.5 60t53.5 22zM766 139q33 0 57.5 -22t24.5 -60q0 -35 -24.5 -56t-57.5 -21q-30 0 -54 21t-24 56q0 37 24 59.5t54 22.5zM1257 139q33 0 57.5 -22t24.5 -60q0 -35 -24.5 -56 t-57.5 -21q-30 0 -53.5 21t-23.5 56q0 38 23.5 60t53.5 22z" />
<glyph unicode="&#x202f;" horiz-adv-x="372" />
<glyph unicode="&#x2039;" horiz-adv-x="569" d="M428 915l45 -41l-301 -323l301 -328l-45 -37l-334 353v24z" />
<glyph unicode="&#x203a;" horiz-adv-x="569" d="M141 915l334 -352v-24l-334 -353l-45 37l301 328l-301 323z" />
<glyph unicode="&#x205f;" horiz-adv-x="466" />
<glyph unicode="&#x20ac;" horiz-adv-x="1400" d="M1008 852l-17 -57h-968v57h221q48 233 211.5 376.5t398.5 143.5q137 0 247 -50.5t183 -143.5l-47 -39q-135 170 -379 170q-214 0 -356.5 -125t-188.5 -332h695zM858 43q244 0 379 170l47 -39q-73 -93 -183 -143.5t-247 -50.5q-232 0 -394 140t-214 369h-230v58h906 l-17 -58h-588q45 -202 188 -324t353 -122z" />
<glyph unicode="&#x2122;" horiz-adv-x="1923" d="M1767 1366v-72l-395 -569h-26l-394 569v72h25l383 -551l381 551h26zM774 1352v-58h-743v58h743zM434 1212v-780h-63v780h63zM952 1151l64 -94v-625h-64v719zM1767 1151v-719h-63v625z" />
<glyph unicode="&#x25fc;" horiz-adv-x="983" d="M0 983h983v-983h-983v983z" />
<glyph unicode="&#xfb01;" horiz-adv-x="1050" d="M489 1556q53 0 103 -12v-55q-58 10 -98 10q-222 0 -222 -219v-297h269v-57h-473v57h143v297q0 144 75.5 210t202.5 66zM817 1294q-29 0 -49 20.5t-20 49.5t20 49.5t49 20.5t49.5 -20.5t20.5 -49.5t-20.5 -49.5t-49.5 -20.5zM848 983v-983h-62v983h62zM272 815v-815h-61 v815h61z" />
<glyph unicode="&#xfb02;" horiz-adv-x="1050" d="M489 1556q53 0 103 -12v-55q-58 10 -98 10q-222 0 -222 -219v-297h269v-57h-473v57h143v297q0 144 75.5 210t202.5 66zM848 1536v-1536h-62v1536h62zM272 815v-815h-61v815h61z" />
</font>
</defs>
</svg>
