<?xml version="1.0" encoding="UTF-8" standalone="no"?>
<svg width="80px" height="80px" viewBox="0 0 80 80" version="1.1" xmlns="http://www.w3.org/2000/svg" xmlns:xlink="http://www.w3.org/1999/xlink">
    <!-- Generator: Sketch 39.1 (31720) - http://www.bohemiancoding.com/sketch -->
    <title>Group 2</title>
    <desc>Created with Sketch.</desc>
    <defs></defs>
    <g id="SP2-Estado-Portabilidad" stroke="none" stroke-width="1" fill="none" fill-rule="evenodd">
        <g id="1-Landing-Portabildiad" transform="translate(-152.000000, -21.000000)">
            <g id="Group-2" transform="translate(152.000000, 21.000000)">
                <path d="M77.9688657,27.8168901 C84.588951,48.7582015 72.9230907,71.0842386 51.9061551,77.6883144 C30.8892195,84.284579 8.48255777,72.6606954 1.85463302,51.7193839 C-4.76616494,30.7780725 6.90040799,8.45203543 27.9173436,1.84795959 C48.9342792,-4.7490151 71.3409409,6.87557861 77.9688657,27.8168901 L77.9688657,27.8168901 Z" id="Shape" fill="#FFFFFF"></path>
                <g id="Group" transform="translate(7.272727, 21.960784)" fill="#3A1F4F">
                    <path d="M63.9915445,17.3481261 C64.2908701,17.8949152 64.1205396,18.3138834 63.5354292,18.4985135 L60.2357205,19.5281812 C59.7375571,19.6915079 59.3021096,19.5565859 59.0954323,19.1021118 L53.8786141,8.08821762 C53.7367908,7.82547481 53.5080205,7.89648638 53.5436545,8.18763381 L55.3253547,20.281614 C55.3973354,20.7779848 55.1400579,21.1330427 54.6411818,21.2899783 L52.2537036,22.0348896 C51.7619543,22.1918252 51.3478872,22.049802 51.1205422,21.6088202 L45.618652,10.6801399 C45.4768287,10.4173971 45.2551852,10.4884086 45.2836924,10.779556 L47.3497519,22.7876122 C47.443113,23.2768819 47.1573283,23.639751 46.6591649,23.7959765 L43.3658703,24.8334555 C42.7814726,25.0109844 42.397338,24.768835 42.32607,24.1510343 L40.1381422,5.38977802 C40.074001,4.89269705 40.3305658,4.53763921 40.8294419,4.38141376 L44.734216,3.15291363 C45.2338048,2.99668818 45.6179393,3.15291363 45.8752168,3.58608419 L49.5448066,9.8990126 C49.6880553,10.1546542 49.9082734,10.0907438 49.8804789,9.79249525 L49.2526077,2.52801183 C49.2176864,2.02382969 49.445744,1.67587301 49.9374933,1.51964756 L53.8501069,0.29114743 C54.3482703,0.13492198 54.7552106,0.284046273 54.9903951,0.724317995 L63.9915445,17.3481261 L63.9915445,17.3481261 Z" id="Shape"></path>
                    <path d="M0.149662817,18.157658 C-0.149662817,17.6108689 0.0213804024,17.1919007 0.605778069,17.0072706 L3.90548685,15.9776028 C4.4043629,15.8213774 4.83909775,15.9562994 5.04577498,16.4036722 L10.2625932,27.4246676 C10.4051292,27.6803093 10.62606,27.6092977 10.5975528,27.3188604 L8.81585261,15.2248802 C8.7517114,14.7277992 9.00114943,14.3727414 9.50002548,14.2165159 L11.880377,13.4708945 C12.379253,13.314669 12.7926075,13.4566922 13.0277919,13.904065 L18.5225553,24.8334555 C18.6650913,25.088387 18.8860222,25.0180856 18.857515,24.7269382 L16.7907427,12.718882 C16.6980943,12.2289022 16.9831663,11.8667432 17.4820424,11.7105177 L20.7817512,10.68085 C21.359022,10.4962199 21.7438693,10.7376592 21.8151373,11.3554599 L24.0030651,30.1238173 C24.0672063,30.613087 23.8106415,30.9681449 23.3117655,31.1250804 L19.4062786,32.3535806 C18.9074026,32.5090959 18.5296821,32.3535806 18.2659905,31.92041 L14.5956881,25.6074816 C14.453152,25.35184 14.2322212,25.4221414 14.2607284,25.7132888 L14.8878869,32.9848734 C14.9235209,33.4890556 14.6954633,33.8299111 14.1965872,33.9854264 L10.2911004,35.2139265 C9.79222432,35.3708621 9.38599667,35.2281289 9.15081224,34.7814661 L0.149662817,18.157658 L0.149662817,18.157658 Z" id="Shape"></path>
                    <path d="M24.6373504,16.2971549 C24.4164196,14.3585391 24.2097424,9.05397494 30.7806527,6.98753831 C37.3444363,4.92820283 38.3272221,9.99132764 38.5488656,11.9299435 L39.3827013,19.2512361 C39.6043448,21.1834609 39.8103093,26.4951262 33.2401117,28.5544617 C26.6763281,30.613087 25.6992437,25.5513825 25.4783129,23.6191577 L24.6373504,16.2971549 L24.6373504,16.2971549 Z M30.0608458,20.5727614 C30.3174107,22.8238281 30.6167363,24.1581355 32.6692549,23.5119302 C34.7146468,22.8735362 34.7003932,21.4533049 34.4438283,19.1944269 L33.9592059,14.9770498 C33.702641,12.718882 33.4033154,11.3838645 31.3579236,12.0300698 C29.3054049,12.676275 29.3267853,14.0965064 29.5833502,16.3546743 L30.0608458,20.5727614 L30.0608458,20.5727614 Z" id="Shape"></path>
                </g>
            </g>
        </g>
    </g>
</svg>